<?xml version="1.0" encoding="UTF-8" standalone="no"?>
<!DOCTYPE svg PUBLIC "-//W3C//DTD SVG 1.1//EN"
 "http://www.w3.org/Graphics/SVG/1.1/DTD/svg11.dtd">
<!-- Generated by graphviz version 2.40.1 (20161225.0304)
 -->
<!-- Title: Foam::FrontTrackingCloud::FrontTrackingCloud Pages: 1 -->
<svg width="310pt" height="88pt"
 viewBox="0.00 0.00 310.00 88.00" xmlns="http://www.w3.org/2000/svg" xmlns:xlink="http://www.w3.org/1999/xlink">
<g id="graph0" class="graph" transform="scale(1 1) rotate(0) translate(4 84)">
<title>Foam::FrontTrackingCloud::FrontTrackingCloud</title>
<!-- Node1 -->
<g id="node1" class="node">
<title>Node1</title>
<polygon fill="#bfbfbf" stroke="#000000" points="0,-24.5 0,-54.5 133,-54.5 133,-24.5 0,-24.5"/>
<text text-anchor="start" x="8" y="-42.5" font-family="Helvetica,sans-Serif" font-size="10.00" fill="#000000">Foam::FrontTrackingCloud</text>
<text text-anchor="middle" x="66.5" y="-31.5" font-family="Helvetica,sans-Serif" font-size="10.00" fill="#000000">::FrontTrackingCloud</text>
</g>
<!-- Node2 -->
<g id="node2" class="node">
<title>Node2</title>
<g id="a_node2"><a xlink:href="classFoam_1_1FrontTrackingCloud.html#a26181a6d9e732d8657f4152c0c08d612" target="_top" xlink:title="Foam::FrontTrackingCloud\l::setModels">
<polygon fill="none" stroke="#000000" points="169,-49.5 169,-79.5 302,-79.5 302,-49.5 169,-49.5"/>
<text text-anchor="start" x="177" y="-67.5" font-family="Helvetica,sans-Serif" font-size="10.00" fill="#000000">Foam::FrontTrackingCloud</text>
<text text-anchor="middle" x="235.5" y="-56.5" font-family="Helvetica,sans-Serif" font-size="10.00" fill="#000000">::setModels</text>
</a>
</g>
</g>
<!-- Node1&#45;&gt;Node2 -->
<g id="edge1" class="edge">
<title>Node1&#45;&gt;Node2</title>
<path fill="none" stroke="#191970" d="M143.2714,-50.8567C151.8311,-52.1229 160.4975,-53.4049 168.9152,-54.6502"/>
<polygon fill="#191970" stroke="#191970" points="143.6978,-47.3818 133.2933,-49.3807 142.6734,-54.3064 143.6978,-47.3818"/>
</g>
<!-- Node3 -->
<g id="node3" class="node">
<title>Node3</title>
<g id="a_node3"><a xlink:href="classFoam_1_1FrontTrackingCloud.html#ad185ad598e5280fdea20a85d8aff1e91" target="_top" xlink:title="Foam::FrontTrackingCloud\l::FrontTrackingCloud">
<polygon fill="none" stroke="#000000" points="169,-.5 169,-30.5 302,-30.5 302,-.5 169,-.5"/>
<text text-anchor="start" x="177" y="-18.5" font-family="Helvetica,sans-Serif" font-size="10.00" fill="#000000">Foam::FrontTrackingCloud</text>
<text text-anchor="middle" x="235.5" y="-7.5" font-family="Helvetica,sans-Serif" font-size="10.00" fill="#000000">::FrontTrackingCloud</text>
</a>
</g>
</g>
<!-- Node1&#45;&gt;Node3 -->
<g id="edge2" class="edge">
<title>Node1&#45;&gt;Node3</title>
<path fill="none" stroke="#191970" d="M143.2714,-28.5976C151.8311,-27.382 160.4975,-26.1512 168.9152,-24.9558"/>
<polygon fill="#191970" stroke="#191970" points="142.7018,-25.1432 133.2933,-30.0146 143.6861,-32.0737 142.7018,-25.1432"/>
</g>
</g>
</svg>
