<?xml version="1.0" encoding="UTF-8" standalone="no"?>
<!DOCTYPE svg PUBLIC "-//W3C//DTD SVG 1.1//EN"
 "http://www.w3.org/Graphics/SVG/1.1/DTD/svg11.dtd">
<!-- Generated by graphviz version 2.40.1 (20161225.0304)
 -->
<!-- Title: Foam::FrontTrackingParcel::iNew::operator() Pages: 1 -->
<svg width="659pt" height="380pt"
 viewBox="0.00 0.00 659.00 380.48" xmlns="http://www.w3.org/2000/svg" xmlns:xlink="http://www.w3.org/1999/xlink">
<g id="graph0" class="graph" transform="scale(1 1) rotate(0) translate(4 376.4751)">
<title>Foam::FrontTrackingParcel::iNew::operator()</title>
<!-- Node17 -->
<g id="node1" class="node">
<title>Node17</title>
<polygon fill="#bfbfbf" stroke="#000000" points="0,-180.5392 0,-210.5392 135,-210.5392 135,-180.5392 0,-180.5392"/>
<text text-anchor="start" x="8" y="-198.5392" font-family="Helvetica,sans-Serif" font-size="10.00" fill="#000000">Foam::FrontTrackingParcel</text>
<text text-anchor="middle" x="67.5" y="-187.5392" font-family="Helvetica,sans-Serif" font-size="10.00" fill="#000000">::iNew::operator()</text>
</g>
<!-- Node18 -->
<g id="node2" class="node">
<title>Node18</title>
<g id="a_node2"><a xlink:href="classFoam_1_1FrontTrackingParcel.html#a391563012bb35c149fdce579ff85671b" target="_top" xlink:title="Foam::FrontTrackingParcel\l::currentIndex">
<polygon fill="none" stroke="#000000" points="345,-257.5392 345,-287.5392 480,-287.5392 480,-257.5392 345,-257.5392"/>
<text text-anchor="start" x="353" y="-275.5392" font-family="Helvetica,sans-Serif" font-size="10.00" fill="#000000">Foam::FrontTrackingParcel</text>
<text text-anchor="middle" x="412.5" y="-264.5392" font-family="Helvetica,sans-Serif" font-size="10.00" fill="#000000">::currentIndex</text>
</a>
</g>
</g>
<!-- Node17&#45;&gt;Node18 -->
<g id="edge1" class="edge">
<title>Node17&#45;&gt;Node18</title>
<path fill="none" stroke="#191970" d="M83.8791,-210.7633C103.0785,-227.513 136.6603,-253.5181 171,-264.5392 223.8598,-281.5042 286.6043,-283.0672 334.8884,-280.6185"/>
<polygon fill="#191970" stroke="#191970" points="335.1809,-284.1076 344.9634,-280.0392 334.779,-277.1191 335.1809,-284.1076"/>
</g>
<!-- Node19 -->
<g id="node3" class="node">
<title>Node19</title>
<g id="a_node3"><a xlink:href="classFoam_1_1FrontTrackingParcel.html#accd0f684b17a5a12d549d25d682ef597" target="_top" xlink:title="Foam::FrontTrackingParcel\l::bubbleIndex">
<polygon fill="none" stroke="#000000" points="345,-188.5392 345,-218.5392 480,-218.5392 480,-188.5392 345,-188.5392"/>
<text text-anchor="start" x="353" y="-206.5392" font-family="Helvetica,sans-Serif" font-size="10.00" fill="#000000">Foam::FrontTrackingParcel</text>
<text text-anchor="middle" x="412.5" y="-195.5392" font-family="Helvetica,sans-Serif" font-size="10.00" fill="#000000">::bubbleIndex</text>
</a>
</g>
</g>
<!-- Node17&#45;&gt;Node19 -->
<g id="edge2" class="edge">
<title>Node17&#45;&gt;Node19</title>
<path fill="none" stroke="#191970" d="M135.2493,-197.1102C192.5703,-198.4394 274.7271,-200.3444 334.7245,-201.7357"/>
<polygon fill="#191970" stroke="#191970" points="334.8272,-205.2389 344.9057,-201.9718 334.9895,-198.2408 334.8272,-205.2389"/>
</g>
<!-- Node20 -->
<g id="node4" class="node">
<title>Node20</title>
<g id="a_node4"><a xlink:href="classFoam_1_1FrontTrackingParcel.html#a2de8f35abf75d8eaba87b1eb0c577fad" target="_top" xlink:title="Foam::FrontTrackingParcel\l::setCellValues">
<polygon fill="none" stroke="#000000" points="172.5,-312.5392 172.5,-342.5392 307.5,-342.5392 307.5,-312.5392 172.5,-312.5392"/>
<text text-anchor="start" x="180.5" y="-330.5392" font-family="Helvetica,sans-Serif" font-size="10.00" fill="#000000">Foam::FrontTrackingParcel</text>
<text text-anchor="middle" x="240" y="-319.5392" font-family="Helvetica,sans-Serif" font-size="10.00" fill="#000000">::setCellValues</text>
</a>
</g>
</g>
<!-- Node17&#45;&gt;Node20 -->
<g id="edge3" class="edge">
<title>Node17&#45;&gt;Node20</title>
<path fill="none" stroke="#191970" d="M79.8018,-210.8109C97.8875,-232.4641 133.5797,-272.2607 171,-297.5392 176.6725,-301.3711 182.9142,-304.8914 189.2542,-308.067"/>
<polygon fill="#191970" stroke="#191970" points="188.0224,-311.3562 198.5586,-312.4692 191.0162,-305.0286 188.0224,-311.3562"/>
</g>
<!-- Node21 -->
<g id="node5" class="node">
<title>Node21</title>
<g id="a_node5"><a xlink:href="classFoam_1_1FrontTrackingParcel.html#a0299e73bb81ea8ba3f1c5124a8c59966" target="_top" xlink:title="Foam::FrontTrackingParcel\l::calc">
<polygon fill="none" stroke="#000000" points="345,-323.5392 345,-353.5392 480,-353.5392 480,-323.5392 345,-323.5392"/>
<text text-anchor="start" x="353" y="-341.5392" font-family="Helvetica,sans-Serif" font-size="10.00" fill="#000000">Foam::FrontTrackingParcel</text>
<text text-anchor="middle" x="412.5" y="-330.5392" font-family="Helvetica,sans-Serif" font-size="10.00" fill="#000000">::calc</text>
</a>
</g>
</g>
<!-- Node17&#45;&gt;Node21 -->
<g id="edge10" class="edge">
<title>Node17&#45;&gt;Node21</title>
<path fill="none" stroke="#191970" d="M72.0194,-210.5933C82.8319,-243.5617 113.6556,-321.6587 171,-352.5392 230.1052,-384.3678 309.5528,-370.9914 360.8968,-356.4523"/>
<polygon fill="#191970" stroke="#191970" points="362.173,-359.7252 370.7765,-353.5421 360.195,-353.0104 362.173,-359.7252"/>
</g>
<!-- Node23 -->
<g id="node7" class="node">
<title>Node23</title>
<g id="a_node7"><a xlink:href="classFoam_1_1FrontTrackingParcel.html#ac23d4a43d6e25f7adac93cecb93946a4" target="_top" xlink:title="Foam::FrontTrackingParcel\l::cellValueSourceCorrection">
<polygon fill="none" stroke="#000000" points="171,-136.5392 171,-166.5392 309,-166.5392 309,-136.5392 171,-136.5392"/>
<text text-anchor="start" x="179" y="-154.5392" font-family="Helvetica,sans-Serif" font-size="10.00" fill="#000000">Foam::FrontTrackingParcel</text>
<text text-anchor="middle" x="240" y="-143.5392" font-family="Helvetica,sans-Serif" font-size="10.00" fill="#000000">::cellValueSourceCorrection</text>
</a>
</g>
</g>
<!-- Node17&#45;&gt;Node23 -->
<g id="edge6" class="edge">
<title>Node17&#45;&gt;Node23</title>
<path fill="none" stroke="#191970" d="M126.3822,-180.5199C140.7358,-176.8588 156.2174,-172.9098 170.9949,-169.1405"/>
<polygon fill="#191970" stroke="#191970" points="172.2658,-172.4285 181.0904,-166.5654 170.5356,-165.6456 172.2658,-172.4285"/>
</g>
<!-- Node24 -->
<g id="node8" class="node">
<title>Node24</title>
<g id="a_node8"><a xlink:href="classFoam_1_1FrontTrackingParcel.html#a83bc1f2780071297ff3222884de3c940" target="_top" xlink:title="Foam::FrontTrackingParcel\l::move">
<polygon fill="none" stroke="#000000" points="345,-92.5392 345,-122.5392 480,-122.5392 480,-92.5392 345,-92.5392"/>
<text text-anchor="start" x="353" y="-110.5392" font-family="Helvetica,sans-Serif" font-size="10.00" fill="#000000">Foam::FrontTrackingParcel</text>
<text text-anchor="middle" x="412.5" y="-99.5392" font-family="Helvetica,sans-Serif" font-size="10.00" fill="#000000">::move</text>
</a>
</g>
</g>
<!-- Node17&#45;&gt;Node24 -->
<g id="edge11" class="edge">
<title>Node17&#45;&gt;Node24</title>
<path fill="none" stroke="#191970" d="M84.723,-180.2532C104.1604,-164.0069 137.4618,-139.1002 171,-127.5392 223.6355,-109.3951 286.3877,-104.6653 334.7314,-104.3296"/>
<polygon fill="#191970" stroke="#191970" points="334.8228,-107.8296 344.8199,-104.3214 334.817,-100.8297 334.8228,-107.8296"/>
</g>
<!-- Node26 -->
<g id="node10" class="node">
<title>Node26</title>
<g id="a_node10"><a xlink:href="classFoam_1_1FrontTrackingParcel.html#abe990b4257a6c9a4238522b32665dc77" target="_top" xlink:title="Foam::FrontTrackingParcel\l::moveDistance">
<polygon fill="none" stroke="#000000" points="516,-24.5392 516,-54.5392 651,-54.5392 651,-24.5392 516,-24.5392"/>
<text text-anchor="start" x="524" y="-42.5392" font-family="Helvetica,sans-Serif" font-size="10.00" fill="#000000">Foam::FrontTrackingParcel</text>
<text text-anchor="middle" x="583.5" y="-31.5392" font-family="Helvetica,sans-Serif" font-size="10.00" fill="#000000">::moveDistance</text>
</a>
</g>
</g>
<!-- Node17&#45;&gt;Node26 -->
<g id="edge12" class="edge">
<title>Node17&#45;&gt;Node26</title>
<path fill="none" stroke="#191970" d="M72.0194,-180.485C82.8319,-147.5167 113.6556,-69.4196 171,-38.5392 282.5998,21.5583 437.06,-1.9221 521.7705,-22.1396"/>
<polygon fill="#191970" stroke="#191970" points="520.9522,-25.5425 531.4976,-24.5203 522.6164,-18.7432 520.9522,-25.5425"/>
</g>
<!-- Node27 -->
<g id="node11" class="node">
<title>Node27</title>
<g id="a_node11"><a xlink:href="classFoam_1_1FrontTrackingParcel.html#ad7736b64e6b5ebacba0177331f101ab0" target="_top" xlink:title="Foam::FrontTrackingParcel\l::readFields">
<polygon fill="none" stroke="#000000" points="172.5,-48.5392 172.5,-78.5392 307.5,-78.5392 307.5,-48.5392 172.5,-48.5392"/>
<text text-anchor="start" x="180.5" y="-66.5392" font-family="Helvetica,sans-Serif" font-size="10.00" fill="#000000">Foam::FrontTrackingParcel</text>
<text text-anchor="middle" x="240" y="-55.5392" font-family="Helvetica,sans-Serif" font-size="10.00" fill="#000000">::readFields</text>
</a>
</g>
</g>
<!-- Node17&#45;&gt;Node27 -->
<g id="edge13" class="edge">
<title>Node17&#45;&gt;Node27</title>
<path fill="none" stroke="#191970" d="M79.8018,-180.2675C97.8875,-158.6143 133.5797,-118.8177 171,-93.5392 176.6725,-89.7072 182.9142,-86.187 189.2542,-83.0113"/>
<polygon fill="#191970" stroke="#191970" points="191.0162,-86.0497 198.5586,-78.6092 188.0224,-79.7222 191.0162,-86.0497"/>
</g>
<!-- Node28 -->
<g id="node12" class="node">
<title>Node28</title>
<g id="a_node12"><a xlink:href="classFoam_1_1FrontTrackingParcel.html#aeb8b9150a88626d53d402f3290eb5189" target="_top" xlink:title="Foam::FrontTrackingParcel\l::writeFields">
<polygon fill="none" stroke="#000000" points="172.5,-224.5392 172.5,-254.5392 307.5,-254.5392 307.5,-224.5392 172.5,-224.5392"/>
<text text-anchor="start" x="180.5" y="-242.5392" font-family="Helvetica,sans-Serif" font-size="10.00" fill="#000000">Foam::FrontTrackingParcel</text>
<text text-anchor="middle" x="240" y="-231.5392" font-family="Helvetica,sans-Serif" font-size="10.00" fill="#000000">::writeFields</text>
</a>
</g>
</g>
<!-- Node17&#45;&gt;Node28 -->
<g id="edge14" class="edge">
<title>Node17&#45;&gt;Node28</title>
<path fill="none" stroke="#191970" d="M126.3822,-210.5584C140.7358,-214.2196 156.2174,-218.1685 170.9949,-221.9379"/>
<polygon fill="#191970" stroke="#191970" points="170.5356,-225.4327 181.0904,-224.513 172.2658,-218.6499 170.5356,-225.4327"/>
</g>
<!-- Node20&#45;&gt;Node21 -->
<g id="edge4" class="edge">
<title>Node20&#45;&gt;Node21</title>
<path fill="none" stroke="#191970" d="M307.6815,-331.8551C316.5282,-332.4192 325.6485,-333.0008 334.6458,-333.5746"/>
<polygon fill="#191970" stroke="#191970" points="334.5281,-337.0741 344.7306,-334.2176 334.9736,-330.0883 334.5281,-337.0741"/>
</g>
<!-- Node22 -->
<g id="node6" class="node">
<title>Node22</title>
<g id="a_node6"><a xlink:href="classFoam_1_1FrontTrackingParcel.html#a38bf710f88d368aa9b8e7f4f7d3fcd1e" target="_top" xlink:title="Foam::FrontTrackingParcel\l::FrontTrackingParcel">
<polygon fill="none" stroke="#000000" points="516,-323.5392 516,-353.5392 651,-353.5392 651,-323.5392 516,-323.5392"/>
<text text-anchor="start" x="524" y="-341.5392" font-family="Helvetica,sans-Serif" font-size="10.00" fill="#000000">Foam::FrontTrackingParcel</text>
<text text-anchor="middle" x="583.5" y="-330.5392" font-family="Helvetica,sans-Serif" font-size="10.00" fill="#000000">::FrontTrackingParcel</text>
</a>
</g>
</g>
<!-- Node21&#45;&gt;Node22 -->
<g id="edge5" class="edge">
<title>Node21&#45;&gt;Node22</title>
<path fill="none" stroke="#191970" d="M480.0837,-338.5392C488.5381,-338.5392 497.2372,-338.5392 505.83,-338.5392"/>
<polygon fill="#191970" stroke="#191970" points="505.8472,-342.0393 515.8472,-338.5392 505.8472,-335.0393 505.8472,-342.0393"/>
</g>
<!-- Node23&#45;&gt;Node24 -->
<g id="edge7" class="edge">
<title>Node23&#45;&gt;Node24</title>
<path fill="none" stroke="#191970" d="M298.8822,-136.5199C313.2358,-132.8588 328.7174,-128.9098 343.4949,-125.1405"/>
<polygon fill="#191970" stroke="#191970" points="344.7658,-128.4285 353.5904,-122.5654 343.0356,-121.6456 344.7658,-128.4285"/>
</g>
<!-- Node25 -->
<g id="node9" class="node">
<title>Node25</title>
<g id="a_node9"><a xlink:href="classFoam_1_1FrontTrackingParcel_1_1trackingData.html#a5bbb8cb002bf9f32f9185defc523924e" target="_top" xlink:title="Foam::FrontTrackingParcel\l::trackingData::part">
<polygon fill="none" stroke="#000000" points="516,-92.5392 516,-122.5392 651,-122.5392 651,-92.5392 516,-92.5392"/>
<text text-anchor="start" x="524" y="-110.5392" font-family="Helvetica,sans-Serif" font-size="10.00" fill="#000000">Foam::FrontTrackingParcel</text>
<text text-anchor="middle" x="583.5" y="-99.5392" font-family="Helvetica,sans-Serif" font-size="10.00" fill="#000000">::trackingData::part</text>
</a>
</g>
</g>
<!-- Node24&#45;&gt;Node25 -->
<g id="edge8" class="edge">
<title>Node24&#45;&gt;Node25</title>
<path fill="none" stroke="#191970" d="M480.0837,-107.5392C488.5381,-107.5392 497.2372,-107.5392 505.83,-107.5392"/>
<polygon fill="#191970" stroke="#191970" points="505.8472,-111.0393 515.8472,-107.5392 505.8472,-104.0393 505.8472,-111.0393"/>
</g>
<!-- Node24&#45;&gt;Node26 -->
<g id="edge9" class="edge">
<title>Node24&#45;&gt;Node26</title>
<path fill="none" stroke="#191970" d="M450.4504,-92.4478C475.6886,-82.4115 509.0318,-69.1523 536.0249,-58.4182"/>
<polygon fill="#191970" stroke="#191970" points="537.6567,-61.5359 545.6556,-54.5884 535.0701,-55.0313 537.6567,-61.5359"/>
</g>
<!-- Node28&#45;&gt;Node18 -->
<g id="edge15" class="edge">
<title>Node28&#45;&gt;Node18</title>
<path fill="none" stroke="#191970" d="M307.6815,-252.4869C316.5282,-254.1793 325.6485,-255.9241 334.6458,-257.6453"/>
<polygon fill="#191970" stroke="#191970" points="334.251,-261.1332 344.7306,-259.5746 335.5664,-254.2579 334.251,-261.1332"/>
</g>
<!-- Node28&#45;&gt;Node19 -->
<g id="edge16" class="edge">
<title>Node28&#45;&gt;Node19</title>
<path fill="none" stroke="#191970" d="M307.6815,-225.4143C316.6233,-223.5482 325.8446,-221.6238 334.936,-219.7265"/>
<polygon fill="#191970" stroke="#191970" points="335.6565,-223.1516 344.7306,-217.6824 334.2264,-216.2992 335.6565,-223.1516"/>
</g>
</g>
</svg>
