<?xml version="1.0" encoding="UTF-8" standalone="no"?>
<!DOCTYPE svg PUBLIC "-//W3C//DTD SVG 1.1//EN"
 "http://www.w3.org/Graphics/SVG/1.1/DTD/svg11.dtd">
<!-- Generated by graphviz version 2.40.1 (20161225.0304)
 -->
<!-- Title: Foam::FrontTrackingParcel&lt; ParcelType &gt;::trackingData Pages: 1 -->
<svg width="226pt" height="226pt"
 viewBox="0.00 0.00 226.00 226.00" xmlns="http://www.w3.org/2000/svg" xmlns:xlink="http://www.w3.org/1999/xlink">
<g id="graph0" class="graph" transform="scale(1 1) rotate(0) translate(4 222)">
<title>Foam::FrontTrackingParcel&lt; ParcelType &gt;::trackingData</title>
<!-- Node0 -->
<g id="node1" class="node">
<title>Node0</title>
<polygon fill="#bfbfbf" stroke="#000000" points="50,-.5 50,-123.5 196,-123.5 196,-.5 50,-.5"/>
<text text-anchor="start" x="58" y="-111.5" font-family="Helvetica,sans-Serif" font-size="10.00" fill="#000000">Foam::FrontTrackingParcel</text>
<text text-anchor="middle" x="123" y="-100.5" font-family="Helvetica,sans-Serif" font-size="10.00" fill="#000000">&lt; ParcelType &gt;::trackingData</text>
<polyline fill="none" stroke="#000000" points="50,-93.5 196,-93.5 "/>
<text text-anchor="start" x="58" y="-81.5" font-family="Helvetica,sans-Serif" font-size="10.00" fill="#000000">&#45; part_</text>
<polyline fill="none" stroke="#000000" points="50,-74.5 196,-74.5 "/>
<text text-anchor="start" x="58" y="-62.5" font-family="Helvetica,sans-Serif" font-size="10.00" fill="#000000">+ trackingData()</text>
<text text-anchor="start" x="58" y="-51.5" font-family="Helvetica,sans-Serif" font-size="10.00" fill="#000000">+ part()</text>
<text text-anchor="start" x="58" y="-40.5" font-family="Helvetica,sans-Serif" font-size="10.00" fill="#000000">+ part()</text>
<text text-anchor="start" x="58" y="-29.5" font-family="Helvetica,sans-Serif" font-size="10.00" fill="#000000">+ trackingData()</text>
<text text-anchor="start" x="58" y="-18.5" font-family="Helvetica,sans-Serif" font-size="10.00" fill="#000000">+ part()</text>
<text text-anchor="start" x="58" y="-7.5" font-family="Helvetica,sans-Serif" font-size="10.00" fill="#000000">+ part()</text>
</g>
<!-- Node1 -->
<g id="node2" class="node">
<title>Node1</title>
<polygon fill="none" stroke="#bfbfbf" points="0,-160.5 0,-217.5 128,-217.5 128,-160.5 0,-160.5"/>
<text text-anchor="middle" x="64" y="-205.5" font-family="Helvetica,sans-Serif" font-size="10.00" fill="#000000">ParcelType::trackingData</text>
<polyline fill="none" stroke="#bfbfbf" points="0,-198.5 128,-198.5 "/>
<text text-anchor="middle" x="64" y="-186.5" font-family="Helvetica,sans-Serif" font-size="10.00" fill="#000000"> </text>
<polyline fill="none" stroke="#bfbfbf" points="0,-179.5 128,-179.5 "/>
<text text-anchor="middle" x="64" y="-167.5" font-family="Helvetica,sans-Serif" font-size="10.00" fill="#000000"> </text>
</g>
<!-- Node1&#45;&gt;Node0 -->
<g id="edge1" class="edge">
<title>Node1&#45;&gt;Node0</title>
<path fill="none" stroke="#191970" d="M81.4826,-151.368C85.5412,-142.6317 89.9658,-133.1075 94.3648,-123.6384"/>
<polygon fill="none" stroke="#191970" points="78.2798,-149.955 77.2408,-160.4987 84.6282,-152.9042 78.2798,-149.955"/>
</g>
<!-- Node2 -->
<g id="node3" class="node">
<title>Node2</title>
<polygon fill="none" stroke="#bfbfbf" points="146,-160.5 146,-217.5 218,-217.5 218,-160.5 146,-160.5"/>
<text text-anchor="middle" x="182" y="-205.5" font-family="Helvetica,sans-Serif" font-size="10.00" fill="#000000">trackingData</text>
<polyline fill="none" stroke="#bfbfbf" points="146,-198.5 218,-198.5 "/>
<text text-anchor="middle" x="182" y="-186.5" font-family="Helvetica,sans-Serif" font-size="10.00" fill="#000000"> </text>
<polyline fill="none" stroke="#bfbfbf" points="146,-179.5 218,-179.5 "/>
<text text-anchor="middle" x="182" y="-167.5" font-family="Helvetica,sans-Serif" font-size="10.00" fill="#000000"> </text>
</g>
<!-- Node2&#45;&gt;Node0 -->
<g id="edge2" class="edge">
<title>Node2&#45;&gt;Node0</title>
<path fill="none" stroke="#191970" d="M164.5174,-151.368C160.4588,-142.6317 156.0342,-133.1075 151.6352,-123.6384"/>
<polygon fill="none" stroke="#191970" points="161.3718,-152.9042 168.7592,-160.4987 167.7202,-149.955 161.3718,-152.9042"/>
</g>
</g>
</svg>
