<?xml version="1.0" encoding="UTF-8" standalone="no"?>
<!DOCTYPE svg PUBLIC "-//W3C//DTD SVG 1.1//EN"
 "http://www.w3.org/Graphics/SVG/1.1/DTD/svg11.dtd">
<!-- Generated by graphviz version 2.40.1 (20161225.0304)
 -->
<!-- Title: Foam::VolumeCorrectionModels::VC2::clone Pages: 1 -->
<svg width="358pt" height="88pt"
 viewBox="0.00 0.00 358.00 88.00" xmlns="http://www.w3.org/2000/svg" xmlns:xlink="http://www.w3.org/1999/xlink">
<g id="graph0" class="graph" transform="scale(1 1) rotate(0) translate(4 84)">
<title>Foam::VolumeCorrectionModels::VC2::clone</title>
<!-- Node22 -->
<g id="node1" class="node">
<title>Node22</title>
<polygon fill="#bfbfbf" stroke="#000000" points="0,-24.5 0,-54.5 157,-54.5 157,-24.5 0,-24.5"/>
<text text-anchor="start" x="8" y="-42.5" font-family="Helvetica,sans-Serif" font-size="10.00" fill="#000000">Foam::VolumeCorrectionModels</text>
<text text-anchor="middle" x="78.5" y="-31.5" font-family="Helvetica,sans-Serif" font-size="10.00" fill="#000000">::VC2::clone</text>
</g>
<!-- Node23 -->
<g id="node2" class="node">
<title>Node23</title>
<g id="a_node2"><a xlink:href="classFoam_1_1VolumeCorrectionModels_1_1VC2.html#a216c0bcf068a2b88ee24d281f8bfa96f" target="_top" xlink:title="Foam::VolumeCorrectionModels\l::VC2::~VC2">
<polygon fill="none" stroke="#000000" points="193,-49.5 193,-79.5 350,-79.5 350,-49.5 193,-49.5"/>
<text text-anchor="start" x="201" y="-67.5" font-family="Helvetica,sans-Serif" font-size="10.00" fill="#000000">Foam::VolumeCorrectionModels</text>
<text text-anchor="middle" x="271.5" y="-56.5" font-family="Helvetica,sans-Serif" font-size="10.00" fill="#000000">::VC2::~VC2</text>
</a>
</g>
</g>
<!-- Node22&#45;&gt;Node23 -->
<g id="edge1" class="edge">
<title>Node22&#45;&gt;Node23</title>
<path fill="none" stroke="#191970" d="M157.0005,-49.6685C165.4766,-50.7664 174.1448,-51.8892 182.7308,-53.0014"/>
<polygon fill="#191970" stroke="#191970" points="182.3892,-56.4863 192.7559,-54.3 183.2884,-49.5443 182.3892,-56.4863"/>
</g>
<!-- Node24 -->
<g id="node3" class="node">
<title>Node24</title>
<g id="a_node3"><a xlink:href="classFoam_1_1VolumeCorrectionModels_1_1VC2.html#a7d7b432aa24cb59d95dfbe8d1c907aa8" target="_top" xlink:title="Foam::VolumeCorrectionModels\l::VC2::calculate">
<polygon fill="none" stroke="#000000" points="193,-.5 193,-30.5 350,-30.5 350,-.5 193,-.5"/>
<text text-anchor="start" x="201" y="-18.5" font-family="Helvetica,sans-Serif" font-size="10.00" fill="#000000">Foam::VolumeCorrectionModels</text>
<text text-anchor="middle" x="271.5" y="-7.5" font-family="Helvetica,sans-Serif" font-size="10.00" fill="#000000">::VC2::calculate</text>
</a>
</g>
</g>
<!-- Node22&#45;&gt;Node24 -->
<g id="edge2" class="edge">
<title>Node22&#45;&gt;Node24</title>
<path fill="none" stroke="#191970" d="M157.0005,-29.7383C165.4766,-28.6843 174.1448,-27.6063 182.7308,-26.5387"/>
<polygon fill="#191970" stroke="#191970" points="183.2643,-29.9994 192.7559,-25.292 182.4004,-23.0529 183.2643,-29.9994"/>
</g>
</g>
</svg>
