<?xml version="1.0" encoding="UTF-8" standalone="no"?>
<!DOCTYPE svg PUBLIC "-//W3C//DTD SVG 1.1//EN"
 "http://www.w3.org/Graphics/SVG/1.1/DTD/svg11.dtd">
<!-- Generated by graphviz version 2.40.1 (20161225.0304)
 -->
<!-- Title: Foam::FrontTrackingParcel::FrontTrackingParcel Pages: 1 -->
<svg width="659pt" height="88pt"
 viewBox="0.00 0.00 659.00 88.00" xmlns="http://www.w3.org/2000/svg" xmlns:xlink="http://www.w3.org/1999/xlink">
<g id="graph0" class="graph" transform="scale(1 1) rotate(0) translate(4 84)">
<title>Foam::FrontTrackingParcel::FrontTrackingParcel</title>
<!-- Node14 -->
<g id="node1" class="node">
<title>Node14</title>
<polygon fill="#bfbfbf" stroke="#000000" points="0,-24.5 0,-54.5 135,-54.5 135,-24.5 0,-24.5"/>
<text text-anchor="start" x="8" y="-42.5" font-family="Helvetica,sans-Serif" font-size="10.00" fill="#000000">Foam::FrontTrackingParcel</text>
<text text-anchor="middle" x="67.5" y="-31.5" font-family="Helvetica,sans-Serif" font-size="10.00" fill="#000000">::FrontTrackingParcel</text>
</g>
<!-- Node15 -->
<g id="node2" class="node">
<title>Node15</title>
<g id="a_node2"><a xlink:href="classFoam_1_1FrontTrackingParcel.html#ac23d4a43d6e25f7adac93cecb93946a4" target="_top" xlink:title="Foam::FrontTrackingParcel\l::cellValueSourceCorrection">
<polygon fill="none" stroke="#000000" points="171,-24.5 171,-54.5 309,-54.5 309,-24.5 171,-24.5"/>
<text text-anchor="start" x="179" y="-42.5" font-family="Helvetica,sans-Serif" font-size="10.00" fill="#000000">Foam::FrontTrackingParcel</text>
<text text-anchor="middle" x="240" y="-31.5" font-family="Helvetica,sans-Serif" font-size="10.00" fill="#000000">::cellValueSourceCorrection</text>
</a>
</g>
</g>
<!-- Node14&#45;&gt;Node15 -->
<g id="edge1" class="edge">
<title>Node14&#45;&gt;Node15</title>
<path fill="none" stroke="#191970" d="M135.1815,-39.5C143.5024,-39.5 152.0654,-39.5 160.5404,-39.5"/>
<polygon fill="#191970" stroke="#191970" points="160.8122,-43.0001 170.8122,-39.5 160.8122,-36.0001 160.8122,-43.0001"/>
</g>
<!-- Node16 -->
<g id="node3" class="node">
<title>Node16</title>
<g id="a_node3"><a xlink:href="classFoam_1_1FrontTrackingParcel.html#a83bc1f2780071297ff3222884de3c940" target="_top" xlink:title="Foam::FrontTrackingParcel\l::move">
<polygon fill="none" stroke="#000000" points="345,-24.5 345,-54.5 480,-54.5 480,-24.5 345,-24.5"/>
<text text-anchor="start" x="353" y="-42.5" font-family="Helvetica,sans-Serif" font-size="10.00" fill="#000000">Foam::FrontTrackingParcel</text>
<text text-anchor="middle" x="412.5" y="-31.5" font-family="Helvetica,sans-Serif" font-size="10.00" fill="#000000">::move</text>
</a>
</g>
</g>
<!-- Node15&#45;&gt;Node16 -->
<g id="edge2" class="edge">
<title>Node15&#45;&gt;Node16</title>
<path fill="none" stroke="#191970" d="M309.1684,-39.5C317.4981,-39.5 326.0492,-39.5 334.494,-39.5"/>
<polygon fill="#191970" stroke="#191970" points="334.72,-43.0001 344.7199,-39.5 334.7199,-36.0001 334.72,-43.0001"/>
</g>
<!-- Node17 -->
<g id="node4" class="node">
<title>Node17</title>
<g id="a_node4"><a xlink:href="classFoam_1_1FrontTrackingParcel_1_1trackingData.html#a5bbb8cb002bf9f32f9185defc523924e" target="_top" xlink:title="Foam::FrontTrackingParcel\l::trackingData::part">
<polygon fill="none" stroke="#000000" points="516,-49.5 516,-79.5 651,-79.5 651,-49.5 516,-49.5"/>
<text text-anchor="start" x="524" y="-67.5" font-family="Helvetica,sans-Serif" font-size="10.00" fill="#000000">Foam::FrontTrackingParcel</text>
<text text-anchor="middle" x="583.5" y="-56.5" font-family="Helvetica,sans-Serif" font-size="10.00" fill="#000000">::trackingData::part</text>
</a>
</g>
</g>
<!-- Node16&#45;&gt;Node17 -->
<g id="edge3" class="edge">
<title>Node16&#45;&gt;Node17</title>
<path fill="none" stroke="#191970" d="M480.0837,-49.3807C488.5381,-50.6167 497.2372,-51.8885 505.83,-53.1447"/>
<polygon fill="#191970" stroke="#191970" points="505.4461,-56.6257 515.8472,-54.6092 506.4587,-49.6994 505.4461,-56.6257"/>
</g>
<!-- Node18 -->
<g id="node5" class="node">
<title>Node18</title>
<g id="a_node5"><a xlink:href="classFoam_1_1FrontTrackingParcel.html#abe990b4257a6c9a4238522b32665dc77" target="_top" xlink:title="Foam::FrontTrackingParcel\l::moveDistance">
<polygon fill="none" stroke="#000000" points="516,-.5 516,-30.5 651,-30.5 651,-.5 516,-.5"/>
<text text-anchor="start" x="524" y="-18.5" font-family="Helvetica,sans-Serif" font-size="10.00" fill="#000000">Foam::FrontTrackingParcel</text>
<text text-anchor="middle" x="583.5" y="-7.5" font-family="Helvetica,sans-Serif" font-size="10.00" fill="#000000">::moveDistance</text>
</a>
</g>
</g>
<!-- Node16&#45;&gt;Node18 -->
<g id="edge4" class="edge">
<title>Node16&#45;&gt;Node18</title>
<path fill="none" stroke="#191970" d="M480.0837,-30.0146C488.5381,-28.828 497.2372,-27.6071 505.83,-26.4011"/>
<polygon fill="#191970" stroke="#191970" points="506.4308,-29.8511 515.8472,-24.9951 505.4578,-22.9191 506.4308,-29.8511"/>
</g>
</g>
</svg>
