<?xml version="1.0" encoding="UTF-8" standalone="no"?>
<!DOCTYPE svg PUBLIC "-//W3C//DTD SVG 1.1//EN"
 "http://www.w3.org/Graphics/SVG/1.1/DTD/svg11.dtd">
<!-- Generated by graphviz version 2.40.1 (20161225.0304)
 -->
<!-- Title: Foam::FrontTrackingParcel::FrontTrackingParcel Pages: 1 -->
<svg width="656pt" height="159pt"
 viewBox="0.00 0.00 656.00 159.00" xmlns="http://www.w3.org/2000/svg" xmlns:xlink="http://www.w3.org/1999/xlink">
<g id="graph0" class="graph" transform="scale(1 1) rotate(0) translate(4 155)">
<title>Foam::FrontTrackingParcel::FrontTrackingParcel</title>
<!-- Node1 -->
<g id="node1" class="node">
<title>Node1</title>
<polygon fill="#bfbfbf" stroke="#000000" points="0,-49.5 0,-79.5 135,-79.5 135,-49.5 0,-49.5"/>
<text text-anchor="start" x="8" y="-67.5" font-family="Helvetica,sans-Serif" font-size="10.00" fill="#000000">Foam::FrontTrackingParcel</text>
<text text-anchor="middle" x="67.5" y="-56.5" font-family="Helvetica,sans-Serif" font-size="10.00" fill="#000000">::FrontTrackingParcel</text>
</g>
<!-- Node2 -->
<g id="node2" class="node">
<title>Node2</title>
<g id="a_node2"><a xlink:href="classFoam_1_1FrontTrackingParcel.html#a0299e73bb81ea8ba3f1c5124a8c59966" target="_top" xlink:title="Foam::FrontTrackingParcel\l::calc">
<polygon fill="none" stroke="#000000" points="171,-98.5 171,-128.5 306,-128.5 306,-98.5 171,-98.5"/>
<text text-anchor="start" x="179" y="-116.5" font-family="Helvetica,sans-Serif" font-size="10.00" fill="#000000">Foam::FrontTrackingParcel</text>
<text text-anchor="middle" x="238.5" y="-105.5" font-family="Helvetica,sans-Serif" font-size="10.00" fill="#000000">::calc</text>
</a>
</g>
</g>
<!-- Node1&#45;&gt;Node2 -->
<g id="edge1" class="edge">
<title>Node1&#45;&gt;Node2</title>
<path fill="none" stroke="#191970" d="M129.9467,-82.3941C148.3391,-87.6644 168.2697,-93.3755 185.9731,-98.4484"/>
<polygon fill="#191970" stroke="#191970" points="130.7782,-78.9916 120.2009,-79.6014 128.8499,-85.7207 130.7782,-78.9916"/>
</g>
<!-- Node5 -->
<g id="node5" class="node">
<title>Node5</title>
<g id="a_node5"><a xlink:href="classFoam_1_1FrontTrackingParcel.html#a40cd14eaaa311e2657e5a7e4bff5b160" target="_top" xlink:title="Foam::FrontTrackingParcel\l::FrontTrackingParcel">
<polygon fill="none" stroke="#000000" points="171,-49.5 171,-79.5 306,-79.5 306,-49.5 171,-49.5"/>
<text text-anchor="start" x="179" y="-67.5" font-family="Helvetica,sans-Serif" font-size="10.00" fill="#000000">Foam::FrontTrackingParcel</text>
<text text-anchor="middle" x="238.5" y="-56.5" font-family="Helvetica,sans-Serif" font-size="10.00" fill="#000000">::FrontTrackingParcel</text>
</a>
</g>
</g>
<!-- Node1&#45;&gt;Node5 -->
<g id="edge5" class="edge">
<title>Node1&#45;&gt;Node5</title>
<path fill="none" stroke="#191970" d="M145.0998,-64.5C153.692,-64.5 162.3915,-64.5 170.8472,-64.5"/>
<polygon fill="#191970" stroke="#191970" points="145.0838,-61.0001 135.0837,-64.5 145.0837,-68.0001 145.0838,-61.0001"/>
</g>
<!-- Node6 -->
<g id="node6" class="node">
<title>Node6</title>
<g id="a_node6"><a xlink:href="classFoam_1_1FrontTrackingParcel.html#aff37a3a5c85f3e705b5c5f70c446d0da" target="_top" xlink:title="Foam::FrontTrackingParcel\l::clone">
<polygon fill="none" stroke="#000000" points="171,-.5 171,-30.5 306,-30.5 306,-.5 171,-.5"/>
<text text-anchor="start" x="179" y="-18.5" font-family="Helvetica,sans-Serif" font-size="10.00" fill="#000000">Foam::FrontTrackingParcel</text>
<text text-anchor="middle" x="238.5" y="-7.5" font-family="Helvetica,sans-Serif" font-size="10.00" fill="#000000">::clone</text>
</a>
</g>
</g>
<!-- Node1&#45;&gt;Node6 -->
<g id="edge6" class="edge">
<title>Node1&#45;&gt;Node6</title>
<path fill="none" stroke="#191970" d="M129.9467,-46.6059C148.3391,-41.3356 168.2697,-35.6245 185.9731,-30.5516"/>
<polygon fill="#191970" stroke="#191970" points="128.8499,-43.2793 120.2009,-49.3986 130.7782,-50.0084 128.8499,-43.2793"/>
</g>
<!-- Node3 -->
<g id="node3" class="node">
<title>Node3</title>
<g id="a_node3"><a xlink:href="classFoam_1_1FrontTrackingParcel.html#a2de8f35abf75d8eaba87b1eb0c577fad" target="_top" xlink:title="Foam::FrontTrackingParcel\l::setCellValues">
<polygon fill="none" stroke="#000000" points="342,-120.5 342,-150.5 477,-150.5 477,-120.5 342,-120.5"/>
<text text-anchor="start" x="350" y="-138.5" font-family="Helvetica,sans-Serif" font-size="10.00" fill="#000000">Foam::FrontTrackingParcel</text>
<text text-anchor="middle" x="409.5" y="-127.5" font-family="Helvetica,sans-Serif" font-size="10.00" fill="#000000">::setCellValues</text>
</a>
</g>
</g>
<!-- Node2&#45;&gt;Node3 -->
<g id="edge2" class="edge">
<title>Node2&#45;&gt;Node3</title>
<path fill="none" stroke="#191970" d="M316.0998,-123.4836C324.692,-124.589 333.3915,-125.7083 341.8472,-126.7961"/>
<polygon fill="#191970" stroke="#191970" points="316.4486,-119.9997 306.0837,-122.195 315.5553,-126.9425 316.4486,-119.9997"/>
</g>
<!-- Node4 -->
<g id="node4" class="node">
<title>Node4</title>
<g id="a_node4"><a xlink:href="classFoam_1_1FrontTrackingParcel_1_1iNew.html#aaf5b4c66182903f2836a251ac0633395" target="_top" xlink:title="Foam::FrontTrackingParcel\l::iNew::operator()">
<polygon fill="none" stroke="#000000" points="513,-98.5 513,-128.5 648,-128.5 648,-98.5 513,-98.5"/>
<text text-anchor="start" x="521" y="-116.5" font-family="Helvetica,sans-Serif" font-size="10.00" fill="#000000">Foam::FrontTrackingParcel</text>
<text text-anchor="middle" x="580.5" y="-105.5" font-family="Helvetica,sans-Serif" font-size="10.00" fill="#000000">::iNew::operator()</text>
</a>
</g>
</g>
<!-- Node2&#45;&gt;Node4 -->
<g id="edge4" class="edge">
<title>Node2&#45;&gt;Node4</title>
<path fill="none" stroke="#191970" d="M316.2825,-111.0024C324.9582,-110.7961 333.6672,-110.6207 342,-110.5 401.9937,-109.6307 417.0063,-109.6307 477,-110.5 488.5935,-110.668 500.9152,-110.9418 512.8621,-111.2574"/>
<polygon fill="#191970" stroke="#191970" points="316.0467,-107.5071 306.1379,-111.2574 316.2227,-114.5049 316.0467,-107.5071"/>
</g>
<!-- Node3&#45;&gt;Node4 -->
<g id="edge3" class="edge">
<title>Node3&#45;&gt;Node4</title>
<path fill="none" stroke="#191970" d="M487.0998,-125.5164C495.692,-124.411 504.3915,-123.2917 512.8472,-122.2039"/>
<polygon fill="#191970" stroke="#191970" points="486.5553,-122.0575 477.0837,-126.805 487.4486,-129.0003 486.5553,-122.0575"/>
</g>
</g>
</svg>
