<?xml version="1.0" encoding="UTF-8" standalone="no"?>
<!DOCTYPE svg PUBLIC "-//W3C//DTD SVG 1.1//EN"
 "http://www.w3.org/Graphics/SVG/1.1/DTD/svg11.dtd">
<!-- Generated by graphviz version 2.40.1 (20161225.0304)
 -->
<!-- Title: Foam::FrontTrackingParcel::bubbleIndex Pages: 1 -->
<svg width="485pt" height="61pt"
 viewBox="0.00 0.00 485.00 61.00" xmlns="http://www.w3.org/2000/svg" xmlns:xlink="http://www.w3.org/1999/xlink">
<g id="graph0" class="graph" transform="scale(1 1) rotate(0) translate(4 57)">
<title>Foam::FrontTrackingParcel::bubbleIndex</title>
<!-- Node35 -->
<g id="node1" class="node">
<title>Node35</title>
<polygon fill="#bfbfbf" stroke="#000000" points="0,-22.5 0,-52.5 135,-52.5 135,-22.5 0,-22.5"/>
<text text-anchor="start" x="8" y="-40.5" font-family="Helvetica,sans-Serif" font-size="10.00" fill="#000000">Foam::FrontTrackingParcel</text>
<text text-anchor="middle" x="67.5" y="-29.5" font-family="Helvetica,sans-Serif" font-size="10.00" fill="#000000">::bubbleIndex</text>
</g>
<!-- Node36 -->
<g id="node2" class="node">
<title>Node36</title>
<g id="a_node2"><a xlink:href="classFoam_1_1FrontTrackingParcel_1_1iNew.html#aaf5b4c66182903f2836a251ac0633395" target="_top" xlink:title="Foam::FrontTrackingParcel\l::iNew::operator()">
<polygon fill="none" stroke="#000000" points="342,-22.5 342,-52.5 477,-52.5 477,-22.5 342,-22.5"/>
<text text-anchor="start" x="350" y="-40.5" font-family="Helvetica,sans-Serif" font-size="10.00" fill="#000000">Foam::FrontTrackingParcel</text>
<text text-anchor="middle" x="409.5" y="-29.5" font-family="Helvetica,sans-Serif" font-size="10.00" fill="#000000">::iNew::operator()</text>
</a>
</g>
</g>
<!-- Node35&#45;&gt;Node36 -->
<g id="edge1" class="edge">
<title>Node35&#45;&gt;Node36</title>
<path fill="none" stroke="#191970" d="M145.2825,-39.9976C153.9582,-40.2039 162.6672,-40.3793 171,-40.5 230.9937,-41.3693 246.0063,-41.3693 306,-40.5 317.5935,-40.332 329.9152,-40.0582 341.8621,-39.7426"/>
<polygon fill="#191970" stroke="#191970" points="145.2227,-36.4951 135.1379,-39.7426 145.0467,-43.4929 145.2227,-36.4951"/>
</g>
<!-- Node37 -->
<g id="node3" class="node">
<title>Node37</title>
<g id="a_node3"><a xlink:href="classFoam_1_1FrontTrackingParcel.html#aeb8b9150a88626d53d402f3290eb5189" target="_top" xlink:title="Foam::FrontTrackingParcel\l::writeFields">
<polygon fill="none" stroke="#000000" points="171,-.5 171,-30.5 306,-30.5 306,-.5 171,-.5"/>
<text text-anchor="start" x="179" y="-18.5" font-family="Helvetica,sans-Serif" font-size="10.00" fill="#000000">Foam::FrontTrackingParcel</text>
<text text-anchor="middle" x="238.5" y="-7.5" font-family="Helvetica,sans-Serif" font-size="10.00" fill="#000000">::writeFields</text>
</a>
</g>
</g>
<!-- Node35&#45;&gt;Node37 -->
<g id="edge2" class="edge">
<title>Node35&#45;&gt;Node37</title>
<path fill="none" stroke="#191970" d="M145.0998,-27.5164C153.692,-26.411 162.3915,-25.2917 170.8472,-24.2039"/>
<polygon fill="#191970" stroke="#191970" points="144.5553,-24.0575 135.0837,-28.805 145.4486,-31.0003 144.5553,-24.0575"/>
</g>
<!-- Node37&#45;&gt;Node36 -->
<g id="edge3" class="edge">
<title>Node37&#45;&gt;Node36</title>
<path fill="none" stroke="#191970" d="M316.0998,-25.4836C324.692,-26.589 333.3915,-27.7083 341.8472,-28.7961"/>
<polygon fill="#191970" stroke="#191970" points="316.4486,-21.9997 306.0837,-24.195 315.5553,-28.9425 316.4486,-21.9997"/>
</g>
</g>
</svg>
