<?xml version="1.0" encoding="UTF-8" standalone="no"?>
<!DOCTYPE svg PUBLIC "-//W3C//DTD SVG 1.1//EN"
 "http://www.w3.org/Graphics/SVG/1.1/DTD/svg11.dtd">
<!-- Generated by graphviz version 2.40.1 (20161225.0304)
 -->
<!-- Title: Foam::elementInfo::findPointsOrder Pages: 1 -->
<svg width="915pt" height="173pt"
 viewBox="0.00 0.00 915.00 173.00" xmlns="http://www.w3.org/2000/svg" xmlns:xlink="http://www.w3.org/1999/xlink">
<g id="graph0" class="graph" transform="scale(1 1) rotate(0) translate(4 169)">
<title>Foam::elementInfo::findPointsOrder</title>
<!-- Node9 -->
<g id="node1" class="node">
<title>Node9</title>
<polygon fill="#bfbfbf" stroke="#000000" points="0,-44.5 0,-74.5 104,-74.5 104,-44.5 0,-44.5"/>
<text text-anchor="start" x="8" y="-62.5" font-family="Helvetica,sans-Serif" font-size="10.00" fill="#000000">Foam::elementInfo::</text>
<text text-anchor="middle" x="52" y="-51.5" font-family="Helvetica,sans-Serif" font-size="10.00" fill="#000000">findPointsOrder</text>
</g>
<!-- Node10 -->
<g id="node2" class="node">
<title>Node10</title>
<g id="a_node2"><a xlink:href="classFoam_1_1bubbleData.html#ae39fb04d51d3f94e71b2f5c39e5b6c56" target="_top" xlink:title="Foam::bubbleData::ptConnected\lPoints">
<polygon fill="none" stroke="#000000" points="140,-88.5 140,-118.5 298,-118.5 298,-88.5 140,-88.5"/>
<text text-anchor="start" x="148" y="-106.5" font-family="Helvetica,sans-Serif" font-size="10.00" fill="#000000">Foam::bubbleData::ptConnected</text>
<text text-anchor="middle" x="219" y="-95.5" font-family="Helvetica,sans-Serif" font-size="10.00" fill="#000000">Points</text>
</a>
</g>
</g>
<!-- Node9&#45;&gt;Node10 -->
<g id="edge1" class="edge">
<title>Node9&#45;&gt;Node10</title>
<path fill="none" stroke="#191970" d="M114.4303,-75.9487C129.9882,-80.0478 146.5902,-84.422 161.8776,-88.4498"/>
<polygon fill="#191970" stroke="#191970" points="114.9434,-72.4645 104.3816,-73.3012 113.1599,-79.2335 114.9434,-72.4645"/>
</g>
<!-- Node13 -->
<g id="node5" class="node">
<title>Node13</title>
<g id="a_node5"><a xlink:href="classFoam_1_1FrontTrackingCloud.html#af71f0286cb6f689c9aa0e392b4ca8eca" target="_top" xlink:title="Foam::FrontTrackingCloud\l::frontRefining">
<polygon fill="none" stroke="#000000" points="355.5,-16.5 355.5,-46.5 488.5,-46.5 488.5,-16.5 355.5,-16.5"/>
<text text-anchor="start" x="363.5" y="-34.5" font-family="Helvetica,sans-Serif" font-size="10.00" fill="#000000">Foam::FrontTrackingCloud</text>
<text text-anchor="middle" x="422" y="-23.5" font-family="Helvetica,sans-Serif" font-size="10.00" fill="#000000">::frontRefining</text>
</a>
</g>
</g>
<!-- Node9&#45;&gt;Node13 -->
<g id="edge4" class="edge">
<title>Node9&#45;&gt;Node13</title>
<path fill="none" stroke="#191970" d="M114.1999,-54.793C181.0243,-49.736 286.83,-41.7291 355.333,-36.5451"/>
<polygon fill="#191970" stroke="#191970" points="113.9346,-51.303 104.2272,-55.5477 114.4628,-58.283 113.9346,-51.303"/>
</g>
<!-- Node16 -->
<g id="node8" class="node">
<title>Node16</title>
<g id="a_node8"><a xlink:href="classFoam_1_1FrontTrackingCloud.html#af6a86830e32ecf4700c0dfe908f8455b" target="_top" xlink:title="Foam::FrontTrackingCloud\l::frontCoarsening">
<polygon fill="none" stroke="#000000" points="152.5,-.5 152.5,-30.5 285.5,-30.5 285.5,-.5 152.5,-.5"/>
<text text-anchor="start" x="160.5" y="-18.5" font-family="Helvetica,sans-Serif" font-size="10.00" fill="#000000">Foam::FrontTrackingCloud</text>
<text text-anchor="middle" x="219" y="-7.5" font-family="Helvetica,sans-Serif" font-size="10.00" fill="#000000">::frontCoarsening</text>
</a>
</g>
</g>
<!-- Node9&#45;&gt;Node16 -->
<g id="edge7" class="edge">
<title>Node9&#45;&gt;Node16</title>
<path fill="none" stroke="#191970" d="M114.4303,-43.0513C129.9882,-38.9522 146.5902,-34.578 161.8776,-30.5502"/>
<polygon fill="#191970" stroke="#191970" points="113.1599,-39.7665 104.3816,-45.6988 114.9434,-46.5355 113.1599,-39.7665"/>
</g>
<!-- Node11 -->
<g id="node3" class="node">
<title>Node11</title>
<g id="a_node3"><a xlink:href="classFoam_1_1FrontTrackingCloud.html#a5719f87b5899aa9675daf150a997f37a" target="_top" xlink:title="Foam::FrontTrackingCloud\l::constructingInitialFront">
<polygon fill="none" stroke="#000000" points="355.5,-134.5 355.5,-164.5 488.5,-164.5 488.5,-134.5 355.5,-134.5"/>
<text text-anchor="start" x="363.5" y="-152.5" font-family="Helvetica,sans-Serif" font-size="10.00" fill="#000000">Foam::FrontTrackingCloud</text>
<text text-anchor="middle" x="422" y="-141.5" font-family="Helvetica,sans-Serif" font-size="10.00" fill="#000000">::constructingInitialFront</text>
</a>
</g>
</g>
<!-- Node10&#45;&gt;Node11 -->
<g id="edge2" class="edge">
<title>Node10&#45;&gt;Node11</title>
<path fill="none" stroke="#191970" d="M295.3954,-120.8113C315.2404,-125.3082 336.4517,-130.1147 355.7277,-134.4826"/>
<polygon fill="#191970" stroke="#191970" points="295.9961,-117.3587 285.4698,-118.5621 294.449,-124.1856 295.9961,-117.3587"/>
</g>
<!-- Node12 -->
<g id="node4" class="node">
<title>Node12</title>
<g id="a_node4"><a xlink:href="classFoam_1_1FrontTrackingCloud.html#a356c54185b3b13a1b75a8400e2676cf7" target="_top" xlink:title="Foam::FrontTrackingCloud\l::readDataOfTheFrontsAtTheCurrent\lTimeIntimeName">
<polygon fill="none" stroke="#000000" points="334,-74 334,-115 510,-115 510,-74 334,-74"/>
<text text-anchor="start" x="342" y="-103" font-family="Helvetica,sans-Serif" font-size="10.00" fill="#000000">Foam::FrontTrackingCloud</text>
<text text-anchor="start" x="342" y="-92" font-family="Helvetica,sans-Serif" font-size="10.00" fill="#000000">::readDataOfTheFrontsAtTheCurrent</text>
<text text-anchor="middle" x="422" y="-81" font-family="Helvetica,sans-Serif" font-size="10.00" fill="#000000">TimeIntimeName</text>
</a>
</g>
</g>
<!-- Node10&#45;&gt;Node12 -->
<g id="edge3" class="edge">
<title>Node10&#45;&gt;Node12</title>
<path fill="none" stroke="#191970" d="M308.2919,-99.5412C316.7346,-99.1669 325.2916,-98.7876 333.7247,-98.4137"/>
<polygon fill="#191970" stroke="#191970" points="307.9015,-96.055 298.0664,-99.9946 308.2116,-103.0482 307.9015,-96.055"/>
</g>
<!-- Node14 -->
<g id="node6" class="node">
<title>Node14</title>
<g id="a_node6"><a xlink:href="classFoam_1_1FrontTrackingCloud.html#ada5f5e05db21f49b7d61c74fecc37db0" target="_top" xlink:title="Foam::FrontTrackingCloud\l::adjustingTheCloudDataAfterChanges">
<polygon fill="none" stroke="#000000" points="546,-16.5 546,-46.5 731,-46.5 731,-16.5 546,-16.5"/>
<text text-anchor="start" x="554" y="-34.5" font-family="Helvetica,sans-Serif" font-size="10.00" fill="#000000">Foam::FrontTrackingCloud</text>
<text text-anchor="middle" x="638.5" y="-23.5" font-family="Helvetica,sans-Serif" font-size="10.00" fill="#000000">::adjustingTheCloudDataAfterChanges</text>
</a>
</g>
</g>
<!-- Node13&#45;&gt;Node14 -->
<g id="edge5" class="edge">
<title>Node13&#45;&gt;Node14</title>
<path fill="none" stroke="#191970" d="M499.0318,-31.5C514.1498,-31.5 530.1562,-31.5 545.7264,-31.5"/>
<polygon fill="#191970" stroke="#191970" points="498.7237,-28.0001 488.7237,-31.5 498.7237,-35.0001 498.7237,-28.0001"/>
</g>
<!-- Node15 -->
<g id="node7" class="node">
<title>Node15</title>
<g id="a_node7"><a xlink:href="classFoam_1_1FrontTrackingCloud.html#a0bb2522d2ddf9404386ba4b5a5a288ee" target="_top" xlink:title="Foam::FrontTrackingCloud\l::processingThefrontMeshes">
<polygon fill="none" stroke="#000000" points="767,-16.5 767,-46.5 907,-46.5 907,-16.5 767,-16.5"/>
<text text-anchor="start" x="775" y="-34.5" font-family="Helvetica,sans-Serif" font-size="10.00" fill="#000000">Foam::FrontTrackingCloud</text>
<text text-anchor="middle" x="837" y="-23.5" font-family="Helvetica,sans-Serif" font-size="10.00" fill="#000000">::processingThefrontMeshes</text>
</a>
</g>
</g>
<!-- Node14&#45;&gt;Node15 -->
<g id="edge6" class="edge">
<title>Node14&#45;&gt;Node15</title>
<path fill="none" stroke="#191970" d="M741.2305,-31.5C749.8882,-31.5 758.5106,-31.5 766.8336,-31.5"/>
<polygon fill="#191970" stroke="#191970" points="741.0668,-28.0001 731.0668,-31.5 741.0667,-35.0001 741.0668,-28.0001"/>
</g>
<!-- Node16&#45;&gt;Node13 -->
<g id="edge8" class="edge">
<title>Node16&#45;&gt;Node13</title>
<path fill="none" stroke="#191970" d="M295.8344,-21.5559C315.375,-23.0961 336.2139,-24.7385 355.2089,-26.2357"/>
<polygon fill="#191970" stroke="#191970" points="295.9951,-18.0578 285.751,-20.7612 295.445,-25.0362 295.9951,-18.0578"/>
</g>
</g>
</svg>
