<?xml version="1.0" encoding="UTF-8" standalone="no"?>
<!DOCTYPE svg PUBLIC "-//W3C//DTD SVG 1.1//EN"
 "http://www.w3.org/Graphics/SVG/1.1/DTD/svg11.dtd">
<!-- Generated by graphviz version 2.40.1 (20161225.0304)
 -->
<!-- Title: Foam::FrontTrackingCloud::frontCoarsening Pages: 1 -->
<svg width="310pt" height="88pt"
 viewBox="0.00 0.00 310.00 88.00" xmlns="http://www.w3.org/2000/svg" xmlns:xlink="http://www.w3.org/1999/xlink">
<g id="graph0" class="graph" transform="scale(1 1) rotate(0) translate(4 84)">
<title>Foam::FrontTrackingCloud::frontCoarsening</title>
<!-- Node107 -->
<g id="node1" class="node">
<title>Node107</title>
<polygon fill="#bfbfbf" stroke="#000000" points="0,-24.5 0,-54.5 133,-54.5 133,-24.5 0,-24.5"/>
<text text-anchor="start" x="8" y="-42.5" font-family="Helvetica,sans-Serif" font-size="10.00" fill="#000000">Foam::FrontTrackingCloud</text>
<text text-anchor="middle" x="66.5" y="-31.5" font-family="Helvetica,sans-Serif" font-size="10.00" fill="#000000">::frontCoarsening</text>
</g>
<!-- Node108 -->
<g id="node2" class="node">
<title>Node108</title>
<g id="a_node2"><a xlink:href="classFoam_1_1elementInfo.html#a3318a932982b91d66075a89a2a860212" target="_top" xlink:title="Foam::elementInfo::\lfindPointsOrder">
<polygon fill="none" stroke="#000000" points="183.5,-49.5 183.5,-79.5 287.5,-79.5 287.5,-49.5 183.5,-49.5"/>
<text text-anchor="start" x="191.5" y="-67.5" font-family="Helvetica,sans-Serif" font-size="10.00" fill="#000000">Foam::elementInfo::</text>
<text text-anchor="middle" x="235.5" y="-56.5" font-family="Helvetica,sans-Serif" font-size="10.00" fill="#000000">findPointsOrder</text>
</a>
</g>
</g>
<!-- Node107&#45;&gt;Node108 -->
<g id="edge1" class="edge">
<title>Node107&#45;&gt;Node108</title>
<path fill="none" stroke="#191970" d="M133.2933,-49.3807C146.3974,-51.3191 160.0964,-53.3456 173.0518,-55.2621"/>
<polygon fill="#191970" stroke="#191970" points="172.8523,-58.7706 183.2568,-56.7717 173.8767,-51.846 172.8523,-58.7706"/>
</g>
<!-- Node109 -->
<g id="node3" class="node">
<title>Node109</title>
<g id="a_node3"><a xlink:href="classFoam_1_1FrontTrackingCloud.html#acd0406a159d2deeccb2b112fdbb9d3ca" target="_top" xlink:title="Foam::FrontTrackingCloud\l::isElementSmall">
<polygon fill="none" stroke="#000000" points="169,-.5 169,-30.5 302,-30.5 302,-.5 169,-.5"/>
<text text-anchor="start" x="177" y="-18.5" font-family="Helvetica,sans-Serif" font-size="10.00" fill="#000000">Foam::FrontTrackingCloud</text>
<text text-anchor="middle" x="235.5" y="-7.5" font-family="Helvetica,sans-Serif" font-size="10.00" fill="#000000">::isElementSmall</text>
</a>
</g>
</g>
<!-- Node107&#45;&gt;Node109 -->
<g id="edge2" class="edge">
<title>Node107&#45;&gt;Node109</title>
<path fill="none" stroke="#191970" d="M133.2933,-30.0146C141.7151,-28.8186 150.3826,-27.5877 158.9406,-26.3723"/>
<polygon fill="#191970" stroke="#191970" points="159.5067,-29.8272 168.9152,-24.9558 158.5224,-22.8967 159.5067,-29.8272"/>
</g>
</g>
</svg>
