<?xml version="1.0" encoding="UTF-8" standalone="no"?>
<!DOCTYPE svg PUBLIC "-//W3C//DTD SVG 1.1//EN"
 "http://www.w3.org/Graphics/SVG/1.1/DTD/svg11.dtd">
<!-- Generated by graphviz version 2.40.1 (20161225.0304)
 -->
<!-- Title: Foam::bubbleData::findNighboures Pages: 1 -->
<svg width="582pt" height="108pt"
 viewBox="0.00 0.00 582.00 107.50" xmlns="http://www.w3.org/2000/svg" xmlns:xlink="http://www.w3.org/1999/xlink">
<g id="graph0" class="graph" transform="scale(1 1) rotate(0) translate(4 103.5)">
<title>Foam::bubbleData::findNighboures</title>
<!-- Node13 -->
<g id="node1" class="node">
<title>Node13</title>
<polygon fill="#bfbfbf" stroke="#000000" points="0,-39.5 0,-58.5 168,-58.5 168,-39.5 0,-39.5"/>
<text text-anchor="middle" x="84" y="-46.5" font-family="Helvetica,sans-Serif" font-size="10.00" fill="#000000">Foam::bubbleData::findNighboures</text>
</g>
<!-- Node14 -->
<g id="node2" class="node">
<title>Node14</title>
<g id="a_node2"><a xlink:href="classFoam_1_1bubbleData.html#ae39fb04d51d3f94e71b2f5c39e5b6c56" target="_top" xlink:title="Foam::bubbleData::ptConnected\lPoints">
<polygon fill="none" stroke="#000000" points="204,-34 204,-64 362,-64 362,-34 204,-34"/>
<text text-anchor="start" x="212" y="-52" font-family="Helvetica,sans-Serif" font-size="10.00" fill="#000000">Foam::bubbleData::ptConnected</text>
<text text-anchor="middle" x="283" y="-41" font-family="Helvetica,sans-Serif" font-size="10.00" fill="#000000">Points</text>
</a>
</g>
</g>
<!-- Node13&#45;&gt;Node14 -->
<g id="edge1" class="edge">
<title>Node13&#45;&gt;Node14</title>
<path fill="none" stroke="#191970" d="M178.1854,-49C186.8062,-49 195.4803,-49 203.948,-49"/>
<polygon fill="#191970" stroke="#191970" points="178.1055,-45.5001 168.1055,-49 178.1054,-52.5001 178.1055,-45.5001"/>
</g>
<!-- Node15 -->
<g id="node3" class="node">
<title>Node15</title>
<g id="a_node3"><a xlink:href="classFoam_1_1FrontTrackingCloud.html#a5719f87b5899aa9675daf150a997f37a" target="_top" xlink:title="Foam::FrontTrackingCloud\l::constructingInitialFront">
<polygon fill="none" stroke="#000000" points="419.5,-69 419.5,-99 552.5,-99 552.5,-69 419.5,-69"/>
<text text-anchor="start" x="427.5" y="-87" font-family="Helvetica,sans-Serif" font-size="10.00" fill="#000000">Foam::FrontTrackingCloud</text>
<text text-anchor="middle" x="486" y="-76" font-family="Helvetica,sans-Serif" font-size="10.00" fill="#000000">::constructingInitialFront</text>
</a>
</g>
</g>
<!-- Node13&#45;&gt;Node15 -->
<g id="edge4" class="edge">
<title>Node13&#45;&gt;Node15</title>
<path fill="none" stroke="#191970" d="M133.3837,-60.7087C154.9425,-65.3438 180.596,-70.2209 204,-73 277.3455,-81.7094 362.0971,-83.9759 419.3878,-84.3673"/>
<polygon fill="#191970" stroke="#191970" points="133.9919,-57.259 123.4741,-58.5341 132.4914,-64.0963 133.9919,-57.259"/>
</g>
<!-- Node16 -->
<g id="node4" class="node">
<title>Node16</title>
<g id="a_node4"><a xlink:href="classFoam_1_1FrontTrackingCloud.html#a356c54185b3b13a1b75a8400e2676cf7" target="_top" xlink:title="Foam::FrontTrackingCloud\l::readDataOfTheFrontsAtTheCurrent\lTimeIntimeName">
<polygon fill="none" stroke="#000000" points="398,-.5 398,-41.5 574,-41.5 574,-.5 398,-.5"/>
<text text-anchor="start" x="406" y="-29.5" font-family="Helvetica,sans-Serif" font-size="10.00" fill="#000000">Foam::FrontTrackingCloud</text>
<text text-anchor="start" x="406" y="-18.5" font-family="Helvetica,sans-Serif" font-size="10.00" fill="#000000">::readDataOfTheFrontsAtTheCurrent</text>
<text text-anchor="middle" x="486" y="-7.5" font-family="Helvetica,sans-Serif" font-size="10.00" fill="#000000">TimeIntimeName</text>
</a>
</g>
</g>
<!-- Node13&#45;&gt;Node16 -->
<g id="edge5" class="edge">
<title>Node13&#45;&gt;Node16</title>
<path fill="none" stroke="#191970" d="M130.2774,-37.1618C152.4245,-32.0627 179.4153,-26.6659 204,-24 268.6171,-16.993 342.0487,-16.4463 397.7777,-17.5441"/>
<polygon fill="#191970" stroke="#191970" points="129.3994,-33.7728 120.4686,-39.4728 131.0047,-40.5862 129.3994,-33.7728"/>
</g>
<!-- Node14&#45;&gt;Node15 -->
<g id="edge2" class="edge">
<title>Node14&#45;&gt;Node15</title>
<path fill="none" stroke="#191970" d="M372.3582,-64.4066C388.1313,-67.1261 404.3013,-69.914 419.315,-72.5026"/>
<polygon fill="#191970" stroke="#191970" points="372.5157,-60.8822 362.0664,-62.6321 371.3263,-67.7804 372.5157,-60.8822"/>
</g>
<!-- Node14&#45;&gt;Node16 -->
<g id="edge3" class="edge">
<title>Node14&#45;&gt;Node16</title>
<path fill="none" stroke="#191970" d="M372.0136,-36.7223C380.5465,-35.5453 389.1989,-34.3519 397.7247,-33.1759"/>
<polygon fill="#191970" stroke="#191970" points="371.4943,-33.2607 362.0664,-38.0943 372.4508,-40.195 371.4943,-33.2607"/>
</g>
</g>
</svg>
