<?xml version="1.0" encoding="UTF-8" standalone="no"?>
<!DOCTYPE svg PUBLIC "-//W3C//DTD SVG 1.1//EN"
 "http://www.w3.org/Graphics/SVG/1.1/DTD/svg11.dtd">
<!-- Generated by graphviz version 2.40.1 (20161225.0304)
 -->
<!-- Title: Foam::bubbleData::ptConnectedPoints Pages: 1 -->
<svg width="370pt" height="127pt"
 viewBox="0.00 0.00 370.00 126.50" xmlns="http://www.w3.org/2000/svg" xmlns:xlink="http://www.w3.org/1999/xlink">
<g id="graph0" class="graph" transform="scale(1 1) rotate(0) translate(4 122.5)">
<title>Foam::bubbleData::ptConnectedPoints</title>
<!-- Node32 -->
<g id="node1" class="node">
<title>Node32</title>
<polygon fill="#bfbfbf" stroke="#000000" points="0,-49.5 0,-79.5 158,-79.5 158,-49.5 0,-49.5"/>
<text text-anchor="start" x="8" y="-67.5" font-family="Helvetica,sans-Serif" font-size="10.00" fill="#000000">Foam::bubbleData::ptConnected</text>
<text text-anchor="middle" x="79" y="-56.5" font-family="Helvetica,sans-Serif" font-size="10.00" fill="#000000">Points</text>
</g>
<!-- Node33 -->
<g id="node2" class="node">
<title>Node33</title>
<g id="a_node2"><a xlink:href="classFoam_1_1bubbleData.html#a200b32da9651717744e2c042c708550a" target="_top" xlink:title="Foam::bubbleData::findNighboures">
<polygon fill="none" stroke="#000000" points="194,-99 194,-118 362,-118 362,-99 194,-99"/>
<text text-anchor="middle" x="278" y="-106" font-family="Helvetica,sans-Serif" font-size="10.00" fill="#000000">Foam::bubbleData::findNighboures</text>
</a>
</g>
</g>
<!-- Node32&#45;&gt;Node33 -->
<g id="edge1" class="edge">
<title>Node32&#45;&gt;Node33</title>
<path fill="none" stroke="#191970" d="M146.9279,-79.5192C172.4448,-85.1612 201.0522,-91.4864 225.0151,-96.7847"/>
<polygon fill="#191970" stroke="#191970" points="224.4581,-100.2461 234.9779,-98.9876 225.9694,-93.4111 224.4581,-100.2461"/>
</g>
<!-- Node34 -->
<g id="node3" class="node">
<title>Node34</title>
<g id="a_node3"><a xlink:href="classFoam_1_1bubbleData.html#acda4c6cfdf009e8e11f7b8f2d6b161dc" target="_top" xlink:title="Foam::bubbleData::pointTo\lElementMapping">
<polygon fill="none" stroke="#000000" points="210.5,-49.5 210.5,-79.5 345.5,-79.5 345.5,-49.5 210.5,-49.5"/>
<text text-anchor="start" x="218.5" y="-67.5" font-family="Helvetica,sans-Serif" font-size="10.00" fill="#000000">Foam::bubbleData::pointTo</text>
<text text-anchor="middle" x="278" y="-56.5" font-family="Helvetica,sans-Serif" font-size="10.00" fill="#000000">ElementMapping</text>
</a>
</g>
</g>
<!-- Node32&#45;&gt;Node34 -->
<g id="edge2" class="edge">
<title>Node32&#45;&gt;Node34</title>
<path fill="none" stroke="#191970" d="M158.2219,-64.5C171.955,-64.5 186.2263,-64.5 199.9285,-64.5"/>
<polygon fill="#191970" stroke="#191970" points="200.2773,-68.0001 210.2773,-64.5 200.2773,-61.0001 200.2773,-68.0001"/>
</g>
<!-- Node35 -->
<g id="node4" class="node">
<title>Node35</title>
<g id="a_node4"><a xlink:href="classFoam_1_1elementInfo.html#a3318a932982b91d66075a89a2a860212" target="_top" xlink:title="Foam::elementInfo::\lfindPointsOrder">
<polygon fill="none" stroke="#000000" points="226,-.5 226,-30.5 330,-30.5 330,-.5 226,-.5"/>
<text text-anchor="start" x="234" y="-18.5" font-family="Helvetica,sans-Serif" font-size="10.00" fill="#000000">Foam::elementInfo::</text>
<text text-anchor="middle" x="278" y="-7.5" font-family="Helvetica,sans-Serif" font-size="10.00" fill="#000000">findPointsOrder</text>
</a>
</g>
</g>
<!-- Node32&#45;&gt;Node35 -->
<g id="edge3" class="edge">
<title>Node32&#45;&gt;Node35</title>
<path fill="none" stroke="#191970" d="M140.059,-49.4654C164.1589,-43.5312 191.8144,-36.7216 216.0051,-30.7651"/>
<polygon fill="#191970" stroke="#191970" points="216.9151,-34.1456 225.7882,-28.3562 215.2414,-27.3486 216.9151,-34.1456"/>
</g>
</g>
</svg>
