<?xml version="1.0" encoding="UTF-8" standalone="no"?>
<!DOCTYPE svg PUBLIC "-//W3C//DTD SVG 1.1//EN"
 "http://www.w3.org/Graphics/SVG/1.1/DTD/svg11.dtd">
<!-- Generated by graphviz version 2.40.1 (20161225.0304)
 -->
<!-- Title: Foam::FrontTrackingCloud::updateElCentrePosInDomain Pages: 1 -->
<svg width="537pt" height="50pt"
 viewBox="0.00 0.00 537.00 50.00" xmlns="http://www.w3.org/2000/svg" xmlns:xlink="http://www.w3.org/1999/xlink">
<g id="graph0" class="graph" transform="scale(1 1) rotate(0) translate(4 46)">
<title>Foam::FrontTrackingCloud::updateElCentrePosInDomain</title>
<!-- Node290 -->
<g id="node1" class="node">
<title>Node290</title>
<polygon fill="#bfbfbf" stroke="#000000" points="0,-6 0,-36 149,-36 149,-6 0,-6"/>
<text text-anchor="start" x="8" y="-24" font-family="Helvetica,sans-Serif" font-size="10.00" fill="#000000">Foam::FrontTrackingCloud</text>
<text text-anchor="middle" x="74.5" y="-13" font-family="Helvetica,sans-Serif" font-size="10.00" fill="#000000">::updateElCentrePosInDomain</text>
</g>
<!-- Node291 -->
<g id="node2" class="node">
<title>Node291</title>
<g id="a_node2"><a xlink:href="classFoam_1_1FrontTrackingCloud.html#ab2c887bd558ca828970699810da950fb" target="_top" xlink:title="Foam::FrontTrackingCloud\l::updatePlPosInDomain">
<polygon fill="none" stroke="#000000" points="185,-6 185,-36 318,-36 318,-6 185,-6"/>
<text text-anchor="start" x="193" y="-24" font-family="Helvetica,sans-Serif" font-size="10.00" fill="#000000">Foam::FrontTrackingCloud</text>
<text text-anchor="middle" x="251.5" y="-13" font-family="Helvetica,sans-Serif" font-size="10.00" fill="#000000">::updatePlPosInDomain</text>
</a>
</g>
</g>
<!-- Node290&#45;&gt;Node291 -->
<g id="edge1" class="edge">
<title>Node290&#45;&gt;Node291</title>
<path fill="none" stroke="#191970" d="M159.1573,-21C167.8025,-21 176.4966,-21 184.909,-21"/>
<polygon fill="#191970" stroke="#191970" points="159.051,-17.5001 149.0509,-21 159.0509,-24.5001 159.051,-17.5001"/>
</g>
<!-- Node292 -->
<g id="node3" class="node">
<title>Node292</title>
<g id="a_node3"><a xlink:href="classFoam_1_1FrontTrackingCloud.html#a5efc9601f8386505e595ed22cf7e425f" target="_top" xlink:title="Foam::FrontTrackingCloud\l::writeDataOfTheFrontsAtTheOutput\lTimeIntimeName">
<polygon fill="none" stroke="#000000" points="354,-.5 354,-41.5 529,-41.5 529,-.5 354,-.5"/>
<text text-anchor="start" x="362" y="-29.5" font-family="Helvetica,sans-Serif" font-size="10.00" fill="#000000">Foam::FrontTrackingCloud</text>
<text text-anchor="start" x="362" y="-18.5" font-family="Helvetica,sans-Serif" font-size="10.00" fill="#000000">::writeDataOfTheFrontsAtTheOutput</text>
<text text-anchor="middle" x="441.5" y="-7.5" font-family="Helvetica,sans-Serif" font-size="10.00" fill="#000000">TimeIntimeName</text>
</a>
</g>
</g>
<!-- Node291&#45;&gt;Node292 -->
<g id="edge2" class="edge">
<title>Node291&#45;&gt;Node292</title>
<path fill="none" stroke="#191970" d="M328.3692,-21C336.7854,-21 345.3988,-21 353.9318,-21"/>
<polygon fill="#191970" stroke="#191970" points="328.2198,-17.5001 318.2197,-21 328.2197,-24.5001 328.2198,-17.5001"/>
</g>
</g>
</svg>
