<?xml version="1.0" encoding="UTF-8" standalone="no"?>
<!DOCTYPE svg PUBLIC "-//W3C//DTD SVG 1.1//EN"
 "http://www.w3.org/Graphics/SVG/1.1/DTD/svg11.dtd">
<!-- Generated by graphviz version 2.40.1 (20161225.0304)
 -->
<!-- Title: Foam::FrontTrackingParcel::trackingData::part Pages: 1 -->
<svg width="659pt" height="88pt"
 viewBox="0.00 0.00 659.00 88.00" xmlns="http://www.w3.org/2000/svg" xmlns:xlink="http://www.w3.org/1999/xlink">
<g id="graph0" class="graph" transform="scale(1 1) rotate(0) translate(4 84)">
<title>Foam::FrontTrackingParcel::trackingData::part</title>
<!-- Node5 -->
<g id="node1" class="node">
<title>Node5</title>
<polygon fill="#bfbfbf" stroke="#000000" points="0,-22.5 0,-52.5 135,-52.5 135,-22.5 0,-22.5"/>
<text text-anchor="start" x="8" y="-40.5" font-family="Helvetica,sans-Serif" font-size="10.00" fill="#000000">Foam::FrontTrackingParcel</text>
<text text-anchor="middle" x="67.5" y="-29.5" font-family="Helvetica,sans-Serif" font-size="10.00" fill="#000000">::trackingData::part</text>
</g>
<!-- Node6 -->
<g id="node2" class="node">
<title>Node6</title>
<g id="a_node2"><a xlink:href="classFoam_1_1FrontTrackingParcel.html#a83bc1f2780071297ff3222884de3c940" target="_top" xlink:title="Foam::FrontTrackingParcel\l::move">
<polygon fill="none" stroke="#000000" points="171,-22.5 171,-52.5 306,-52.5 306,-22.5 171,-22.5"/>
<text text-anchor="start" x="179" y="-40.5" font-family="Helvetica,sans-Serif" font-size="10.00" fill="#000000">Foam::FrontTrackingParcel</text>
<text text-anchor="middle" x="238.5" y="-29.5" font-family="Helvetica,sans-Serif" font-size="10.00" fill="#000000">::move</text>
</a>
</g>
</g>
<!-- Node5&#45;&gt;Node6 -->
<g id="edge1" class="edge">
<title>Node5&#45;&gt;Node6</title>
<path fill="none" stroke="#191970" d="M145.0998,-37.5C153.692,-37.5 162.3915,-37.5 170.8472,-37.5"/>
<polygon fill="#191970" stroke="#191970" points="145.0838,-34.0001 135.0837,-37.5 145.0837,-41.0001 145.0838,-34.0001"/>
</g>
<!-- Node7 -->
<g id="node3" class="node">
<title>Node7</title>
<g id="a_node3"><a xlink:href="classFoam_1_1FrontTrackingParcel.html#ac23d4a43d6e25f7adac93cecb93946a4" target="_top" xlink:title="Foam::FrontTrackingParcel\l::cellValueSourceCorrection">
<polygon fill="none" stroke="#000000" points="342,-44.5 342,-74.5 480,-74.5 480,-44.5 342,-44.5"/>
<text text-anchor="start" x="350" y="-62.5" font-family="Helvetica,sans-Serif" font-size="10.00" fill="#000000">Foam::FrontTrackingParcel</text>
<text text-anchor="middle" x="411" y="-51.5" font-family="Helvetica,sans-Serif" font-size="10.00" fill="#000000">::cellValueSourceCorrection</text>
</a>
</g>
</g>
<!-- Node6&#45;&gt;Node7 -->
<g id="edge2" class="edge">
<title>Node6&#45;&gt;Node7</title>
<path fill="none" stroke="#191970" d="M316.1501,-47.4032C324.7038,-48.4941 333.3716,-49.5996 341.8122,-50.676"/>
<polygon fill="#191970" stroke="#191970" points="316.5439,-43.9252 306.1815,-46.1318 315.6583,-50.8689 316.5439,-43.9252"/>
</g>
<!-- Node9 -->
<g id="node5" class="node">
<title>Node9</title>
<g id="a_node5"><a xlink:href="classFoam_1_1FrontTrackingParcel_1_1iNew.html#aaf5b4c66182903f2836a251ac0633395" target="_top" xlink:title="Foam::FrontTrackingParcel\l::iNew::operator()">
<polygon fill="none" stroke="#000000" points="516,-.5 516,-30.5 651,-30.5 651,-.5 516,-.5"/>
<text text-anchor="start" x="524" y="-18.5" font-family="Helvetica,sans-Serif" font-size="10.00" fill="#000000">Foam::FrontTrackingParcel</text>
<text text-anchor="middle" x="583.5" y="-7.5" font-family="Helvetica,sans-Serif" font-size="10.00" fill="#000000">::iNew::operator()</text>
</a>
</g>
</g>
<!-- Node6&#45;&gt;Node9 -->
<g id="edge5" class="edge">
<title>Node6&#45;&gt;Node9</title>
<path fill="none" stroke="#191970" d="M316.4378,-32.5301C376.4751,-28.7016 458.6295,-23.4628 515.9057,-19.8104"/>
<polygon fill="#191970" stroke="#191970" points="316.0062,-29.0504 306.2493,-33.1798 316.4518,-36.0362 316.0062,-29.0504"/>
</g>
<!-- Node8 -->
<g id="node4" class="node">
<title>Node8</title>
<g id="a_node4"><a xlink:href="classFoam_1_1FrontTrackingParcel.html#ac4e991ea63aecca2368957c695ca2aa6" target="_top" xlink:title="Foam::FrontTrackingParcel\l::FrontTrackingParcel">
<polygon fill="none" stroke="#000000" points="516,-49.5 516,-79.5 651,-79.5 651,-49.5 516,-49.5"/>
<text text-anchor="start" x="524" y="-67.5" font-family="Helvetica,sans-Serif" font-size="10.00" fill="#000000">Foam::FrontTrackingParcel</text>
<text text-anchor="middle" x="583.5" y="-56.5" font-family="Helvetica,sans-Serif" font-size="10.00" fill="#000000">::FrontTrackingParcel</text>
</a>
</g>
</g>
<!-- Node7&#45;&gt;Node8 -->
<g id="edge3" class="edge">
<title>Node7&#45;&gt;Node8</title>
<path fill="none" stroke="#191970" d="M490.4166,-61.8019C498.8722,-62.047 507.4159,-62.2947 515.7199,-62.5354"/>
<polygon fill="#191970" stroke="#191970" points="490.2657,-58.2962 480.1684,-61.5049 490.0628,-65.2932 490.2657,-58.2962"/>
</g>
<!-- Node7&#45;&gt;Node9 -->
<g id="edge4" class="edge">
<title>Node7&#45;&gt;Node9</title>
<path fill="none" stroke="#191970" d="M479.977,-41.9059C494.7536,-38.1368 510.2355,-34.1878 524.5904,-30.5262"/>
<polygon fill="#191970" stroke="#191970" points="478.7069,-38.6177 469.8822,-44.4808 480.4371,-45.4005 478.7069,-38.6177"/>
</g>
</g>
</svg>
