<?xml version="1.0" encoding="UTF-8" standalone="no"?>
<!DOCTYPE svg PUBLIC "-//W3C//DTD SVG 1.1//EN"
 "http://www.w3.org/Graphics/SVG/1.1/DTD/svg11.dtd">
<!-- Generated by graphviz version 2.40.1 (20161225.0304)
 -->
<!-- Title: Foam::FrontTrackingCloud::frontRefining Pages: 1 -->
<svg width="538pt" height="39pt"
 viewBox="0.00 0.00 538.00 39.00" xmlns="http://www.w3.org/2000/svg" xmlns:xlink="http://www.w3.org/1999/xlink">
<g id="graph0" class="graph" transform="scale(1 1) rotate(0) translate(4 35)">
<title>Foam::FrontTrackingCloud::frontRefining</title>
<!-- Node120 -->
<g id="node1" class="node">
<title>Node120</title>
<polygon fill="#bfbfbf" stroke="#000000" points="0,-.5 0,-30.5 133,-30.5 133,-.5 0,-.5"/>
<text text-anchor="start" x="8" y="-18.5" font-family="Helvetica,sans-Serif" font-size="10.00" fill="#000000">Foam::FrontTrackingCloud</text>
<text text-anchor="middle" x="66.5" y="-7.5" font-family="Helvetica,sans-Serif" font-size="10.00" fill="#000000">::frontRefining</text>
</g>
<!-- Node121 -->
<g id="node2" class="node">
<title>Node121</title>
<g id="a_node2"><a xlink:href="classFoam_1_1FrontTrackingCloud.html#ada5f5e05db21f49b7d61c74fecc37db0" target="_top" xlink:title="Foam::FrontTrackingCloud\l::adjustingTheCloudDataAfterChanges">
<polygon fill="none" stroke="#000000" points="169,-.5 169,-30.5 354,-30.5 354,-.5 169,-.5"/>
<text text-anchor="start" x="177" y="-18.5" font-family="Helvetica,sans-Serif" font-size="10.00" fill="#000000">Foam::FrontTrackingCloud</text>
<text text-anchor="middle" x="261.5" y="-7.5" font-family="Helvetica,sans-Serif" font-size="10.00" fill="#000000">::adjustingTheCloudDataAfterChanges</text>
</a>
</g>
</g>
<!-- Node120&#45;&gt;Node121 -->
<g id="edge1" class="edge">
<title>Node120&#45;&gt;Node121</title>
<path fill="none" stroke="#191970" d="M143.1553,-15.5C151.5316,-15.5 160.1232,-15.5 168.6669,-15.5"/>
<polygon fill="#191970" stroke="#191970" points="143.0626,-12.0001 133.0625,-15.5 143.0625,-19.0001 143.0626,-12.0001"/>
</g>
<!-- Node122 -->
<g id="node3" class="node">
<title>Node122</title>
<g id="a_node3"><a xlink:href="classFoam_1_1FrontTrackingCloud.html#a0bb2522d2ddf9404386ba4b5a5a288ee" target="_top" xlink:title="Foam::FrontTrackingCloud\l::processingThefrontMeshes">
<polygon fill="none" stroke="#000000" points="390,-.5 390,-30.5 530,-30.5 530,-.5 390,-.5"/>
<text text-anchor="start" x="398" y="-18.5" font-family="Helvetica,sans-Serif" font-size="10.00" fill="#000000">Foam::FrontTrackingCloud</text>
<text text-anchor="middle" x="460" y="-7.5" font-family="Helvetica,sans-Serif" font-size="10.00" fill="#000000">::processingThefrontMeshes</text>
</a>
</g>
</g>
<!-- Node121&#45;&gt;Node122 -->
<g id="edge2" class="edge">
<title>Node121&#45;&gt;Node122</title>
<path fill="none" stroke="#191970" d="M364.2305,-15.5C372.8882,-15.5 381.5106,-15.5 389.8336,-15.5"/>
<polygon fill="#191970" stroke="#191970" points="364.0668,-12.0001 354.0668,-15.5 364.0667,-19.0001 364.0668,-12.0001"/>
</g>
</g>
</svg>
