<?xml version="1.0" encoding="UTF-8" standalone="no"?>
<!DOCTYPE svg PUBLIC "-//W3C//DTD SVG 1.1//EN"
 "http://www.w3.org/Graphics/SVG/1.1/DTD/svg11.dtd">
<!-- Generated by graphviz version 2.40.1 (20161225.0304)
 -->
<!-- Title: Foam::FrontTrackingCloud::mapFrontToParcel Pages: 1 -->
<svg width="479pt" height="39pt"
 viewBox="0.00 0.00 479.00 39.00" xmlns="http://www.w3.org/2000/svg" xmlns:xlink="http://www.w3.org/1999/xlink">
<g id="graph0" class="graph" transform="scale(1 1) rotate(0) translate(4 35)">
<title>Foam::FrontTrackingCloud::mapFrontToParcel</title>
<!-- Node160 -->
<g id="node1" class="node">
<title>Node160</title>
<polygon fill="#bfbfbf" stroke="#000000" points="0,-.5 0,-30.5 133,-30.5 133,-.5 0,-.5"/>
<text text-anchor="start" x="8" y="-18.5" font-family="Helvetica,sans-Serif" font-size="10.00" fill="#000000">Foam::FrontTrackingCloud</text>
<text text-anchor="middle" x="66.5" y="-7.5" font-family="Helvetica,sans-Serif" font-size="10.00" fill="#000000">::mapFrontToParcel</text>
</g>
<!-- Node161 -->
<g id="node2" class="node">
<title>Node161</title>
<g id="a_node2"><a xlink:href="classFoam_1_1FrontTrackingCloud.html#a6a3db7a4b4111c52f10a81f56b2b2429" target="_top" xlink:title="Foam::FrontTrackingCloud\l::updateParcelsFromFront">
<polygon fill="none" stroke="#000000" points="169,-.5 169,-30.5 302,-30.5 302,-.5 169,-.5"/>
<text text-anchor="start" x="177" y="-18.5" font-family="Helvetica,sans-Serif" font-size="10.00" fill="#000000">Foam::FrontTrackingCloud</text>
<text text-anchor="middle" x="235.5" y="-7.5" font-family="Helvetica,sans-Serif" font-size="10.00" fill="#000000">::updateParcelsFromFront</text>
</a>
</g>
</g>
<!-- Node160&#45;&gt;Node161 -->
<g id="edge1" class="edge">
<title>Node160&#45;&gt;Node161</title>
<path fill="none" stroke="#191970" d="M133.2933,-15.5C141.6236,-15.5 150.1942,-15.5 158.6615,-15.5"/>
<polygon fill="#191970" stroke="#191970" points="158.9152,-19.0001 168.9152,-15.5 158.9152,-12.0001 158.9152,-19.0001"/>
</g>
<!-- Node162 -->
<g id="node3" class="node">
<title>Node162</title>
<g id="a_node3"><a xlink:href="classFoam_1_1FrontTrackingCloud.html#a07213caaa12b062cf109d5e1c787bd7b" target="_top" xlink:title="Foam::FrontTrackingCloud\l::frontCloudAdvection">
<polygon fill="none" stroke="#000000" points="338,-.5 338,-30.5 471,-30.5 471,-.5 338,-.5"/>
<text text-anchor="start" x="346" y="-18.5" font-family="Helvetica,sans-Serif" font-size="10.00" fill="#000000">Foam::FrontTrackingCloud</text>
<text text-anchor="middle" x="404.5" y="-7.5" font-family="Helvetica,sans-Serif" font-size="10.00" fill="#000000">::frontCloudAdvection</text>
</a>
</g>
</g>
<!-- Node161&#45;&gt;Node162 -->
<g id="edge2" class="edge">
<title>Node161&#45;&gt;Node162</title>
<path fill="none" stroke="#191970" d="M302.2933,-15.5C310.6236,-15.5 319.1942,-15.5 327.6615,-15.5"/>
<polygon fill="#191970" stroke="#191970" points="327.9152,-19.0001 337.9152,-15.5 327.9152,-12.0001 327.9152,-19.0001"/>
</g>
</g>
</svg>
