<?xml version="1.0" encoding="UTF-8" standalone="no"?>
<!DOCTYPE svg PUBLIC "-//W3C//DTD SVG 1.1//EN"
 "http://www.w3.org/Graphics/SVG/1.1/DTD/svg11.dtd">
<!-- Generated by graphviz version 2.40.1 (20161225.0304)
 -->
<!-- Title: Foam::UndulationRemovalModels::VCSIII::clone Pages: 1 -->
<svg width="372pt" height="88pt"
 viewBox="0.00 0.00 372.00 88.00" xmlns="http://www.w3.org/2000/svg" xmlns:xlink="http://www.w3.org/1999/xlink">
<g id="graph0" class="graph" transform="scale(1 1) rotate(0) translate(4 84)">
<title>Foam::UndulationRemovalModels::VCSIII::clone</title>
<!-- Node22 -->
<g id="node1" class="node">
<title>Node22</title>
<polygon fill="#bfbfbf" stroke="#000000" points="0,-24.5 0,-54.5 164,-54.5 164,-24.5 0,-24.5"/>
<text text-anchor="start" x="8" y="-42.5" font-family="Helvetica,sans-Serif" font-size="10.00" fill="#000000">Foam::UndulationRemovalModels</text>
<text text-anchor="middle" x="82" y="-31.5" font-family="Helvetica,sans-Serif" font-size="10.00" fill="#000000">::VCSIII::clone</text>
</g>
<!-- Node23 -->
<g id="node2" class="node">
<title>Node23</title>
<g id="a_node2"><a xlink:href="classFoam_1_1UndulationRemovalModels_1_1VCSIII.html#abbd222e5645bec222c8f02ebfecea391" target="_top" xlink:title="Foam::UndulationRemovalModels\l::VCSIII::~VCSIII">
<polygon fill="none" stroke="#000000" points="200,-49.5 200,-79.5 364,-79.5 364,-49.5 200,-49.5"/>
<text text-anchor="start" x="208" y="-67.5" font-family="Helvetica,sans-Serif" font-size="10.00" fill="#000000">Foam::UndulationRemovalModels</text>
<text text-anchor="middle" x="282" y="-56.5" font-family="Helvetica,sans-Serif" font-size="10.00" fill="#000000">::VCSIII::~VCSIII</text>
</a>
</g>
</g>
<!-- Node22&#45;&gt;Node23 -->
<g id="edge1" class="edge">
<title>Node22&#45;&gt;Node23</title>
<path fill="none" stroke="#191970" d="M164.2135,-49.7767C172.6542,-50.8318 181.2696,-51.9087 189.8087,-52.9761"/>
<polygon fill="#191970" stroke="#191970" points="189.4257,-56.4554 199.7826,-54.2228 190.294,-49.5094 189.4257,-56.4554"/>
</g>
<!-- Node24 -->
<g id="node3" class="node">
<title>Node24</title>
<g id="a_node3"><a xlink:href="classFoam_1_1UndulationRemovalModels_1_1VCSIII.html#a67d38bbc658f73c4027f5df1305b3f81" target="_top" xlink:title="Foam::UndulationRemovalModels\l::VCSIII::calculate">
<polygon fill="none" stroke="#000000" points="200,-.5 200,-30.5 364,-30.5 364,-.5 200,-.5"/>
<text text-anchor="start" x="208" y="-18.5" font-family="Helvetica,sans-Serif" font-size="10.00" fill="#000000">Foam::UndulationRemovalModels</text>
<text text-anchor="middle" x="282" y="-7.5" font-family="Helvetica,sans-Serif" font-size="10.00" fill="#000000">::VCSIII::calculate</text>
</a>
</g>
</g>
<!-- Node22&#45;&gt;Node24 -->
<g id="edge2" class="edge">
<title>Node22&#45;&gt;Node24</title>
<path fill="none" stroke="#191970" d="M164.2135,-29.6344C172.6542,-28.6215 181.2696,-27.5876 189.8087,-26.563"/>
<polygon fill="#191970" stroke="#191970" points="190.2709,-30.0327 199.7826,-25.3661 189.4368,-23.0826 190.2709,-30.0327"/>
</g>
</g>
</svg>
