<?xml version="1.0" encoding="UTF-8" standalone="no"?>
<!DOCTYPE svg PUBLIC "-//W3C//DTD SVG 1.1//EN"
 "http://www.w3.org/Graphics/SVG/1.1/DTD/svg11.dtd">
<!-- Generated by graphviz version 2.40.1 (20161225.0304)
 -->
<!-- Title: Foam::UndulationRemovalModels::NoUndulationRemoval::clone Pages: 1 -->
<svg width="400pt" height="100pt"
 viewBox="0.00 0.00 400.00 99.50" xmlns="http://www.w3.org/2000/svg" xmlns:xlink="http://www.w3.org/1999/xlink">
<g id="graph0" class="graph" transform="scale(1 1) rotate(0) translate(4 95.5)">
<title>Foam::UndulationRemovalModels::NoUndulationRemoval::clone</title>
<!-- Node22 -->
<g id="node1" class="node">
<title>Node22</title>
<polygon fill="#bfbfbf" stroke="#000000" points="0,-27.5 0,-57.5 164,-57.5 164,-27.5 0,-27.5"/>
<text text-anchor="start" x="8" y="-45.5" font-family="Helvetica,sans-Serif" font-size="10.00" fill="#000000">Foam::UndulationRemovalModels</text>
<text text-anchor="middle" x="82" y="-34.5" font-family="Helvetica,sans-Serif" font-size="10.00" fill="#000000">::NoUndulationRemoval::clone</text>
</g>
<!-- Node23 -->
<g id="node2" class="node">
<title>Node23</title>
<g id="a_node2"><a xlink:href="classFoam_1_1UndulationRemovalModels_1_1NoUndulationRemoval.html#a1745de14eea2fdc8cb7a12de81ed4264" target="_top" xlink:title="Foam::UndulationRemovalModels\l::NoUndulationRemoval::~NoUndulation\lRemoval">
<polygon fill="none" stroke="#000000" points="200,-50 200,-91 392,-91 392,-50 200,-50"/>
<text text-anchor="start" x="208" y="-79" font-family="Helvetica,sans-Serif" font-size="10.00" fill="#000000">Foam::UndulationRemovalModels</text>
<text text-anchor="start" x="208" y="-68" font-family="Helvetica,sans-Serif" font-size="10.00" fill="#000000">::NoUndulationRemoval::~NoUndulation</text>
<text text-anchor="middle" x="296" y="-57" font-family="Helvetica,sans-Serif" font-size="10.00" fill="#000000">Removal</text>
</a>
</g>
</g>
<!-- Node22&#45;&gt;Node23 -->
<g id="edge1" class="edge">
<title>Node22&#45;&gt;Node23</title>
<path fill="none" stroke="#191970" d="M164.126,-53.2455C172.5131,-54.3428 181.1161,-55.4685 189.713,-56.5933"/>
<polygon fill="#191970" stroke="#191970" points="189.4192,-60.0846 199.7888,-57.9116 190.3274,-53.1438 189.4192,-60.0846"/>
</g>
<!-- Node24 -->
<g id="node3" class="node">
<title>Node24</title>
<g id="a_node3"><a xlink:href="classFoam_1_1UndulationRemovalModels_1_1NoUndulationRemoval.html#a2014a52a75c56a93ef1a18fc059bca62" target="_top" xlink:title="Foam::UndulationRemovalModels\l::NoUndulationRemoval::calculate">
<polygon fill="none" stroke="#000000" points="213,-.5 213,-30.5 379,-30.5 379,-.5 213,-.5"/>
<text text-anchor="start" x="221" y="-18.5" font-family="Helvetica,sans-Serif" font-size="10.00" fill="#000000">Foam::UndulationRemovalModels</text>
<text text-anchor="middle" x="296" y="-7.5" font-family="Helvetica,sans-Serif" font-size="10.00" fill="#000000">::NoUndulationRemoval::calculate</text>
</a>
</g>
</g>
<!-- Node22&#45;&gt;Node24 -->
<g id="edge2" class="edge">
<title>Node22&#45;&gt;Node24</title>
<path fill="none" stroke="#191970" d="M164.126,-32.1383C176.6818,-30.5542 189.7214,-28.909 202.5,-27.2967"/>
<polygon fill="#191970" stroke="#191970" points="203.1948,-30.7369 212.678,-26.0126 202.3185,-23.792 203.1948,-30.7369"/>
</g>
</g>
</svg>
