<?xml version="1.0" encoding="UTF-8" standalone="no"?>
<!DOCTYPE svg PUBLIC "-//W3C//DTD SVG 1.1//EN"
 "http://www.w3.org/Graphics/SVG/1.1/DTD/svg11.dtd">
<!-- Generated by graphviz version 2.40.1 (20161225.0304)
 -->
<!-- Title: Foam::SurfaceTensionModels::NoSurfaceTension::clone Pages: 1 -->
<svg width="388pt" height="88pt"
 viewBox="0.00 0.00 388.00 88.00" xmlns="http://www.w3.org/2000/svg" xmlns:xlink="http://www.w3.org/1999/xlink">
<g id="graph0" class="graph" transform="scale(1 1) rotate(0) translate(4 84)">
<title>Foam::SurfaceTensionModels::NoSurfaceTension::clone</title>
<!-- Node22 -->
<g id="node1" class="node">
<title>Node22</title>
<polygon fill="#bfbfbf" stroke="#000000" points="0,-24.5 0,-54.5 147,-54.5 147,-24.5 0,-24.5"/>
<text text-anchor="start" x="8" y="-42.5" font-family="Helvetica,sans-Serif" font-size="10.00" fill="#000000">Foam::SurfaceTensionModels</text>
<text text-anchor="middle" x="73.5" y="-31.5" font-family="Helvetica,sans-Serif" font-size="10.00" fill="#000000">::NoSurfaceTension::clone</text>
</g>
<!-- Node23 -->
<g id="node2" class="node">
<title>Node23</title>
<g id="a_node2"><a xlink:href="classFoam_1_1SurfaceTensionModels_1_1NoSurfaceTension.html#ac8bedef48a5826588f3254c11ef1c759" target="_top" xlink:title="Foam::SurfaceTensionModels\l::NoSurfaceTension::~NoSurfaceTension">
<polygon fill="none" stroke="#000000" points="183,-49.5 183,-79.5 380,-79.5 380,-49.5 183,-49.5"/>
<text text-anchor="start" x="191" y="-67.5" font-family="Helvetica,sans-Serif" font-size="10.00" fill="#000000">Foam::SurfaceTensionModels</text>
<text text-anchor="middle" x="281.5" y="-56.5" font-family="Helvetica,sans-Serif" font-size="10.00" fill="#000000">::NoSurfaceTension::~NoSurfaceTension</text>
</a>
</g>
</g>
<!-- Node22&#45;&gt;Node23 -->
<g id="edge1" class="edge">
<title>Node22&#45;&gt;Node23</title>
<path fill="none" stroke="#191970" d="M147.1257,-48.3492C155.4414,-49.3487 164.0412,-50.3824 172.6853,-51.4213"/>
<polygon fill="#191970" stroke="#191970" points="172.4926,-54.9233 182.8389,-52.6417 173.328,-47.9733 172.4926,-54.9233"/>
</g>
<!-- Node24 -->
<g id="node3" class="node">
<title>Node24</title>
<g id="a_node3"><a xlink:href="classFoam_1_1SurfaceTensionModels_1_1NoSurfaceTension.html#a9b2748bc1ddc5e219ecd42c0cb0cddcd" target="_top" xlink:title="Foam::SurfaceTensionModels\l::NoSurfaceTension::calculate">
<polygon fill="none" stroke="#000000" points="207,-.5 207,-30.5 356,-30.5 356,-.5 207,-.5"/>
<text text-anchor="start" x="215" y="-18.5" font-family="Helvetica,sans-Serif" font-size="10.00" fill="#000000">Foam::SurfaceTensionModels</text>
<text text-anchor="middle" x="281.5" y="-7.5" font-family="Helvetica,sans-Serif" font-size="10.00" fill="#000000">::NoSurfaceTension::calculate</text>
</a>
</g>
</g>
<!-- Node22&#45;&gt;Node24 -->
<g id="edge2" class="edge">
<title>Node22&#45;&gt;Node24</title>
<path fill="none" stroke="#191970" d="M147.1257,-31.0047C163.1911,-29.151 180.3164,-27.175 196.7744,-25.276"/>
<polygon fill="#191970" stroke="#191970" points="197.3873,-28.7286 206.9202,-24.1054 196.5849,-21.7748 197.3873,-28.7286"/>
</g>
</g>
</svg>
