<?xml version="1.0" encoding="UTF-8" standalone="no"?>
<!DOCTYPE svg PUBLIC "-//W3C//DTD SVG 1.1//EN"
 "http://www.w3.org/Graphics/SVG/1.1/DTD/svg11.dtd">
<!-- Generated by graphviz version 2.40.1 (20161225.0304)
 -->
<!-- Title: Foam::FrontToFieldModels::CPT::clone Pages: 1 -->
<svg width="515pt" height="225pt"
 viewBox="0.00 0.00 515.00 225.00" xmlns="http://www.w3.org/2000/svg" xmlns:xlink="http://www.w3.org/1999/xlink">
<g id="graph0" class="graph" transform="scale(1 1) rotate(0) translate(4 221)">
<title>Foam::FrontToFieldModels::CPT::clone</title>
<!-- Node21 -->
<g id="node1" class="node">
<title>Node21</title>
<polygon fill="#bfbfbf" stroke="#000000" points="0,-93.5 0,-123.5 134,-123.5 134,-93.5 0,-93.5"/>
<text text-anchor="start" x="8" y="-111.5" font-family="Helvetica,sans-Serif" font-size="10.00" fill="#000000">Foam::FrontToFieldModels</text>
<text text-anchor="middle" x="67" y="-100.5" font-family="Helvetica,sans-Serif" font-size="10.00" fill="#000000">::CPT::clone</text>
</g>
<!-- Node22 -->
<g id="node2" class="node">
<title>Node22</title>
<g id="a_node2"><a xlink:href="classFoam_1_1FrontToFieldModels_1_1CPT.html#a4d20832e3ec799dd9b18c76c27083fc6" target="_top" xlink:title="Foam::FrontToFieldModels\l::CPT::~CPT">
<polygon fill="none" stroke="#000000" points="186.5,-186.5 186.5,-216.5 320.5,-216.5 320.5,-186.5 186.5,-186.5"/>
<text text-anchor="start" x="194.5" y="-204.5" font-family="Helvetica,sans-Serif" font-size="10.00" fill="#000000">Foam::FrontToFieldModels</text>
<text text-anchor="middle" x="253.5" y="-193.5" font-family="Helvetica,sans-Serif" font-size="10.00" fill="#000000">::CPT::~CPT</text>
</a>
</g>
</g>
<!-- Node21&#45;&gt;Node22 -->
<g id="edge1" class="edge">
<title>Node21&#45;&gt;Node22</title>
<path fill="none" stroke="#191970" d="M85.6734,-123.6331C105.5325,-139.0767 138.38,-162.8043 170,-177.5 174.1121,-179.4111 178.4098,-181.2043 182.793,-182.881"/>
<polygon fill="#191970" stroke="#191970" points="181.8915,-186.2762 192.4859,-186.3659 184.2598,-179.689 181.8915,-186.2762"/>
</g>
<!-- Node23 -->
<g id="node3" class="node">
<title>Node23</title>
<g id="a_node3"><a xlink:href="classFoam_1_1FrontToFieldModels_1_1CPT.html#a8c38f2d1f3cad1e29d337ad43ca05309" target="_top" xlink:title="Foam::FrontToFieldModels\l::CPT::IndicatorsConstruction">
<polygon fill="none" stroke="#000000" points="180,-137.5 180,-167.5 327,-167.5 327,-137.5 180,-137.5"/>
<text text-anchor="start" x="188" y="-155.5" font-family="Helvetica,sans-Serif" font-size="10.00" fill="#000000">Foam::FrontToFieldModels</text>
<text text-anchor="middle" x="253.5" y="-144.5" font-family="Helvetica,sans-Serif" font-size="10.00" fill="#000000">::CPT::IndicatorsConstruction</text>
</a>
</g>
</g>
<!-- Node21&#45;&gt;Node23 -->
<g id="edge2" class="edge">
<title>Node21&#45;&gt;Node23</title>
<path fill="none" stroke="#191970" d="M130.6611,-123.5192C146.478,-127.2508 163.5619,-131.2814 179.8154,-135.116"/>
<polygon fill="#191970" stroke="#191970" points="179.2729,-138.584 189.8094,-137.4738 180.8803,-131.771 179.2729,-138.584"/>
</g>
<!-- Node24 -->
<g id="node4" class="node">
<title>Node24</title>
<g id="a_node4"><a xlink:href="classFoam_1_1FrontToFieldModels_1_1CPT.html#a30ebffabafd2b102fd189269ffa3be2a" target="_top" xlink:title="Foam::FrontToFieldModels\l::CPT::collectFields">
<polygon fill="none" stroke="#000000" points="373,-71.5 373,-101.5 507,-101.5 507,-71.5 373,-71.5"/>
<text text-anchor="start" x="381" y="-89.5" font-family="Helvetica,sans-Serif" font-size="10.00" fill="#000000">Foam::FrontToFieldModels</text>
<text text-anchor="middle" x="440" y="-78.5" font-family="Helvetica,sans-Serif" font-size="10.00" fill="#000000">::CPT::collectFields</text>
</a>
</g>
</g>
<!-- Node21&#45;&gt;Node24 -->
<g id="edge3" class="edge">
<title>Node21&#45;&gt;Node24</title>
<path fill="none" stroke="#191970" d="M134.1157,-104.5414C198.3556,-100.7525 295.197,-95.0407 362.648,-91.0623"/>
<polygon fill="#191970" stroke="#191970" points="363.0184,-94.5466 372.795,-90.4638 362.6062,-87.5588 363.0184,-94.5466"/>
</g>
<!-- Node25 -->
<g id="node5" class="node">
<title>Node25</title>
<g id="a_node5"><a xlink:href="classFoam_1_1FrontToFieldModels_1_1CPT.html#a81f9b6cb7a4f16d31e87fbcff452800b" target="_top" xlink:title="Foam::FrontToFieldModels\l::CPT::initFields">
<polygon fill="none" stroke="#000000" points="186.5,-49.5 186.5,-79.5 320.5,-79.5 320.5,-49.5 186.5,-49.5"/>
<text text-anchor="start" x="194.5" y="-67.5" font-family="Helvetica,sans-Serif" font-size="10.00" fill="#000000">Foam::FrontToFieldModels</text>
<text text-anchor="middle" x="253.5" y="-56.5" font-family="Helvetica,sans-Serif" font-size="10.00" fill="#000000">::CPT::initFields</text>
</a>
</g>
</g>
<!-- Node21&#45;&gt;Node25 -->
<g id="edge4" class="edge">
<title>Node21&#45;&gt;Node25</title>
<path fill="none" stroke="#191970" d="M130.6611,-93.4808C146.478,-89.7492 163.5619,-85.7186 179.8154,-81.884"/>
<polygon fill="#191970" stroke="#191970" points="180.8803,-85.229 189.8094,-79.5262 179.2729,-78.416 180.8803,-85.229"/>
</g>
<!-- Node26 -->
<g id="node6" class="node">
<title>Node26</title>
<g id="a_node6"><a xlink:href="classFoam_1_1FrontToFieldModels_1_1CPT.html#a6a2bc39ec3cf7a842515a5661c9f4584" target="_top" xlink:title="Foam::FrontToFieldModels\l::CPT::initialAllocatingTheCPTList">
<polygon fill="none" stroke="#000000" points="170,-.5 170,-30.5 337,-30.5 337,-.5 170,-.5"/>
<text text-anchor="start" x="178" y="-18.5" font-family="Helvetica,sans-Serif" font-size="10.00" fill="#000000">Foam::FrontToFieldModels</text>
<text text-anchor="middle" x="253.5" y="-7.5" font-family="Helvetica,sans-Serif" font-size="10.00" fill="#000000">::CPT::initialAllocatingTheCPTList</text>
</a>
</g>
</g>
<!-- Node21&#45;&gt;Node26 -->
<g id="edge6" class="edge">
<title>Node21&#45;&gt;Node26</title>
<path fill="none" stroke="#191970" d="M86.1136,-93.3917C106.0654,-78.2366 138.7468,-55.1069 170,-40.5 174.9695,-38.1774 180.2059,-36.0113 185.5339,-34.0039"/>
<polygon fill="#191970" stroke="#191970" points="186.9418,-37.2178 195.1855,-30.5626 184.5908,-30.6244 186.9418,-37.2178"/>
</g>
<!-- Node25&#45;&gt;Node24 -->
<g id="edge5" class="edge">
<title>Node25&#45;&gt;Node24</title>
<path fill="none" stroke="#191970" d="M320.5673,-72.4114C334.2646,-74.0272 348.7822,-75.7397 362.8007,-77.3934"/>
<polygon fill="#191970" stroke="#191970" points="362.5601,-80.8892 372.9013,-78.5849 363.3802,-73.9374 362.5601,-80.8892"/>
</g>
</g>
</svg>
