<?xml version="1.0" encoding="UTF-8" standalone="no"?>
<!DOCTYPE svg PUBLIC "-//W3C//DTD SVG 1.1//EN"
 "http://www.w3.org/Graphics/SVG/1.1/DTD/svg11.dtd">
<!-- Generated by graphviz version 2.40.1 (20161225.0304)
 -->
<!-- Title: Foam::FrontTrackingCloud&lt; CloudType &gt; Pages: 1 -->
<svg width="218pt" height="479pt"
 viewBox="0.00 0.00 218.00 479.00" xmlns="http://www.w3.org/2000/svg" xmlns:xlink="http://www.w3.org/1999/xlink">
<g id="graph0" class="graph" transform="scale(1 1) rotate(0) translate(4 475)">
<title>Foam::FrontTrackingCloud&lt; CloudType &gt;</title>
<!-- Node3 -->
<g id="node1" class="node">
<title>Node3</title>
<polygon fill="#bfbfbf" stroke="#000000" points="8,-.5 8,-376.5 170,-376.5 170,-.5 8,-.5"/>
<text text-anchor="start" x="16" y="-364.5" font-family="Helvetica,sans-Serif" font-size="10.00" fill="#000000">Foam::FrontTrackingCloud</text>
<text text-anchor="middle" x="89" y="-353.5" font-family="Helvetica,sans-Serif" font-size="10.00" fill="#000000">&lt; CloudType &gt;</text>
<polyline fill="none" stroke="#000000" points="8,-346.5 170,-346.5 "/>
<text text-anchor="start" x="16" y="-334.5" font-family="Helvetica,sans-Serif" font-size="10.00" fill="#000000"># sTensionForceFromFT_</text>
<text text-anchor="start" x="16" y="-323.5" font-family="Helvetica,sans-Serif" font-size="10.00" fill="#000000"># pressureJumpAtTheInterface</text>
<text text-anchor="start" x="16" y="-312.5" font-family="Helvetica,sans-Serif" font-size="10.00" fill="#000000">FromFT_</text>
<text text-anchor="start" x="16" y="-301.5" font-family="Helvetica,sans-Serif" font-size="10.00" fill="#000000"># initialMakingFileOfTheBubbles_</text>
<text text-anchor="start" x="16" y="-290.5" font-family="Helvetica,sans-Serif" font-size="10.00" fill="#000000"># timeOld_</text>
<text text-anchor="start" x="16" y="-279.5" font-family="Helvetica,sans-Serif" font-size="10.00" fill="#000000"># magFlowVelocity_</text>
<text text-anchor="start" x="16" y="-268.5" font-family="Helvetica,sans-Serif" font-size="10.00" fill="#000000"># bDataL_</text>
<text text-anchor="start" x="16" y="-257.5" font-family="Helvetica,sans-Serif" font-size="10.00" fill="#000000"># frontMeshInputOption_</text>
<text text-anchor="start" x="16" y="-246.5" font-family="Helvetica,sans-Serif" font-size="10.00" fill="#000000"># lengthScaleOfTheMesh_</text>
<text text-anchor="start" x="16" y="-235.5" font-family="Helvetica,sans-Serif" font-size="10.00" fill="#000000"># minEdge_</text>
<text text-anchor="start" x="16" y="-224.5" font-family="Helvetica,sans-Serif" font-size="10.00" fill="#000000"># maxEdge_</text>
<text text-anchor="start" x="16" y="-213.5" font-family="Helvetica,sans-Serif" font-size="10.00" fill="#000000">and 11 more...</text>
<text text-anchor="start" x="16" y="-202.5" font-family="Helvetica,sans-Serif" font-size="10.00" fill="#000000">&#45; cloudCopyPtr_</text>
<polyline fill="none" stroke="#000000" points="8,-195.5 170,-195.5 "/>
<text text-anchor="start" x="16" y="-183.5" font-family="Helvetica,sans-Serif" font-size="10.00" fill="#000000">+ FrontTrackingCloud()</text>
<text text-anchor="start" x="16" y="-172.5" font-family="Helvetica,sans-Serif" font-size="10.00" fill="#000000">+ FrontTrackingCloud()</text>
<text text-anchor="start" x="16" y="-161.5" font-family="Helvetica,sans-Serif" font-size="10.00" fill="#000000">+ FrontTrackingCloud()</text>
<text text-anchor="start" x="16" y="-150.5" font-family="Helvetica,sans-Serif" font-size="10.00" fill="#000000">+ FrontTrackingCloud()</text>
<text text-anchor="start" x="16" y="-139.5" font-family="Helvetica,sans-Serif" font-size="10.00" fill="#000000">+ FrontTrackingCloud()</text>
<text text-anchor="start" x="16" y="-128.5" font-family="Helvetica,sans-Serif" font-size="10.00" fill="#000000">+ clone()</text>
<text text-anchor="start" x="16" y="-117.5" font-family="Helvetica,sans-Serif" font-size="10.00" fill="#000000">+ cloneBare()</text>
<text text-anchor="start" x="16" y="-106.5" font-family="Helvetica,sans-Serif" font-size="10.00" fill="#000000">+ ~FrontTrackingCloud()</text>
<text text-anchor="start" x="16" y="-95.5" font-family="Helvetica,sans-Serif" font-size="10.00" fill="#000000">+ cloudCopy()</text>
<text text-anchor="start" x="16" y="-84.5" font-family="Helvetica,sans-Serif" font-size="10.00" fill="#000000">+ updateDensityFromFT()</text>
<text text-anchor="start" x="16" y="-73.5" font-family="Helvetica,sans-Serif" font-size="10.00" fill="#000000">and 118 more...</text>
<text text-anchor="start" x="16" y="-62.5" font-family="Helvetica,sans-Serif" font-size="10.00" fill="#000000">+ getLineNoComment()</text>
<text text-anchor="start" x="16" y="-51.5" font-family="Helvetica,sans-Serif" font-size="10.00" fill="#000000">+ getLineNoComment()</text>
<text text-anchor="start" x="16" y="-40.5" font-family="Helvetica,sans-Serif" font-size="10.00" fill="#000000"># readInitialBubbles()</text>
<text text-anchor="start" x="16" y="-29.5" font-family="Helvetica,sans-Serif" font-size="10.00" fill="#000000"># setModels()</text>
<text text-anchor="start" x="16" y="-18.5" font-family="Helvetica,sans-Serif" font-size="10.00" fill="#000000"># readInitialBubbles()</text>
<text text-anchor="start" x="16" y="-7.5" font-family="Helvetica,sans-Serif" font-size="10.00" fill="#000000"># setModels()</text>
</g>
<!-- Node4 -->
<g id="node2" class="node">
<title>Node4</title>
<polygon fill="none" stroke="#bfbfbf" points="0,-413.5 0,-470.5 64,-470.5 64,-413.5 0,-413.5"/>
<text text-anchor="middle" x="32" y="-458.5" font-family="Helvetica,sans-Serif" font-size="10.00" fill="#000000">CloudType</text>
<polyline fill="none" stroke="#bfbfbf" points="0,-451.5 64,-451.5 "/>
<text text-anchor="middle" x="32" y="-439.5" font-family="Helvetica,sans-Serif" font-size="10.00" fill="#000000"> </text>
<polyline fill="none" stroke="#bfbfbf" points="0,-432.5 64,-432.5 "/>
<text text-anchor="middle" x="32" y="-420.5" font-family="Helvetica,sans-Serif" font-size="10.00" fill="#000000"> </text>
</g>
<!-- Node4&#45;&gt;Node3 -->
<g id="edge1" class="edge">
<title>Node4&#45;&gt;Node3</title>
<path fill="none" stroke="#191970" d="M35.6751,-403.3438C37.1035,-395.248 38.8117,-386.2035 40.7274,-376.5321"/>
<polygon fill="none" stroke="#191970" points="32.1888,-402.9681 33.9645,-413.4131 39.0899,-404.1406 32.1888,-402.9681"/>
</g>
<!-- Node4&#45;&gt;Node3 -->
<g id="edge3" class="edge">
<title>Node4&#45;&gt;Node3</title>
<path fill="none" stroke="#191970" d="M45.6343,-403.6163C47.8681,-395.4511 50.2529,-386.3121 52.7138,-376.5321"/>
<polygon fill="none" stroke="#191970" points="42.2172,-402.8397 42.8912,-413.4131 48.9579,-404.7272 42.2172,-402.8397"/>
</g>
<!-- Node5 -->
<g id="node3" class="node">
<title>Node5</title>
<polygon fill="none" stroke="#bfbfbf" points="82,-413.5 82,-470.5 210,-470.5 210,-413.5 82,-413.5"/>
<text text-anchor="middle" x="146" y="-458.5" font-family="Helvetica,sans-Serif" font-size="10.00" fill="#000000">FrontTrackingCloudName</text>
<polyline fill="none" stroke="#bfbfbf" points="82,-451.5 210,-451.5 "/>
<text text-anchor="middle" x="146" y="-439.5" font-family="Helvetica,sans-Serif" font-size="10.00" fill="#000000"> </text>
<polyline fill="none" stroke="#bfbfbf" points="82,-432.5 210,-432.5 "/>
<text text-anchor="middle" x="146" y="-420.5" font-family="Helvetica,sans-Serif" font-size="10.00" fill="#000000"> </text>
</g>
<!-- Node5&#45;&gt;Node3 -->
<g id="edge2" class="edge">
<title>Node5&#45;&gt;Node3</title>
<path fill="none" stroke="#191970" d="M132.3657,-403.6163C130.1319,-395.4511 127.7471,-386.3121 125.2862,-376.5321"/>
<polygon fill="none" stroke="#191970" points="129.0421,-404.7272 135.1088,-413.4131 135.7828,-402.8397 129.0421,-404.7272"/>
</g>
<!-- Node5&#45;&gt;Node3 -->
<g id="edge4" class="edge">
<title>Node5&#45;&gt;Node3</title>
<path fill="none" stroke="#191970" d="M142.3249,-403.3438C140.8965,-395.248 139.1883,-386.2035 137.2726,-376.5321"/>
<polygon fill="none" stroke="#191970" points="138.9101,-404.1406 144.0355,-413.4131 145.8112,-402.9681 138.9101,-404.1406"/>
</g>
</g>
</svg>
