<?xml version="1.0" encoding="UTF-8" standalone="no"?>
<!DOCTYPE svg PUBLIC "-//W3C//DTD SVG 1.1//EN"
 "http://www.w3.org/Graphics/SVG/1.1/DTD/svg11.dtd">
<!-- Generated by graphviz version 2.40.1 (20161225.0304)
 -->
<!-- Title: Foam::FrontTrackingParcel::cellValueSourceCorrection Pages: 1 -->
<svg width="317pt" height="88pt"
 viewBox="0.00 0.00 317.00 88.00" xmlns="http://www.w3.org/2000/svg" xmlns:xlink="http://www.w3.org/1999/xlink">
<g id="graph0" class="graph" transform="scale(1 1) rotate(0) translate(4 84)">
<title>Foam::FrontTrackingParcel::cellValueSourceCorrection</title>
<!-- Node55 -->
<g id="node1" class="node">
<title>Node55</title>
<polygon fill="#bfbfbf" stroke="#000000" points="0,-24.5 0,-54.5 138,-54.5 138,-24.5 0,-24.5"/>
<text text-anchor="start" x="8" y="-42.5" font-family="Helvetica,sans-Serif" font-size="10.00" fill="#000000">Foam::FrontTrackingParcel</text>
<text text-anchor="middle" x="69" y="-31.5" font-family="Helvetica,sans-Serif" font-size="10.00" fill="#000000">::cellValueSourceCorrection</text>
</g>
<!-- Node56 -->
<g id="node2" class="node">
<title>Node56</title>
<g id="a_node2"><a xlink:href="classFoam_1_1FrontTrackingParcel.html#ac4e991ea63aecca2368957c695ca2aa6" target="_top" xlink:title="Foam::FrontTrackingParcel\l::FrontTrackingParcel">
<polygon fill="none" stroke="#000000" points="174,-49.5 174,-79.5 309,-79.5 309,-49.5 174,-49.5"/>
<text text-anchor="start" x="182" y="-67.5" font-family="Helvetica,sans-Serif" font-size="10.00" fill="#000000">Foam::FrontTrackingParcel</text>
<text text-anchor="middle" x="241.5" y="-56.5" font-family="Helvetica,sans-Serif" font-size="10.00" fill="#000000">::FrontTrackingParcel</text>
</a>
</g>
</g>
<!-- Node55&#45;&gt;Node56 -->
<g id="edge1" class="edge">
<title>Node55&#45;&gt;Node56</title>
<path fill="none" stroke="#191970" d="M148.1379,-50.9693C156.6844,-52.2079 165.3246,-53.4601 173.7199,-54.6768"/>
<polygon fill="#191970" stroke="#191970" points="148.5671,-47.495 138.1684,-49.5244 147.563,-54.4226 148.5671,-47.495"/>
</g>
<!-- Node57 -->
<g id="node3" class="node">
<title>Node57</title>
<g id="a_node3"><a xlink:href="classFoam_1_1FrontTrackingParcel_1_1iNew.html#aaf5b4c66182903f2836a251ac0633395" target="_top" xlink:title="Foam::FrontTrackingParcel\l::iNew::operator()">
<polygon fill="none" stroke="#000000" points="174,-.5 174,-30.5 309,-30.5 309,-.5 174,-.5"/>
<text text-anchor="start" x="182" y="-18.5" font-family="Helvetica,sans-Serif" font-size="10.00" fill="#000000">Foam::FrontTrackingParcel</text>
<text text-anchor="middle" x="241.5" y="-7.5" font-family="Helvetica,sans-Serif" font-size="10.00" fill="#000000">::iNew::operator()</text>
</a>
</g>
</g>
<!-- Node55&#45;&gt;Node57 -->
<g id="edge2" class="edge">
<title>Node55&#45;&gt;Node57</title>
<path fill="none" stroke="#191970" d="M148.1379,-28.4895C156.6844,-27.3004 165.3246,-26.0983 173.7199,-24.9303"/>
<polygon fill="#191970" stroke="#191970" points="147.5907,-25.0318 138.1684,-29.8766 148.5553,-31.9651 147.5907,-25.0318"/>
</g>
</g>
</svg>
