<?xml version="1.0" encoding="UTF-8" standalone="no"?>
<!DOCTYPE svg PUBLIC "-//W3C//DTD SVG 1.1//EN"
 "http://www.w3.org/Graphics/SVG/1.1/DTD/svg11.dtd">
<!-- Generated by graphviz version 2.40.1 (20161225.0304)
 -->
<!-- Title: Foam::FrontTrackingCloud::adjustingTheCloudDataAfterChanges Pages: 1 -->
<svg width="700pt" height="88pt"
 viewBox="0.00 0.00 700.00 88.00" xmlns="http://www.w3.org/2000/svg" xmlns:xlink="http://www.w3.org/1999/xlink">
<g id="graph0" class="graph" transform="scale(1 1) rotate(0) translate(4 84)">
<title>Foam::FrontTrackingCloud::adjustingTheCloudDataAfterChanges</title>
<!-- Node28 -->
<g id="node1" class="node">
<title>Node28</title>
<polygon fill="#bfbfbf" stroke="#000000" points="0,-27.5 0,-57.5 185,-57.5 185,-27.5 0,-27.5"/>
<text text-anchor="start" x="8" y="-45.5" font-family="Helvetica,sans-Serif" font-size="10.00" fill="#000000">Foam::FrontTrackingCloud</text>
<text text-anchor="middle" x="92.5" y="-34.5" font-family="Helvetica,sans-Serif" font-size="10.00" fill="#000000">::adjustingTheCloudDataAfterChanges</text>
</g>
<!-- Node29 -->
<g id="node2" class="node">
<title>Node29</title>
<g id="a_node2"><a xlink:href="classFoam_1_1FrontTrackingCloud.html#af71f0286cb6f689c9aa0e392b4ca8eca" target="_top" xlink:title="Foam::FrontTrackingCloud\l::frontRefining">
<polygon fill="none" stroke="#000000" points="221,-27.5 221,-57.5 354,-57.5 354,-27.5 221,-27.5"/>
<text text-anchor="start" x="229" y="-45.5" font-family="Helvetica,sans-Serif" font-size="10.00" fill="#000000">Foam::FrontTrackingCloud</text>
<text text-anchor="middle" x="287.5" y="-34.5" font-family="Helvetica,sans-Serif" font-size="10.00" fill="#000000">::frontRefining</text>
</a>
</g>
</g>
<!-- Node28&#45;&gt;Node29 -->
<g id="edge1" class="edge">
<title>Node28&#45;&gt;Node29</title>
<path fill="none" stroke="#191970" d="M185.1458,-42.5C193.7389,-42.5 202.3824,-42.5 210.8083,-42.5"/>
<polygon fill="#191970" stroke="#191970" points="210.9604,-46.0001 220.9603,-42.5 210.9603,-39.0001 210.9604,-46.0001"/>
</g>
<!-- Node30 -->
<g id="node3" class="node">
<title>Node30</title>
<g id="a_node3"><a xlink:href="classFoam_1_1elementInfo.html#a3318a932982b91d66075a89a2a860212" target="_top" xlink:title="Foam::elementInfo::\lfindPointsOrder">
<polygon fill="none" stroke="#000000" points="573.5,-49.5 573.5,-79.5 677.5,-79.5 677.5,-49.5 573.5,-49.5"/>
<text text-anchor="start" x="581.5" y="-67.5" font-family="Helvetica,sans-Serif" font-size="10.00" fill="#000000">Foam::elementInfo::</text>
<text text-anchor="middle" x="625.5" y="-56.5" font-family="Helvetica,sans-Serif" font-size="10.00" fill="#000000">findPointsOrder</text>
</a>
</g>
</g>
<!-- Node29&#45;&gt;Node30 -->
<g id="edge2" class="edge">
<title>Node29&#45;&gt;Node30</title>
<path fill="none" stroke="#191970" d="M354.2779,-46.8465C415.022,-50.8002 503.9885,-56.591 563.2699,-60.4495"/>
<polygon fill="#191970" stroke="#191970" points="563.0429,-63.9421 573.2492,-61.0991 563.4977,-56.9568 563.0429,-63.9421"/>
</g>
<!-- Node31 -->
<g id="node4" class="node">
<title>Node31</title>
<g id="a_node4"><a xlink:href="classFoam_1_1FrontTrackingCloud.html#af6a86830e32ecf4700c0dfe908f8455b" target="_top" xlink:title="Foam::FrontTrackingCloud\l::frontCoarsening">
<polygon fill="none" stroke="#000000" points="390,-5.5 390,-35.5 523,-35.5 523,-5.5 390,-5.5"/>
<text text-anchor="start" x="398" y="-23.5" font-family="Helvetica,sans-Serif" font-size="10.00" fill="#000000">Foam::FrontTrackingCloud</text>
<text text-anchor="middle" x="456.5" y="-12.5" font-family="Helvetica,sans-Serif" font-size="10.00" fill="#000000">::frontCoarsening</text>
</a>
</g>
</g>
<!-- Node29&#45;&gt;Node31 -->
<g id="edge3" class="edge">
<title>Node29&#45;&gt;Node31</title>
<path fill="none" stroke="#191970" d="M354.2933,-33.805C362.7151,-32.7087 371.3826,-31.5804 379.9406,-30.4663"/>
<polygon fill="#191970" stroke="#191970" points="380.4507,-33.9295 389.9152,-29.1678 379.547,-26.9881 380.4507,-33.9295"/>
</g>
<!-- Node31&#45;&gt;Node30 -->
<g id="edge4" class="edge">
<title>Node31&#45;&gt;Node30</title>
<path fill="none" stroke="#191970" d="M514.1875,-35.5192C530.104,-39.6632 547.4363,-44.1757 563.5817,-48.3792"/>
<polygon fill="#191970" stroke="#191970" points="562.8985,-51.818 573.4578,-50.9505 564.6623,-45.0438 562.8985,-51.818"/>
</g>
<!-- Node32 -->
<g id="node5" class="node">
<title>Node32</title>
<g id="a_node5"><a xlink:href="classFoam_1_1FrontTrackingCloud.html#acd0406a159d2deeccb2b112fdbb9d3ca" target="_top" xlink:title="Foam::FrontTrackingCloud\l::isElementSmall">
<polygon fill="none" stroke="#000000" points="559,-.5 559,-30.5 692,-30.5 692,-.5 559,-.5"/>
<text text-anchor="start" x="567" y="-18.5" font-family="Helvetica,sans-Serif" font-size="10.00" fill="#000000">Foam::FrontTrackingCloud</text>
<text text-anchor="middle" x="625.5" y="-7.5" font-family="Helvetica,sans-Serif" font-size="10.00" fill="#000000">::isElementSmall</text>
</a>
</g>
</g>
<!-- Node31&#45;&gt;Node32 -->
<g id="edge5" class="edge">
<title>Node31&#45;&gt;Node32</title>
<path fill="none" stroke="#191970" d="M523.2933,-18.5239C531.6236,-18.2774 540.1942,-18.0238 548.6615,-17.7733"/>
<polygon fill="#191970" stroke="#191970" points="549.0231,-21.2643 558.9152,-17.47 548.816,-14.2673 549.0231,-21.2643"/>
</g>
</g>
</svg>
