<?xml version="1.0" encoding="UTF-8" standalone="no"?>
<!DOCTYPE svg PUBLIC "-//W3C//DTD SVG 1.1//EN"
 "http://www.w3.org/Graphics/SVG/1.1/DTD/svg11.dtd">
<!-- Generated by graphviz version 2.40.1 (20161225.0304)
 -->
<!-- Title: Foam::FrontTrackingParcel::calc Pages: 1 -->
<svg width="485pt" height="61pt"
 viewBox="0.00 0.00 485.00 61.00" xmlns="http://www.w3.org/2000/svg" xmlns:xlink="http://www.w3.org/1999/xlink">
<g id="graph0" class="graph" transform="scale(1 1) rotate(0) translate(4 57)">
<title>Foam::FrontTrackingParcel::calc</title>
<!-- Node46 -->
<g id="node1" class="node">
<title>Node46</title>
<polygon fill="#bfbfbf" stroke="#000000" points="0,-.5 0,-30.5 135,-30.5 135,-.5 0,-.5"/>
<text text-anchor="start" x="8" y="-18.5" font-family="Helvetica,sans-Serif" font-size="10.00" fill="#000000">Foam::FrontTrackingParcel</text>
<text text-anchor="middle" x="67.5" y="-7.5" font-family="Helvetica,sans-Serif" font-size="10.00" fill="#000000">::calc</text>
</g>
<!-- Node47 -->
<g id="node2" class="node">
<title>Node47</title>
<g id="a_node2"><a xlink:href="classFoam_1_1FrontTrackingParcel.html#a2de8f35abf75d8eaba87b1eb0c577fad" target="_top" xlink:title="Foam::FrontTrackingParcel\l::setCellValues">
<polygon fill="none" stroke="#000000" points="171,-22.5 171,-52.5 306,-52.5 306,-22.5 171,-22.5"/>
<text text-anchor="start" x="179" y="-40.5" font-family="Helvetica,sans-Serif" font-size="10.00" fill="#000000">Foam::FrontTrackingParcel</text>
<text text-anchor="middle" x="238.5" y="-29.5" font-family="Helvetica,sans-Serif" font-size="10.00" fill="#000000">::setCellValues</text>
</a>
</g>
</g>
<!-- Node46&#45;&gt;Node47 -->
<g id="edge1" class="edge">
<title>Node46&#45;&gt;Node47</title>
<path fill="none" stroke="#191970" d="M145.0998,-25.4836C153.692,-26.589 162.3915,-27.7083 170.8472,-28.7961"/>
<polygon fill="#191970" stroke="#191970" points="145.4486,-21.9997 135.0837,-24.195 144.5553,-28.9425 145.4486,-21.9997"/>
</g>
<!-- Node48 -->
<g id="node3" class="node">
<title>Node48</title>
<g id="a_node3"><a xlink:href="classFoam_1_1FrontTrackingParcel_1_1iNew.html#aaf5b4c66182903f2836a251ac0633395" target="_top" xlink:title="Foam::FrontTrackingParcel\l::iNew::operator()">
<polygon fill="none" stroke="#000000" points="342,-.5 342,-30.5 477,-30.5 477,-.5 342,-.5"/>
<text text-anchor="start" x="350" y="-18.5" font-family="Helvetica,sans-Serif" font-size="10.00" fill="#000000">Foam::FrontTrackingParcel</text>
<text text-anchor="middle" x="409.5" y="-7.5" font-family="Helvetica,sans-Serif" font-size="10.00" fill="#000000">::iNew::operator()</text>
</a>
</g>
</g>
<!-- Node46&#45;&gt;Node48 -->
<g id="edge3" class="edge">
<title>Node46&#45;&gt;Node48</title>
<path fill="none" stroke="#191970" d="M145.2854,-13.8349C153.9606,-13.6974 162.6686,-13.5805 171,-13.5 230.9972,-12.9204 246.0028,-12.9204 306,-13.5 317.5915,-13.612 329.9121,-13.7945 341.8587,-14.0049"/>
<polygon fill="#191970" stroke="#191970" points="145.0812,-10.3378 135.1413,-14.0049 145.1985,-17.3368 145.0812,-10.3378"/>
</g>
<!-- Node47&#45;&gt;Node48 -->
<g id="edge2" class="edge">
<title>Node47&#45;&gt;Node48</title>
<path fill="none" stroke="#191970" d="M316.0998,-27.5164C324.692,-26.411 333.3915,-25.2917 341.8472,-24.2039"/>
<polygon fill="#191970" stroke="#191970" points="315.5553,-24.0575 306.0837,-28.805 316.4486,-31.0003 315.5553,-24.0575"/>
</g>
</g>
</svg>
