<?xml version="1.0" encoding="UTF-8" standalone="no"?>
<!DOCTYPE svg PUBLIC "-//W3C//DTD SVG 1.1//EN"
 "http://www.w3.org/Graphics/SVG/1.1/DTD/svg11.dtd">
<!-- Generated by graphviz version 2.40.1 (20161225.0304)
 -->
<!-- Title: Foam::FrontToFieldModels::NoFrontToField::clone Pages: 1 -->
<svg width="348pt" height="88pt"
 viewBox="0.00 0.00 348.00 88.00" xmlns="http://www.w3.org/2000/svg" xmlns:xlink="http://www.w3.org/1999/xlink">
<g id="graph0" class="graph" transform="scale(1 1) rotate(0) translate(4 84)">
<title>Foam::FrontToFieldModels::NoFrontToField::clone</title>
<!-- Node22 -->
<g id="node1" class="node">
<title>Node22</title>
<polygon fill="#bfbfbf" stroke="#000000" points="0,-24.5 0,-54.5 134,-54.5 134,-24.5 0,-24.5"/>
<text text-anchor="start" x="8" y="-42.5" font-family="Helvetica,sans-Serif" font-size="10.00" fill="#000000">Foam::FrontToFieldModels</text>
<text text-anchor="middle" x="67" y="-31.5" font-family="Helvetica,sans-Serif" font-size="10.00" fill="#000000">::NoFrontToField::clone</text>
</g>
<!-- Node23 -->
<g id="node2" class="node">
<title>Node23</title>
<g id="a_node2"><a xlink:href="classFoam_1_1FrontToFieldModels_1_1NoFrontToField.html#af3c7e4d4dc3fffbce226f590d171f252" target="_top" xlink:title="Foam::FrontToFieldModels\l::NoFrontToField::~NoFrontToField">
<polygon fill="none" stroke="#000000" points="170,-49.5 170,-79.5 340,-79.5 340,-49.5 170,-49.5"/>
<text text-anchor="start" x="178" y="-67.5" font-family="Helvetica,sans-Serif" font-size="10.00" fill="#000000">Foam::FrontToFieldModels</text>
<text text-anchor="middle" x="255" y="-56.5" font-family="Helvetica,sans-Serif" font-size="10.00" fill="#000000">::NoFrontToField::~NoFrontToField</text>
</a>
</g>
</g>
<!-- Node22&#45;&gt;Node23 -->
<g id="edge1" class="edge">
<title>Node22&#45;&gt;Node23</title>
<path fill="none" stroke="#191970" d="M134.0761,-48.4197C142.4133,-49.5284 151.0591,-50.6781 159.7195,-51.8297"/>
<polygon fill="#191970" stroke="#191970" points="159.5008,-55.3314 169.875,-53.1802 160.4236,-48.3925 159.5008,-55.3314"/>
</g>
<!-- Node24 -->
<g id="node3" class="node">
<title>Node24</title>
<g id="a_node3"><a xlink:href="classFoam_1_1FrontToFieldModels_1_1NoFrontToField.html#a02cb174d3171c5d71c38d1718f4bed23" target="_top" xlink:title="Foam::FrontToFieldModels\l::NoFrontToField::calculate">
<polygon fill="none" stroke="#000000" points="187.5,-.5 187.5,-30.5 322.5,-30.5 322.5,-.5 187.5,-.5"/>
<text text-anchor="start" x="195.5" y="-18.5" font-family="Helvetica,sans-Serif" font-size="10.00" fill="#000000">Foam::FrontToFieldModels</text>
<text text-anchor="middle" x="255" y="-7.5" font-family="Helvetica,sans-Serif" font-size="10.00" fill="#000000">::NoFrontToField::calculate</text>
</a>
</g>
</g>
<!-- Node22&#45;&gt;Node24 -->
<g id="edge2" class="edge">
<title>Node22&#45;&gt;Node24</title>
<path fill="none" stroke="#191970" d="M134.0761,-30.9371C147.9923,-29.1606 162.7684,-27.2742 177.0365,-25.4528"/>
<polygon fill="#191970" stroke="#191970" points="177.8403,-28.8787 187.3165,-24.1404 176.9538,-21.935 177.8403,-28.8787"/>
</g>
</g>
</svg>
