<?xml version="1.0" encoding="UTF-8" standalone="no"?>
<!DOCTYPE svg PUBLIC "-//W3C//DTD SVG 1.1//EN"
 "http://www.w3.org/Graphics/SVG/1.1/DTD/svg11.dtd">
<!-- Generated by graphviz version 2.40.1 (20161225.0304)
 -->
<!-- Title: Foam::elementInfo::updateElementSurfaceArea Pages: 1 -->
<svg width="524pt" height="100pt"
 viewBox="0.00 0.00 524.00 99.50" xmlns="http://www.w3.org/2000/svg" xmlns:xlink="http://www.w3.org/1999/xlink">
<g id="graph0" class="graph" transform="scale(1 1) rotate(0) translate(4 95.5)">
<title>Foam::elementInfo::updateElementSurfaceArea</title>
<!-- Node22 -->
<g id="node1" class="node">
<title>Node22</title>
<polygon fill="#bfbfbf" stroke="#000000" points="0,-33 0,-63 136,-63 136,-33 0,-33"/>
<text text-anchor="start" x="8" y="-51" font-family="Helvetica,sans-Serif" font-size="10.00" fill="#000000">Foam::elementInfo::</text>
<text text-anchor="middle" x="68" y="-40" font-family="Helvetica,sans-Serif" font-size="10.00" fill="#000000">updateElementSurfaceArea</text>
</g>
<!-- Node23 -->
<g id="node2" class="node">
<title>Node23</title>
<g id="a_node2"><a xlink:href="classFoam_1_1bubbleData.html#aeca8b64dfc956cf92b07fc98de0b1fb3" target="_top" xlink:title="Foam::bubbleData::update\lBubbleSurface">
<polygon fill="none" stroke="#000000" points="172,-33 172,-63 304,-63 304,-33 172,-33"/>
<text text-anchor="start" x="180" y="-51" font-family="Helvetica,sans-Serif" font-size="10.00" fill="#000000">Foam::bubbleData::update</text>
<text text-anchor="middle" x="238" y="-40" font-family="Helvetica,sans-Serif" font-size="10.00" fill="#000000">BubbleSurface</text>
</a>
</g>
</g>
<!-- Node22&#45;&gt;Node23 -->
<g id="edge1" class="edge">
<title>Node22&#45;&gt;Node23</title>
<path fill="none" stroke="#191970" d="M146.4283,-48C154.8958,-48 163.4508,-48 171.7544,-48"/>
<polygon fill="#191970" stroke="#191970" points="146.166,-44.5001 136.166,-48 146.1659,-51.5001 146.166,-44.5001"/>
</g>
<!-- Node24 -->
<g id="node3" class="node">
<title>Node24</title>
<g id="a_node3"><a xlink:href="classFoam_1_1FrontTrackingCloud.html#a5719f87b5899aa9675daf150a997f37a" target="_top" xlink:title="Foam::FrontTrackingCloud\l::constructingInitialFront">
<polygon fill="none" stroke="#000000" points="361.5,-61 361.5,-91 494.5,-91 494.5,-61 361.5,-61"/>
<text text-anchor="start" x="369.5" y="-79" font-family="Helvetica,sans-Serif" font-size="10.00" fill="#000000">Foam::FrontTrackingCloud</text>
<text text-anchor="middle" x="428" y="-68" font-family="Helvetica,sans-Serif" font-size="10.00" fill="#000000">::constructingInitialFront</text>
</a>
</g>
</g>
<!-- Node23&#45;&gt;Node24 -->
<g id="edge2" class="edge">
<title>Node23&#45;&gt;Node24</title>
<path fill="none" stroke="#191970" d="M314.3116,-59.2459C329.9014,-61.5434 346.1902,-63.9438 361.408,-66.1864"/>
<polygon fill="#191970" stroke="#191970" points="314.5895,-55.7492 304.1861,-57.7537 313.5689,-62.6744 314.5895,-55.7492"/>
</g>
<!-- Node25 -->
<g id="node4" class="node">
<title>Node25</title>
<g id="a_node4"><a xlink:href="classFoam_1_1FrontTrackingCloud.html#a356c54185b3b13a1b75a8400e2676cf7" target="_top" xlink:title="Foam::FrontTrackingCloud\l::readDataOfTheFrontsAtTheCurrent\lTimeIntimeName">
<polygon fill="none" stroke="#000000" points="340,-.5 340,-41.5 516,-41.5 516,-.5 340,-.5"/>
<text text-anchor="start" x="348" y="-29.5" font-family="Helvetica,sans-Serif" font-size="10.00" fill="#000000">Foam::FrontTrackingCloud</text>
<text text-anchor="start" x="348" y="-18.5" font-family="Helvetica,sans-Serif" font-size="10.00" fill="#000000">::readDataOfTheFrontsAtTheCurrent</text>
<text text-anchor="middle" x="428" y="-7.5" font-family="Helvetica,sans-Serif" font-size="10.00" fill="#000000">TimeIntimeName</text>
</a>
</g>
</g>
<!-- Node23&#45;&gt;Node25 -->
<g id="edge3" class="edge">
<title>Node23&#45;&gt;Node25</title>
<path fill="none" stroke="#191970" d="M314.3553,-37.1495C322.7907,-35.9508 331.4303,-34.7231 339.9937,-33.5062"/>
<polygon fill="#191970" stroke="#191970" points="313.5941,-33.7224 304.1861,-38.5946 314.579,-40.6528 313.5941,-33.7224"/>
</g>
</g>
</svg>
