<?xml version="1.0" encoding="UTF-8" standalone="no"?>
<!DOCTYPE svg PUBLIC "-//W3C//DTD SVG 1.1//EN"
 "http://www.w3.org/Graphics/SVG/1.1/DTD/svg11.dtd">
<!-- Generated by graphviz version 2.40.1 (20161225.0304)
 -->
<!-- Title: Foam::FrontTrackingParcel::moveDistance Pages: 1 -->
<svg width="659pt" height="101pt"
 viewBox="0.00 0.00 659.00 101.00" xmlns="http://www.w3.org/2000/svg" xmlns:xlink="http://www.w3.org/1999/xlink">
<g id="graph0" class="graph" transform="scale(1 1) rotate(0) translate(4 97)">
<title>Foam::FrontTrackingParcel::moveDistance</title>
<!-- Node94 -->
<g id="node1" class="node">
<title>Node94</title>
<polygon fill="#bfbfbf" stroke="#000000" points="0,-.5 0,-30.5 135,-30.5 135,-.5 0,-.5"/>
<text text-anchor="start" x="8" y="-18.5" font-family="Helvetica,sans-Serif" font-size="10.00" fill="#000000">Foam::FrontTrackingParcel</text>
<text text-anchor="middle" x="67.5" y="-7.5" font-family="Helvetica,sans-Serif" font-size="10.00" fill="#000000">::moveDistance</text>
</g>
<!-- Node95 -->
<g id="node2" class="node">
<title>Node95</title>
<g id="a_node2"><a xlink:href="classFoam_1_1FrontTrackingParcel.html#a83bc1f2780071297ff3222884de3c940" target="_top" xlink:title="Foam::FrontTrackingParcel\l::move">
<polygon fill="none" stroke="#000000" points="171,-22.5 171,-52.5 306,-52.5 306,-22.5 171,-22.5"/>
<text text-anchor="start" x="179" y="-40.5" font-family="Helvetica,sans-Serif" font-size="10.00" fill="#000000">Foam::FrontTrackingParcel</text>
<text text-anchor="middle" x="238.5" y="-29.5" font-family="Helvetica,sans-Serif" font-size="10.00" fill="#000000">::move</text>
</a>
</g>
</g>
<!-- Node94&#45;&gt;Node95 -->
<g id="edge1" class="edge">
<title>Node94&#45;&gt;Node95</title>
<path fill="none" stroke="#191970" d="M145.0998,-25.4836C153.692,-26.589 162.3915,-27.7083 170.8472,-28.7961"/>
<polygon fill="#191970" stroke="#191970" points="145.4486,-21.9997 135.0837,-24.195 144.5553,-28.9425 145.4486,-21.9997"/>
</g>
<!-- Node98 -->
<g id="node5" class="node">
<title>Node98</title>
<g id="a_node5"><a xlink:href="classFoam_1_1FrontTrackingParcel_1_1iNew.html#aaf5b4c66182903f2836a251ac0633395" target="_top" xlink:title="Foam::FrontTrackingParcel\l::iNew::operator()">
<polygon fill="none" stroke="#000000" points="516,-13.5 516,-43.5 651,-43.5 651,-13.5 516,-13.5"/>
<text text-anchor="start" x="524" y="-31.5" font-family="Helvetica,sans-Serif" font-size="10.00" fill="#000000">Foam::FrontTrackingParcel</text>
<text text-anchor="middle" x="583.5" y="-20.5" font-family="Helvetica,sans-Serif" font-size="10.00" fill="#000000">::iNew::operator()</text>
</a>
</g>
</g>
<!-- Node94&#45;&gt;Node98 -->
<g id="edge6" class="edge">
<title>Node94&#45;&gt;Node98</title>
<path fill="none" stroke="#191970" d="M145.2825,-13.0024C153.9582,-12.7961 162.6672,-12.6207 171,-12.5 230.9937,-11.6307 246.0249,-10.7724 306,-12.5 377.7527,-14.5668 459.8117,-19.6338 515.9745,-23.5166"/>
<polygon fill="#191970" stroke="#191970" points="145.0467,-9.5071 135.1379,-13.2574 145.2227,-16.5049 145.0467,-9.5071"/>
</g>
<!-- Node96 -->
<g id="node3" class="node">
<title>Node96</title>
<g id="a_node3"><a xlink:href="classFoam_1_1FrontTrackingParcel.html#ac23d4a43d6e25f7adac93cecb93946a4" target="_top" xlink:title="Foam::FrontTrackingParcel\l::cellValueSourceCorrection">
<polygon fill="none" stroke="#000000" points="342,-60.5 342,-90.5 480,-90.5 480,-60.5 342,-60.5"/>
<text text-anchor="start" x="350" y="-78.5" font-family="Helvetica,sans-Serif" font-size="10.00" fill="#000000">Foam::FrontTrackingParcel</text>
<text text-anchor="middle" x="411" y="-67.5" font-family="Helvetica,sans-Serif" font-size="10.00" fill="#000000">::cellValueSourceCorrection</text>
</a>
</g>
</g>
<!-- Node95&#45;&gt;Node96 -->
<g id="edge2" class="edge">
<title>Node95&#45;&gt;Node96</title>
<path fill="none" stroke="#191970" d="M316.1073,-54.5961C324.9629,-56.5469 333.9412,-58.5247 342.6638,-60.4462"/>
<polygon fill="#191970" stroke="#191970" points="316.7003,-51.1429 306.1815,-52.4095 315.1943,-57.979 316.7003,-51.1429"/>
</g>
<!-- Node95&#45;&gt;Node98 -->
<g id="edge5" class="edge">
<title>Node95&#45;&gt;Node98</title>
<path fill="none" stroke="#191970" d="M316.4378,-35.4668C376.4751,-33.9006 458.6295,-31.7575 515.9057,-30.2633"/>
<polygon fill="#191970" stroke="#191970" points="316.1546,-31.9729 306.2493,-35.7326 316.3372,-38.9706 316.1546,-31.9729"/>
</g>
<!-- Node97 -->
<g id="node4" class="node">
<title>Node97</title>
<g id="a_node4"><a xlink:href="classFoam_1_1FrontTrackingParcel.html#ac4e991ea63aecca2368957c695ca2aa6" target="_top" xlink:title="Foam::FrontTrackingParcel\l::FrontTrackingParcel">
<polygon fill="none" stroke="#000000" points="516,-62.5 516,-92.5 651,-92.5 651,-62.5 516,-62.5"/>
<text text-anchor="start" x="524" y="-80.5" font-family="Helvetica,sans-Serif" font-size="10.00" fill="#000000">Foam::FrontTrackingParcel</text>
<text text-anchor="middle" x="583.5" y="-69.5" font-family="Helvetica,sans-Serif" font-size="10.00" fill="#000000">::FrontTrackingParcel</text>
</a>
</g>
</g>
<!-- Node96&#45;&gt;Node97 -->
<g id="edge3" class="edge">
<title>Node96&#45;&gt;Node97</title>
<path fill="none" stroke="#191970" d="M490.4166,-76.4208C498.8722,-76.5188 507.4159,-76.6179 515.7199,-76.7141"/>
<polygon fill="#191970" stroke="#191970" points="490.2084,-72.9182 480.1684,-76.302 490.1271,-79.9177 490.2084,-72.9182"/>
</g>
<!-- Node96&#45;&gt;Node98 -->
<g id="edge4" class="edge">
<title>Node96&#45;&gt;Node98</title>
<path fill="none" stroke="#191970" d="M476.0419,-57.7784C493.2797,-53.0818 511.7225,-48.0568 528.377,-43.519"/>
<polygon fill="#191970" stroke="#191970" points="474.7825,-54.4939 466.0544,-60.4997 476.6227,-61.2477 474.7825,-54.4939"/>
</g>
</g>
</svg>
