<?xml version="1.0" encoding="UTF-8" standalone="no"?>
<!DOCTYPE svg PUBLIC "-//W3C//DTD SVG 1.1//EN"
 "http://www.w3.org/Graphics/SVG/1.1/DTD/svg11.dtd">
<!-- Generated by graphviz version 2.40.1 (20161225.0304)
 -->
<!-- Title: Foam::FrontTrackingCloud::readDataOfTheFrontsAtTheCurrentTimeIntimeName Pages: 1 -->
<svg width="582pt" height="313pt"
 viewBox="0.00 0.00 582.00 313.00" xmlns="http://www.w3.org/2000/svg" xmlns:xlink="http://www.w3.org/1999/xlink">
<g id="graph0" class="graph" transform="scale(1 1) rotate(0) translate(4 309)">
<title>Foam::FrontTrackingCloud::readDataOfTheFrontsAtTheCurrentTimeIntimeName</title>
<!-- Node211 -->
<g id="node1" class="node">
<title>Node211</title>
<polygon fill="#bfbfbf" stroke="#000000" points="0,-137 0,-178 176,-178 176,-137 0,-137"/>
<text text-anchor="start" x="8" y="-166" font-family="Helvetica,sans-Serif" font-size="10.00" fill="#000000">Foam::FrontTrackingCloud</text>
<text text-anchor="start" x="8" y="-155" font-family="Helvetica,sans-Serif" font-size="10.00" fill="#000000">::readDataOfTheFrontsAtTheCurrent</text>
<text text-anchor="middle" x="88" y="-144" font-family="Helvetica,sans-Serif" font-size="10.00" fill="#000000">TimeIntimeName</text>
</g>
<!-- Node212 -->
<g id="node2" class="node">
<title>Node212</title>
<g id="a_node2"><a xlink:href="classFoam_1_1bubbleData.html#a01a4a0bd51dfdfd148cd09f173c42443" target="_top" xlink:title="Foam::bubbleData::startPt\lIndexFromZero">
<polygon fill="none" stroke="#000000" points="225,-274.5 225,-304.5 357,-304.5 357,-274.5 225,-274.5"/>
<text text-anchor="start" x="233" y="-292.5" font-family="Helvetica,sans-Serif" font-size="10.00" fill="#000000">Foam::bubbleData::startPt</text>
<text text-anchor="middle" x="291" y="-281.5" font-family="Helvetica,sans-Serif" font-size="10.00" fill="#000000">IndexFromZero</text>
</a>
</g>
</g>
<!-- Node211&#45;&gt;Node212 -->
<g id="edge1" class="edge">
<title>Node211&#45;&gt;Node212</title>
<path fill="none" stroke="#191970" d="M108.7845,-178.2542C132.2032,-200.7198 172.2149,-236.4216 212,-259.5 219.0372,-263.5821 226.7325,-267.3034 234.4706,-270.6286"/>
<polygon fill="#191970" stroke="#191970" points="233.3087,-273.9349 243.8892,-274.4859 235.9616,-267.4571 233.3087,-273.9349"/>
</g>
<!-- Node213 -->
<g id="node3" class="node">
<title>Node213</title>
<g id="a_node3"><a xlink:href="classFoam_1_1bubbleData.html#a200b32da9651717744e2c042c708550a" target="_top" xlink:title="Foam::bubbleData::findNighboures">
<polygon fill="none" stroke="#000000" points="406,-236 406,-255 574,-255 574,-236 406,-236"/>
<text text-anchor="middle" x="490" y="-243" font-family="Helvetica,sans-Serif" font-size="10.00" fill="#000000">Foam::bubbleData::findNighboures</text>
</a>
</g>
</g>
<!-- Node211&#45;&gt;Node213 -->
<g id="edge2" class="edge">
<title>Node211&#45;&gt;Node213</title>
<path fill="none" stroke="#191970" d="M116.4331,-178.1213C140.572,-194.4094 176.8039,-216.0732 212,-226.5 271.495,-244.1253 341.1609,-248.8584 395.8699,-249.1936"/>
<polygon fill="#191970" stroke="#191970" points="395.9006,-252.6936 405.9053,-249.2072 395.9101,-245.6936 395.9006,-252.6936"/>
</g>
<!-- Node214 -->
<g id="node4" class="node">
<title>Node214</title>
<g id="a_node4"><a xlink:href="classFoam_1_1bubbleData.html#acda4c6cfdf009e8e11f7b8f2d6b161dc" target="_top" xlink:title="Foam::bubbleData::pointTo\lElementMapping">
<polygon fill="none" stroke="#000000" points="422.5,-137.5 422.5,-167.5 557.5,-167.5 557.5,-137.5 422.5,-137.5"/>
<text text-anchor="start" x="430.5" y="-155.5" font-family="Helvetica,sans-Serif" font-size="10.00" fill="#000000">Foam::bubbleData::pointTo</text>
<text text-anchor="middle" x="490" y="-144.5" font-family="Helvetica,sans-Serif" font-size="10.00" fill="#000000">ElementMapping</text>
</a>
</g>
</g>
<!-- Node211&#45;&gt;Node214 -->
<g id="edge3" class="edge">
<title>Node211&#45;&gt;Node214</title>
<path fill="none" stroke="#191970" d="M176.2206,-156.4027C246.6788,-155.5264 344.4731,-154.31 412.0727,-153.4692"/>
<polygon fill="#191970" stroke="#191970" points="412.2812,-156.967 422.2368,-153.3428 412.194,-149.9676 412.2812,-156.967"/>
</g>
<!-- Node215 -->
<g id="node5" class="node">
<title>Node215</title>
<g id="a_node5"><a xlink:href="classFoam_1_1bubbleData.html#ae39fb04d51d3f94e71b2f5c39e5b6c56" target="_top" xlink:title="Foam::bubbleData::ptConnected\lPoints">
<polygon fill="none" stroke="#000000" points="212,-186.5 212,-216.5 370,-216.5 370,-186.5 212,-186.5"/>
<text text-anchor="start" x="220" y="-204.5" font-family="Helvetica,sans-Serif" font-size="10.00" fill="#000000">Foam::bubbleData::ptConnected</text>
<text text-anchor="middle" x="291" y="-193.5" font-family="Helvetica,sans-Serif" font-size="10.00" fill="#000000">Points</text>
</a>
</g>
</g>
<!-- Node211&#45;&gt;Node215 -->
<g id="edge4" class="edge">
<title>Node211&#45;&gt;Node215</title>
<path fill="none" stroke="#191970" d="M176.1531,-176.6071C187.9047,-179.1542 199.8992,-181.754 211.4917,-184.2667"/>
<polygon fill="#191970" stroke="#191970" points="211.0448,-187.751 221.5593,-186.4488 212.5277,-180.9099 211.0448,-187.751"/>
</g>
<!-- Node217 -->
<g id="node7" class="node">
<title>Node217</title>
<g id="a_node7"><a xlink:href="classFoam_1_1bubbleData.html#a7bc4465328f4b231c17305a76db1d8a1" target="_top" xlink:title="Foam::bubbleData::printInitial\lFronts">
<polygon fill="none" stroke="#000000" points="218.5,-98.5 218.5,-128.5 363.5,-128.5 363.5,-98.5 218.5,-98.5"/>
<text text-anchor="start" x="226.5" y="-116.5" font-family="Helvetica,sans-Serif" font-size="10.00" fill="#000000">Foam::bubbleData::printInitial</text>
<text text-anchor="middle" x="291" y="-105.5" font-family="Helvetica,sans-Serif" font-size="10.00" fill="#000000">Fronts</text>
</a>
</g>
</g>
<!-- Node211&#45;&gt;Node217 -->
<g id="edge8" class="edge">
<title>Node211&#45;&gt;Node217</title>
<path fill="none" stroke="#191970" d="M176.1531,-138.3929C187.9047,-135.8458 199.8992,-133.246 211.4917,-130.7333"/>
<polygon fill="#191970" stroke="#191970" points="212.5277,-134.0901 221.5593,-128.5512 211.0448,-127.249 212.5277,-134.0901"/>
</g>
<!-- Node218 -->
<g id="node8" class="node">
<title>Node218</title>
<g id="a_node8"><a xlink:href="classFoam_1_1bubbleData.html#aeca8b64dfc956cf92b07fc98de0b1fb3" target="_top" xlink:title="Foam::bubbleData::update\lBubbleSurface">
<polygon fill="none" stroke="#000000" points="225,-49.5 225,-79.5 357,-79.5 357,-49.5 225,-49.5"/>
<text text-anchor="start" x="233" y="-67.5" font-family="Helvetica,sans-Serif" font-size="10.00" fill="#000000">Foam::bubbleData::update</text>
<text text-anchor="middle" x="291" y="-56.5" font-family="Helvetica,sans-Serif" font-size="10.00" fill="#000000">BubbleSurface</text>
</a>
</g>
</g>
<!-- Node211&#45;&gt;Node218 -->
<g id="edge9" class="edge">
<title>Node211&#45;&gt;Node218</title>
<path fill="none" stroke="#191970" d="M120.4526,-136.9251C144.9229,-122.041 179.6832,-102.2151 212,-88.5 216.6636,-86.5208 221.5454,-84.6306 226.496,-82.8426"/>
<polygon fill="#191970" stroke="#191970" points="227.7559,-86.1103 236.0623,-79.5335 225.4676,-79.4949 227.7559,-86.1103"/>
</g>
<!-- Node220 -->
<g id="node10" class="node">
<title>Node220</title>
<g id="a_node10"><a xlink:href="classFoam_1_1bubbleData.html#aa62a18b88be0327ed56c49a48cc2820b" target="_top" xlink:title="Foam::bubbleData::update\lBubbleVolume">
<polygon fill="none" stroke="#000000" points="225,-.5 225,-30.5 357,-30.5 357,-.5 225,-.5"/>
<text text-anchor="start" x="233" y="-18.5" font-family="Helvetica,sans-Serif" font-size="10.00" fill="#000000">Foam::bubbleData::update</text>
<text text-anchor="middle" x="291" y="-7.5" font-family="Helvetica,sans-Serif" font-size="10.00" fill="#000000">BubbleVolume</text>
</a>
</g>
</g>
<!-- Node211&#45;&gt;Node220 -->
<g id="edge11" class="edge">
<title>Node211&#45;&gt;Node220</title>
<path fill="none" stroke="#191970" d="M104.2668,-136.9509C126.0968,-110.6955 167.3276,-65.5409 212,-39.5 215.0011,-37.7506 218.142,-36.1173 221.3693,-34.5938"/>
<polygon fill="#191970" stroke="#191970" points="222.8563,-37.7641 230.6489,-30.5859 220.0808,-31.3379 222.8563,-37.7641"/>
</g>
<!-- Node215&#45;&gt;Node213 -->
<g id="edge5" class="edge">
<title>Node215&#45;&gt;Node213</title>
<path fill="none" stroke="#191970" d="M358.9279,-216.5192C384.4448,-222.1612 413.0522,-228.4864 437.0151,-233.7847"/>
<polygon fill="#191970" stroke="#191970" points="436.4581,-237.2461 446.9779,-235.9876 437.9694,-230.4111 436.4581,-237.2461"/>
</g>
<!-- Node215&#45;&gt;Node214 -->
<g id="edge6" class="edge">
<title>Node215&#45;&gt;Node214</title>
<path fill="none" stroke="#191970" d="M352.059,-186.4654C373.2616,-181.2446 397.2162,-175.3463 419.1423,-169.9474"/>
<polygon fill="#191970" stroke="#191970" points="420.1834,-173.2957 429.0565,-167.5062 418.5097,-166.4987 420.1834,-173.2957"/>
</g>
<!-- Node216 -->
<g id="node6" class="node">
<title>Node216</title>
<g id="a_node6"><a xlink:href="classFoam_1_1elementInfo.html#a3318a932982b91d66075a89a2a860212" target="_top" xlink:title="Foam::elementInfo::\lfindPointsOrder">
<polygon fill="none" stroke="#000000" points="438,-186.5 438,-216.5 542,-216.5 542,-186.5 438,-186.5"/>
<text text-anchor="start" x="446" y="-204.5" font-family="Helvetica,sans-Serif" font-size="10.00" fill="#000000">Foam::elementInfo::</text>
<text text-anchor="middle" x="490" y="-193.5" font-family="Helvetica,sans-Serif" font-size="10.00" fill="#000000">findPointsOrder</text>
</a>
</g>
</g>
<!-- Node215&#45;&gt;Node216 -->
<g id="edge7" class="edge">
<title>Node215&#45;&gt;Node216</title>
<path fill="none" stroke="#191970" d="M370.2219,-201.5C389.338,-201.5 409.4969,-201.5 427.712,-201.5"/>
<polygon fill="#191970" stroke="#191970" points="427.9,-205.0001 437.8999,-201.5 427.8999,-198.0001 427.9,-205.0001"/>
</g>
<!-- Node219 -->
<g id="node9" class="node">
<title>Node219</title>
<g id="a_node9"><a xlink:href="classFoam_1_1elementInfo.html#a63daef83c9da37fb88f88ca578814eac" target="_top" xlink:title="Foam::elementInfo::\lupdateElementSurfaceArea">
<polygon fill="none" stroke="#000000" points="422,-49.5 422,-79.5 558,-79.5 558,-49.5 422,-49.5"/>
<text text-anchor="start" x="430" y="-67.5" font-family="Helvetica,sans-Serif" font-size="10.00" fill="#000000">Foam::elementInfo::</text>
<text text-anchor="middle" x="490" y="-56.5" font-family="Helvetica,sans-Serif" font-size="10.00" fill="#000000">updateElementSurfaceArea</text>
</a>
</g>
</g>
<!-- Node218&#45;&gt;Node219 -->
<g id="edge10" class="edge">
<title>Node218&#45;&gt;Node219</title>
<path fill="none" stroke="#191970" d="M357.2641,-64.5C374.7362,-64.5 393.753,-64.5 411.7904,-64.5"/>
<polygon fill="#191970" stroke="#191970" points="411.9852,-68.0001 421.9852,-64.5 411.9851,-61.0001 411.9852,-68.0001"/>
</g>
</g>
</svg>
