<?xml version="1.0" encoding="UTF-8" standalone="no"?>
<!DOCTYPE svg PUBLIC "-//W3C//DTD SVG 1.1//EN"
 "http://www.w3.org/Graphics/SVG/1.1/DTD/svg11.dtd">
<!-- Generated by graphviz version 2.40.1 (20161225.0304)
 -->
<!-- Title: Foam::FrontTrackingParcel::move Pages: 1 -->
<svg width="488pt" height="88pt"
 viewBox="0.00 0.00 488.00 88.00" xmlns="http://www.w3.org/2000/svg" xmlns:xlink="http://www.w3.org/1999/xlink">
<g id="graph0" class="graph" transform="scale(1 1) rotate(0) translate(4 84)">
<title>Foam::FrontTrackingParcel::move</title>
<!-- Node85 -->
<g id="node1" class="node">
<title>Node85</title>
<polygon fill="#bfbfbf" stroke="#000000" points="0,-22.5 0,-52.5 135,-52.5 135,-22.5 0,-22.5"/>
<text text-anchor="start" x="8" y="-40.5" font-family="Helvetica,sans-Serif" font-size="10.00" fill="#000000">Foam::FrontTrackingParcel</text>
<text text-anchor="middle" x="67.5" y="-29.5" font-family="Helvetica,sans-Serif" font-size="10.00" fill="#000000">::move</text>
</g>
<!-- Node86 -->
<g id="node2" class="node">
<title>Node86</title>
<g id="a_node2"><a xlink:href="classFoam_1_1FrontTrackingParcel.html#ac23d4a43d6e25f7adac93cecb93946a4" target="_top" xlink:title="Foam::FrontTrackingParcel\l::cellValueSourceCorrection">
<polygon fill="none" stroke="#000000" points="171,-44.5 171,-74.5 309,-74.5 309,-44.5 171,-44.5"/>
<text text-anchor="start" x="179" y="-62.5" font-family="Helvetica,sans-Serif" font-size="10.00" fill="#000000">Foam::FrontTrackingParcel</text>
<text text-anchor="middle" x="240" y="-51.5" font-family="Helvetica,sans-Serif" font-size="10.00" fill="#000000">::cellValueSourceCorrection</text>
</a>
</g>
</g>
<!-- Node85&#45;&gt;Node86 -->
<g id="edge1" class="edge">
<title>Node85&#45;&gt;Node86</title>
<path fill="none" stroke="#191970" d="M145.1501,-47.4032C153.7038,-48.4941 162.3716,-49.5996 170.8122,-50.676"/>
<polygon fill="#191970" stroke="#191970" points="145.5439,-43.9252 135.1815,-46.1318 144.6583,-50.8689 145.5439,-43.9252"/>
</g>
<!-- Node88 -->
<g id="node4" class="node">
<title>Node88</title>
<g id="a_node4"><a xlink:href="classFoam_1_1FrontTrackingParcel_1_1iNew.html#aaf5b4c66182903f2836a251ac0633395" target="_top" xlink:title="Foam::FrontTrackingParcel\l::iNew::operator()">
<polygon fill="none" stroke="#000000" points="345,-.5 345,-30.5 480,-30.5 480,-.5 345,-.5"/>
<text text-anchor="start" x="353" y="-18.5" font-family="Helvetica,sans-Serif" font-size="10.00" fill="#000000">Foam::FrontTrackingParcel</text>
<text text-anchor="middle" x="412.5" y="-7.5" font-family="Helvetica,sans-Serif" font-size="10.00" fill="#000000">::iNew::operator()</text>
</a>
</g>
</g>
<!-- Node85&#45;&gt;Node88 -->
<g id="edge4" class="edge">
<title>Node85&#45;&gt;Node88</title>
<path fill="none" stroke="#191970" d="M145.4378,-32.5301C205.4751,-28.7016 287.6295,-23.4628 344.9057,-19.8104"/>
<polygon fill="#191970" stroke="#191970" points="145.0062,-29.0504 135.2493,-33.1798 145.4518,-36.0362 145.0062,-29.0504"/>
</g>
<!-- Node87 -->
<g id="node3" class="node">
<title>Node87</title>
<g id="a_node3"><a xlink:href="classFoam_1_1FrontTrackingParcel.html#ac4e991ea63aecca2368957c695ca2aa6" target="_top" xlink:title="Foam::FrontTrackingParcel\l::FrontTrackingParcel">
<polygon fill="none" stroke="#000000" points="345,-49.5 345,-79.5 480,-79.5 480,-49.5 345,-49.5"/>
<text text-anchor="start" x="353" y="-67.5" font-family="Helvetica,sans-Serif" font-size="10.00" fill="#000000">Foam::FrontTrackingParcel</text>
<text text-anchor="middle" x="412.5" y="-56.5" font-family="Helvetica,sans-Serif" font-size="10.00" fill="#000000">::FrontTrackingParcel</text>
</a>
</g>
</g>
<!-- Node86&#45;&gt;Node87 -->
<g id="edge2" class="edge">
<title>Node86&#45;&gt;Node87</title>
<path fill="none" stroke="#191970" d="M319.4166,-61.8019C327.8722,-62.047 336.4159,-62.2947 344.7199,-62.5354"/>
<polygon fill="#191970" stroke="#191970" points="319.2657,-58.2962 309.1684,-61.5049 319.0628,-65.2932 319.2657,-58.2962"/>
</g>
<!-- Node86&#45;&gt;Node88 -->
<g id="edge3" class="edge">
<title>Node86&#45;&gt;Node88</title>
<path fill="none" stroke="#191970" d="M308.977,-41.9059C323.7536,-38.1368 339.2355,-34.1878 353.5904,-30.5262"/>
<polygon fill="#191970" stroke="#191970" points="307.7069,-38.6177 298.8822,-44.4808 309.4371,-45.4005 307.7069,-38.6177"/>
</g>
</g>
</svg>
