<?xml version="1.0" encoding="UTF-8" standalone="no"?>
<!DOCTYPE svg PUBLIC "-//W3C//DTD SVG 1.1//EN"
 "http://www.w3.org/Graphics/SVG/1.1/DTD/svg11.dtd">
<!-- Generated by graphviz version 2.40.1 (20161225.0304)
 -->
<!-- Title: Foam::FrontTrackingCloud::frontRefining Pages: 1 -->
<svg width="479pt" height="88pt"
 viewBox="0.00 0.00 479.00 88.00" xmlns="http://www.w3.org/2000/svg" xmlns:xlink="http://www.w3.org/1999/xlink">
<g id="graph0" class="graph" transform="scale(1 1) rotate(0) translate(4 84)">
<title>Foam::FrontTrackingCloud::frontRefining</title>
<!-- Node116 -->
<g id="node1" class="node">
<title>Node116</title>
<polygon fill="#bfbfbf" stroke="#000000" points="0,-27.5 0,-57.5 133,-57.5 133,-27.5 0,-27.5"/>
<text text-anchor="start" x="8" y="-45.5" font-family="Helvetica,sans-Serif" font-size="10.00" fill="#000000">Foam::FrontTrackingCloud</text>
<text text-anchor="middle" x="66.5" y="-34.5" font-family="Helvetica,sans-Serif" font-size="10.00" fill="#000000">::frontRefining</text>
</g>
<!-- Node117 -->
<g id="node2" class="node">
<title>Node117</title>
<g id="a_node2"><a xlink:href="classFoam_1_1elementInfo.html#a3318a932982b91d66075a89a2a860212" target="_top" xlink:title="Foam::elementInfo::\lfindPointsOrder">
<polygon fill="none" stroke="#000000" points="352.5,-49.5 352.5,-79.5 456.5,-79.5 456.5,-49.5 352.5,-49.5"/>
<text text-anchor="start" x="360.5" y="-67.5" font-family="Helvetica,sans-Serif" font-size="10.00" fill="#000000">Foam::elementInfo::</text>
<text text-anchor="middle" x="404.5" y="-56.5" font-family="Helvetica,sans-Serif" font-size="10.00" fill="#000000">findPointsOrder</text>
</a>
</g>
</g>
<!-- Node116&#45;&gt;Node117 -->
<g id="edge1" class="edge">
<title>Node116&#45;&gt;Node117</title>
<path fill="none" stroke="#191970" d="M133.2779,-46.8465C194.022,-50.8002 282.9885,-56.591 342.2699,-60.4495"/>
<polygon fill="#191970" stroke="#191970" points="342.0429,-63.9421 352.2492,-61.0991 342.4977,-56.9568 342.0429,-63.9421"/>
</g>
<!-- Node118 -->
<g id="node3" class="node">
<title>Node118</title>
<g id="a_node3"><a xlink:href="classFoam_1_1FrontTrackingCloud.html#af6a86830e32ecf4700c0dfe908f8455b" target="_top" xlink:title="Foam::FrontTrackingCloud\l::frontCoarsening">
<polygon fill="none" stroke="#000000" points="169,-5.5 169,-35.5 302,-35.5 302,-5.5 169,-5.5"/>
<text text-anchor="start" x="177" y="-23.5" font-family="Helvetica,sans-Serif" font-size="10.00" fill="#000000">Foam::FrontTrackingCloud</text>
<text text-anchor="middle" x="235.5" y="-12.5" font-family="Helvetica,sans-Serif" font-size="10.00" fill="#000000">::frontCoarsening</text>
</a>
</g>
</g>
<!-- Node116&#45;&gt;Node118 -->
<g id="edge2" class="edge">
<title>Node116&#45;&gt;Node118</title>
<path fill="none" stroke="#191970" d="M133.2933,-33.805C141.7151,-32.7087 150.3826,-31.5804 158.9406,-30.4663"/>
<polygon fill="#191970" stroke="#191970" points="159.4507,-33.9295 168.9152,-29.1678 158.547,-26.9881 159.4507,-33.9295"/>
</g>
<!-- Node118&#45;&gt;Node117 -->
<g id="edge3" class="edge">
<title>Node118&#45;&gt;Node117</title>
<path fill="none" stroke="#191970" d="M293.1875,-35.5192C309.104,-39.6632 326.4363,-44.1757 342.5817,-48.3792"/>
<polygon fill="#191970" stroke="#191970" points="341.8985,-51.818 352.4578,-50.9505 343.6623,-45.0438 341.8985,-51.818"/>
</g>
<!-- Node119 -->
<g id="node4" class="node">
<title>Node119</title>
<g id="a_node4"><a xlink:href="classFoam_1_1FrontTrackingCloud.html#acd0406a159d2deeccb2b112fdbb9d3ca" target="_top" xlink:title="Foam::FrontTrackingCloud\l::isElementSmall">
<polygon fill="none" stroke="#000000" points="338,-.5 338,-30.5 471,-30.5 471,-.5 338,-.5"/>
<text text-anchor="start" x="346" y="-18.5" font-family="Helvetica,sans-Serif" font-size="10.00" fill="#000000">Foam::FrontTrackingCloud</text>
<text text-anchor="middle" x="404.5" y="-7.5" font-family="Helvetica,sans-Serif" font-size="10.00" fill="#000000">::isElementSmall</text>
</a>
</g>
</g>
<!-- Node118&#45;&gt;Node119 -->
<g id="edge4" class="edge">
<title>Node118&#45;&gt;Node119</title>
<path fill="none" stroke="#191970" d="M302.2933,-18.5239C310.6236,-18.2774 319.1942,-18.0238 327.6615,-17.7733"/>
<polygon fill="#191970" stroke="#191970" points="328.0231,-21.2643 337.9152,-17.47 327.816,-14.2673 328.0231,-21.2643"/>
</g>
</g>
</svg>
