<?xml version="1.0" encoding="UTF-8" standalone="no"?>
<!DOCTYPE svg PUBLIC "-//W3C//DTD SVG 1.1//EN"
 "http://www.w3.org/Graphics/SVG/1.1/DTD/svg11.dtd">
<!-- Generated by graphviz version 2.40.1 (20161225.0304)
 -->
<!-- Title: Foam::FrontTrackingParcel::cellValueSourceCorrection Pages: 1 -->
<svg width="488pt" height="88pt"
 viewBox="0.00 0.00 488.00 88.00" xmlns="http://www.w3.org/2000/svg" xmlns:xlink="http://www.w3.org/1999/xlink">
<g id="graph0" class="graph" transform="scale(1 1) rotate(0) translate(4 84)">
<title>Foam::FrontTrackingParcel::cellValueSourceCorrection</title>
<!-- Node51 -->
<g id="node1" class="node">
<title>Node51</title>
<polygon fill="#bfbfbf" stroke="#000000" points="0,-24.5 0,-54.5 138,-54.5 138,-24.5 0,-24.5"/>
<text text-anchor="start" x="8" y="-42.5" font-family="Helvetica,sans-Serif" font-size="10.00" fill="#000000">Foam::FrontTrackingParcel</text>
<text text-anchor="middle" x="69" y="-31.5" font-family="Helvetica,sans-Serif" font-size="10.00" fill="#000000">::cellValueSourceCorrection</text>
</g>
<!-- Node52 -->
<g id="node2" class="node">
<title>Node52</title>
<g id="a_node2"><a xlink:href="classFoam_1_1FrontTrackingParcel.html#a83bc1f2780071297ff3222884de3c940" target="_top" xlink:title="Foam::FrontTrackingParcel\l::move">
<polygon fill="none" stroke="#000000" points="174,-24.5 174,-54.5 309,-54.5 309,-24.5 174,-24.5"/>
<text text-anchor="start" x="182" y="-42.5" font-family="Helvetica,sans-Serif" font-size="10.00" fill="#000000">Foam::FrontTrackingParcel</text>
<text text-anchor="middle" x="241.5" y="-31.5" font-family="Helvetica,sans-Serif" font-size="10.00" fill="#000000">::move</text>
</a>
</g>
</g>
<!-- Node51&#45;&gt;Node52 -->
<g id="edge1" class="edge">
<title>Node51&#45;&gt;Node52</title>
<path fill="none" stroke="#191970" d="M138.1684,-39.5C146.4981,-39.5 155.0492,-39.5 163.494,-39.5"/>
<polygon fill="#191970" stroke="#191970" points="163.72,-43.0001 173.7199,-39.5 163.7199,-36.0001 163.72,-43.0001"/>
</g>
<!-- Node53 -->
<g id="node3" class="node">
<title>Node53</title>
<g id="a_node3"><a xlink:href="classFoam_1_1FrontTrackingParcel_1_1trackingData.html#a5bbb8cb002bf9f32f9185defc523924e" target="_top" xlink:title="Foam::FrontTrackingParcel\l::trackingData::part">
<polygon fill="none" stroke="#000000" points="345,-49.5 345,-79.5 480,-79.5 480,-49.5 345,-49.5"/>
<text text-anchor="start" x="353" y="-67.5" font-family="Helvetica,sans-Serif" font-size="10.00" fill="#000000">Foam::FrontTrackingParcel</text>
<text text-anchor="middle" x="412.5" y="-56.5" font-family="Helvetica,sans-Serif" font-size="10.00" fill="#000000">::trackingData::part</text>
</a>
</g>
</g>
<!-- Node52&#45;&gt;Node53 -->
<g id="edge2" class="edge">
<title>Node52&#45;&gt;Node53</title>
<path fill="none" stroke="#191970" d="M309.0837,-49.3807C317.5381,-50.6167 326.2372,-51.8885 334.83,-53.1447"/>
<polygon fill="#191970" stroke="#191970" points="334.4461,-56.6257 344.8472,-54.6092 335.4587,-49.6994 334.4461,-56.6257"/>
</g>
<!-- Node54 -->
<g id="node4" class="node">
<title>Node54</title>
<g id="a_node4"><a xlink:href="classFoam_1_1FrontTrackingParcel.html#abe990b4257a6c9a4238522b32665dc77" target="_top" xlink:title="Foam::FrontTrackingParcel\l::moveDistance">
<polygon fill="none" stroke="#000000" points="345,-.5 345,-30.5 480,-30.5 480,-.5 345,-.5"/>
<text text-anchor="start" x="353" y="-18.5" font-family="Helvetica,sans-Serif" font-size="10.00" fill="#000000">Foam::FrontTrackingParcel</text>
<text text-anchor="middle" x="412.5" y="-7.5" font-family="Helvetica,sans-Serif" font-size="10.00" fill="#000000">::moveDistance</text>
</a>
</g>
</g>
<!-- Node52&#45;&gt;Node54 -->
<g id="edge3" class="edge">
<title>Node52&#45;&gt;Node54</title>
<path fill="none" stroke="#191970" d="M309.0837,-30.0146C317.5381,-28.828 326.2372,-27.6071 334.83,-26.4011"/>
<polygon fill="#191970" stroke="#191970" points="335.4308,-29.8511 344.8472,-24.9951 334.4578,-22.9191 335.4308,-29.8511"/>
</g>
</g>
</svg>
