<?xml version="1.0" encoding="UTF-8" standalone="no"?>
<!DOCTYPE svg PUBLIC "-//W3C//DTD SVG 1.1//EN"
 "http://www.w3.org/Graphics/SVG/1.1/DTD/svg11.dtd">
<!-- Generated by graphviz version 2.40.1 (20161225.0304)
 -->
<!-- Title: Foam::FrontTrackingCloud::constructingInitialFront Pages: 1 -->
<svg width="539pt" height="313pt"
 viewBox="0.00 0.00 539.00 313.00" xmlns="http://www.w3.org/2000/svg" xmlns:xlink="http://www.w3.org/1999/xlink">
<g id="graph0" class="graph" transform="scale(1 1) rotate(0) translate(4 309)">
<title>Foam::FrontTrackingCloud::constructingInitialFront</title>
<!-- Node83 -->
<g id="node1" class="node">
<title>Node83</title>
<polygon fill="#bfbfbf" stroke="#000000" points="0,-142.5 0,-172.5 133,-172.5 133,-142.5 0,-142.5"/>
<text text-anchor="start" x="8" y="-160.5" font-family="Helvetica,sans-Serif" font-size="10.00" fill="#000000">Foam::FrontTrackingCloud</text>
<text text-anchor="middle" x="66.5" y="-149.5" font-family="Helvetica,sans-Serif" font-size="10.00" fill="#000000">::constructingInitialFront</text>
</g>
<!-- Node84 -->
<g id="node2" class="node">
<title>Node84</title>
<g id="a_node2"><a xlink:href="classFoam_1_1bubbleData.html#a01a4a0bd51dfdfd148cd09f173c42443" target="_top" xlink:title="Foam::bubbleData::startPt\lIndexFromZero">
<polygon fill="none" stroke="#000000" points="182,-274.5 182,-304.5 314,-304.5 314,-274.5 182,-274.5"/>
<text text-anchor="start" x="190" y="-292.5" font-family="Helvetica,sans-Serif" font-size="10.00" fill="#000000">Foam::bubbleData::startPt</text>
<text text-anchor="middle" x="248" y="-281.5" font-family="Helvetica,sans-Serif" font-size="10.00" fill="#000000">IndexFromZero</text>
</a>
</g>
</g>
<!-- Node83&#45;&gt;Node84 -->
<g id="edge1" class="edge">
<title>Node83&#45;&gt;Node84</title>
<path fill="none" stroke="#191970" d="M78.1975,-172.6545C95.7794,-194.5277 131.0275,-235.003 169,-259.5 175.2719,-263.5462 182.171,-267.169 189.2003,-270.3769"/>
<polygon fill="#191970" stroke="#191970" points="188.2492,-273.7769 198.8197,-274.4949 191.0041,-267.3418 188.2492,-273.7769"/>
</g>
<!-- Node85 -->
<g id="node3" class="node">
<title>Node85</title>
<g id="a_node3"><a xlink:href="classFoam_1_1bubbleData.html#a200b32da9651717744e2c042c708550a" target="_top" xlink:title="Foam::bubbleData::findNighboures">
<polygon fill="none" stroke="#000000" points="363,-236 363,-255 531,-255 531,-236 363,-236"/>
<text text-anchor="middle" x="447" y="-243" font-family="Helvetica,sans-Serif" font-size="10.00" fill="#000000">Foam::bubbleData::findNighboures</text>
</a>
</g>
</g>
<!-- Node83&#45;&gt;Node85 -->
<g id="edge2" class="edge">
<title>Node83&#45;&gt;Node85</title>
<path fill="none" stroke="#191970" d="M82.7648,-172.5067C101.819,-189.0567 135.1132,-214.8791 169,-226.5 227.9108,-246.7025 297.8744,-251.391 352.8765,-251.0599"/>
<polygon fill="#191970" stroke="#191970" points="353.008,-254.5587 362.9665,-250.9423 352.9263,-247.5592 353.008,-254.5587"/>
</g>
<!-- Node86 -->
<g id="node4" class="node">
<title>Node86</title>
<g id="a_node4"><a xlink:href="classFoam_1_1bubbleData.html#acda4c6cfdf009e8e11f7b8f2d6b161dc" target="_top" xlink:title="Foam::bubbleData::pointTo\lElementMapping">
<polygon fill="none" stroke="#000000" points="379.5,-137.5 379.5,-167.5 514.5,-167.5 514.5,-137.5 379.5,-137.5"/>
<text text-anchor="start" x="387.5" y="-155.5" font-family="Helvetica,sans-Serif" font-size="10.00" fill="#000000">Foam::bubbleData::pointTo</text>
<text text-anchor="middle" x="447" y="-144.5" font-family="Helvetica,sans-Serif" font-size="10.00" fill="#000000">ElementMapping</text>
</a>
</g>
</g>
<!-- Node83&#45;&gt;Node86 -->
<g id="edge3" class="edge">
<title>Node83&#45;&gt;Node86</title>
<path fill="none" stroke="#191970" d="M133.2135,-156.6233C199.1342,-155.7571 299.9168,-154.4328 369.3873,-153.5199"/>
<polygon fill="#191970" stroke="#191970" points="369.4489,-157.0195 379.402,-153.3883 369.3568,-150.0201 369.4489,-157.0195"/>
</g>
<!-- Node87 -->
<g id="node5" class="node">
<title>Node87</title>
<g id="a_node5"><a xlink:href="classFoam_1_1bubbleData.html#ae39fb04d51d3f94e71b2f5c39e5b6c56" target="_top" xlink:title="Foam::bubbleData::ptConnected\lPoints">
<polygon fill="none" stroke="#000000" points="169,-186.5 169,-216.5 327,-216.5 327,-186.5 169,-186.5"/>
<text text-anchor="start" x="177" y="-204.5" font-family="Helvetica,sans-Serif" font-size="10.00" fill="#000000">Foam::bubbleData::ptConnected</text>
<text text-anchor="middle" x="248" y="-193.5" font-family="Helvetica,sans-Serif" font-size="10.00" fill="#000000">Points</text>
</a>
</g>
</g>
<!-- Node83&#45;&gt;Node87 -->
<g id="edge4" class="edge">
<title>Node83&#45;&gt;Node87</title>
<path fill="none" stroke="#191970" d="M128.4544,-172.5192C143.8472,-176.2508 160.4731,-180.2814 176.2908,-184.116"/>
<polygon fill="#191970" stroke="#191970" points="175.4738,-187.5192 186.0169,-186.4738 177.123,-180.7162 175.4738,-187.5192"/>
</g>
<!-- Node89 -->
<g id="node7" class="node">
<title>Node89</title>
<g id="a_node7"><a xlink:href="classFoam_1_1bubbleData.html#a7bc4465328f4b231c17305a76db1d8a1" target="_top" xlink:title="Foam::bubbleData::printInitial\lFronts">
<polygon fill="none" stroke="#000000" points="175.5,-98.5 175.5,-128.5 320.5,-128.5 320.5,-98.5 175.5,-98.5"/>
<text text-anchor="start" x="183.5" y="-116.5" font-family="Helvetica,sans-Serif" font-size="10.00" fill="#000000">Foam::bubbleData::printInitial</text>
<text text-anchor="middle" x="248" y="-105.5" font-family="Helvetica,sans-Serif" font-size="10.00" fill="#000000">Fronts</text>
</a>
</g>
</g>
<!-- Node83&#45;&gt;Node89 -->
<g id="edge8" class="edge">
<title>Node83&#45;&gt;Node89</title>
<path fill="none" stroke="#191970" d="M128.4544,-142.4808C143.8472,-138.7492 160.4731,-134.7186 176.2908,-130.884"/>
<polygon fill="#191970" stroke="#191970" points="177.123,-134.2838 186.0169,-128.5262 175.4738,-127.4808 177.123,-134.2838"/>
</g>
<!-- Node90 -->
<g id="node8" class="node">
<title>Node90</title>
<g id="a_node8"><a xlink:href="classFoam_1_1bubbleData.html#aeca8b64dfc956cf92b07fc98de0b1fb3" target="_top" xlink:title="Foam::bubbleData::update\lBubbleSurface">
<polygon fill="none" stroke="#000000" points="182,-49.5 182,-79.5 314,-79.5 314,-49.5 182,-49.5"/>
<text text-anchor="start" x="190" y="-67.5" font-family="Helvetica,sans-Serif" font-size="10.00" fill="#000000">Foam::bubbleData::update</text>
<text text-anchor="middle" x="248" y="-56.5" font-family="Helvetica,sans-Serif" font-size="10.00" fill="#000000">BubbleSurface</text>
</a>
</g>
</g>
<!-- Node83&#45;&gt;Node90 -->
<g id="edge9" class="edge">
<title>Node83&#45;&gt;Node90</title>
<path fill="none" stroke="#191970" d="M85.1152,-142.4571C104.9044,-127.0871 137.6138,-103.4187 169,-88.5 173.0416,-86.5789 177.2723,-84.7695 181.5859,-83.073"/>
<polygon fill="#191970" stroke="#191970" points="182.9595,-86.2966 191.1204,-79.5401 180.5273,-79.7328 182.9595,-86.2966"/>
</g>
<!-- Node92 -->
<g id="node10" class="node">
<title>Node92</title>
<g id="a_node10"><a xlink:href="classFoam_1_1bubbleData.html#aa62a18b88be0327ed56c49a48cc2820b" target="_top" xlink:title="Foam::bubbleData::update\lBubbleVolume">
<polygon fill="none" stroke="#000000" points="182,-.5 182,-30.5 314,-30.5 314,-.5 182,-.5"/>
<text text-anchor="start" x="190" y="-18.5" font-family="Helvetica,sans-Serif" font-size="10.00" fill="#000000">Foam::bubbleData::update</text>
<text text-anchor="middle" x="248" y="-7.5" font-family="Helvetica,sans-Serif" font-size="10.00" fill="#000000">BubbleVolume</text>
</a>
</g>
</g>
<!-- Node83&#45;&gt;Node92 -->
<g id="edge11" class="edge">
<title>Node83&#45;&gt;Node92</title>
<path fill="none" stroke="#191970" d="M75.5457,-142.4207C91.3561,-117.345 126.4233,-67.1072 169,-39.5 171.5633,-37.8379 174.2473,-36.2863 177.0142,-34.8381"/>
<polygon fill="#191970" stroke="#191970" points="178.5364,-37.99 186.0865,-30.5572 175.5492,-31.6594 178.5364,-37.99"/>
</g>
<!-- Node87&#45;&gt;Node85 -->
<g id="edge5" class="edge">
<title>Node87&#45;&gt;Node85</title>
<path fill="none" stroke="#191970" d="M315.9279,-216.5192C341.4448,-222.1612 370.0522,-228.4864 394.0151,-233.7847"/>
<polygon fill="#191970" stroke="#191970" points="393.4581,-237.2461 403.9779,-235.9876 394.9694,-230.4111 393.4581,-237.2461"/>
</g>
<!-- Node87&#45;&gt;Node86 -->
<g id="edge6" class="edge">
<title>Node87&#45;&gt;Node86</title>
<path fill="none" stroke="#191970" d="M309.059,-186.4654C330.2616,-181.2446 354.2162,-175.3463 376.1423,-169.9474"/>
<polygon fill="#191970" stroke="#191970" points="377.1834,-173.2957 386.0565,-167.5062 375.5097,-166.4987 377.1834,-173.2957"/>
</g>
<!-- Node88 -->
<g id="node6" class="node">
<title>Node88</title>
<g id="a_node6"><a xlink:href="classFoam_1_1elementInfo.html#a3318a932982b91d66075a89a2a860212" target="_top" xlink:title="Foam::elementInfo::\lfindPointsOrder">
<polygon fill="none" stroke="#000000" points="395,-186.5 395,-216.5 499,-216.5 499,-186.5 395,-186.5"/>
<text text-anchor="start" x="403" y="-204.5" font-family="Helvetica,sans-Serif" font-size="10.00" fill="#000000">Foam::elementInfo::</text>
<text text-anchor="middle" x="447" y="-193.5" font-family="Helvetica,sans-Serif" font-size="10.00" fill="#000000">findPointsOrder</text>
</a>
</g>
</g>
<!-- Node87&#45;&gt;Node88 -->
<g id="edge7" class="edge">
<title>Node87&#45;&gt;Node88</title>
<path fill="none" stroke="#191970" d="M327.2219,-201.5C346.338,-201.5 366.4969,-201.5 384.712,-201.5"/>
<polygon fill="#191970" stroke="#191970" points="384.9,-205.0001 394.8999,-201.5 384.8999,-198.0001 384.9,-205.0001"/>
</g>
<!-- Node91 -->
<g id="node9" class="node">
<title>Node91</title>
<g id="a_node9"><a xlink:href="classFoam_1_1elementInfo.html#a63daef83c9da37fb88f88ca578814eac" target="_top" xlink:title="Foam::elementInfo::\lupdateElementSurfaceArea">
<polygon fill="none" stroke="#000000" points="379,-49.5 379,-79.5 515,-79.5 515,-49.5 379,-49.5"/>
<text text-anchor="start" x="387" y="-67.5" font-family="Helvetica,sans-Serif" font-size="10.00" fill="#000000">Foam::elementInfo::</text>
<text text-anchor="middle" x="447" y="-56.5" font-family="Helvetica,sans-Serif" font-size="10.00" fill="#000000">updateElementSurfaceArea</text>
</a>
</g>
</g>
<!-- Node90&#45;&gt;Node91 -->
<g id="edge10" class="edge">
<title>Node90&#45;&gt;Node91</title>
<path fill="none" stroke="#191970" d="M314.2641,-64.5C331.7362,-64.5 350.753,-64.5 368.7904,-64.5"/>
<polygon fill="#191970" stroke="#191970" points="368.9852,-68.0001 378.9852,-64.5 368.9851,-61.0001 368.9852,-68.0001"/>
</g>
</g>
</svg>
