<?xml version="1.0" encoding="UTF-8" standalone="no"?>
<!DOCTYPE svg PUBLIC "-//W3C//DTD SVG 1.1//EN"
 "http://www.w3.org/Graphics/SVG/1.1/DTD/svg11.dtd">
<!-- Generated by graphviz version 2.40.1 (20161225.0304)
 -->
<!-- Title: Foam::VolumeCorrectionModels::NoVolumeCorrection::clone Pages: 1 -->
<svg width="417pt" height="88pt"
 viewBox="0.00 0.00 417.00 88.00" xmlns="http://www.w3.org/2000/svg" xmlns:xlink="http://www.w3.org/1999/xlink">
<g id="graph0" class="graph" transform="scale(1 1) rotate(0) translate(4 84)">
<title>Foam::VolumeCorrectionModels::NoVolumeCorrection::clone</title>
<!-- Node22 -->
<g id="node1" class="node">
<title>Node22</title>
<polygon fill="#bfbfbf" stroke="#000000" points="0,-24.5 0,-54.5 157,-54.5 157,-24.5 0,-24.5"/>
<text text-anchor="start" x="8" y="-42.5" font-family="Helvetica,sans-Serif" font-size="10.00" fill="#000000">Foam::VolumeCorrectionModels</text>
<text text-anchor="middle" x="78.5" y="-31.5" font-family="Helvetica,sans-Serif" font-size="10.00" fill="#000000">::NoVolumeCorrection::clone</text>
</g>
<!-- Node23 -->
<g id="node2" class="node">
<title>Node23</title>
<g id="a_node2"><a xlink:href="classFoam_1_1VolumeCorrectionModels_1_1NoVolumeCorrection.html#a071b13d25393734658f7fa00a1c4b397" target="_top" xlink:title="Foam::VolumeCorrectionModels\l::NoVolumeCorrection::~NoVolumeCorrection">
<polygon fill="none" stroke="#000000" points="193,-49.5 193,-79.5 409,-79.5 409,-49.5 193,-49.5"/>
<text text-anchor="start" x="201" y="-67.5" font-family="Helvetica,sans-Serif" font-size="10.00" fill="#000000">Foam::VolumeCorrectionModels</text>
<text text-anchor="middle" x="301" y="-56.5" font-family="Helvetica,sans-Serif" font-size="10.00" fill="#000000">::NoVolumeCorrection::~NoVolumeCorrection</text>
</a>
</g>
</g>
<!-- Node22&#45;&gt;Node23 -->
<g id="edge1" class="edge">
<title>Node22&#45;&gt;Node23</title>
<path fill="none" stroke="#191970" d="M157.2583,-48.3492C165.5247,-49.2781 174.0535,-50.2364 182.639,-51.201"/>
<polygon fill="#191970" stroke="#191970" points="182.4031,-54.6964 192.7314,-52.335 183.1848,-47.7402 182.4031,-54.6964"/>
</g>
<!-- Node24 -->
<g id="node3" class="node">
<title>Node24</title>
<g id="a_node3"><a xlink:href="classFoam_1_1VolumeCorrectionModels_1_1NoVolumeCorrection.html#aa67a69c09ea5b320a0a143f41a90a77b" target="_top" xlink:title="Foam::VolumeCorrectionModels\l::NoVolumeCorrection::calculate">
<polygon fill="none" stroke="#000000" points="222,-.5 222,-30.5 380,-30.5 380,-.5 222,-.5"/>
<text text-anchor="start" x="230" y="-18.5" font-family="Helvetica,sans-Serif" font-size="10.00" fill="#000000">Foam::VolumeCorrectionModels</text>
<text text-anchor="middle" x="301" y="-7.5" font-family="Helvetica,sans-Serif" font-size="10.00" fill="#000000">::NoVolumeCorrection::calculate</text>
</a>
</g>
</g>
<!-- Node22&#45;&gt;Node24 -->
<g id="edge2" class="edge">
<title>Node22&#45;&gt;Node24</title>
<path fill="none" stroke="#191970" d="M157.2583,-31.0047C174.9788,-29.0933 193.9049,-27.0518 212.0108,-25.0988"/>
<polygon fill="#191970" stroke="#191970" points="212.4055,-28.5767 221.9724,-24.0243 211.6547,-21.617 212.4055,-28.5767"/>
</g>
</g>
</svg>
