<?xml version="1.0" encoding="UTF-8" standalone="no"?>
<!DOCTYPE svg PUBLIC "-//W3C//DTD SVG 1.1//EN"
 "http://www.w3.org/Graphics/SVG/1.1/DTD/svg11.dtd">
<!-- Generated by graphviz version 2.40.1 (20161225.0304)
 -->
<!-- Title: Foam::bubbleData::printInitialFronts Pages: 1 -->
<svg width="365pt" height="100pt"
 viewBox="0.00 0.00 365.00 99.50" xmlns="http://www.w3.org/2000/svg" xmlns:xlink="http://www.w3.org/1999/xlink">
<g id="graph0" class="graph" transform="scale(1 1) rotate(0) translate(4 95.5)">
<title>Foam::bubbleData::printInitialFronts</title>
<!-- Node27 -->
<g id="node1" class="node">
<title>Node27</title>
<polygon fill="#bfbfbf" stroke="#000000" points="0,-33 0,-63 145,-63 145,-33 0,-33"/>
<text text-anchor="start" x="8" y="-51" font-family="Helvetica,sans-Serif" font-size="10.00" fill="#000000">Foam::bubbleData::printInitial</text>
<text text-anchor="middle" x="72.5" y="-40" font-family="Helvetica,sans-Serif" font-size="10.00" fill="#000000">Fronts</text>
</g>
<!-- Node28 -->
<g id="node2" class="node">
<title>Node28</title>
<g id="a_node2"><a xlink:href="classFoam_1_1FrontTrackingCloud.html#a5719f87b5899aa9675daf150a997f37a" target="_top" xlink:title="Foam::FrontTrackingCloud\l::constructingInitialFront">
<polygon fill="none" stroke="#000000" points="202.5,-61 202.5,-91 335.5,-91 335.5,-61 202.5,-61"/>
<text text-anchor="start" x="210.5" y="-79" font-family="Helvetica,sans-Serif" font-size="10.00" fill="#000000">Foam::FrontTrackingCloud</text>
<text text-anchor="middle" x="269" y="-68" font-family="Helvetica,sans-Serif" font-size="10.00" fill="#000000">::constructingInitialFront</text>
</a>
</g>
</g>
<!-- Node27&#45;&gt;Node28 -->
<g id="edge1" class="edge">
<title>Node27&#45;&gt;Node28</title>
<path fill="none" stroke="#191970" d="M155.3005,-59.7985C170.95,-62.0285 187.1358,-64.3349 202.2159,-66.4837"/>
<polygon fill="#191970" stroke="#191970" points="155.5048,-56.2924 145.1111,-58.3466 154.5173,-63.2224 155.5048,-56.2924"/>
</g>
<!-- Node29 -->
<g id="node3" class="node">
<title>Node29</title>
<g id="a_node3"><a xlink:href="classFoam_1_1FrontTrackingCloud.html#a356c54185b3b13a1b75a8400e2676cf7" target="_top" xlink:title="Foam::FrontTrackingCloud\l::readDataOfTheFrontsAtTheCurrent\lTimeIntimeName">
<polygon fill="none" stroke="#000000" points="181,-.5 181,-41.5 357,-41.5 357,-.5 181,-.5"/>
<text text-anchor="start" x="189" y="-29.5" font-family="Helvetica,sans-Serif" font-size="10.00" fill="#000000">Foam::FrontTrackingCloud</text>
<text text-anchor="start" x="189" y="-18.5" font-family="Helvetica,sans-Serif" font-size="10.00" fill="#000000">::readDataOfTheFrontsAtTheCurrent</text>
<text text-anchor="middle" x="269" y="-7.5" font-family="Helvetica,sans-Serif" font-size="10.00" fill="#000000">TimeIntimeName</text>
</a>
</g>
</g>
<!-- Node27&#45;&gt;Node29 -->
<g id="edge2" class="edge">
<title>Node27&#45;&gt;Node29</title>
<path fill="none" stroke="#191970" d="M155.2718,-36.6268C163.6788,-35.4716 172.2409,-34.2951 180.7036,-33.1323"/>
<polygon fill="#191970" stroke="#191970" points="154.5415,-33.1941 145.1111,-38.0229 155.4944,-40.129 154.5415,-33.1941"/>
</g>
</g>
</svg>
