<?xml version="1.0" encoding="UTF-8" standalone="no"?>
<!DOCTYPE svg PUBLIC "-//W3C//DTD SVG 1.1//EN"
 "http://www.w3.org/Graphics/SVG/1.1/DTD/svg11.dtd">
<!-- Generated by graphviz version 2.40.1 (20161225.0304)
 -->
<!-- Title: Foam::FrontTrackingParcel::setCellValues Pages: 1 -->
<svg width="485pt" height="39pt"
 viewBox="0.00 0.00 485.00 39.00" xmlns="http://www.w3.org/2000/svg" xmlns:xlink="http://www.w3.org/1999/xlink">
<g id="graph0" class="graph" transform="scale(1 1) rotate(0) translate(4 35)">
<title>Foam::FrontTrackingParcel::setCellValues</title>
<!-- Node106 -->
<g id="node1" class="node">
<title>Node106</title>
<polygon fill="#bfbfbf" stroke="#000000" points="0,-.5 0,-30.5 135,-30.5 135,-.5 0,-.5"/>
<text text-anchor="start" x="8" y="-18.5" font-family="Helvetica,sans-Serif" font-size="10.00" fill="#000000">Foam::FrontTrackingParcel</text>
<text text-anchor="middle" x="67.5" y="-7.5" font-family="Helvetica,sans-Serif" font-size="10.00" fill="#000000">::setCellValues</text>
</g>
<!-- Node107 -->
<g id="node2" class="node">
<title>Node107</title>
<g id="a_node2"><a xlink:href="classFoam_1_1FrontTrackingParcel.html#a0299e73bb81ea8ba3f1c5124a8c59966" target="_top" xlink:title="Foam::FrontTrackingParcel\l::calc">
<polygon fill="none" stroke="#000000" points="171,-.5 171,-30.5 306,-30.5 306,-.5 171,-.5"/>
<text text-anchor="start" x="179" y="-18.5" font-family="Helvetica,sans-Serif" font-size="10.00" fill="#000000">Foam::FrontTrackingParcel</text>
<text text-anchor="middle" x="238.5" y="-7.5" font-family="Helvetica,sans-Serif" font-size="10.00" fill="#000000">::calc</text>
</a>
</g>
</g>
<!-- Node106&#45;&gt;Node107 -->
<g id="edge1" class="edge">
<title>Node106&#45;&gt;Node107</title>
<path fill="none" stroke="#191970" d="M135.0837,-15.5C143.5381,-15.5 152.2372,-15.5 160.83,-15.5"/>
<polygon fill="#191970" stroke="#191970" points="160.8472,-19.0001 170.8472,-15.5 160.8472,-12.0001 160.8472,-19.0001"/>
</g>
<!-- Node108 -->
<g id="node3" class="node">
<title>Node108</title>
<g id="a_node3"><a xlink:href="classFoam_1_1FrontTrackingParcel.html#a38bf710f88d368aa9b8e7f4f7d3fcd1e" target="_top" xlink:title="Foam::FrontTrackingParcel\l::FrontTrackingParcel">
<polygon fill="none" stroke="#000000" points="342,-.5 342,-30.5 477,-30.5 477,-.5 342,-.5"/>
<text text-anchor="start" x="350" y="-18.5" font-family="Helvetica,sans-Serif" font-size="10.00" fill="#000000">Foam::FrontTrackingParcel</text>
<text text-anchor="middle" x="409.5" y="-7.5" font-family="Helvetica,sans-Serif" font-size="10.00" fill="#000000">::FrontTrackingParcel</text>
</a>
</g>
</g>
<!-- Node107&#45;&gt;Node108 -->
<g id="edge2" class="edge">
<title>Node107&#45;&gt;Node108</title>
<path fill="none" stroke="#191970" d="M306.0837,-15.5C314.5381,-15.5 323.2372,-15.5 331.83,-15.5"/>
<polygon fill="#191970" stroke="#191970" points="331.8472,-19.0001 341.8472,-15.5 331.8472,-12.0001 331.8472,-19.0001"/>
</g>
</g>
</svg>
