<?xml version="1.0" encoding="UTF-8" standalone="no"?>
<!DOCTYPE svg PUBLIC "-//W3C//DTD SVG 1.1//EN"
 "http://www.w3.org/Graphics/SVG/1.1/DTD/svg11.dtd">
<!-- Generated by graphviz version 2.40.1 (20161225.0304)
 -->
<!-- Title: Foam::UndulationRemovalModels::VCSIV::smoothTo Pages: 1 -->
<svg width="572pt" height="61pt"
 viewBox="0.00 0.00 572.00 61.00" xmlns="http://www.w3.org/2000/svg" xmlns:xlink="http://www.w3.org/1999/xlink">
<g id="graph0" class="graph" transform="scale(1 1) rotate(0) translate(4 57)">
<title>Foam::UndulationRemovalModels::VCSIV::smoothTo</title>
<!-- Node30 -->
<g id="node1" class="node">
<title>Node30</title>
<polygon fill="#bfbfbf" stroke="#000000" points="0,-.5 0,-30.5 164,-30.5 164,-.5 0,-.5"/>
<text text-anchor="start" x="8" y="-18.5" font-family="Helvetica,sans-Serif" font-size="10.00" fill="#000000">Foam::UndulationRemovalModels</text>
<text text-anchor="middle" x="82" y="-7.5" font-family="Helvetica,sans-Serif" font-size="10.00" fill="#000000">::VCSIV::smoothTo</text>
</g>
<!-- Node31 -->
<g id="node2" class="node">
<title>Node31</title>
<g id="a_node2"><a xlink:href="classFoam_1_1UndulationRemovalModels_1_1VCSIV.html#a61f9a0cf34dc95655d6a3d42646aafda" target="_top" xlink:title="Foam::UndulationRemovalModels\l::VCSIV::calculate">
<polygon fill="none" stroke="#000000" points="200,-22.5 200,-52.5 364,-52.5 364,-22.5 200,-22.5"/>
<text text-anchor="start" x="208" y="-40.5" font-family="Helvetica,sans-Serif" font-size="10.00" fill="#000000">Foam::UndulationRemovalModels</text>
<text text-anchor="middle" x="282" y="-29.5" font-family="Helvetica,sans-Serif" font-size="10.00" fill="#000000">::VCSIV::calculate</text>
</a>
</g>
</g>
<!-- Node30&#45;&gt;Node31 -->
<g id="edge1" class="edge">
<title>Node30&#45;&gt;Node31</title>
<path fill="none" stroke="#191970" d="M174.1874,-25.6406C182.7264,-26.5799 191.3418,-27.5276 199.7826,-28.4561"/>
<polygon fill="#191970" stroke="#191970" points="174.5362,-22.158 164.2135,-24.5435 173.7708,-29.116 174.5362,-22.158"/>
</g>
<!-- Node32 -->
<g id="node3" class="node">
<title>Node32</title>
<g id="a_node3"><a xlink:href="classFoam_1_1UndulationRemovalModels_1_1VCSIV.html#a6a2be245284290e03c876e544414ff6b" target="_top" xlink:title="Foam::UndulationRemovalModels\l::VCSIV::clone">
<polygon fill="none" stroke="#000000" points="400,-.5 400,-30.5 564,-30.5 564,-.5 400,-.5"/>
<text text-anchor="start" x="408" y="-18.5" font-family="Helvetica,sans-Serif" font-size="10.00" fill="#000000">Foam::UndulationRemovalModels</text>
<text text-anchor="middle" x="482" y="-7.5" font-family="Helvetica,sans-Serif" font-size="10.00" fill="#000000">::VCSIV::clone</text>
</a>
</g>
</g>
<!-- Node30&#45;&gt;Node32 -->
<g id="edge3" class="edge">
<title>Node30&#45;&gt;Node32</title>
<path fill="none" stroke="#191970" d="M174.3645,-13.7847C183.03,-13.669 191.6798,-13.5705 200,-13.5 272.8863,-12.8824 291.1137,-12.8824 364,-13.5 375.5759,-13.5981 387.7899,-13.7503 399.7965,-13.928"/>
<polygon fill="#191970" stroke="#191970" points="174.1532,-10.2873 164.2035,-13.928 174.2519,-17.2866 174.1532,-10.2873"/>
</g>
<!-- Node31&#45;&gt;Node32 -->
<g id="edge2" class="edge">
<title>Node31&#45;&gt;Node32</title>
<path fill="none" stroke="#191970" d="M374.1874,-27.3594C382.7264,-26.4201 391.3418,-25.4724 399.7826,-24.5439"/>
<polygon fill="#191970" stroke="#191970" points="373.7708,-23.884 364.2135,-28.4565 374.5362,-30.842 373.7708,-23.884"/>
</g>
</g>
</svg>
