<?xml version="1.0" encoding="UTF-8" standalone="no"?>
<!DOCTYPE svg PUBLIC "-//W3C//DTD SVG 1.1//EN"
 "http://www.w3.org/Graphics/SVG/1.1/DTD/svg11.dtd">
<!-- Generated by graphviz version 2.40.1 (20161225.0304)
 -->
<!-- Title: Foam::FrontTrackingCloud::frontCoarsening Pages: 1 -->
<svg width="707pt" height="39pt"
 viewBox="0.00 0.00 707.00 39.00" xmlns="http://www.w3.org/2000/svg" xmlns:xlink="http://www.w3.org/1999/xlink">
<g id="graph0" class="graph" transform="scale(1 1) rotate(0) translate(4 35)">
<title>Foam::FrontTrackingCloud::frontCoarsening</title>
<!-- Node110 -->
<g id="node1" class="node">
<title>Node110</title>
<polygon fill="#bfbfbf" stroke="#000000" points="0,-.5 0,-30.5 133,-30.5 133,-.5 0,-.5"/>
<text text-anchor="start" x="8" y="-18.5" font-family="Helvetica,sans-Serif" font-size="10.00" fill="#000000">Foam::FrontTrackingCloud</text>
<text text-anchor="middle" x="66.5" y="-7.5" font-family="Helvetica,sans-Serif" font-size="10.00" fill="#000000">::frontCoarsening</text>
</g>
<!-- Node111 -->
<g id="node2" class="node">
<title>Node111</title>
<g id="a_node2"><a xlink:href="classFoam_1_1FrontTrackingCloud.html#af71f0286cb6f689c9aa0e392b4ca8eca" target="_top" xlink:title="Foam::FrontTrackingCloud\l::frontRefining">
<polygon fill="none" stroke="#000000" points="169,-.5 169,-30.5 302,-30.5 302,-.5 169,-.5"/>
<text text-anchor="start" x="177" y="-18.5" font-family="Helvetica,sans-Serif" font-size="10.00" fill="#000000">Foam::FrontTrackingCloud</text>
<text text-anchor="middle" x="235.5" y="-7.5" font-family="Helvetica,sans-Serif" font-size="10.00" fill="#000000">::frontRefining</text>
</a>
</g>
</g>
<!-- Node110&#45;&gt;Node111 -->
<g id="edge1" class="edge">
<title>Node110&#45;&gt;Node111</title>
<path fill="none" stroke="#191970" d="M143.5505,-15.5C152.0194,-15.5 160.589,-15.5 168.9152,-15.5"/>
<polygon fill="#191970" stroke="#191970" points="143.2933,-12.0001 133.2933,-15.5 143.2932,-19.0001 143.2933,-12.0001"/>
</g>
<!-- Node112 -->
<g id="node3" class="node">
<title>Node112</title>
<g id="a_node3"><a xlink:href="classFoam_1_1FrontTrackingCloud.html#ada5f5e05db21f49b7d61c74fecc37db0" target="_top" xlink:title="Foam::FrontTrackingCloud\l::adjustingTheCloudDataAfterChanges">
<polygon fill="none" stroke="#000000" points="338,-.5 338,-30.5 523,-30.5 523,-.5 338,-.5"/>
<text text-anchor="start" x="346" y="-18.5" font-family="Helvetica,sans-Serif" font-size="10.00" fill="#000000">Foam::FrontTrackingCloud</text>
<text text-anchor="middle" x="430.5" y="-7.5" font-family="Helvetica,sans-Serif" font-size="10.00" fill="#000000">::adjustingTheCloudDataAfterChanges</text>
</a>
</g>
</g>
<!-- Node111&#45;&gt;Node112 -->
<g id="edge2" class="edge">
<title>Node111&#45;&gt;Node112</title>
<path fill="none" stroke="#191970" d="M312.1553,-15.5C320.5316,-15.5 329.1232,-15.5 337.6669,-15.5"/>
<polygon fill="#191970" stroke="#191970" points="312.0626,-12.0001 302.0625,-15.5 312.0625,-19.0001 312.0626,-12.0001"/>
</g>
<!-- Node113 -->
<g id="node4" class="node">
<title>Node113</title>
<g id="a_node4"><a xlink:href="classFoam_1_1FrontTrackingCloud.html#a0bb2522d2ddf9404386ba4b5a5a288ee" target="_top" xlink:title="Foam::FrontTrackingCloud\l::processingThefrontMeshes">
<polygon fill="none" stroke="#000000" points="559,-.5 559,-30.5 699,-30.5 699,-.5 559,-.5"/>
<text text-anchor="start" x="567" y="-18.5" font-family="Helvetica,sans-Serif" font-size="10.00" fill="#000000">Foam::FrontTrackingCloud</text>
<text text-anchor="middle" x="629" y="-7.5" font-family="Helvetica,sans-Serif" font-size="10.00" fill="#000000">::processingThefrontMeshes</text>
</a>
</g>
</g>
<!-- Node112&#45;&gt;Node113 -->
<g id="edge3" class="edge">
<title>Node112&#45;&gt;Node113</title>
<path fill="none" stroke="#191970" d="M533.2305,-15.5C541.8882,-15.5 550.5106,-15.5 558.8336,-15.5"/>
<polygon fill="#191970" stroke="#191970" points="533.0668,-12.0001 523.0668,-15.5 533.0667,-19.0001 533.0668,-12.0001"/>
</g>
</g>
</svg>
