<?xml version="1.0" encoding="UTF-8" standalone="no"?>
<!DOCTYPE svg PUBLIC "-//W3C//DTD SVG 1.1//EN"
 "http://www.w3.org/Graphics/SVG/1.1/DTD/svg11.dtd">
<!-- Generated by graphviz version 2.40.1 (20161225.0304)
 -->
<!-- Title: Foam::bubbleData::startPtIndexFromZero Pages: 1 -->
<svg width="352pt" height="100pt"
 viewBox="0.00 0.00 352.00 99.50" xmlns="http://www.w3.org/2000/svg" xmlns:xlink="http://www.w3.org/1999/xlink">
<g id="graph0" class="graph" transform="scale(1 1) rotate(0) translate(4 95.5)">
<title>Foam::bubbleData::startPtIndexFromZero</title>
<!-- Node44 -->
<g id="node1" class="node">
<title>Node44</title>
<polygon fill="#bfbfbf" stroke="#000000" points="0,-33 0,-63 132,-63 132,-33 0,-33"/>
<text text-anchor="start" x="8" y="-51" font-family="Helvetica,sans-Serif" font-size="10.00" fill="#000000">Foam::bubbleData::startPt</text>
<text text-anchor="middle" x="66" y="-40" font-family="Helvetica,sans-Serif" font-size="10.00" fill="#000000">IndexFromZero</text>
</g>
<!-- Node45 -->
<g id="node2" class="node">
<title>Node45</title>
<g id="a_node2"><a xlink:href="classFoam_1_1FrontTrackingCloud.html#a5719f87b5899aa9675daf150a997f37a" target="_top" xlink:title="Foam::FrontTrackingCloud\l::constructingInitialFront">
<polygon fill="none" stroke="#000000" points="189.5,-61 189.5,-91 322.5,-91 322.5,-61 189.5,-61"/>
<text text-anchor="start" x="197.5" y="-79" font-family="Helvetica,sans-Serif" font-size="10.00" fill="#000000">Foam::FrontTrackingCloud</text>
<text text-anchor="middle" x="256" y="-68" font-family="Helvetica,sans-Serif" font-size="10.00" fill="#000000">::constructingInitialFront</text>
</a>
</g>
</g>
<!-- Node44&#45;&gt;Node45 -->
<g id="edge1" class="edge">
<title>Node44&#45;&gt;Node45</title>
<path fill="none" stroke="#191970" d="M142.3116,-59.2459C157.9014,-61.5434 174.1902,-63.9438 189.408,-66.1864"/>
<polygon fill="#191970" stroke="#191970" points="142.5895,-55.7492 132.1861,-57.7537 141.5689,-62.6744 142.5895,-55.7492"/>
</g>
<!-- Node46 -->
<g id="node3" class="node">
<title>Node46</title>
<g id="a_node3"><a xlink:href="classFoam_1_1FrontTrackingCloud.html#a356c54185b3b13a1b75a8400e2676cf7" target="_top" xlink:title="Foam::FrontTrackingCloud\l::readDataOfTheFrontsAtTheCurrent\lTimeIntimeName">
<polygon fill="none" stroke="#000000" points="168,-.5 168,-41.5 344,-41.5 344,-.5 168,-.5"/>
<text text-anchor="start" x="176" y="-29.5" font-family="Helvetica,sans-Serif" font-size="10.00" fill="#000000">Foam::FrontTrackingCloud</text>
<text text-anchor="start" x="176" y="-18.5" font-family="Helvetica,sans-Serif" font-size="10.00" fill="#000000">::readDataOfTheFrontsAtTheCurrent</text>
<text text-anchor="middle" x="256" y="-7.5" font-family="Helvetica,sans-Serif" font-size="10.00" fill="#000000">TimeIntimeName</text>
</a>
</g>
</g>
<!-- Node44&#45;&gt;Node46 -->
<g id="edge2" class="edge">
<title>Node44&#45;&gt;Node46</title>
<path fill="none" stroke="#191970" d="M142.3553,-37.1495C150.7907,-35.9508 159.4303,-34.7231 167.9937,-33.5062"/>
<polygon fill="#191970" stroke="#191970" points="141.5941,-33.7224 132.1861,-38.5946 142.579,-40.6528 141.5941,-33.7224"/>
</g>
</g>
</svg>
