<?xml version="1.0" encoding="UTF-8" standalone="no"?>
<!DOCTYPE svg PUBLIC "-//W3C//DTD SVG 1.1//EN"
 "http://www.w3.org/Graphics/SVG/1.1/DTD/svg11.dtd">
<!-- Generated by graphviz version 2.40.1 (20161225.0304)
 -->
<!-- Title: Foam::FrontTrackingCloud::writeDataOfTheFrontsAtTheOutputTimeIntimeName Pages: 1 -->
<svg width="537pt" height="50pt"
 viewBox="0.00 0.00 537.00 50.00" xmlns="http://www.w3.org/2000/svg" xmlns:xlink="http://www.w3.org/1999/xlink">
<g id="graph0" class="graph" transform="scale(1 1) rotate(0) translate(4 46)">
<title>Foam::FrontTrackingCloud::writeDataOfTheFrontsAtTheOutputTimeIntimeName</title>
<!-- Node333 -->
<g id="node1" class="node">
<title>Node333</title>
<polygon fill="#bfbfbf" stroke="#000000" points="0,-.5 0,-41.5 175,-41.5 175,-.5 0,-.5"/>
<text text-anchor="start" x="8" y="-29.5" font-family="Helvetica,sans-Serif" font-size="10.00" fill="#000000">Foam::FrontTrackingCloud</text>
<text text-anchor="start" x="8" y="-18.5" font-family="Helvetica,sans-Serif" font-size="10.00" fill="#000000">::writeDataOfTheFrontsAtTheOutput</text>
<text text-anchor="middle" x="87.5" y="-7.5" font-family="Helvetica,sans-Serif" font-size="10.00" fill="#000000">TimeIntimeName</text>
</g>
<!-- Node334 -->
<g id="node2" class="node">
<title>Node334</title>
<g id="a_node2"><a xlink:href="classFoam_1_1FrontTrackingCloud.html#ab2c887bd558ca828970699810da950fb" target="_top" xlink:title="Foam::FrontTrackingCloud\l::updatePlPosInDomain">
<polygon fill="none" stroke="#000000" points="211,-6 211,-36 344,-36 344,-6 211,-6"/>
<text text-anchor="start" x="219" y="-24" font-family="Helvetica,sans-Serif" font-size="10.00" fill="#000000">Foam::FrontTrackingCloud</text>
<text text-anchor="middle" x="277.5" y="-13" font-family="Helvetica,sans-Serif" font-size="10.00" fill="#000000">::updatePlPosInDomain</text>
</a>
</g>
</g>
<!-- Node333&#45;&gt;Node334 -->
<g id="edge1" class="edge">
<title>Node333&#45;&gt;Node334</title>
<path fill="none" stroke="#191970" d="M175.2699,-21C183.7725,-21 192.3528,-21 200.7362,-21"/>
<polygon fill="#191970" stroke="#191970" points="200.846,-24.5001 210.846,-21 200.846,-17.5001 200.846,-24.5001"/>
</g>
<!-- Node335 -->
<g id="node3" class="node">
<title>Node335</title>
<g id="a_node3"><a xlink:href="classFoam_1_1FrontTrackingCloud.html#aa6fe428d5f06ec56363494e50dcddbef" target="_top" xlink:title="Foam::FrontTrackingCloud\l::updateElCentrePosInDomain">
<polygon fill="none" stroke="#000000" points="380,-6 380,-36 529,-36 529,-6 380,-6"/>
<text text-anchor="start" x="388" y="-24" font-family="Helvetica,sans-Serif" font-size="10.00" fill="#000000">Foam::FrontTrackingCloud</text>
<text text-anchor="middle" x="454.5" y="-13" font-family="Helvetica,sans-Serif" font-size="10.00" fill="#000000">::updateElCentrePosInDomain</text>
</a>
</g>
</g>
<!-- Node334&#45;&gt;Node335 -->
<g id="edge2" class="edge">
<title>Node334&#45;&gt;Node335</title>
<path fill="none" stroke="#191970" d="M344.1639,-21C352.5456,-21 361.2061,-21 369.8183,-21"/>
<polygon fill="#191970" stroke="#191970" points="369.8865,-24.5001 379.8865,-21 369.8864,-17.5001 369.8865,-24.5001"/>
</g>
</g>
</svg>
