<?xml version="1.0" encoding="UTF-8" standalone="no"?>
<!DOCTYPE svg PUBLIC "-//W3C//DTD SVG 1.1//EN"
 "http://www.w3.org/Graphics/SVG/1.1/DTD/svg11.dtd">
<!-- Generated by graphviz version 2.40.1 (20161225.0304)
 -->
<!-- Title: Foam::FrontTrackingParcel&lt; ParcelType &gt; Pages: 1 -->
<svg width="224pt" height="347pt"
 viewBox="0.00 0.00 223.50 347.00" xmlns="http://www.w3.org/2000/svg" xmlns:xlink="http://www.w3.org/1999/xlink">
<g id="graph0" class="graph" transform="scale(1 1) rotate(0) translate(4 343)">
<title>Foam::FrontTrackingParcel&lt; ParcelType &gt;</title>
<!-- Node3 -->
<g id="node1" class="node">
<title>Node3</title>
<polygon fill="#bfbfbf" stroke="#000000" points="23.5,-.5 23.5,-244.5 158.5,-244.5 158.5,-.5 23.5,-.5"/>
<text text-anchor="start" x="31.5" y="-232.5" font-family="Helvetica,sans-Serif" font-size="10.00" fill="#000000">Foam::FrontTrackingParcel</text>
<text text-anchor="middle" x="91" y="-221.5" font-family="Helvetica,sans-Serif" font-size="10.00" fill="#000000">&lt; ParcelType &gt;</text>
<polyline fill="none" stroke="#000000" points="23.5,-214.5 158.5,-214.5 "/>
<text text-anchor="start" x="31.5" y="-202.5" font-family="Helvetica,sans-Serif" font-size="10.00" fill="#000000"># currentIndex_</text>
<text text-anchor="start" x="31.5" y="-191.5" font-family="Helvetica,sans-Serif" font-size="10.00" fill="#000000"># bubbleIndex_</text>
<text text-anchor="start" x="31.5" y="-180.5" font-family="Helvetica,sans-Serif" font-size="10.00" fill="#000000">&#45; sizeofFields_</text>
<polyline fill="none" stroke="#000000" points="23.5,-173.5 158.5,-173.5 "/>
<text text-anchor="start" x="31.5" y="-161.5" font-family="Helvetica,sans-Serif" font-size="10.00" fill="#000000">+ AddToPropertyList()</text>
<text text-anchor="start" x="31.5" y="-150.5" font-family="Helvetica,sans-Serif" font-size="10.00" fill="#000000">+ FrontTrackingParcel()</text>
<text text-anchor="start" x="31.5" y="-139.5" font-family="Helvetica,sans-Serif" font-size="10.00" fill="#000000">+ FrontTrackingParcel()</text>
<text text-anchor="start" x="31.5" y="-128.5" font-family="Helvetica,sans-Serif" font-size="10.00" fill="#000000">+ FrontTrackingParcel()</text>
<text text-anchor="start" x="31.5" y="-117.5" font-family="Helvetica,sans-Serif" font-size="10.00" fill="#000000">+ FrontTrackingParcel()</text>
<text text-anchor="start" x="31.5" y="-106.5" font-family="Helvetica,sans-Serif" font-size="10.00" fill="#000000">+ FrontTrackingParcel()</text>
<text text-anchor="start" x="31.5" y="-95.5" font-family="Helvetica,sans-Serif" font-size="10.00" fill="#000000">+ clone()</text>
<text text-anchor="start" x="31.5" y="-84.5" font-family="Helvetica,sans-Serif" font-size="10.00" fill="#000000">+ clone()</text>
<text text-anchor="start" x="31.5" y="-73.5" font-family="Helvetica,sans-Serif" font-size="10.00" fill="#000000">+ currentIndex()</text>
<text text-anchor="start" x="31.5" y="-62.5" font-family="Helvetica,sans-Serif" font-size="10.00" fill="#000000">+ bubbleIndex()</text>
<text text-anchor="start" x="31.5" y="-51.5" font-family="Helvetica,sans-Serif" font-size="10.00" fill="#000000">and 24 more...</text>
<text text-anchor="start" x="31.5" y="-40.5" font-family="Helvetica,sans-Serif" font-size="10.00" fill="#000000">+ readFields()</text>
<text text-anchor="start" x="31.5" y="-29.5" font-family="Helvetica,sans-Serif" font-size="10.00" fill="#000000">+ writeFields()</text>
<text text-anchor="start" x="31.5" y="-18.5" font-family="Helvetica,sans-Serif" font-size="10.00" fill="#000000">+ readFields()</text>
<text text-anchor="start" x="31.5" y="-7.5" font-family="Helvetica,sans-Serif" font-size="10.00" fill="#000000">+ writeFields()</text>
</g>
<!-- Node4 -->
<g id="node2" class="node">
<title>Node4</title>
<polygon fill="none" stroke="#bfbfbf" points="0,-281.5 0,-338.5 66,-338.5 66,-281.5 0,-281.5"/>
<text text-anchor="middle" x="33" y="-326.5" font-family="Helvetica,sans-Serif" font-size="10.00" fill="#000000">ParcelType</text>
<polyline fill="none" stroke="#bfbfbf" points="0,-319.5 66,-319.5 "/>
<text text-anchor="middle" x="33" y="-307.5" font-family="Helvetica,sans-Serif" font-size="10.00" fill="#000000"> </text>
<polyline fill="none" stroke="#bfbfbf" points="0,-300.5 66,-300.5 "/>
<text text-anchor="middle" x="33" y="-288.5" font-family="Helvetica,sans-Serif" font-size="10.00" fill="#000000"> </text>
</g>
<!-- Node4&#45;&gt;Node3 -->
<g id="edge1" class="edge">
<title>Node4&#45;&gt;Node3</title>
<path fill="none" stroke="#191970" d="M39.3976,-271.2545C41.5328,-263.0801 44.0349,-254.0425 46.7683,-244.58"/>
<polygon fill="none" stroke="#191970" points="35.9628,-270.5607 36.8994,-281.114 42.7484,-272.2801 35.9628,-270.5607"/>
</g>
<!-- Node4&#45;&gt;Node3 -->
<g id="edge3" class="edge">
<title>Node4&#45;&gt;Node3</title>
<path fill="none" stroke="#191970" d="M50.4756,-271.5266C53.4263,-263.2809 56.5494,-254.1477 59.7049,-244.58"/>
<polygon fill="none" stroke="#191970" points="47.1171,-270.5202 46.9714,-281.114 53.6917,-272.9233 47.1171,-270.5202"/>
</g>
<!-- Node5 -->
<g id="node3" class="node">
<title>Node5</title>
<polygon fill="none" stroke="#bfbfbf" points="84.5,-281.5 84.5,-338.5 215.5,-338.5 215.5,-281.5 84.5,-281.5"/>
<text text-anchor="middle" x="150" y="-326.5" font-family="Helvetica,sans-Serif" font-size="10.00" fill="#000000">FrontTrackingParcelName</text>
<polyline fill="none" stroke="#bfbfbf" points="84.5,-319.5 215.5,-319.5 "/>
<text text-anchor="middle" x="150" y="-307.5" font-family="Helvetica,sans-Serif" font-size="10.00" fill="#000000"> </text>
<polyline fill="none" stroke="#bfbfbf" points="84.5,-300.5 215.5,-300.5 "/>
<text text-anchor="middle" x="150" y="-288.5" font-family="Helvetica,sans-Serif" font-size="10.00" fill="#000000"> </text>
</g>
<!-- Node5&#45;&gt;Node3 -->
<g id="edge2" class="edge">
<title>Node5&#45;&gt;Node3</title>
<path fill="none" stroke="#191970" d="M132.3192,-271.5266C129.3245,-263.2809 126.1527,-254.1477 122.9462,-244.58"/>
<polygon fill="none" stroke="#191970" points="129.1158,-272.9549 135.8745,-281.114 135.6791,-270.521 129.1158,-272.9549"/>
</g>
<!-- Node5&#45;&gt;Node3 -->
<g id="edge4" class="edge">
<title>Node5&#45;&gt;Node3</title>
<path fill="none" stroke="#191970" d="M143.3958,-271.2545C141.2169,-263.0801 138.6666,-254.0425 135.8828,-244.58"/>
<polygon fill="none" stroke="#191970" points="140.0534,-272.3094 145.9466,-281.114 146.8303,-270.5561 140.0534,-272.3094"/>
</g>
</g>
</svg>
