<?xml version="1.0" encoding="UTF-8" standalone="no"?>
<!DOCTYPE svg PUBLIC "-//W3C//DTD SVG 1.1//EN"
 "http://www.w3.org/Graphics/SVG/1.1/DTD/svg11.dtd">
<!-- Generated by graphviz version 2.40.1 (20161225.0304)
 -->
<!-- Title: Foam::FrontToFieldModels::Poisson::clone Pages: 1 -->
<svg width="510pt" height="176pt"
 viewBox="0.00 0.00 510.00 176.00" xmlns="http://www.w3.org/2000/svg" xmlns:xlink="http://www.w3.org/1999/xlink">
<g id="graph0" class="graph" transform="scale(1 1) rotate(0) translate(4 172)">
<title>Foam::FrontToFieldModels::Poisson::clone</title>
<!-- Node19 -->
<g id="node1" class="node">
<title>Node19</title>
<polygon fill="#bfbfbf" stroke="#000000" points="0,-66.5 0,-96.5 134,-96.5 134,-66.5 0,-66.5"/>
<text text-anchor="start" x="8" y="-84.5" font-family="Helvetica,sans-Serif" font-size="10.00" fill="#000000">Foam::FrontToFieldModels</text>
<text text-anchor="middle" x="67" y="-73.5" font-family="Helvetica,sans-Serif" font-size="10.00" fill="#000000">::Poisson::clone</text>
</g>
<!-- Node20 -->
<g id="node2" class="node">
<title>Node20</title>
<g id="a_node2"><a xlink:href="classFoam_1_1FrontToFieldModels_1_1Poisson.html#a29228145f704f90be4dbccf44b3abd6c" target="_top" xlink:title="Foam::FrontToFieldModels\l::Poisson::~Poisson">
<polygon fill="none" stroke="#000000" points="184,-137.5 184,-167.5 318,-167.5 318,-137.5 184,-137.5"/>
<text text-anchor="start" x="192" y="-155.5" font-family="Helvetica,sans-Serif" font-size="10.00" fill="#000000">Foam::FrontToFieldModels</text>
<text text-anchor="middle" x="251" y="-144.5" font-family="Helvetica,sans-Serif" font-size="10.00" fill="#000000">::Poisson::~Poisson</text>
</a>
</g>
</g>
<!-- Node19&#45;&gt;Node20 -->
<g id="edge1" class="edge">
<title>Node19&#45;&gt;Node20</title>
<path fill="none" stroke="#191970" d="M97.1748,-96.6241C117.4592,-106.4522 144.9638,-119.1314 170,-128.5 175.368,-130.5087 180.9846,-132.4634 186.6488,-134.3338"/>
<polygon fill="#191970" stroke="#191970" points="185.5995,-137.6728 196.1907,-137.3965 187.7389,-131.0077 185.5995,-137.6728"/>
</g>
<!-- Node21 -->
<g id="node3" class="node">
<title>Node21</title>
<g id="a_node3"><a xlink:href="classFoam_1_1FrontToFieldModels_1_1Poisson.html#ab00385910dc7f433e58c299a1a73bf8b" target="_top" xlink:title="Foam::FrontToFieldModels\l::Poisson::IndicatorsConstruction">
<polygon fill="none" stroke="#000000" points="170,-88.5 170,-118.5 332,-118.5 332,-88.5 170,-88.5"/>
<text text-anchor="start" x="178" y="-106.5" font-family="Helvetica,sans-Serif" font-size="10.00" fill="#000000">Foam::FrontToFieldModels</text>
<text text-anchor="middle" x="251" y="-95.5" font-family="Helvetica,sans-Serif" font-size="10.00" fill="#000000">::Poisson::IndicatorsConstruction</text>
</a>
</g>
</g>
<!-- Node19&#45;&gt;Node21 -->
<g id="edge2" class="edge">
<title>Node19&#45;&gt;Node21</title>
<path fill="none" stroke="#191970" d="M134.2093,-89.5359C142.5472,-90.5328 151.1787,-91.5648 159.8009,-92.5958"/>
<polygon fill="#191970" stroke="#191970" points="159.5552,-96.0912 169.9,-93.8033 160.3863,-89.1407 159.5552,-96.0912"/>
</g>
<!-- Node22 -->
<g id="node4" class="node">
<title>Node22</title>
<g id="a_node4"><a xlink:href="classFoam_1_1FrontToFieldModels_1_1Poisson.html#a15433cbba59f440d7ae787d8a53b63f8" target="_top" xlink:title="Foam::FrontToFieldModels\l::Poisson::collectFields">
<polygon fill="none" stroke="#000000" points="368,-22.5 368,-52.5 502,-52.5 502,-22.5 368,-22.5"/>
<text text-anchor="start" x="376" y="-40.5" font-family="Helvetica,sans-Serif" font-size="10.00" fill="#000000">Foam::FrontToFieldModels</text>
<text text-anchor="middle" x="435" y="-29.5" font-family="Helvetica,sans-Serif" font-size="10.00" fill="#000000">::Poisson::collectFields</text>
</a>
</g>
</g>
<!-- Node19&#45;&gt;Node22 -->
<g id="edge3" class="edge">
<title>Node19&#45;&gt;Node22</title>
<path fill="none" stroke="#191970" d="M134.069,-73.4809C197.1696,-65.9362 291.5976,-54.6459 357.8055,-46.7298"/>
<polygon fill="#191970" stroke="#191970" points="358.257,-50.2008 367.7707,-45.5383 357.4259,-43.2503 358.257,-50.2008"/>
</g>
<!-- Node23 -->
<g id="node5" class="node">
<title>Node23</title>
<g id="a_node5"><a xlink:href="classFoam_1_1FrontToFieldModels_1_1Poisson.html#a67c9a4b229e9f3474bf812f0d5480780" target="_top" xlink:title="Foam::FrontToFieldModels\l::Poisson::initFields">
<polygon fill="none" stroke="#000000" points="184,-.5 184,-30.5 318,-30.5 318,-.5 184,-.5"/>
<text text-anchor="start" x="192" y="-18.5" font-family="Helvetica,sans-Serif" font-size="10.00" fill="#000000">Foam::FrontToFieldModels</text>
<text text-anchor="middle" x="251" y="-7.5" font-family="Helvetica,sans-Serif" font-size="10.00" fill="#000000">::Poisson::initFields</text>
</a>
</g>
</g>
<!-- Node19&#45;&gt;Node23 -->
<g id="edge4" class="edge">
<title>Node19&#45;&gt;Node23</title>
<path fill="none" stroke="#191970" d="M109.2133,-66.3583C135.9778,-56.758 170.787,-44.2721 199.2168,-34.0744"/>
<polygon fill="#191970" stroke="#191970" points="200.7521,-37.2421 208.9831,-30.5713 198.3886,-30.6532 200.7521,-37.2421"/>
</g>
<!-- Node23&#45;&gt;Node22 -->
<g id="edge5" class="edge">
<title>Node23&#45;&gt;Node22</title>
<path fill="none" stroke="#191970" d="M318.2093,-23.5359C331.1348,-25.0813 344.7659,-26.7111 357.9739,-28.2904"/>
<polygon fill="#191970" stroke="#191970" points="357.6281,-31.7739 367.9729,-29.4859 358.4592,-24.8234 357.6281,-31.7739"/>
</g>
</g>
</svg>
