<?xml version="1.0" encoding="UTF-8" standalone="no"?>
<!DOCTYPE svg PUBLIC "-//W3C//DTD SVG 1.1//EN"
 "http://www.w3.org/Graphics/SVG/1.1/DTD/svg11.dtd">
<!-- Generated by graphviz version 2.40.1 (20161225.0304)
 -->
<!-- Title: Foam::FrontTrackingCloud::processingThefrontMeshes Pages: 1 -->
<svg width="876pt" height="88pt"
 viewBox="0.00 0.00 876.00 88.00" xmlns="http://www.w3.org/2000/svg" xmlns:xlink="http://www.w3.org/1999/xlink">
<g id="graph0" class="graph" transform="scale(1 1) rotate(0) translate(4 84)">
<title>Foam::FrontTrackingCloud::processingThefrontMeshes</title>
<!-- Node202 -->
<g id="node1" class="node">
<title>Node202</title>
<polygon fill="#bfbfbf" stroke="#000000" points="0,-27.5 0,-57.5 140,-57.5 140,-27.5 0,-27.5"/>
<text text-anchor="start" x="8" y="-45.5" font-family="Helvetica,sans-Serif" font-size="10.00" fill="#000000">Foam::FrontTrackingCloud</text>
<text text-anchor="middle" x="70" y="-34.5" font-family="Helvetica,sans-Serif" font-size="10.00" fill="#000000">::processingThefrontMeshes</text>
</g>
<!-- Node203 -->
<g id="node2" class="node">
<title>Node203</title>
<g id="a_node2"><a xlink:href="classFoam_1_1FrontTrackingCloud.html#ada5f5e05db21f49b7d61c74fecc37db0" target="_top" xlink:title="Foam::FrontTrackingCloud\l::adjustingTheCloudDataAfterChanges">
<polygon fill="none" stroke="#000000" points="176,-27.5 176,-57.5 361,-57.5 361,-27.5 176,-27.5"/>
<text text-anchor="start" x="184" y="-45.5" font-family="Helvetica,sans-Serif" font-size="10.00" fill="#000000">Foam::FrontTrackingCloud</text>
<text text-anchor="middle" x="268.5" y="-34.5" font-family="Helvetica,sans-Serif" font-size="10.00" fill="#000000">::adjustingTheCloudDataAfterChanges</text>
</a>
</g>
</g>
<!-- Node202&#45;&gt;Node203 -->
<g id="edge1" class="edge">
<title>Node202&#45;&gt;Node203</title>
<path fill="none" stroke="#191970" d="M140.263,-42.5C148.5196,-42.5 157.0695,-42.5 165.6553,-42.5"/>
<polygon fill="#191970" stroke="#191970" points="165.7355,-46.0001 175.7354,-42.5 165.7354,-39.0001 165.7355,-46.0001"/>
</g>
<!-- Node204 -->
<g id="node3" class="node">
<title>Node204</title>
<g id="a_node3"><a xlink:href="classFoam_1_1FrontTrackingCloud.html#af71f0286cb6f689c9aa0e392b4ca8eca" target="_top" xlink:title="Foam::FrontTrackingCloud\l::frontRefining">
<polygon fill="none" stroke="#000000" points="397,-27.5 397,-57.5 530,-57.5 530,-27.5 397,-27.5"/>
<text text-anchor="start" x="405" y="-45.5" font-family="Helvetica,sans-Serif" font-size="10.00" fill="#000000">Foam::FrontTrackingCloud</text>
<text text-anchor="middle" x="463.5" y="-34.5" font-family="Helvetica,sans-Serif" font-size="10.00" fill="#000000">::frontRefining</text>
</a>
</g>
</g>
<!-- Node203&#45;&gt;Node204 -->
<g id="edge2" class="edge">
<title>Node203&#45;&gt;Node204</title>
<path fill="none" stroke="#191970" d="M361.1458,-42.5C369.7389,-42.5 378.3824,-42.5 386.8083,-42.5"/>
<polygon fill="#191970" stroke="#191970" points="386.9604,-46.0001 396.9603,-42.5 386.9603,-39.0001 386.9604,-46.0001"/>
</g>
<!-- Node205 -->
<g id="node4" class="node">
<title>Node205</title>
<g id="a_node4"><a xlink:href="classFoam_1_1elementInfo.html#a3318a932982b91d66075a89a2a860212" target="_top" xlink:title="Foam::elementInfo::\lfindPointsOrder">
<polygon fill="none" stroke="#000000" points="749.5,-49.5 749.5,-79.5 853.5,-79.5 853.5,-49.5 749.5,-49.5"/>
<text text-anchor="start" x="757.5" y="-67.5" font-family="Helvetica,sans-Serif" font-size="10.00" fill="#000000">Foam::elementInfo::</text>
<text text-anchor="middle" x="801.5" y="-56.5" font-family="Helvetica,sans-Serif" font-size="10.00" fill="#000000">findPointsOrder</text>
</a>
</g>
</g>
<!-- Node204&#45;&gt;Node205 -->
<g id="edge3" class="edge">
<title>Node204&#45;&gt;Node205</title>
<path fill="none" stroke="#191970" d="M530.2779,-46.8465C591.022,-50.8002 679.9885,-56.591 739.2699,-60.4495"/>
<polygon fill="#191970" stroke="#191970" points="739.0429,-63.9421 749.2492,-61.0991 739.4977,-56.9568 739.0429,-63.9421"/>
</g>
<!-- Node206 -->
<g id="node5" class="node">
<title>Node206</title>
<g id="a_node5"><a xlink:href="classFoam_1_1FrontTrackingCloud.html#af6a86830e32ecf4700c0dfe908f8455b" target="_top" xlink:title="Foam::FrontTrackingCloud\l::frontCoarsening">
<polygon fill="none" stroke="#000000" points="566,-5.5 566,-35.5 699,-35.5 699,-5.5 566,-5.5"/>
<text text-anchor="start" x="574" y="-23.5" font-family="Helvetica,sans-Serif" font-size="10.00" fill="#000000">Foam::FrontTrackingCloud</text>
<text text-anchor="middle" x="632.5" y="-12.5" font-family="Helvetica,sans-Serif" font-size="10.00" fill="#000000">::frontCoarsening</text>
</a>
</g>
</g>
<!-- Node204&#45;&gt;Node206 -->
<g id="edge4" class="edge">
<title>Node204&#45;&gt;Node206</title>
<path fill="none" stroke="#191970" d="M530.2933,-33.805C538.7151,-32.7087 547.3826,-31.5804 555.9406,-30.4663"/>
<polygon fill="#191970" stroke="#191970" points="556.4507,-33.9295 565.9152,-29.1678 555.547,-26.9881 556.4507,-33.9295"/>
</g>
<!-- Node206&#45;&gt;Node205 -->
<g id="edge5" class="edge">
<title>Node206&#45;&gt;Node205</title>
<path fill="none" stroke="#191970" d="M690.1875,-35.5192C706.104,-39.6632 723.4363,-44.1757 739.5817,-48.3792"/>
<polygon fill="#191970" stroke="#191970" points="738.8985,-51.818 749.4578,-50.9505 740.6623,-45.0438 738.8985,-51.818"/>
</g>
<!-- Node207 -->
<g id="node6" class="node">
<title>Node207</title>
<g id="a_node6"><a xlink:href="classFoam_1_1FrontTrackingCloud.html#acd0406a159d2deeccb2b112fdbb9d3ca" target="_top" xlink:title="Foam::FrontTrackingCloud\l::isElementSmall">
<polygon fill="none" stroke="#000000" points="735,-.5 735,-30.5 868,-30.5 868,-.5 735,-.5"/>
<text text-anchor="start" x="743" y="-18.5" font-family="Helvetica,sans-Serif" font-size="10.00" fill="#000000">Foam::FrontTrackingCloud</text>
<text text-anchor="middle" x="801.5" y="-7.5" font-family="Helvetica,sans-Serif" font-size="10.00" fill="#000000">::isElementSmall</text>
</a>
</g>
</g>
<!-- Node206&#45;&gt;Node207 -->
<g id="edge6" class="edge">
<title>Node206&#45;&gt;Node207</title>
<path fill="none" stroke="#191970" d="M699.2933,-18.5239C707.6236,-18.2774 716.1942,-18.0238 724.6615,-17.7733"/>
<polygon fill="#191970" stroke="#191970" points="725.0231,-21.2643 734.9152,-17.47 724.816,-14.2673 725.0231,-21.2643"/>
</g>
</g>
</svg>
