<?xml version="1.0" encoding="UTF-8" standalone="no"?>
<!DOCTYPE svg PUBLIC "-//W3C//DTD SVG 1.1//EN"
 "http://www.w3.org/Graphics/SVG/1.1/DTD/svg11.dtd">
<!-- Generated by graphviz version 2.40.1 (20161225.0304)
 -->
<!-- Title: Foam::UndulationRemovalModels::VCSIV::clone Pages: 1 -->
<svg width="572pt" height="110pt"
 viewBox="0.00 0.00 572.00 110.00" xmlns="http://www.w3.org/2000/svg" xmlns:xlink="http://www.w3.org/1999/xlink">
<g id="graph0" class="graph" transform="scale(1 1) rotate(0) translate(4 106)">
<title>Foam::UndulationRemovalModels::VCSIV::clone</title>
<!-- Node24 -->
<g id="node1" class="node">
<title>Node24</title>
<polygon fill="#bfbfbf" stroke="#000000" points="0,-22.5 0,-52.5 164,-52.5 164,-22.5 0,-22.5"/>
<text text-anchor="start" x="8" y="-40.5" font-family="Helvetica,sans-Serif" font-size="10.00" fill="#000000">Foam::UndulationRemovalModels</text>
<text text-anchor="middle" x="82" y="-29.5" font-family="Helvetica,sans-Serif" font-size="10.00" fill="#000000">::VCSIV::clone</text>
</g>
<!-- Node25 -->
<g id="node2" class="node">
<title>Node25</title>
<g id="a_node2"><a xlink:href="classFoam_1_1UndulationRemovalModels_1_1VCSIV.html#a7cbf5fe219011cf37a333ab1d1e4c612" target="_top" xlink:title="Foam::UndulationRemovalModels\l::VCSIV::~VCSIV">
<polygon fill="none" stroke="#000000" points="200,-71.5 200,-101.5 364,-101.5 364,-71.5 200,-71.5"/>
<text text-anchor="start" x="208" y="-89.5" font-family="Helvetica,sans-Serif" font-size="10.00" fill="#000000">Foam::UndulationRemovalModels</text>
<text text-anchor="middle" x="282" y="-78.5" font-family="Helvetica,sans-Serif" font-size="10.00" fill="#000000">::VCSIV::~VCSIV</text>
</a>
</g>
</g>
<!-- Node24&#45;&gt;Node25 -->
<g id="edge1" class="edge">
<title>Node24&#45;&gt;Node25</title>
<path fill="none" stroke="#191970" d="M143.3658,-52.5346C164.675,-57.7554 188.7499,-63.6537 210.7862,-69.0526"/>
<polygon fill="#191970" stroke="#191970" points="210.2046,-72.5136 220.7503,-71.4938 211.8704,-65.7147 210.2046,-72.5136"/>
</g>
<!-- Node26 -->
<g id="node3" class="node">
<title>Node26</title>
<g id="a_node3"><a xlink:href="classFoam_1_1UndulationRemovalModels_1_1VCSIV.html#a61f9a0cf34dc95655d6a3d42646aafda" target="_top" xlink:title="Foam::UndulationRemovalModels\l::VCSIV::calculate">
<polygon fill="none" stroke="#000000" points="200,-22.5 200,-52.5 364,-52.5 364,-22.5 200,-22.5"/>
<text text-anchor="start" x="208" y="-40.5" font-family="Helvetica,sans-Serif" font-size="10.00" fill="#000000">Foam::UndulationRemovalModels</text>
<text text-anchor="middle" x="282" y="-29.5" font-family="Helvetica,sans-Serif" font-size="10.00" fill="#000000">::VCSIV::calculate</text>
</a>
</g>
</g>
<!-- Node24&#45;&gt;Node26 -->
<g id="edge2" class="edge">
<title>Node24&#45;&gt;Node26</title>
<path fill="none" stroke="#191970" d="M164.2135,-37.5C172.5625,-37.5 181.0824,-37.5 189.5302,-37.5"/>
<polygon fill="#191970" stroke="#191970" points="189.7826,-41.0001 199.7826,-37.5 189.7826,-34.0001 189.7826,-41.0001"/>
</g>
<!-- Node27 -->
<g id="node4" class="node">
<title>Node27</title>
<g id="a_node4"><a xlink:href="classFoam_1_1UndulationRemovalModels_1_1VCSIV.html#af95e18f88ce635f3a0ed658bab7cd78c" target="_top" xlink:title="Foam::UndulationRemovalModels\l::VCSIV::smoothTo">
<polygon fill="none" stroke="#000000" points="400,-.5 400,-30.5 564,-30.5 564,-.5 400,-.5"/>
<text text-anchor="start" x="408" y="-18.5" font-family="Helvetica,sans-Serif" font-size="10.00" fill="#000000">Foam::UndulationRemovalModels</text>
<text text-anchor="middle" x="482" y="-7.5" font-family="Helvetica,sans-Serif" font-size="10.00" fill="#000000">::VCSIV::smoothTo</text>
</a>
</g>
</g>
<!-- Node24&#45;&gt;Node27 -->
<g id="edge4" class="edge">
<title>Node24&#45;&gt;Node27</title>
<path fill="none" stroke="#191970" d="M144.1069,-22.4387C162.0322,-18.7543 181.6956,-15.3426 200,-13.5 263.0562,-7.1525 334.4441,-7.7354 389.6165,-9.863"/>
<polygon fill="#191970" stroke="#191970" points="389.5891,-13.3648 399.724,-10.277 389.8756,-6.3706 389.5891,-13.3648"/>
</g>
<!-- Node26&#45;&gt;Node27 -->
<g id="edge3" class="edge">
<title>Node26&#45;&gt;Node27</title>
<path fill="none" stroke="#191970" d="M364.2135,-28.4565C372.6542,-27.528 381.2696,-26.5803 389.8087,-25.641"/>
<polygon fill="#191970" stroke="#191970" points="390.2253,-29.1164 399.7826,-24.5439 389.4598,-22.1584 390.2253,-29.1164"/>
</g>
</g>
</svg>
