<?xml version="1.0" encoding="UTF-8" standalone="no"?>
<!DOCTYPE svg PUBLIC "-//W3C//DTD SVG 1.1//EN"
 "http://www.w3.org/Graphics/SVG/1.1/DTD/svg11.dtd">
<!-- Generated by graphviz version 2.40.1 (20161225.0304)
 -->
<!-- Title: Foam::SurfaceTensionModels::DirectElementBased::clone Pages: 1 -->
<svg width="406pt" height="88pt"
 viewBox="0.00 0.00 406.00 88.00" xmlns="http://www.w3.org/2000/svg" xmlns:xlink="http://www.w3.org/1999/xlink">
<g id="graph0" class="graph" transform="scale(1 1) rotate(0) translate(4 84)">
<title>Foam::SurfaceTensionModels::DirectElementBased::clone</title>
<!-- Node22 -->
<g id="node1" class="node">
<title>Node22</title>
<polygon fill="#bfbfbf" stroke="#000000" points="0,-24.5 0,-54.5 147,-54.5 147,-24.5 0,-24.5"/>
<text text-anchor="start" x="8" y="-42.5" font-family="Helvetica,sans-Serif" font-size="10.00" fill="#000000">Foam::SurfaceTensionModels</text>
<text text-anchor="middle" x="73.5" y="-31.5" font-family="Helvetica,sans-Serif" font-size="10.00" fill="#000000">::DirectElementBased::clone</text>
</g>
<!-- Node23 -->
<g id="node2" class="node">
<title>Node23</title>
<g id="a_node2"><a xlink:href="classFoam_1_1SurfaceTensionModels_1_1DirectElementBased.html#afe9b049df358d7b179df6b45e2960eba" target="_top" xlink:title="Foam::SurfaceTensionModels\l::DirectElementBased::~DirectElementBased">
<polygon fill="none" stroke="#000000" points="183,-49.5 183,-79.5 398,-79.5 398,-49.5 183,-49.5"/>
<text text-anchor="start" x="191" y="-67.5" font-family="Helvetica,sans-Serif" font-size="10.00" fill="#000000">Foam::SurfaceTensionModels</text>
<text text-anchor="middle" x="290.5" y="-56.5" font-family="Helvetica,sans-Serif" font-size="10.00" fill="#000000">::DirectElementBased::~DirectElementBased</text>
</a>
</g>
</g>
<!-- Node22&#45;&gt;Node23 -->
<g id="edge1" class="edge">
<title>Node22&#45;&gt;Node23</title>
<path fill="none" stroke="#191970" d="M147.2691,-47.9987C155.4821,-48.9449 163.9919,-49.9253 172.581,-50.9149"/>
<polygon fill="#191970" stroke="#191970" points="172.3524,-54.4116 182.6873,-52.0792 173.1536,-47.4576 172.3524,-54.4116"/>
</g>
<!-- Node24 -->
<g id="node3" class="node">
<title>Node24</title>
<g id="a_node3"><a xlink:href="classFoam_1_1SurfaceTensionModels_1_1DirectElementBased.html#acddfca0be38d2b652a7c188388997f48" target="_top" xlink:title="Foam::SurfaceTensionModels\l::DirectElementBased::calculate">
<polygon fill="none" stroke="#000000" points="211.5,-.5 211.5,-30.5 369.5,-30.5 369.5,-.5 211.5,-.5"/>
<text text-anchor="start" x="219.5" y="-18.5" font-family="Helvetica,sans-Serif" font-size="10.00" fill="#000000">Foam::SurfaceTensionModels</text>
<text text-anchor="middle" x="290.5" y="-7.5" font-family="Helvetica,sans-Serif" font-size="10.00" fill="#000000">::DirectElementBased::calculate</text>
</a>
</g>
</g>
<!-- Node22&#45;&gt;Node24 -->
<g id="edge2" class="edge">
<title>Node22&#45;&gt;Node24</title>
<path fill="none" stroke="#191970" d="M147.2691,-31.3412C164.6051,-29.4239 183.2634,-27.3603 201.1989,-25.3766"/>
<polygon fill="#191970" stroke="#191970" points="201.8119,-28.8302 211.3666,-24.2521 201.0424,-21.8727 201.8119,-28.8302"/>
</g>
</g>
</svg>
