<?xml version="1.0" encoding="UTF-8" standalone="no"?>
<!DOCTYPE svg PUBLIC "-//W3C//DTD SVG 1.1//EN"
 "http://www.w3.org/Graphics/SVG/1.1/DTD/svg11.dtd">
<!-- Generated by graphviz version 2.40.1 (20161225.0304)
 -->
<!-- Title: Foam::FrontTrackingParcel::move Pages: 1 -->
<svg width="314pt" height="88pt"
 viewBox="0.00 0.00 314.00 88.00" xmlns="http://www.w3.org/2000/svg" xmlns:xlink="http://www.w3.org/1999/xlink">
<g id="graph0" class="graph" transform="scale(1 1) rotate(0) translate(4 84)">
<title>Foam::FrontTrackingParcel::move</title>
<!-- Node82 -->
<g id="node1" class="node">
<title>Node82</title>
<polygon fill="#bfbfbf" stroke="#000000" points="0,-24.5 0,-54.5 135,-54.5 135,-24.5 0,-24.5"/>
<text text-anchor="start" x="8" y="-42.5" font-family="Helvetica,sans-Serif" font-size="10.00" fill="#000000">Foam::FrontTrackingParcel</text>
<text text-anchor="middle" x="67.5" y="-31.5" font-family="Helvetica,sans-Serif" font-size="10.00" fill="#000000">::move</text>
</g>
<!-- Node83 -->
<g id="node2" class="node">
<title>Node83</title>
<g id="a_node2"><a xlink:href="classFoam_1_1FrontTrackingParcel_1_1trackingData.html#a5bbb8cb002bf9f32f9185defc523924e" target="_top" xlink:title="Foam::FrontTrackingParcel\l::trackingData::part">
<polygon fill="none" stroke="#000000" points="171,-49.5 171,-79.5 306,-79.5 306,-49.5 171,-49.5"/>
<text text-anchor="start" x="179" y="-67.5" font-family="Helvetica,sans-Serif" font-size="10.00" fill="#000000">Foam::FrontTrackingParcel</text>
<text text-anchor="middle" x="238.5" y="-56.5" font-family="Helvetica,sans-Serif" font-size="10.00" fill="#000000">::trackingData::part</text>
</a>
</g>
</g>
<!-- Node82&#45;&gt;Node83 -->
<g id="edge1" class="edge">
<title>Node82&#45;&gt;Node83</title>
<path fill="none" stroke="#191970" d="M135.0837,-49.3807C143.5381,-50.6167 152.2372,-51.8885 160.83,-53.1447"/>
<polygon fill="#191970" stroke="#191970" points="160.4461,-56.6257 170.8472,-54.6092 161.4587,-49.6994 160.4461,-56.6257"/>
</g>
<!-- Node84 -->
<g id="node3" class="node">
<title>Node84</title>
<g id="a_node3"><a xlink:href="classFoam_1_1FrontTrackingParcel.html#abe990b4257a6c9a4238522b32665dc77" target="_top" xlink:title="Foam::FrontTrackingParcel\l::moveDistance">
<polygon fill="none" stroke="#000000" points="171,-.5 171,-30.5 306,-30.5 306,-.5 171,-.5"/>
<text text-anchor="start" x="179" y="-18.5" font-family="Helvetica,sans-Serif" font-size="10.00" fill="#000000">Foam::FrontTrackingParcel</text>
<text text-anchor="middle" x="238.5" y="-7.5" font-family="Helvetica,sans-Serif" font-size="10.00" fill="#000000">::moveDistance</text>
</a>
</g>
</g>
<!-- Node82&#45;&gt;Node84 -->
<g id="edge2" class="edge">
<title>Node82&#45;&gt;Node84</title>
<path fill="none" stroke="#191970" d="M135.0837,-30.0146C143.5381,-28.828 152.2372,-27.6071 160.83,-26.4011"/>
<polygon fill="#191970" stroke="#191970" points="161.4308,-29.8511 170.8472,-24.9951 160.4578,-22.9191 161.4308,-29.8511"/>
</g>
</g>
</svg>
