<?xml version="1.0" encoding="UTF-8" standalone="no"?>
<!DOCTYPE svg PUBLIC "-//W3C//DTD SVG 1.1//EN"
 "http://www.w3.org/Graphics/SVG/1.1/DTD/svg11.dtd">
<!-- Generated by graphviz version 2.40.1 (20161225.0304)
 -->
<!-- Title: Foam::bubbleData::pointToElementMapping Pages: 1 -->
<svg width="549pt" height="108pt"
 viewBox="0.00 0.00 549.00 107.50" xmlns="http://www.w3.org/2000/svg" xmlns:xlink="http://www.w3.org/1999/xlink">
<g id="graph0" class="graph" transform="scale(1 1) rotate(0) translate(4 103.5)">
<title>Foam::bubbleData::pointToElementMapping</title>
<!-- Node22 -->
<g id="node1" class="node">
<title>Node22</title>
<polygon fill="#bfbfbf" stroke="#000000" points="0,-34 0,-64 135,-64 135,-34 0,-34"/>
<text text-anchor="start" x="8" y="-52" font-family="Helvetica,sans-Serif" font-size="10.00" fill="#000000">Foam::bubbleData::pointTo</text>
<text text-anchor="middle" x="67.5" y="-41" font-family="Helvetica,sans-Serif" font-size="10.00" fill="#000000">ElementMapping</text>
</g>
<!-- Node23 -->
<g id="node2" class="node">
<title>Node23</title>
<g id="a_node2"><a xlink:href="classFoam_1_1bubbleData.html#ae39fb04d51d3f94e71b2f5c39e5b6c56" target="_top" xlink:title="Foam::bubbleData::ptConnected\lPoints">
<polygon fill="none" stroke="#000000" points="171,-34 171,-64 329,-64 329,-34 171,-34"/>
<text text-anchor="start" x="179" y="-52" font-family="Helvetica,sans-Serif" font-size="10.00" fill="#000000">Foam::bubbleData::ptConnected</text>
<text text-anchor="middle" x="250" y="-41" font-family="Helvetica,sans-Serif" font-size="10.00" fill="#000000">Points</text>
</a>
</g>
</g>
<!-- Node22&#45;&gt;Node23 -->
<g id="edge1" class="edge">
<title>Node22&#45;&gt;Node23</title>
<path fill="none" stroke="#191970" d="M145.3414,-49C153.7371,-49 162.2877,-49 170.7003,-49"/>
<polygon fill="#191970" stroke="#191970" points="145.197,-45.5001 135.1969,-49 145.1969,-52.5001 145.197,-45.5001"/>
</g>
<!-- Node24 -->
<g id="node3" class="node">
<title>Node24</title>
<g id="a_node3"><a xlink:href="classFoam_1_1FrontTrackingCloud.html#a5719f87b5899aa9675daf150a997f37a" target="_top" xlink:title="Foam::FrontTrackingCloud\l::constructingInitialFront">
<polygon fill="none" stroke="#000000" points="386.5,-69 386.5,-99 519.5,-99 519.5,-69 386.5,-69"/>
<text text-anchor="start" x="394.5" y="-87" font-family="Helvetica,sans-Serif" font-size="10.00" fill="#000000">Foam::FrontTrackingCloud</text>
<text text-anchor="middle" x="453" y="-76" font-family="Helvetica,sans-Serif" font-size="10.00" fill="#000000">::constructingInitialFront</text>
</a>
</g>
</g>
<!-- Node22&#45;&gt;Node24 -->
<g id="edge4" class="edge">
<title>Node22&#45;&gt;Node24</title>
<path fill="none" stroke="#191970" d="M133.3748,-66.232C145.7975,-68.9235 158.7385,-71.3543 171,-73 244.2044,-82.8255 328.981,-84.8935 386.3162,-84.9333"/>
<polygon fill="#191970" stroke="#191970" points="134.0696,-62.801 123.546,-64.0276 132.5377,-69.6313 134.0696,-62.801"/>
</g>
<!-- Node25 -->
<g id="node4" class="node">
<title>Node25</title>
<g id="a_node4"><a xlink:href="classFoam_1_1FrontTrackingCloud.html#a356c54185b3b13a1b75a8400e2676cf7" target="_top" xlink:title="Foam::FrontTrackingCloud\l::readDataOfTheFrontsAtTheCurrent\lTimeIntimeName">
<polygon fill="none" stroke="#000000" points="365,-.5 365,-41.5 541,-41.5 541,-.5 365,-.5"/>
<text text-anchor="start" x="373" y="-29.5" font-family="Helvetica,sans-Serif" font-size="10.00" fill="#000000">Foam::FrontTrackingCloud</text>
<text text-anchor="start" x="373" y="-18.5" font-family="Helvetica,sans-Serif" font-size="10.00" fill="#000000">::readDataOfTheFrontsAtTheCurrent</text>
<text text-anchor="middle" x="453" y="-7.5" font-family="Helvetica,sans-Serif" font-size="10.00" fill="#000000">TimeIntimeName</text>
</a>
</g>
</g>
<!-- Node22&#45;&gt;Node25 -->
<g id="edge5" class="edge">
<title>Node22&#45;&gt;Node25</title>
<path fill="none" stroke="#191970" d="M129.455,-31.6248C143.0384,-28.4935 157.4197,-25.6902 171,-24 235.4982,-15.9726 308.9343,-15.4638 364.6951,-16.8346"/>
<polygon fill="#191970" stroke="#191970" points="128.6394,-28.2211 119.7281,-33.9517 130.268,-35.029 128.6394,-28.2211"/>
</g>
<!-- Node23&#45;&gt;Node24 -->
<g id="edge2" class="edge">
<title>Node23&#45;&gt;Node24</title>
<path fill="none" stroke="#191970" d="M339.3582,-64.4066C355.1313,-67.1261 371.3013,-69.914 386.315,-72.5026"/>
<polygon fill="#191970" stroke="#191970" points="339.5157,-60.8822 329.0664,-62.6321 338.3263,-67.7804 339.5157,-60.8822"/>
</g>
<!-- Node23&#45;&gt;Node25 -->
<g id="edge3" class="edge">
<title>Node23&#45;&gt;Node25</title>
<path fill="none" stroke="#191970" d="M339.0136,-36.7223C347.5465,-35.5453 356.1989,-34.3519 364.7247,-33.1759"/>
<polygon fill="#191970" stroke="#191970" points="338.4943,-33.2607 329.0664,-38.0943 339.4508,-40.195 338.4943,-33.2607"/>
</g>
</g>
</svg>
