<?xml version="1.0" encoding="UTF-8" standalone="no"?>
<!DOCTYPE svg PUBLIC "-//W3C//DTD SVG 1.1//EN"
 "http://www.w3.org/Graphics/SVG/1.1/DTD/svg11.dtd">
<!-- Generated by graphviz version 2.40.1 (20161225.0304)
 -->
<!-- Title: clouds/Templates/FrontTrackingCloud/bubbleData/bubbleData.H Pages: 1 -->
<svg width="1700pt" height="95pt"
 viewBox="0.00 0.00 1699.50 95.00" xmlns="http://www.w3.org/2000/svg" xmlns:xlink="http://www.w3.org/1999/xlink">
<g id="graph0" class="graph" transform="scale(1 1) rotate(0) translate(4 91)">
<title>clouds/Templates/FrontTrackingCloud/bubbleData/bubbleData.H</title>
<!-- Node0 -->
<g id="node1" class="node">
<title>Node0</title>
<polygon fill="#bfbfbf" stroke="#000000" points="806.5,-56.5 806.5,-86.5 964.5,-86.5 964.5,-56.5 806.5,-56.5"/>
<text text-anchor="start" x="814.5" y="-74.5" font-family="Helvetica,sans-Serif" font-size="10.00" fill="#000000">clouds/Templates/FrontTracking</text>
<text text-anchor="middle" x="885.5" y="-63.5" font-family="Helvetica,sans-Serif" font-size="10.00" fill="#000000">Cloud/bubbleData/bubbleData.H</text>
</g>
<!-- Node1 -->
<g id="node2" class="node">
<title>Node1</title>
<polygon fill="none" stroke="#bfbfbf" points="0,-.5 0,-19.5 59,-19.5 59,-.5 0,-.5"/>
<text text-anchor="middle" x="29.5" y="-7.5" font-family="Helvetica,sans-Serif" font-size="10.00" fill="#000000">fvMesh.H</text>
</g>
<!-- Node0&#45;&gt;Node1 -->
<g id="edge1" class="edge">
<title>Node0&#45;&gt;Node1</title>
<path fill="none" stroke="#191970" d="M806.4637,-68.4151C633.9339,-61.3791 227.1148,-43.0695 69.2248,-19.7681"/>
<polygon fill="#191970" stroke="#191970" points="69.6056,-16.2856 59.19,-18.2261 68.5424,-23.2044 69.6056,-16.2856"/>
</g>
<!-- Node2 -->
<g id="node3" class="node">
<title>Node2</title>
<polygon fill="none" stroke="#bfbfbf" points="77.5,-.5 77.5,-19.5 143.5,-19.5 143.5,-.5 77.5,-.5"/>
<text text-anchor="middle" x="110.5" y="-7.5" font-family="Helvetica,sans-Serif" font-size="10.00" fill="#000000">fileName.H</text>
</g>
<!-- Node0&#45;&gt;Node2 -->
<g id="edge2" class="edge">
<title>Node0&#45;&gt;Node2</title>
<path fill="none" stroke="#191970" d="M806.3878,-70.1751C673.3327,-67.0167 396.3308,-56.4505 153.933,-19.9974"/>
<polygon fill="#191970" stroke="#191970" points="154.2863,-16.5109 143.8735,-18.4665 153.2331,-23.4312 154.2863,-16.5109"/>
</g>
<!-- Node3 -->
<g id="node4" class="node">
<title>Node3</title>
<polygon fill="none" stroke="#bfbfbf" points="162,-.5 162,-19.5 231,-19.5 231,-.5 162,-.5"/>
<text text-anchor="middle" x="196.5" y="-7.5" font-family="Helvetica,sans-Serif" font-size="10.00" fill="#000000">pointField.H</text>
</g>
<!-- Node0&#45;&gt;Node3 -->
<g id="edge3" class="edge">
<title>Node0&#45;&gt;Node3</title>
<path fill="none" stroke="#191970" d="M806.3914,-68.8472C686.2459,-64.0076 450.535,-51.3391 241.4151,-19.9361"/>
<polygon fill="#191970" stroke="#191970" points="241.8899,-16.4682 231.4777,-18.4266 240.8386,-23.3888 241.8899,-16.4682"/>
</g>
<!-- Node4 -->
<g id="node5" class="node">
<title>Node4</title>
<polygon fill="none" stroke="#bfbfbf" points="249.5,-.5 249.5,-19.5 297.5,-19.5 297.5,-.5 249.5,-.5"/>
<text text-anchor="middle" x="273.5" y="-7.5" font-family="Helvetica,sans-Serif" font-size="10.00" fill="#000000">point.H</text>
</g>
<!-- Node0&#45;&gt;Node4 -->
<g id="edge4" class="edge">
<title>Node0&#45;&gt;Node4</title>
<path fill="none" stroke="#191970" d="M806.1154,-69.5912C695.9143,-65.7996 490.4437,-54.5999 307.5768,-19.8407"/>
<polygon fill="#191970" stroke="#191970" points="307.9889,-16.3557 297.5069,-17.8981 306.6629,-23.229 307.9889,-16.3557"/>
</g>
<!-- Node5 -->
<g id="node6" class="node">
<title>Node5</title>
<polygon fill="none" stroke="#bfbfbf" points="315.5,-.5 315.5,-19.5 371.5,-19.5 371.5,-.5 315.5,-.5"/>
<text text-anchor="middle" x="343.5" y="-7.5" font-family="Helvetica,sans-Serif" font-size="10.00" fill="#000000">DLList.H</text>
</g>
<!-- Node0&#45;&gt;Node5 -->
<g id="edge5" class="edge">
<title>Node0&#45;&gt;Node5</title>
<path fill="none" stroke="#191970" d="M806.2117,-67.4044C708.4295,-61.461 537.1136,-48.1427 381.8746,-19.9959"/>
<polygon fill="#191970" stroke="#191970" points="382.1415,-16.4864 371.6735,-18.1204 380.8757,-23.371 382.1415,-16.4864"/>
</g>
<!-- Node6 -->
<g id="node7" class="node">
<title>Node6</title>
<polygon fill="none" stroke="#bfbfbf" points="390,-.5 390,-19.5 475,-19.5 475,-.5 390,-.5"/>
<text text-anchor="middle" x="432.5" y="-7.5" font-family="Helvetica,sans-Serif" font-size="10.00" fill="#000000">sphereToCell.H</text>
</g>
<!-- Node0&#45;&gt;Node6 -->
<g id="edge6" class="edge">
<title>Node0&#45;&gt;Node6</title>
<path fill="none" stroke="#191970" d="M806.3287,-62.9248C727.3137,-54.0094 602.2226,-38.9306 484.9129,-20.152"/>
<polygon fill="#191970" stroke="#191970" points="485.4687,-16.6965 475.0389,-18.5596 484.3541,-23.6072 485.4687,-16.6965"/>
</g>
<!-- Node7 -->
<g id="node8" class="node">
<title>Node7</title>
<polygon fill="none" stroke="#bfbfbf" points="493,-.5 493,-19.5 550,-19.5 550,-.5 493,-.5"/>
<text text-anchor="middle" x="521.5" y="-7.5" font-family="Helvetica,sans-Serif" font-size="10.00" fill="#000000">cellSet.H</text>
</g>
<!-- Node0&#45;&gt;Node7 -->
<g id="edge7" class="edge">
<title>Node0&#45;&gt;Node7</title>
<path fill="none" stroke="#191970" d="M806.4356,-61.4798C742.3373,-52.7971 649.5281,-38.9623 560.1451,-20.1909"/>
<polygon fill="#191970" stroke="#191970" points="560.6181,-16.7133 550.1091,-18.059 559.1636,-23.5606 560.6181,-16.7133"/>
</g>
<!-- Node8 -->
<g id="node9" class="node">
<title>Node8</title>
<polygon fill="none" stroke="#bfbfbf" points="568,-.5 568,-19.5 651,-19.5 651,-.5 568,-.5"/>
<text text-anchor="middle" x="609.5" y="-7.5" font-family="Helvetica,sans-Serif" font-size="10.00" fill="#000000">simpleMatrix.H</text>
</g>
<!-- Node0&#45;&gt;Node8 -->
<g id="edge8" class="edge">
<title>Node0&#45;&gt;Node8</title>
<path fill="none" stroke="#191970" d="M817.9828,-56.4554C769.5685,-45.6674 705.3333,-31.3542 661.0227,-21.4806"/>
<polygon fill="#191970" stroke="#191970" points="661.5694,-18.0167 651.0475,-19.2579 660.0469,-24.8491 661.5694,-18.0167"/>
</g>
<!-- Node9 -->
<g id="node10" class="node">
<title>Node9</title>
<polygon fill="none" stroke="#bfbfbf" points="669,-.5 669,-19.5 800,-19.5 800,-.5 669,-.5"/>
<text text-anchor="middle" x="734.5" y="-7.5" font-family="Helvetica,sans-Serif" font-size="10.00" fill="#000000">mathematicalConstants.H</text>
</g>
<!-- Node0&#45;&gt;Node9 -->
<g id="edge9" class="edge">
<title>Node0&#45;&gt;Node9</title>
<path fill="none" stroke="#191970" d="M848.5612,-56.4554C823.698,-46.329 791.2082,-33.0964 767.2664,-23.3453"/>
<polygon fill="#191970" stroke="#191970" points="768.4812,-20.0609 757.8996,-19.5303 765.8407,-26.5438 768.4812,-20.0609"/>
</g>
<!-- Node10 -->
<g id="node11" class="node">
<title>Node10</title>
<polygon fill="none" stroke="#bfbfbf" points="818.5,-.5 818.5,-19.5 874.5,-19.5 874.5,-.5 818.5,-.5"/>
<text text-anchor="middle" x="846.5" y="-7.5" font-family="Helvetica,sans-Serif" font-size="10.00" fill="#000000">fvCFD.H</text>
</g>
<!-- Node0&#45;&gt;Node10 -->
<g id="edge10" class="edge">
<title>Node0&#45;&gt;Node10</title>
<path fill="none" stroke="#191970" d="M875.8595,-56.2977C870.5023,-47.8498 863.7978,-37.2773 858.1487,-28.369"/>
<polygon fill="#191970" stroke="#191970" points="861.0556,-26.4176 852.7444,-19.8469 855.1441,-30.1664 861.0556,-26.4176"/>
</g>
<!-- Node11 -->
<g id="node12" class="node">
<title>Node11</title>
<polygon fill="none" stroke="#bfbfbf" points="892.5,-.5 892.5,-19.5 958.5,-19.5 958.5,-.5 892.5,-.5"/>
<text text-anchor="middle" x="925.5" y="-7.5" font-family="Helvetica,sans-Serif" font-size="10.00" fill="#000000">IFstream.H</text>
</g>
<!-- Node0&#45;&gt;Node11 -->
<g id="edge11" class="edge">
<title>Node0&#45;&gt;Node11</title>
<path fill="none" stroke="#191970" d="M895.3876,-56.2977C900.8822,-47.8498 907.7586,-37.2773 913.5527,-28.369"/>
<polygon fill="#191970" stroke="#191970" points="916.5772,-30.1381 919.0955,-19.8469 910.7092,-26.3215 916.5772,-30.1381"/>
</g>
<!-- Node12 -->
<g id="node13" class="node">
<title>Node12</title>
<polygon fill="none" stroke="#bfbfbf" points="977,-.5 977,-19.5 1048,-19.5 1048,-.5 977,-.5"/>
<text text-anchor="middle" x="1012.5" y="-7.5" font-family="Helvetica,sans-Serif" font-size="10.00" fill="#000000">OFstream.H</text>
</g>
<!-- Node0&#45;&gt;Node12 -->
<g id="edge12" class="edge">
<title>Node0&#45;&gt;Node12</title>
<path fill="none" stroke="#191970" d="M916.5677,-56.4554C937.0145,-46.554 963.5937,-33.683 983.5885,-24.0004"/>
<polygon fill="#191970" stroke="#191970" points="985.3447,-27.0388 992.8195,-19.5303 982.2938,-20.7387 985.3447,-27.0388"/>
</g>
<!-- Node13 -->
<g id="node14" class="node">
<title>Node13</title>
<polygon fill="none" stroke="#bfbfbf" points="1066,-.5 1066,-19.5 1153,-19.5 1153,-.5 1066,-.5"/>
<text text-anchor="middle" x="1109.5" y="-7.5" font-family="Helvetica,sans-Serif" font-size="10.00" fill="#000000">IStringStream.H</text>
</g>
<!-- Node0&#45;&gt;Node13 -->
<g id="edge13" class="edge">
<title>Node0&#45;&gt;Node13</title>
<path fill="none" stroke="#191970" d="M940.2966,-56.4554C978.6551,-45.9239 1029.2505,-32.0328 1065.0924,-22.1923"/>
<polygon fill="#191970" stroke="#191970" points="1066.0715,-25.5531 1074.788,-19.5303 1064.2181,-18.8028 1066.0715,-25.5531"/>
</g>
<!-- Node14 -->
<g id="node15" class="node">
<title>Node14</title>
<polygon fill="none" stroke="#bfbfbf" points="1171.5,-.5 1171.5,-19.5 1263.5,-19.5 1263.5,-.5 1171.5,-.5"/>
<text text-anchor="middle" x="1217.5" y="-7.5" font-family="Helvetica,sans-Serif" font-size="10.00" fill="#000000">OStringStream.H</text>
</g>
<!-- Node0&#45;&gt;Node14 -->
<g id="edge14" class="edge">
<title>Node0&#45;&gt;Node14</title>
<path fill="none" stroke="#191970" d="M964.6005,-56.8474C1025.1416,-45.6327 1107.1587,-30.4397 1161.16,-20.4365"/>
<polygon fill="#191970" stroke="#191970" points="1162.0434,-23.8325 1171.2386,-18.5695 1160.7684,-16.9496 1162.0434,-23.8325"/>
</g>
<!-- Node15 -->
<g id="node16" class="node">
<title>Node15</title>
<polygon fill="none" stroke="#bfbfbf" points="1281.5,-.5 1281.5,-19.5 1331.5,-19.5 1331.5,-.5 1281.5,-.5"/>
<text text-anchor="middle" x="1306.5" y="-7.5" font-family="Helvetica,sans-Serif" font-size="10.00" fill="#000000">fstream</text>
</g>
<!-- Node0&#45;&gt;Node15 -->
<g id="edge15" class="edge">
<title>Node0&#45;&gt;Node15</title>
<path fill="none" stroke="#191970" d="M964.6737,-64.5603C1041.0185,-57.052 1159.8666,-43.2194 1271.292,-19.9915"/>
<polygon fill="#191970" stroke="#191970" points="1272.2997,-23.3559 1281.3592,-17.8626 1270.8514,-16.5073 1272.2997,-23.3559"/>
</g>
<!-- Node16 -->
<g id="node17" class="node">
<title>Node16</title>
<polygon fill="none" stroke="#bfbfbf" points="1349.5,-.5 1349.5,-19.5 1403.5,-19.5 1403.5,-.5 1349.5,-.5"/>
<text text-anchor="middle" x="1376.5" y="-7.5" font-family="Helvetica,sans-Serif" font-size="10.00" fill="#000000">iostream</text>
</g>
<!-- Node0&#45;&gt;Node16 -->
<g id="edge16" class="edge">
<title>Node0&#45;&gt;Node16</title>
<path fill="none" stroke="#191970" d="M964.578,-66.3626C1053.6579,-59.7171 1202.7866,-46.011 1339.6505,-19.9005"/>
<polygon fill="#191970" stroke="#191970" points="1340.329,-23.3342 1349.4825,-17.999 1338.9998,-16.4615 1340.329,-23.3342"/>
</g>
<!-- Node17 -->
<g id="node18" class="node">
<title>Node17</title>
<polygon fill="none" stroke="#bfbfbf" points="1422,-.5 1422,-19.5 1463,-19.5 1463,-.5 1422,-.5"/>
<text text-anchor="middle" x="1442.5" y="-7.5" font-family="Helvetica,sans-Serif" font-size="10.00" fill="#000000">string</text>
</g>
<!-- Node0&#45;&gt;Node17 -->
<g id="edge17" class="edge">
<title>Node0&#45;&gt;Node17</title>
<path fill="none" stroke="#191970" d="M964.9148,-69.2766C1066.6788,-65.1966 1248.3994,-53.7612 1411.4677,-19.7676"/>
<polygon fill="#191970" stroke="#191970" points="1412.6276,-23.0996 1421.6849,-17.6026 1411.1765,-16.2516 1412.6276,-23.0996"/>
</g>
<!-- Node18 -->
<g id="node19" class="node">
<title>Node18</title>
<polygon fill="none" stroke="#bfbfbf" points="1481.5,-.5 1481.5,-19.5 1525.5,-19.5 1525.5,-.5 1481.5,-.5"/>
<text text-anchor="middle" x="1503.5" y="-7.5" font-family="Helvetica,sans-Serif" font-size="10.00" fill="#000000">cmath</text>
</g>
<!-- Node0&#45;&gt;Node18 -->
<g id="edge18" class="edge">
<title>Node0&#45;&gt;Node18</title>
<path fill="none" stroke="#191970" d="M964.5188,-66.7741C1097.3515,-58.4721 1360.914,-40.3753 1471.4152,-19.7563"/>
<polygon fill="#191970" stroke="#191970" points="1472.1676,-23.1756 1481.3081,-17.8181 1470.8217,-16.3062 1472.1676,-23.1756"/>
</g>
<!-- Node19 -->
<g id="node20" class="node">
<title>Node19</title>
<polygon fill="none" stroke="#bfbfbf" points="1543.5,-.5 1543.5,-19.5 1593.5,-19.5 1593.5,-.5 1543.5,-.5"/>
<text text-anchor="middle" x="1568.5" y="-7.5" font-family="Helvetica,sans-Serif" font-size="10.00" fill="#000000">iomanip</text>
</g>
<!-- Node0&#45;&gt;Node19 -->
<g id="edge19" class="edge">
<title>Node0&#45;&gt;Node19</title>
<path fill="none" stroke="#191970" d="M964.5818,-67.2771C1108.78,-59.2463 1410.1719,-40.8506 1533.4244,-19.7967"/>
<polygon fill="#191970" stroke="#191970" points="1534.1616,-23.2205 1543.3894,-18.0149 1532.9295,-16.3298 1534.1616,-23.2205"/>
</g>
<!-- Node20 -->
<g id="node21" class="node">
<title>Node20</title>
<g id="a_node21"><a xlink:href="clouds_2Templates_2FrontTrackingCloud_2bubbleData_2bubbleDataI_8H.html" target="_top" xlink:title="bubbleDataI.H">
<polygon fill="none" stroke="#000000" points="1611.5,-.5 1611.5,-19.5 1691.5,-19.5 1691.5,-.5 1611.5,-.5"/>
<text text-anchor="middle" x="1651.5" y="-7.5" font-family="Helvetica,sans-Serif" font-size="10.00" fill="#000000">bubbleDataI.H</text>
</a>
</g>
</g>
<!-- Node0&#45;&gt;Node20 -->
<g id="edge20" class="edge">
<title>Node0&#45;&gt;Node20</title>
<path fill="none" stroke="#191970" d="M964.6244,-69.168C1095.2543,-64.5798 1364.3104,-52.0158 1601.2708,-20.0029"/>
<polygon fill="#191970" stroke="#191970" points="1602.0267,-23.4322 1611.4612,-18.6114 1601.0796,-16.4966 1602.0267,-23.4322"/>
</g>
</g>
</svg>
