<?xml version="1.0" encoding="UTF-8" standalone="no"?>
<!DOCTYPE svg PUBLIC "-//W3C//DTD SVG 1.1//EN"
 "http://www.w3.org/Graphics/SVG/1.1/DTD/svg11.dtd">
<!-- Generated by graphviz version 2.40.1 (20161225.0304)
 -->
<!-- Title: clouds/derived/frontTrackingCloud/frontTrackingCloud.C Pages: 1 -->
<svg width="590pt" height="151pt"
 viewBox="0.00 0.00 589.50 151.00" xmlns="http://www.w3.org/2000/svg" xmlns:xlink="http://www.w3.org/1999/xlink">
<g id="graph0" class="graph" transform="scale(1 1) rotate(0) translate(4 147)">
<title>clouds/derived/frontTrackingCloud/frontTrackingCloud.C</title>
<!-- Node0 -->
<g id="node1" class="node">
<title>Node0</title>
<polygon fill="#bfbfbf" stroke="#000000" points="302.5,-112.5 302.5,-142.5 442.5,-142.5 442.5,-112.5 302.5,-112.5"/>
<text text-anchor="start" x="310.5" y="-130.5" font-family="Helvetica,sans-Serif" font-size="10.00" fill="#000000">clouds/derived/frontTracking</text>
<text text-anchor="middle" x="372.5" y="-119.5" font-family="Helvetica,sans-Serif" font-size="10.00" fill="#000000">Cloud/frontTrackingCloud.C</text>
</g>
<!-- Node1 -->
<g id="node2" class="node">
<title>Node1</title>
<g id="a_node2"><a xlink:href="clouds_2derived_2frontTrackingCloud_2frontTrackingCloud_8H.html" target="_top" xlink:title="frontTrackingCloud.H">
<polygon fill="none" stroke="#000000" points="241.5,-56.5 241.5,-75.5 351.5,-75.5 351.5,-56.5 241.5,-56.5"/>
<text text-anchor="middle" x="296.5" y="-63.5" font-family="Helvetica,sans-Serif" font-size="10.00" fill="#000000">frontTrackingCloud.H</text>
</a>
</g>
</g>
<!-- Node0&#45;&gt;Node1 -->
<g id="edge1" class="edge">
<title>Node0&#45;&gt;Node1</title>
<path fill="none" stroke="#191970" d="M353.7135,-112.2977C342.3947,-103.1384 327.9895,-91.4816 316.4654,-82.1562"/>
<polygon fill="#191970" stroke="#191970" points="318.6439,-79.4167 308.6686,-75.8469 314.2405,-84.8583 318.6439,-79.4167"/>
</g>
<!-- Node7 -->
<g id="node8" class="node">
<title>Node7</title>
<polygon fill="none" stroke="#bfbfbf" points="369.5,-56.5 369.5,-75.5 527.5,-75.5 527.5,-56.5 369.5,-56.5"/>
<text text-anchor="middle" x="448.5" y="-63.5" font-family="Helvetica,sans-Serif" font-size="10.00" fill="#000000">addToRunTimeSelectionTable.H</text>
</g>
<!-- Node0&#45;&gt;Node7 -->
<g id="edge7" class="edge">
<title>Node0&#45;&gt;Node7</title>
<path fill="none" stroke="#191970" d="M391.2865,-112.2977C402.6053,-103.1384 417.0105,-91.4816 428.5346,-82.1562"/>
<polygon fill="#191970" stroke="#191970" points="430.7595,-84.8583 436.3314,-75.8469 426.3561,-79.4167 430.7595,-84.8583"/>
</g>
<!-- Node2 -->
<g id="node3" class="node">
<title>Node2</title>
<polygon fill="none" stroke="#bfbfbf" points="0,-.5 0,-19.5 103,-19.5 103,-.5 0,-.5"/>
<text text-anchor="middle" x="51.5" y="-7.5" font-family="Helvetica,sans-Serif" font-size="10.00" fill="#000000">ParcelCloudBase.H</text>
</g>
<!-- Node1&#45;&gt;Node2 -->
<g id="edge2" class="edge">
<title>Node1&#45;&gt;Node2</title>
<path fill="none" stroke="#191970" d="M254.6614,-56.4369C212.7315,-46.8529 148.1052,-32.0812 103.0376,-21.78"/>
<polygon fill="#191970" stroke="#191970" points="103.6946,-18.34 93.1661,-19.5237 102.1347,-25.164 103.6946,-18.34"/>
</g>
<!-- Node3 -->
<g id="node4" class="node">
<title>Node3</title>
<polygon fill="none" stroke="#bfbfbf" points="121,-.5 121,-19.5 222,-19.5 222,-.5 121,-.5"/>
<text text-anchor="middle" x="171.5" y="-7.5" font-family="Helvetica,sans-Serif" font-size="10.00" fill="#000000">MomentumCloud.H</text>
</g>
<!-- Node1&#45;&gt;Node3 -->
<g id="edge3" class="edge">
<title>Node1&#45;&gt;Node3</title>
<path fill="none" stroke="#191970" d="M275.0117,-56.3733C254.856,-47.3435 224.512,-33.7494 201.882,-23.6111"/>
<polygon fill="#191970" stroke="#191970" points="203.2649,-20.3955 192.7079,-19.5011 200.4029,-26.7838 203.2649,-20.3955"/>
</g>
<!-- Node4 -->
<g id="node5" class="node">
<title>Node4</title>
<polygon fill="none" stroke="#bfbfbf" points="240,-.5 240,-19.5 353,-19.5 353,-.5 240,-.5"/>
<text text-anchor="middle" x="296.5" y="-7.5" font-family="Helvetica,sans-Serif" font-size="10.00" fill="#000000">FrontTrackingCloud.H</text>
</g>
<!-- Node1&#45;&gt;Node4 -->
<g id="edge4" class="edge">
<title>Node1&#45;&gt;Node4</title>
<path fill="none" stroke="#191970" d="M296.5,-56.2455C296.5,-48.9382 296.5,-38.6944 296.5,-29.7046"/>
<polygon fill="#191970" stroke="#191970" points="300.0001,-29.6426 296.5,-19.6427 293.0001,-29.6427 300.0001,-29.6426"/>
</g>
<!-- Node5 -->
<g id="node6" class="node">
<title>Node5</title>
<polygon fill="none" stroke="#bfbfbf" points="371.5,-.5 371.5,-19.5 451.5,-19.5 451.5,-.5 371.5,-.5"/>
<text text-anchor="middle" x="411.5" y="-7.5" font-family="Helvetica,sans-Serif" font-size="10.00" fill="#000000">ParcelCloud.H</text>
</g>
<!-- Node1&#45;&gt;Node5 -->
<g id="edge5" class="edge">
<title>Node1&#45;&gt;Node5</title>
<path fill="none" stroke="#191970" d="M316.2692,-56.3733C334.6469,-47.4241 362.2312,-33.9917 382.9893,-23.8835"/>
<polygon fill="#191970" stroke="#191970" points="384.5304,-27.026 391.9888,-19.5011 381.4657,-20.7325 384.5304,-27.026"/>
</g>
<!-- Node6 -->
<g id="node7" class="node">
<title>Node6</title>
<polygon fill="none" stroke="#bfbfbf" points="469.5,-.5 469.5,-19.5 581.5,-19.5 581.5,-.5 469.5,-.5"/>
<text text-anchor="middle" x="525.5" y="-7.5" font-family="Helvetica,sans-Serif" font-size="10.00" fill="#000000">frontTrackingParcel.H</text>
</g>
<!-- Node1&#45;&gt;Node6 -->
<g id="edge6" class="edge">
<title>Node1&#45;&gt;Node6</title>
<path fill="none" stroke="#191970" d="M335.6063,-56.4369C374.6332,-46.8932 434.6965,-32.2052 476.7962,-21.9101"/>
<polygon fill="#191970" stroke="#191970" points="477.6726,-25.299 486.555,-19.5237 476.0098,-18.4993 477.6726,-25.299"/>
</g>
</g>
</svg>
