<?xml version="1.0" encoding="UTF-8" standalone="no"?>
<!DOCTYPE svg PUBLIC "-//W3C//DTD SVG 1.1//EN"
 "http://www.w3.org/Graphics/SVG/1.1/DTD/svg11.dtd">
<!-- Generated by graphviz version 2.40.1 (20161225.0304)
 -->
<!-- Title: clouds/Templates/FrontTrackingCloud/FrontTrackingCloud.H Pages: 1 -->
<svg width="2437pt" height="151pt"
 viewBox="0.00 0.00 2436.50 151.00" xmlns="http://www.w3.org/2000/svg" xmlns:xlink="http://www.w3.org/1999/xlink">
<g id="graph0" class="graph" transform="scale(1 1) rotate(0) translate(4 147)">
<title>clouds/Templates/FrontTrackingCloud/FrontTrackingCloud.H</title>
<!-- Node0 -->
<g id="node1" class="node">
<title>Node0</title>
<polygon fill="#bfbfbf" stroke="#000000" points="1135,-112.5 1135,-142.5 1292,-142.5 1292,-112.5 1135,-112.5"/>
<text text-anchor="start" x="1143" y="-130.5" font-family="Helvetica,sans-Serif" font-size="10.00" fill="#000000">clouds/Templates/FrontTracking</text>
<text text-anchor="middle" x="1213.5" y="-119.5" font-family="Helvetica,sans-Serif" font-size="10.00" fill="#000000">Cloud/FrontTrackingCloud.H</text>
</g>
<!-- Node1 -->
<g id="node2" class="node">
<title>Node1</title>
<polygon fill="none" stroke="#bfbfbf" points="0,-56.5 0,-75.5 85,-75.5 85,-56.5 0,-56.5"/>
<text text-anchor="middle" x="42.5" y="-63.5" font-family="Helvetica,sans-Serif" font-size="10.00" fill="#000000">volFieldsFwd.H</text>
</g>
<!-- Node0&#45;&gt;Node1 -->
<g id="edge1" class="edge">
<title>Node0&#45;&gt;Node1</title>
<path fill="none" stroke="#191970" d="M1134.9983,-125.36C918.6131,-119.2303 315.674,-100.5342 95.4662,-75.9085"/>
<polygon fill="#191970" stroke="#191970" points="95.608,-72.4017 85.2725,-74.7314 94.805,-79.3555 95.608,-72.4017"/>
</g>
<!-- Node2 -->
<g id="node3" class="node">
<title>Node2</title>
<polygon fill="none" stroke="#bfbfbf" points="103.5,-56.5 103.5,-75.5 195.5,-75.5 195.5,-56.5 103.5,-56.5"/>
<text text-anchor="middle" x="149.5" y="-63.5" font-family="Helvetica,sans-Serif" font-size="10.00" fill="#000000">fvMatricesFwd.H</text>
</g>
<!-- Node0&#45;&gt;Node2 -->
<g id="edge2" class="edge">
<title>Node0&#45;&gt;Node2</title>
<path fill="none" stroke="#191970" d="M1134.8033,-126.8384C964.6855,-124.672 550.2047,-115.4248 205.5,-76 205.3988,-75.9884 205.2975,-75.9768 205.1962,-75.9651"/>
<polygon fill="#191970" stroke="#191970" points="205.9481,-72.5339 195.5773,-74.7013 205.0361,-79.4742 205.9481,-72.5339"/>
</g>
<!-- Node3 -->
<g id="node4" class="node">
<title>Node3</title>
<polygon fill="none" stroke="#bfbfbf" points="214,-56.5 214,-75.5 323,-75.5 323,-56.5 214,-56.5"/>
<text text-anchor="middle" x="268.5" y="-63.5" font-family="Helvetica,sans-Serif" font-size="10.00" fill="#000000">dimensionedTypes.H</text>
</g>
<!-- Node0&#45;&gt;Node3 -->
<g id="edge3" class="edge">
<title>Node0&#45;&gt;Node3</title>
<path fill="none" stroke="#191970" d="M1134.9143,-125.453C982.4147,-120.9244 635.5653,-107.9085 333.5403,-76.0078"/>
<polygon fill="#191970" stroke="#191970" points="333.5813,-72.4925 323.2668,-74.9135 332.8398,-79.4531 333.5813,-72.4925"/>
</g>
<!-- Node4 -->
<g id="node5" class="node">
<title>Node4</title>
<polygon fill="none" stroke="#bfbfbf" points="341,-56.5 341,-75.5 400,-75.5 400,-56.5 341,-56.5"/>
<text text-anchor="middle" x="370.5" y="-63.5" font-family="Helvetica,sans-Serif" font-size="10.00" fill="#000000">fvMesh.H</text>
</g>
<!-- Node0&#45;&gt;Node4 -->
<g id="edge4" class="edge">
<title>Node0&#45;&gt;Node4</title>
<path fill="none" stroke="#191970" d="M1134.7442,-124.3342C964.5684,-117.1943 566.0716,-98.7882 410.5222,-75.8137"/>
<polygon fill="#191970" stroke="#191970" points="410.6067,-72.2856 400.1905,-74.2229 409.5414,-79.2041 410.6067,-72.2856"/>
</g>
<!-- Node5 -->
<g id="node6" class="node">
<title>Node5</title>
<polygon fill="none" stroke="#bfbfbf" points="418.5,-56.5 418.5,-75.5 496.5,-75.5 496.5,-56.5 418.5,-56.5"/>
<text text-anchor="middle" x="457.5" y="-63.5" font-family="Helvetica,sans-Serif" font-size="10.00" fill="#000000">fluidThermo.H</text>
</g>
<!-- Node0&#45;&gt;Node5 -->
<g id="edge5" class="edge">
<title>Node0&#45;&gt;Node5</title>
<path fill="none" stroke="#191970" d="M1134.9527,-125.0768C1005.9472,-120.3701 741.0518,-107.6538 506.8124,-75.8526"/>
<polygon fill="#191970" stroke="#191970" points="507.1214,-72.3622 496.7384,-74.4704 506.1698,-79.2973 507.1214,-72.3622"/>
</g>
<!-- Node6 -->
<g id="node7" class="node">
<title>Node6</title>
<polygon fill="none" stroke="#bfbfbf" points="515,-56.5 515,-75.5 568,-75.5 568,-56.5 515,-56.5"/>
<text text-anchor="middle" x="541.5" y="-63.5" font-family="Helvetica,sans-Serif" font-size="10.00" fill="#000000">Cloud.H</text>
</g>
<!-- Node0&#45;&gt;Node6 -->
<g id="edge6" class="edge">
<title>Node0&#45;&gt;Node6</title>
<path fill="none" stroke="#191970" d="M1134.5557,-125.921C1015.6632,-122.4802 783.6362,-111.6335 578.1789,-75.78"/>
<polygon fill="#191970" stroke="#191970" points="578.5633,-72.2937 568.1065,-73.9982 577.3439,-79.1867 578.5633,-72.2937"/>
</g>
<!-- Node7 -->
<g id="node8" class="node">
<title>Node7</title>
<polygon fill="none" stroke="#bfbfbf" points="586,-56.5 586,-75.5 663,-75.5 663,-56.5 586,-56.5"/>
<text text-anchor="middle" x="624.5" y="-63.5" font-family="Helvetica,sans-Serif" font-size="10.00" fill="#000000">bubbleData.H</text>
</g>
<!-- Node0&#45;&gt;Node7 -->
<g id="edge7" class="edge">
<title>Node0&#45;&gt;Node7</title>
<path fill="none" stroke="#191970" d="M1134.7738,-122.7431C1031.1793,-115.8717 843.3107,-101.3023 673.0984,-75.9362"/>
<polygon fill="#191970" stroke="#191970" points="673.616,-72.4748 663.2063,-74.4467 672.5736,-79.3968 673.616,-72.4748"/>
</g>
<!-- Node8 -->
<g id="node9" class="node">
<title>Node8</title>
<polygon fill="none" stroke="#bfbfbf" points="681.5,-56.5 681.5,-75.5 747.5,-75.5 747.5,-56.5 681.5,-56.5"/>
<text text-anchor="middle" x="714.5" y="-63.5" font-family="Helvetica,sans-Serif" font-size="10.00" fill="#000000">fileName.H</text>
</g>
<!-- Node0&#45;&gt;Node8 -->
<g id="edge8" class="edge">
<title>Node0&#45;&gt;Node8</title>
<path fill="none" stroke="#191970" d="M1134.8404,-121.4082C1045.7817,-113.8814 896.2262,-99.3419 757.7101,-75.8433"/>
<polygon fill="#191970" stroke="#191970" points="758.2048,-72.3771 747.757,-74.1359 757.0212,-79.2764 758.2048,-72.3771"/>
</g>
<!-- Node9 -->
<g id="node10" class="node">
<title>Node9</title>
<polygon fill="none" stroke="#bfbfbf" points="766,-56.5 766,-75.5 835,-75.5 835,-56.5 766,-56.5"/>
<text text-anchor="middle" x="800.5" y="-63.5" font-family="Helvetica,sans-Serif" font-size="10.00" fill="#000000">pointField.H</text>
</g>
<!-- Node0&#45;&gt;Node9 -->
<g id="edge9" class="edge">
<title>Node0&#45;&gt;Node9</title>
<path fill="none" stroke="#191970" d="M1134.7288,-118.4698C1062.0752,-109.6917 951.0444,-95.1439 844.9507,-75.9499"/>
<polygon fill="#191970" stroke="#191970" points="845.4962,-72.4917 835.0302,-74.1387 844.2389,-79.3779 845.4962,-72.4917"/>
</g>
<!-- Node10 -->
<g id="node11" class="node">
<title>Node10</title>
<polygon fill="none" stroke="#bfbfbf" points="853.5,-56.5 853.5,-75.5 901.5,-75.5 901.5,-56.5 853.5,-56.5"/>
<text text-anchor="middle" x="877.5" y="-63.5" font-family="Helvetica,sans-Serif" font-size="10.00" fill="#000000">point.H</text>
</g>
<!-- Node0&#45;&gt;Node10 -->
<g id="edge10" class="edge">
<title>Node0&#45;&gt;Node10</title>
<path fill="none" stroke="#191970" d="M1134.7973,-116.8994C1075.7172,-108.301 992.7262,-94.867 911.4562,-75.9996"/>
<polygon fill="#191970" stroke="#191970" points="912.0912,-72.5535 901.5555,-73.6717 910.4889,-79.3677 912.0912,-72.5535"/>
</g>
<!-- Node11 -->
<g id="node12" class="node">
<title>Node11</title>
<polygon fill="none" stroke="#bfbfbf" points="919.5,-56.5 919.5,-75.5 975.5,-75.5 975.5,-56.5 919.5,-56.5"/>
<text text-anchor="middle" x="947.5" y="-63.5" font-family="Helvetica,sans-Serif" font-size="10.00" fill="#000000">DLList.H</text>
</g>
<!-- Node0&#45;&gt;Node11 -->
<g id="edge11" class="edge">
<title>Node0&#45;&gt;Node11</title>
<path fill="none" stroke="#191970" d="M1144.0049,-112.4676C1098.7635,-102.5177 1038.5199,-88.96 985.5,-76 985.4006,-75.9757 985.3011,-75.9513 985.2014,-75.9269"/>
<polygon fill="#191970" stroke="#191970" points="986.2452,-72.5805 975.6936,-73.5373 984.5388,-79.3694 986.2452,-72.5805"/>
</g>
<!-- Node12 -->
<g id="node13" class="node">
<title>Node12</title>
<polygon fill="none" stroke="#bfbfbf" points="994,-56.5 994,-75.5 1079,-75.5 1079,-56.5 994,-56.5"/>
<text text-anchor="middle" x="1036.5" y="-63.5" font-family="Helvetica,sans-Serif" font-size="10.00" fill="#000000">sphereToCell.H</text>
</g>
<!-- Node0&#45;&gt;Node12 -->
<g id="edge12" class="edge">
<title>Node0&#45;&gt;Node12</title>
<path fill="none" stroke="#191970" d="M1170.2009,-112.4554C1140.5385,-102.149 1101.6155,-88.6249 1073.4212,-78.8286"/>
<polygon fill="#191970" stroke="#191970" points="1074.5235,-75.5064 1063.9287,-75.5303 1072.226,-82.1186 1074.5235,-75.5064"/>
</g>
<!-- Node13 -->
<g id="node14" class="node">
<title>Node13</title>
<polygon fill="none" stroke="#bfbfbf" points="1097,-56.5 1097,-75.5 1154,-75.5 1154,-56.5 1097,-56.5"/>
<text text-anchor="middle" x="1125.5" y="-63.5" font-family="Helvetica,sans-Serif" font-size="10.00" fill="#000000">cellSet.H</text>
</g>
<!-- Node0&#45;&gt;Node13 -->
<g id="edge13" class="edge">
<title>Node0&#45;&gt;Node13</title>
<path fill="none" stroke="#191970" d="M1191.7472,-112.2977C1178.3032,-102.9022 1161.0989,-90.8787 1147.5922,-81.4395"/>
<polygon fill="#191970" stroke="#191970" points="1149.5288,-78.5228 1139.3271,-75.6633 1145.5189,-84.2605 1149.5288,-78.5228"/>
</g>
<!-- Node14 -->
<g id="node15" class="node">
<title>Node14</title>
<polygon fill="none" stroke="#bfbfbf" points="1172,-56.5 1172,-75.5 1255,-75.5 1255,-56.5 1172,-56.5"/>
<text text-anchor="middle" x="1213.5" y="-63.5" font-family="Helvetica,sans-Serif" font-size="10.00" fill="#000000">simpleMatrix.H</text>
</g>
<!-- Node0&#45;&gt;Node14 -->
<g id="edge14" class="edge">
<title>Node0&#45;&gt;Node14</title>
<path fill="none" stroke="#191970" d="M1213.5,-112.2977C1213.5,-104.3834 1213.5,-94.6043 1213.5,-86.0759"/>
<polygon fill="#191970" stroke="#191970" points="1217.0001,-85.8469 1213.5,-75.8469 1210.0001,-85.847 1217.0001,-85.8469"/>
</g>
<!-- Node15 -->
<g id="node16" class="node">
<title>Node15</title>
<polygon fill="none" stroke="#bfbfbf" points="1273,-56.5 1273,-75.5 1404,-75.5 1404,-56.5 1273,-56.5"/>
<text text-anchor="middle" x="1338.5" y="-63.5" font-family="Helvetica,sans-Serif" font-size="10.00" fill="#000000">mathematicalConstants.H</text>
</g>
<!-- Node0&#45;&gt;Node15 -->
<g id="edge15" class="edge">
<title>Node0&#45;&gt;Node15</title>
<path fill="none" stroke="#191970" d="M1244.0784,-112.4554C1264.2032,-102.554 1290.3639,-89.683 1310.0438,-80.0004"/>
<polygon fill="#191970" stroke="#191970" points="1311.7018,-83.0855 1319.1294,-75.5303 1308.6115,-76.8045 1311.7018,-83.0855"/>
</g>
<!-- Node16 -->
<g id="node17" class="node">
<title>Node16</title>
<polygon fill="none" stroke="#bfbfbf" points="1422.5,-56.5 1422.5,-75.5 1478.5,-75.5 1478.5,-56.5 1422.5,-56.5"/>
<text text-anchor="middle" x="1450.5" y="-63.5" font-family="Helvetica,sans-Serif" font-size="10.00" fill="#000000">fvCFD.H</text>
</g>
<!-- Node0&#45;&gt;Node16 -->
<g id="edge16" class="edge">
<title>Node0&#45;&gt;Node16</title>
<path fill="none" stroke="#191970" d="M1272.6193,-112.474C1310.1249,-102.8958 1359.9304,-90.0933 1412.4014,-76.2707"/>
<polygon fill="#191970" stroke="#191970" points="1413.4512,-79.6136 1422.2275,-73.6785 1411.6655,-72.8452 1413.4512,-79.6136"/>
</g>
<!-- Node17 -->
<g id="node18" class="node">
<title>Node17</title>
<polygon fill="none" stroke="#bfbfbf" points="1496.5,-56.5 1496.5,-75.5 1562.5,-75.5 1562.5,-56.5 1496.5,-56.5"/>
<text text-anchor="middle" x="1529.5" y="-63.5" font-family="Helvetica,sans-Serif" font-size="10.00" fill="#000000">IFstream.H</text>
</g>
<!-- Node0&#45;&gt;Node17 -->
<g id="edge17" class="edge">
<title>Node0&#45;&gt;Node17</title>
<path fill="none" stroke="#191970" d="M1292.2415,-113.7336C1344.6467,-104.3304 1415.2502,-91.2024 1486.0696,-76.2377"/>
<polygon fill="#191970" stroke="#191970" points="1487.0081,-79.6165 1496.0621,-74.1141 1485.5529,-72.7694 1487.0081,-79.6165"/>
</g>
<!-- Node18 -->
<g id="node19" class="node">
<title>Node18</title>
<polygon fill="none" stroke="#bfbfbf" points="1581,-56.5 1581,-75.5 1652,-75.5 1652,-56.5 1581,-56.5"/>
<text text-anchor="middle" x="1616.5" y="-63.5" font-family="Helvetica,sans-Serif" font-size="10.00" fill="#000000">OFstream.H</text>
</g>
<!-- Node0&#45;&gt;Node18 -->
<g id="edge18" class="edge">
<title>Node0&#45;&gt;Node18</title>
<path fill="none" stroke="#191970" d="M1292.3471,-117.903C1362.7986,-108.9275 1469.0215,-94.4126 1570.8492,-76.0081"/>
<polygon fill="#191970" stroke="#191970" points="1571.478,-79.4512 1580.6884,-74.2149 1570.2229,-72.5647 1571.478,-79.4512"/>
</g>
<!-- Node19 -->
<g id="node20" class="node">
<title>Node19</title>
<polygon fill="none" stroke="#bfbfbf" points="1670,-56.5 1670,-75.5 1757,-75.5 1757,-56.5 1670,-56.5"/>
<text text-anchor="middle" x="1713.5" y="-63.5" font-family="Helvetica,sans-Serif" font-size="10.00" fill="#000000">IStringStream.H</text>
</g>
<!-- Node0&#45;&gt;Node19 -->
<g id="edge19" class="edge">
<title>Node0&#45;&gt;Node19</title>
<path fill="none" stroke="#191970" d="M1292.2401,-120.2651C1379.7122,-111.817 1525.3299,-96.535 1659.7771,-76.1801"/>
<polygon fill="#191970" stroke="#191970" points="1660.4915,-79.6116 1669.8487,-74.6424 1659.435,-72.6918 1660.4915,-79.6116"/>
</g>
<!-- Node20 -->
<g id="node21" class="node">
<title>Node20</title>
<polygon fill="none" stroke="#bfbfbf" points="1775.5,-56.5 1775.5,-75.5 1867.5,-75.5 1867.5,-56.5 1775.5,-56.5"/>
<text text-anchor="middle" x="1821.5" y="-63.5" font-family="Helvetica,sans-Serif" font-size="10.00" fill="#000000">OStringStream.H</text>
</g>
<!-- Node0&#45;&gt;Node20 -->
<g id="edge20" class="edge">
<title>Node0&#45;&gt;Node20</title>
<path fill="none" stroke="#191970" d="M1292.0453,-122.3459C1397.4317,-114.9479 1590.6001,-99.6965 1765.1873,-76.0797"/>
<polygon fill="#191970" stroke="#191970" points="1765.8984,-79.5152 1775.3331,-74.6948 1764.9516,-72.5795 1765.8984,-79.5152"/>
</g>
<!-- Node21 -->
<g id="node22" class="node">
<title>Node21</title>
<polygon fill="none" stroke="#bfbfbf" points="1885.5,-56.5 1885.5,-75.5 1935.5,-75.5 1935.5,-56.5 1885.5,-56.5"/>
<text text-anchor="middle" x="1910.5" y="-63.5" font-family="Helvetica,sans-Serif" font-size="10.00" fill="#000000">fstream</text>
</g>
<!-- Node0&#45;&gt;Node21 -->
<g id="edge21" class="edge">
<title>Node0&#45;&gt;Node21</title>
<path fill="none" stroke="#191970" d="M1292.2379,-123.4479C1438.7023,-115.5786 1748.8609,-97.2704 1875.1805,-75.8348"/>
<polygon fill="#191970" stroke="#191970" points="1876.1573,-79.2161 1885.3903,-74.0197 1874.932,-72.3242 1876.1573,-79.2161"/>
</g>
<!-- Node22 -->
<g id="node23" class="node">
<title>Node22</title>
<polygon fill="none" stroke="#bfbfbf" points="1953.5,-56.5 1953.5,-75.5 2007.5,-75.5 2007.5,-56.5 1953.5,-56.5"/>
<text text-anchor="middle" x="1980.5" y="-63.5" font-family="Helvetica,sans-Serif" font-size="10.00" fill="#000000">iostream</text>
</g>
<!-- Node0&#45;&gt;Node22 -->
<g id="edge22" class="edge">
<title>Node0&#45;&gt;Node22</title>
<path fill="none" stroke="#191970" d="M1292.0985,-123.96C1450.2705,-116.5165 1803.1426,-98.2166 1943.017,-75.901"/>
<polygon fill="#191970" stroke="#191970" points="1943.8232,-79.3149 1953.1116,-74.2182 1942.6721,-72.4102 1943.8232,-79.3149"/>
</g>
<!-- Node23 -->
<g id="node24" class="node">
<title>Node23</title>
<polygon fill="none" stroke="#bfbfbf" points="2026,-56.5 2026,-75.5 2067,-75.5 2067,-56.5 2026,-56.5"/>
<text text-anchor="middle" x="2046.5" y="-63.5" font-family="Helvetica,sans-Serif" font-size="10.00" fill="#000000">string</text>
</g>
<!-- Node0&#45;&gt;Node23 -->
<g id="edge23" class="edge">
<title>Node0&#45;&gt;Node23</title>
<path fill="none" stroke="#191970" d="M1292.2815,-125.0295C1462.4932,-119.2816 1860.963,-103.5104 2015.4471,-75.6353"/>
<polygon fill="#191970" stroke="#191970" points="2016.5287,-78.9928 2025.7036,-73.6946 2015.2273,-72.1148 2016.5287,-78.9928"/>
</g>
<!-- Node24 -->
<g id="node25" class="node">
<title>Node24</title>
<polygon fill="none" stroke="#bfbfbf" points="2085.5,-56.5 2085.5,-75.5 2129.5,-75.5 2129.5,-56.5 2085.5,-56.5"/>
<text text-anchor="middle" x="2107.5" y="-63.5" font-family="Helvetica,sans-Serif" font-size="10.00" fill="#000000">cmath</text>
</g>
<!-- Node0&#45;&gt;Node24 -->
<g id="edge24" class="edge">
<title>Node0&#45;&gt;Node24</title>
<path fill="none" stroke="#191970" d="M1292.2693,-125.341C1472.0049,-120.0119 1909.0116,-104.6719 2075.2428,-75.7306"/>
<polygon fill="#191970" stroke="#191970" points="2076.112,-79.13 2085.3231,-73.8948 2074.8578,-72.2432 2076.112,-79.13"/>
</g>
<!-- Node25 -->
<g id="node26" class="node">
<title>Node25</title>
<polygon fill="none" stroke="#bfbfbf" points="2147.5,-56.5 2147.5,-75.5 2197.5,-75.5 2197.5,-56.5 2147.5,-56.5"/>
<text text-anchor="middle" x="2172.5" y="-63.5" font-family="Helvetica,sans-Serif" font-size="10.00" fill="#000000">iomanip</text>
</g>
<!-- Node0&#45;&gt;Node25 -->
<g id="edge25" class="edge">
<title>Node0&#45;&gt;Node25</title>
<path fill="none" stroke="#191970" d="M1292.1257,-125.4508C1481.1664,-120.156 1958.1074,-104.5184 2137.3063,-75.7718"/>
<polygon fill="#191970" stroke="#191970" points="2138.1162,-79.185 2147.4016,-74.0828 2136.9611,-72.281 2138.1162,-79.185"/>
</g>
<!-- Node26 -->
<g id="node27" class="node">
<title>Node26</title>
<polygon fill="none" stroke="#bfbfbf" points="2216,-56.5 2216,-75.5 2295,-75.5 2295,-56.5 2216,-56.5"/>
<text text-anchor="middle" x="2255.5" y="-63.5" font-family="Helvetica,sans-Serif" font-size="10.00" fill="#000000">UDictionary.H</text>
</g>
<!-- Node0&#45;&gt;Node26 -->
<g id="edge26" class="edge">
<title>Node0&#45;&gt;Node26</title>
<path fill="none" stroke="#191970" d="M1292.1574,-124.9423C1491.0519,-118.2347 2011.3925,-99.1319 2205.6277,-75.8845"/>
<polygon fill="#191970" stroke="#191970" points="2206.2429,-79.3352 2215.737,-74.6327 2205.3826,-72.3883 2206.2429,-79.3352"/>
</g>
<!-- Node27 -->
<g id="node28" class="node">
<title>Node27</title>
<g id="a_node28"><a xlink:href="clouds_2Templates_2FrontTrackingCloud_2FrontTrackingCloudI_8H.html" target="_top" xlink:title="FrontTrackingCloudI.H">
<polygon fill="none" stroke="#000000" points="2312.5,-56.5 2312.5,-75.5 2428.5,-75.5 2428.5,-56.5 2312.5,-56.5"/>
<text text-anchor="middle" x="2370.5" y="-63.5" font-family="Helvetica,sans-Serif" font-size="10.00" fill="#000000">FrontTrackingCloudI.H</text>
</a>
</g>
</g>
<!-- Node0&#45;&gt;Node27 -->
<g id="edge27" class="edge">
<title>Node0&#45;&gt;Node27</title>
<path fill="none" stroke="#191970" d="M1292.0897,-126.569C1470.2163,-123.8572 1918.4296,-113.6487 2302.0488,-76.1645"/>
<polygon fill="#191970" stroke="#191970" points="2302.6293,-79.6244 2312.238,-75.161 2301.9431,-72.6581 2302.6293,-79.6244"/>
</g>
<!-- Node28 -->
<g id="node29" class="node">
<title>Node28</title>
<polygon fill="none" stroke="#bfbfbf" points="2323,-.5 2323,-19.5 2418,-19.5 2418,-.5 2323,-.5"/>
<text text-anchor="middle" x="2370.5" y="-7.5" font-family="Helvetica,sans-Serif" font-size="10.00" fill="#000000">NoFrontToField.H</text>
</g>
<!-- Node27&#45;&gt;Node28 -->
<g id="edge28" class="edge">
<title>Node27&#45;&gt;Node28</title>
<path fill="none" stroke="#191970" d="M2370.5,-56.2455C2370.5,-48.9382 2370.5,-38.6944 2370.5,-29.7046"/>
<polygon fill="#191970" stroke="#191970" points="2374.0001,-29.6426 2370.5,-19.6427 2367.0001,-29.6427 2374.0001,-29.6426"/>
</g>
</g>
</svg>
