<?xml version="1.0" encoding="UTF-8" standalone="no"?>
<!DOCTYPE svg PUBLIC "-//W3C//DTD SVG 1.1//EN"
 "http://www.w3.org/Graphics/SVG/1.1/DTD/svg11.dtd">
<!-- Generated by graphviz version 2.40.1 (20161225.0304)
 -->
<!-- Title: clouds/Templates/FrontTrackingCloud/FrontTrackingCloud.C Pages: 1 -->
<svg width="2437pt" height="207pt"
 viewBox="0.00 0.00 2436.50 207.00" xmlns="http://www.w3.org/2000/svg" xmlns:xlink="http://www.w3.org/1999/xlink">
<g id="graph0" class="graph" transform="scale(1 1) rotate(0) translate(4 203)">
<title>clouds/Templates/FrontTrackingCloud/FrontTrackingCloud.C</title>
<!-- Node0 -->
<g id="node1" class="node">
<title>Node0</title>
<polygon fill="#bfbfbf" stroke="#000000" points="1404,-168.5 1404,-198.5 1561,-198.5 1561,-168.5 1404,-168.5"/>
<text text-anchor="start" x="1412" y="-186.5" font-family="Helvetica,sans-Serif" font-size="10.00" fill="#000000">clouds/Templates/FrontTracking</text>
<text text-anchor="middle" x="1482.5" y="-175.5" font-family="Helvetica,sans-Serif" font-size="10.00" fill="#000000">Cloud/FrontTrackingCloud.C</text>
</g>
<!-- Node1 -->
<g id="node2" class="node">
<title>Node1</title>
<g id="a_node2"><a xlink:href="clouds_2Templates_2FrontTrackingCloud_2FrontTrackingCloud_8H.html" target="_top" xlink:title="FrontTrackingCloud.H">
<polygon fill="none" stroke="#000000" points="1157,-112.5 1157,-131.5 1270,-131.5 1270,-112.5 1157,-112.5"/>
<text text-anchor="middle" x="1213.5" y="-119.5" font-family="Helvetica,sans-Serif" font-size="10.00" fill="#000000">FrontTrackingCloud.H</text>
</a>
</g>
</g>
<!-- Node0&#45;&gt;Node1 -->
<g id="edge1" class="edge">
<title>Node0&#45;&gt;Node1</title>
<path fill="none" stroke="#191970" d="M1416.6952,-168.4554C1370.0401,-157.7889 1308.3107,-143.6761 1265.1821,-133.8158"/>
<polygon fill="#191970" stroke="#191970" points="1265.714,-130.3472 1255.1855,-131.5303 1264.1538,-137.1711 1265.714,-130.3472"/>
</g>
<!-- Node30 -->
<g id="node31" class="node">
<title>Node30</title>
<polygon fill="none" stroke="#bfbfbf" points="1288.5,-112.5 1288.5,-131.5 1410.5,-131.5 1410.5,-112.5 1288.5,-112.5"/>
<text text-anchor="middle" x="1349.5" y="-119.5" font-family="Helvetica,sans-Serif" font-size="10.00" fill="#000000">SurfaceTensionModel.H</text>
</g>
<!-- Node0&#45;&gt;Node30 -->
<g id="edge30" class="edge">
<title>Node0&#45;&gt;Node30</title>
<path fill="none" stroke="#191970" d="M1449.9645,-168.4554C1428.3571,-158.464 1400.2102,-145.4487 1379.208,-135.7372"/>
<polygon fill="#191970" stroke="#191970" points="1380.6559,-132.5506 1370.1103,-131.5303 1377.7179,-138.9043 1380.6559,-132.5506"/>
</g>
<!-- Node31 -->
<g id="node32" class="node">
<title>Node31</title>
<polygon fill="none" stroke="#bfbfbf" points="1428.5,-112.5 1428.5,-131.5 1536.5,-131.5 1536.5,-112.5 1428.5,-112.5"/>
<text text-anchor="middle" x="1482.5" y="-119.5" font-family="Helvetica,sans-Serif" font-size="10.00" fill="#000000">FrontToFieldModel.H</text>
</g>
<!-- Node0&#45;&gt;Node31 -->
<g id="edge31" class="edge">
<title>Node0&#45;&gt;Node31</title>
<path fill="none" stroke="#191970" d="M1482.5,-168.2977C1482.5,-160.3834 1482.5,-150.6043 1482.5,-142.0759"/>
<polygon fill="#191970" stroke="#191970" points="1486.0001,-141.8469 1482.5,-131.8469 1479.0001,-141.847 1486.0001,-141.8469"/>
</g>
<!-- Node32 -->
<g id="node33" class="node">
<title>Node32</title>
<polygon fill="none" stroke="#bfbfbf" points="1555,-112.5 1555,-131.5 1686,-131.5 1686,-112.5 1555,-112.5"/>
<text text-anchor="middle" x="1620.5" y="-119.5" font-family="Helvetica,sans-Serif" font-size="10.00" fill="#000000">VolumeCorrectionModel.H</text>
</g>
<!-- Node0&#45;&gt;Node32 -->
<g id="edge32" class="edge">
<title>Node0&#45;&gt;Node32</title>
<path fill="none" stroke="#191970" d="M1516.2586,-168.4554C1538.7793,-158.419 1568.1467,-145.3314 1589.9692,-135.6061"/>
<polygon fill="#191970" stroke="#191970" points="1591.4056,-138.7979 1599.1149,-131.5303 1588.5561,-132.4041 1591.4056,-138.7979"/>
</g>
<!-- Node33 -->
<g id="node34" class="node">
<title>Node33</title>
<polygon fill="none" stroke="#bfbfbf" points="1704,-112.5 1704,-131.5 1843,-131.5 1843,-112.5 1704,-112.5"/>
<text text-anchor="middle" x="1773.5" y="-119.5" font-family="Helvetica,sans-Serif" font-size="10.00" fill="#000000">UndulationRemovalModel.H</text>
</g>
<!-- Node0&#45;&gt;Node33 -->
<g id="edge33" class="edge">
<title>Node0&#45;&gt;Node33</title>
<path fill="none" stroke="#191970" d="M1553.6866,-168.4554C1604.4768,-157.7214 1671.7812,-143.4973 1718.4745,-133.6291"/>
<polygon fill="#191970" stroke="#191970" points="1719.3452,-137.0225 1728.4053,-131.5303 1717.8977,-130.1738 1719.3452,-137.0225"/>
</g>
<!-- Node2 -->
<g id="node3" class="node">
<title>Node2</title>
<polygon fill="none" stroke="#bfbfbf" points="0,-56.5 0,-75.5 85,-75.5 85,-56.5 0,-56.5"/>
<text text-anchor="middle" x="42.5" y="-63.5" font-family="Helvetica,sans-Serif" font-size="10.00" fill="#000000">volFieldsFwd.H</text>
</g>
<!-- Node1&#45;&gt;Node2 -->
<g id="edge2" class="edge">
<title>Node1&#45;&gt;Node2</title>
<path fill="none" stroke="#191970" d="M1156.7318,-120.7855C962.3305,-116.454 323.32,-100.749 95.4812,-75.9004"/>
<polygon fill="#191970" stroke="#191970" points="95.5999,-72.3917 85.2705,-74.7482 94.815,-79.3475 95.5999,-72.3917"/>
</g>
<!-- Node3 -->
<g id="node4" class="node">
<title>Node3</title>
<polygon fill="none" stroke="#bfbfbf" points="103.5,-56.5 103.5,-75.5 195.5,-75.5 195.5,-56.5 103.5,-56.5"/>
<text text-anchor="middle" x="149.5" y="-63.5" font-family="Helvetica,sans-Serif" font-size="10.00" fill="#000000">fvMatricesFwd.H</text>
</g>
<!-- Node1&#45;&gt;Node3 -->
<g id="edge3" class="edge">
<title>Node1&#45;&gt;Node3</title>
<path fill="none" stroke="#191970" d="M1156.6967,-120.3897C972.3615,-115.0095 392.0057,-96.817 205.5,-76 205.3988,-75.9887 205.2975,-75.9773 205.1961,-75.9659"/>
<polygon fill="#191970" stroke="#191970" points="205.9414,-72.5332 195.575,-74.7214 205.0434,-79.4754 205.9414,-72.5332"/>
</g>
<!-- Node4 -->
<g id="node5" class="node">
<title>Node4</title>
<polygon fill="none" stroke="#bfbfbf" points="214,-56.5 214,-75.5 323,-75.5 323,-56.5 214,-56.5"/>
<text text-anchor="middle" x="268.5" y="-63.5" font-family="Helvetica,sans-Serif" font-size="10.00" fill="#000000">dimensionedTypes.H</text>
</g>
<!-- Node1&#45;&gt;Node4 -->
<g id="edge4" class="edge">
<title>Node1&#45;&gt;Node4</title>
<path fill="none" stroke="#191970" d="M1156.913,-121.0608C1018.3212,-118.3274 650.7106,-108.4615 333.5773,-76.0015"/>
<polygon fill="#191970" stroke="#191970" points="333.5712,-72.4824 323.2644,-74.9361 332.8518,-79.4453 333.5712,-72.4824"/>
</g>
<!-- Node5 -->
<g id="node6" class="node">
<title>Node5</title>
<polygon fill="none" stroke="#bfbfbf" points="341,-56.5 341,-75.5 400,-75.5 400,-56.5 341,-56.5"/>
<text text-anchor="middle" x="370.5" y="-63.5" font-family="Helvetica,sans-Serif" font-size="10.00" fill="#000000">fvMesh.H</text>
</g>
<!-- Node1&#45;&gt;Node5 -->
<g id="edge5" class="edge">
<title>Node1&#45;&gt;Node5</title>
<path fill="none" stroke="#191970" d="M1156.7493,-120.1851C1001.7953,-115.0067 572.8407,-99.1248 410.4897,-75.7919"/>
<polygon fill="#191970" stroke="#191970" points="410.5962,-72.2687 400.1872,-74.2442 409.5562,-79.191 410.5962,-72.2687"/>
</g>
<!-- Node6 -->
<g id="node7" class="node">
<title>Node6</title>
<polygon fill="none" stroke="#bfbfbf" points="418.5,-56.5 418.5,-75.5 496.5,-75.5 496.5,-56.5 418.5,-56.5"/>
<text text-anchor="middle" x="457.5" y="-63.5" font-family="Helvetica,sans-Serif" font-size="10.00" fill="#000000">fluidThermo.H</text>
</g>
<!-- Node1&#45;&gt;Node6 -->
<g id="edge6" class="edge">
<title>Node1&#45;&gt;Node6</title>
<path fill="none" stroke="#191970" d="M1156.8795,-120.9329C1038.1934,-118.13 754.5826,-108.4679 506.652,-75.8183"/>
<polygon fill="#191970" stroke="#191970" points="507.1093,-72.3484 496.7347,-74.4974 506.185,-79.2871 507.1093,-72.3484"/>
</g>
<!-- Node7 -->
<g id="node8" class="node">
<title>Node7</title>
<polygon fill="none" stroke="#bfbfbf" points="515,-56.5 515,-75.5 568,-75.5 568,-56.5 515,-56.5"/>
<text text-anchor="middle" x="541.5" y="-63.5" font-family="Helvetica,sans-Serif" font-size="10.00" fill="#000000">Cloud.H</text>
</g>
<!-- Node1&#45;&gt;Node7 -->
<g id="edge7" class="edge">
<title>Node1&#45;&gt;Node7</title>
<path fill="none" stroke="#191970" d="M1156.7474,-119.3442C1025.9763,-112.9967 705.5724,-96.0847 578.0318,-75.6889"/>
<polygon fill="#191970" stroke="#191970" points="578.543,-72.2258 568.1019,-74.0243 577.3856,-79.1295 578.543,-72.2258"/>
</g>
<!-- Node8 -->
<g id="node9" class="node">
<title>Node8</title>
<polygon fill="none" stroke="#bfbfbf" points="586,-56.5 586,-75.5 663,-75.5 663,-56.5 586,-56.5"/>
<text text-anchor="middle" x="624.5" y="-63.5" font-family="Helvetica,sans-Serif" font-size="10.00" fill="#000000">bubbleData.H</text>
</g>
<!-- Node1&#45;&gt;Node8 -->
<g id="edge8" class="edge">
<title>Node1&#45;&gt;Node8</title>
<path fill="none" stroke="#191970" d="M1156.7757,-119.4314C1059.7625,-114.5454 855.632,-102.1191 673.2454,-75.9396"/>
<polygon fill="#191970" stroke="#191970" points="673.6005,-72.4545 663.2012,-74.4806 672.5942,-79.3818 673.6005,-72.4545"/>
</g>
<!-- Node9 -->
<g id="node10" class="node">
<title>Node9</title>
<polygon fill="none" stroke="#bfbfbf" points="681.5,-56.5 681.5,-75.5 747.5,-75.5 747.5,-56.5 681.5,-56.5"/>
<text text-anchor="middle" x="714.5" y="-63.5" font-family="Helvetica,sans-Serif" font-size="10.00" fill="#000000">fileName.H</text>
</g>
<!-- Node1&#45;&gt;Node9 -->
<g id="edge9" class="edge">
<title>Node1&#45;&gt;Node9</title>
<path fill="none" stroke="#191970" d="M1156.6755,-118.613C1072.0446,-113.0527 907.7548,-100.2755 758.0456,-75.8759"/>
<polygon fill="#191970" stroke="#191970" points="758.1869,-72.3519 747.7503,-74.1756 757.0462,-79.2584 758.1869,-72.3519"/>
</g>
<!-- Node10 -->
<g id="node11" class="node">
<title>Node10</title>
<polygon fill="none" stroke="#bfbfbf" points="766,-56.5 766,-75.5 835,-75.5 835,-56.5 766,-56.5"/>
<text text-anchor="middle" x="800.5" y="-63.5" font-family="Helvetica,sans-Serif" font-size="10.00" fill="#000000">pointField.H</text>
</g>
<!-- Node1&#45;&gt;Node10 -->
<g id="edge10" class="edge">
<title>Node1&#45;&gt;Node10</title>
<path fill="none" stroke="#191970" d="M1156.9767,-116.718C1086.4029,-109.7309 961.8128,-96.1076 845.1963,-75.9648"/>
<polygon fill="#191970" stroke="#191970" points="845.4747,-72.4605 835.0215,-74.1869 844.2698,-79.356 845.4747,-72.4605"/>
</g>
<!-- Node11 -->
<g id="node12" class="node">
<title>Node11</title>
<polygon fill="none" stroke="#bfbfbf" points="853.5,-56.5 853.5,-75.5 901.5,-75.5 901.5,-56.5 853.5,-56.5"/>
<text text-anchor="middle" x="877.5" y="-63.5" font-family="Helvetica,sans-Serif" font-size="10.00" fill="#000000">point.H</text>
</g>
<!-- Node1&#45;&gt;Node11 -->
<g id="edge11" class="edge">
<title>Node1&#45;&gt;Node11</title>
<path fill="none" stroke="#191970" d="M1156.9245,-115.8732C1097.8693,-108.9272 1002.4793,-96.1599 911.4726,-75.9596"/>
<polygon fill="#191970" stroke="#191970" points="912.0688,-72.5063 901.5439,-73.7218 910.5296,-79.335 912.0688,-72.5063"/>
</g>
<!-- Node12 -->
<g id="node13" class="node">
<title>Node12</title>
<polygon fill="none" stroke="#bfbfbf" points="919.5,-56.5 919.5,-75.5 975.5,-75.5 975.5,-56.5 919.5,-56.5"/>
<text text-anchor="middle" x="947.5" y="-63.5" font-family="Helvetica,sans-Serif" font-size="10.00" fill="#000000">DLList.H</text>
</g>
<!-- Node1&#45;&gt;Node12 -->
<g id="edge12" class="edge">
<title>Node1&#45;&gt;Node12</title>
<path fill="none" stroke="#191970" d="M1161.7002,-112.4404C1115.3669,-103.678 1045.6811,-89.977 985.5,-76 985.4003,-75.9769 985.3005,-75.9536 985.2006,-75.9303"/>
<polygon fill="#191970" stroke="#191970" points="986.2206,-72.5765 975.6763,-73.6101 984.5637,-79.3776 986.2206,-72.5765"/>
</g>
<!-- Node13 -->
<g id="node14" class="node">
<title>Node13</title>
<polygon fill="none" stroke="#bfbfbf" points="994,-56.5 994,-75.5 1079,-75.5 1079,-56.5 994,-56.5"/>
<text text-anchor="middle" x="1036.5" y="-63.5" font-family="Helvetica,sans-Serif" font-size="10.00" fill="#000000">sphereToCell.H</text>
</g>
<!-- Node1&#45;&gt;Node13 -->
<g id="edge13" class="edge">
<title>Node1&#45;&gt;Node13</title>
<path fill="none" stroke="#191970" d="M1183.0726,-112.3733C1153.5128,-103.021 1108.4774,-88.7725 1076.1305,-78.5385"/>
<polygon fill="#191970" stroke="#191970" points="1077.1203,-75.1807 1066.5303,-75.5011 1075.0087,-81.8546 1077.1203,-75.1807"/>
</g>
<!-- Node14 -->
<g id="node15" class="node">
<title>Node14</title>
<polygon fill="none" stroke="#bfbfbf" points="1097,-56.5 1097,-75.5 1154,-75.5 1154,-56.5 1097,-56.5"/>
<text text-anchor="middle" x="1125.5" y="-63.5" font-family="Helvetica,sans-Serif" font-size="10.00" fill="#000000">cellSet.H</text>
</g>
<!-- Node1&#45;&gt;Node14 -->
<g id="edge14" class="edge">
<title>Node1&#45;&gt;Node14</title>
<path fill="none" stroke="#191970" d="M1198.1716,-112.2455C1184.6697,-103.6534 1164.7878,-91.0014 1149.2314,-81.1018"/>
<polygon fill="#191970" stroke="#191970" points="1150.9685,-78.0587 1140.6528,-75.6427 1147.2103,-83.9643 1150.9685,-78.0587"/>
</g>
<!-- Node15 -->
<g id="node16" class="node">
<title>Node15</title>
<polygon fill="none" stroke="#bfbfbf" points="1172,-56.5 1172,-75.5 1255,-75.5 1255,-56.5 1172,-56.5"/>
<text text-anchor="middle" x="1213.5" y="-63.5" font-family="Helvetica,sans-Serif" font-size="10.00" fill="#000000">simpleMatrix.H</text>
</g>
<!-- Node1&#45;&gt;Node15 -->
<g id="edge15" class="edge">
<title>Node1&#45;&gt;Node15</title>
<path fill="none" stroke="#191970" d="M1213.5,-112.2455C1213.5,-104.9382 1213.5,-94.6944 1213.5,-85.7046"/>
<polygon fill="#191970" stroke="#191970" points="1217.0001,-85.6426 1213.5,-75.6427 1210.0001,-85.6427 1217.0001,-85.6426"/>
</g>
<!-- Node16 -->
<g id="node17" class="node">
<title>Node16</title>
<polygon fill="none" stroke="#bfbfbf" points="1273,-56.5 1273,-75.5 1404,-75.5 1404,-56.5 1273,-56.5"/>
<text text-anchor="middle" x="1338.5" y="-63.5" font-family="Helvetica,sans-Serif" font-size="10.00" fill="#000000">mathematicalConstants.H</text>
</g>
<!-- Node1&#45;&gt;Node16 -->
<g id="edge16" class="edge">
<title>Node1&#45;&gt;Node16</title>
<path fill="none" stroke="#191970" d="M1234.9883,-112.3733C1255.144,-103.3435 1285.488,-89.7494 1308.118,-79.6111"/>
<polygon fill="#191970" stroke="#191970" points="1309.5971,-82.7838 1317.2921,-75.5011 1306.7351,-76.3955 1309.5971,-82.7838"/>
</g>
<!-- Node17 -->
<g id="node18" class="node">
<title>Node17</title>
<polygon fill="none" stroke="#bfbfbf" points="1422.5,-56.5 1422.5,-75.5 1478.5,-75.5 1478.5,-56.5 1422.5,-56.5"/>
<text text-anchor="middle" x="1450.5" y="-63.5" font-family="Helvetica,sans-Serif" font-size="10.00" fill="#000000">fvCFD.H</text>
</g>
<!-- Node1&#45;&gt;Node17 -->
<g id="edge17" class="edge">
<title>Node1&#45;&gt;Node17</title>
<path fill="none" stroke="#191970" d="M1257.3109,-112.4248C1295.7665,-103.9076 1353.4434,-90.8624 1412.3931,-76.2149"/>
<polygon fill="#191970" stroke="#191970" points="1413.3929,-79.5727 1422.247,-73.7542 1411.6969,-72.7813 1413.3929,-79.5727"/>
</g>
<!-- Node18 -->
<g id="node19" class="node">
<title>Node18</title>
<polygon fill="none" stroke="#bfbfbf" points="1496.5,-56.5 1496.5,-75.5 1562.5,-75.5 1562.5,-56.5 1496.5,-56.5"/>
<text text-anchor="middle" x="1529.5" y="-63.5" font-family="Helvetica,sans-Serif" font-size="10.00" fill="#000000">IFstream.H</text>
</g>
<!-- Node1&#45;&gt;Node18 -->
<g id="edge18" class="edge">
<title>Node1&#45;&gt;Node18</title>
<path fill="none" stroke="#191970" d="M1270.1011,-112.9596C1333.5402,-102.7509 1433.4761,-86.4231 1486.1867,-76.1446"/>
<polygon fill="#191970" stroke="#191970" points="1486.9518,-79.561 1496.0743,-74.1731 1485.583,-72.6961 1486.9518,-79.561"/>
</g>
<!-- Node19 -->
<g id="node20" class="node">
<title>Node19</title>
<polygon fill="none" stroke="#bfbfbf" points="1581,-56.5 1581,-75.5 1652,-75.5 1652,-56.5 1581,-56.5"/>
<text text-anchor="middle" x="1616.5" y="-63.5" font-family="Helvetica,sans-Serif" font-size="10.00" fill="#000000">OFstream.H</text>
</g>
<!-- Node1&#45;&gt;Node19 -->
<g id="edge19" class="edge">
<title>Node1&#45;&gt;Node19</title>
<path fill="none" stroke="#191970" d="M1270.0108,-113.3325C1273.2198,-112.8731 1276.4001,-112.4259 1279.5,-112 1405.881,-94.6385 1440.9418,-98.026 1570.7721,-75.984"/>
<polygon fill="#191970" stroke="#191970" points="1571.4359,-79.4214 1580.7001,-74.2807 1570.2522,-72.5222 1571.4359,-79.4214"/>
</g>
<!-- Node20 -->
<g id="node21" class="node">
<title>Node20</title>
<polygon fill="none" stroke="#bfbfbf" points="1670,-56.5 1670,-75.5 1757,-75.5 1757,-56.5 1670,-56.5"/>
<text text-anchor="middle" x="1713.5" y="-63.5" font-family="Helvetica,sans-Serif" font-size="10.00" fill="#000000">IStringStream.H</text>
</g>
<!-- Node1&#45;&gt;Node20 -->
<g id="edge20" class="edge">
<title>Node1&#45;&gt;Node20</title>
<path fill="none" stroke="#191970" d="M1270.3537,-113.1777C1273.4453,-112.763 1276.5093,-112.3672 1279.5,-112 1445.5359,-91.6143 1490.9673,-99.8013 1659.8799,-76.1232"/>
<polygon fill="#191970" stroke="#191970" points="1660.4491,-79.5776 1669.8584,-74.7078 1659.4659,-72.647 1660.4491,-79.5776"/>
</g>
<!-- Node21 -->
<g id="node22" class="node">
<title>Node21</title>
<polygon fill="none" stroke="#bfbfbf" points="1775.5,-56.5 1775.5,-75.5 1867.5,-75.5 1867.5,-56.5 1775.5,-56.5"/>
<text text-anchor="middle" x="1821.5" y="-63.5" font-family="Helvetica,sans-Serif" font-size="10.00" fill="#000000">OStringStream.H</text>
</g>
<!-- Node1&#45;&gt;Node21 -->
<g id="edge21" class="edge">
<title>Node1&#45;&gt;Node21</title>
<path fill="none" stroke="#191970" d="M1270.3451,-113.1046C1273.4389,-112.7087 1276.5057,-112.337 1279.5,-112 1491.9087,-88.0931 1549.475,-102.9839 1765.2781,-76.0318"/>
<polygon fill="#191970" stroke="#191970" points="1765.8598,-79.4862 1775.3416,-74.7592 1764.9815,-72.5416 1765.8598,-79.4862"/>
</g>
<!-- Node22 -->
<g id="node23" class="node">
<title>Node22</title>
<polygon fill="none" stroke="#bfbfbf" points="1885.5,-56.5 1885.5,-75.5 1935.5,-75.5 1935.5,-56.5 1885.5,-56.5"/>
<text text-anchor="middle" x="1910.5" y="-63.5" font-family="Helvetica,sans-Serif" font-size="10.00" fill="#000000">fstream</text>
</g>
<!-- Node1&#45;&gt;Node22 -->
<g id="edge22" class="edge">
<title>Node1&#45;&gt;Node22</title>
<path fill="none" stroke="#191970" d="M1270.3397,-113.0554C1273.4349,-112.6722 1276.5035,-112.3167 1279.5,-112 1540.4871,-84.416 1612.8297,-120.8462 1875.1837,-75.8461"/>
<polygon fill="#191970" stroke="#191970" points="1876.1468,-79.2312 1885.3992,-74.0695 1874.9474,-72.3347 1876.1468,-79.2312"/>
</g>
<!-- Node23 -->
<g id="node24" class="node">
<title>Node23</title>
<polygon fill="none" stroke="#bfbfbf" points="1953.5,-56.5 1953.5,-75.5 2007.5,-75.5 2007.5,-56.5 1953.5,-56.5"/>
<text text-anchor="middle" x="1980.5" y="-63.5" font-family="Helvetica,sans-Serif" font-size="10.00" fill="#000000">iostream</text>
</g>
<!-- Node1&#45;&gt;Node23 -->
<g id="edge23" class="edge">
<title>Node1&#45;&gt;Node23</title>
<path fill="none" stroke="#191970" d="M1270.3374,-113.0331C1273.4332,-112.6557 1276.5026,-112.3075 1279.5,-112 1570.6363,-82.1339 1650.622,-122.9546 1943.0717,-75.9027"/>
<polygon fill="#191970" stroke="#191970" points="1943.8127,-79.3282 1953.1195,-74.2652 1942.6867,-72.4194 1943.8127,-79.3282"/>
</g>
<!-- Node24 -->
<g id="node25" class="node">
<title>Node24</title>
<polygon fill="none" stroke="#bfbfbf" points="2026,-56.5 2026,-75.5 2067,-75.5 2067,-56.5 2026,-56.5"/>
<text text-anchor="middle" x="2046.5" y="-63.5" font-family="Helvetica,sans-Serif" font-size="10.00" fill="#000000">string</text>
</g>
<!-- Node1&#45;&gt;Node24 -->
<g id="edge24" class="edge">
<title>Node1&#45;&gt;Node24</title>
<path fill="none" stroke="#191970" d="M1270.3355,-113.014C1273.4318,-112.6415 1276.5018,-112.2996 1279.5,-112 1602.4751,-79.7283 1692.33,-135.2546 2015.589,-75.6273"/>
<polygon fill="#191970" stroke="#191970" points="2016.5243,-79.0132 2025.7117,-73.7367 2015.2391,-72.1322 2016.5243,-79.0132"/>
</g>
<!-- Node25 -->
<g id="node26" class="node">
<title>Node25</title>
<polygon fill="none" stroke="#bfbfbf" points="2085.5,-56.5 2085.5,-75.5 2129.5,-75.5 2129.5,-56.5 2085.5,-56.5"/>
<text text-anchor="middle" x="2107.5" y="-63.5" font-family="Helvetica,sans-Serif" font-size="10.00" fill="#000000">cmath</text>
</g>
<!-- Node1&#45;&gt;Node25 -->
<g id="edge25" class="edge">
<title>Node1&#45;&gt;Node25</title>
<path fill="none" stroke="#191970" d="M1270.3342,-113.0006C1273.4308,-112.6316 1276.5012,-112.2941 1279.5,-112 1629.1166,-77.7139 1725.7683,-137.8545 2075.4402,-75.7128"/>
<polygon fill="#191970" stroke="#191970" points="2076.1075,-79.149 2085.3304,-73.9347 2074.8689,-72.2594 2076.1075,-79.149"/>
</g>
<!-- Node26 -->
<g id="node27" class="node">
<title>Node26</title>
<polygon fill="none" stroke="#bfbfbf" points="2147.5,-56.5 2147.5,-75.5 2197.5,-75.5 2197.5,-56.5 2147.5,-56.5"/>
<text text-anchor="middle" x="2172.5" y="-63.5" font-family="Helvetica,sans-Serif" font-size="10.00" fill="#000000">iomanip</text>
</g>
<!-- Node1&#45;&gt;Node26 -->
<g id="edge26" class="edge">
<title>Node1&#45;&gt;Node26</title>
<path fill="none" stroke="#191970" d="M1270.333,-112.9888C1273.4299,-112.6228 1276.5007,-112.2892 1279.5,-112 1656.5059,-75.6471 1759.7037,-137.2734 2137.2987,-75.7872"/>
<polygon fill="#191970" stroke="#191970" points="2138.1099,-79.2008 2147.4082,-74.1224 2136.9724,-72.2939 2138.1099,-79.2008"/>
</g>
<!-- Node27 -->
<g id="node28" class="node">
<title>Node27</title>
<polygon fill="none" stroke="#bfbfbf" points="2216,-56.5 2216,-75.5 2295,-75.5 2295,-56.5 2216,-56.5"/>
<text text-anchor="middle" x="2255.5" y="-63.5" font-family="Helvetica,sans-Serif" font-size="10.00" fill="#000000">UDictionary.H</text>
</g>
<!-- Node1&#45;&gt;Node27 -->
<g id="edge27" class="edge">
<title>Node1&#45;&gt;Node27</title>
<path fill="none" stroke="#191970" d="M1270.3319,-112.9777C1273.4291,-112.6145 1276.5003,-112.2846 1279.5,-112 1686.6603,-73.37 1795.4109,-124.5485 2205.6856,-75.8822"/>
<polygon fill="#191970" stroke="#191970" points="2206.2302,-79.3421 2215.7424,-74.6766 2205.3969,-72.3919 2206.2302,-79.3421"/>
</g>
<!-- Node28 -->
<g id="node29" class="node">
<title>Node28</title>
<g id="a_node29"><a xlink:href="clouds_2Templates_2FrontTrackingCloud_2FrontTrackingCloudI_8H.html" target="_top" xlink:title="FrontTrackingCloudI.H">
<polygon fill="none" stroke="#000000" points="2312.5,-56.5 2312.5,-75.5 2428.5,-75.5 2428.5,-56.5 2312.5,-56.5"/>
<text text-anchor="middle" x="2370.5" y="-63.5" font-family="Helvetica,sans-Serif" font-size="10.00" fill="#000000">FrontTrackingCloudI.H</text>
</a>
</g>
</g>
<!-- Node1&#45;&gt;Node28 -->
<g id="edge28" class="edge">
<title>Node1&#45;&gt;Node28</title>
<path fill="none" stroke="#191970" d="M1270.3307,-112.9642C1273.4282,-112.6045 1276.4998,-112.279 1279.5,-112 1730.0533,-70.0957 1848.8869,-117.5089 2302.1539,-76.1298"/>
<polygon fill="#191970" stroke="#191970" points="2302.6055,-79.6031 2312.2417,-75.1993 2301.9625,-72.6327 2302.6055,-79.6031"/>
</g>
<!-- Node29 -->
<g id="node30" class="node">
<title>Node29</title>
<polygon fill="none" stroke="#bfbfbf" points="2323,-.5 2323,-19.5 2418,-19.5 2418,-.5 2323,-.5"/>
<text text-anchor="middle" x="2370.5" y="-7.5" font-family="Helvetica,sans-Serif" font-size="10.00" fill="#000000">NoFrontToField.H</text>
</g>
<!-- Node28&#45;&gt;Node29 -->
<g id="edge29" class="edge">
<title>Node28&#45;&gt;Node29</title>
<path fill="none" stroke="#191970" d="M2370.5,-56.2455C2370.5,-48.9382 2370.5,-38.6944 2370.5,-29.7046"/>
<polygon fill="#191970" stroke="#191970" points="2374.0001,-29.6426 2370.5,-19.6427 2367.0001,-29.6427 2374.0001,-29.6426"/>
</g>
</g>
</svg>
