<?xml version="1.0" encoding="UTF-8" standalone="no"?>
<!DOCTYPE svg PUBLIC "-//W3C//DTD SVG 1.1//EN"
 "http://www.w3.org/Graphics/SVG/1.1/DTD/svg11.dtd">
<!-- Generated by graphviz version 2.40.1 (20161225.0304)
 -->
<!-- Title: clouds/derived/frontTrackingCloud/frontTrackingCloud.H Pages: 1 -->
<svg width="590pt" height="95pt"
 viewBox="0.00 0.00 589.50 95.00" xmlns="http://www.w3.org/2000/svg" xmlns:xlink="http://www.w3.org/1999/xlink">
<g id="graph0" class="graph" transform="scale(1 1) rotate(0) translate(4 91)">
<title>clouds/derived/frontTrackingCloud/frontTrackingCloud.H</title>
<!-- Node0 -->
<g id="node1" class="node">
<title>Node0</title>
<polygon fill="#bfbfbf" stroke="#000000" points="226.5,-56.5 226.5,-86.5 366.5,-86.5 366.5,-56.5 226.5,-56.5"/>
<text text-anchor="start" x="234.5" y="-74.5" font-family="Helvetica,sans-Serif" font-size="10.00" fill="#000000">clouds/derived/frontTracking</text>
<text text-anchor="middle" x="296.5" y="-63.5" font-family="Helvetica,sans-Serif" font-size="10.00" fill="#000000">Cloud/frontTrackingCloud.H</text>
</g>
<!-- Node1 -->
<g id="node2" class="node">
<title>Node1</title>
<polygon fill="none" stroke="#bfbfbf" points="0,-.5 0,-19.5 103,-19.5 103,-.5 0,-.5"/>
<text text-anchor="middle" x="51.5" y="-7.5" font-family="Helvetica,sans-Serif" font-size="10.00" fill="#000000">ParcelCloudBase.H</text>
</g>
<!-- Node0&#45;&gt;Node1 -->
<g id="edge1" class="edge">
<title>Node0&#45;&gt;Node1</title>
<path fill="none" stroke="#191970" d="M236.5663,-56.4554C194.3427,-45.8564 138.5629,-31.8546 99.319,-22.0035"/>
<polygon fill="#191970" stroke="#191970" points="100.0176,-18.5704 89.4663,-19.5303 98.3132,-25.3597 100.0176,-18.5704"/>
</g>
<!-- Node2 -->
<g id="node3" class="node">
<title>Node2</title>
<polygon fill="none" stroke="#bfbfbf" points="121,-.5 121,-19.5 222,-19.5 222,-.5 121,-.5"/>
<text text-anchor="middle" x="171.5" y="-7.5" font-family="Helvetica,sans-Serif" font-size="10.00" fill="#000000">MomentumCloud.H</text>
</g>
<!-- Node0&#45;&gt;Node2 -->
<g id="edge2" class="edge">
<title>Node0&#45;&gt;Node2</title>
<path fill="none" stroke="#191970" d="M265.9216,-56.4554C245.7968,-46.554 219.6361,-33.683 199.9562,-24.0004"/>
<polygon fill="#191970" stroke="#191970" points="201.3885,-20.8045 190.8706,-19.5303 198.2982,-27.0855 201.3885,-20.8045"/>
</g>
<!-- Node3 -->
<g id="node4" class="node">
<title>Node3</title>
<polygon fill="none" stroke="#bfbfbf" points="240,-.5 240,-19.5 353,-19.5 353,-.5 240,-.5"/>
<text text-anchor="middle" x="296.5" y="-7.5" font-family="Helvetica,sans-Serif" font-size="10.00" fill="#000000">FrontTrackingCloud.H</text>
</g>
<!-- Node0&#45;&gt;Node3 -->
<g id="edge3" class="edge">
<title>Node0&#45;&gt;Node3</title>
<path fill="none" stroke="#191970" d="M296.5,-56.2977C296.5,-48.3834 296.5,-38.6043 296.5,-30.0759"/>
<polygon fill="#191970" stroke="#191970" points="300.0001,-29.8469 296.5,-19.8469 293.0001,-29.847 300.0001,-29.8469"/>
</g>
<!-- Node4 -->
<g id="node5" class="node">
<title>Node4</title>
<polygon fill="none" stroke="#bfbfbf" points="371.5,-.5 371.5,-19.5 451.5,-19.5 451.5,-.5 371.5,-.5"/>
<text text-anchor="middle" x="411.5" y="-7.5" font-family="Helvetica,sans-Serif" font-size="10.00" fill="#000000">ParcelCloud.H</text>
</g>
<!-- Node0&#45;&gt;Node4 -->
<g id="edge4" class="edge">
<title>Node0&#45;&gt;Node4</title>
<path fill="none" stroke="#191970" d="M324.6322,-56.4554C342.9786,-46.644 366.7777,-33.9167 384.8251,-24.2653"/>
<polygon fill="#191970" stroke="#191970" points="386.5114,-27.3326 393.6791,-19.5303 383.2103,-21.1598 386.5114,-27.3326"/>
</g>
<!-- Node5 -->
<g id="node6" class="node">
<title>Node5</title>
<polygon fill="none" stroke="#bfbfbf" points="469.5,-.5 469.5,-19.5 581.5,-19.5 581.5,-.5 469.5,-.5"/>
<text text-anchor="middle" x="525.5" y="-7.5" font-family="Helvetica,sans-Serif" font-size="10.00" fill="#000000">frontTrackingParcel.H</text>
</g>
<!-- Node0&#45;&gt;Node5 -->
<g id="edge5" class="edge">
<title>Node0&#45;&gt;Node5</title>
<path fill="none" stroke="#191970" d="M352.5197,-56.4554C391.7345,-45.9239 443.4592,-32.0328 480.1011,-22.1923"/>
<polygon fill="#191970" stroke="#191970" points="481.2632,-25.5043 490.0131,-19.5303 479.4475,-18.7438 481.2632,-25.5043"/>
</g>
</g>
</svg>
