<?xml version="1.0" encoding="UTF-8" standalone="no"?>
<!DOCTYPE svg PUBLIC "-//W3C//DTD SVG 1.1//EN"
 "http://www.w3.org/Graphics/SVG/1.1/DTD/svg11.dtd">
<!-- Generated by graphviz version 2.40.1 (20161225.0304)
 -->
<!-- Title: clouds/Templates/FrontTrackingCloud/FrontTrackingCloud.H Pages: 1 -->
<svg width="350pt" height="106pt"
 viewBox="0.00 0.00 350.00 106.00" xmlns="http://www.w3.org/2000/svg" xmlns:xlink="http://www.w3.org/1999/xlink">
<g id="graph0" class="graph" transform="scale(1 1) rotate(0) translate(4 102)">
<title>clouds/Templates/FrontTrackingCloud/FrontTrackingCloud.H</title>
<!-- Node29 -->
<g id="node1" class="node">
<title>Node29</title>
<polygon fill="#bfbfbf" stroke="#000000" points="90,-67.5 90,-97.5 247,-97.5 247,-67.5 90,-67.5"/>
<text text-anchor="start" x="98" y="-85.5" font-family="Helvetica,sans-Serif" font-size="10.00" fill="#000000">clouds/Templates/FrontTracking</text>
<text text-anchor="middle" x="168.5" y="-74.5" font-family="Helvetica,sans-Serif" font-size="10.00" fill="#000000">Cloud/FrontTrackingCloud.H</text>
</g>
<!-- Node30 -->
<g id="node2" class="node">
<title>Node30</title>
<g id="a_node2"><a xlink:href="clouds_2Templates_2FrontTrackingCloud_2FrontTrackingCloud_8C.html" target="_top" xlink:title="clouds/Templates/FrontTracking\lCloud/FrontTrackingCloud.C">
<polygon fill="none" stroke="#000000" points="0,-.5 0,-30.5 157,-30.5 157,-.5 0,-.5"/>
<text text-anchor="start" x="8" y="-18.5" font-family="Helvetica,sans-Serif" font-size="10.00" fill="#000000">clouds/Templates/FrontTracking</text>
<text text-anchor="middle" x="78.5" y="-7.5" font-family="Helvetica,sans-Serif" font-size="10.00" fill="#000000">Cloud/FrontTrackingCloud.C</text>
</a>
</g>
</g>
<!-- Node29&#45;&gt;Node30 -->
<g id="edge1" class="edge">
<title>Node29&#45;&gt;Node30</title>
<path fill="none" stroke="#191970" d="M139.7058,-61.0643C126.3984,-51.1577 110.9087,-39.6265 98.8416,-30.6432"/>
<polygon fill="#191970" stroke="#191970" points="137.9662,-64.1327 148.0776,-67.2967 142.1463,-58.5177 137.9662,-64.1327"/>
</g>
<!-- Node31 -->
<g id="node3" class="node">
<title>Node31</title>
<g id="a_node3"><a xlink:href="clouds_2Templates_2FrontTrackingCloud_2FrontTrackingCloudName_8C.html" target="_top" xlink:title="clouds/Templates/FrontTracking\lCloud/FrontTrackingCloudName.C">
<polygon fill="none" stroke="#000000" points="175,-.5 175,-30.5 342,-30.5 342,-.5 175,-.5"/>
<text text-anchor="start" x="183" y="-18.5" font-family="Helvetica,sans-Serif" font-size="10.00" fill="#000000">clouds/Templates/FrontTracking</text>
<text text-anchor="middle" x="258.5" y="-7.5" font-family="Helvetica,sans-Serif" font-size="10.00" fill="#000000">Cloud/FrontTrackingCloudName.C</text>
</a>
</g>
</g>
<!-- Node29&#45;&gt;Node31 -->
<g id="edge2" class="edge">
<title>Node29&#45;&gt;Node31</title>
<path fill="none" stroke="#191970" d="M197.2942,-61.0643C210.6016,-51.1577 226.0913,-39.6265 238.1584,-30.6432"/>
<polygon fill="#191970" stroke="#191970" points="194.8537,-58.5177 188.9224,-67.2967 199.0338,-64.1327 194.8537,-58.5177"/>
</g>
</g>
</svg>
