<?xml version="1.0" encoding="UTF-8" standalone="no"?>
<!DOCTYPE svg PUBLIC "-//W3C//DTD SVG 1.1//EN"
 "http://www.w3.org/Graphics/SVG/1.1/DTD/svg11.dtd">
<!-- Generated by graphviz version 2.40.1 (20161225.0304)
 -->
<!-- Title: clouds/Templates/FrontTrackingCloud/bubbleData/bubbleDataI.H Pages: 1 -->
<svg width="169pt" height="173pt"
 viewBox="0.00 0.00 169.00 173.00" xmlns="http://www.w3.org/2000/svg" xmlns:xlink="http://www.w3.org/1999/xlink">
<g id="graph0" class="graph" transform="scale(1 1) rotate(0) translate(4 169)">
<title>clouds/Templates/FrontTrackingCloud/bubbleData/bubbleDataI.H</title>
<!-- Node1 -->
<g id="node1" class="node">
<title>Node1</title>
<polygon fill="#bfbfbf" stroke="#000000" points="0,-134.5 0,-164.5 161,-164.5 161,-134.5 0,-134.5"/>
<text text-anchor="start" x="8" y="-152.5" font-family="Helvetica,sans-Serif" font-size="10.00" fill="#000000">clouds/Templates/FrontTracking</text>
<text text-anchor="middle" x="80.5" y="-141.5" font-family="Helvetica,sans-Serif" font-size="10.00" fill="#000000">Cloud/bubbleData/bubbleDataI.H</text>
</g>
<!-- Node2 -->
<g id="node2" class="node">
<title>Node2</title>
<g id="a_node2"><a xlink:href="clouds_2Templates_2FrontTrackingCloud_2bubbleData_2bubbleData_8H.html" target="_top" xlink:title="clouds/Templates/FrontTracking\lCloud/bubbleData/bubbleData.H">
<polygon fill="none" stroke="#000000" points="1.5,-67.5 1.5,-97.5 159.5,-97.5 159.5,-67.5 1.5,-67.5"/>
<text text-anchor="start" x="9.5" y="-85.5" font-family="Helvetica,sans-Serif" font-size="10.00" fill="#000000">clouds/Templates/FrontTracking</text>
<text text-anchor="middle" x="80.5" y="-74.5" font-family="Helvetica,sans-Serif" font-size="10.00" fill="#000000">Cloud/bubbleData/bubbleData.H</text>
</a>
</g>
</g>
<!-- Node1&#45;&gt;Node2 -->
<g id="edge1" class="edge">
<title>Node1&#45;&gt;Node2</title>
<path fill="none" stroke="#191970" d="M80.5,-124.0249C80.5,-115.128 80.5,-105.4287 80.5,-97.6432"/>
<polygon fill="#191970" stroke="#191970" points="77.0001,-124.2966 80.5,-134.2967 84.0001,-124.2967 77.0001,-124.2966"/>
</g>
<!-- Node3 -->
<g id="node3" class="node">
<title>Node3</title>
<g id="a_node3"><a xlink:href="clouds_2Templates_2FrontTrackingCloud_2bubbleData_2bubbleData_8C.html" target="_top" xlink:title="clouds/Templates/FrontTracking\lCloud/bubbleData/bubbleData.C">
<polygon fill="none" stroke="#000000" points="1.5,-.5 1.5,-30.5 159.5,-30.5 159.5,-.5 1.5,-.5"/>
<text text-anchor="start" x="9.5" y="-18.5" font-family="Helvetica,sans-Serif" font-size="10.00" fill="#000000">clouds/Templates/FrontTracking</text>
<text text-anchor="middle" x="80.5" y="-7.5" font-family="Helvetica,sans-Serif" font-size="10.00" fill="#000000">Cloud/bubbleData/bubbleData.C</text>
</a>
</g>
</g>
<!-- Node2&#45;&gt;Node3 -->
<g id="edge2" class="edge">
<title>Node2&#45;&gt;Node3</title>
<path fill="none" stroke="#191970" d="M80.5,-57.0249C80.5,-48.128 80.5,-38.4287 80.5,-30.6432"/>
<polygon fill="#191970" stroke="#191970" points="77.0001,-57.2966 80.5,-67.2967 84.0001,-57.2967 77.0001,-57.2966"/>
</g>
</g>
</svg>
