<?xml version="1.0" encoding="UTF-8" standalone="no"?>
<!DOCTYPE svg PUBLIC "-//W3C//DTD SVG 1.1//EN"
 "http://www.w3.org/Graphics/SVG/1.1/DTD/svg11.dtd">
<!-- Generated by graphviz version 2.40.1 (20161225.0304)
 -->
<!-- Title: clouds/Templates/FrontTrackingCloud/FrontTrackingCloudName.C Pages: 1 -->
<svg width="2437pt" height="207pt"
 viewBox="0.00 0.00 2436.50 207.00" xmlns="http://www.w3.org/2000/svg" xmlns:xlink="http://www.w3.org/1999/xlink">
<g id="graph0" class="graph" transform="scale(1 1) rotate(0) translate(4 203)">
<title>clouds/Templates/FrontTrackingCloud/FrontTrackingCloudName.C</title>
<!-- Node0 -->
<g id="node1" class="node">
<title>Node0</title>
<polygon fill="#bfbfbf" stroke="#000000" points="1130,-168.5 1130,-198.5 1297,-198.5 1297,-168.5 1130,-168.5"/>
<text text-anchor="start" x="1138" y="-186.5" font-family="Helvetica,sans-Serif" font-size="10.00" fill="#000000">clouds/Templates/FrontTracking</text>
<text text-anchor="middle" x="1213.5" y="-175.5" font-family="Helvetica,sans-Serif" font-size="10.00" fill="#000000">Cloud/FrontTrackingCloudName.C</text>
</g>
<!-- Node1 -->
<g id="node2" class="node">
<title>Node1</title>
<g id="a_node2"><a xlink:href="clouds_2Templates_2FrontTrackingCloud_2FrontTrackingCloud_8H.html" target="_top" xlink:title="FrontTrackingCloud.H">
<polygon fill="none" stroke="#000000" points="1157,-112.5 1157,-131.5 1270,-131.5 1270,-112.5 1157,-112.5"/>
<text text-anchor="middle" x="1213.5" y="-119.5" font-family="Helvetica,sans-Serif" font-size="10.00" fill="#000000">FrontTrackingCloud.H</text>
</a>
</g>
</g>
<!-- Node0&#45;&gt;Node1 -->
<g id="edge1" class="edge">
<title>Node0&#45;&gt;Node1</title>
<path fill="none" stroke="#191970" d="M1213.5,-168.2977C1213.5,-160.3834 1213.5,-150.6043 1213.5,-142.0759"/>
<polygon fill="#191970" stroke="#191970" points="1217.0001,-141.8469 1213.5,-131.8469 1210.0001,-141.847 1217.0001,-141.8469"/>
</g>
<!-- Node2 -->
<g id="node3" class="node">
<title>Node2</title>
<polygon fill="none" stroke="#bfbfbf" points="0,-56.5 0,-75.5 85,-75.5 85,-56.5 0,-56.5"/>
<text text-anchor="middle" x="42.5" y="-63.5" font-family="Helvetica,sans-Serif" font-size="10.00" fill="#000000">volFieldsFwd.H</text>
</g>
<!-- Node1&#45;&gt;Node2 -->
<g id="edge2" class="edge">
<title>Node1&#45;&gt;Node2</title>
<path fill="none" stroke="#191970" d="M1156.7318,-120.7855C962.3305,-116.454 323.32,-100.749 95.4812,-75.9004"/>
<polygon fill="#191970" stroke="#191970" points="95.5999,-72.3917 85.2705,-74.7482 94.815,-79.3475 95.5999,-72.3917"/>
</g>
<!-- Node3 -->
<g id="node4" class="node">
<title>Node3</title>
<polygon fill="none" stroke="#bfbfbf" points="103.5,-56.5 103.5,-75.5 195.5,-75.5 195.5,-56.5 103.5,-56.5"/>
<text text-anchor="middle" x="149.5" y="-63.5" font-family="Helvetica,sans-Serif" font-size="10.00" fill="#000000">fvMatricesFwd.H</text>
</g>
<!-- Node1&#45;&gt;Node3 -->
<g id="edge3" class="edge">
<title>Node1&#45;&gt;Node3</title>
<path fill="none" stroke="#191970" d="M1156.6967,-120.3897C972.3615,-115.0095 392.0057,-96.817 205.5,-76 205.3988,-75.9887 205.2975,-75.9773 205.1961,-75.9659"/>
<polygon fill="#191970" stroke="#191970" points="205.9414,-72.5332 195.575,-74.7214 205.0434,-79.4754 205.9414,-72.5332"/>
</g>
<!-- Node4 -->
<g id="node5" class="node">
<title>Node4</title>
<polygon fill="none" stroke="#bfbfbf" points="214,-56.5 214,-75.5 323,-75.5 323,-56.5 214,-56.5"/>
<text text-anchor="middle" x="268.5" y="-63.5" font-family="Helvetica,sans-Serif" font-size="10.00" fill="#000000">dimensionedTypes.H</text>
</g>
<!-- Node1&#45;&gt;Node4 -->
<g id="edge4" class="edge">
<title>Node1&#45;&gt;Node4</title>
<path fill="none" stroke="#191970" d="M1156.913,-121.0608C1018.3212,-118.3274 650.7106,-108.4615 333.5773,-76.0015"/>
<polygon fill="#191970" stroke="#191970" points="333.5712,-72.4824 323.2644,-74.9361 332.8518,-79.4453 333.5712,-72.4824"/>
</g>
<!-- Node5 -->
<g id="node6" class="node">
<title>Node5</title>
<polygon fill="none" stroke="#bfbfbf" points="341,-56.5 341,-75.5 400,-75.5 400,-56.5 341,-56.5"/>
<text text-anchor="middle" x="370.5" y="-63.5" font-family="Helvetica,sans-Serif" font-size="10.00" fill="#000000">fvMesh.H</text>
</g>
<!-- Node1&#45;&gt;Node5 -->
<g id="edge5" class="edge">
<title>Node1&#45;&gt;Node5</title>
<path fill="none" stroke="#191970" d="M1156.7493,-120.1851C1001.7953,-115.0067 572.8407,-99.1248 410.4897,-75.7919"/>
<polygon fill="#191970" stroke="#191970" points="410.5962,-72.2687 400.1872,-74.2442 409.5562,-79.191 410.5962,-72.2687"/>
</g>
<!-- Node6 -->
<g id="node7" class="node">
<title>Node6</title>
<polygon fill="none" stroke="#bfbfbf" points="418.5,-56.5 418.5,-75.5 496.5,-75.5 496.5,-56.5 418.5,-56.5"/>
<text text-anchor="middle" x="457.5" y="-63.5" font-family="Helvetica,sans-Serif" font-size="10.00" fill="#000000">fluidThermo.H</text>
</g>
<!-- Node1&#45;&gt;Node6 -->
<g id="edge6" class="edge">
<title>Node1&#45;&gt;Node6</title>
<path fill="none" stroke="#191970" d="M1156.8795,-120.9329C1038.1934,-118.13 754.5826,-108.4679 506.652,-75.8183"/>
<polygon fill="#191970" stroke="#191970" points="507.1093,-72.3484 496.7347,-74.4974 506.185,-79.2871 507.1093,-72.3484"/>
</g>
<!-- Node7 -->
<g id="node8" class="node">
<title>Node7</title>
<polygon fill="none" stroke="#bfbfbf" points="515,-56.5 515,-75.5 568,-75.5 568,-56.5 515,-56.5"/>
<text text-anchor="middle" x="541.5" y="-63.5" font-family="Helvetica,sans-Serif" font-size="10.00" fill="#000000">Cloud.H</text>
</g>
<!-- Node1&#45;&gt;Node7 -->
<g id="edge7" class="edge">
<title>Node1&#45;&gt;Node7</title>
<path fill="none" stroke="#191970" d="M1156.7474,-119.3442C1025.9763,-112.9967 705.5724,-96.0847 578.0318,-75.6889"/>
<polygon fill="#191970" stroke="#191970" points="578.543,-72.2258 568.1019,-74.0243 577.3856,-79.1295 578.543,-72.2258"/>
</g>
<!-- Node8 -->
<g id="node9" class="node">
<title>Node8</title>
<polygon fill="none" stroke="#bfbfbf" points="586,-56.5 586,-75.5 663,-75.5 663,-56.5 586,-56.5"/>
<text text-anchor="middle" x="624.5" y="-63.5" font-family="Helvetica,sans-Serif" font-size="10.00" fill="#000000">bubbleData.H</text>
</g>
<!-- Node1&#45;&gt;Node8 -->
<g id="edge8" class="edge">
<title>Node1&#45;&gt;Node8</title>
<path fill="none" stroke="#191970" d="M1156.7757,-119.4314C1059.7625,-114.5454 855.632,-102.1191 673.2454,-75.9396"/>
<polygon fill="#191970" stroke="#191970" points="673.6005,-72.4545 663.2012,-74.4806 672.5942,-79.3818 673.6005,-72.4545"/>
</g>
<!-- Node9 -->
<g id="node10" class="node">
<title>Node9</title>
<polygon fill="none" stroke="#bfbfbf" points="681.5,-56.5 681.5,-75.5 747.5,-75.5 747.5,-56.5 681.5,-56.5"/>
<text text-anchor="middle" x="714.5" y="-63.5" font-family="Helvetica,sans-Serif" font-size="10.00" fill="#000000">fileName.H</text>
</g>
<!-- Node1&#45;&gt;Node9 -->
<g id="edge9" class="edge">
<title>Node1&#45;&gt;Node9</title>
<path fill="none" stroke="#191970" d="M1156.6755,-118.613C1072.0446,-113.0527 907.7548,-100.2755 758.0456,-75.8759"/>
<polygon fill="#191970" stroke="#191970" points="758.1869,-72.3519 747.7503,-74.1756 757.0462,-79.2584 758.1869,-72.3519"/>
</g>
<!-- Node10 -->
<g id="node11" class="node">
<title>Node10</title>
<polygon fill="none" stroke="#bfbfbf" points="766,-56.5 766,-75.5 835,-75.5 835,-56.5 766,-56.5"/>
<text text-anchor="middle" x="800.5" y="-63.5" font-family="Helvetica,sans-Serif" font-size="10.00" fill="#000000">pointField.H</text>
</g>
<!-- Node1&#45;&gt;Node10 -->
<g id="edge10" class="edge">
<title>Node1&#45;&gt;Node10</title>
<path fill="none" stroke="#191970" d="M1156.9767,-116.718C1086.4029,-109.7309 961.8128,-96.1076 845.1963,-75.9648"/>
<polygon fill="#191970" stroke="#191970" points="845.4747,-72.4605 835.0215,-74.1869 844.2698,-79.356 845.4747,-72.4605"/>
</g>
<!-- Node11 -->
<g id="node12" class="node">
<title>Node11</title>
<polygon fill="none" stroke="#bfbfbf" points="853.5,-56.5 853.5,-75.5 901.5,-75.5 901.5,-56.5 853.5,-56.5"/>
<text text-anchor="middle" x="877.5" y="-63.5" font-family="Helvetica,sans-Serif" font-size="10.00" fill="#000000">point.H</text>
</g>
<!-- Node1&#45;&gt;Node11 -->
<g id="edge11" class="edge">
<title>Node1&#45;&gt;Node11</title>
<path fill="none" stroke="#191970" d="M1156.9245,-115.8732C1097.8693,-108.9272 1002.4793,-96.1599 911.4726,-75.9596"/>
<polygon fill="#191970" stroke="#191970" points="912.0688,-72.5063 901.5439,-73.7218 910.5296,-79.335 912.0688,-72.5063"/>
</g>
<!-- Node12 -->
<g id="node13" class="node">
<title>Node12</title>
<polygon fill="none" stroke="#bfbfbf" points="919.5,-56.5 919.5,-75.5 975.5,-75.5 975.5,-56.5 919.5,-56.5"/>
<text text-anchor="middle" x="947.5" y="-63.5" font-family="Helvetica,sans-Serif" font-size="10.00" fill="#000000">DLList.H</text>
</g>
<!-- Node1&#45;&gt;Node12 -->
<g id="edge12" class="edge">
<title>Node1&#45;&gt;Node12</title>
<path fill="none" stroke="#191970" d="M1161.7002,-112.4404C1115.3669,-103.678 1045.6811,-89.977 985.5,-76 985.4003,-75.9769 985.3005,-75.9536 985.2006,-75.9303"/>
<polygon fill="#191970" stroke="#191970" points="986.2206,-72.5765 975.6763,-73.6101 984.5637,-79.3776 986.2206,-72.5765"/>
</g>
<!-- Node13 -->
<g id="node14" class="node">
<title>Node13</title>
<polygon fill="none" stroke="#bfbfbf" points="994,-56.5 994,-75.5 1079,-75.5 1079,-56.5 994,-56.5"/>
<text text-anchor="middle" x="1036.5" y="-63.5" font-family="Helvetica,sans-Serif" font-size="10.00" fill="#000000">sphereToCell.H</text>
</g>
<!-- Node1&#45;&gt;Node13 -->
<g id="edge13" class="edge">
<title>Node1&#45;&gt;Node13</title>
<path fill="none" stroke="#191970" d="M1183.0726,-112.3733C1153.5128,-103.021 1108.4774,-88.7725 1076.1305,-78.5385"/>
<polygon fill="#191970" stroke="#191970" points="1077.1203,-75.1807 1066.5303,-75.5011 1075.0087,-81.8546 1077.1203,-75.1807"/>
</g>
<!-- Node14 -->
<g id="node15" class="node">
<title>Node14</title>
<polygon fill="none" stroke="#bfbfbf" points="1097,-56.5 1097,-75.5 1154,-75.5 1154,-56.5 1097,-56.5"/>
<text text-anchor="middle" x="1125.5" y="-63.5" font-family="Helvetica,sans-Serif" font-size="10.00" fill="#000000">cellSet.H</text>
</g>
<!-- Node1&#45;&gt;Node14 -->
<g id="edge14" class="edge">
<title>Node1&#45;&gt;Node14</title>
<path fill="none" stroke="#191970" d="M1198.1716,-112.2455C1184.6697,-103.6534 1164.7878,-91.0014 1149.2314,-81.1018"/>
<polygon fill="#191970" stroke="#191970" points="1150.9685,-78.0587 1140.6528,-75.6427 1147.2103,-83.9643 1150.9685,-78.0587"/>
</g>
<!-- Node15 -->
<g id="node16" class="node">
<title>Node15</title>
<polygon fill="none" stroke="#bfbfbf" points="1172,-56.5 1172,-75.5 1255,-75.5 1255,-56.5 1172,-56.5"/>
<text text-anchor="middle" x="1213.5" y="-63.5" font-family="Helvetica,sans-Serif" font-size="10.00" fill="#000000">simpleMatrix.H</text>
</g>
<!-- Node1&#45;&gt;Node15 -->
<g id="edge15" class="edge">
<title>Node1&#45;&gt;Node15</title>
<path fill="none" stroke="#191970" d="M1213.5,-112.2455C1213.5,-104.9382 1213.5,-94.6944 1213.5,-85.7046"/>
<polygon fill="#191970" stroke="#191970" points="1217.0001,-85.6426 1213.5,-75.6427 1210.0001,-85.6427 1217.0001,-85.6426"/>
</g>
<!-- Node16 -->
<g id="node17" class="node">
<title>Node16</title>
<polygon fill="none" stroke="#bfbfbf" points="1273,-56.5 1273,-75.5 1404,-75.5 1404,-56.5 1273,-56.5"/>
<text text-anchor="middle" x="1338.5" y="-63.5" font-family="Helvetica,sans-Serif" font-size="10.00" fill="#000000">mathematicalConstants.H</text>
</g>
<!-- Node1&#45;&gt;Node16 -->
<g id="edge16" class="edge">
<title>Node1&#45;&gt;Node16</title>
<path fill="none" stroke="#191970" d="M1234.9883,-112.3733C1255.144,-103.3435 1285.488,-89.7494 1308.118,-79.6111"/>
<polygon fill="#191970" stroke="#191970" points="1309.5971,-82.7838 1317.2921,-75.5011 1306.7351,-76.3955 1309.5971,-82.7838"/>
</g>
<!-- Node17 -->
<g id="node18" class="node">
<title>Node17</title>
<polygon fill="none" stroke="#bfbfbf" points="1422.5,-56.5 1422.5,-75.5 1478.5,-75.5 1478.5,-56.5 1422.5,-56.5"/>
<text text-anchor="middle" x="1450.5" y="-63.5" font-family="Helvetica,sans-Serif" font-size="10.00" fill="#000000">fvCFD.H</text>
</g>
<!-- Node1&#45;&gt;Node17 -->
<g id="edge17" class="edge">
<title>Node1&#45;&gt;Node17</title>
<path fill="none" stroke="#191970" d="M1257.3109,-112.4248C1295.7665,-103.9076 1353.4434,-90.8624 1412.3931,-76.2149"/>
<polygon fill="#191970" stroke="#191970" points="1413.3929,-79.5727 1422.247,-73.7542 1411.6969,-72.7813 1413.3929,-79.5727"/>
</g>
<!-- Node18 -->
<g id="node19" class="node">
<title>Node18</title>
<polygon fill="none" stroke="#bfbfbf" points="1496.5,-56.5 1496.5,-75.5 1562.5,-75.5 1562.5,-56.5 1496.5,-56.5"/>
<text text-anchor="middle" x="1529.5" y="-63.5" font-family="Helvetica,sans-Serif" font-size="10.00" fill="#000000">IFstream.H</text>
</g>
<!-- Node1&#45;&gt;Node18 -->
<g id="edge18" class="edge">
<title>Node1&#45;&gt;Node18</title>
<path fill="none" stroke="#191970" d="M1270.1171,-113.6358C1323.3886,-105.5086 1405.6043,-92.3063 1485.7982,-76.2489"/>
<polygon fill="#191970" stroke="#191970" points="1486.9654,-79.584 1496.0743,-74.1731 1485.5793,-72.7225 1486.9654,-79.584"/>
</g>
<!-- Node19 -->
<g id="node20" class="node">
<title>Node19</title>
<polygon fill="none" stroke="#bfbfbf" points="1581,-56.5 1581,-75.5 1652,-75.5 1652,-56.5 1581,-56.5"/>
<text text-anchor="middle" x="1616.5" y="-63.5" font-family="Helvetica,sans-Serif" font-size="10.00" fill="#000000">OFstream.H</text>
</g>
<!-- Node1&#45;&gt;Node19 -->
<g id="edge19" class="edge">
<title>Node1&#45;&gt;Node19</title>
<path fill="none" stroke="#191970" d="M1270.164,-116.3278C1338.8735,-109.0916 1458.3802,-95.3587 1570.5615,-76.0294"/>
<polygon fill="#191970" stroke="#191970" points="1571.4461,-79.4281 1580.6972,-74.264 1570.2449,-72.532 1571.4461,-79.4281"/>
</g>
<!-- Node20 -->
<g id="node21" class="node">
<title>Node20</title>
<polygon fill="none" stroke="#bfbfbf" points="1670,-56.5 1670,-75.5 1757,-75.5 1757,-56.5 1670,-56.5"/>
<text text-anchor="middle" x="1713.5" y="-63.5" font-family="Helvetica,sans-Serif" font-size="10.00" fill="#000000">IStringStream.H</text>
</g>
<!-- Node1&#45;&gt;Node20 -->
<g id="edge20" class="edge">
<title>Node1&#45;&gt;Node20</title>
<path fill="none" stroke="#191970" d="M1270.2746,-117.7756C1353.5968,-111.2218 1514.0755,-97.2556 1659.8318,-76.1474"/>
<polygon fill="#191970" stroke="#191970" points="1660.4665,-79.5919 1669.8545,-74.6811 1659.4532,-72.6656 1660.4665,-79.5919"/>
</g>
<!-- Node21 -->
<g id="node22" class="node">
<title>Node21</title>
<polygon fill="none" stroke="#bfbfbf" points="1775.5,-56.5 1775.5,-75.5 1867.5,-75.5 1867.5,-56.5 1775.5,-56.5"/>
<text text-anchor="middle" x="1821.5" y="-63.5" font-family="Helvetica,sans-Serif" font-size="10.00" fill="#000000">OStringStream.H</text>
</g>
<!-- Node1&#45;&gt;Node21 -->
<g id="edge21" class="edge">
<title>Node1&#45;&gt;Node21</title>
<path fill="none" stroke="#191970" d="M1270.216,-119.0998C1368.8322,-113.6596 1578.4535,-100.3397 1765.3291,-76.0429"/>
<polygon fill="#191970" stroke="#191970" points="1765.8787,-79.5009 1775.3376,-74.7281 1764.9669,-72.5605 1765.8787,-79.5009"/>
</g>
<!-- Node22 -->
<g id="node23" class="node">
<title>Node22</title>
<polygon fill="none" stroke="#bfbfbf" points="1885.5,-56.5 1885.5,-75.5 1935.5,-75.5 1935.5,-56.5 1885.5,-56.5"/>
<text text-anchor="middle" x="1910.5" y="-63.5" font-family="Helvetica,sans-Serif" font-size="10.00" fill="#000000">fstream</text>
</g>
<!-- Node1&#45;&gt;Node22 -->
<g id="edge22" class="edge">
<title>Node1&#45;&gt;Node22</title>
<path fill="none" stroke="#191970" d="M1270.1145,-119.6517C1404.9182,-113.8121 1742.915,-97.6481 1875.4609,-75.7653"/>
<polygon fill="#191970" stroke="#191970" points="1876.1393,-79.2 1885.3946,-74.0435 1874.9438,-72.3028 1876.1393,-79.2"/>
</g>
<!-- Node23 -->
<g id="node24" class="node">
<title>Node23</title>
<polygon fill="none" stroke="#bfbfbf" points="1953.5,-56.5 1953.5,-75.5 2007.5,-75.5 2007.5,-56.5 1953.5,-56.5"/>
<text text-anchor="middle" x="1980.5" y="-63.5" font-family="Helvetica,sans-Serif" font-size="10.00" fill="#000000">iostream</text>
</g>
<!-- Node1&#45;&gt;Node23 -->
<g id="edge23" class="edge">
<title>Node1&#45;&gt;Node23</title>
<path fill="none" stroke="#191970" d="M1270.1314,-119.9621C1414.8399,-114.5161 1796.4965,-98.5942 1942.9813,-75.8865"/>
<polygon fill="#191970" stroke="#191970" points="1943.8061,-79.2984 1953.1153,-74.2398 1942.6834,-72.3891 1943.8061,-79.2984"/>
</g>
<!-- Node24 -->
<g id="node25" class="node">
<title>Node24</title>
<polygon fill="none" stroke="#bfbfbf" points="2026,-56.5 2026,-75.5 2067,-75.5 2067,-56.5 2026,-56.5"/>
<text text-anchor="middle" x="2046.5" y="-63.5" font-family="Helvetica,sans-Serif" font-size="10.00" fill="#000000">string</text>
</g>
<!-- Node1&#45;&gt;Node24 -->
<g id="edge24" class="edge">
<title>Node1&#45;&gt;Node24</title>
<path fill="none" stroke="#191970" d="M1270.2694,-120.6971C1425.2604,-116.8368 1854.2212,-104.0509 2015.4784,-75.6096"/>
<polygon fill="#191970" stroke="#191970" points="2016.5127,-78.9775 2025.7073,-73.7135 2015.2368,-72.0948 2016.5127,-78.9775"/>
</g>
<!-- Node25 -->
<g id="node26" class="node">
<title>Node25</title>
<polygon fill="none" stroke="#bfbfbf" points="2085.5,-56.5 2085.5,-75.5 2129.5,-75.5 2129.5,-56.5 2085.5,-56.5"/>
<text text-anchor="middle" x="2107.5" y="-63.5" font-family="Helvetica,sans-Serif" font-size="10.00" fill="#000000">cmath</text>
</g>
<!-- Node1&#45;&gt;Node25 -->
<g id="edge25" class="edge">
<title>Node1&#45;&gt;Node25</title>
<path fill="none" stroke="#191970" d="M1270.2846,-120.8881C1433.4091,-117.3969 1902.2269,-105.206 2075.3378,-75.6965"/>
<polygon fill="#191970" stroke="#191970" points="2076.0976,-79.1163 2085.3263,-73.9123 2074.8667,-72.2254 2076.0976,-79.1163"/>
</g>
<!-- Node26 -->
<g id="node27" class="node">
<title>Node26</title>
<polygon fill="none" stroke="#bfbfbf" points="2147.5,-56.5 2147.5,-75.5 2197.5,-75.5 2197.5,-56.5 2147.5,-56.5"/>
<text text-anchor="middle" x="2172.5" y="-63.5" font-family="Helvetica,sans-Serif" font-size="10.00" fill="#000000">iomanip</text>
</g>
<!-- Node1&#45;&gt;Node26 -->
<g id="edge26" class="edge">
<title>Node1&#45;&gt;Node26</title>
<path fill="none" stroke="#191970" d="M1270.2646,-120.9331C1441.3761,-117.4449 1951.2844,-104.9887 2137.4611,-75.7319"/>
<polygon fill="#191970" stroke="#191970" points="2138.1034,-79.1734 2147.4045,-74.0999 2136.9696,-72.2658 2138.1034,-79.1734"/>
</g>
<!-- Node27 -->
<g id="node28" class="node">
<title>Node27</title>
<polygon fill="none" stroke="#bfbfbf" points="2216,-56.5 2216,-75.5 2295,-75.5 2295,-56.5 2216,-56.5"/>
<text text-anchor="middle" x="2255.5" y="-63.5" font-family="Helvetica,sans-Serif" font-size="10.00" fill="#000000">UDictionary.H</text>
</g>
<!-- Node1&#45;&gt;Node27 -->
<g id="edge27" class="edge">
<title>Node1&#45;&gt;Node27</title>
<path fill="none" stroke="#191970" d="M1270.1169,-120.5332C1449.3554,-115.7107 2003.8564,-99.375 2205.543,-75.8832"/>
<polygon fill="#191970" stroke="#191970" points="2206.2313,-79.3256 2215.7393,-74.6514 2205.3917,-72.3761 2206.2313,-79.3256"/>
</g>
<!-- Node28 -->
<g id="node29" class="node">
<title>Node28</title>
<g id="a_node29"><a xlink:href="clouds_2Templates_2FrontTrackingCloud_2FrontTrackingCloudI_8H.html" target="_top" xlink:title="FrontTrackingCloudI.H">
<polygon fill="none" stroke="#000000" points="2312.5,-56.5 2312.5,-75.5 2428.5,-75.5 2428.5,-56.5 2312.5,-56.5"/>
<text text-anchor="middle" x="2370.5" y="-63.5" font-family="Helvetica,sans-Serif" font-size="10.00" fill="#000000">FrontTrackingCloudI.H</text>
</a>
</g>
</g>
<!-- Node1&#45;&gt;Node28 -->
<g id="edge28" class="edge">
<title>Node1&#45;&gt;Node28</title>
<path fill="none" stroke="#191970" d="M1270.1571,-120.423C1461.0848,-114.9835 2080.9182,-96.2745 2302.0158,-76.1369"/>
<polygon fill="#191970" stroke="#191970" points="2302.6106,-79.5966 2312.2396,-75.177 2301.9561,-72.6272 2302.6106,-79.5966"/>
</g>
<!-- Node29 -->
<g id="node30" class="node">
<title>Node29</title>
<polygon fill="none" stroke="#bfbfbf" points="2323,-.5 2323,-19.5 2418,-19.5 2418,-.5 2323,-.5"/>
<text text-anchor="middle" x="2370.5" y="-7.5" font-family="Helvetica,sans-Serif" font-size="10.00" fill="#000000">NoFrontToField.H</text>
</g>
<!-- Node28&#45;&gt;Node29 -->
<g id="edge29" class="edge">
<title>Node28&#45;&gt;Node29</title>
<path fill="none" stroke="#191970" d="M2370.5,-56.2455C2370.5,-48.9382 2370.5,-38.6944 2370.5,-29.7046"/>
<polygon fill="#191970" stroke="#191970" points="2374.0001,-29.6426 2370.5,-19.6427 2367.0001,-29.6427 2374.0001,-29.6426"/>
</g>
</g>
</svg>
