<?xml version="1.0" encoding="UTF-8" standalone="no"?>
<!DOCTYPE svg PUBLIC "-//W3C//DTD SVG 1.1//EN"
 "http://www.w3.org/Graphics/SVG/1.1/DTD/svg11.dtd">
<!-- Generated by graphviz version 2.40.1 (20161225.0304)
 -->
<!-- Title: Graphical Class Hierarchy Pages: 1 -->
<svg width="310pt" height="66pt"
 viewBox="0.00 0.00 310.00 66.00" xmlns="http://www.w3.org/2000/svg" xmlns:xlink="http://www.w3.org/1999/xlink">
<g id="graph0" class="graph" transform="scale(1 1) rotate(0) translate(4 62)">
<title>Graphical Class Hierarchy</title>
<!-- Node6 -->
<g id="node1" class="node">
<title>Node6</title>
<polygon fill="none" stroke="#bfbfbf" points="0,-38.5 0,-57.5 131,-57.5 131,-38.5 0,-38.5"/>
<text text-anchor="middle" x="65.5" y="-45.5" font-family="Helvetica,sans-Serif" font-size="10.00" fill="#000000">FrontTrackingParcelName</text>
</g>
<!-- Node0 -->
<g id="node2" class="node">
<title>Node0</title>
<g id="a_node2"><a xlink:href="classFoam_1_1FrontTrackingParcel.html" target="_top" xlink:title="Foam::FrontTrackingParcel\l\&lt; ParcelType \&gt;">
<polygon fill="none" stroke="#000000" points="167,-14 167,-44 302,-44 302,-14 167,-14"/>
<text text-anchor="start" x="175" y="-32" font-family="Helvetica,sans-Serif" font-size="10.00" fill="#000000">Foam::FrontTrackingParcel</text>
<text text-anchor="middle" x="234.5" y="-21" font-family="Helvetica,sans-Serif" font-size="10.00" fill="#000000">&lt; ParcelType &gt;</text>
</a>
</g>
</g>
<!-- Node6&#45;&gt;Node0 -->
<g id="edge1" class="edge">
<title>Node6&#45;&gt;Node0</title>
<path fill="none" stroke="#191970" d="M141.2745,-39.481C149.8161,-38.5207 158.478,-37.5468 166.906,-36.5993"/>
<polygon fill="#191970" stroke="#191970" points="140.8701,-36.0043 131.3237,-40.5997 141.6522,-42.9605 140.8701,-36.0043"/>
</g>
<!-- Node3 -->
<g id="node3" class="node">
<title>Node3</title>
<polygon fill="none" stroke="#bfbfbf" points="32.5,-.5 32.5,-19.5 98.5,-19.5 98.5,-.5 32.5,-.5"/>
<text text-anchor="middle" x="65.5" y="-7.5" font-family="Helvetica,sans-Serif" font-size="10.00" fill="#000000">ParcelType</text>
</g>
<!-- Node3&#45;&gt;Node0 -->
<g id="edge2" class="edge">
<title>Node3&#45;&gt;Node0</title>
<path fill="none" stroke="#191970" d="M108.8858,-14.8777C126.5429,-16.8628 147.3669,-19.204 166.9288,-21.4032"/>
<polygon fill="#191970" stroke="#191970" points="109.2174,-11.393 98.889,-13.7538 108.4353,-18.3492 109.2174,-11.393"/>
</g>
</g>
</svg>
