<?xml version="1.0" encoding="UTF-8" standalone="no"?>
<!DOCTYPE svg PUBLIC "-//W3C//DTD SVG 1.1//EN"
 "http://www.w3.org/Graphics/SVG/1.1/DTD/svg11.dtd">
<!-- Generated by graphviz version 2.40.1 (20161225.0304)
 -->
<!-- Title: Graphical Class Hierarchy Pages: 1 -->
<svg width="703pt" height="504pt"
 viewBox="0.00 0.00 703.00 504.00" xmlns="http://www.w3.org/2000/svg" xmlns:xlink="http://www.w3.org/1999/xlink">
<g id="graph0" class="graph" transform="scale(1 1) rotate(0) translate(4 500)">
<title>Graphical Class Hierarchy</title>
<!-- Node12 -->
<g id="node1" class="node">
<title>Node12</title>
<polygon fill="none" stroke="#bfbfbf" points="0,-251 0,-270 108,-270 108,-251 0,-251"/>
<text text-anchor="middle" x="54" y="-258" font-family="Helvetica,sans-Serif" font-size="10.00" fill="#000000">CloudSubModelBase</text>
</g>
<!-- Node0 -->
<g id="node2" class="node">
<title>Node0</title>
<g id="a_node2"><a xlink:href="classFoam_1_1FrontToFieldModel.html" target="_top" xlink:title="Foam::FrontToFieldModel\l\&lt; CloudType \&gt;">
<polygon fill="none" stroke="#000000" points="159.5,-392.5 159.5,-422.5 287.5,-422.5 287.5,-392.5 159.5,-392.5"/>
<text text-anchor="start" x="167.5" y="-410.5" font-family="Helvetica,sans-Serif" font-size="10.00" fill="#000000">Foam::FrontToFieldModel</text>
<text text-anchor="middle" x="223.5" y="-399.5" font-family="Helvetica,sans-Serif" font-size="10.00" fill="#000000">&lt; CloudType &gt;</text>
</a>
</g>
</g>
<!-- Node12&#45;&gt;Node0 -->
<g id="edge1" class="edge">
<title>Node12&#45;&gt;Node0</title>
<path fill="none" stroke="#191970" d="M72.7134,-276.7293C105.7199,-305.3544 173.8225,-364.4169 205.9692,-392.2963"/>
<polygon fill="#191970" stroke="#191970" points="74.9692,-274.0528 65.1214,-270.1451 70.3829,-279.3411 74.9692,-274.0528"/>
</g>
<!-- Node18 -->
<g id="node7" class="node">
<title>Node18</title>
<g id="a_node7"><a xlink:href="classFoam_1_1SurfaceTensionModel.html" target="_top" xlink:title="Foam::SurfaceTensionModel\l\&lt; CloudType \&gt;">
<polygon fill="none" stroke="#000000" points="152.5,-294.5 152.5,-324.5 294.5,-324.5 294.5,-294.5 152.5,-294.5"/>
<text text-anchor="start" x="160.5" y="-312.5" font-family="Helvetica,sans-Serif" font-size="10.00" fill="#000000">Foam::SurfaceTensionModel</text>
<text text-anchor="middle" x="223.5" y="-301.5" font-family="Helvetica,sans-Serif" font-size="10.00" fill="#000000">&lt; CloudType &gt;</text>
</a>
</g>
</g>
<!-- Node12&#45;&gt;Node18 -->
<g id="edge6" class="edge">
<title>Node12&#45;&gt;Node18</title>
<path fill="none" stroke="#191970" d="M96.7753,-272.8657C119.4702,-279.4265 147.5373,-287.5403 171.4844,-294.463"/>
<polygon fill="#191970" stroke="#191970" points="97.6624,-269.4789 87.0837,-270.064 95.7183,-276.2036 97.6624,-269.4789"/>
</g>
<!-- Node21 -->
<g id="node10" class="node">
<title>Node21</title>
<g id="a_node10"><a xlink:href="classFoam_1_1UndulationRemovalModel.html" target="_top" xlink:title="Foam::UndulationRemovalModel\l\&lt; CloudType \&gt;">
<polygon fill="none" stroke="#000000" points="144,-196.5 144,-226.5 303,-226.5 303,-196.5 144,-196.5"/>
<text text-anchor="start" x="152" y="-214.5" font-family="Helvetica,sans-Serif" font-size="10.00" fill="#000000">Foam::UndulationRemovalModel</text>
<text text-anchor="middle" x="223.5" y="-203.5" font-family="Helvetica,sans-Serif" font-size="10.00" fill="#000000">&lt; CloudType &gt;</text>
</a>
</g>
</g>
<!-- Node12&#45;&gt;Node21 -->
<g id="edge9" class="edge">
<title>Node12&#45;&gt;Node21</title>
<path fill="none" stroke="#191970" d="M96.7753,-248.1343C119.4702,-241.5735 147.5373,-233.4597 171.4844,-226.537"/>
<polygon fill="#191970" stroke="#191970" points="95.7183,-244.7964 87.0837,-250.936 97.6624,-251.5211 95.7183,-244.7964"/>
</g>
<!-- Node26 -->
<g id="node15" class="node">
<title>Node26</title>
<g id="a_node15"><a xlink:href="classFoam_1_1VolumeCorrectionModel.html" target="_top" xlink:title="Foam::VolumeCorrectionModel\l\&lt; CloudType \&gt;">
<polygon fill="none" stroke="#000000" points="147.5,-49.5 147.5,-79.5 299.5,-79.5 299.5,-49.5 147.5,-49.5"/>
<text text-anchor="start" x="155.5" y="-67.5" font-family="Helvetica,sans-Serif" font-size="10.00" fill="#000000">Foam::VolumeCorrectionModel</text>
<text text-anchor="middle" x="223.5" y="-56.5" font-family="Helvetica,sans-Serif" font-size="10.00" fill="#000000">&lt; CloudType &gt;</text>
</a>
</g>
</g>
<!-- Node12&#45;&gt;Node26 -->
<g id="edge14" class="edge">
<title>Node12&#45;&gt;Node26</title>
<path fill="none" stroke="#191970" d="M69.0432,-243.105C101.8542,-205.1641 179.3871,-115.5095 210.372,-79.6805"/>
<polygon fill="#191970" stroke="#191970" points="66.2994,-240.927 62.4055,-250.7803 71.5942,-245.5059 66.2994,-240.927"/>
</g>
<!-- Node1 -->
<g id="node3" class="node">
<title>Node1</title>
<g id="a_node3"><a xlink:href="classFoam_1_1FrontToFieldModels_1_1BaseF2FModel.html" target="_top" xlink:title="Foam::FrontToFieldModels\l::BaseF2FModel\&lt; CloudType \&gt;">
<polygon fill="none" stroke="#000000" points="355,-441.5 355,-471.5 509,-471.5 509,-441.5 355,-441.5"/>
<text text-anchor="start" x="363" y="-459.5" font-family="Helvetica,sans-Serif" font-size="10.00" fill="#000000">Foam::FrontToFieldModels</text>
<text text-anchor="middle" x="432" y="-448.5" font-family="Helvetica,sans-Serif" font-size="10.00" fill="#000000">::BaseF2FModel&lt; CloudType &gt;</text>
</a>
</g>
</g>
<!-- Node0&#45;&gt;Node1 -->
<g id="edge2" class="edge">
<title>Node0&#45;&gt;Node1</title>
<path fill="none" stroke="#191970" d="M297.245,-424.8309C320.3936,-430.2712 345.7428,-436.2285 368.1471,-441.4938"/>
<polygon fill="#191970" stroke="#191970" points="298.0094,-421.4153 287.4738,-422.5346 296.4079,-428.2297 298.0094,-421.4153"/>
</g>
<!-- Node4 -->
<g id="node6" class="node">
<title>Node4</title>
<g id="a_node6"><a xlink:href="classFoam_1_1FrontToFieldModels_1_1NoFrontToField.html" target="_top" xlink:title="Foam::FrontToFieldModels\l::NoFrontToField\&lt; CloudType \&gt;">
<polygon fill="none" stroke="#000000" points="354.5,-392.5 354.5,-422.5 509.5,-422.5 509.5,-392.5 354.5,-392.5"/>
<text text-anchor="start" x="362.5" y="-410.5" font-family="Helvetica,sans-Serif" font-size="10.00" fill="#000000">Foam::FrontToFieldModels</text>
<text text-anchor="middle" x="432" y="-399.5" font-family="Helvetica,sans-Serif" font-size="10.00" fill="#000000">::NoFrontToField&lt; CloudType &gt;</text>
</a>
</g>
</g>
<!-- Node0&#45;&gt;Node4 -->
<g id="edge5" class="edge">
<title>Node0&#45;&gt;Node4</title>
<path fill="none" stroke="#191970" d="M297.8013,-407.5C316.1587,-407.5 335.8701,-407.5 354.3808,-407.5"/>
<polygon fill="#191970" stroke="#191970" points="297.7582,-404.0001 287.7582,-407.5 297.7581,-411.0001 297.7582,-404.0001"/>
</g>
<!-- Node2 -->
<g id="node4" class="node">
<title>Node2</title>
<g id="a_node4"><a xlink:href="classFoam_1_1FrontToFieldModels_1_1CPT.html" target="_top" xlink:title="Foam::FrontToFieldModels\l::CPT\&lt; CloudType \&gt;">
<polygon fill="none" stroke="#000000" points="561,-465.5 561,-495.5 695,-495.5 695,-465.5 561,-465.5"/>
<text text-anchor="start" x="569" y="-483.5" font-family="Helvetica,sans-Serif" font-size="10.00" fill="#000000">Foam::FrontToFieldModels</text>
<text text-anchor="middle" x="628" y="-472.5" font-family="Helvetica,sans-Serif" font-size="10.00" fill="#000000">::CPT&lt; CloudType &gt;</text>
</a>
</g>
</g>
<!-- Node1&#45;&gt;Node2 -->
<g id="edge3" class="edge">
<title>Node1&#45;&gt;Node2</title>
<path fill="none" stroke="#191970" d="M519.2476,-467.1834C533.1631,-468.8873 547.3713,-470.6271 560.7316,-472.2631"/>
<polygon fill="#191970" stroke="#191970" points="519.5343,-463.6924 509.183,-465.951 518.6835,-470.6405 519.5343,-463.6924"/>
</g>
<!-- Node3 -->
<g id="node5" class="node">
<title>Node3</title>
<g id="a_node5"><a xlink:href="classFoam_1_1FrontToFieldModels_1_1Poisson.html" target="_top" xlink:title="Foam::FrontToFieldModels\l::Poisson\&lt; CloudType \&gt;">
<polygon fill="none" stroke="#000000" points="561,-416.5 561,-446.5 695,-446.5 695,-416.5 561,-416.5"/>
<text text-anchor="start" x="569" y="-434.5" font-family="Helvetica,sans-Serif" font-size="10.00" fill="#000000">Foam::FrontToFieldModels</text>
<text text-anchor="middle" x="628" y="-423.5" font-family="Helvetica,sans-Serif" font-size="10.00" fill="#000000">::Poisson&lt; CloudType &gt;</text>
</a>
</g>
</g>
<!-- Node1&#45;&gt;Node3 -->
<g id="edge4" class="edge">
<title>Node1&#45;&gt;Node3</title>
<path fill="none" stroke="#191970" d="M519.2476,-445.3715C533.1631,-443.5965 547.3713,-441.7843 560.7316,-440.0801"/>
<polygon fill="#191970" stroke="#191970" points="518.6598,-441.918 509.183,-446.6552 519.5455,-448.8618 518.6598,-441.918"/>
</g>
<!-- Node19 -->
<g id="node8" class="node">
<title>Node19</title>
<g id="a_node8"><a xlink:href="classFoam_1_1SurfaceTensionModels_1_1DirectElementBased.html" target="_top" xlink:title="Foam::SurfaceTensionModels\l::DirectElementBased\&lt; CloudType \&gt;">
<polygon fill="none" stroke="#000000" points="343,-343.5 343,-373.5 521,-373.5 521,-343.5 343,-343.5"/>
<text text-anchor="start" x="351" y="-361.5" font-family="Helvetica,sans-Serif" font-size="10.00" fill="#000000">Foam::SurfaceTensionModels</text>
<text text-anchor="middle" x="432" y="-350.5" font-family="Helvetica,sans-Serif" font-size="10.00" fill="#000000">::DirectElementBased&lt; CloudType &gt;</text>
</a>
</g>
</g>
<!-- Node18&#45;&gt;Node19 -->
<g id="edge7" class="edge">
<title>Node18&#45;&gt;Node19</title>
<path fill="none" stroke="#191970" d="M297.245,-326.8309C320.3936,-332.2712 345.7428,-338.2285 368.1471,-343.4938"/>
<polygon fill="#191970" stroke="#191970" points="298.0094,-323.4153 287.4738,-324.5346 296.4079,-330.2297 298.0094,-323.4153"/>
</g>
<!-- Node20 -->
<g id="node9" class="node">
<title>Node20</title>
<g id="a_node9"><a xlink:href="classFoam_1_1SurfaceTensionModels_1_1NoSurfaceTension.html" target="_top" xlink:title="Foam::SurfaceTensionModels\l::NoSurfaceTension\&lt; CloudType \&gt;">
<polygon fill="none" stroke="#000000" points="347.5,-294.5 347.5,-324.5 516.5,-324.5 516.5,-294.5 347.5,-294.5"/>
<text text-anchor="start" x="355.5" y="-312.5" font-family="Helvetica,sans-Serif" font-size="10.00" fill="#000000">Foam::SurfaceTensionModels</text>
<text text-anchor="middle" x="432" y="-301.5" font-family="Helvetica,sans-Serif" font-size="10.00" fill="#000000">::NoSurfaceTension&lt; CloudType &gt;</text>
</a>
</g>
</g>
<!-- Node18&#45;&gt;Node20 -->
<g id="edge8" class="edge">
<title>Node18&#45;&gt;Node20</title>
<path fill="none" stroke="#191970" d="M304.7586,-309.5C318.7755,-309.5 333.3761,-309.5 347.4769,-309.5"/>
<polygon fill="#191970" stroke="#191970" points="304.6708,-306.0001 294.6707,-309.5 304.6707,-313.0001 304.6708,-306.0001"/>
</g>
<!-- Node22 -->
<g id="node11" class="node">
<title>Node22</title>
<g id="a_node11"><a xlink:href="classFoam_1_1UndulationRemovalModels_1_1NoUndulationRemoval.html" target="_top" xlink:title="Foam::UndulationRemovalModels\l::NoUndulationRemoval\&lt; CloudType \&gt;">
<polygon fill="none" stroke="#000000" points="339,-245.5 339,-275.5 525,-275.5 525,-245.5 339,-245.5"/>
<text text-anchor="start" x="347" y="-263.5" font-family="Helvetica,sans-Serif" font-size="10.00" fill="#000000">Foam::UndulationRemovalModels</text>
<text text-anchor="middle" x="432" y="-252.5" font-family="Helvetica,sans-Serif" font-size="10.00" fill="#000000">::NoUndulationRemoval&lt; CloudType &gt;</text>
</a>
</g>
</g>
<!-- Node21&#45;&gt;Node22 -->
<g id="edge10" class="edge">
<title>Node21&#45;&gt;Node22</title>
<path fill="none" stroke="#191970" d="M297.245,-228.8309C320.3936,-234.2712 345.7428,-240.2285 368.1471,-245.4938"/>
<polygon fill="#191970" stroke="#191970" points="298.0094,-225.4153 287.4738,-226.5346 296.4079,-232.2297 298.0094,-225.4153"/>
</g>
<!-- Node23 -->
<g id="node12" class="node">
<title>Node23</title>
<g id="a_node12"><a xlink:href="classFoam_1_1UndulationRemovalModels_1_1TSUR3D.html" target="_top" xlink:title="Foam::UndulationRemovalModels\l::TSUR3D\&lt; CloudType \&gt;">
<polygon fill="none" stroke="#000000" points="350,-196.5 350,-226.5 514,-226.5 514,-196.5 350,-196.5"/>
<text text-anchor="start" x="358" y="-214.5" font-family="Helvetica,sans-Serif" font-size="10.00" fill="#000000">Foam::UndulationRemovalModels</text>
<text text-anchor="middle" x="432" y="-203.5" font-family="Helvetica,sans-Serif" font-size="10.00" fill="#000000">::TSUR3D&lt; CloudType &gt;</text>
</a>
</g>
</g>
<!-- Node21&#45;&gt;Node23 -->
<g id="edge11" class="edge">
<title>Node21&#45;&gt;Node23</title>
<path fill="none" stroke="#191970" d="M313.3437,-211.5C325.491,-211.5 337.9043,-211.5 349.9068,-211.5"/>
<polygon fill="#191970" stroke="#191970" points="313.2174,-208.0001 303.2174,-211.5 313.2173,-215.0001 313.2174,-208.0001"/>
</g>
<!-- Node24 -->
<g id="node13" class="node">
<title>Node24</title>
<g id="a_node13"><a xlink:href="classFoam_1_1UndulationRemovalModels_1_1VCSIII.html" target="_top" xlink:title="Foam::UndulationRemovalModels\l::VCSIII\&lt; CloudType \&gt;">
<polygon fill="none" stroke="#000000" points="350,-147.5 350,-177.5 514,-177.5 514,-147.5 350,-147.5"/>
<text text-anchor="start" x="358" y="-165.5" font-family="Helvetica,sans-Serif" font-size="10.00" fill="#000000">Foam::UndulationRemovalModels</text>
<text text-anchor="middle" x="432" y="-154.5" font-family="Helvetica,sans-Serif" font-size="10.00" fill="#000000">::VCSIII&lt; CloudType &gt;</text>
</a>
</g>
</g>
<!-- Node21&#45;&gt;Node24 -->
<g id="edge12" class="edge">
<title>Node21&#45;&gt;Node24</title>
<path fill="none" stroke="#191970" d="M297.245,-194.1691C320.3936,-188.7288 345.7428,-182.7715 368.1471,-177.5062"/>
<polygon fill="#191970" stroke="#191970" points="296.4079,-190.7703 287.4738,-196.4654 298.0094,-197.5847 296.4079,-190.7703"/>
</g>
<!-- Node25 -->
<g id="node14" class="node">
<title>Node25</title>
<g id="a_node14"><a xlink:href="classFoam_1_1UndulationRemovalModels_1_1VCSIV.html" target="_top" xlink:title="Foam::UndulationRemovalModels\l::VCSIV\&lt; CloudType \&gt;">
<polygon fill="none" stroke="#000000" points="350,-98.5 350,-128.5 514,-128.5 514,-98.5 350,-98.5"/>
<text text-anchor="start" x="358" y="-116.5" font-family="Helvetica,sans-Serif" font-size="10.00" fill="#000000">Foam::UndulationRemovalModels</text>
<text text-anchor="middle" x="432" y="-105.5" font-family="Helvetica,sans-Serif" font-size="10.00" fill="#000000">::VCSIV&lt; CloudType &gt;</text>
</a>
</g>
</g>
<!-- Node21&#45;&gt;Node25 -->
<g id="edge13" class="edge">
<title>Node21&#45;&gt;Node25</title>
<path fill="none" stroke="#191970" d="M250.9436,-190.3533C273.5016,-173.8744 306.8677,-151.5108 339,-137.5 346.6425,-134.1676 354.8473,-131.2214 363.1032,-128.6377"/>
<polygon fill="#191970" stroke="#191970" points="248.8016,-187.5844 242.8523,-196.3512 252.9702,-193.2078 248.8016,-187.5844"/>
</g>
<!-- Node27 -->
<g id="node16" class="node">
<title>Node27</title>
<g id="a_node16"><a xlink:href="classFoam_1_1VolumeCorrectionModels_1_1NoVolumeCorrection.html" target="_top" xlink:title="Foam::VolumeCorrectionModels\l::NoVolumeCorrection\&lt; CloudType \&gt;">
<polygon fill="none" stroke="#000000" points="342.5,-49.5 342.5,-79.5 521.5,-79.5 521.5,-49.5 342.5,-49.5"/>
<text text-anchor="start" x="350.5" y="-67.5" font-family="Helvetica,sans-Serif" font-size="10.00" fill="#000000">Foam::VolumeCorrectionModels</text>
<text text-anchor="middle" x="432" y="-56.5" font-family="Helvetica,sans-Serif" font-size="10.00" fill="#000000">::NoVolumeCorrection&lt; CloudType &gt;</text>
</a>
</g>
</g>
<!-- Node26&#45;&gt;Node27 -->
<g id="edge15" class="edge">
<title>Node26&#45;&gt;Node27</title>
<path fill="none" stroke="#191970" d="M309.8266,-64.5C320.5314,-64.5 331.496,-64.5 342.2507,-64.5"/>
<polygon fill="#191970" stroke="#191970" points="309.6584,-61.0001 299.6583,-64.5 309.6583,-68.0001 309.6584,-61.0001"/>
</g>
<!-- Node28 -->
<g id="node17" class="node">
<title>Node28</title>
<g id="a_node17"><a xlink:href="classFoam_1_1VolumeCorrectionModels_1_1VC2.html" target="_top" xlink:title="Foam::VolumeCorrectionModels\l::VC2\&lt; CloudType \&gt;">
<polygon fill="none" stroke="#000000" points="353.5,-.5 353.5,-30.5 510.5,-30.5 510.5,-.5 353.5,-.5"/>
<text text-anchor="start" x="361.5" y="-18.5" font-family="Helvetica,sans-Serif" font-size="10.00" fill="#000000">Foam::VolumeCorrectionModels</text>
<text text-anchor="middle" x="432" y="-7.5" font-family="Helvetica,sans-Serif" font-size="10.00" fill="#000000">::VC2&lt; CloudType &gt;</text>
</a>
</g>
</g>
<!-- Node26&#45;&gt;Node28 -->
<g id="edge16" class="edge">
<title>Node26&#45;&gt;Node28</title>
<path fill="none" stroke="#191970" d="M297.245,-47.1691C320.3936,-41.7288 345.7428,-35.7715 368.1471,-30.5062"/>
<polygon fill="#191970" stroke="#191970" points="296.4079,-43.7703 287.4738,-49.4654 298.0094,-50.5847 296.4079,-43.7703"/>
</g>
</g>
</svg>
