<?xml version="1.0" encoding="UTF-8" standalone="no"?>
<!DOCTYPE svg PUBLIC "-//W3C//DTD SVG 1.1//EN"
 "http://www.w3.org/Graphics/SVG/1.1/DTD/svg11.dtd">
<!-- Generated by graphviz version 2.40.1 (20161225.0304)
 -->
<!-- Title: Graphical Class Hierarchy Pages: 1 -->
<svg width="305pt" height="66pt"
 viewBox="0.00 0.00 305.00 66.00" xmlns="http://www.w3.org/2000/svg" xmlns:xlink="http://www.w3.org/1999/xlink">
<g id="graph0" class="graph" transform="scale(1 1) rotate(0) translate(4 62)">
<title>Graphical Class Hierarchy</title>
<!-- Node11 -->
<g id="node1" class="node">
<title>Node11</title>
<polygon fill="none" stroke="#bfbfbf" points="32,-38.5 32,-57.5 96,-57.5 96,-38.5 32,-38.5"/>
<text text-anchor="middle" x="64" y="-45.5" font-family="Helvetica,sans-Serif" font-size="10.00" fill="#000000">CloudType</text>
</g>
<!-- Node0 -->
<g id="node2" class="node">
<title>Node0</title>
<g id="a_node2"><a xlink:href="classFoam_1_1FrontTrackingCloud.html" target="_top" xlink:title="Foam::FrontTrackingCloud\l\&lt; CloudType \&gt;">
<polygon fill="none" stroke="#000000" points="164,-14 164,-44 297,-44 297,-14 164,-14"/>
<text text-anchor="start" x="172" y="-32" font-family="Helvetica,sans-Serif" font-size="10.00" fill="#000000">Foam::FrontTrackingCloud</text>
<text text-anchor="middle" x="230.5" y="-21" font-family="Helvetica,sans-Serif" font-size="10.00" fill="#000000">&lt; CloudType &gt;</text>
</a>
</g>
</g>
<!-- Node11&#45;&gt;Node0 -->
<g id="edge1" class="edge">
<title>Node11&#45;&gt;Node0</title>
<path fill="none" stroke="#191970" d="M106.4793,-43.1525C123.8607,-41.169 144.3907,-38.8263 163.6925,-36.6237"/>
<polygon fill="#191970" stroke="#191970" points="105.6415,-39.7253 96.1029,-44.3366 106.4352,-46.6802 105.6415,-39.7253"/>
</g>
<!-- Node7 -->
<g id="node3" class="node">
<title>Node7</title>
<polygon fill="none" stroke="#bfbfbf" points="0,-.5 0,-19.5 128,-19.5 128,-.5 0,-.5"/>
<text text-anchor="middle" x="64" y="-7.5" font-family="Helvetica,sans-Serif" font-size="10.00" fill="#000000">FrontTrackingCloudName</text>
</g>
<!-- Node7&#45;&gt;Node0 -->
<g id="edge2" class="edge">
<title>Node7&#45;&gt;Node0</title>
<path fill="none" stroke="#191970" d="M138.5579,-18.5081C146.9754,-19.4687 155.5128,-20.4429 163.8207,-21.391"/>
<polygon fill="#191970" stroke="#191970" points="138.7056,-15.0023 128.3732,-17.3459 137.9119,-21.9572 138.7056,-15.0023"/>
</g>
</g>
</svg>
