<?xml version="1.0" encoding="UTF-8" standalone="no"?>
<!DOCTYPE svg PUBLIC "-//W3C//DTD SVG 1.1//EN"
 "http://www.w3.org/Graphics/SVG/1.1/DTD/svg11.dtd">
<!-- Generated by graphviz version 2.40.1 (20161225.0304)
 -->
<!-- Title: lnInclude/FrontTrackingParcelI.H Pages: 1 -->
<svg width="714pt" height="274pt"
 viewBox="0.00 0.00 714.00 274.00" xmlns="http://www.w3.org/2000/svg" xmlns:xlink="http://www.w3.org/1999/xlink">
<g id="graph0" class="graph" transform="scale(1 1) rotate(0) translate(4 270)">
<title>lnInclude/FrontTrackingParcelI.H</title>
<!-- Node1 -->
<g id="node1" class="node">
<title>Node1</title>
<polygon fill="#bfbfbf" stroke="#000000" points="322,-246.5 322,-265.5 482,-265.5 482,-246.5 322,-246.5"/>
<text text-anchor="middle" x="402" y="-253.5" font-family="Helvetica,sans-Serif" font-size="10.00" fill="#000000">lnInclude/FrontTrackingParcelI.H</text>
</g>
<!-- Node2 -->
<g id="node2" class="node">
<title>Node2</title>
<g id="a_node2"><a xlink:href="lnInclude_2FrontTrackingParcel_8H.html" target="_top" xlink:title="lnInclude/FrontTrackingParcel.H">
<polygon fill="none" stroke="#000000" points="323.5,-190.5 323.5,-209.5 480.5,-209.5 480.5,-190.5 323.5,-190.5"/>
<text text-anchor="middle" x="402" y="-197.5" font-family="Helvetica,sans-Serif" font-size="10.00" fill="#000000">lnInclude/FrontTrackingParcel.H</text>
</a>
</g>
</g>
<!-- Node1&#45;&gt;Node2 -->
<g id="edge1" class="edge">
<title>Node1&#45;&gt;Node2</title>
<path fill="none" stroke="#191970" d="M402,-236.1575C402,-227.155 402,-216.9199 402,-209.6427"/>
<polygon fill="#191970" stroke="#191970" points="398.5001,-236.2455 402,-246.2455 405.5001,-236.2456 398.5001,-236.2455"/>
</g>
<!-- Node3 -->
<g id="node3" class="node">
<title>Node3</title>
<g id="a_node3"><a xlink:href="lnInclude_2frontTrackingParcel_8H.html" target="_top" xlink:title="lnInclude/frontTrackingParcel.H">
<polygon fill="none" stroke="#000000" points="165,-129 165,-148 319,-148 319,-129 165,-129"/>
<text text-anchor="middle" x="242" y="-136" font-family="Helvetica,sans-Serif" font-size="10.00" fill="#000000">lnInclude/frontTrackingParcel.H</text>
</a>
</g>
</g>
<!-- Node2&#45;&gt;Node3 -->
<g id="edge2" class="edge">
<title>Node2&#45;&gt;Node3</title>
<path fill="none" stroke="#191970" d="M367.6568,-186.7993C337.3413,-175.1468 293.8769,-158.4402 266.8244,-148.0419"/>
<polygon fill="#191970" stroke="#191970" points="366.41,-190.0697 377,-190.3906 368.9216,-183.5357 366.41,-190.0697"/>
</g>
<!-- Node8 -->
<g id="node8" class="node">
<title>Node8</title>
<g id="a_node8"><a xlink:href="lnInclude_2FrontTrackingParcel_8C.html" target="_top" xlink:title="lnInclude/FrontTrackingParcel.C">
<polygon fill="none" stroke="#000000" points="357.5,-67.5 357.5,-86.5 514.5,-86.5 514.5,-67.5 357.5,-67.5"/>
<text text-anchor="middle" x="436" y="-74.5" font-family="Helvetica,sans-Serif" font-size="10.00" fill="#000000">lnInclude/FrontTrackingParcel.C</text>
</a>
</g>
</g>
<!-- Node2&#45;&gt;Node8 -->
<g id="edge7" class="edge">
<title>Node2&#45;&gt;Node8</title>
<path fill="none" stroke="#191970" d="M384.5356,-182.8966C370.6253,-167.1073 355.1414,-143.1289 366,-123 375.3206,-105.7221 394.2773,-93.8748 410.115,-86.5353"/>
<polygon fill="#191970" stroke="#191970" points="382.125,-185.4428 391.5185,-190.3432 387.2312,-180.6545 382.125,-185.4428"/>
</g>
<!-- Node9 -->
<g id="node9" class="node">
<title>Node9</title>
<g id="a_node9"><a xlink:href="lnInclude_2FrontTrackingParcelIO_8C.html" target="_top" xlink:title="lnInclude/FrontTrackingParcelIO.C">
<polygon fill="none" stroke="#000000" points="374.5,-129 374.5,-148 541.5,-148 541.5,-129 374.5,-129"/>
<text text-anchor="middle" x="458" y="-136" font-family="Helvetica,sans-Serif" font-size="10.00" fill="#000000">lnInclude/FrontTrackingParcelIO.C</text>
</a>
</g>
</g>
<!-- Node2&#45;&gt;Node9 -->
<g id="edge8" class="edge">
<title>Node2&#45;&gt;Node9</title>
<path fill="none" stroke="#191970" d="M417.5701,-182.9007C427.7447,-171.7268 440.6668,-157.5356 449.1266,-148.2449"/>
<polygon fill="#191970" stroke="#191970" points="414.8948,-180.6402 410.75,-190.3906 420.0706,-185.3531 414.8948,-180.6402"/>
</g>
<!-- Node10 -->
<g id="node10" class="node">
<title>Node10</title>
<g id="a_node10"><a xlink:href="lnInclude_2FrontTrackingParcelName_8C.html" target="_top" xlink:title="lnInclude/FrontTrackingParcel\lName.C">
<polygon fill="none" stroke="#000000" points="560,-123.5 560,-153.5 706,-153.5 706,-123.5 560,-123.5"/>
<text text-anchor="start" x="568" y="-141.5" font-family="Helvetica,sans-Serif" font-size="10.00" fill="#000000">lnInclude/FrontTrackingParcel</text>
<text text-anchor="middle" x="633" y="-130.5" font-family="Helvetica,sans-Serif" font-size="10.00" fill="#000000">Name.C</text>
</a>
</g>
</g>
<!-- Node2&#45;&gt;Node10 -->
<g id="edge10" class="edge">
<title>Node2&#45;&gt;Node10</title>
<path fill="none" stroke="#191970" d="M447.8286,-187.7989C484.749,-177.9694 536.834,-164.1026 576.364,-153.5784"/>
<polygon fill="#191970" stroke="#191970" points="446.6032,-184.5031 437.8403,-190.4581 448.4042,-191.2675 446.6032,-184.5031"/>
</g>
<!-- Node4 -->
<g id="node4" class="node">
<title>Node4</title>
<g id="a_node4"><a xlink:href="lnInclude_2frontTrackingCloud_8H.html" target="_top" xlink:title="lnInclude/frontTrackingCloud.H">
<polygon fill="none" stroke="#000000" points="166,-67.5 166,-86.5 318,-86.5 318,-67.5 166,-67.5"/>
<text text-anchor="middle" x="242" y="-74.5" font-family="Helvetica,sans-Serif" font-size="10.00" fill="#000000">lnInclude/frontTrackingCloud.H</text>
</a>
</g>
</g>
<!-- Node3&#45;&gt;Node4 -->
<g id="edge3" class="edge">
<title>Node3&#45;&gt;Node4</title>
<path fill="none" stroke="#191970" d="M242,-118.7462C242,-108.0519 242,-95.314 242,-86.7449"/>
<polygon fill="#191970" stroke="#191970" points="238.5001,-118.8906 242,-128.8906 245.5001,-118.8907 238.5001,-118.8906"/>
</g>
<!-- Node5 -->
<g id="node5" class="node">
<title>Node5</title>
<g id="a_node5"><a xlink:href="lnInclude_2frontTrackingCloud_8C.html" target="_top" xlink:title="lnInclude/frontTrackingCloud.C">
<polygon fill="none" stroke="#000000" points="0,-6 0,-25 152,-25 152,-6 0,-6"/>
<text text-anchor="middle" x="76" y="-13" font-family="Helvetica,sans-Serif" font-size="10.00" fill="#000000">lnInclude/frontTrackingCloud.C</text>
</a>
</g>
</g>
<!-- Node4&#45;&gt;Node5 -->
<g id="edge4" class="edge">
<title>Node4&#45;&gt;Node5</title>
<path fill="none" stroke="#191970" d="M206.3689,-63.7993C174.9166,-52.1468 129.8222,-35.4402 101.7554,-25.0419"/>
<polygon fill="#191970" stroke="#191970" points="205.4694,-67.1985 216.0625,-67.3906 207.9013,-60.6345 205.4694,-67.1985"/>
</g>
<!-- Node6 -->
<g id="node6" class="node">
<title>Node6</title>
<g id="a_node6"><a xlink:href="lnInclude_2makeFrontTrackingParcelSubmodels_8C.html" target="_top" xlink:title="lnInclude/makeFrontTracking\lParcelSubmodels.C">
<polygon fill="none" stroke="#000000" points="170.5,-.5 170.5,-30.5 313.5,-30.5 313.5,-.5 170.5,-.5"/>
<text text-anchor="start" x="178.5" y="-18.5" font-family="Helvetica,sans-Serif" font-size="10.00" fill="#000000">lnInclude/makeFrontTracking</text>
<text text-anchor="middle" x="242" y="-7.5" font-family="Helvetica,sans-Serif" font-size="10.00" fill="#000000">ParcelSubmodels.C</text>
</a>
</g>
</g>
<!-- Node4&#45;&gt;Node6 -->
<g id="edge5" class="edge">
<title>Node4&#45;&gt;Node6</title>
<path fill="none" stroke="#191970" d="M242,-57.3693C242,-48.681 242,-38.6241 242,-30.5446"/>
<polygon fill="#191970" stroke="#191970" points="238.5001,-57.3906 242,-67.3906 245.5001,-57.3907 238.5001,-57.3906"/>
</g>
<!-- Node7 -->
<g id="node7" class="node">
<title>Node7</title>
<g id="a_node7"><a xlink:href="parcels_2derived_2frontTrackingParcel_2makeFrontTrackingParcelSubmodels_8C.html" target="_top" xlink:title="parcels/derived/frontTracking\lParcel/makeFrontTrackingParcelSubmodels.C">
<polygon fill="none" stroke="#000000" points="332,-.5 332,-30.5 550,-30.5 550,-.5 332,-.5"/>
<text text-anchor="start" x="340" y="-18.5" font-family="Helvetica,sans-Serif" font-size="10.00" fill="#000000">parcels/derived/frontTracking</text>
<text text-anchor="middle" x="441" y="-7.5" font-family="Helvetica,sans-Serif" font-size="10.00" fill="#000000">Parcel/makeFrontTrackingParcelSubmodels.C</text>
</a>
</g>
</g>
<!-- Node4&#45;&gt;Node7 -->
<g id="edge6" class="edge">
<title>Node4&#45;&gt;Node7</title>
<path fill="none" stroke="#191970" d="M282.937,-64.3486C314.6798,-54.5386 358.7683,-40.9133 392.3191,-30.5446"/>
<polygon fill="#191970" stroke="#191970" points="281.6144,-61.0939 273.0938,-67.3906 283.6814,-67.7818 281.6144,-61.0939"/>
</g>
<!-- Node9&#45;&gt;Node8 -->
<g id="edge9" class="edge">
<title>Node9&#45;&gt;Node8</title>
<path fill="none" stroke="#191970" d="M451.1742,-119.4189C447.3005,-108.5901 442.6159,-95.4944 439.486,-86.7449"/>
<polygon fill="#191970" stroke="#191970" points="447.8987,-120.6538 454.5625,-128.8906 454.4897,-118.296 447.8987,-120.6538"/>
</g>
</g>
</svg>
