<?xml version="1.0" encoding="UTF-8" standalone="no"?>
<!DOCTYPE svg PUBLIC "-//W3C//DTD SVG 1.1//EN"
 "http://www.w3.org/Graphics/SVG/1.1/DTD/svg11.dtd">
<!-- Generated by graphviz version 2.40.1 (20161225.0304)
 -->
<!-- Title: lnInclude/NoUndulationRemoval.H Pages: 1 -->
<svg width="366pt" height="162pt"
 viewBox="0.00 0.00 365.50 162.00" xmlns="http://www.w3.org/2000/svg" xmlns:xlink="http://www.w3.org/1999/xlink">
<g id="graph0" class="graph" transform="scale(1 1) rotate(0) translate(4 158)">
<title>lnInclude/NoUndulationRemoval.H</title>
<!-- Node6 -->
<g id="node1" class="node">
<title>Node6</title>
<polygon fill="#bfbfbf" stroke="#000000" points="96.5,-134.5 96.5,-153.5 263.5,-153.5 263.5,-134.5 96.5,-134.5"/>
<text text-anchor="middle" x="180" y="-141.5" font-family="Helvetica,sans-Serif" font-size="10.00" fill="#000000">lnInclude/NoUndulationRemoval.H</text>
</g>
<!-- Node7 -->
<g id="node2" class="node">
<title>Node7</title>
<g id="a_node2"><a xlink:href="lnInclude_2makeFrontTrackingParcelUndulationRemovalModels_8H.html" target="_top" xlink:title="lnInclude/makeFrontTracking\lParcelUndulationRemovalModels.H">
<polygon fill="none" stroke="#000000" points="0,-67.5 0,-97.5 172,-97.5 172,-67.5 0,-67.5"/>
<text text-anchor="start" x="8" y="-85.5" font-family="Helvetica,sans-Serif" font-size="10.00" fill="#000000">lnInclude/makeFrontTracking</text>
<text text-anchor="middle" x="86" y="-74.5" font-family="Helvetica,sans-Serif" font-size="10.00" fill="#000000">ParcelUndulationRemovalModels.H</text>
</a>
</g>
</g>
<!-- Node6&#45;&gt;Node7 -->
<g id="edge1" class="edge">
<title>Node6&#45;&gt;Node7</title>
<path fill="none" stroke="#191970" d="M156.8507,-128.8545C142.2766,-119.3193 123.5396,-107.0605 108.995,-97.5446"/>
<polygon fill="#191970" stroke="#191970" points="155.0281,-131.8445 165.3125,-134.3906 158.8606,-125.9868 155.0281,-131.8445"/>
</g>
<!-- Node9 -->
<g id="node4" class="node">
<title>Node9</title>
<g id="a_node4"><a xlink:href="lnInclude_2NoUndulationRemoval_8C.html" target="_top" xlink:title="lnInclude/NoUndulationRemoval.C">
<polygon fill="none" stroke="#000000" points="190.5,-73 190.5,-92 357.5,-92 357.5,-73 190.5,-73"/>
<text text-anchor="middle" x="274" y="-80" font-family="Helvetica,sans-Serif" font-size="10.00" fill="#000000">lnInclude/NoUndulationRemoval.C</text>
</a>
</g>
</g>
<!-- Node6&#45;&gt;Node9 -->
<g id="edge3" class="edge">
<title>Node6&#45;&gt;Node9</title>
<path fill="none" stroke="#191970" d="M203.2539,-128.786C220.8306,-117.2864 244.4168,-101.855 259.4156,-92.0419"/>
<polygon fill="#191970" stroke="#191970" points="201.1394,-125.9868 194.6875,-134.3906 204.9719,-131.8445 201.1394,-125.9868"/>
</g>
<!-- Node8 -->
<g id="node3" class="node">
<title>Node8</title>
<g id="a_node3"><a xlink:href="lnInclude_2makeFrontTrackingParcelSubmodels_8C.html" target="_top" xlink:title="lnInclude/makeFrontTracking\lParcelSubmodels.C">
<polygon fill="none" stroke="#000000" points="14.5,-.5 14.5,-30.5 157.5,-30.5 157.5,-.5 14.5,-.5"/>
<text text-anchor="start" x="22.5" y="-18.5" font-family="Helvetica,sans-Serif" font-size="10.00" fill="#000000">lnInclude/makeFrontTracking</text>
<text text-anchor="middle" x="86" y="-7.5" font-family="Helvetica,sans-Serif" font-size="10.00" fill="#000000">ParcelSubmodels.C</text>
</a>
</g>
</g>
<!-- Node7&#45;&gt;Node8 -->
<g id="edge2" class="edge">
<title>Node7&#45;&gt;Node8</title>
<path fill="none" stroke="#191970" d="M86,-57.0249C86,-48.128 86,-38.4287 86,-30.6432"/>
<polygon fill="#191970" stroke="#191970" points="82.5001,-57.2966 86,-67.2967 89.5001,-57.2967 82.5001,-57.2966"/>
</g>
</g>
</svg>
