<?xml version="1.0" encoding="UTF-8" standalone="no"?>
<!DOCTYPE svg PUBLIC "-//W3C//DTD SVG 1.1//EN"
 "http://www.w3.org/Graphics/SVG/1.1/DTD/svg11.dtd">
<!-- Generated by graphviz version 2.40.1 (20161225.0304)
 -->
<!-- Title: lnInclude/frontTrackingParcel.H Pages: 1 -->
<svg width="558pt" height="151pt"
 viewBox="0.00 0.00 558.00 151.00" xmlns="http://www.w3.org/2000/svg" xmlns:xlink="http://www.w3.org/1999/xlink">
<g id="graph0" class="graph" transform="scale(1 1) rotate(0) translate(4 147)">
<title>lnInclude/frontTrackingParcel.H</title>
<!-- Node31 -->
<g id="node1" class="node">
<title>Node31</title>
<polygon fill="#bfbfbf" stroke="#000000" points="165,-123.5 165,-142.5 319,-142.5 319,-123.5 165,-123.5"/>
<text text-anchor="middle" x="242" y="-130.5" font-family="Helvetica,sans-Serif" font-size="10.00" fill="#000000">lnInclude/frontTrackingParcel.H</text>
</g>
<!-- Node32 -->
<g id="node2" class="node">
<title>Node32</title>
<g id="a_node2"><a xlink:href="lnInclude_2frontTrackingCloud_8H.html" target="_top" xlink:title="lnInclude/frontTrackingCloud.H">
<polygon fill="none" stroke="#000000" points="166,-67.5 166,-86.5 318,-86.5 318,-67.5 166,-67.5"/>
<text text-anchor="middle" x="242" y="-74.5" font-family="Helvetica,sans-Serif" font-size="10.00" fill="#000000">lnInclude/frontTrackingCloud.H</text>
</a>
</g>
</g>
<!-- Node31&#45;&gt;Node32 -->
<g id="edge1" class="edge">
<title>Node31&#45;&gt;Node32</title>
<path fill="none" stroke="#191970" d="M242,-113.1575C242,-104.155 242,-93.9199 242,-86.6427"/>
<polygon fill="#191970" stroke="#191970" points="238.5001,-113.2455 242,-123.2455 245.5001,-113.2456 238.5001,-113.2455"/>
</g>
<!-- Node33 -->
<g id="node3" class="node">
<title>Node33</title>
<g id="a_node3"><a xlink:href="lnInclude_2frontTrackingCloud_8C.html" target="_top" xlink:title="lnInclude/frontTrackingCloud.C">
<polygon fill="none" stroke="#000000" points="0,-6 0,-25 152,-25 152,-6 0,-6"/>
<text text-anchor="middle" x="76" y="-13" font-family="Helvetica,sans-Serif" font-size="10.00" fill="#000000">lnInclude/frontTrackingCloud.C</text>
</a>
</g>
</g>
<!-- Node32&#45;&gt;Node33 -->
<g id="edge2" class="edge">
<title>Node32&#45;&gt;Node33</title>
<path fill="none" stroke="#191970" d="M206.3689,-63.7993C174.9166,-52.1468 129.8222,-35.4402 101.7554,-25.0419"/>
<polygon fill="#191970" stroke="#191970" points="205.4694,-67.1985 216.0625,-67.3906 207.9013,-60.6345 205.4694,-67.1985"/>
</g>
<!-- Node34 -->
<g id="node4" class="node">
<title>Node34</title>
<g id="a_node4"><a xlink:href="lnInclude_2makeFrontTrackingParcelSubmodels_8C.html" target="_top" xlink:title="lnInclude/makeFrontTracking\lParcelSubmodels.C">
<polygon fill="none" stroke="#000000" points="170.5,-.5 170.5,-30.5 313.5,-30.5 313.5,-.5 170.5,-.5"/>
<text text-anchor="start" x="178.5" y="-18.5" font-family="Helvetica,sans-Serif" font-size="10.00" fill="#000000">lnInclude/makeFrontTracking</text>
<text text-anchor="middle" x="242" y="-7.5" font-family="Helvetica,sans-Serif" font-size="10.00" fill="#000000">ParcelSubmodels.C</text>
</a>
</g>
</g>
<!-- Node32&#45;&gt;Node34 -->
<g id="edge3" class="edge">
<title>Node32&#45;&gt;Node34</title>
<path fill="none" stroke="#191970" d="M242,-57.3693C242,-48.681 242,-38.6241 242,-30.5446"/>
<polygon fill="#191970" stroke="#191970" points="238.5001,-57.3906 242,-67.3906 245.5001,-57.3907 238.5001,-57.3906"/>
</g>
<!-- Node35 -->
<g id="node5" class="node">
<title>Node35</title>
<g id="a_node5"><a xlink:href="parcels_2derived_2frontTrackingParcel_2makeFrontTrackingParcelSubmodels_8C.html" target="_top" xlink:title="parcels/derived/frontTracking\lParcel/makeFrontTrackingParcelSubmodels.C">
<polygon fill="none" stroke="#000000" points="332,-.5 332,-30.5 550,-30.5 550,-.5 332,-.5"/>
<text text-anchor="start" x="340" y="-18.5" font-family="Helvetica,sans-Serif" font-size="10.00" fill="#000000">parcels/derived/frontTracking</text>
<text text-anchor="middle" x="441" y="-7.5" font-family="Helvetica,sans-Serif" font-size="10.00" fill="#000000">Parcel/makeFrontTrackingParcelSubmodels.C</text>
</a>
</g>
</g>
<!-- Node32&#45;&gt;Node35 -->
<g id="edge4" class="edge">
<title>Node32&#45;&gt;Node35</title>
<path fill="none" stroke="#191970" d="M282.937,-64.3486C314.6798,-54.5386 358.7683,-40.9133 392.3191,-30.5446"/>
<polygon fill="#191970" stroke="#191970" points="281.6144,-61.0939 273.0938,-67.3906 283.6814,-67.7818 281.6144,-61.0939"/>
</g>
</g>
</svg>
