<?xml version="1.0" encoding="UTF-8" standalone="no"?>
<!DOCTYPE svg PUBLIC "-//W3C//DTD SVG 1.1//EN"
 "http://www.w3.org/Graphics/SVG/1.1/DTD/svg11.dtd">
<!-- Generated by graphviz version 2.40.1 (20161225.0304)
 -->
<!-- Title: lnInclude/FrontToFieldModel.H Pages: 1 -->
<svg width="953pt" height="341pt"
 viewBox="0.00 0.00 952.50 341.00" xmlns="http://www.w3.org/2000/svg" xmlns:xlink="http://www.w3.org/1999/xlink">
<g id="graph0" class="graph" transform="scale(1 1) rotate(0) translate(4 337)">
<title>lnInclude/FrontToFieldModel.H</title>
<!-- Node5 -->
<g id="node1" class="node">
<title>Node5</title>
<polygon fill="#bfbfbf" stroke="#000000" points="356.5,-313.5 356.5,-332.5 506.5,-332.5 506.5,-313.5 356.5,-313.5"/>
<text text-anchor="middle" x="431.5" y="-320.5" font-family="Helvetica,sans-Serif" font-size="10.00" fill="#000000">lnInclude/FrontToFieldModel.H</text>
</g>
<!-- Node6 -->
<g id="node2" class="node">
<title>Node6</title>
<g id="a_node2"><a xlink:href="lnInclude_2BaseF2FModel_8H.html" target="_top" xlink:title="lnInclude/BaseF2FModel.H">
<polygon fill="none" stroke="#000000" points="156,-257.5 156,-276.5 291,-276.5 291,-257.5 156,-257.5"/>
<text text-anchor="middle" x="223.5" y="-264.5" font-family="Helvetica,sans-Serif" font-size="10.00" fill="#000000">lnInclude/BaseF2FModel.H</text>
</a>
</g>
</g>
<!-- Node5&#45;&gt;Node6 -->
<g id="edge1" class="edge">
<title>Node5&#45;&gt;Node6</title>
<path fill="none" stroke="#191970" d="M385.8882,-310.7199C347.6418,-300.4228 293.81,-285.9296 258.7899,-276.5011"/>
<polygon fill="#191970" stroke="#191970" points="385.1774,-314.1531 395.7435,-313.3733 386.9973,-307.3938 385.1774,-314.1531"/>
</g>
<!-- Node8 -->
<g id="node4" class="node">
<title>Node8</title>
<g id="a_node4"><a xlink:href="lnInclude_2CPT_8H.html" target="_top" xlink:title="lnInclude/CPT.H">
<polygon fill="none" stroke="#000000" points="4,-201.5 4,-220.5 93,-220.5 93,-201.5 4,-201.5"/>
<text text-anchor="middle" x="48.5" y="-208.5" font-family="Helvetica,sans-Serif" font-size="10.00" fill="#000000">lnInclude/CPT.H</text>
</a>
</g>
</g>
<!-- Node5&#45;&gt;Node8 -->
<g id="edge10" class="edge">
<title>Node5&#45;&gt;Node8</title>
<path fill="none" stroke="#191970" d="M346.1804,-313.3285C275.7852,-304.5959 181.9303,-291.002 146.5,-277 111.5893,-263.2033 76.5119,-235.4055 59.3455,-220.6739"/>
<polygon fill="#191970" stroke="#191970" points="346.0347,-316.8368 356.3867,-314.5812 346.8875,-309.889 346.0347,-316.8368"/>
</g>
<!-- Node12 -->
<g id="node8" class="node">
<title>Node12</title>
<g id="a_node8"><a xlink:href="lnInclude_2Poisson_8H.html" target="_top" xlink:title="lnInclude/Poisson.H">
<polygon fill="none" stroke="#000000" points="264.5,-201.5 264.5,-220.5 368.5,-220.5 368.5,-201.5 264.5,-201.5"/>
<text text-anchor="middle" x="316.5" y="-208.5" font-family="Helvetica,sans-Serif" font-size="10.00" fill="#000000">lnInclude/Poisson.H</text>
</a>
</g>
</g>
<!-- Node5&#45;&gt;Node12 -->
<g id="edge26" class="edge">
<title>Node5&#45;&gt;Node12</title>
<path fill="none" stroke="#191970" d="M412.9316,-306.3166C403.427,-297.6766 391.7331,-286.8908 381.5,-277 361.1481,-257.3287 338.0574,-233.5102 325.6132,-220.5446"/>
<polygon fill="#191970" stroke="#191970" points="410.8651,-309.1668 420.6288,-313.2805 415.5615,-303.976 410.8651,-309.1668"/>
</g>
<!-- Node14 -->
<g id="node10" class="node">
<title>Node14</title>
<g id="a_node10"><a xlink:href="lnInclude_2FrontToFieldModel_8C.html" target="_top" xlink:title="lnInclude/FrontToFieldModel.C">
<polygon fill="none" stroke="#000000" points="794.5,-257.5 794.5,-276.5 944.5,-276.5 944.5,-257.5 794.5,-257.5"/>
<text text-anchor="middle" x="869.5" y="-264.5" font-family="Helvetica,sans-Serif" font-size="10.00" fill="#000000">lnInclude/FrontToFieldModel.C</text>
</a>
</g>
</g>
<!-- Node5&#45;&gt;Node14 -->
<g id="edge11" class="edge">
<title>Node5&#45;&gt;Node14</title>
<path fill="none" stroke="#191970" d="M516.4489,-312.139C597.3127,-301.8002 717.8039,-286.3949 795.0113,-276.5237"/>
<polygon fill="#191970" stroke="#191970" points="515.7726,-308.6968 506.2972,-313.4369 516.6604,-315.6403 515.7726,-308.6968"/>
</g>
<!-- Node15 -->
<g id="node11" class="node">
<title>Node15</title>
<g id="a_node11"><a xlink:href="lnInclude_2NoFrontToField_8H.html" target="_top" xlink:title="lnInclude/NoFrontToField.H">
<polygon fill="none" stroke="#000000" points="390,-257.5 390,-276.5 527,-276.5 527,-257.5 390,-257.5"/>
<text text-anchor="middle" x="458.5" y="-264.5" font-family="Helvetica,sans-Serif" font-size="10.00" fill="#000000">lnInclude/NoFrontToField.H</text>
</a>
</g>
</g>
<!-- Node5&#45;&gt;Node15 -->
<g id="edge12" class="edge">
<title>Node5&#45;&gt;Node15</title>
<path fill="none" stroke="#191970" d="M440.6396,-304.0437C445.0805,-294.8331 450.2265,-284.1598 453.8509,-276.6427"/>
<polygon fill="#191970" stroke="#191970" points="437.3934,-302.7178 436.203,-313.2455 443.6988,-305.7579 437.3934,-302.7178"/>
</g>
<!-- Node20 -->
<g id="node16" class="node">
<title>Node20</title>
<g id="a_node16"><a xlink:href="lnInclude_2FrontTrackingCloud_8C.html" target="_top" xlink:title="lnInclude/FrontTrackingCloud.C">
<polygon fill="none" stroke="#000000" points="693,-73 693,-92 848,-92 848,-73 693,-73"/>
<text text-anchor="middle" x="770.5" y="-80" font-family="Helvetica,sans-Serif" font-size="10.00" fill="#000000">lnInclude/FrontTrackingCloud.C</text>
</a>
</g>
</g>
<!-- Node5&#45;&gt;Node20 -->
<g id="edge25" class="edge">
<title>Node5&#45;&gt;Node20</title>
<path fill="none" stroke="#191970" d="M491.2073,-311.4134C573.0637,-294.2952 713.8463,-260.0299 747.5,-221 780.1299,-183.1575 775.2497,-117.1089 772.0103,-92.2946"/>
<polygon fill="#191970" stroke="#191970" points="490.3686,-308.0126 481.2844,-313.4649 491.7859,-314.8677 490.3686,-308.0126"/>
</g>
<!-- Node7 -->
<g id="node3" class="node">
<title>Node7</title>
<g id="a_node3"><a xlink:href="lnInclude_2BaseF2FModel_8C.html" target="_top" xlink:title="lnInclude/BaseF2FModel.C">
<polygon fill="none" stroke="#000000" points="111,-201.5 111,-220.5 246,-220.5 246,-201.5 111,-201.5"/>
<text text-anchor="middle" x="178.5" y="-208.5" font-family="Helvetica,sans-Serif" font-size="10.00" fill="#000000">lnInclude/BaseF2FModel.C</text>
</a>
</g>
</g>
<!-- Node6&#45;&gt;Node7 -->
<g id="edge2" class="edge">
<title>Node6&#45;&gt;Node7</title>
<path fill="none" stroke="#191970" d="M209.2054,-249.2112C201.6004,-239.7472 192.5462,-228.4797 186.2486,-220.6427"/>
<polygon fill="#191970" stroke="#191970" points="206.6694,-251.6428 215.6616,-257.2455 212.1259,-247.2581 206.6694,-251.6428"/>
</g>
<!-- Node6&#45;&gt;Node8 -->
<g id="edge3" class="edge">
<title>Node6&#45;&gt;Node8</title>
<path fill="none" stroke="#191970" d="M183.886,-254.3235C151.7925,-244.0536 107.2789,-229.8093 78.191,-220.5011"/>
<polygon fill="#191970" stroke="#191970" points="182.8254,-257.6589 193.4164,-257.3733 184.9589,-250.9919 182.8254,-257.6589"/>
</g>
<!-- Node6&#45;&gt;Node12 -->
<g id="edge7" class="edge">
<title>Node6&#45;&gt;Node12</title>
<path fill="none" stroke="#191970" d="M248.3335,-252.0465C264.8811,-242.0824 286.1432,-229.2794 300.4863,-220.6427"/>
<polygon fill="#191970" stroke="#191970" points="246.4607,-249.0886 239.6994,-257.2455 250.0717,-255.0854 246.4607,-249.0886"/>
</g>
<!-- Node9 -->
<g id="node5" class="node">
<title>Node9</title>
<g id="a_node5"><a xlink:href="lnInclude_2CPT_8C.html" target="_top" xlink:title="lnInclude/CPT.C">
<polygon fill="none" stroke="#000000" points="0,-140 0,-159 89,-159 89,-140 0,-140"/>
<text text-anchor="middle" x="44.5" y="-147" font-family="Helvetica,sans-Serif" font-size="10.00" fill="#000000">lnInclude/CPT.C</text>
</a>
</g>
</g>
<!-- Node8&#45;&gt;Node9 -->
<g id="edge4" class="edge">
<title>Node8&#45;&gt;Node9</title>
<path fill="none" stroke="#191970" d="M47.2152,-191.2462C46.5196,-180.5519 45.6912,-167.814 45.1338,-159.2449"/>
<polygon fill="#191970" stroke="#191970" points="43.7333,-191.6389 47.875,-201.3906 50.7185,-191.1845 43.7333,-191.6389"/>
</g>
<!-- Node10 -->
<g id="node6" class="node">
<title>Node10</title>
<g id="a_node6"><a xlink:href="lnInclude_2makeFrontTrackingParcelFrontToFieldModels_8H.html" target="_top" xlink:title="lnInclude/makeFrontTracking\lParcelFrontToFieldModels.H">
<polygon fill="none" stroke="#000000" points="107,-134.5 107,-164.5 250,-164.5 250,-134.5 107,-134.5"/>
<text text-anchor="start" x="115" y="-152.5" font-family="Helvetica,sans-Serif" font-size="10.00" fill="#000000">lnInclude/makeFrontTracking</text>
<text text-anchor="middle" x="178.5" y="-141.5" font-family="Helvetica,sans-Serif" font-size="10.00" fill="#000000">ParcelFrontToFieldModels.H</text>
</a>
</g>
</g>
<!-- Node8&#45;&gt;Node10 -->
<g id="edge5" class="edge">
<title>Node8&#45;&gt;Node10</title>
<path fill="none" stroke="#191970" d="M77.98,-197.0537C98.46,-187.3651 125.7296,-174.4644 146.6984,-164.5446"/>
<polygon fill="#191970" stroke="#191970" points="76.3553,-193.9504 68.8125,-201.3906 79.3488,-200.278 76.3553,-193.9504"/>
</g>
<!-- Node11 -->
<g id="node7" class="node">
<title>Node11</title>
<g id="a_node7"><a xlink:href="lnInclude_2makeFrontTrackingParcelSubmodels_8C.html" target="_top" xlink:title="lnInclude/makeFrontTracking\lParcelSubmodels.C">
<polygon fill="none" stroke="#000000" points="103,-.5 103,-30.5 246,-30.5 246,-.5 103,-.5"/>
<text text-anchor="start" x="111" y="-18.5" font-family="Helvetica,sans-Serif" font-size="10.00" fill="#000000">lnInclude/makeFrontTracking</text>
<text text-anchor="middle" x="174.5" y="-7.5" font-family="Helvetica,sans-Serif" font-size="10.00" fill="#000000">ParcelSubmodels.C</text>
</a>
</g>
</g>
<!-- Node10&#45;&gt;Node11 -->
<g id="edge6" class="edge">
<title>Node10&#45;&gt;Node11</title>
<path fill="none" stroke="#191970" d="M177.749,-124.3415C176.9273,-96.8131 175.6365,-53.5714 174.9556,-30.7614"/>
<polygon fill="#191970" stroke="#191970" points="174.252,-124.4979 178.0489,-134.389 181.2489,-124.289 174.252,-124.4979"/>
</g>
<!-- Node12&#45;&gt;Node10 -->
<g id="edge8" class="edge">
<title>Node12&#45;&gt;Node10</title>
<path fill="none" stroke="#191970" d="M285.7943,-197.316C263.99,-187.5988 234.7192,-174.5542 212.2586,-164.5446"/>
<polygon fill="#191970" stroke="#191970" points="284.3787,-200.5169 294.9375,-201.3906 287.2282,-194.1231 284.3787,-200.5169"/>
</g>
<!-- Node13 -->
<g id="node9" class="node">
<title>Node13</title>
<g id="a_node9"><a xlink:href="lnInclude_2Poisson_8C.html" target="_top" xlink:title="lnInclude/Poisson.C">
<polygon fill="none" stroke="#000000" points="268.5,-140 268.5,-159 372.5,-159 372.5,-140 268.5,-140"/>
<text text-anchor="middle" x="320.5" y="-147" font-family="Helvetica,sans-Serif" font-size="10.00" fill="#000000">lnInclude/Poisson.C</text>
</a>
</g>
</g>
<!-- Node12&#45;&gt;Node13 -->
<g id="edge9" class="edge">
<title>Node12&#45;&gt;Node13</title>
<path fill="none" stroke="#191970" d="M317.7848,-191.2462C318.4804,-180.5519 319.3088,-167.814 319.8662,-159.2449"/>
<polygon fill="#191970" stroke="#191970" points="314.2815,-191.1845 317.125,-201.3906 321.2667,-191.6389 314.2815,-191.1845"/>
</g>
<!-- Node15&#45;&gt;Node10 -->
<g id="edge23" class="edge">
<title>Node15&#45;&gt;Node10</title>
<path fill="none" stroke="#191970" d="M442.3346,-250.2103C426.9844,-235.2081 402.5846,-213.694 377.5,-201 355.0913,-189.6601 297.1687,-175.222 249.5574,-164.5204"/>
<polygon fill="#191970" stroke="#191970" points="439.9505,-252.7761 449.4925,-257.3806 444.9046,-247.8306 439.9505,-252.7761"/>
</g>
<!-- Node16 -->
<g id="node12" class="node">
<title>Node16</title>
<g id="a_node12"><a xlink:href="lnInclude_2FrontTrackingCloudI_8H.html" target="_top" xlink:title="lnInclude/FrontTrackingCloudI.H">
<polygon fill="none" stroke="#000000" points="424.5,-201.5 424.5,-220.5 582.5,-220.5 582.5,-201.5 424.5,-201.5"/>
<text text-anchor="middle" x="503.5" y="-208.5" font-family="Helvetica,sans-Serif" font-size="10.00" fill="#000000">lnInclude/FrontTrackingCloudI.H</text>
</a>
</g>
</g>
<!-- Node15&#45;&gt;Node16 -->
<g id="edge13" class="edge">
<title>Node15&#45;&gt;Node16</title>
<path fill="none" stroke="#191970" d="M472.7946,-249.2112C480.3996,-239.7472 489.4538,-228.4797 495.7514,-220.6427"/>
<polygon fill="#191970" stroke="#191970" points="469.8741,-247.2581 466.3384,-257.2455 475.3306,-251.6428 469.8741,-247.2581"/>
</g>
<!-- Node25 -->
<g id="node21" class="node">
<title>Node25</title>
<g id="a_node21"><a xlink:href="lnInclude_2NoFrontToField_8C.html" target="_top" xlink:title="lnInclude/NoFrontToField.C">
<polygon fill="none" stroke="#000000" points="601,-201.5 601,-220.5 738,-220.5 738,-201.5 601,-201.5"/>
<text text-anchor="middle" x="669.5" y="-208.5" font-family="Helvetica,sans-Serif" font-size="10.00" fill="#000000">lnInclude/NoFrontToField.C</text>
</a>
</g>
</g>
<!-- Node15&#45;&gt;Node25 -->
<g id="edge24" class="edge">
<title>Node15&#45;&gt;Node25</title>
<path fill="none" stroke="#191970" d="M504.7697,-254.7199C543.5676,-244.4228 598.1759,-229.9296 633.7011,-220.5011"/>
<polygon fill="#191970" stroke="#191970" points="503.5397,-251.4251 494.7722,-257.3733 505.3354,-258.1909 503.5397,-251.4251"/>
</g>
<!-- Node17 -->
<g id="node13" class="node">
<title>Node17</title>
<g id="a_node13"><a xlink:href="lnInclude_2FrontTrackingCloud_8H.html" target="_top" xlink:title="lnInclude/FrontTrackingCloud.H">
<polygon fill="none" stroke="#000000" points="426,-140 426,-159 581,-159 581,-140 426,-140"/>
<text text-anchor="middle" x="503.5" y="-147" font-family="Helvetica,sans-Serif" font-size="10.00" fill="#000000">lnInclude/FrontTrackingCloud.H</text>
</a>
</g>
</g>
<!-- Node16&#45;&gt;Node17 -->
<g id="edge14" class="edge">
<title>Node16&#45;&gt;Node17</title>
<path fill="none" stroke="#191970" d="M503.5,-191.2462C503.5,-180.5519 503.5,-167.814 503.5,-159.2449"/>
<polygon fill="#191970" stroke="#191970" points="500.0001,-191.3906 503.5,-201.3906 507.0001,-191.3907 500.0001,-191.3906"/>
</g>
<!-- Node18 -->
<g id="node14" class="node">
<title>Node18</title>
<g id="a_node14"><a xlink:href="clouds_2derived_2frontTrackingCloud_2frontTrackingCloud_8H.html" target="_top" xlink:title="clouds/derived/frontTracking\lCloud/frontTrackingCloud.H">
<polygon fill="none" stroke="#000000" points="534.5,-67.5 534.5,-97.5 674.5,-97.5 674.5,-67.5 534.5,-67.5"/>
<text text-anchor="start" x="542.5" y="-85.5" font-family="Helvetica,sans-Serif" font-size="10.00" fill="#000000">clouds/derived/frontTracking</text>
<text text-anchor="middle" x="604.5" y="-74.5" font-family="Helvetica,sans-Serif" font-size="10.00" fill="#000000">Cloud/frontTrackingCloud.H</text>
</a>
</g>
</g>
<!-- Node17&#45;&gt;Node18 -->
<g id="edge15" class="edge">
<title>Node17&#45;&gt;Node18</title>
<path fill="none" stroke="#191970" d="M526.5245,-134.2263C543.1039,-123.2281 565.3635,-108.4618 581.8553,-97.5218"/>
<polygon fill="#191970" stroke="#191970" points="524.3692,-131.4559 517.9708,-139.9005 528.2388,-137.2892 524.3692,-131.4559"/>
</g>
<!-- Node17&#45;&gt;Node20 -->
<g id="edge17" class="edge">
<title>Node17&#45;&gt;Node20</title>
<path fill="none" stroke="#191970" d="M551.4064,-137.4785C603.1553,-124.4929 684.5739,-104.062 732.2277,-92.1039"/>
<polygon fill="#191970" stroke="#191970" points="550.3184,-134.143 541.471,-139.9717 552.0222,-140.9325 550.3184,-134.143"/>
</g>
<!-- Node21 -->
<g id="node17" class="node">
<title>Node21</title>
<g id="a_node17"><a xlink:href="lnInclude_2frontTrackingCloud_8H.html" target="_top" xlink:title="lnInclude/frontTrackingCloud.H">
<polygon fill="none" stroke="#000000" points="364.5,-73 364.5,-92 516.5,-92 516.5,-73 364.5,-73"/>
<text text-anchor="middle" x="440.5" y="-80" font-family="Helvetica,sans-Serif" font-size="10.00" fill="#000000">lnInclude/frontTrackingCloud.H</text>
</a>
</g>
</g>
<!-- Node17&#45;&gt;Node21 -->
<g id="edge18" class="edge">
<title>Node17&#45;&gt;Node21</title>
<path fill="none" stroke="#191970" d="M487.5888,-132.5785C475.5392,-119.7639 459.4205,-102.6218 449.5096,-92.0817"/>
<polygon fill="#191970" stroke="#191970" points="485.0735,-135.0129 494.4736,-139.9005 490.1732,-130.2177 485.0735,-135.0129"/>
</g>
<!-- Node24 -->
<g id="node20" class="node">
<title>Node24</title>
<g id="a_node20"><a xlink:href="lnInclude_2FrontTrackingCloudName_8C.html" target="_top" xlink:title="lnInclude/FrontTrackingCloud\lName.C">
<polygon fill="none" stroke="#000000" points="202.5,-67.5 202.5,-97.5 346.5,-97.5 346.5,-67.5 202.5,-67.5"/>
<text text-anchor="start" x="210.5" y="-85.5" font-family="Helvetica,sans-Serif" font-size="10.00" fill="#000000">lnInclude/FrontTrackingCloud</text>
<text text-anchor="middle" x="274.5" y="-74.5" font-family="Helvetica,sans-Serif" font-size="10.00" fill="#000000">Name.C</text>
</a>
</g>
</g>
<!-- Node17&#45;&gt;Node24 -->
<g id="edge22" class="edge">
<title>Node17&#45;&gt;Node24</title>
<path fill="none" stroke="#191970" d="M460.8991,-137.036C422.6851,-125.8555 366.5244,-109.4242 325.843,-97.5218"/>
<polygon fill="#191970" stroke="#191970" points="460.1094,-140.4516 470.6899,-139.9005 462.0751,-133.7332 460.1094,-140.4516"/>
</g>
<!-- Node19 -->
<g id="node15" class="node">
<title>Node19</title>
<g id="a_node15"><a xlink:href="clouds_2derived_2frontTrackingCloud_2frontTrackingCloud_8C.html" target="_top" xlink:title="clouds/derived/frontTracking\lCloud/frontTrackingCloud.C">
<polygon fill="none" stroke="#000000" points="670.5,-.5 670.5,-30.5 810.5,-30.5 810.5,-.5 670.5,-.5"/>
<text text-anchor="start" x="678.5" y="-18.5" font-family="Helvetica,sans-Serif" font-size="10.00" fill="#000000">clouds/derived/frontTracking</text>
<text text-anchor="middle" x="740.5" y="-7.5" font-family="Helvetica,sans-Serif" font-size="10.00" fill="#000000">Cloud/frontTrackingCloud.C</text>
</a>
</g>
</g>
<!-- Node18&#45;&gt;Node19 -->
<g id="edge16" class="edge">
<title>Node18&#45;&gt;Node19</title>
<path fill="none" stroke="#191970" d="M644.2583,-62.9132C665.1011,-52.645 690.2487,-40.2561 709.6103,-30.7177"/>
<polygon fill="#191970" stroke="#191970" points="642.4448,-59.9049 635.0211,-67.4639 645.5383,-66.1842 642.4448,-59.9049"/>
</g>
<!-- Node21&#45;&gt;Node11 -->
<g id="edge20" class="edge">
<title>Node21&#45;&gt;Node11</title>
<path fill="none" stroke="#191970" d="M392.7199,-70.4652C348.3516,-59.2897 282.1244,-42.6084 234.272,-30.5553"/>
<polygon fill="#191970" stroke="#191970" points="392.1191,-73.9231 402.6712,-72.9717 393.829,-67.1351 392.1191,-73.9231"/>
</g>
<!-- Node22 -->
<g id="node18" class="node">
<title>Node22</title>
<g id="a_node18"><a xlink:href="lnInclude_2frontTrackingCloud_8C.html" target="_top" xlink:title="lnInclude/frontTrackingCloud.C">
<polygon fill="none" stroke="#000000" points="264.5,-6 264.5,-25 416.5,-25 416.5,-6 264.5,-6"/>
<text text-anchor="middle" x="340.5" y="-13" font-family="Helvetica,sans-Serif" font-size="10.00" fill="#000000">lnInclude/frontTrackingCloud.C</text>
</a>
</g>
</g>
<!-- Node21&#45;&gt;Node22 -->
<g id="edge19" class="edge">
<title>Node21&#45;&gt;Node22</title>
<path fill="none" stroke="#191970" d="M417.6438,-67.1864C398.3078,-54.2312 371.2004,-36.0693 354.801,-25.0817"/>
<polygon fill="#191970" stroke="#191970" points="415.9166,-70.242 426.1724,-72.9005 419.8129,-64.4266 415.9166,-70.242"/>
</g>
<!-- Node23 -->
<g id="node19" class="node">
<title>Node23</title>
<g id="a_node19"><a xlink:href="parcels_2derived_2frontTrackingParcel_2makeFrontTrackingParcelSubmodels_8C.html" target="_top" xlink:title="parcels/derived/frontTracking\lParcel/makeFrontTrackingParcelSubmodels.C">
<polygon fill="none" stroke="#000000" points="434.5,-.5 434.5,-30.5 652.5,-30.5 652.5,-.5 434.5,-.5"/>
<text text-anchor="start" x="442.5" y="-18.5" font-family="Helvetica,sans-Serif" font-size="10.00" fill="#000000">parcels/derived/frontTracking</text>
<text text-anchor="middle" x="543.5" y="-7.5" font-family="Helvetica,sans-Serif" font-size="10.00" fill="#000000">Parcel/makeFrontTrackingParcelSubmodels.C</text>
</a>
</g>
</g>
<!-- Node21&#45;&gt;Node23 -->
<g id="edge21" class="edge">
<title>Node21&#45;&gt;Node23</title>
<path fill="none" stroke="#191970" d="M463.9805,-67.2263C480.8882,-56.2281 503.5885,-41.4618 520.4068,-30.5218"/>
<polygon fill="#191970" stroke="#191970" points="461.7315,-64.5138 455.2574,-72.9005 465.5485,-70.3817 461.7315,-64.5138"/>
</g>
</g>
</svg>
