<?xml version="1.0" encoding="UTF-8" standalone="no"?>
<!DOCTYPE svg PUBLIC "-//W3C//DTD SVG 1.1//EN"
 "http://www.w3.org/Graphics/SVG/1.1/DTD/svg11.dtd">
<!-- Generated by graphviz version 2.40.1 (20161225.0304)
 -->
<!-- Title: lnInclude/CPT.H Pages: 1 -->
<svg width="2163pt" height="196pt"
 viewBox="0.00 0.00 2163.00 196.00" xmlns="http://www.w3.org/2000/svg" xmlns:xlink="http://www.w3.org/1999/xlink">
<g id="graph0" class="graph" transform="scale(1 1) rotate(0) translate(4 192)">
<title>lnInclude/CPT.H</title>
<!-- Node0 -->
<g id="node1" class="node">
<title>Node0</title>
<polygon fill="#bfbfbf" stroke="#000000" points="868.5,-168.5 868.5,-187.5 957.5,-187.5 957.5,-168.5 868.5,-168.5"/>
<text text-anchor="middle" x="913" y="-175.5" font-family="Helvetica,sans-Serif" font-size="10.00" fill="#000000">lnInclude/CPT.H</text>
</g>
<!-- Node1 -->
<g id="node2" class="node">
<title>Node1</title>
<g id="a_node2"><a xlink:href="lnInclude_2FrontToFieldModel_8H.html" target="_top" xlink:title="FrontToFieldModel.H">
<polygon fill="none" stroke="#000000" points="260,-56.5 260,-75.5 368,-75.5 368,-56.5 260,-56.5"/>
<text text-anchor="middle" x="314" y="-63.5" font-family="Helvetica,sans-Serif" font-size="10.00" fill="#000000">FrontToFieldModel.H</text>
</a>
</g>
</g>
<!-- Node0&#45;&gt;Node1 -->
<g id="edge1" class="edge">
<title>Node0&#45;&gt;Node1</title>
<path fill="none" stroke="#191970" d="M868.467,-169.6733C762.6904,-149.8954 496.1875,-100.0651 375.3099,-77.4636"/>
<polygon fill="#191970" stroke="#191970" points="375.5924,-73.9559 365.1194,-75.5582 374.3058,-80.8366 375.5924,-73.9559"/>
</g>
<!-- Node6 -->
<g id="node7" class="node">
<title>Node6</title>
<g id="a_node7"><a xlink:href="lnInclude_2BaseF2FModel_8H.html" target="_top" xlink:title="BaseF2FModel.H">
<polygon fill="none" stroke="#000000" points="866.5,-112.5 866.5,-131.5 959.5,-131.5 959.5,-112.5 866.5,-112.5"/>
<text text-anchor="middle" x="913" y="-119.5" font-family="Helvetica,sans-Serif" font-size="10.00" fill="#000000">BaseF2FModel.H</text>
</a>
</g>
</g>
<!-- Node0&#45;&gt;Node6 -->
<g id="edge6" class="edge">
<title>Node0&#45;&gt;Node6</title>
<path fill="none" stroke="#191970" d="M913,-168.2455C913,-160.9382 913,-150.6944 913,-141.7046"/>
<polygon fill="#191970" stroke="#191970" points="916.5001,-141.6426 913,-131.6427 909.5001,-141.6427 916.5001,-141.6426"/>
</g>
<!-- Node7 -->
<g id="node8" class="node">
<title>Node7</title>
<g id="a_node8"><a xlink:href="lnInclude_2bubbleData_8H.html" target="_top" xlink:title="bubbleData.H">
<polygon fill="none" stroke="#000000" points="1215.5,-56.5 1215.5,-75.5 1292.5,-75.5 1292.5,-56.5 1215.5,-56.5"/>
<text text-anchor="middle" x="1254" y="-63.5" font-family="Helvetica,sans-Serif" font-size="10.00" fill="#000000">bubbleData.H</text>
</a>
</g>
</g>
<!-- Node0&#45;&gt;Node7 -->
<g id="edge29" class="edge">
<title>Node0&#45;&gt;Node7</title>
<path fill="none" stroke="#191970" d="M942.0735,-168.4509C1003.4781,-148.2829 1146.39,-101.3441 1215.3767,-78.6857"/>
<polygon fill="#191970" stroke="#191970" points="1216.5916,-81.9706 1225.0001,-75.5249 1214.4073,-75.3202 1216.5916,-81.9706"/>
</g>
<!-- Node2 -->
<g id="node3" class="node">
<title>Node2</title>
<polygon fill="none" stroke="#bfbfbf" points="0,-.5 0,-19.5 80,-19.5 80,-.5 0,-.5"/>
<text text-anchor="middle" x="40" y="-7.5" font-family="Helvetica,sans-Serif" font-size="10.00" fill="#000000">IOdictionary.H</text>
</g>
<!-- Node1&#45;&gt;Node2 -->
<g id="edge2" class="edge">
<title>Node1&#45;&gt;Node2</title>
<path fill="none" stroke="#191970" d="M267.209,-56.4369C218.0186,-46.3834 140.897,-30.6213 90.3928,-20.2993"/>
<polygon fill="#191970" stroke="#191970" points="90.8497,-16.8204 80.3514,-18.247 89.448,-23.6786 90.8497,-16.8204"/>
</g>
<!-- Node3 -->
<g id="node4" class="node">
<title>Node3</title>
<polygon fill="none" stroke="#bfbfbf" points="98.5,-.5 98.5,-19.5 157.5,-19.5 157.5,-.5 98.5,-.5"/>
<text text-anchor="middle" x="128" y="-7.5" font-family="Helvetica,sans-Serif" font-size="10.00" fill="#000000">autoPtr.H</text>
</g>
<!-- Node1&#45;&gt;Node3 -->
<g id="edge3" class="edge">
<title>Node1&#45;&gt;Node3</title>
<path fill="none" stroke="#191970" d="M282.0255,-56.3733C250.2615,-46.8099 201.4927,-32.1268 167.3647,-21.8517"/>
<polygon fill="#191970" stroke="#191970" points="168.301,-18.4785 157.7165,-18.9469 166.2829,-25.1813 168.301,-18.4785"/>
</g>
<!-- Node4 -->
<g id="node5" class="node">
<title>Node4</title>
<polygon fill="none" stroke="#bfbfbf" points="176,-.5 176,-19.5 308,-19.5 308,-.5 176,-.5"/>
<text text-anchor="middle" x="242" y="-7.5" font-family="Helvetica,sans-Serif" font-size="10.00" fill="#000000">runTimeSelectionTables.H</text>
</g>
<!-- Node1&#45;&gt;Node4 -->
<g id="edge4" class="edge">
<title>Node1&#45;&gt;Node4</title>
<path fill="none" stroke="#191970" d="M301.4586,-56.2455C290.7213,-47.8943 275.0527,-35.7076 262.4953,-25.9408"/>
<polygon fill="#191970" stroke="#191970" points="264.4401,-23.0194 254.3977,-19.6427 260.1425,-28.5449 264.4401,-23.0194"/>
</g>
<!-- Node5 -->
<g id="node6" class="node">
<title>Node5</title>
<polygon fill="none" stroke="#bfbfbf" points="326.5,-.5 326.5,-19.5 445.5,-19.5 445.5,-.5 326.5,-.5"/>
<text text-anchor="middle" x="386" y="-7.5" font-family="Helvetica,sans-Serif" font-size="10.00" fill="#000000">CloudSubModelBase.H</text>
</g>
<!-- Node1&#45;&gt;Node5 -->
<g id="edge5" class="edge">
<title>Node1&#45;&gt;Node5</title>
<path fill="none" stroke="#191970" d="M326.5414,-56.2455C337.2787,-47.8943 352.9473,-35.7076 365.5047,-25.9408"/>
<polygon fill="#191970" stroke="#191970" points="367.8575,-28.5449 373.6023,-19.6427 363.5599,-23.0194 367.8575,-28.5449"/>
</g>
<!-- Node6&#45;&gt;Node1 -->
<g id="edge7" class="edge">
<title>Node6&#45;&gt;Node1</title>
<path fill="none" stroke="#191970" d="M866.4959,-117.6524C760.3262,-107.7267 499.9215,-83.3816 378.4056,-72.0212"/>
<polygon fill="#191970" stroke="#191970" points="378.4241,-68.5078 368.1417,-71.0617 377.7725,-75.4774 378.4241,-68.5078"/>
</g>
<!-- Node6&#45;&gt;Node7 -->
<g id="edge8" class="edge">
<title>Node6&#45;&gt;Node7</title>
<path fill="none" stroke="#191970" d="M959.6996,-114.3309C1024.1951,-103.7392 1139.9679,-84.7267 1205.4352,-73.9754"/>
<polygon fill="#191970" stroke="#191970" points="1206.1942,-77.3978 1215.4948,-72.3234 1205.0598,-70.4903 1206.1942,-77.3978"/>
</g>
<!-- Node8 -->
<g id="node9" class="node">
<title>Node8</title>
<polygon fill="none" stroke="#bfbfbf" points="463.5,-.5 463.5,-19.5 522.5,-19.5 522.5,-.5 463.5,-.5"/>
<text text-anchor="middle" x="493" y="-7.5" font-family="Helvetica,sans-Serif" font-size="10.00" fill="#000000">fvMesh.H</text>
</g>
<!-- Node7&#45;&gt;Node8 -->
<g id="edge9" class="edge">
<title>Node7&#45;&gt;Node8</title>
<path fill="none" stroke="#191970" d="M1215.0903,-64.4842C1087.8658,-59.3805 684.205,-41.9838 532.7261,-19.7632"/>
<polygon fill="#191970" stroke="#191970" points="533.1054,-16.2806 522.6903,-18.224 532.0441,-23.1997 533.1054,-16.2806"/>
</g>
<!-- Node9 -->
<g id="node10" class="node">
<title>Node9</title>
<polygon fill="none" stroke="#bfbfbf" points="541,-.5 541,-19.5 607,-19.5 607,-.5 541,-.5"/>
<text text-anchor="middle" x="574" y="-7.5" font-family="Helvetica,sans-Serif" font-size="10.00" fill="#000000">fileName.H</text>
</g>
<!-- Node7&#45;&gt;Node9 -->
<g id="edge10" class="edge">
<title>Node7&#45;&gt;Node9</title>
<path fill="none" stroke="#191970" d="M1215.281,-65.3852C1116.8483,-63.3591 849.0046,-54.9491 617.3342,-19.9841"/>
<polygon fill="#191970" stroke="#191970" points="617.7886,-16.5129 607.3744,-18.4609 616.7303,-23.4325 617.7886,-16.5129"/>
</g>
<!-- Node10 -->
<g id="node11" class="node">
<title>Node10</title>
<polygon fill="none" stroke="#bfbfbf" points="625.5,-.5 625.5,-19.5 694.5,-19.5 694.5,-.5 625.5,-.5"/>
<text text-anchor="middle" x="660" y="-7.5" font-family="Helvetica,sans-Serif" font-size="10.00" fill="#000000">pointField.H</text>
</g>
<!-- Node7&#45;&gt;Node10 -->
<g id="edge11" class="edge">
<title>Node7&#45;&gt;Node10</title>
<path fill="none" stroke="#191970" d="M1215.4403,-64.6327C1126.9108,-61.0961 902.1965,-49.8582 704.9451,-19.9455"/>
<polygon fill="#191970" stroke="#191970" points="705.395,-16.4736 694.9795,-18.4145 704.3321,-23.3924 705.395,-16.4736"/>
</g>
<!-- Node11 -->
<g id="node12" class="node">
<title>Node11</title>
<polygon fill="none" stroke="#bfbfbf" points="713,-.5 713,-19.5 761,-19.5 761,-.5 713,-.5"/>
<text text-anchor="middle" x="737" y="-7.5" font-family="Helvetica,sans-Serif" font-size="10.00" fill="#000000">point.H</text>
</g>
<!-- Node7&#45;&gt;Node11 -->
<g id="edge12" class="edge">
<title>Node7&#45;&gt;Node11</title>
<path fill="none" stroke="#191970" d="M1215.3515,-64.9389C1134.3945,-62.1577 941.1064,-52.5928 770.8959,-19.816"/>
<polygon fill="#191970" stroke="#191970" points="771.4964,-16.3672 761.0103,-17.8808 770.1516,-23.2368 771.4964,-16.3672"/>
</g>
<!-- Node12 -->
<g id="node13" class="node">
<title>Node12</title>
<polygon fill="none" stroke="#bfbfbf" points="779,-.5 779,-19.5 835,-19.5 835,-.5 779,-.5"/>
<text text-anchor="middle" x="807" y="-7.5" font-family="Helvetica,sans-Serif" font-size="10.00" fill="#000000">DLList.H</text>
</g>
<!-- Node7&#45;&gt;Node12 -->
<g id="edge13" class="edge">
<title>Node7&#45;&gt;Node12</title>
<path fill="none" stroke="#191970" d="M1215.2697,-63.6278C1143.8906,-58.831 986.6995,-46.2882 845.329,-20.0066"/>
<polygon fill="#191970" stroke="#191970" points="845.6548,-16.5063 835.1791,-18.0905 844.3562,-23.3848 845.6548,-16.5063"/>
</g>
<!-- Node13 -->
<g id="node14" class="node">
<title>Node13</title>
<polygon fill="none" stroke="#bfbfbf" points="853.5,-.5 853.5,-19.5 938.5,-19.5 938.5,-.5 853.5,-.5"/>
<text text-anchor="middle" x="896" y="-7.5" font-family="Helvetica,sans-Serif" font-size="10.00" fill="#000000">sphereToCell.H</text>
</g>
<!-- Node7&#45;&gt;Node13 -->
<g id="edge14" class="edge">
<title>Node7&#45;&gt;Node13</title>
<path fill="none" stroke="#191970" d="M1215.14,-60.7474C1158.669,-52.9896 1050.3905,-37.6466 948.6864,-20.2373"/>
<polygon fill="#191970" stroke="#191970" points="948.9993,-16.7397 938.5503,-18.4915 947.8111,-23.6382 948.9993,-16.7397"/>
</g>
<!-- Node14 -->
<g id="node15" class="node">
<title>Node14</title>
<polygon fill="none" stroke="#bfbfbf" points="956.5,-.5 956.5,-19.5 1013.5,-19.5 1013.5,-.5 956.5,-.5"/>
<text text-anchor="middle" x="985" y="-7.5" font-family="Helvetica,sans-Serif" font-size="10.00" fill="#000000">cellSet.H</text>
</g>
<!-- Node7&#45;&gt;Node14 -->
<g id="edge15" class="edge">
<title>Node7&#45;&gt;Node14</title>
<path fill="none" stroke="#191970" d="M1215.2398,-59.1508C1171.0187,-51.1523 1096.337,-37.0857 1023.4395,-20.2326"/>
<polygon fill="#191970" stroke="#191970" points="1024.168,-16.8086 1013.6344,-17.946 1022.5782,-23.6257 1024.168,-16.8086"/>
</g>
<!-- Node15 -->
<g id="node16" class="node">
<title>Node15</title>
<polygon fill="none" stroke="#bfbfbf" points="1031.5,-.5 1031.5,-19.5 1114.5,-19.5 1114.5,-.5 1031.5,-.5"/>
<text text-anchor="middle" x="1073" y="-7.5" font-family="Helvetica,sans-Serif" font-size="10.00" fill="#000000">simpleMatrix.H</text>
</g>
<!-- Node7&#45;&gt;Node15 -->
<g id="edge16" class="edge">
<title>Node7&#45;&gt;Node15</title>
<path fill="none" stroke="#191970" d="M1222.885,-56.3733C1192.6571,-47.021 1146.604,-32.7725 1113.5261,-22.5385"/>
<polygon fill="#191970" stroke="#191970" points="1114.2967,-19.1133 1103.709,-19.5011 1112.2277,-25.8005 1114.2967,-19.1133"/>
</g>
<!-- Node16 -->
<g id="node17" class="node">
<title>Node16</title>
<polygon fill="none" stroke="#bfbfbf" points="1132.5,-.5 1132.5,-19.5 1263.5,-19.5 1263.5,-.5 1132.5,-.5"/>
<text text-anchor="middle" x="1198" y="-7.5" font-family="Helvetica,sans-Serif" font-size="10.00" fill="#000000">mathematicalConstants.H</text>
</g>
<!-- Node7&#45;&gt;Node16 -->
<g id="edge17" class="edge">
<title>Node7&#45;&gt;Node16</title>
<path fill="none" stroke="#191970" d="M1244.2455,-56.2455C1236.1352,-48.1352 1224.4075,-36.4075 1214.7919,-26.7919"/>
<polygon fill="#191970" stroke="#191970" points="1217.1887,-24.2389 1207.6427,-19.6427 1212.2389,-29.1887 1217.1887,-24.2389"/>
</g>
<!-- Node17 -->
<g id="node18" class="node">
<title>Node17</title>
<polygon fill="none" stroke="#bfbfbf" points="1282,-.5 1282,-19.5 1338,-19.5 1338,-.5 1282,-.5"/>
<text text-anchor="middle" x="1310" y="-7.5" font-family="Helvetica,sans-Serif" font-size="10.00" fill="#000000">fvCFD.H</text>
</g>
<!-- Node7&#45;&gt;Node17 -->
<g id="edge18" class="edge">
<title>Node7&#45;&gt;Node17</title>
<path fill="none" stroke="#191970" d="M1263.7545,-56.2455C1271.8648,-48.1352 1283.5925,-36.4075 1293.2081,-26.7919"/>
<polygon fill="#191970" stroke="#191970" points="1295.7611,-29.1887 1300.3573,-19.6427 1290.8113,-24.2389 1295.7611,-29.1887"/>
</g>
<!-- Node18 -->
<g id="node19" class="node">
<title>Node18</title>
<polygon fill="none" stroke="#bfbfbf" points="1356,-.5 1356,-19.5 1422,-19.5 1422,-.5 1356,-.5"/>
<text text-anchor="middle" x="1389" y="-7.5" font-family="Helvetica,sans-Serif" font-size="10.00" fill="#000000">IFstream.H</text>
</g>
<!-- Node7&#45;&gt;Node18 -->
<g id="edge19" class="edge">
<title>Node7&#45;&gt;Node18</title>
<path fill="none" stroke="#191970" d="M1277.2073,-56.3733C1299.1699,-47.2629 1332.3332,-33.5062 1356.8401,-23.3404"/>
<polygon fill="#191970" stroke="#191970" points="1358.1997,-26.5657 1366.0955,-19.5011 1355.5176,-20.0999 1358.1997,-26.5657"/>
</g>
<!-- Node19 -->
<g id="node20" class="node">
<title>Node19</title>
<polygon fill="none" stroke="#bfbfbf" points="1440.5,-.5 1440.5,-19.5 1511.5,-19.5 1511.5,-.5 1440.5,-.5"/>
<text text-anchor="middle" x="1476" y="-7.5" font-family="Helvetica,sans-Serif" font-size="10.00" fill="#000000">OFstream.H</text>
</g>
<!-- Node7&#45;&gt;Node19 -->
<g id="edge20" class="edge">
<title>Node7&#45;&gt;Node19</title>
<path fill="none" stroke="#191970" d="M1291.9109,-56.4369C1330.3515,-46.7402 1389.8446,-31.7329 1430.7345,-21.4183"/>
<polygon fill="#191970" stroke="#191970" points="1431.6071,-24.8079 1440.4473,-18.9682 1429.8949,-18.0205 1431.6071,-24.8079"/>
</g>
<!-- Node20 -->
<g id="node21" class="node">
<title>Node20</title>
<polygon fill="none" stroke="#bfbfbf" points="1529.5,-.5 1529.5,-19.5 1616.5,-19.5 1616.5,-.5 1529.5,-.5"/>
<text text-anchor="middle" x="1573" y="-7.5" font-family="Helvetica,sans-Serif" font-size="10.00" fill="#000000">IStringStream.H</text>
</g>
<!-- Node7&#45;&gt;Node20 -->
<g id="edge21" class="edge">
<title>Node7&#45;&gt;Node20</title>
<path fill="none" stroke="#191970" d="M1292.5087,-59.6063C1342.5149,-51.2507 1432.7714,-35.9897 1519.33,-20.2816"/>
<polygon fill="#191970" stroke="#191970" points="1520.107,-23.6978 1529.3187,-18.4639 1518.8537,-16.8109 1520.107,-23.6978"/>
</g>
<!-- Node21 -->
<g id="node22" class="node">
<title>Node21</title>
<polygon fill="none" stroke="#bfbfbf" points="1635,-.5 1635,-19.5 1727,-19.5 1727,-.5 1635,-.5"/>
<text text-anchor="middle" x="1681" y="-7.5" font-family="Helvetica,sans-Serif" font-size="10.00" fill="#000000">OStringStream.H</text>
</g>
<!-- Node7&#45;&gt;Node21 -->
<g id="edge22" class="edge">
<title>Node7&#45;&gt;Node21</title>
<path fill="none" stroke="#191970" d="M1292.6575,-61.9521C1358.6431,-54.8834 1497.4551,-39.3226 1624.8837,-20.1027"/>
<polygon fill="#191970" stroke="#191970" points="1625.4577,-23.5558 1634.8184,-18.5932 1624.4061,-16.6352 1625.4577,-23.5558"/>
</g>
<!-- Node22 -->
<g id="node23" class="node">
<title>Node22</title>
<polygon fill="none" stroke="#bfbfbf" points="1745,-.5 1745,-19.5 1795,-19.5 1795,-.5 1745,-.5"/>
<text text-anchor="middle" x="1770" y="-7.5" font-family="Helvetica,sans-Serif" font-size="10.00" fill="#000000">fstream</text>
</g>
<!-- Node7&#45;&gt;Node22 -->
<g id="edge23" class="edge">
<title>Node7&#45;&gt;Node22</title>
<path fill="none" stroke="#191970" d="M1292.781,-64.8071C1373.5512,-61.7858 1565.691,-51.8025 1735.0447,-19.8546"/>
<polygon fill="#191970" stroke="#191970" points="1735.7186,-23.2892 1744.8808,-17.9691 1734.4006,-16.4144 1735.7186,-23.2892"/>
</g>
<!-- Node23 -->
<g id="node24" class="node">
<title>Node23</title>
<polygon fill="none" stroke="#bfbfbf" points="1813,-.5 1813,-19.5 1867,-19.5 1867,-.5 1813,-.5"/>
<text text-anchor="middle" x="1840" y="-7.5" font-family="Helvetica,sans-Serif" font-size="10.00" fill="#000000">iostream</text>
</g>
<!-- Node7&#45;&gt;Node23 -->
<g id="edge24" class="edge">
<title>Node7&#45;&gt;Node23</title>
<path fill="none" stroke="#191970" d="M1292.6631,-65.2521C1381.4078,-63.0053 1606.5425,-54.2873 1803.0706,-19.8517"/>
<polygon fill="#191970" stroke="#191970" points="1803.7662,-23.283 1812.9986,-18.0856 1802.5402,-16.3912 1803.7662,-23.283"/>
</g>
<!-- Node24 -->
<g id="node25" class="node">
<title>Node24</title>
<polygon fill="none" stroke="#bfbfbf" points="1885.5,-.5 1885.5,-19.5 1926.5,-19.5 1926.5,-.5 1885.5,-.5"/>
<text text-anchor="middle" x="1906" y="-7.5" font-family="Helvetica,sans-Serif" font-size="10.00" fill="#000000">string</text>
</g>
<!-- Node7&#45;&gt;Node24 -->
<g id="edge25" class="edge">
<title>Node7&#45;&gt;Node24</title>
<path fill="none" stroke="#191970" d="M1292.8336,-64.3892C1407.6431,-59.4334 1745.0232,-43.4286 1875.0954,-19.6191"/>
<polygon fill="#191970" stroke="#191970" points="1876.0436,-23.0007 1885.1983,-17.6676 1874.716,-16.1278 1876.0436,-23.0007"/>
</g>
<!-- Node25 -->
<g id="node26" class="node">
<title>Node25</title>
<polygon fill="none" stroke="#bfbfbf" points="1945,-.5 1945,-19.5 1989,-19.5 1989,-.5 1945,-.5"/>
<text text-anchor="middle" x="1967" y="-7.5" font-family="Helvetica,sans-Serif" font-size="10.00" fill="#000000">cmath</text>
</g>
<!-- Node7&#45;&gt;Node25 -->
<g id="edge26" class="edge">
<title>Node7&#45;&gt;Node25</title>
<path fill="none" stroke="#191970" d="M1292.5394,-64.6413C1414.5356,-60.1506 1792.0963,-44.7486 1934.572,-19.767"/>
<polygon fill="#191970" stroke="#191970" points="1935.6215,-23.1324 1944.819,-17.8735 1934.3495,-16.2489 1935.6215,-23.1324"/>
</g>
<!-- Node26 -->
<g id="node27" class="node">
<title>Node26</title>
<polygon fill="none" stroke="#bfbfbf" points="2007,-.5 2007,-19.5 2057,-19.5 2057,-.5 2007,-.5"/>
<text text-anchor="middle" x="2032" y="-7.5" font-family="Helvetica,sans-Serif" font-size="10.00" fill="#000000">iomanip</text>
</g>
<!-- Node7&#45;&gt;Node26 -->
<g id="edge27" class="edge">
<title>Node7&#45;&gt;Node26</title>
<path fill="none" stroke="#191970" d="M1292.7335,-64.753C1422.3397,-60.4052 1840.9521,-44.9015 1996.5932,-19.8099"/>
<polygon fill="#191970" stroke="#191970" points="1997.6231,-23.1854 2006.8985,-18.0651 1996.4545,-16.2836 1997.6231,-23.1854"/>
</g>
<!-- Node27 -->
<g id="node28" class="node">
<title>Node27</title>
<g id="a_node28"><a xlink:href="lnInclude_2bubbleDataI_8H.html" target="_top" xlink:title="bubbleDataI.H">
<polygon fill="none" stroke="#000000" points="2075,-.5 2075,-19.5 2155,-19.5 2155,-.5 2075,-.5"/>
<text text-anchor="middle" x="2115" y="-7.5" font-family="Helvetica,sans-Serif" font-size="10.00" fill="#000000">bubbleDataI.H</text>
</a>
</g>
</g>
<!-- Node7&#45;&gt;Node27 -->
<g id="edge28" class="edge">
<title>Node7&#45;&gt;Node27</title>
<path fill="none" stroke="#191970" d="M1292.7553,-64.5501C1430.1567,-59.2957 1894.4411,-40.541 2064.8947,-19.9268"/>
<polygon fill="#191970" stroke="#191970" points="2065.4822,-23.3806 2074.9679,-18.6613 2064.6095,-16.4352 2065.4822,-23.3806"/>
</g>
</g>
</svg>
