<?xml version="1.0" encoding="UTF-8" standalone="no"?>
<!DOCTYPE svg PUBLIC "-//W3C//DTD SVG 1.1//EN"
 "http://www.w3.org/Graphics/SVG/1.1/DTD/svg11.dtd">
<!-- Generated by graphviz version 2.40.1 (20161225.0304)
 -->
<!-- Title: lnInclude/VolumeCorrectionModel.H Pages: 1 -->
<svg width="604pt" height="240pt"
 viewBox="0.00 0.00 604.00 240.00" xmlns="http://www.w3.org/2000/svg" xmlns:xlink="http://www.w3.org/1999/xlink">
<g id="graph0" class="graph" transform="scale(1 1) rotate(0) translate(4 236)">
<title>lnInclude/VolumeCorrectionModel.H</title>
<!-- Node5 -->
<g id="node1" class="node">
<title>Node5</title>
<polygon fill="#bfbfbf" stroke="#000000" points="256,-201.5 256,-231.5 393,-231.5 393,-201.5 256,-201.5"/>
<text text-anchor="start" x="264" y="-219.5" font-family="Helvetica,sans-Serif" font-size="10.00" fill="#000000">lnInclude/VolumeCorrection</text>
<text text-anchor="middle" x="324.5" y="-208.5" font-family="Helvetica,sans-Serif" font-size="10.00" fill="#000000">Model.H</text>
</g>
<!-- Node6 -->
<g id="node2" class="node">
<title>Node6</title>
<g id="a_node2"><a xlink:href="lnInclude_2FrontTrackingCloud_8C.html" target="_top" xlink:title="lnInclude/FrontTrackingCloud.C">
<polygon fill="none" stroke="#000000" points="0,-140 0,-159 155,-159 155,-140 0,-140"/>
<text text-anchor="middle" x="77.5" y="-147" font-family="Helvetica,sans-Serif" font-size="10.00" fill="#000000">lnInclude/FrontTrackingCloud.C</text>
</a>
</g>
</g>
<!-- Node5&#45;&gt;Node6 -->
<g id="edge1" class="edge">
<title>Node5&#45;&gt;Node6</title>
<path fill="none" stroke="#191970" d="M259.2698,-198.806C212.2466,-186.0507 150.6012,-169.3291 112.5419,-159.0053"/>
<polygon fill="#191970" stroke="#191970" points="258.5008,-202.2238 269.0684,-201.4639 260.3334,-195.4679 258.5008,-202.2238"/>
</g>
<!-- Node7 -->
<g id="node3" class="node">
<title>Node7</title>
<g id="a_node3"><a xlink:href="lnInclude_2NoVolumeCorrection_8H.html" target="_top" xlink:title="lnInclude/NoVolumeCorrection.H">
<polygon fill="none" stroke="#000000" points="173.5,-140 173.5,-159 333.5,-159 333.5,-140 173.5,-140"/>
<text text-anchor="middle" x="253.5" y="-147" font-family="Helvetica,sans-Serif" font-size="10.00" fill="#000000">lnInclude/NoVolumeCorrection.H</text>
</a>
</g>
</g>
<!-- Node5&#45;&gt;Node7 -->
<g id="edge2" class="edge">
<title>Node5&#45;&gt;Node7</title>
<path fill="none" stroke="#191970" d="M300.8721,-194.2032C288.2194,-182.2634 273.2927,-168.1776 263.6254,-159.055"/>
<polygon fill="#191970" stroke="#191970" points="298.7139,-196.979 308.389,-201.2967 303.5181,-191.8879 298.7139,-196.979"/>
</g>
<!-- Node11 -->
<g id="node7" class="node">
<title>Node11</title>
<g id="a_node7"><a xlink:href="lnInclude_2VC2_8H.html" target="_top" xlink:title="lnInclude/VC2.H">
<polygon fill="none" stroke="#000000" points="352,-140 352,-159 441,-159 441,-140 352,-140"/>
<text text-anchor="middle" x="396.5" y="-147" font-family="Helvetica,sans-Serif" font-size="10.00" fill="#000000">lnInclude/VC2.H</text>
</a>
</g>
</g>
<!-- Node5&#45;&gt;Node11 -->
<g id="edge6" class="edge">
<title>Node5&#45;&gt;Node11</title>
<path fill="none" stroke="#191970" d="M348.4607,-194.2032C361.2916,-182.2634 376.4285,-168.1776 386.232,-159.055"/>
<polygon fill="#191970" stroke="#191970" points="345.7743,-191.9221 340.8379,-201.2967 350.5429,-197.0466 345.7743,-191.9221"/>
</g>
<!-- Node13 -->
<g id="node9" class="node">
<title>Node13</title>
<g id="a_node9"><a xlink:href="lnInclude_2VolumeCorrectionModel_8C.html" target="_top" xlink:title="lnInclude/VolumeCorrection\lModel.C">
<polygon fill="none" stroke="#000000" points="459,-134.5 459,-164.5 596,-164.5 596,-134.5 459,-134.5"/>
<text text-anchor="start" x="467" y="-152.5" font-family="Helvetica,sans-Serif" font-size="10.00" fill="#000000">lnInclude/VolumeCorrection</text>
<text text-anchor="middle" x="527.5" y="-141.5" font-family="Helvetica,sans-Serif" font-size="10.00" fill="#000000">Model.C</text>
</a>
</g>
</g>
<!-- Node5&#45;&gt;Node13 -->
<g id="edge9" class="edge">
<title>Node5&#45;&gt;Node13</title>
<path fill="none" stroke="#191970" d="M379.7163,-198.2759C411.7096,-187.7165 451.5099,-174.5805 481.7441,-164.6017"/>
<polygon fill="#191970" stroke="#191970" points="378.4563,-195.006 370.0572,-201.4639 380.6503,-201.6533 378.4563,-195.006"/>
</g>
<!-- Node8 -->
<g id="node4" class="node">
<title>Node8</title>
<g id="a_node4"><a xlink:href="lnInclude_2makeFrontTrackingParcelVolumeCorrectionModels_8H.html" target="_top" xlink:title="lnInclude/makeFrontTracking\lParcelVolumeCorrectionModels.H">
<polygon fill="none" stroke="#000000" points="242.5,-67.5 242.5,-97.5 406.5,-97.5 406.5,-67.5 242.5,-67.5"/>
<text text-anchor="start" x="250.5" y="-85.5" font-family="Helvetica,sans-Serif" font-size="10.00" fill="#000000">lnInclude/makeFrontTracking</text>
<text text-anchor="middle" x="324.5" y="-74.5" font-family="Helvetica,sans-Serif" font-size="10.00" fill="#000000">ParcelVolumeCorrectionModels.H</text>
</a>
</g>
</g>
<!-- Node7&#45;&gt;Node8 -->
<g id="edge3" class="edge">
<title>Node7&#45;&gt;Node8</title>
<path fill="none" stroke="#191970" d="M270.9966,-132.9892C282.4939,-122.1395 297.4176,-108.0566 308.5814,-97.5218"/>
<polygon fill="#191970" stroke="#191970" points="268.5434,-130.4917 263.6726,-139.9005 273.3477,-135.5828 268.5434,-130.4917"/>
</g>
<!-- Node10 -->
<g id="node6" class="node">
<title>Node10</title>
<g id="a_node6"><a xlink:href="lnInclude_2NoVolumeCorrection_8C.html" target="_top" xlink:title="lnInclude/NoVolumeCorrection.C">
<polygon fill="none" stroke="#000000" points="64.5,-73 64.5,-92 224.5,-92 224.5,-73 64.5,-73"/>
<text text-anchor="middle" x="144.5" y="-80" font-family="Helvetica,sans-Serif" font-size="10.00" fill="#000000">lnInclude/NoVolumeCorrection.C</text>
</a>
</g>
</g>
<!-- Node7&#45;&gt;Node10 -->
<g id="edge5" class="edge">
<title>Node7&#45;&gt;Node10</title>
<path fill="none" stroke="#191970" d="M229.1569,-134.5368C208.0463,-121.5605 178.1252,-103.1687 160.0881,-92.0817"/>
<polygon fill="#191970" stroke="#191970" points="227.5308,-137.6456 237.883,-139.9005 231.1965,-131.6821 227.5308,-137.6456"/>
</g>
<!-- Node9 -->
<g id="node5" class="node">
<title>Node9</title>
<g id="a_node5"><a xlink:href="lnInclude_2makeFrontTrackingParcelSubmodels_8C.html" target="_top" xlink:title="lnInclude/makeFrontTracking\lParcelSubmodels.C">
<polygon fill="none" stroke="#000000" points="253,-.5 253,-30.5 396,-30.5 396,-.5 253,-.5"/>
<text text-anchor="start" x="261" y="-18.5" font-family="Helvetica,sans-Serif" font-size="10.00" fill="#000000">lnInclude/makeFrontTracking</text>
<text text-anchor="middle" x="324.5" y="-7.5" font-family="Helvetica,sans-Serif" font-size="10.00" fill="#000000">ParcelSubmodels.C</text>
</a>
</g>
</g>
<!-- Node8&#45;&gt;Node9 -->
<g id="edge4" class="edge">
<title>Node8&#45;&gt;Node9</title>
<path fill="none" stroke="#191970" d="M324.5,-57.0249C324.5,-48.128 324.5,-38.4287 324.5,-30.6432"/>
<polygon fill="#191970" stroke="#191970" points="321.0001,-57.2966 324.5,-67.2967 328.0001,-57.2967 321.0001,-57.2966"/>
</g>
<!-- Node11&#45;&gt;Node8 -->
<g id="edge7" class="edge">
<title>Node11&#45;&gt;Node8</title>
<path fill="none" stroke="#191970" d="M378.757,-132.9892C367.0977,-122.1395 351.9639,-108.0566 340.6428,-97.5218"/>
<polygon fill="#191970" stroke="#191970" points="376.4791,-135.6504 386.1842,-139.9005 381.2478,-130.5259 376.4791,-135.6504"/>
</g>
<!-- Node12 -->
<g id="node8" class="node">
<title>Node12</title>
<g id="a_node8"><a xlink:href="lnInclude_2VC2_8C.html" target="_top" xlink:title="lnInclude/VC2.C">
<polygon fill="none" stroke="#000000" points="425,-73 425,-92 514,-92 514,-73 425,-73"/>
<text text-anchor="middle" x="469.5" y="-80" font-family="Helvetica,sans-Serif" font-size="10.00" fill="#000000">lnInclude/VC2.C</text>
</a>
</g>
</g>
<!-- Node11&#45;&gt;Node12 -->
<g id="edge8" class="edge">
<title>Node11&#45;&gt;Node12</title>
<path fill="none" stroke="#191970" d="M414.5429,-132.94C428.546,-120.0879 447.4679,-102.7212 459.0603,-92.0817"/>
<polygon fill="#191970" stroke="#191970" points="411.9599,-130.5601 406.9591,-139.9005 416.6931,-135.7173 411.9599,-130.5601"/>
</g>
</g>
</svg>
