<?xml version="1.0" encoding="UTF-8" standalone="no"?>
<!DOCTYPE svg PUBLIC "-//W3C//DTD SVG 1.1//EN"
 "http://www.w3.org/Graphics/SVG/1.1/DTD/svg11.dtd">
<!-- Generated by graphviz version 2.40.1 (20161225.0304)
 -->
<!-- Title: lnInclude/bubbleData.H Pages: 1 -->
<svg width="1700pt" height="84pt"
 viewBox="0.00 0.00 1699.50 84.00" xmlns="http://www.w3.org/2000/svg" xmlns:xlink="http://www.w3.org/1999/xlink">
<g id="graph0" class="graph" transform="scale(1 1) rotate(0) translate(4 80)">
<title>lnInclude/bubbleData.H</title>
<!-- Node0 -->
<g id="node1" class="node">
<title>Node0</title>
<polygon fill="#bfbfbf" stroke="#000000" points="826,-56.5 826,-75.5 945,-75.5 945,-56.5 826,-56.5"/>
<text text-anchor="middle" x="885.5" y="-63.5" font-family="Helvetica,sans-Serif" font-size="10.00" fill="#000000">lnInclude/bubbleData.H</text>
</g>
<!-- Node1 -->
<g id="node2" class="node">
<title>Node1</title>
<polygon fill="none" stroke="#bfbfbf" points="0,-.5 0,-19.5 59,-19.5 59,-.5 0,-.5"/>
<text text-anchor="middle" x="29.5" y="-7.5" font-family="Helvetica,sans-Serif" font-size="10.00" fill="#000000">fvMesh.H</text>
</g>
<!-- Node0&#45;&gt;Node1 -->
<g id="edge1" class="edge">
<title>Node0&#45;&gt;Node1</title>
<path fill="none" stroke="#191970" d="M825.7956,-64.1489C666.4749,-58.9732 232.8723,-43.2835 69.1128,-19.7364"/>
<polygon fill="#191970" stroke="#191970" points="69.5954,-16.2697 59.1867,-18.2471 68.5567,-23.1922 69.5954,-16.2697"/>
</g>
<!-- Node2 -->
<g id="node3" class="node">
<title>Node2</title>
<polygon fill="none" stroke="#bfbfbf" points="77.5,-.5 77.5,-19.5 143.5,-19.5 143.5,-.5 77.5,-.5"/>
<text text-anchor="middle" x="110.5" y="-7.5" font-family="Helvetica,sans-Serif" font-size="10.00" fill="#000000">fileName.H</text>
</g>
<!-- Node0&#45;&gt;Node2 -->
<g id="edge2" class="edge">
<title>Node0&#45;&gt;Node2</title>
<path fill="none" stroke="#191970" d="M825.7594,-63.5715C678.5303,-57.3793 300.2122,-40.1559 153.9905,-19.9493"/>
<polygon fill="#191970" stroke="#191970" points="154.2673,-16.4531 143.87,-18.4894 153.2678,-23.3814 154.2673,-16.4531"/>
</g>
<!-- Node3 -->
<g id="node4" class="node">
<title>Node3</title>
<polygon fill="none" stroke="#bfbfbf" points="162,-.5 162,-19.5 231,-19.5 231,-.5 162,-.5"/>
<text text-anchor="middle" x="196.5" y="-7.5" font-family="Helvetica,sans-Serif" font-size="10.00" fill="#000000">pointField.H</text>
</g>
<!-- Node0&#45;&gt;Node3 -->
<g id="edge3" class="edge">
<title>Node0&#45;&gt;Node3</title>
<path fill="none" stroke="#191970" d="M825.5896,-64.7693C712.9833,-61.7945 462.0132,-52.0274 241.6135,-19.9487"/>
<polygon fill="#191970" stroke="#191970" points="241.8772,-16.4498 231.4736,-18.4537 240.8561,-23.3749 241.8772,-16.4498"/>
</g>
<!-- Node4 -->
<g id="node5" class="node">
<title>Node4</title>
<polygon fill="none" stroke="#bfbfbf" points="249.5,-.5 249.5,-19.5 297.5,-19.5 297.5,-.5 249.5,-.5"/>
<text text-anchor="middle" x="273.5" y="-7.5" font-family="Helvetica,sans-Serif" font-size="10.00" fill="#000000">point.H</text>
</g>
<!-- Node0&#45;&gt;Node4 -->
<g id="edge4" class="edge">
<title>Node0&#45;&gt;Node4</title>
<path fill="none" stroke="#191970" d="M825.8749,-62.8929C702.5124,-56.206 421.9213,-39.5943 307.4075,-19.7321"/>
<polygon fill="#191970" stroke="#191970" points="307.9676,-16.2766 297.5018,-17.925 306.7113,-23.1629 307.9676,-16.2766"/>
</g>
<!-- Node5 -->
<g id="node6" class="node">
<title>Node5</title>
<polygon fill="none" stroke="#bfbfbf" points="315.5,-.5 315.5,-19.5 371.5,-19.5 371.5,-.5 315.5,-.5"/>
<text text-anchor="middle" x="343.5" y="-7.5" font-family="Helvetica,sans-Serif" font-size="10.00" fill="#000000">DLList.H</text>
</g>
<!-- Node0&#45;&gt;Node5 -->
<g id="edge5" class="edge">
<title>Node0&#45;&gt;Node5</title>
<path fill="none" stroke="#191970" d="M825.968,-63.9144C732.9251,-59.9229 547.3742,-49.0232 381.5529,-19.9137"/>
<polygon fill="#191970" stroke="#191970" points="382.1266,-16.4609 371.6676,-18.1523 380.8986,-23.3523 382.1266,-16.4609"/>
</g>
<!-- Node6 -->
<g id="node7" class="node">
<title>Node6</title>
<polygon fill="none" stroke="#bfbfbf" points="390,-.5 390,-19.5 475,-19.5 475,-.5 390,-.5"/>
<text text-anchor="middle" x="432.5" y="-7.5" font-family="Helvetica,sans-Serif" font-size="10.00" fill="#000000">sphereToCell.H</text>
</g>
<!-- Node0&#45;&gt;Node6 -->
<g id="edge6" class="edge">
<title>Node0&#45;&gt;Node6</title>
<path fill="none" stroke="#191970" d="M825.7046,-60.6592C749.0777,-53.4809 611.9336,-39.5107 485.2961,-20.1846"/>
<polygon fill="#191970" stroke="#191970" points="485.4485,-16.6669 475.0321,-18.6027 484.3822,-23.5852 485.4485,-16.6669"/>
</g>
<!-- Node7 -->
<g id="node8" class="node">
<title>Node7</title>
<polygon fill="none" stroke="#bfbfbf" points="493,-.5 493,-19.5 550,-19.5 550,-.5 493,-.5"/>
<text text-anchor="middle" x="521.5" y="-7.5" font-family="Helvetica,sans-Serif" font-size="10.00" fill="#000000">cellSet.H</text>
</g>
<!-- Node0&#45;&gt;Node7 -->
<g id="edge7" class="edge">
<title>Node0&#45;&gt;Node7</title>
<path fill="none" stroke="#191970" d="M825.7487,-59.851C762.0836,-52.7936 658.2149,-39.8337 560.1776,-20.1573"/>
<polygon fill="#191970" stroke="#191970" points="560.5964,-16.6708 550.0992,-18.1062 559.2004,-23.5302 560.5964,-16.6708"/>
</g>
<!-- Node8 -->
<g id="node9" class="node">
<title>Node8</title>
<polygon fill="none" stroke="#bfbfbf" points="568,-.5 568,-19.5 651,-19.5 651,-.5 568,-.5"/>
<text text-anchor="middle" x="609.5" y="-7.5" font-family="Helvetica,sans-Serif" font-size="10.00" fill="#000000">simpleMatrix.H</text>
</g>
<!-- Node0&#45;&gt;Node8 -->
<g id="edge8" class="edge">
<title>Node0&#45;&gt;Node8</title>
<path fill="none" stroke="#191970" d="M838.3675,-56.4369C789.0032,-46.4209 711.7139,-30.739 660.8323,-20.4152"/>
<polygon fill="#191970" stroke="#191970" points="661.5205,-16.9836 651.0242,-18.4252 660.1285,-23.8439 661.5205,-16.9836"/>
</g>
<!-- Node9 -->
<g id="node10" class="node">
<title>Node9</title>
<polygon fill="none" stroke="#bfbfbf" points="669,-.5 669,-19.5 800,-19.5 800,-.5 669,-.5"/>
<text text-anchor="middle" x="734.5" y="-7.5" font-family="Helvetica,sans-Serif" font-size="10.00" fill="#000000">mathematicalConstants.H</text>
</g>
<!-- Node0&#45;&gt;Node9 -->
<g id="edge9" class="edge">
<title>Node0&#45;&gt;Node9</title>
<path fill="none" stroke="#191970" d="M859.5422,-56.3733C834.7593,-47.1822 797.2254,-33.2624 769.746,-23.0713"/>
<polygon fill="#191970" stroke="#191970" points="770.7121,-19.6968 760.1191,-19.5011 768.2781,-26.26 770.7121,-19.6968"/>
</g>
<!-- Node10 -->
<g id="node11" class="node">
<title>Node10</title>
<polygon fill="none" stroke="#bfbfbf" points="818.5,-.5 818.5,-19.5 874.5,-19.5 874.5,-.5 818.5,-.5"/>
<text text-anchor="middle" x="846.5" y="-7.5" font-family="Helvetica,sans-Serif" font-size="10.00" fill="#000000">fvCFD.H</text>
</g>
<!-- Node0&#45;&gt;Node10 -->
<g id="edge10" class="edge">
<title>Node0&#45;&gt;Node10</title>
<path fill="none" stroke="#191970" d="M878.7067,-56.2455C873.2822,-48.4564 865.5339,-37.3308 858.9967,-27.9439"/>
<polygon fill="#191970" stroke="#191970" points="861.8025,-25.8485 853.2154,-19.6427 856.0583,-29.849 861.8025,-25.8485"/>
</g>
<!-- Node11 -->
<g id="node12" class="node">
<title>Node11</title>
<polygon fill="none" stroke="#bfbfbf" points="892.5,-.5 892.5,-19.5 958.5,-19.5 958.5,-.5 892.5,-.5"/>
<text text-anchor="middle" x="925.5" y="-7.5" font-family="Helvetica,sans-Serif" font-size="10.00" fill="#000000">IFstream.H</text>
</g>
<!-- Node0&#45;&gt;Node11 -->
<g id="edge11" class="edge">
<title>Node0&#45;&gt;Node11</title>
<path fill="none" stroke="#191970" d="M892.4675,-56.2455C898.0311,-48.4564 905.978,-37.3308 912.6829,-27.9439"/>
<polygon fill="#191970" stroke="#191970" points="915.648,-29.8144 918.6124,-19.6427 909.9519,-25.7457 915.648,-29.8144"/>
</g>
<!-- Node12 -->
<g id="node13" class="node">
<title>Node12</title>
<polygon fill="none" stroke="#bfbfbf" points="977,-.5 977,-19.5 1048,-19.5 1048,-.5 977,-.5"/>
<text text-anchor="middle" x="1012.5" y="-7.5" font-family="Helvetica,sans-Serif" font-size="10.00" fill="#000000">OFstream.H</text>
</g>
<!-- Node0&#45;&gt;Node12 -->
<g id="edge12" class="edge">
<title>Node0&#45;&gt;Node12</title>
<path fill="none" stroke="#191970" d="M907.3321,-56.3733C927.8103,-47.3435 958.6399,-33.7494 981.6319,-23.6111"/>
<polygon fill="#191970" stroke="#191970" points="983.215,-26.7383 990.9528,-19.5011 980.3907,-20.3333 983.215,-26.7383"/>
</g>
<!-- Node13 -->
<g id="node14" class="node">
<title>Node13</title>
<polygon fill="none" stroke="#bfbfbf" points="1066,-.5 1066,-19.5 1153,-19.5 1153,-.5 1066,-.5"/>
<text text-anchor="middle" x="1109.5" y="-7.5" font-family="Helvetica,sans-Serif" font-size="10.00" fill="#000000">IStringStream.H</text>
</g>
<!-- Node0&#45;&gt;Node13 -->
<g id="edge13" class="edge">
<title>Node0&#45;&gt;Node13</title>
<path fill="none" stroke="#191970" d="M923.7525,-56.4369C961.8467,-46.9133 1020.4313,-32.2672 1061.5987,-21.9753"/>
<polygon fill="#191970" stroke="#191970" points="1062.5528,-25.3446 1071.4053,-19.5237 1060.855,-18.5536 1062.5528,-25.3446"/>
</g>
<!-- Node14 -->
<g id="node15" class="node">
<title>Node14</title>
<polygon fill="none" stroke="#bfbfbf" points="1171.5,-.5 1171.5,-19.5 1263.5,-19.5 1263.5,-.5 1171.5,-.5"/>
<text text-anchor="middle" x="1217.5" y="-7.5" font-family="Helvetica,sans-Serif" font-size="10.00" fill="#000000">OStringStream.H</text>
</g>
<!-- Node0&#45;&gt;Node14 -->
<g id="edge14" class="edge">
<title>Node0&#45;&gt;Node14</title>
<path fill="none" stroke="#191970" d="M944.4436,-56.4795C998.2498,-47.7279 1080.269,-34.236 1160.9528,-20.2505"/>
<polygon fill="#191970" stroke="#191970" points="1162.0423,-23.6138 1171.2956,-18.4537 1160.8441,-16.7171 1162.0423,-23.6138"/>
</g>
<!-- Node15 -->
<g id="node16" class="node">
<title>Node15</title>
<polygon fill="none" stroke="#bfbfbf" points="1281.5,-.5 1281.5,-19.5 1331.5,-19.5 1331.5,-.5 1281.5,-.5"/>
<text text-anchor="middle" x="1306.5" y="-7.5" font-family="Helvetica,sans-Serif" font-size="10.00" fill="#000000">fstream</text>
</g>
<!-- Node0&#45;&gt;Node15 -->
<g id="edge15" class="edge">
<title>Node0&#45;&gt;Node15</title>
<path fill="none" stroke="#191970" d="M945.0019,-62.0415C1019.3202,-56.4071 1150.4159,-44.1965 1271.2063,-19.9741"/>
<polygon fill="#191970" stroke="#191970" points="1272.2682,-23.3297 1281.3676,-17.9026 1270.8699,-16.4708 1272.2682,-23.3297"/>
</g>
<!-- Node16 -->
<g id="node17" class="node">
<title>Node16</title>
<polygon fill="none" stroke="#bfbfbf" points="1349.5,-.5 1349.5,-19.5 1403.5,-19.5 1403.5,-.5 1349.5,-.5"/>
<text text-anchor="middle" x="1376.5" y="-7.5" font-family="Helvetica,sans-Serif" font-size="10.00" fill="#000000">iostream</text>
</g>
<!-- Node0&#45;&gt;Node16 -->
<g id="edge16" class="edge">
<title>Node0&#45;&gt;Node16</title>
<path fill="none" stroke="#191970" d="M945.2221,-63.2069C1030.6651,-58.4962 1192.7547,-46.9074 1339.406,-19.9192"/>
<polygon fill="#191970" stroke="#191970" points="1340.3026,-23.3123 1349.4892,-18.0343 1339.0164,-16.4314 1340.3026,-23.3123"/>
</g>
<!-- Node17 -->
<g id="node18" class="node">
<title>Node17</title>
<polygon fill="none" stroke="#bfbfbf" points="1422,-.5 1422,-19.5 1463,-19.5 1463,-.5 1422,-.5"/>
<text text-anchor="middle" x="1442.5" y="-7.5" font-family="Helvetica,sans-Serif" font-size="10.00" fill="#000000">string</text>
</g>
<!-- Node0&#45;&gt;Node17 -->
<g id="edge17" class="edge">
<title>Node0&#45;&gt;Node17</title>
<path fill="none" stroke="#191970" d="M945.1597,-62.5602C1059.7901,-55.6697 1307.9211,-39.3223 1411.8032,-19.6112"/>
<polygon fill="#191970" stroke="#191970" points="1412.5728,-23.0266 1421.6909,-17.6311 1411.1982,-16.1629 1412.5728,-23.0266"/>
</g>
<!-- Node18 -->
<g id="node19" class="node">
<title>Node18</title>
<polygon fill="none" stroke="#bfbfbf" points="1481.5,-.5 1481.5,-19.5 1525.5,-19.5 1525.5,-.5 1481.5,-.5"/>
<text text-anchor="middle" x="1503.5" y="-7.5" font-family="Helvetica,sans-Serif" font-size="10.00" fill="#000000">cmath</text>
</g>
<!-- Node0&#45;&gt;Node18 -->
<g id="edge18" class="edge">
<title>Node0&#45;&gt;Node18</title>
<path fill="none" stroke="#191970" d="M945.0038,-63.107C1069.6032,-56.7692 1355.3255,-40.6994 1471.2867,-19.7534"/>
<polygon fill="#191970" stroke="#191970" points="1472.1447,-23.153 1481.3132,-17.8437 1470.8349,-16.2766 1472.1447,-23.153"/>
</g>
<!-- Node19 -->
<g id="node20" class="node">
<title>Node19</title>
<polygon fill="none" stroke="#bfbfbf" points="1543.5,-.5 1543.5,-19.5 1593.5,-19.5 1593.5,-.5 1543.5,-.5"/>
<text text-anchor="middle" x="1568.5" y="-7.5" font-family="Helvetica,sans-Serif" font-size="10.00" fill="#000000">iomanip</text>
</g>
<!-- Node0&#45;&gt;Node19 -->
<g id="edge19" class="edge">
<title>Node0&#45;&gt;Node19</title>
<path fill="none" stroke="#191970" d="M945.2182,-63.4141C1079.8281,-57.3256 1404.5664,-41.1185 1533.3683,-19.7837"/>
<polygon fill="#191970" stroke="#191970" points="1534.1419,-23.2017 1543.3939,-18.0392 1532.9419,-16.3054 1534.1419,-23.2017"/>
</g>
<!-- Node20 -->
<g id="node21" class="node">
<title>Node20</title>
<g id="a_node21"><a xlink:href="lnInclude_2bubbleDataI_8H.html" target="_top" xlink:title="bubbleDataI.H">
<polygon fill="none" stroke="#000000" points="1611.5,-.5 1611.5,-19.5 1691.5,-19.5 1691.5,-.5 1611.5,-.5"/>
<text text-anchor="middle" x="1651.5" y="-7.5" font-family="Helvetica,sans-Serif" font-size="10.00" fill="#000000">bubbleDataI.H</text>
</a>
</g>
</g>
<!-- Node0&#45;&gt;Node20 -->
<g id="edge20" class="edge">
<title>Node0&#45;&gt;Node20</title>
<path fill="none" stroke="#191970" d="M945.2608,-64.9343C1066.9886,-62.1634 1352.5102,-52.6024 1601.5051,-19.9573"/>
<polygon fill="#191970" stroke="#191970" points="1602.0116,-23.4209 1611.4646,-18.6366 1601.0913,-16.4817 1602.0116,-23.4209"/>
</g>
</g>
</svg>
