<?xml version="1.0" encoding="UTF-8" standalone="no"?>
<!DOCTYPE svg PUBLIC "-//W3C//DTD SVG 1.1//EN"
 "http://www.w3.org/Graphics/SVG/1.1/DTD/svg11.dtd">
<!-- Generated by graphviz version 2.40.1 (20161225.0304)
 -->
<!-- Title: lnInclude/FrontTrackingCloud.C Pages: 1 -->
<svg width="2261pt" height="308pt"
 viewBox="0.00 0.00 2260.50 308.00" xmlns="http://www.w3.org/2000/svg" xmlns:xlink="http://www.w3.org/1999/xlink">
<g id="graph0" class="graph" transform="scale(1 1) rotate(0) translate(4 304)">
<title>lnInclude/FrontTrackingCloud.C</title>
<!-- Node0 -->
<g id="node1" class="node">
<title>Node0</title>
<polygon fill="#bfbfbf" stroke="#000000" points="1807.5,-280.5 1807.5,-299.5 1962.5,-299.5 1962.5,-280.5 1807.5,-280.5"/>
<text text-anchor="middle" x="1885" y="-287.5" font-family="Helvetica,sans-Serif" font-size="10.00" fill="#000000">lnInclude/FrontTrackingCloud.C</text>
</g>
<!-- Node1 -->
<g id="node2" class="node">
<title>Node1</title>
<g id="a_node2"><a xlink:href="lnInclude_2FrontTrackingCloud_8H.html" target="_top" xlink:title="FrontTrackingCloud.H">
<polygon fill="none" stroke="#000000" points="913.5,-224.5 913.5,-243.5 1026.5,-243.5 1026.5,-224.5 913.5,-224.5"/>
<text text-anchor="middle" x="970" y="-231.5" font-family="Helvetica,sans-Serif" font-size="10.00" fill="#000000">FrontTrackingCloud.H</text>
</a>
</g>
</g>
<!-- Node0&#45;&gt;Node1 -->
<g id="edge1" class="edge">
<title>Node0&#45;&gt;Node1</title>
<path fill="none" stroke="#191970" d="M1807.3823,-285.2496C1630.9207,-274.4498 1202.1476,-248.2079 1036.6796,-238.0809"/>
<polygon fill="#191970" stroke="#191970" points="1036.8325,-234.5838 1026.6373,-237.4663 1036.4048,-241.5708 1036.8325,-234.5838"/>
</g>
<!-- Node31 -->
<g id="node32" class="node">
<title>Node31</title>
<g id="a_node32"><a xlink:href="lnInclude_2FrontToFieldModel_8H.html" target="_top" xlink:title="FrontToFieldModel.H">
<polygon fill="none" stroke="#000000" points="1698,-56.5 1698,-75.5 1806,-75.5 1806,-56.5 1698,-56.5"/>
<text text-anchor="middle" x="1752" y="-63.5" font-family="Helvetica,sans-Serif" font-size="10.00" fill="#000000">FrontToFieldModel.H</text>
</a>
</g>
</g>
<!-- Node0&#45;&gt;Node31 -->
<g id="edge60" class="edge">
<title>Node0&#45;&gt;Node31</title>
<path fill="none" stroke="#191970" d="M1882.9893,-280.2032C1876.7652,-251.7369 1855.6171,-167.5366 1813,-112 1803.5411,-99.6736 1789.9664,-88.9963 1778.0231,-81.0399"/>
<polygon fill="#191970" stroke="#191970" points="1779.6214,-77.9089 1769.3031,-75.5037 1775.8694,-83.8184 1779.6214,-77.9089"/>
</g>
<!-- Node36 -->
<g id="node37" class="node">
<title>Node36</title>
<g id="a_node37"><a xlink:href="lnInclude_2SurfaceTensionModel_8H.html" target="_top" xlink:title="SurfaceTensionModel.H">
<polygon fill="none" stroke="#000000" points="1824,-56.5 1824,-75.5 1946,-75.5 1946,-56.5 1824,-56.5"/>
<text text-anchor="middle" x="1885" y="-63.5" font-family="Helvetica,sans-Serif" font-size="10.00" fill="#000000">SurfaceTensionModel.H</text>
</a>
</g>
</g>
<!-- Node0&#45;&gt;Node36 -->
<g id="edge55" class="edge">
<title>Node0&#45;&gt;Node36</title>
<path fill="none" stroke="#191970" d="M1885,-280.375C1885,-246.4851 1885,-132.2317 1885,-85.8332"/>
<polygon fill="#191970" stroke="#191970" points="1888.5001,-85.5891 1885,-75.5891 1881.5001,-85.5892 1888.5001,-85.5891"/>
</g>
<!-- Node37 -->
<g id="node38" class="node">
<title>Node37</title>
<g id="a_node38"><a xlink:href="lnInclude_2VolumeCorrectionModel_8H.html" target="_top" xlink:title="VolumeCorrectionModel.H">
<polygon fill="none" stroke="#000000" points="1964.5,-56.5 1964.5,-75.5 2095.5,-75.5 2095.5,-56.5 1964.5,-56.5"/>
<text text-anchor="middle" x="2030" y="-63.5" font-family="Helvetica,sans-Serif" font-size="10.00" fill="#000000">VolumeCorrectionModel.H</text>
</a>
</g>
</g>
<!-- Node0&#45;&gt;Node37 -->
<g id="edge61" class="edge">
<title>Node0&#45;&gt;Node37</title>
<path fill="none" stroke="#191970" d="M1891.2305,-280.375C1913.447,-246.0543 1989.0155,-129.3139 2018.2855,-84.097"/>
<polygon fill="#191970" stroke="#191970" points="2021.2968,-85.8858 2023.7927,-75.5891 2015.4205,-82.0819 2021.2968,-85.8858"/>
</g>
<!-- Node38 -->
<g id="node39" class="node">
<title>Node38</title>
<g id="a_node39"><a xlink:href="lnInclude_2UndulationRemovalModel_8H.html" target="_top" xlink:title="UndulationRemovalModel.H">
<polygon fill="none" stroke="#000000" points="2113.5,-56.5 2113.5,-75.5 2252.5,-75.5 2252.5,-56.5 2113.5,-56.5"/>
<text text-anchor="middle" x="2183" y="-63.5" font-family="Helvetica,sans-Serif" font-size="10.00" fill="#000000">UndulationRemovalModel.H</text>
</a>
</g>
</g>
<!-- Node0&#45;&gt;Node38 -->
<g id="edge66" class="edge">
<title>Node0&#45;&gt;Node38</title>
<path fill="none" stroke="#191970" d="M1897.8047,-280.375C1944.3232,-245.4081 2104.6571,-124.8886 2162.2199,-81.6199"/>
<polygon fill="#191970" stroke="#191970" points="2164.3525,-84.3955 2170.243,-75.5891 2160.1464,-78.8 2164.3525,-84.3955"/>
</g>
<!-- Node2 -->
<g id="node3" class="node">
<title>Node2</title>
<polygon fill="none" stroke="#bfbfbf" points="977.5,-168.5 977.5,-187.5 1062.5,-187.5 1062.5,-168.5 977.5,-168.5"/>
<text text-anchor="middle" x="1020" y="-175.5" font-family="Helvetica,sans-Serif" font-size="10.00" fill="#000000">volFieldsFwd.H</text>
</g>
<!-- Node1&#45;&gt;Node2 -->
<g id="edge2" class="edge">
<title>Node1&#45;&gt;Node2</title>
<path fill="none" stroke="#191970" d="M978.7093,-224.2455C985.8073,-216.2958 996.0084,-204.8706 1004.495,-195.3656"/>
<polygon fill="#191970" stroke="#191970" points="1007.3411,-197.4331 1011.3905,-187.6427 1002.1195,-192.771 1007.3411,-197.4331"/>
</g>
<!-- Node3 -->
<g id="node4" class="node">
<title>Node3</title>
<polygon fill="none" stroke="#bfbfbf" points="1119,-168.5 1119,-187.5 1211,-187.5 1211,-168.5 1119,-168.5"/>
<text text-anchor="middle" x="1165" y="-175.5" font-family="Helvetica,sans-Serif" font-size="10.00" fill="#000000">fvMatricesFwd.H</text>
</g>
<!-- Node1&#45;&gt;Node3 -->
<g id="edge3" class="edge">
<title>Node1&#45;&gt;Node3</title>
<path fill="none" stroke="#191970" d="M1003.5217,-224.3733C1036.3683,-214.9404 1086.5595,-200.5265 1122.2578,-190.2747"/>
<polygon fill="#191970" stroke="#191970" points="1123.2703,-193.6255 1131.9157,-187.5011 1121.3381,-186.8974 1123.2703,-193.6255"/>
</g>
<!-- Node4 -->
<g id="node5" class="node">
<title>Node4</title>
<polygon fill="none" stroke="#bfbfbf" points="1229.5,-168.5 1229.5,-187.5 1338.5,-187.5 1338.5,-168.5 1229.5,-168.5"/>
<text text-anchor="middle" x="1284" y="-175.5" font-family="Helvetica,sans-Serif" font-size="10.00" fill="#000000">dimensionedTypes.H</text>
</g>
<!-- Node1&#45;&gt;Node4 -->
<g id="edge4" class="edge">
<title>Node1&#45;&gt;Node4</title>
<path fill="none" stroke="#191970" d="M1023.6217,-224.4369C1078.1507,-214.712 1162.63,-199.6456 1220.4796,-189.3285"/>
<polygon fill="#191970" stroke="#191970" points="1221.3693,-192.7251 1230.5994,-187.5237 1220.1402,-185.8339 1221.3693,-192.7251"/>
</g>
<!-- Node5 -->
<g id="node6" class="node">
<title>Node5</title>
<polygon fill="none" stroke="#bfbfbf" points="891.5,-112.5 891.5,-131.5 950.5,-131.5 950.5,-112.5 891.5,-112.5"/>
<text text-anchor="middle" x="921" y="-119.5" font-family="Helvetica,sans-Serif" font-size="10.00" fill="#000000">fvMesh.H</text>
</g>
<!-- Node1&#45;&gt;Node5 -->
<g id="edge5" class="edge">
<title>Node1&#45;&gt;Node5</title>
<path fill="none" stroke="#191970" d="M1010.3623,-224.4865C1046.4896,-213.9933 1090.9237,-194.9494 1071,-168 1067.5917,-163.3899 1003.7719,-144.9432 960.4864,-132.8564"/>
<polygon fill="#191970" stroke="#191970" points="961.3555,-129.4654 950.7833,-130.1573 959.4795,-136.2093 961.3555,-129.4654"/>
</g>
<!-- Node6 -->
<g id="node7" class="node">
<title>Node6</title>
<polygon fill="none" stroke="#bfbfbf" points="713,-168.5 713,-187.5 791,-187.5 791,-168.5 713,-168.5"/>
<text text-anchor="middle" x="752" y="-175.5" font-family="Helvetica,sans-Serif" font-size="10.00" fill="#000000">fluidThermo.H</text>
</g>
<!-- Node1&#45;&gt;Node6 -->
<g id="edge6" class="edge">
<title>Node1&#45;&gt;Node6</title>
<path fill="none" stroke="#191970" d="M932.5245,-224.3733C895.4897,-214.8598 838.7318,-200.2797 798.7639,-190.0127"/>
<polygon fill="#191970" stroke="#191970" points="799.5429,-186.5993 788.9865,-187.5011 797.8012,-193.3792 799.5429,-186.5993"/>
</g>
<!-- Node7 -->
<g id="node8" class="node">
<title>Node7</title>
<polygon fill="none" stroke="#bfbfbf" points="809.5,-168.5 809.5,-187.5 862.5,-187.5 862.5,-168.5 809.5,-168.5"/>
<text text-anchor="middle" x="836" y="-175.5" font-family="Helvetica,sans-Serif" font-size="10.00" fill="#000000">Cloud.H</text>
</g>
<!-- Node1&#45;&gt;Node7 -->
<g id="edge7" class="edge">
<title>Node1&#45;&gt;Node7</title>
<path fill="none" stroke="#191970" d="M946.9646,-224.3733C925.2612,-215.3032 892.5382,-201.6279 868.245,-191.4755"/>
<polygon fill="#191970" stroke="#191970" points="869.3111,-188.1278 858.7348,-187.5011 866.6119,-194.5865 869.3111,-188.1278"/>
</g>
<!-- Node8 -->
<g id="node9" class="node">
<title>Node8</title>
<g id="a_node9"><a xlink:href="lnInclude_2bubbleData_8H.html" target="_top" xlink:title="bubbleData.H">
<polygon fill="none" stroke="#000000" points="579.5,-168.5 579.5,-187.5 656.5,-187.5 656.5,-168.5 579.5,-168.5"/>
<text text-anchor="middle" x="618" y="-175.5" font-family="Helvetica,sans-Serif" font-size="10.00" fill="#000000">bubbleData.H</text>
</a>
</g>
</g>
<!-- Node1&#45;&gt;Node8 -->
<g id="edge8" class="edge">
<title>Node1&#45;&gt;Node8</title>
<path fill="none" stroke="#191970" d="M913.4209,-225.8779C853.2245,-217.1004 755.2511,-202.4248 671,-188 669.5579,-187.7531 668.0944,-187.4991 666.6175,-187.2397"/>
<polygon fill="#191970" stroke="#191970" points="667.2212,-183.7922 656.76,-185.4698 665.984,-190.6821 667.2212,-183.7922"/>
</g>
<!-- Node9 -->
<g id="node10" class="node">
<title>Node9</title>
<polygon fill="none" stroke="#bfbfbf" points="969,-112.5 969,-131.5 1035,-131.5 1035,-112.5 969,-112.5"/>
<text text-anchor="middle" x="1002" y="-119.5" font-family="Helvetica,sans-Serif" font-size="10.00" fill="#000000">fileName.H</text>
</g>
<!-- Node1&#45;&gt;Node9 -->
<g id="edge29" class="edge">
<title>Node1&#45;&gt;Node9</title>
<path fill="none" stroke="#191970" d="M1026.5349,-231.1684C1126.542,-225.5768 1326.1286,-211.5728 1347,-188 1352.8925,-181.3448 1352.903,-174.6458 1347,-168 1303.9053,-119.482 1126.9217,-141.7319 1045.7333,-131.8536"/>
<polygon fill="#191970" stroke="#191970" points="1045.8034,-128.3257 1035.3978,-130.3195 1044.7755,-135.2499 1045.8034,-128.3257"/>
</g>
<!-- Node10 -->
<g id="node11" class="node">
<title>Node10</title>
<polygon fill="none" stroke="#bfbfbf" points="1053.5,-112.5 1053.5,-131.5 1122.5,-131.5 1122.5,-112.5 1053.5,-112.5"/>
<text text-anchor="middle" x="1088" y="-119.5" font-family="Helvetica,sans-Serif" font-size="10.00" fill="#000000">pointField.H</text>
</g>
<!-- Node1&#45;&gt;Node10 -->
<g id="edge30" class="edge">
<title>Node1&#45;&gt;Node10</title>
<path fill="none" stroke="#191970" d="M1026.6319,-231.483C1130.288,-226.2916 1341.9654,-212.7568 1364,-188 1369.9097,-181.3602 1369.7835,-174.7501 1364,-168 1331.7783,-130.3928 1197.8655,-140.5623 1132.4279,-131.6867"/>
<polygon fill="#191970" stroke="#191970" points="1132.9699,-128.229 1122.5395,-130.0884 1131.853,-135.1393 1132.9699,-128.229"/>
</g>
<!-- Node11 -->
<g id="node12" class="node">
<title>Node11</title>
<polygon fill="none" stroke="#bfbfbf" points="1141,-112.5 1141,-131.5 1189,-131.5 1189,-112.5 1141,-112.5"/>
<text text-anchor="middle" x="1165" y="-119.5" font-family="Helvetica,sans-Serif" font-size="10.00" fill="#000000">point.H</text>
</g>
<!-- Node1&#45;&gt;Node11 -->
<g id="edge31" class="edge">
<title>Node1&#45;&gt;Node11</title>
<path fill="none" stroke="#191970" d="M1026.5597,-231.78C1133.7269,-226.9897 1357.7863,-213.9568 1381,-188 1421.0666,-143.1989 1449.3538,-193.5118 1198.8745,-132.0263"/>
<polygon fill="#191970" stroke="#191970" points="1199.6214,-128.6056 1189.0732,-129.5986 1197.9384,-135.4003 1199.6214,-128.6056"/>
</g>
<!-- Node12 -->
<g id="node13" class="node">
<title>Node12</title>
<polygon fill="none" stroke="#bfbfbf" points="1207,-112.5 1207,-131.5 1263,-131.5 1263,-112.5 1207,-112.5"/>
<text text-anchor="middle" x="1235" y="-119.5" font-family="Helvetica,sans-Serif" font-size="10.00" fill="#000000">DLList.H</text>
</g>
<!-- Node1&#45;&gt;Node12 -->
<g id="edge32" class="edge">
<title>Node1&#45;&gt;Node12</title>
<path fill="none" stroke="#191970" d="M1026.7706,-232.192C1139.5007,-228.0149 1382.9297,-215.8412 1408,-188 1471.9896,-116.9381 1536.1661,-200.9841 1273.1781,-132.2766"/>
<polygon fill="#191970" stroke="#191970" points="1273.8402,-128.8315 1263.2777,-129.6588 1272.0507,-135.5989 1273.8402,-128.8315"/>
</g>
<!-- Node13 -->
<g id="node14" class="node">
<title>Node13</title>
<polygon fill="none" stroke="#bfbfbf" points="1281.5,-112.5 1281.5,-131.5 1366.5,-131.5 1366.5,-112.5 1281.5,-112.5"/>
<text text-anchor="middle" x="1324" y="-119.5" font-family="Helvetica,sans-Serif" font-size="10.00" fill="#000000">sphereToCell.H</text>
</g>
<!-- Node1&#45;&gt;Node13 -->
<g id="edge33" class="edge">
<title>Node1&#45;&gt;Node13</title>
<path fill="none" stroke="#191970" d="M1026.5175,-232.5597C1144.2435,-228.9748 1407.0998,-217.6989 1434,-188 1456.371,-163.3015 1415.012,-144.9276 1376.7793,-133.9227"/>
<polygon fill="#191970" stroke="#191970" points="1377.2216,-130.415 1366.6522,-131.1497 1375.3728,-137.1665 1377.2216,-130.415"/>
</g>
<!-- Node14 -->
<g id="node15" class="node">
<title>Node14</title>
<polygon fill="none" stroke="#bfbfbf" points="1384.5,-112.5 1384.5,-131.5 1441.5,-131.5 1441.5,-112.5 1384.5,-112.5"/>
<text text-anchor="middle" x="1413" y="-119.5" font-family="Helvetica,sans-Serif" font-size="10.00" fill="#000000">cellSet.H</text>
</g>
<!-- Node1&#45;&gt;Node14 -->
<g id="edge34" class="edge">
<title>Node1&#45;&gt;Node14</title>
<path fill="none" stroke="#191970" d="M1026.8617,-232.7763C1148.2177,-229.576 1423.8684,-218.9442 1452,-188 1465.6469,-172.9887 1449.2154,-152.4544 1433.6863,-138.2962"/>
<polygon fill="#191970" stroke="#191970" points="1435.6794,-135.3945 1425.8119,-131.5367 1431.1199,-140.7059 1435.6794,-135.3945"/>
</g>
<!-- Node15 -->
<g id="node16" class="node">
<title>Node15</title>
<polygon fill="none" stroke="#bfbfbf" points="1459.5,-112.5 1459.5,-131.5 1542.5,-131.5 1542.5,-112.5 1459.5,-112.5"/>
<text text-anchor="middle" x="1501" y="-119.5" font-family="Helvetica,sans-Serif" font-size="10.00" fill="#000000">simpleMatrix.H</text>
</g>
<!-- Node1&#45;&gt;Node15 -->
<g id="edge35" class="edge">
<title>Node1&#45;&gt;Node15</title>
<path fill="none" stroke="#191970" d="M1026.5143,-231.8956C1149.4991,-226.8749 1433.2819,-212.7327 1469,-188 1484.501,-177.2665 1492.7758,-156.8711 1496.9979,-141.5806"/>
<polygon fill="#191970" stroke="#191970" points="1500.4723,-142.1007 1499.4014,-131.5601 1493.6654,-140.4679 1500.4723,-142.1007"/>
</g>
<!-- Node16 -->
<g id="node17" class="node">
<title>Node16</title>
<polygon fill="none" stroke="#bfbfbf" points="1560.5,-112.5 1560.5,-131.5 1691.5,-131.5 1691.5,-112.5 1560.5,-112.5"/>
<text text-anchor="middle" x="1626" y="-119.5" font-family="Helvetica,sans-Serif" font-size="10.00" fill="#000000">mathematicalConstants.H</text>
</g>
<!-- Node1&#45;&gt;Node16 -->
<g id="edge36" class="edge">
<title>Node1&#45;&gt;Node16</title>
<path fill="none" stroke="#191970" d="M1026.6478,-231.6432C1143.1048,-226.3682 1405.7017,-212.142 1492,-188 1532.9258,-176.551 1576.3653,-152.7147 1602.3298,-137.0417"/>
<polygon fill="#191970" stroke="#191970" points="1604.3786,-139.8909 1611.068,-131.6749 1600.7151,-133.9261 1604.3786,-139.8909"/>
</g>
<!-- Node17 -->
<g id="node18" class="node">
<title>Node17</title>
<polygon fill="none" stroke="#bfbfbf" points="0,-112.5 0,-131.5 56,-131.5 56,-112.5 0,-112.5"/>
<text text-anchor="middle" x="28" y="-119.5" font-family="Helvetica,sans-Serif" font-size="10.00" fill="#000000">fvCFD.H</text>
</g>
<!-- Node1&#45;&gt;Node17 -->
<g id="edge37" class="edge">
<title>Node1&#45;&gt;Node17</title>
<path fill="none" stroke="#191970" d="M913.4068,-232.1819C765.3315,-227.1452 369.0183,-211.7935 240,-188 175.3861,-176.0839 102.8338,-150.7778 61.5571,-135.1944"/>
<polygon fill="#191970" stroke="#191970" points="62.5976,-131.8453 52.0069,-131.5509 60.1025,-138.3855 62.5976,-131.8453"/>
</g>
<!-- Node18 -->
<g id="node19" class="node">
<title>Node18</title>
<polygon fill="none" stroke="#bfbfbf" points="74,-112.5 74,-131.5 140,-131.5 140,-112.5 74,-112.5"/>
<text text-anchor="middle" x="107" y="-119.5" font-family="Helvetica,sans-Serif" font-size="10.00" fill="#000000">IFstream.H</text>
</g>
<!-- Node1&#45;&gt;Node18 -->
<g id="edge38" class="edge">
<title>Node1&#45;&gt;Node18</title>
<path fill="none" stroke="#191970" d="M913.402,-231.6329C777.3211,-225.6753 434.7429,-209.0237 322,-188 256.6155,-175.8075 183.0511,-150.6184 141.1426,-135.1272"/>
<polygon fill="#191970" stroke="#191970" points="142.2868,-131.8185 131.6942,-131.6002 139.8387,-138.3765 142.2868,-131.8185"/>
</g>
<!-- Node19 -->
<g id="node20" class="node">
<title>Node19</title>
<polygon fill="none" stroke="#bfbfbf" points="158.5,-112.5 158.5,-131.5 229.5,-131.5 229.5,-112.5 158.5,-112.5"/>
<text text-anchor="middle" x="194" y="-119.5" font-family="Helvetica,sans-Serif" font-size="10.00" fill="#000000">OFstream.H</text>
</g>
<!-- Node1&#45;&gt;Node19 -->
<g id="edge39" class="edge">
<title>Node1&#45;&gt;Node19</title>
<path fill="none" stroke="#191970" d="M913.158,-231.0753C789.0454,-224.4186 497.1494,-207.2174 400,-188 337.5089,-175.6385 267.3894,-150.682 227.1864,-135.2485"/>
<polygon fill="#191970" stroke="#191970" points="228.2217,-131.8961 217.6327,-131.5434 225.6906,-138.4225 228.2217,-131.8961"/>
</g>
<!-- Node20 -->
<g id="node21" class="node">
<title>Node20</title>
<polygon fill="none" stroke="#bfbfbf" points="247.5,-112.5 247.5,-131.5 334.5,-131.5 334.5,-112.5 247.5,-112.5"/>
<text text-anchor="middle" x="291" y="-119.5" font-family="Helvetica,sans-Serif" font-size="10.00" fill="#000000">IStringStream.H</text>
</g>
<!-- Node1&#45;&gt;Node20 -->
<g id="edge40" class="edge">
<title>Node1&#45;&gt;Node20</title>
<path fill="none" stroke="#191970" d="M913.1158,-230.6929C800.1874,-223.8146 551.4087,-207.0152 468,-188 414.4509,-175.7921 355.2166,-151.3121 320.6513,-135.8404"/>
<polygon fill="#191970" stroke="#191970" points="321.7187,-132.4816 311.1656,-131.5425 318.8297,-138.8577 321.7187,-132.4816"/>
</g>
<!-- Node21 -->
<g id="node22" class="node">
<title>Node21</title>
<polygon fill="none" stroke="#bfbfbf" points="353,-112.5 353,-131.5 445,-131.5 445,-112.5 353,-112.5"/>
<text text-anchor="middle" x="399" y="-119.5" font-family="Helvetica,sans-Serif" font-size="10.00" fill="#000000">OStringStream.H</text>
</g>
<!-- Node1&#45;&gt;Node21 -->
<g id="edge41" class="edge">
<title>Node1&#45;&gt;Node21</title>
<path fill="none" stroke="#191970" d="M913.3407,-231.2032C808.3872,-225.5396 587.7986,-211.2409 515,-188 479.304,-176.6041 442.4161,-153.268 420.0871,-137.6249"/>
<polygon fill="#191970" stroke="#191970" points="421.8984,-134.6174 411.7281,-131.6486 417.8272,-140.3118 421.8984,-134.6174"/>
</g>
<!-- Node22 -->
<g id="node23" class="node">
<title>Node22</title>
<polygon fill="none" stroke="#bfbfbf" points="463,-112.5 463,-131.5 513,-131.5 513,-112.5 463,-112.5"/>
<text text-anchor="middle" x="488" y="-119.5" font-family="Helvetica,sans-Serif" font-size="10.00" fill="#000000">fstream</text>
</g>
<!-- Node1&#45;&gt;Node22 -->
<g id="edge42" class="edge">
<title>Node1&#45;&gt;Node22</title>
<path fill="none" stroke="#191970" d="M913.374,-233.1793C812.1229,-230.8567 604.7676,-221.9702 542,-188 522.1603,-177.2626 506.8072,-155.9248 497.6286,-140.4097"/>
<polygon fill="#191970" stroke="#191970" points="500.6638,-138.6664 492.7265,-131.6486 494.555,-142.0845 500.6638,-138.6664"/>
</g>
<!-- Node23 -->
<g id="node24" class="node">
<title>Node23</title>
<polygon fill="none" stroke="#bfbfbf" points="531,-112.5 531,-131.5 585,-131.5 585,-112.5 531,-112.5"/>
<text text-anchor="middle" x="558" y="-119.5" font-family="Helvetica,sans-Serif" font-size="10.00" fill="#000000">iostream</text>
</g>
<!-- Node1&#45;&gt;Node23 -->
<g id="edge43" class="edge">
<title>Node1&#45;&gt;Node23</title>
<path fill="none" stroke="#191970" d="M913.4559,-231.8786C805.0642,-227.228 576.6301,-214.3801 553,-188 541.8947,-175.6023 544.9567,-156.1055 549.7095,-141.5117"/>
<polygon fill="#191970" stroke="#191970" points="553.0705,-142.5158 553.2906,-131.9233 546.513,-140.0666 553.0705,-142.5158"/>
</g>
<!-- Node24 -->
<g id="node25" class="node">
<title>Node24</title>
<polygon fill="none" stroke="#bfbfbf" points="603.5,-112.5 603.5,-131.5 644.5,-131.5 644.5,-112.5 603.5,-112.5"/>
<text text-anchor="middle" x="624" y="-119.5" font-family="Helvetica,sans-Serif" font-size="10.00" fill="#000000">string</text>
</g>
<!-- Node1&#45;&gt;Node24 -->
<g id="edge44" class="edge">
<title>Node1&#45;&gt;Node24</title>
<path fill="none" stroke="#191970" d="M913.4398,-231.73C806.8912,-226.8697 585.0062,-213.7458 562,-188 545.9089,-169.9928 571.451,-149.8326 594.457,-136.5866"/>
<polygon fill="#191970" stroke="#191970" points="596.2922,-139.5721 603.3812,-131.6984 592.9293,-133.4328 596.2922,-139.5721"/>
</g>
<!-- Node25 -->
<g id="node26" class="node">
<title>Node25</title>
<polygon fill="none" stroke="#bfbfbf" points="663,-112.5 663,-131.5 707,-131.5 707,-112.5 663,-112.5"/>
<text text-anchor="middle" x="685" y="-119.5" font-family="Helvetica,sans-Serif" font-size="10.00" fill="#000000">cmath</text>
</g>
<!-- Node1&#45;&gt;Node25 -->
<g id="edge45" class="edge">
<title>Node1&#45;&gt;Node25</title>
<path fill="none" stroke="#191970" d="M913.3266,-231.5875C808.3972,-226.5359 592.4455,-213.1747 570,-188 564.0845,-181.3653 565.0166,-175.3606 570,-168 574.9573,-160.6779 621.0195,-143.7749 653.319,-132.6255"/>
<polygon fill="#191970" stroke="#191970" points="654.5123,-135.9164 662.8403,-129.367 652.2457,-129.2935 654.5123,-135.9164"/>
</g>
<!-- Node26 -->
<g id="node27" class="node">
<title>Node26</title>
<polygon fill="none" stroke="#bfbfbf" points="823,-112.5 823,-131.5 873,-131.5 873,-112.5 823,-112.5"/>
<text text-anchor="middle" x="848" y="-119.5" font-family="Helvetica,sans-Serif" font-size="10.00" fill="#000000">iomanip</text>
</g>
<!-- Node1&#45;&gt;Node26 -->
<g id="edge46" class="edge">
<title>Node1&#45;&gt;Node26</title>
<path fill="none" stroke="#191970" d="M913.3898,-232.4513C843.3824,-229.2037 730.2223,-219.1462 704,-188 698.2751,-181.2001 698.7574,-175.1783 704,-168 705.6793,-165.7007 771.2879,-145.3702 813.3577,-132.5182"/>
<polygon fill="#191970" stroke="#191970" points="814.4328,-135.8495 822.9768,-129.5845 812.3907,-129.154 814.4328,-135.8495"/>
</g>
<!-- Node28 -->
<g id="node29" class="node">
<title>Node28</title>
<polygon fill="none" stroke="#bfbfbf" points="880.5,-168.5 880.5,-187.5 959.5,-187.5 959.5,-168.5 880.5,-168.5"/>
<text text-anchor="middle" x="920" y="-175.5" font-family="Helvetica,sans-Serif" font-size="10.00" fill="#000000">UDictionary.H</text>
</g>
<!-- Node1&#45;&gt;Node28 -->
<g id="edge47" class="edge">
<title>Node1&#45;&gt;Node28</title>
<path fill="none" stroke="#191970" d="M961.2907,-224.2455C954.1927,-216.2958 943.9916,-204.8706 935.505,-195.3656"/>
<polygon fill="#191970" stroke="#191970" points="937.8805,-192.771 928.6095,-187.6427 932.6589,-197.4331 937.8805,-192.771"/>
</g>
<!-- Node29 -->
<g id="node30" class="node">
<title>Node29</title>
<g id="a_node30"><a xlink:href="lnInclude_2FrontTrackingCloudI_8H.html" target="_top" xlink:title="FrontTrackingCloudI.H">
<polygon fill="none" stroke="#000000" points="1684,-168.5 1684,-187.5 1800,-187.5 1800,-168.5 1684,-168.5"/>
<text text-anchor="middle" x="1742" y="-175.5" font-family="Helvetica,sans-Serif" font-size="10.00" fill="#000000">FrontTrackingCloudI.H</text>
</a>
</g>
</g>
<!-- Node1&#45;&gt;Node29 -->
<g id="edge48" class="edge">
<title>Node1&#45;&gt;Node29</title>
<path fill="none" stroke="#191970" d="M1026.6698,-230.8606C1143.0249,-224.258 1417.2547,-207.8902 1647,-188 1655.6433,-187.2517 1664.721,-186.3917 1673.6948,-185.4968"/>
<polygon fill="#191970" stroke="#191970" points="1674.1582,-188.9678 1683.7536,-184.4757 1673.4512,-182.0036 1674.1582,-188.9678"/>
</g>
<!-- Node8&#45;&gt;Node5 -->
<g id="edge9" class="edge">
<title>Node8&#45;&gt;Node5</title>
<path fill="none" stroke="#191970" d="M656.6579,-172.238C706.3469,-164.6182 795.4734,-150.231 881.3361,-132.0091"/>
<polygon fill="#191970" stroke="#191970" points="882.2019,-135.4031 891.2465,-129.8854 880.7351,-128.5585 882.2019,-135.4031"/>
</g>
<!-- Node8&#45;&gt;Node9 -->
<g id="edge10" class="edge">
<title>Node8&#45;&gt;Node9</title>
<path fill="none" stroke="#191970" d="M656.5101,-173.271C729.3982,-164.2471 885.9614,-144.497 958.6364,-131.8728"/>
<polygon fill="#191970" stroke="#191970" points="959.5044,-135.2731 968.7303,-130.0641 958.2697,-128.3829 959.5044,-135.2731"/>
</g>
<!-- Node8&#45;&gt;Node10 -->
<g id="edge11" class="edge">
<title>Node8&#45;&gt;Node10</title>
<path fill="none" stroke="#191970" d="M656.52,-173.4355C671.3566,-171.6998 688.4632,-169.7258 704,-168 851.7822,-151.5847 892.3647,-156.6489 1043.3798,-131.9205"/>
<polygon fill="#191970" stroke="#191970" points="1044.1943,-135.3334 1053.4889,-130.2481 1043.0517,-128.4273 1044.1943,-135.3334"/>
</g>
<!-- Node8&#45;&gt;Node11 -->
<g id="edge12" class="edge">
<title>Node8&#45;&gt;Node11</title>
<path fill="none" stroke="#191970" d="M656.5014,-173.2597C671.3358,-171.5024 688.4456,-169.5596 704,-168 890.2623,-149.3237 942.0417,-166.4419 1130.6652,-131.6695"/>
<polygon fill="#191970" stroke="#191970" points="1131.4423,-135.0849 1140.6296,-129.8082 1130.1569,-128.204 1131.4423,-135.0849"/>
</g>
<!-- Node8&#45;&gt;Node12 -->
<g id="edge13" class="edge">
<title>Node8&#45;&gt;Node12</title>
<path fill="none" stroke="#191970" d="M656.9208,-173.1151C671.6545,-171.3605 688.5866,-169.4571 704,-168 919.8433,-147.5958 979.1874,-168.2421 1196.6994,-131.9214"/>
<polygon fill="#191970" stroke="#191970" points="1197.5655,-135.3247 1206.8417,-130.206 1196.3981,-128.4227 1197.5655,-135.3247"/>
</g>
<!-- Node8&#45;&gt;Node13 -->
<g id="edge14" class="edge">
<title>Node8&#45;&gt;Node13</title>
<path fill="none" stroke="#191970" d="M656.9136,-173.0371C671.6465,-171.2734 688.5799,-169.3842 704,-168 952.6165,-145.6823 1019.3248,-163.4663 1271.0321,-131.9614"/>
<polygon fill="#191970" stroke="#191970" points="1271.7388,-135.3999 1281.2202,-130.6721 1270.8599,-128.4553 1271.7388,-135.3999"/>
</g>
<!-- Node8&#45;&gt;Node14 -->
<g id="edge15" class="edge">
<title>Node8&#45;&gt;Node14</title>
<path fill="none" stroke="#191970" d="M656.9066,-172.957C671.6387,-171.184 688.5734,-169.3094 704,-168 998.239,-143.0242 1078.1627,-177.4523 1374.3227,-131.7548"/>
<polygon fill="#191970" stroke="#191970" points="1375.1578,-135.167 1384.4983,-130.1665 1374.0782,-128.2507 1375.1578,-135.167"/>
</g>
<!-- Node8&#45;&gt;Node15 -->
<g id="edge16" class="edge">
<title>Node8&#45;&gt;Node15</title>
<path fill="none" stroke="#191970" d="M656.9029,-172.9125C671.6345,-171.1344 688.5699,-169.2679 704,-168 1031.434,-141.0935 1118.7001,-171.4067 1448.986,-131.9323"/>
<polygon fill="#191970" stroke="#191970" points="1449.8222,-135.3569 1459.3303,-130.6828 1448.9827,-128.4074 1449.8222,-135.3569"/>
</g>
<!-- Node8&#45;&gt;Node16 -->
<g id="edge17" class="edge">
<title>Node8&#45;&gt;Node16</title>
<path fill="none" stroke="#191970" d="M656.8991,-172.865C671.6302,-171.0814 688.5663,-169.2236 704,-168 1076.3044,-138.4823 1173.9476,-164.4668 1550.1145,-131.9938"/>
<polygon fill="#191970" stroke="#191970" points="1550.5286,-135.471 1560.187,-131.1161 1549.9209,-128.4975 1550.5286,-135.471"/>
</g>
<!-- Node8&#45;&gt;Node17 -->
<g id="edge18" class="edge">
<title>Node8&#45;&gt;Node17</title>
<path fill="none" stroke="#191970" d="M579.4797,-177.1891C490.521,-174.8059 263.8993,-165.8127 66.153,-131.9138"/>
<polygon fill="#191970" stroke="#191970" points="66.6155,-128.4418 56.1635,-130.1756 65.4155,-135.3381 66.6155,-128.4418"/>
</g>
<!-- Node8&#45;&gt;Node18 -->
<g id="edge19" class="edge">
<title>Node8&#45;&gt;Node18</title>
<path fill="none" stroke="#191970" d="M579.4674,-175.9991C500.6796,-171.5261 315.3682,-159.0518 150.7017,-132.0944"/>
<polygon fill="#191970" stroke="#191970" points="150.8252,-128.567 140.387,-130.382 149.6788,-135.4725 150.8252,-128.567"/>
</g>
<!-- Node8&#45;&gt;Node19 -->
<g id="edge20" class="edge">
<title>Node8&#45;&gt;Node19</title>
<path fill="none" stroke="#191970" d="M579.2402,-174.6382C512.0381,-168.5215 369.3924,-154.2695 240.0387,-132.2279"/>
<polygon fill="#191970" stroke="#191970" points="240.4069,-128.7399 229.9576,-130.4894 239.2173,-135.638 240.4069,-128.7399"/>
</g>
<!-- Node8&#45;&gt;Node20 -->
<g id="edge21" class="edge">
<title>Node8&#45;&gt;Node20</title>
<path fill="none" stroke="#191970" d="M579.3877,-171.7693C528.2191,-163.4572 434.8717,-148.102 344.7762,-132.1106"/>
<polygon fill="#191970" stroke="#191970" points="345.1186,-128.6166 334.66,-130.3099 343.8918,-135.5083 345.1186,-128.6166"/>
</g>
<!-- Node8&#45;&gt;Node21 -->
<g id="edge22" class="edge">
<title>Node8&#45;&gt;Node21</title>
<path fill="none" stroke="#191970" d="M580.3526,-168.3733C543.148,-158.8598 486.1297,-144.2797 445.9784,-134.0127"/>
<polygon fill="#191970" stroke="#191970" points="446.7116,-130.5877 436.1562,-131.5011 444.9773,-137.3695 446.7116,-130.5877"/>
</g>
<!-- Node8&#45;&gt;Node22 -->
<g id="edge23" class="edge">
<title>Node8&#45;&gt;Node22</title>
<path fill="none" stroke="#191970" d="M595.6522,-168.3733C574.5967,-159.3032 542.8505,-145.6279 519.2825,-135.4755"/>
<polygon fill="#191970" stroke="#191970" points="520.625,-132.243 510.0562,-131.5011 517.8556,-138.6719 520.625,-132.243"/>
</g>
<!-- Node8&#45;&gt;Node23 -->
<g id="edge24" class="edge">
<title>Node8&#45;&gt;Node23</title>
<path fill="none" stroke="#191970" d="M607.5488,-168.2455C598.7731,-160.0549 586.0446,-148.1749 575.686,-138.5069"/>
<polygon fill="#191970" stroke="#191970" points="578.0301,-135.9072 568.3314,-131.6427 573.2539,-141.0246 578.0301,-135.9072"/>
</g>
<!-- Node8&#45;&gt;Node24 -->
<g id="edge25" class="edge">
<title>Node8&#45;&gt;Node24</title>
<path fill="none" stroke="#191970" d="M619.0451,-168.2455C619.828,-160.9382 620.9256,-150.6944 621.8888,-141.7046"/>
<polygon fill="#191970" stroke="#191970" points="625.3815,-141.9587 622.9669,-131.6427 618.4214,-141.2129 625.3815,-141.9587"/>
</g>
<!-- Node8&#45;&gt;Node25 -->
<g id="edge26" class="edge">
<title>Node8&#45;&gt;Node25</title>
<path fill="none" stroke="#191970" d="M629.6705,-168.2455C639.5661,-159.9746 653.9627,-147.9416 665.5901,-138.2232"/>
<polygon fill="#191970" stroke="#191970" points="668.035,-140.7413 673.4632,-131.6427 663.5458,-135.3703 668.035,-140.7413"/>
</g>
<!-- Node8&#45;&gt;Node26 -->
<g id="edge27" class="edge">
<title>Node8&#45;&gt;Node26</title>
<path fill="none" stroke="#191970" d="M656.8341,-169.5537C694.4005,-161.2351 753.1549,-147.8365 812.8226,-132.2127"/>
<polygon fill="#191970" stroke="#191970" points="814.0159,-135.5177 822.7927,-129.5832 812.2307,-128.7492 814.0159,-135.5177"/>
</g>
<!-- Node27 -->
<g id="node28" class="node">
<title>Node27</title>
<g id="a_node28"><a xlink:href="lnInclude_2bubbleDataI_8H.html" target="_top" xlink:title="bubbleDataI.H">
<polygon fill="none" stroke="#000000" points="725,-112.5 725,-131.5 805,-131.5 805,-112.5 725,-112.5"/>
<text text-anchor="middle" x="765" y="-119.5" font-family="Helvetica,sans-Serif" font-size="10.00" fill="#000000">bubbleDataI.H</text>
</a>
</g>
</g>
<!-- Node8&#45;&gt;Node27 -->
<g id="edge28" class="edge">
<title>Node8&#45;&gt;Node27</title>
<path fill="none" stroke="#191970" d="M643.2702,-168.3733C667.3966,-159.1822 703.9362,-145.2624 730.6877,-135.0713"/>
<polygon fill="#191970" stroke="#191970" points="731.9607,-138.3318 740.0596,-131.5011 729.4687,-131.7904 731.9607,-138.3318"/>
</g>
<!-- Node30 -->
<g id="node31" class="node">
<title>Node30</title>
<g id="a_node31"><a xlink:href="lnInclude_2NoFrontToField_8H.html" target="_top" xlink:title="NoFrontToField.H">
<polygon fill="none" stroke="#000000" points="1709.5,-112.5 1709.5,-131.5 1804.5,-131.5 1804.5,-112.5 1709.5,-112.5"/>
<text text-anchor="middle" x="1757" y="-119.5" font-family="Helvetica,sans-Serif" font-size="10.00" fill="#000000">NoFrontToField.H</text>
</a>
</g>
</g>
<!-- Node29&#45;&gt;Node30 -->
<g id="edge49" class="edge">
<title>Node29&#45;&gt;Node30</title>
<path fill="none" stroke="#191970" d="M1744.6128,-168.2455C1746.5916,-160.8579 1749.3744,-150.4689 1751.8012,-141.4087"/>
<polygon fill="#191970" stroke="#191970" points="1755.2105,-142.2078 1754.4171,-131.6427 1748.4489,-140.3966 1755.2105,-142.2078"/>
</g>
<!-- Node30&#45;&gt;Node31 -->
<g id="edge50" class="edge">
<title>Node30&#45;&gt;Node31</title>
<path fill="none" stroke="#191970" d="M1756.1291,-112.2455C1755.4766,-104.9382 1754.562,-94.6944 1753.7593,-85.7046"/>
<polygon fill="#191970" stroke="#191970" points="1757.2365,-85.2918 1752.861,-75.6427 1750.2642,-85.9143 1757.2365,-85.2918"/>
</g>
<!-- Node32 -->
<g id="node33" class="node">
<title>Node32</title>
<polygon fill="none" stroke="#bfbfbf" points="1982,-.5 1982,-19.5 2062,-19.5 2062,-.5 1982,-.5"/>
<text text-anchor="middle" x="2022" y="-7.5" font-family="Helvetica,sans-Serif" font-size="10.00" fill="#000000">IOdictionary.H</text>
</g>
<!-- Node31&#45;&gt;Node32 -->
<g id="edge51" class="edge">
<title>Node31&#45;&gt;Node32</title>
<path fill="none" stroke="#191970" d="M1798.1079,-56.4369C1846.4393,-46.4126 1922.1344,-30.7129 1971.9082,-20.3894"/>
<polygon fill="#191970" stroke="#191970" points="1972.7282,-23.7939 1981.809,-18.3359 1971.3065,-16.9398 1972.7282,-23.7939"/>
</g>
<!-- Node33 -->
<g id="node34" class="node">
<title>Node33</title>
<polygon fill="none" stroke="#bfbfbf" points="2080.5,-.5 2080.5,-19.5 2139.5,-19.5 2139.5,-.5 2080.5,-.5"/>
<text text-anchor="middle" x="2110" y="-7.5" font-family="Helvetica,sans-Serif" font-size="10.00" fill="#000000">autoPtr.H</text>
</g>
<!-- Node31&#45;&gt;Node33 -->
<g id="edge52" class="edge">
<title>Node31&#45;&gt;Node33</title>
<path fill="none" stroke="#191970" d="M1806.2867,-57.3206C1809.2333,-56.869 1812.1524,-56.4262 1815,-56 1925.4136,-39.4749 1956.5411,-42.1322 2070.1221,-19.9876"/>
<polygon fill="#191970" stroke="#191970" points="2071.1335,-23.3556 2080.2674,-17.987 2069.7792,-16.4879 2071.1335,-23.3556"/>
</g>
<!-- Node34 -->
<g id="node35" class="node">
<title>Node34</title>
<polygon fill="none" stroke="#bfbfbf" points="1694,-.5 1694,-19.5 1826,-19.5 1826,-.5 1694,-.5"/>
<text text-anchor="middle" x="1760" y="-7.5" font-family="Helvetica,sans-Serif" font-size="10.00" fill="#000000">runTimeSelectionTables.H</text>
</g>
<!-- Node31&#45;&gt;Node34 -->
<g id="edge53" class="edge">
<title>Node31&#45;&gt;Node34</title>
<path fill="none" stroke="#191970" d="M1753.3935,-56.2455C1754.4374,-48.9382 1755.9008,-38.6944 1757.1851,-29.7046"/>
<polygon fill="#191970" stroke="#191970" points="1760.673,-30.0372 1758.6225,-19.6427 1753.7434,-29.0472 1760.673,-30.0372"/>
</g>
<!-- Node35 -->
<g id="node36" class="node">
<title>Node35</title>
<polygon fill="none" stroke="#bfbfbf" points="1844.5,-.5 1844.5,-19.5 1963.5,-19.5 1963.5,-.5 1844.5,-.5"/>
<text text-anchor="middle" x="1904" y="-7.5" font-family="Helvetica,sans-Serif" font-size="10.00" fill="#000000">CloudSubModelBase.H</text>
</g>
<!-- Node31&#45;&gt;Node35 -->
<g id="edge54" class="edge">
<title>Node31&#45;&gt;Node35</title>
<path fill="none" stroke="#191970" d="M1778.1297,-56.3733C1803.0768,-47.1822 1840.8592,-33.2624 1868.5206,-23.0713"/>
<polygon fill="#191970" stroke="#191970" points="1870.0378,-26.2424 1878.2112,-19.5011 1867.6178,-19.674 1870.0378,-26.2424"/>
</g>
<!-- Node36&#45;&gt;Node32 -->
<g id="edge56" class="edge">
<title>Node36&#45;&gt;Node32</title>
<path fill="none" stroke="#191970" d="M1908.5511,-56.3733C1930.8391,-47.2629 1964.4937,-33.5062 1989.3637,-23.3404"/>
<polygon fill="#191970" stroke="#191970" points="1990.8239,-26.5247 1998.7562,-19.5011 1988.1753,-20.0451 1990.8239,-26.5247"/>
</g>
<!-- Node36&#45;&gt;Node33 -->
<g id="edge57" class="edge">
<title>Node36&#45;&gt;Node33</title>
<path fill="none" stroke="#191970" d="M1923.8546,-56.4933C1959.4416,-47.7633 2013.8381,-34.3618 2070.3672,-20.1448"/>
<polygon fill="#191970" stroke="#191970" points="2071.3535,-23.5058 2080.1962,-17.6699 2069.6442,-16.7177 2071.3535,-23.5058"/>
</g>
<!-- Node36&#45;&gt;Node34 -->
<g id="edge58" class="edge">
<title>Node36&#45;&gt;Node34</title>
<path fill="none" stroke="#191970" d="M1863.5117,-56.3733C1843.356,-47.3435 1813.012,-33.7494 1790.382,-23.6111"/>
<polygon fill="#191970" stroke="#191970" points="1791.7649,-20.3955 1781.2079,-19.5011 1788.9029,-26.7838 1791.7649,-20.3955"/>
</g>
<!-- Node36&#45;&gt;Node35 -->
<g id="edge59" class="edge">
<title>Node36&#45;&gt;Node35</title>
<path fill="none" stroke="#191970" d="M1888.3095,-56.2455C1890.8433,-48.7776 1894.4177,-38.2427 1897.515,-29.1137"/>
<polygon fill="#191970" stroke="#191970" points="1900.8298,-30.237 1900.7284,-19.6427 1894.2009,-27.9879 1900.8298,-30.237"/>
</g>
<!-- Node37&#45;&gt;Node32 -->
<g id="edge62" class="edge">
<title>Node37&#45;&gt;Node32</title>
<path fill="none" stroke="#191970" d="M2028.6065,-56.2455C2027.5626,-48.9382 2026.0992,-38.6944 2024.8149,-29.7046"/>
<polygon fill="#191970" stroke="#191970" points="2028.2566,-29.0472 2023.3775,-19.6427 2021.327,-30.0372 2028.2566,-29.0472"/>
</g>
<!-- Node37&#45;&gt;Node33 -->
<g id="edge63" class="edge">
<title>Node37&#45;&gt;Node33</title>
<path fill="none" stroke="#191970" d="M2043.9349,-56.2455C2056.0947,-47.7337 2073.9464,-35.2375 2088.0285,-25.3801"/>
<polygon fill="#191970" stroke="#191970" points="2090.0395,-28.2447 2096.2248,-19.6427 2086.0253,-22.51 2090.0395,-28.2447"/>
</g>
<!-- Node37&#45;&gt;Node34 -->
<g id="edge64" class="edge">
<title>Node37&#45;&gt;Node34</title>
<path fill="none" stroke="#191970" d="M1983.8921,-56.4369C1937.3925,-46.7925 1865.5641,-31.8948 1815.86,-21.5858"/>
<polygon fill="#191970" stroke="#191970" points="1816.4201,-18.1275 1805.9177,-19.5237 1814.9985,-24.9817 1816.4201,-18.1275"/>
</g>
<!-- Node37&#45;&gt;Node35 -->
<g id="edge65" class="edge">
<title>Node37&#45;&gt;Node35</title>
<path fill="none" stroke="#191970" d="M2008.3398,-56.3733C1988.0228,-47.3435 1957.436,-33.7494 1934.625,-23.6111"/>
<polygon fill="#191970" stroke="#191970" points="1935.9372,-20.3642 1925.3775,-19.5011 1933.0941,-26.7609 1935.9372,-20.3642"/>
</g>
<!-- Node38&#45;&gt;Node32 -->
<g id="edge67" class="edge">
<title>Node38&#45;&gt;Node32</title>
<path fill="none" stroke="#191970" d="M2155.3231,-56.3733C2128.6672,-47.1016 2088.1762,-33.0178 2058.8116,-22.804"/>
<polygon fill="#191970" stroke="#191970" points="2059.9105,-19.4807 2049.3157,-19.5011 2057.6109,-26.0921 2059.9105,-19.4807"/>
</g>
<!-- Node38&#45;&gt;Node33 -->
<g id="edge68" class="edge">
<title>Node38&#45;&gt;Node33</title>
<path fill="none" stroke="#191970" d="M2170.2844,-56.2455C2159.398,-47.8943 2143.5117,-35.7076 2130.78,-25.9408"/>
<polygon fill="#191970" stroke="#191970" points="2132.6346,-22.9523 2122.5699,-19.6427 2128.3739,-28.5063 2132.6346,-22.9523"/>
</g>
<!-- Node38&#45;&gt;Node34 -->
<g id="edge69" class="edge">
<title>Node38&#45;&gt;Node34</title>
<path fill="none" stroke="#191970" d="M2113.3393,-56.8155C2045.3469,-47.8456 1938.6568,-33.7563 1836.447,-20.191"/>
<polygon fill="#191970" stroke="#191970" points="1836.6264,-16.6842 1826.2528,-18.8378 1835.7053,-23.6234 1836.6264,-16.6842"/>
</g>
<!-- Node38&#45;&gt;Node35 -->
<g id="edge70" class="edge">
<title>Node38&#45;&gt;Node35</title>
<path fill="none" stroke="#191970" d="M2135.3552,-56.4369C2087.2053,-46.7724 2012.7729,-31.8326 1961.4007,-21.5213"/>
<polygon fill="#191970" stroke="#191970" points="1961.9415,-18.0601 1951.4483,-19.5237 1960.5639,-24.9232 1961.9415,-18.0601"/>
</g>
</g>
</svg>
