<?xml version="1.0" encoding="UTF-8" standalone="no"?>
<!DOCTYPE svg PUBLIC "-//W3C//DTD SVG 1.1//EN"
 "http://www.w3.org/Graphics/SVG/1.1/DTD/svg11.dtd">
<!-- Generated by graphviz version 2.40.1 (20161225.0304)
 -->
<!-- Title: lnInclude/FrontTrackingCloud.H Pages: 1 -->
<svg width="724pt" height="162pt"
 viewBox="0.00 0.00 724.00 162.00" xmlns="http://www.w3.org/2000/svg" xmlns:xlink="http://www.w3.org/1999/xlink">
<g id="graph0" class="graph" transform="scale(1 1) rotate(0) translate(4 158)">
<title>lnInclude/FrontTrackingCloud.H</title>
<!-- Node35 -->
<g id="node1" class="node">
<title>Node35</title>
<polygon fill="#bfbfbf" stroke="#000000" points="244.5,-134.5 244.5,-153.5 399.5,-153.5 399.5,-134.5 244.5,-134.5"/>
<text text-anchor="middle" x="322" y="-141.5" font-family="Helvetica,sans-Serif" font-size="10.00" fill="#000000">lnInclude/FrontTrackingCloud.H</text>
</g>
<!-- Node36 -->
<g id="node2" class="node">
<title>Node36</title>
<g id="a_node2"><a xlink:href="clouds_2derived_2frontTrackingCloud_2frontTrackingCloud_8H.html" target="_top" xlink:title="clouds/derived/frontTracking\lCloud/frontTrackingCloud.H">
<polygon fill="none" stroke="#000000" points="0,-67.5 0,-97.5 140,-97.5 140,-67.5 0,-67.5"/>
<text text-anchor="start" x="8" y="-85.5" font-family="Helvetica,sans-Serif" font-size="10.00" fill="#000000">clouds/derived/frontTracking</text>
<text text-anchor="middle" x="70" y="-74.5" font-family="Helvetica,sans-Serif" font-size="10.00" fill="#000000">Cloud/frontTrackingCloud.H</text>
</a>
</g>
</g>
<!-- Node35&#45;&gt;Node36 -->
<g id="edge1" class="edge">
<title>Node35&#45;&gt;Node36</title>
<path fill="none" stroke="#191970" d="M273.0343,-132.05C232.7007,-122.2067 175.277,-108.1926 131.7848,-97.5784"/>
<polygon fill="#191970" stroke="#191970" points="272.3568,-135.4873 282.9015,-134.4581 274.0165,-128.6869 272.3568,-135.4873"/>
</g>
<!-- Node38 -->
<g id="node4" class="node">
<title>Node38</title>
<g id="a_node4"><a xlink:href="lnInclude_2FrontTrackingCloud_8C.html" target="_top" xlink:title="lnInclude/FrontTrackingCloud.C">
<polygon fill="none" stroke="#000000" points="158.5,-73 158.5,-92 313.5,-92 313.5,-73 158.5,-73"/>
<text text-anchor="middle" x="236" y="-80" font-family="Helvetica,sans-Serif" font-size="10.00" fill="#000000">lnInclude/FrontTrackingCloud.C</text>
</a>
</g>
</g>
<!-- Node35&#45;&gt;Node38 -->
<g id="edge3" class="edge">
<title>Node35&#45;&gt;Node38</title>
<path fill="none" stroke="#191970" d="M300.2812,-128.4685C284.2491,-117.0037 262.9396,-101.765 249.3431,-92.0419"/>
<polygon fill="#191970" stroke="#191970" points="298.3924,-131.4207 308.5625,-134.3906 302.4643,-125.7268 298.3924,-131.4207"/>
</g>
<!-- Node39 -->
<g id="node5" class="node">
<title>Node39</title>
<g id="a_node5"><a xlink:href="lnInclude_2frontTrackingCloud_8H.html" target="_top" xlink:title="lnInclude/frontTrackingCloud.H">
<polygon fill="none" stroke="#000000" points="332,-73 332,-92 484,-92 484,-73 332,-73"/>
<text text-anchor="middle" x="408" y="-80" font-family="Helvetica,sans-Serif" font-size="10.00" fill="#000000">lnInclude/frontTrackingCloud.H</text>
</a>
</g>
</g>
<!-- Node35&#45;&gt;Node39 -->
<g id="edge4" class="edge">
<title>Node35&#45;&gt;Node39</title>
<path fill="none" stroke="#191970" d="M343.7188,-128.4685C359.7509,-117.0037 381.0604,-101.765 394.6569,-92.0419"/>
<polygon fill="#191970" stroke="#191970" points="341.5357,-125.7268 335.4375,-134.3906 345.6076,-131.4207 341.5357,-125.7268"/>
</g>
<!-- Node43 -->
<g id="node9" class="node">
<title>Node43</title>
<g id="a_node9"><a xlink:href="lnInclude_2FrontTrackingCloudName_8C.html" target="_top" xlink:title="lnInclude/FrontTrackingCloud\lName.C">
<polygon fill="none" stroke="#000000" points="502,-67.5 502,-97.5 646,-97.5 646,-67.5 502,-67.5"/>
<text text-anchor="start" x="510" y="-85.5" font-family="Helvetica,sans-Serif" font-size="10.00" fill="#000000">lnInclude/FrontTrackingCloud</text>
<text text-anchor="middle" x="574" y="-74.5" font-family="Helvetica,sans-Serif" font-size="10.00" fill="#000000">Name.C</text>
</a>
</g>
</g>
<!-- Node35&#45;&gt;Node43 -->
<g id="edge8" class="edge">
<title>Node35&#45;&gt;Node43</title>
<path fill="none" stroke="#191970" d="M370.9657,-132.05C411.2993,-122.2067 468.723,-108.1926 512.2152,-97.5784"/>
<polygon fill="#191970" stroke="#191970" points="369.9835,-128.6869 361.0985,-134.4581 371.6432,-135.4873 369.9835,-128.6869"/>
</g>
<!-- Node37 -->
<g id="node3" class="node">
<title>Node37</title>
<g id="a_node3"><a xlink:href="clouds_2derived_2frontTrackingCloud_2frontTrackingCloud_8C.html" target="_top" xlink:title="clouds/derived/frontTracking\lCloud/frontTrackingCloud.C">
<polygon fill="none" stroke="#000000" points="0,-.5 0,-30.5 140,-30.5 140,-.5 0,-.5"/>
<text text-anchor="start" x="8" y="-18.5" font-family="Helvetica,sans-Serif" font-size="10.00" fill="#000000">clouds/derived/frontTracking</text>
<text text-anchor="middle" x="70" y="-7.5" font-family="Helvetica,sans-Serif" font-size="10.00" fill="#000000">Cloud/frontTrackingCloud.C</text>
</a>
</g>
</g>
<!-- Node36&#45;&gt;Node37 -->
<g id="edge2" class="edge">
<title>Node36&#45;&gt;Node37</title>
<path fill="none" stroke="#191970" d="M70,-57.0249C70,-48.128 70,-38.4287 70,-30.6432"/>
<polygon fill="#191970" stroke="#191970" points="66.5001,-57.2966 70,-67.2967 73.5001,-57.2967 66.5001,-57.2966"/>
</g>
<!-- Node40 -->
<g id="node6" class="node">
<title>Node40</title>
<g id="a_node6"><a xlink:href="lnInclude_2frontTrackingCloud_8C.html" target="_top" xlink:title="lnInclude/frontTrackingCloud.C">
<polygon fill="none" stroke="#000000" points="166,-6 166,-25 318,-25 318,-6 166,-6"/>
<text text-anchor="middle" x="242" y="-13" font-family="Helvetica,sans-Serif" font-size="10.00" fill="#000000">lnInclude/frontTrackingCloud.C</text>
</a>
</g>
</g>
<!-- Node39&#45;&gt;Node40 -->
<g id="edge5" class="edge">
<title>Node39&#45;&gt;Node40</title>
<path fill="none" stroke="#191970" d="M374.7519,-69.0806C342.4845,-56.057 294.3176,-36.6162 265.7396,-25.0817"/>
<polygon fill="#191970" stroke="#191970" points="373.6331,-72.4033 384.2162,-72.9005 376.2531,-65.9121 373.6331,-72.4033"/>
</g>
<!-- Node41 -->
<g id="node7" class="node">
<title>Node41</title>
<g id="a_node7"><a xlink:href="lnInclude_2makeFrontTrackingParcelSubmodels_8C.html" target="_top" xlink:title="lnInclude/makeFrontTracking\lParcelSubmodels.C">
<polygon fill="none" stroke="#000000" points="336.5,-.5 336.5,-30.5 479.5,-30.5 479.5,-.5 336.5,-.5"/>
<text text-anchor="start" x="344.5" y="-18.5" font-family="Helvetica,sans-Serif" font-size="10.00" fill="#000000">lnInclude/makeFrontTracking</text>
<text text-anchor="middle" x="408" y="-7.5" font-family="Helvetica,sans-Serif" font-size="10.00" fill="#000000">ParcelSubmodels.C</text>
</a>
</g>
</g>
<!-- Node39&#45;&gt;Node41 -->
<g id="edge6" class="edge">
<title>Node39&#45;&gt;Node41</title>
<path fill="none" stroke="#191970" d="M408,-62.7758C408,-52.4641 408,-40.0437 408,-30.5218"/>
<polygon fill="#191970" stroke="#191970" points="404.5001,-62.9005 408,-72.9005 411.5001,-62.9006 404.5001,-62.9005"/>
</g>
<!-- Node42 -->
<g id="node8" class="node">
<title>Node42</title>
<g id="a_node8"><a xlink:href="parcels_2derived_2frontTrackingParcel_2makeFrontTrackingParcelSubmodels_8C.html" target="_top" xlink:title="parcels/derived/frontTracking\lParcel/makeFrontTrackingParcelSubmodels.C">
<polygon fill="none" stroke="#000000" points="498,-.5 498,-30.5 716,-30.5 716,-.5 498,-.5"/>
<text text-anchor="start" x="506" y="-18.5" font-family="Helvetica,sans-Serif" font-size="10.00" fill="#000000">parcels/derived/frontTracking</text>
<text text-anchor="middle" x="607" y="-7.5" font-family="Helvetica,sans-Serif" font-size="10.00" fill="#000000">Parcel/makeFrontTrackingParcelSubmodels.C</text>
</a>
</g>
</g>
<!-- Node39&#45;&gt;Node42 -->
<g id="edge7" class="edge">
<title>Node39&#45;&gt;Node42</title>
<path fill="none" stroke="#191970" d="M446.2994,-69.6052C479.4716,-58.4367 527.4825,-42.2722 562.3831,-30.5218"/>
<polygon fill="#191970" stroke="#191970" points="444.8723,-66.3926 436.5118,-72.9005 447.1059,-73.0267 444.8723,-66.3926"/>
</g>
</g>
</svg>
