<?xml version="1.0" encoding="UTF-8" standalone="no"?>
<!DOCTYPE svg PUBLIC "-//W3C//DTD SVG 1.1//EN"
 "http://www.w3.org/Graphics/SVG/1.1/DTD/svg11.dtd">
<!-- Generated by graphviz version 2.40.1 (20161225.0304)
 -->
<!-- Title: lnInclude/TSUR3D.H Pages: 1 -->
<svg width="308pt" height="162pt"
 viewBox="0.00 0.00 308.00 162.00" xmlns="http://www.w3.org/2000/svg" xmlns:xlink="http://www.w3.org/1999/xlink">
<g id="graph0" class="graph" transform="scale(1 1) rotate(0) translate(4 158)">
<title>lnInclude/TSUR3D.H</title>
<!-- Node27 -->
<g id="node1" class="node">
<title>Node27</title>
<polygon fill="#bfbfbf" stroke="#000000" points="110,-134.5 110,-153.5 220,-153.5 220,-134.5 110,-134.5"/>
<text text-anchor="middle" x="165" y="-141.5" font-family="Helvetica,sans-Serif" font-size="10.00" fill="#000000">lnInclude/TSUR3D.H</text>
</g>
<!-- Node28 -->
<g id="node2" class="node">
<title>Node28</title>
<g id="a_node2"><a xlink:href="lnInclude_2makeFrontTrackingParcelUndulationRemovalModels_8H.html" target="_top" xlink:title="lnInclude/makeFrontTracking\lParcelUndulationRemovalModels.H">
<polygon fill="none" stroke="#000000" points="0,-67.5 0,-97.5 172,-97.5 172,-67.5 0,-67.5"/>
<text text-anchor="start" x="8" y="-85.5" font-family="Helvetica,sans-Serif" font-size="10.00" fill="#000000">lnInclude/makeFrontTracking</text>
<text text-anchor="middle" x="86" y="-74.5" font-family="Helvetica,sans-Serif" font-size="10.00" fill="#000000">ParcelUndulationRemovalModels.H</text>
</a>
</g>
</g>
<!-- Node27&#45;&gt;Node28 -->
<g id="edge1" class="edge">
<title>Node27&#45;&gt;Node28</title>
<path fill="none" stroke="#191970" d="M144.4965,-128.0385C132.4078,-118.6276 117.2033,-106.7911 105.3256,-97.5446"/>
<polygon fill="#191970" stroke="#191970" points="142.6154,-131.0095 152.6563,-134.3906 146.9154,-125.4859 142.6154,-131.0095"/>
</g>
<!-- Node30 -->
<g id="node4" class="node">
<title>Node30</title>
<g id="a_node4"><a xlink:href="lnInclude_2TSUR3D_8C.html" target="_top" xlink:title="lnInclude/TSUR3D.C">
<polygon fill="none" stroke="#000000" points="190,-73 190,-92 300,-92 300,-73 190,-73"/>
<text text-anchor="middle" x="245" y="-80" font-family="Helvetica,sans-Serif" font-size="10.00" fill="#000000">lnInclude/TSUR3D.C</text>
</a>
</g>
</g>
<!-- Node27&#45;&gt;Node30 -->
<g id="edge3" class="edge">
<title>Node27&#45;&gt;Node30</title>
<path fill="none" stroke="#191970" d="M185.619,-128.1491C200.4836,-116.722 220.057,-101.6749 232.5878,-92.0419"/>
<polygon fill="#191970" stroke="#191970" points="183.2949,-125.521 177.5,-134.3906 187.5613,-131.0707 183.2949,-125.521"/>
</g>
<!-- Node29 -->
<g id="node3" class="node">
<title>Node29</title>
<g id="a_node3"><a xlink:href="lnInclude_2makeFrontTrackingParcelSubmodels_8C.html" target="_top" xlink:title="lnInclude/makeFrontTracking\lParcelSubmodels.C">
<polygon fill="none" stroke="#000000" points="14.5,-.5 14.5,-30.5 157.5,-30.5 157.5,-.5 14.5,-.5"/>
<text text-anchor="start" x="22.5" y="-18.5" font-family="Helvetica,sans-Serif" font-size="10.00" fill="#000000">lnInclude/makeFrontTracking</text>
<text text-anchor="middle" x="86" y="-7.5" font-family="Helvetica,sans-Serif" font-size="10.00" fill="#000000">ParcelSubmodels.C</text>
</a>
</g>
</g>
<!-- Node28&#45;&gt;Node29 -->
<g id="edge2" class="edge">
<title>Node28&#45;&gt;Node29</title>
<path fill="none" stroke="#191970" d="M86,-57.0249C86,-48.128 86,-38.4287 86,-30.6432"/>
<polygon fill="#191970" stroke="#191970" points="82.5001,-57.2966 86,-67.2967 89.5001,-57.2967 82.5001,-57.2966"/>
</g>
</g>
</svg>
