<?xml version="1.0" encoding="UTF-8" standalone="no"?>
<!DOCTYPE svg PUBLIC "-//W3C//DTD SVG 1.1//EN"
 "http://www.w3.org/Graphics/SVG/1.1/DTD/svg11.dtd">
<!-- Generated by graphviz version 2.40.1 (20161225.0304)
 -->
<!-- Title: lnInclude/SurfaceTensionModel.H Pages: 1 -->
<svg width="654pt" height="240pt"
 viewBox="0.00 0.00 654.00 240.00" xmlns="http://www.w3.org/2000/svg" xmlns:xlink="http://www.w3.org/1999/xlink">
<g id="graph0" class="graph" transform="scale(1 1) rotate(0) translate(4 236)">
<title>lnInclude/SurfaceTensionModel.H</title>
<!-- Node5 -->
<g id="node1" class="node">
<title>Node5</title>
<polygon fill="#bfbfbf" stroke="#000000" points="276,-201.5 276,-231.5 403,-231.5 403,-201.5 276,-201.5"/>
<text text-anchor="start" x="284" y="-219.5" font-family="Helvetica,sans-Serif" font-size="10.00" fill="#000000">lnInclude/SurfaceTension</text>
<text text-anchor="middle" x="339.5" y="-208.5" font-family="Helvetica,sans-Serif" font-size="10.00" fill="#000000">Model.H</text>
</g>
<!-- Node6 -->
<g id="node2" class="node">
<title>Node6</title>
<g id="a_node2"><a xlink:href="lnInclude_2DirectElementBased_8H.html" target="_top" xlink:title="lnInclude/DirectElementBased.H">
<polygon fill="none" stroke="#000000" points="0,-140 0,-159 159,-159 159,-140 0,-140"/>
<text text-anchor="middle" x="79.5" y="-147" font-family="Helvetica,sans-Serif" font-size="10.00" fill="#000000">lnInclude/DirectElementBased.H</text>
</a>
</g>
</g>
<!-- Node5&#45;&gt;Node6 -->
<g id="edge1" class="edge">
<title>Node5&#45;&gt;Node6</title>
<path fill="none" stroke="#191970" d="M271.4572,-198.9659C221.8819,-186.1907 156.6163,-169.3723 116.3862,-159.0053"/>
<polygon fill="#191970" stroke="#191970" points="270.5939,-202.3577 281.1509,-201.4639 272.3407,-195.5791 270.5939,-202.3577"/>
</g>
<!-- Node10 -->
<g id="node6" class="node">
<title>Node10</title>
<g id="a_node6"><a xlink:href="lnInclude_2FrontTrackingCloud_8C.html" target="_top" xlink:title="lnInclude/FrontTrackingCloud.C">
<polygon fill="none" stroke="#000000" points="177,-140 177,-159 332,-159 332,-140 177,-140"/>
<text text-anchor="middle" x="254.5" y="-147" font-family="Helvetica,sans-Serif" font-size="10.00" fill="#000000">lnInclude/FrontTrackingCloud.C</text>
</a>
</g>
</g>
<!-- Node5&#45;&gt;Node10 -->
<g id="edge5" class="edge">
<title>Node5&#45;&gt;Node10</title>
<path fill="none" stroke="#191970" d="M312.0675,-194.8767C296.742,-182.7967 278.4139,-168.3498 266.622,-159.055"/>
<polygon fill="#191970" stroke="#191970" points="310.1919,-197.8549 320.2122,-201.2967 314.5253,-192.3574 310.1919,-197.8549"/>
</g>
<!-- Node11 -->
<g id="node7" class="node">
<title>Node11</title>
<g id="a_node7"><a xlink:href="lnInclude_2NoSurfaceTension_8H.html" target="_top" xlink:title="lnInclude/NoSurfaceTension.H">
<polygon fill="none" stroke="#000000" points="350.5,-140 350.5,-159 500.5,-159 500.5,-140 350.5,-140"/>
<text text-anchor="middle" x="425.5" y="-147" font-family="Helvetica,sans-Serif" font-size="10.00" fill="#000000">lnInclude/NoSurfaceTension.H</text>
</a>
</g>
</g>
<!-- Node5&#45;&gt;Node11 -->
<g id="edge6" class="edge">
<title>Node5&#45;&gt;Node11</title>
<path fill="none" stroke="#191970" d="M367.2552,-194.8767C382.761,-182.7967 401.3048,-168.3498 413.2354,-159.055"/>
<polygon fill="#191970" stroke="#191970" points="364.7523,-192.3899 359.0147,-201.2967 369.0544,-197.9119 364.7523,-192.3899"/>
</g>
<!-- Node13 -->
<g id="node9" class="node">
<title>Node13</title>
<g id="a_node9"><a xlink:href="lnInclude_2SurfaceTensionModel_8C.html" target="_top" xlink:title="lnInclude/SurfaceTension\lModel.C">
<polygon fill="none" stroke="#000000" points="519,-134.5 519,-164.5 646,-164.5 646,-134.5 519,-134.5"/>
<text text-anchor="start" x="527" y="-152.5" font-family="Helvetica,sans-Serif" font-size="10.00" fill="#000000">lnInclude/SurfaceTension</text>
<text text-anchor="middle" x="582.5" y="-141.5" font-family="Helvetica,sans-Serif" font-size="10.00" fill="#000000">Model.C</text>
</a>
</g>
</g>
<!-- Node5&#45;&gt;Node13 -->
<g id="edge9" class="edge">
<title>Node5&#45;&gt;Node13</title>
<path fill="none" stroke="#191970" d="M404.1154,-198.6842C442.6598,-188.0568 491.0684,-174.7095 527.7282,-164.6017"/>
<polygon fill="#191970" stroke="#191970" points="402.7439,-195.4317 394.0339,-201.4639 404.6046,-202.1799 402.7439,-195.4317"/>
</g>
<!-- Node7 -->
<g id="node3" class="node">
<title>Node7</title>
<g id="a_node3"><a xlink:href="lnInclude_2DirectElementBased_8C.html" target="_top" xlink:title="lnInclude/DirectElementBased.C">
<polygon fill="none" stroke="#000000" points="0,-73 0,-92 159,-92 159,-73 0,-73"/>
<text text-anchor="middle" x="79.5" y="-80" font-family="Helvetica,sans-Serif" font-size="10.00" fill="#000000">lnInclude/DirectElementBased.C</text>
</a>
</g>
</g>
<!-- Node6&#45;&gt;Node7 -->
<g id="edge2" class="edge">
<title>Node6&#45;&gt;Node7</title>
<path fill="none" stroke="#191970" d="M79.5,-129.6079C79.5,-117.214 79.5,-101.8263 79.5,-92.0817"/>
<polygon fill="#191970" stroke="#191970" points="76.0001,-129.9005 79.5,-139.9005 83.0001,-129.9006 76.0001,-129.9005"/>
</g>
<!-- Node8 -->
<g id="node4" class="node">
<title>Node8</title>
<g id="a_node4"><a xlink:href="lnInclude_2makeFrontTrackingParcelSurfaceTensionModels_8H.html" target="_top" xlink:title="lnInclude/makeFrontTracking\lParcelSurfaceTensionModels.H">
<polygon fill="none" stroke="#000000" points="177,-67.5 177,-97.5 332,-97.5 332,-67.5 177,-67.5"/>
<text text-anchor="start" x="185" y="-85.5" font-family="Helvetica,sans-Serif" font-size="10.00" fill="#000000">lnInclude/makeFrontTracking</text>
<text text-anchor="middle" x="254.5" y="-74.5" font-family="Helvetica,sans-Serif" font-size="10.00" fill="#000000">ParcelSurfaceTensionModels.H</text>
</a>
</g>
</g>
<!-- Node6&#45;&gt;Node8 -->
<g id="edge3" class="edge">
<title>Node6&#45;&gt;Node8</title>
<path fill="none" stroke="#191970" d="M113.9377,-136.3153C143.079,-125.1583 184.8372,-109.1709 215.264,-97.5218"/>
<polygon fill="#191970" stroke="#191970" points="112.6607,-133.0564 104.5732,-139.9005 115.1636,-139.5936 112.6607,-133.0564"/>
</g>
<!-- Node9 -->
<g id="node5" class="node">
<title>Node9</title>
<g id="a_node5"><a xlink:href="lnInclude_2makeFrontTrackingParcelSubmodels_8C.html" target="_top" xlink:title="lnInclude/makeFrontTracking\lParcelSubmodels.C">
<polygon fill="none" stroke="#000000" points="183,-.5 183,-30.5 326,-30.5 326,-.5 183,-.5"/>
<text text-anchor="start" x="191" y="-18.5" font-family="Helvetica,sans-Serif" font-size="10.00" fill="#000000">lnInclude/makeFrontTracking</text>
<text text-anchor="middle" x="254.5" y="-7.5" font-family="Helvetica,sans-Serif" font-size="10.00" fill="#000000">ParcelSubmodels.C</text>
</a>
</g>
</g>
<!-- Node8&#45;&gt;Node9 -->
<g id="edge4" class="edge">
<title>Node8&#45;&gt;Node9</title>
<path fill="none" stroke="#191970" d="M254.5,-57.0249C254.5,-48.128 254.5,-38.4287 254.5,-30.6432"/>
<polygon fill="#191970" stroke="#191970" points="251.0001,-57.2966 254.5,-67.2967 258.0001,-57.2967 251.0001,-57.2966"/>
</g>
<!-- Node11&#45;&gt;Node8 -->
<g id="edge7" class="edge">
<title>Node11&#45;&gt;Node8</title>
<path fill="none" stroke="#191970" d="M391.4774,-136.1695C363.0196,-125.0194 322.4413,-109.1203 292.8391,-97.5218"/>
<polygon fill="#191970" stroke="#191970" points="390.4122,-139.5112 400.9999,-139.9005 392.9659,-132.9936 390.4122,-139.5112"/>
</g>
<!-- Node12 -->
<g id="node8" class="node">
<title>Node12</title>
<g id="a_node8"><a xlink:href="lnInclude_2NoSurfaceTension_8C.html" target="_top" xlink:title="lnInclude/NoSurfaceTension.C">
<polygon fill="none" stroke="#000000" points="350.5,-73 350.5,-92 500.5,-92 500.5,-73 350.5,-73"/>
<text text-anchor="middle" x="425.5" y="-80" font-family="Helvetica,sans-Serif" font-size="10.00" fill="#000000">lnInclude/NoSurfaceTension.C</text>
</a>
</g>
</g>
<!-- Node11&#45;&gt;Node12 -->
<g id="edge8" class="edge">
<title>Node11&#45;&gt;Node12</title>
<path fill="none" stroke="#191970" d="M425.5,-129.6079C425.5,-117.214 425.5,-101.8263 425.5,-92.0817"/>
<polygon fill="#191970" stroke="#191970" points="422.0001,-129.9005 425.5,-139.9005 429.0001,-129.9006 422.0001,-129.9005"/>
</g>
</g>
</svg>
