<?xml version="1.0" encoding="UTF-8" standalone="no"?>
<!DOCTYPE svg PUBLIC "-//W3C//DTD SVG 1.1//EN"
 "http://www.w3.org/Graphics/SVG/1.1/DTD/svg11.dtd">
<!-- Generated by graphviz version 2.40.1 (20161225.0304)
 -->
<!-- Title: lnInclude/DirectElementBased.H Pages: 1 -->
<svg width="340pt" height="162pt"
 viewBox="0.00 0.00 340.00 162.00" xmlns="http://www.w3.org/2000/svg" xmlns:xlink="http://www.w3.org/1999/xlink">
<g id="graph0" class="graph" transform="scale(1 1) rotate(0) translate(4 158)">
<title>lnInclude/DirectElementBased.H</title>
<!-- Node27 -->
<g id="node1" class="node">
<title>Node27</title>
<polygon fill="#bfbfbf" stroke="#000000" points="87,-134.5 87,-153.5 246,-153.5 246,-134.5 87,-134.5"/>
<text text-anchor="middle" x="166.5" y="-141.5" font-family="Helvetica,sans-Serif" font-size="10.00" fill="#000000">lnInclude/DirectElementBased.H</text>
</g>
<!-- Node28 -->
<g id="node2" class="node">
<title>Node28</title>
<g id="a_node2"><a xlink:href="lnInclude_2DirectElementBased_8C.html" target="_top" xlink:title="lnInclude/DirectElementBased.C">
<polygon fill="none" stroke="#000000" points="0,-73 0,-92 159,-92 159,-73 0,-73"/>
<text text-anchor="middle" x="79.5" y="-80" font-family="Helvetica,sans-Serif" font-size="10.00" fill="#000000">lnInclude/DirectElementBased.C</text>
</a>
</g>
</g>
<!-- Node27&#45;&gt;Node28 -->
<g id="edge1" class="edge">
<title>Node27&#45;&gt;Node28</title>
<path fill="none" stroke="#191970" d="M144.5287,-128.4685C128.3101,-117.0037 106.7529,-101.765 92.9983,-92.0419"/>
<polygon fill="#191970" stroke="#191970" points="142.7201,-131.4763 152.9063,-134.3906 146.7608,-125.7602 142.7201,-131.4763"/>
</g>
<!-- Node29 -->
<g id="node3" class="node">
<title>Node29</title>
<g id="a_node3"><a xlink:href="lnInclude_2makeFrontTrackingParcelSurfaceTensionModels_8H.html" target="_top" xlink:title="lnInclude/makeFrontTracking\lParcelSurfaceTensionModels.H">
<polygon fill="none" stroke="#000000" points="177,-67.5 177,-97.5 332,-97.5 332,-67.5 177,-67.5"/>
<text text-anchor="start" x="185" y="-85.5" font-family="Helvetica,sans-Serif" font-size="10.00" fill="#000000">lnInclude/makeFrontTracking</text>
<text text-anchor="middle" x="254.5" y="-74.5" font-family="Helvetica,sans-Serif" font-size="10.00" fill="#000000">ParcelSurfaceTensionModels.H</text>
</a>
</g>
</g>
<!-- Node27&#45;&gt;Node29 -->
<g id="edge2" class="edge">
<title>Node27&#45;&gt;Node29</title>
<path fill="none" stroke="#191970" d="M188.5588,-128.5839C202.1461,-119.0882 219.485,-106.9707 232.9728,-97.5446"/>
<polygon fill="#191970" stroke="#191970" points="186.4418,-125.7934 180.25,-134.3906 190.4517,-131.5311 186.4418,-125.7934"/>
</g>
<!-- Node30 -->
<g id="node4" class="node">
<title>Node30</title>
<g id="a_node4"><a xlink:href="lnInclude_2makeFrontTrackingParcelSubmodels_8C.html" target="_top" xlink:title="lnInclude/makeFrontTracking\lParcelSubmodels.C">
<polygon fill="none" stroke="#000000" points="183,-.5 183,-30.5 326,-30.5 326,-.5 183,-.5"/>
<text text-anchor="start" x="191" y="-18.5" font-family="Helvetica,sans-Serif" font-size="10.00" fill="#000000">lnInclude/makeFrontTracking</text>
<text text-anchor="middle" x="254.5" y="-7.5" font-family="Helvetica,sans-Serif" font-size="10.00" fill="#000000">ParcelSubmodels.C</text>
</a>
</g>
</g>
<!-- Node29&#45;&gt;Node30 -->
<g id="edge3" class="edge">
<title>Node29&#45;&gt;Node30</title>
<path fill="none" stroke="#191970" d="M254.5,-57.0249C254.5,-48.128 254.5,-38.4287 254.5,-30.6432"/>
<polygon fill="#191970" stroke="#191970" points="251.0001,-57.2966 254.5,-67.2967 258.0001,-57.2967 251.0001,-57.2966"/>
</g>
</g>
</svg>
