<?xml version="1.0" encoding="UTF-8" standalone="no"?>
<!DOCTYPE svg PUBLIC "-//W3C//DTD SVG 1.1//EN"
 "http://www.w3.org/Graphics/SVG/1.1/DTD/svg11.dtd">
<!-- Generated by graphviz version 2.40.1 (20161225.0304)
 -->
<!-- Title: lnInclude/NoSurfaceTension.H Pages: 1 -->
<svg width="332pt" height="162pt"
 viewBox="0.00 0.00 331.50 162.00" xmlns="http://www.w3.org/2000/svg" xmlns:xlink="http://www.w3.org/1999/xlink">
<g id="graph0" class="graph" transform="scale(1 1) rotate(0) translate(4 158)">
<title>lnInclude/NoSurfaceTension.H</title>
<!-- Node6 -->
<g id="node1" class="node">
<title>Node6</title>
<polygon fill="#bfbfbf" stroke="#000000" points="87.5,-134.5 87.5,-153.5 237.5,-153.5 237.5,-134.5 87.5,-134.5"/>
<text text-anchor="middle" x="162.5" y="-141.5" font-family="Helvetica,sans-Serif" font-size="10.00" fill="#000000">lnInclude/NoSurfaceTension.H</text>
</g>
<!-- Node7 -->
<g id="node2" class="node">
<title>Node7</title>
<g id="a_node2"><a xlink:href="lnInclude_2makeFrontTrackingParcelSurfaceTensionModels_8H.html" target="_top" xlink:title="lnInclude/makeFrontTracking\lParcelSurfaceTensionModels.H">
<polygon fill="none" stroke="#000000" points="0,-67.5 0,-97.5 155,-97.5 155,-67.5 0,-67.5"/>
<text text-anchor="start" x="8" y="-85.5" font-family="Helvetica,sans-Serif" font-size="10.00" fill="#000000">lnInclude/makeFrontTracking</text>
<text text-anchor="middle" x="77.5" y="-74.5" font-family="Helvetica,sans-Serif" font-size="10.00" fill="#000000">ParcelSurfaceTensionModels.H</text>
</a>
</g>
</g>
<!-- Node6&#45;&gt;Node7 -->
<g id="edge1" class="edge">
<title>Node6&#45;&gt;Node7</title>
<path fill="none" stroke="#191970" d="M140.8172,-128.3119C127.7504,-118.8577 111.1972,-106.8809 98.2933,-97.5446"/>
<polygon fill="#191970" stroke="#191970" points="139.0653,-131.3643 149.2188,-134.3906 143.1686,-125.6931 139.0653,-131.3643"/>
</g>
<!-- Node9 -->
<g id="node4" class="node">
<title>Node9</title>
<g id="a_node4"><a xlink:href="lnInclude_2NoSurfaceTension_8C.html" target="_top" xlink:title="lnInclude/NoSurfaceTension.C">
<polygon fill="none" stroke="#000000" points="173.5,-73 173.5,-92 323.5,-92 323.5,-73 173.5,-73"/>
<text text-anchor="middle" x="248.5" y="-80" font-family="Helvetica,sans-Serif" font-size="10.00" fill="#000000">lnInclude/NoSurfaceTension.C</text>
</a>
</g>
</g>
<!-- Node6&#45;&gt;Node9 -->
<g id="edge3" class="edge">
<title>Node6&#45;&gt;Node9</title>
<path fill="none" stroke="#191970" d="M184.2188,-128.4685C200.2509,-117.0037 221.5604,-101.765 235.1569,-92.0419"/>
<polygon fill="#191970" stroke="#191970" points="182.0357,-125.7268 175.9375,-134.3906 186.1076,-131.4207 182.0357,-125.7268"/>
</g>
<!-- Node8 -->
<g id="node3" class="node">
<title>Node8</title>
<g id="a_node3"><a xlink:href="lnInclude_2makeFrontTrackingParcelSubmodels_8C.html" target="_top" xlink:title="lnInclude/makeFrontTracking\lParcelSubmodels.C">
<polygon fill="none" stroke="#000000" points="6,-.5 6,-30.5 149,-30.5 149,-.5 6,-.5"/>
<text text-anchor="start" x="14" y="-18.5" font-family="Helvetica,sans-Serif" font-size="10.00" fill="#000000">lnInclude/makeFrontTracking</text>
<text text-anchor="middle" x="77.5" y="-7.5" font-family="Helvetica,sans-Serif" font-size="10.00" fill="#000000">ParcelSubmodels.C</text>
</a>
</g>
</g>
<!-- Node7&#45;&gt;Node8 -->
<g id="edge2" class="edge">
<title>Node7&#45;&gt;Node8</title>
<path fill="none" stroke="#191970" d="M77.5,-57.0249C77.5,-48.128 77.5,-38.4287 77.5,-30.6432"/>
<polygon fill="#191970" stroke="#191970" points="74.0001,-57.2966 77.5,-67.2967 81.0001,-57.2967 74.0001,-57.2966"/>
</g>
</g>
</svg>
