<?xml version="1.0" encoding="UTF-8" standalone="no"?>
<!DOCTYPE svg PUBLIC "-//W3C//DTD SVG 1.1//EN"
 "http://www.w3.org/Graphics/SVG/1.1/DTD/svg11.dtd">
<!-- Generated by graphviz version 2.40.1 (20161225.0304)
 -->
<!-- Title: lnInclude/Poisson.H Pages: 1 -->
<svg width="274pt" height="162pt"
 viewBox="0.00 0.00 273.50 162.00" xmlns="http://www.w3.org/2000/svg" xmlns:xlink="http://www.w3.org/1999/xlink">
<g id="graph0" class="graph" transform="scale(1 1) rotate(0) translate(4 158)">
<title>lnInclude/Poisson.H</title>
<!-- Node28 -->
<g id="node1" class="node">
<title>Node28</title>
<polygon fill="#bfbfbf" stroke="#000000" points="90.5,-134.5 90.5,-153.5 194.5,-153.5 194.5,-134.5 90.5,-134.5"/>
<text text-anchor="middle" x="142.5" y="-141.5" font-family="Helvetica,sans-Serif" font-size="10.00" fill="#000000">lnInclude/Poisson.H</text>
</g>
<!-- Node29 -->
<g id="node2" class="node">
<title>Node29</title>
<g id="a_node2"><a xlink:href="lnInclude_2makeFrontTrackingParcelFrontToFieldModels_8H.html" target="_top" xlink:title="lnInclude/makeFrontTracking\lParcelFrontToFieldModels.H">
<polygon fill="none" stroke="#000000" points="0,-67.5 0,-97.5 143,-97.5 143,-67.5 0,-67.5"/>
<text text-anchor="start" x="8" y="-85.5" font-family="Helvetica,sans-Serif" font-size="10.00" fill="#000000">lnInclude/makeFrontTracking</text>
<text text-anchor="middle" x="71.5" y="-74.5" font-family="Helvetica,sans-Serif" font-size="10.00" fill="#000000">ParcelFrontToFieldModels.H</text>
</a>
</g>
</g>
<!-- Node28&#45;&gt;Node29 -->
<g id="edge1" class="edge">
<title>Node28&#45;&gt;Node29</title>
<path fill="none" stroke="#191970" d="M123.7556,-127.7637C112.9432,-118.398 99.4398,-106.7014 88.8686,-97.5446"/>
<polygon fill="#191970" stroke="#191970" points="121.556,-130.4888 131.4063,-134.3906 126.1391,-125.1978 121.556,-130.4888"/>
</g>
<!-- Node31 -->
<g id="node4" class="node">
<title>Node31</title>
<g id="a_node4"><a xlink:href="lnInclude_2Poisson_8C.html" target="_top" xlink:title="lnInclude/Poisson.C">
<polygon fill="none" stroke="#000000" points="161.5,-73 161.5,-92 265.5,-92 265.5,-73 161.5,-73"/>
<text text-anchor="middle" x="213.5" y="-80" font-family="Helvetica,sans-Serif" font-size="10.00" fill="#000000">lnInclude/Poisson.C</text>
</a>
</g>
</g>
<!-- Node28&#45;&gt;Node31 -->
<g id="edge3" class="edge">
<title>Node28&#45;&gt;Node31</title>
<path fill="none" stroke="#191970" d="M161.4932,-127.5482C174.5022,-116.2798 191.3157,-101.716 202.2498,-92.2449"/>
<polygon fill="#191970" stroke="#191970" points="158.8609,-125.1978 153.5938,-134.3906 163.444,-130.4888 158.8609,-125.1978"/>
</g>
<!-- Node30 -->
<g id="node3" class="node">
<title>Node30</title>
<g id="a_node3"><a xlink:href="lnInclude_2makeFrontTrackingParcelSubmodels_8C.html" target="_top" xlink:title="lnInclude/makeFrontTracking\lParcelSubmodels.C">
<polygon fill="none" stroke="#000000" points="0,-.5 0,-30.5 143,-30.5 143,-.5 0,-.5"/>
<text text-anchor="start" x="8" y="-18.5" font-family="Helvetica,sans-Serif" font-size="10.00" fill="#000000">lnInclude/makeFrontTracking</text>
<text text-anchor="middle" x="71.5" y="-7.5" font-family="Helvetica,sans-Serif" font-size="10.00" fill="#000000">ParcelSubmodels.C</text>
</a>
</g>
</g>
<!-- Node29&#45;&gt;Node30 -->
<g id="edge2" class="edge">
<title>Node29&#45;&gt;Node30</title>
<path fill="none" stroke="#191970" d="M71.5,-57.0249C71.5,-48.128 71.5,-38.4287 71.5,-30.6432"/>
<polygon fill="#191970" stroke="#191970" points="68.0001,-57.2966 71.5,-67.2967 75.0001,-57.2967 68.0001,-57.2966"/>
</g>
</g>
</svg>
