<?xml version="1.0" encoding="UTF-8" standalone="no"?>
<!DOCTYPE svg PUBLIC "-//W3C//DTD SVG 1.1//EN"
 "http://www.w3.org/Graphics/SVG/1.1/DTD/svg11.dtd">
<!-- Generated by graphviz version 2.40.1 (20161225.0304)
 -->
<!-- Title: lnInclude/UndulationRemovalModel.H Pages: 1 -->
<svg width="876pt" height="240pt"
 viewBox="0.00 0.00 875.50 240.00" xmlns="http://www.w3.org/2000/svg" xmlns:xlink="http://www.w3.org/1999/xlink">
<g id="graph0" class="graph" transform="scale(1 1) rotate(0) translate(4 236)">
<title>lnInclude/UndulationRemovalModel.H</title>
<!-- Node5 -->
<g id="node1" class="node">
<title>Node5</title>
<polygon fill="#bfbfbf" stroke="#000000" points="338.5,-201.5 338.5,-231.5 482.5,-231.5 482.5,-201.5 338.5,-201.5"/>
<text text-anchor="start" x="346.5" y="-219.5" font-family="Helvetica,sans-Serif" font-size="10.00" fill="#000000">lnInclude/UndulationRemoval</text>
<text text-anchor="middle" x="410.5" y="-208.5" font-family="Helvetica,sans-Serif" font-size="10.00" fill="#000000">Model.H</text>
</g>
<!-- Node6 -->
<g id="node2" class="node">
<title>Node6</title>
<g id="a_node2"><a xlink:href="lnInclude_2FrontTrackingCloud_8C.html" target="_top" xlink:title="lnInclude/FrontTrackingCloud.C">
<polygon fill="none" stroke="#000000" points="0,-140 0,-159 155,-159 155,-140 0,-140"/>
<text text-anchor="middle" x="77.5" y="-147" font-family="Helvetica,sans-Serif" font-size="10.00" fill="#000000">lnInclude/FrontTrackingCloud.C</text>
</a>
</g>
</g>
<!-- Node5&#45;&gt;Node6 -->
<g id="edge1" class="edge">
<title>Node5&#45;&gt;Node6</title>
<path fill="none" stroke="#191970" d="M328.1841,-199.938C264.248,-187.0739 177.8372,-169.688 124.9731,-159.0516"/>
<polygon fill="#191970" stroke="#191970" points="327.75,-203.4207 338.244,-201.962 329.1308,-196.5582 327.75,-203.4207"/>
</g>
<!-- Node7 -->
<g id="node3" class="node">
<title>Node7</title>
<g id="a_node3"><a xlink:href="lnInclude_2NoUndulationRemoval_8H.html" target="_top" xlink:title="lnInclude/NoUndulationRemoval.H">
<polygon fill="none" stroke="#000000" points="538,-140 538,-159 705,-159 705,-140 538,-140"/>
<text text-anchor="middle" x="621.5" y="-147" font-family="Helvetica,sans-Serif" font-size="10.00" fill="#000000">lnInclude/NoUndulationRemoval.H</text>
</a>
</g>
</g>
<!-- Node5&#45;&gt;Node7 -->
<g id="edge2" class="edge">
<title>Node5&#45;&gt;Node7</title>
<path fill="none" stroke="#191970" d="M467.4876,-198.4044C507.4921,-185.7016 559.3933,-169.2211 591.5654,-159.0053"/>
<polygon fill="#191970" stroke="#191970" points="466.3243,-195.1015 457.8525,-201.4639 468.4428,-201.7732 466.3243,-195.1015"/>
</g>
<!-- Node11 -->
<g id="node7" class="node">
<title>Node11</title>
<g id="a_node7"><a xlink:href="lnInclude_2TSUR3D_8H.html" target="_top" xlink:title="lnInclude/TSUR3D.H">
<polygon fill="none" stroke="#000000" points="173.5,-140 173.5,-159 283.5,-159 283.5,-140 173.5,-140"/>
<text text-anchor="middle" x="228.5" y="-147" font-family="Helvetica,sans-Serif" font-size="10.00" fill="#000000">lnInclude/TSUR3D.H</text>
</a>
</g>
</g>
<!-- Node5&#45;&gt;Node11 -->
<g id="edge6" class="edge">
<title>Node5&#45;&gt;Node11</title>
<path fill="none" stroke="#191970" d="M360.2472,-198.0003C325.894,-185.3538 281.7774,-169.1131 254.3203,-159.0053"/>
<polygon fill="#191970" stroke="#191970" points="359.0622,-201.2937 369.6556,-201.4639 361.4805,-194.7247 359.0622,-201.2937"/>
</g>
<!-- Node13 -->
<g id="node9" class="node">
<title>Node13</title>
<g id="a_node9"><a xlink:href="lnInclude_2VCSIII_8H.html" target="_top" xlink:title="lnInclude/VCSIII.H">
<polygon fill="none" stroke="#000000" points="302,-140 302,-159 401,-159 401,-140 302,-140"/>
<text text-anchor="middle" x="351.5" y="-147" font-family="Helvetica,sans-Serif" font-size="10.00" fill="#000000">lnInclude/VCSIII.H</text>
</a>
</g>
</g>
<!-- Node5&#45;&gt;Node13 -->
<g id="edge9" class="edge">
<title>Node5&#45;&gt;Node13</title>
<path fill="none" stroke="#191970" d="M390.2684,-193.5252C379.8848,-181.7336 367.7959,-168.0055 359.9141,-159.055"/>
<polygon fill="#191970" stroke="#191970" points="387.8764,-196.1048 397.112,-201.2967 393.1299,-191.4786 387.8764,-196.1048"/>
</g>
<!-- Node15 -->
<g id="node11" class="node">
<title>Node15</title>
<g id="a_node11"><a xlink:href="lnInclude_2VCSIV_8H.html" target="_top" xlink:title="lnInclude/VCSIV.H">
<polygon fill="none" stroke="#000000" points="419.5,-140 419.5,-159 519.5,-159 519.5,-140 419.5,-140"/>
<text text-anchor="middle" x="469.5" y="-147" font-family="Helvetica,sans-Serif" font-size="10.00" fill="#000000">lnInclude/VCSIV.H</text>
</a>
</g>
</g>
<!-- Node5&#45;&gt;Node15 -->
<g id="edge12" class="edge">
<title>Node5&#45;&gt;Node15</title>
<path fill="none" stroke="#191970" d="M430.7316,-193.5252C441.1152,-181.7336 453.2041,-168.0055 461.0859,-159.055"/>
<polygon fill="#191970" stroke="#191970" points="427.8701,-191.4786 423.888,-201.2967 433.1236,-196.1048 427.8701,-191.4786"/>
</g>
<!-- Node17 -->
<g id="node13" class="node">
<title>Node17</title>
<g id="a_node13"><a xlink:href="lnInclude_2UndulationRemovalModel_8C.html" target="_top" xlink:title="lnInclude/UndulationRemoval\lModel.C">
<polygon fill="none" stroke="#000000" points="723.5,-134.5 723.5,-164.5 867.5,-164.5 867.5,-134.5 723.5,-134.5"/>
<text text-anchor="start" x="731.5" y="-152.5" font-family="Helvetica,sans-Serif" font-size="10.00" fill="#000000">lnInclude/UndulationRemoval</text>
<text text-anchor="middle" x="795.5" y="-141.5" font-family="Helvetica,sans-Serif" font-size="10.00" fill="#000000">Model.C</text>
</a>
</g>
</g>
<!-- Node5&#45;&gt;Node17 -->
<g id="edge15" class="edge">
<title>Node5&#45;&gt;Node17</title>
<path fill="none" stroke="#191970" d="M492.7377,-203.0541C553.9496,-192.9279 639.5226,-178.5231 714.5,-165 717.3181,-164.4917 720.1902,-163.9683 723.0907,-163.4351"/>
<polygon fill="#191970" stroke="#191970" points="492.043,-199.6213 482.7472,-204.7046 493.184,-206.5277 492.043,-199.6213"/>
</g>
<!-- Node8 -->
<g id="node4" class="node">
<title>Node8</title>
<g id="a_node4"><a xlink:href="lnInclude_2makeFrontTrackingParcelUndulationRemovalModels_8H.html" target="_top" xlink:title="lnInclude/makeFrontTracking\lParcelUndulationRemovalModels.H">
<polygon fill="none" stroke="#000000" points="324.5,-67.5 324.5,-97.5 496.5,-97.5 496.5,-67.5 324.5,-67.5"/>
<text text-anchor="start" x="332.5" y="-85.5" font-family="Helvetica,sans-Serif" font-size="10.00" fill="#000000">lnInclude/makeFrontTracking</text>
<text text-anchor="middle" x="410.5" y="-74.5" font-family="Helvetica,sans-Serif" font-size="10.00" fill="#000000">ParcelUndulationRemovalModels.H</text>
</a>
</g>
</g>
<!-- Node7&#45;&gt;Node8 -->
<g id="edge3" class="edge">
<title>Node7&#45;&gt;Node8</title>
<path fill="none" stroke="#191970" d="M581.3451,-136.7494C546.1576,-125.5761 494.972,-109.3229 457.8073,-97.5218"/>
<polygon fill="#191970" stroke="#191970" points="580.6785,-140.2099 591.2688,-139.9005 582.7971,-133.5382 580.6785,-140.2099"/>
</g>
<!-- Node10 -->
<g id="node6" class="node">
<title>Node10</title>
<g id="a_node6"><a xlink:href="lnInclude_2NoUndulationRemoval_8C.html" target="_top" xlink:title="lnInclude/NoUndulationRemoval.C">
<polygon fill="none" stroke="#000000" points="633,-73 633,-92 800,-92 800,-73 633,-73"/>
<text text-anchor="middle" x="716.5" y="-80" font-family="Helvetica,sans-Serif" font-size="10.00" fill="#000000">lnInclude/NoUndulationRemoval.C</text>
</a>
</g>
</g>
<!-- Node7&#45;&gt;Node10 -->
<g id="edge5" class="edge">
<title>Node7&#45;&gt;Node10</title>
<path fill="none" stroke="#191970" d="M643.4632,-134.0102C661.8154,-121.067 687.4051,-103.0195 702.9141,-92.0817"/>
<polygon fill="#191970" stroke="#191970" points="641.266,-131.2768 635.1112,-139.9005 645.3005,-136.9973 641.266,-131.2768"/>
</g>
<!-- Node9 -->
<g id="node5" class="node">
<title>Node9</title>
<g id="a_node5"><a xlink:href="lnInclude_2makeFrontTrackingParcelSubmodels_8C.html" target="_top" xlink:title="lnInclude/makeFrontTracking\lParcelSubmodels.C">
<polygon fill="none" stroke="#000000" points="339,-.5 339,-30.5 482,-30.5 482,-.5 339,-.5"/>
<text text-anchor="start" x="347" y="-18.5" font-family="Helvetica,sans-Serif" font-size="10.00" fill="#000000">lnInclude/makeFrontTracking</text>
<text text-anchor="middle" x="410.5" y="-7.5" font-family="Helvetica,sans-Serif" font-size="10.00" fill="#000000">ParcelSubmodels.C</text>
</a>
</g>
</g>
<!-- Node8&#45;&gt;Node9 -->
<g id="edge4" class="edge">
<title>Node8&#45;&gt;Node9</title>
<path fill="none" stroke="#191970" d="M410.5,-57.0249C410.5,-48.128 410.5,-38.4287 410.5,-30.6432"/>
<polygon fill="#191970" stroke="#191970" points="407.0001,-57.2966 410.5,-67.2967 414.0001,-57.2967 407.0001,-57.2966"/>
</g>
<!-- Node11&#45;&gt;Node8 -->
<g id="edge7" class="edge">
<title>Node11&#45;&gt;Node8</title>
<path fill="none" stroke="#191970" d="M264.3152,-136.3153C294.6222,-125.1583 338.0507,-109.1709 369.6946,-97.5218"/>
<polygon fill="#191970" stroke="#191970" points="262.7513,-133.1613 254.5762,-139.9005 265.1696,-139.7303 262.7513,-133.1613"/>
</g>
<!-- Node12 -->
<g id="node8" class="node">
<title>Node12</title>
<g id="a_node8"><a xlink:href="lnInclude_2TSUR3D_8C.html" target="_top" xlink:title="lnInclude/TSUR3D.C">
<polygon fill="none" stroke="#000000" points="78.5,-73 78.5,-92 188.5,-92 188.5,-73 78.5,-73"/>
<text text-anchor="middle" x="133.5" y="-80" font-family="Helvetica,sans-Serif" font-size="10.00" fill="#000000">lnInclude/TSUR3D.C</text>
</a>
</g>
</g>
<!-- Node11&#45;&gt;Node12 -->
<g id="edge8" class="edge">
<title>Node11&#45;&gt;Node12</title>
<path fill="none" stroke="#191970" d="M206.5368,-134.0102C188.1846,-121.067 162.5949,-103.0195 147.0859,-92.0817"/>
<polygon fill="#191970" stroke="#191970" points="204.6995,-136.9973 214.8888,-139.9005 208.734,-131.2768 204.6995,-136.9973"/>
</g>
<!-- Node13&#45;&gt;Node8 -->
<g id="edge10" class="edge">
<title>Node13&#45;&gt;Node8</title>
<path fill="none" stroke="#191970" d="M366.5937,-132.3597C376.0694,-121.5992 388.1733,-107.8541 397.2719,-97.5218"/>
<polygon fill="#191970" stroke="#191970" points="363.9354,-130.0825 359.9533,-139.9005 369.1888,-134.7087 363.9354,-130.0825"/>
</g>
<!-- Node14 -->
<g id="node10" class="node">
<title>Node14</title>
<g id="a_node10"><a xlink:href="lnInclude_2VCSIII_8C.html" target="_top" xlink:title="lnInclude/VCSIII.C">
<polygon fill="none" stroke="#000000" points="207,-73 207,-92 306,-92 306,-73 207,-73"/>
<text text-anchor="middle" x="256.5" y="-80" font-family="Helvetica,sans-Serif" font-size="10.00" fill="#000000">lnInclude/VCSIII.C</text>
</a>
</g>
</g>
<!-- Node13&#45;&gt;Node14 -->
<g id="edge11" class="edge">
<title>Node13&#45;&gt;Node14</title>
<path fill="none" stroke="#191970" d="M329.5368,-134.0102C311.1846,-121.067 285.5949,-103.0195 270.0859,-92.0817"/>
<polygon fill="#191970" stroke="#191970" points="327.6995,-136.9973 337.8888,-139.9005 331.734,-131.2768 327.6995,-136.9973"/>
</g>
<!-- Node15&#45;&gt;Node8 -->
<g id="edge13" class="edge">
<title>Node15&#45;&gt;Node8</title>
<path fill="none" stroke="#191970" d="M454.4063,-132.3597C444.9306,-121.5992 432.8267,-107.8541 423.7281,-97.5218"/>
<polygon fill="#191970" stroke="#191970" points="451.8112,-134.7087 461.0467,-139.9005 457.0646,-130.0825 451.8112,-134.7087"/>
</g>
<!-- Node16 -->
<g id="node12" class="node">
<title>Node16</title>
<g id="a_node12"><a xlink:href="lnInclude_2VCSIV_8C.html" target="_top" xlink:title="lnInclude/VCSIV.C">
<polygon fill="none" stroke="#000000" points="514.5,-73 514.5,-92 614.5,-92 614.5,-73 514.5,-73"/>
<text text-anchor="middle" x="564.5" y="-80" font-family="Helvetica,sans-Serif" font-size="10.00" fill="#000000">lnInclude/VCSIV.C</text>
</a>
</g>
</g>
<!-- Node15&#45;&gt;Node16 -->
<g id="edge14" class="edge">
<title>Node15&#45;&gt;Node16</title>
<path fill="none" stroke="#191970" d="M491.4632,-134.0102C509.8154,-121.067 535.4051,-103.0195 550.9141,-92.0817"/>
<polygon fill="#191970" stroke="#191970" points="489.266,-131.2768 483.1112,-139.9005 493.3005,-136.9973 489.266,-131.2768"/>
</g>
</g>
</svg>
