<?xml version="1.0" encoding="UTF-8" standalone="no"?>
<!DOCTYPE svg PUBLIC "-//W3C//DTD SVG 1.1//EN"
 "http://www.w3.org/Graphics/SVG/1.1/DTD/svg11.dtd">
<!-- Generated by graphviz version 2.40.1 (20161225.0304)
 -->
<!-- Title: lnInclude/BaseF2FModel.H Pages: 1 -->
<svg width="457pt" height="218pt"
 viewBox="0.00 0.00 456.50 218.00" xmlns="http://www.w3.org/2000/svg" xmlns:xlink="http://www.w3.org/1999/xlink">
<g id="graph0" class="graph" transform="scale(1 1) rotate(0) translate(4 214)">
<title>lnInclude/BaseF2FModel.H</title>
<!-- Node27 -->
<g id="node1" class="node">
<title>Node27</title>
<polygon fill="#bfbfbf" stroke="#000000" points="130,-190.5 130,-209.5 265,-209.5 265,-190.5 130,-190.5"/>
<text text-anchor="middle" x="197.5" y="-197.5" font-family="Helvetica,sans-Serif" font-size="10.00" fill="#000000">lnInclude/BaseF2FModel.H</text>
</g>
<!-- Node28 -->
<g id="node2" class="node">
<title>Node28</title>
<g id="a_node2"><a xlink:href="lnInclude_2BaseF2FModel_8C.html" target="_top" xlink:title="lnInclude/BaseF2FModel.C">
<polygon fill="none" stroke="#000000" points="0,-134.5 0,-153.5 135,-153.5 135,-134.5 0,-134.5"/>
<text text-anchor="middle" x="67.5" y="-141.5" font-family="Helvetica,sans-Serif" font-size="10.00" fill="#000000">lnInclude/BaseF2FModel.C</text>
</a>
</g>
</g>
<!-- Node27&#45;&gt;Node28 -->
<g id="edge1" class="edge">
<title>Node27&#45;&gt;Node28</title>
<path fill="none" stroke="#191970" d="M165.8898,-186.3833C142.2465,-176.1985 110.5124,-162.5284 89.5562,-153.5011"/>
<polygon fill="#191970" stroke="#191970" points="164.5834,-189.6314 175.1522,-190.3733 167.3528,-183.2025 164.5834,-189.6314"/>
</g>
<!-- Node29 -->
<g id="node3" class="node">
<title>Node29</title>
<g id="a_node3"><a xlink:href="lnInclude_2CPT_8H.html" target="_top" xlink:title="lnInclude/CPT.H">
<polygon fill="none" stroke="#000000" points="153,-134.5 153,-153.5 242,-153.5 242,-134.5 153,-134.5"/>
<text text-anchor="middle" x="197.5" y="-141.5" font-family="Helvetica,sans-Serif" font-size="10.00" fill="#000000">lnInclude/CPT.H</text>
</a>
</g>
</g>
<!-- Node27&#45;&gt;Node29 -->
<g id="edge2" class="edge">
<title>Node27&#45;&gt;Node29</title>
<path fill="none" stroke="#191970" d="M197.5,-180.1575C197.5,-171.155 197.5,-160.9199 197.5,-153.6427"/>
<polygon fill="#191970" stroke="#191970" points="194.0001,-180.2455 197.5,-190.2455 201.0001,-180.2456 194.0001,-180.2455"/>
</g>
<!-- Node33 -->
<g id="node7" class="node">
<title>Node33</title>
<g id="a_node7"><a xlink:href="lnInclude_2Poisson_8H.html" target="_top" xlink:title="lnInclude/Poisson.H">
<polygon fill="none" stroke="#000000" points="260.5,-134.5 260.5,-153.5 364.5,-153.5 364.5,-134.5 260.5,-134.5"/>
<text text-anchor="middle" x="312.5" y="-141.5" font-family="Helvetica,sans-Serif" font-size="10.00" fill="#000000">lnInclude/Poisson.H</text>
</a>
</g>
</g>
<!-- Node27&#45;&gt;Node33 -->
<g id="edge6" class="edge">
<title>Node27&#45;&gt;Node33</title>
<path fill="none" stroke="#191970" d="M226.3033,-185.9741C247.125,-175.8348 274.6978,-162.408 292.9888,-153.5011"/>
<polygon fill="#191970" stroke="#191970" points="224.7276,-182.8484 217.2692,-190.3733 227.7922,-189.1419 224.7276,-182.8484"/>
</g>
<!-- Node30 -->
<g id="node4" class="node">
<title>Node30</title>
<g id="a_node4"><a xlink:href="lnInclude_2CPT_8C.html" target="_top" xlink:title="lnInclude/CPT.C">
<polygon fill="none" stroke="#000000" points="76,-73 76,-92 165,-92 165,-73 76,-73"/>
<text text-anchor="middle" x="120.5" y="-80" font-family="Helvetica,sans-Serif" font-size="10.00" fill="#000000">lnInclude/CPT.C</text>
</a>
</g>
</g>
<!-- Node29&#45;&gt;Node30 -->
<g id="edge3" class="edge">
<title>Node29&#45;&gt;Node30</title>
<path fill="none" stroke="#191970" d="M177.6542,-128.1491C163.347,-116.722 144.5076,-101.6749 132.4468,-92.0419"/>
<polygon fill="#191970" stroke="#191970" points="175.4708,-130.8846 185.4688,-134.3906 179.8394,-125.415 175.4708,-130.8846"/>
</g>
<!-- Node31 -->
<g id="node5" class="node">
<title>Node31</title>
<g id="a_node5"><a xlink:href="lnInclude_2makeFrontTrackingParcelFrontToFieldModels_8H.html" target="_top" xlink:title="lnInclude/makeFrontTracking\lParcelFrontToFieldModels.H">
<polygon fill="none" stroke="#000000" points="183,-67.5 183,-97.5 326,-97.5 326,-67.5 183,-67.5"/>
<text text-anchor="start" x="191" y="-85.5" font-family="Helvetica,sans-Serif" font-size="10.00" fill="#000000">lnInclude/makeFrontTracking</text>
<text text-anchor="middle" x="254.5" y="-74.5" font-family="Helvetica,sans-Serif" font-size="10.00" fill="#000000">ParcelFrontToFieldModels.H</text>
</a>
</g>
</g>
<!-- Node29&#45;&gt;Node31 -->
<g id="edge4" class="edge">
<title>Node29&#45;&gt;Node31</title>
<path fill="none" stroke="#191970" d="M213.3197,-126.9314C221.8643,-117.7122 232.3191,-106.4321 240.5562,-97.5446"/>
<polygon fill="#191970" stroke="#191970" points="210.6369,-124.6771 206.4063,-134.3906 215.7709,-129.4355 210.6369,-124.6771"/>
</g>
<!-- Node32 -->
<g id="node6" class="node">
<title>Node32</title>
<g id="a_node6"><a xlink:href="lnInclude_2makeFrontTrackingParcelSubmodels_8C.html" target="_top" xlink:title="lnInclude/makeFrontTracking\lParcelSubmodels.C">
<polygon fill="none" stroke="#000000" points="183,-.5 183,-30.5 326,-30.5 326,-.5 183,-.5"/>
<text text-anchor="start" x="191" y="-18.5" font-family="Helvetica,sans-Serif" font-size="10.00" fill="#000000">lnInclude/makeFrontTracking</text>
<text text-anchor="middle" x="254.5" y="-7.5" font-family="Helvetica,sans-Serif" font-size="10.00" fill="#000000">ParcelSubmodels.C</text>
</a>
</g>
</g>
<!-- Node31&#45;&gt;Node32 -->
<g id="edge5" class="edge">
<title>Node31&#45;&gt;Node32</title>
<path fill="none" stroke="#191970" d="M254.5,-57.0249C254.5,-48.128 254.5,-38.4287 254.5,-30.6432"/>
<polygon fill="#191970" stroke="#191970" points="251.0001,-57.2966 254.5,-67.2967 258.0001,-57.2967 251.0001,-57.2966"/>
</g>
<!-- Node33&#45;&gt;Node31 -->
<g id="edge7" class="edge">
<title>Node33&#45;&gt;Node31</title>
<path fill="none" stroke="#191970" d="M296.4027,-126.9314C287.7082,-117.7122 277.0701,-106.4321 268.6884,-97.5446"/>
<polygon fill="#191970" stroke="#191970" points="294.0302,-129.5169 303.4375,-134.3906 299.1227,-124.7142 294.0302,-129.5169"/>
</g>
<!-- Node34 -->
<g id="node8" class="node">
<title>Node34</title>
<g id="a_node8"><a xlink:href="lnInclude_2Poisson_8C.html" target="_top" xlink:title="lnInclude/Poisson.C">
<polygon fill="none" stroke="#000000" points="344.5,-73 344.5,-92 448.5,-92 448.5,-73 344.5,-73"/>
<text text-anchor="middle" x="396.5" y="-80" font-family="Helvetica,sans-Serif" font-size="10.00" fill="#000000">lnInclude/Poisson.C</text>
</a>
</g>
</g>
<!-- Node33&#45;&gt;Node34 -->
<g id="edge8" class="edge">
<title>Node33&#45;&gt;Node34</title>
<path fill="none" stroke="#191970" d="M333.7137,-128.4685C349.373,-117.0037 370.1869,-101.765 383.4672,-92.0419"/>
<polygon fill="#191970" stroke="#191970" points="331.626,-125.6592 325.625,-134.3906 335.7612,-131.3072 331.626,-125.6592"/>
</g>
</g>
</svg>
