<?xml version="1.0" encoding="UTF-8" standalone="no"?>
<!DOCTYPE svg PUBLIC "-//W3C//DTD SVG 1.1//EN"
 "http://www.w3.org/Graphics/SVG/1.1/DTD/svg11.dtd">
<!-- Generated by graphviz version 2.40.1 (20161225.0304)
 -->
<!-- Title: lnInclude/bubbleData.C Pages: 1 -->
<svg width="1700pt" height="140pt"
 viewBox="0.00 0.00 1699.50 140.00" xmlns="http://www.w3.org/2000/svg" xmlns:xlink="http://www.w3.org/1999/xlink">
<g id="graph0" class="graph" transform="scale(1 1) rotate(0) translate(4 136)">
<title>lnInclude/bubbleData.C</title>
<!-- Node0 -->
<g id="node1" class="node">
<title>Node0</title>
<polygon fill="#bfbfbf" stroke="#000000" points="826,-112.5 826,-131.5 945,-131.5 945,-112.5 826,-112.5"/>
<text text-anchor="middle" x="885.5" y="-119.5" font-family="Helvetica,sans-Serif" font-size="10.00" fill="#000000">lnInclude/bubbleData.C</text>
</g>
<!-- Node1 -->
<g id="node2" class="node">
<title>Node1</title>
<g id="a_node2"><a xlink:href="lnInclude_2bubbleData_8H.html" target="_top" xlink:title="bubbleData.H">
<polygon fill="none" stroke="#000000" points="847,-56.5 847,-75.5 924,-75.5 924,-56.5 847,-56.5"/>
<text text-anchor="middle" x="885.5" y="-63.5" font-family="Helvetica,sans-Serif" font-size="10.00" fill="#000000">bubbleData.H</text>
</a>
</g>
</g>
<!-- Node0&#45;&gt;Node1 -->
<g id="edge1" class="edge">
<title>Node0&#45;&gt;Node1</title>
<path fill="none" stroke="#191970" d="M885.5,-112.2455C885.5,-104.9382 885.5,-94.6944 885.5,-85.7046"/>
<polygon fill="#191970" stroke="#191970" points="889.0001,-85.6426 885.5,-75.6427 882.0001,-85.6427 889.0001,-85.6426"/>
</g>
<!-- Node2 -->
<g id="node3" class="node">
<title>Node2</title>
<polygon fill="none" stroke="#bfbfbf" points="0,-.5 0,-19.5 59,-19.5 59,-.5 0,-.5"/>
<text text-anchor="middle" x="29.5" y="-7.5" font-family="Helvetica,sans-Serif" font-size="10.00" fill="#000000">fvMesh.H</text>
</g>
<!-- Node1&#45;&gt;Node2 -->
<g id="edge2" class="edge">
<title>Node1&#45;&gt;Node2</title>
<path fill="none" stroke="#191970" d="M846.9549,-64.8265C709.1987,-60.4806 240.8024,-44.3588 69.3191,-19.7649"/>
<polygon fill="#191970" stroke="#191970" points="69.5949,-16.2673 59.1867,-18.2471 68.5578,-23.19 69.5949,-16.2673"/>
</g>
<!-- Node3 -->
<g id="node4" class="node">
<title>Node3</title>
<polygon fill="none" stroke="#bfbfbf" points="77.5,-.5 77.5,-19.5 143.5,-19.5 143.5,-.5 77.5,-.5"/>
<text text-anchor="middle" x="110.5" y="-7.5" font-family="Helvetica,sans-Serif" font-size="10.00" fill="#000000">fileName.H</text>
</g>
<!-- Node1&#45;&gt;Node3 -->
<g id="edge3" class="edge">
<title>Node1&#45;&gt;Node3</title>
<path fill="none" stroke="#191970" d="M846.927,-64.4525C718.847,-59.1804 307.589,-41.1467 154.0396,-19.9551"/>
<polygon fill="#191970" stroke="#191970" points="154.2671,-16.4517 143.87,-18.4894 153.2685,-23.3802 154.2671,-16.4517"/>
</g>
<!-- Node4 -->
<g id="node5" class="node">
<title>Node4</title>
<polygon fill="none" stroke="#bfbfbf" points="162,-.5 162,-19.5 231,-19.5 231,-.5 162,-.5"/>
<text text-anchor="middle" x="196.5" y="-7.5" font-family="Helvetica,sans-Serif" font-size="10.00" fill="#000000">pointField.H</text>
</g>
<!-- Node1&#45;&gt;Node4 -->
<g id="edge4" class="edge">
<title>Node1&#45;&gt;Node4</title>
<path fill="none" stroke="#191970" d="M846.745,-65.2899C747.5839,-63.036 476.5243,-54.1254 241.5747,-19.9424"/>
<polygon fill="#191970" stroke="#191970" points="241.877,-16.4492 231.4736,-18.4537 240.8564,-23.3744 241.877,-16.4492"/>
</g>
<!-- Node5 -->
<g id="node6" class="node">
<title>Node5</title>
<polygon fill="none" stroke="#bfbfbf" points="249.5,-.5 249.5,-19.5 297.5,-19.5 297.5,-.5 249.5,-.5"/>
<text text-anchor="middle" x="273.5" y="-7.5" font-family="Helvetica,sans-Serif" font-size="10.00" fill="#000000">point.H</text>
</g>
<!-- Node1&#45;&gt;Node5 -->
<g id="edge5" class="edge">
<title>Node1&#45;&gt;Node5</title>
<path fill="none" stroke="#191970" d="M846.6139,-64.0035C737.4559,-58.2309 428.8224,-40.7135 307.6128,-19.7652"/>
<polygon fill="#191970" stroke="#191970" points="307.9669,-16.2722 297.5018,-17.925 306.7134,-23.1591 307.9669,-16.2722"/>
</g>
<!-- Node6 -->
<g id="node7" class="node">
<title>Node6</title>
<polygon fill="none" stroke="#bfbfbf" points="315.5,-.5 315.5,-19.5 371.5,-19.5 371.5,-.5 315.5,-.5"/>
<text text-anchor="middle" x="343.5" y="-7.5" font-family="Helvetica,sans-Serif" font-size="10.00" fill="#000000">DLList.H</text>
</g>
<!-- Node1&#45;&gt;Node6 -->
<g id="edge6" class="edge">
<title>Node1&#45;&gt;Node6</title>
<path fill="none" stroke="#191970" d="M846.8685,-64.7601C763.494,-61.5967 560.4468,-51.2708 381.7742,-19.9513"/>
<polygon fill="#191970" stroke="#191970" points="382.1263,-16.459 371.6676,-18.1523 380.8995,-23.3507 382.1263,-16.459"/>
</g>
<!-- Node7 -->
<g id="node8" class="node">
<title>Node7</title>
<polygon fill="none" stroke="#bfbfbf" points="390,-.5 390,-19.5 475,-19.5 475,-.5 390,-.5"/>
<text text-anchor="middle" x="432.5" y="-7.5" font-family="Helvetica,sans-Serif" font-size="10.00" fill="#000000">sphereToCell.H</text>
</g>
<!-- Node1&#45;&gt;Node7 -->
<g id="edge7" class="edge">
<title>Node1&#45;&gt;Node7</title>
<path fill="none" stroke="#191970" d="M846.8372,-62.6097C776.7041,-56.2359 623.6563,-41.3001 484.9899,-20.1372"/>
<polygon fill="#191970" stroke="#191970" points="485.4485,-16.6666 475.0321,-18.6027 484.3824,-23.585 485.4485,-16.6666"/>
</g>
<!-- Node8 -->
<g id="node9" class="node">
<title>Node8</title>
<polygon fill="none" stroke="#bfbfbf" points="493,-.5 493,-19.5 550,-19.5 550,-.5 493,-.5"/>
<text text-anchor="middle" x="521.5" y="-7.5" font-family="Helvetica,sans-Serif" font-size="10.00" fill="#000000">cellSet.H</text>
</g>
<!-- Node1&#45;&gt;Node8 -->
<g id="edge8" class="edge">
<title>Node1&#45;&gt;Node8</title>
<path fill="none" stroke="#191970" d="M846.9754,-62.1495C787.3595,-55.8502 669.0404,-41.9926 559.9496,-20.1095"/>
<polygon fill="#191970" stroke="#191970" points="560.5962,-16.6694 550.0992,-18.1062 559.2011,-23.529 560.5962,-16.6694"/>
</g>
<!-- Node9 -->
<g id="node10" class="node">
<title>Node9</title>
<polygon fill="none" stroke="#bfbfbf" points="568,-.5 568,-19.5 651,-19.5 651,-.5 568,-.5"/>
<text text-anchor="middle" x="609.5" y="-7.5" font-family="Helvetica,sans-Serif" font-size="10.00" fill="#000000">simpleMatrix.H</text>
</g>
<!-- Node1&#45;&gt;Node9 -->
<g id="edge9" class="edge">
<title>Node1&#45;&gt;Node9</title>
<path fill="none" stroke="#191970" d="M846.8328,-58.1545C798.3303,-48.3134 715.002,-31.4062 661.0986,-20.4693"/>
<polygon fill="#191970" stroke="#191970" points="661.5567,-16.991 651.0604,-18.4325 660.1647,-23.8512 661.5567,-16.991"/>
</g>
<!-- Node10 -->
<g id="node11" class="node">
<title>Node10</title>
<polygon fill="none" stroke="#bfbfbf" points="669,-.5 669,-19.5 800,-19.5 800,-.5 669,-.5"/>
<text text-anchor="middle" x="734.5" y="-7.5" font-family="Helvetica,sans-Serif" font-size="10.00" fill="#000000">mathematicalConstants.H</text>
</g>
<!-- Node1&#45;&gt;Node10 -->
<g id="edge10" class="edge">
<title>Node1&#45;&gt;Node10</title>
<path fill="none" stroke="#191970" d="M859.5422,-56.3733C834.7593,-47.1822 797.2254,-33.2624 769.746,-23.0713"/>
<polygon fill="#191970" stroke="#191970" points="770.7121,-19.6968 760.1191,-19.5011 768.2781,-26.26 770.7121,-19.6968"/>
</g>
<!-- Node11 -->
<g id="node12" class="node">
<title>Node11</title>
<polygon fill="none" stroke="#bfbfbf" points="818.5,-.5 818.5,-19.5 874.5,-19.5 874.5,-.5 818.5,-.5"/>
<text text-anchor="middle" x="846.5" y="-7.5" font-family="Helvetica,sans-Serif" font-size="10.00" fill="#000000">fvCFD.H</text>
</g>
<!-- Node1&#45;&gt;Node11 -->
<g id="edge11" class="edge">
<title>Node1&#45;&gt;Node11</title>
<path fill="none" stroke="#191970" d="M878.7067,-56.2455C873.2822,-48.4564 865.5339,-37.3308 858.9967,-27.9439"/>
<polygon fill="#191970" stroke="#191970" points="861.8025,-25.8485 853.2154,-19.6427 856.0583,-29.849 861.8025,-25.8485"/>
</g>
<!-- Node12 -->
<g id="node13" class="node">
<title>Node12</title>
<polygon fill="none" stroke="#bfbfbf" points="892.5,-.5 892.5,-19.5 958.5,-19.5 958.5,-.5 892.5,-.5"/>
<text text-anchor="middle" x="925.5" y="-7.5" font-family="Helvetica,sans-Serif" font-size="10.00" fill="#000000">IFstream.H</text>
</g>
<!-- Node1&#45;&gt;Node12 -->
<g id="edge12" class="edge">
<title>Node1&#45;&gt;Node12</title>
<path fill="none" stroke="#191970" d="M892.4675,-56.2455C898.0311,-48.4564 905.978,-37.3308 912.6829,-27.9439"/>
<polygon fill="#191970" stroke="#191970" points="915.648,-29.8144 918.6124,-19.6427 909.9519,-25.7457 915.648,-29.8144"/>
</g>
<!-- Node13 -->
<g id="node14" class="node">
<title>Node13</title>
<polygon fill="none" stroke="#bfbfbf" points="977,-.5 977,-19.5 1048,-19.5 1048,-.5 977,-.5"/>
<text text-anchor="middle" x="1012.5" y="-7.5" font-family="Helvetica,sans-Serif" font-size="10.00" fill="#000000">OFstream.H</text>
</g>
<!-- Node1&#45;&gt;Node13 -->
<g id="edge13" class="edge">
<title>Node1&#45;&gt;Node13</title>
<path fill="none" stroke="#191970" d="M907.3321,-56.3733C927.8103,-47.3435 958.6399,-33.7494 981.6319,-23.6111"/>
<polygon fill="#191970" stroke="#191970" points="983.215,-26.7383 990.9528,-19.5011 980.3907,-20.3333 983.215,-26.7383"/>
</g>
<!-- Node14 -->
<g id="node15" class="node">
<title>Node14</title>
<polygon fill="none" stroke="#bfbfbf" points="1066,-.5 1066,-19.5 1153,-19.5 1153,-.5 1066,-.5"/>
<text text-anchor="middle" x="1109.5" y="-7.5" font-family="Helvetica,sans-Serif" font-size="10.00" fill="#000000">IStringStream.H</text>
</g>
<!-- Node1&#45;&gt;Node14 -->
<g id="edge14" class="edge">
<title>Node1&#45;&gt;Node14</title>
<path fill="none" stroke="#191970" d="M923.7525,-56.4369C961.8467,-46.9133 1020.4313,-32.2672 1061.5987,-21.9753"/>
<polygon fill="#191970" stroke="#191970" points="1062.5528,-25.3446 1071.4053,-19.5237 1060.855,-18.5536 1062.5528,-25.3446"/>
</g>
<!-- Node15 -->
<g id="node16" class="node">
<title>Node15</title>
<polygon fill="none" stroke="#bfbfbf" points="1171.5,-.5 1171.5,-19.5 1263.5,-19.5 1263.5,-.5 1171.5,-.5"/>
<text text-anchor="middle" x="1217.5" y="-7.5" font-family="Helvetica,sans-Serif" font-size="10.00" fill="#000000">OStringStream.H</text>
</g>
<!-- Node1&#45;&gt;Node15 -->
<g id="edge15" class="edge">
<title>Node1&#45;&gt;Node15</title>
<path fill="none" stroke="#191970" d="M924.0693,-59.786C975.7331,-51.4204 1070.5255,-35.9245 1161.3819,-20.1759"/>
<polygon fill="#191970" stroke="#191970" points="1162.0422,-23.6137 1171.2956,-18.4537 1160.8441,-16.717 1162.0422,-23.6137"/>
</g>
<!-- Node16 -->
<g id="node17" class="node">
<title>Node16</title>
<polygon fill="none" stroke="#bfbfbf" points="1281.5,-.5 1281.5,-19.5 1331.5,-19.5 1331.5,-.5 1281.5,-.5"/>
<text text-anchor="middle" x="1306.5" y="-7.5" font-family="Helvetica,sans-Serif" font-size="10.00" fill="#000000">fstream</text>
</g>
<!-- Node1&#45;&gt;Node16 -->
<g id="edge16" class="edge">
<title>Node1&#45;&gt;Node16</title>
<path fill="none" stroke="#191970" d="M924.017,-63.5708C992.2793,-58.8024 1139.0052,-46.4704 1271.4524,-19.9225"/>
<polygon fill="#191970" stroke="#191970" points="1272.2675,-23.3284 1281.3676,-17.9026 1270.8701,-16.4693 1272.2675,-23.3284"/>
</g>
<!-- Node17 -->
<g id="node18" class="node">
<title>Node17</title>
<polygon fill="none" stroke="#bfbfbf" points="1349.5,-.5 1349.5,-19.5 1403.5,-19.5 1403.5,-.5 1349.5,-.5"/>
<text text-anchor="middle" x="1376.5" y="-7.5" font-family="Helvetica,sans-Serif" font-size="10.00" fill="#000000">iostream</text>
</g>
<!-- Node1&#45;&gt;Node17 -->
<g id="edge17" class="edge">
<title>Node1&#45;&gt;Node17</title>
<path fill="none" stroke="#191970" d="M924.1659,-64.3126C1001.4271,-60.4642 1180.4148,-49.1586 1339.5227,-19.8961"/>
<polygon fill="#191970" stroke="#191970" points="1340.302,-23.3111 1349.4892,-18.0343 1339.0166,-16.4301 1340.302,-23.3111"/>
</g>
<!-- Node18 -->
<g id="node19" class="node">
<title>Node18</title>
<polygon fill="none" stroke="#bfbfbf" points="1422,-.5 1422,-19.5 1463,-19.5 1463,-.5 1422,-.5"/>
<text text-anchor="middle" x="1442.5" y="-7.5" font-family="Helvetica,sans-Serif" font-size="10.00" fill="#000000">string</text>
</g>
<!-- Node1&#45;&gt;Node18 -->
<g id="edge18" class="edge">
<title>Node1&#45;&gt;Node18</title>
<path fill="none" stroke="#191970" d="M924.2702,-63.7997C1026.3389,-57.8243 1301.6175,-40.4822 1411.859,-19.5972"/>
<polygon fill="#191970" stroke="#191970" points="1412.5713,-23.0241 1421.6909,-17.6311 1411.1986,-16.16 1412.5713,-23.0241"/>
</g>
<!-- Node19 -->
<g id="node20" class="node">
<title>Node19</title>
<polygon fill="none" stroke="#bfbfbf" points="1481.5,-.5 1481.5,-19.5 1525.5,-19.5 1525.5,-.5 1481.5,-.5"/>
<text text-anchor="middle" x="1503.5" y="-7.5" font-family="Helvetica,sans-Serif" font-size="10.00" fill="#000000">cmath</text>
</g>
<!-- Node1&#45;&gt;Node19 -->
<g id="edge19" class="edge">
<title>Node1&#45;&gt;Node19</title>
<path fill="none" stroke="#191970" d="M924.1314,-64.154C1034.222,-58.7116 1348.9691,-41.8424 1471.4483,-19.7216"/>
<polygon fill="#191970" stroke="#191970" points="1472.1442,-23.1521 1481.3132,-17.8437 1470.8351,-16.2756 1472.1442,-23.1521"/>
</g>
<!-- Node20 -->
<g id="node21" class="node">
<title>Node20</title>
<polygon fill="none" stroke="#bfbfbf" points="1543.5,-.5 1543.5,-19.5 1593.5,-19.5 1593.5,-.5 1543.5,-.5"/>
<text text-anchor="middle" x="1568.5" y="-7.5" font-family="Helvetica,sans-Serif" font-size="10.00" fill="#000000">iomanip</text>
</g>
<!-- Node1&#45;&gt;Node20 -->
<g id="edge20" class="edge">
<title>Node1&#45;&gt;Node20</title>
<path fill="none" stroke="#191970" d="M924.26,-64.3495C1042.3647,-59.1518 1397.4487,-42.2375 1533.2358,-19.8037"/>
<polygon fill="#191970" stroke="#191970" points="1534.1404,-23.199 1543.3939,-18.0392 1532.9424,-16.3023 1534.1404,-23.199"/>
</g>
<!-- Node21 -->
<g id="node22" class="node">
<title>Node21</title>
<g id="a_node22"><a xlink:href="lnInclude_2bubbleDataI_8H.html" target="_top" xlink:title="bubbleDataI.H">
<polygon fill="none" stroke="#000000" points="1611.5,-.5 1611.5,-19.5 1691.5,-19.5 1691.5,-.5 1611.5,-.5"/>
<text text-anchor="middle" x="1651.5" y="-7.5" font-family="Helvetica,sans-Serif" font-size="10.00" fill="#000000">bubbleDataI.H</text>
</a>
</g>
</g>
<!-- Node1&#45;&gt;Node21 -->
<g id="edge21" class="edge">
<title>Node1&#45;&gt;Node21</title>
<path fill="none" stroke="#191970" d="M924.156,-65.3829C1030.6095,-63.2878 1337.1074,-54.592 1601.2949,-19.9845"/>
<polygon fill="#191970" stroke="#191970" points="1602.0112,-23.4202 1611.4646,-18.6366 1601.0914,-16.4809 1602.0112,-23.4202"/>
</g>
</g>
</svg>
