<?xml version="1.0" encoding="UTF-8" standalone="no"?>
<!DOCTYPE svg PUBLIC "-//W3C//DTD SVG 1.1//EN"
 "http://www.w3.org/Graphics/SVG/1.1/DTD/svg11.dtd">
<!-- Generated by graphviz version 2.40.1 (20161225.0304)
 -->
<!-- Title: lnInclude/FrontTrackingCloudName.C Pages: 1 -->
<svg width="2026pt" height="319pt"
 viewBox="0.00 0.00 2026.00 319.00" xmlns="http://www.w3.org/2000/svg" xmlns:xlink="http://www.w3.org/1999/xlink">
<g id="graph0" class="graph" transform="scale(1 1) rotate(0) translate(4 315)">
<title>lnInclude/FrontTrackingCloudName.C</title>
<!-- Node0 -->
<g id="node1" class="node">
<title>Node0</title>
<polygon fill="#bfbfbf" stroke="#000000" points="850.5,-280.5 850.5,-310.5 994.5,-310.5 994.5,-280.5 850.5,-280.5"/>
<text text-anchor="start" x="858.5" y="-298.5" font-family="Helvetica,sans-Serif" font-size="10.00" fill="#000000">lnInclude/FrontTrackingCloud</text>
<text text-anchor="middle" x="922.5" y="-287.5" font-family="Helvetica,sans-Serif" font-size="10.00" fill="#000000">Name.C</text>
</g>
<!-- Node1 -->
<g id="node2" class="node">
<title>Node1</title>
<g id="a_node2"><a xlink:href="lnInclude_2FrontTrackingCloud_8H.html" target="_top" xlink:title="FrontTrackingCloud.H">
<polygon fill="none" stroke="#000000" points="866,-224.5 866,-243.5 979,-243.5 979,-224.5 866,-224.5"/>
<text text-anchor="middle" x="922.5" y="-231.5" font-family="Helvetica,sans-Serif" font-size="10.00" fill="#000000">FrontTrackingCloud.H</text>
</a>
</g>
</g>
<!-- Node0&#45;&gt;Node1 -->
<g id="edge1" class="edge">
<title>Node0&#45;&gt;Node1</title>
<path fill="none" stroke="#191970" d="M922.5,-280.2977C922.5,-272.3834 922.5,-262.6043 922.5,-254.0759"/>
<polygon fill="#191970" stroke="#191970" points="926.0001,-253.8469 922.5,-243.8469 919.0001,-253.847 926.0001,-253.8469"/>
</g>
<!-- Node2 -->
<g id="node3" class="node">
<title>Node2</title>
<polygon fill="none" stroke="#bfbfbf" points="162,-168.5 162,-187.5 247,-187.5 247,-168.5 162,-168.5"/>
<text text-anchor="middle" x="204.5" y="-175.5" font-family="Helvetica,sans-Serif" font-size="10.00" fill="#000000">volFieldsFwd.H</text>
</g>
<!-- Node1&#45;&gt;Node2 -->
<g id="edge2" class="edge">
<title>Node1&#45;&gt;Node2</title>
<path fill="none" stroke="#191970" d="M865.6962,-232.3942C752.0504,-228.6787 488.5034,-217.5391 257.2276,-187.9396"/>
<polygon fill="#191970" stroke="#191970" points="257.6488,-184.465 247.2823,-186.6527 256.7504,-191.4071 257.6488,-184.465"/>
</g>
<!-- Node3 -->
<g id="node4" class="node">
<title>Node3</title>
<polygon fill="none" stroke="#bfbfbf" points="265.5,-168.5 265.5,-187.5 357.5,-187.5 357.5,-168.5 265.5,-168.5"/>
<text text-anchor="middle" x="311.5" y="-175.5" font-family="Helvetica,sans-Serif" font-size="10.00" fill="#000000">fvMatricesFwd.H</text>
</g>
<!-- Node1&#45;&gt;Node3 -->
<g id="edge3" class="edge">
<title>Node1&#45;&gt;Node3</title>
<path fill="none" stroke="#191970" d="M865.876,-231.1398C766.8943,-225.7411 555.8169,-212.4582 367.7352,-188.0505"/>
<polygon fill="#191970" stroke="#191970" points="368.0324,-184.5596 357.6622,-186.7296 367.1222,-191.5002 368.0324,-184.5596"/>
</g>
<!-- Node4 -->
<g id="node5" class="node">
<title>Node4</title>
<polygon fill="none" stroke="#bfbfbf" points="376,-168.5 376,-187.5 485,-187.5 485,-168.5 376,-168.5"/>
<text text-anchor="middle" x="430.5" y="-175.5" font-family="Helvetica,sans-Serif" font-size="10.00" fill="#000000">dimensionedTypes.H</text>
</g>
<!-- Node1&#45;&gt;Node4 -->
<g id="edge4" class="edge">
<title>Node1&#45;&gt;Node4</title>
<path fill="none" stroke="#191970" d="M865.9778,-228.4993C784.7876,-220.4511 630.4946,-204.6097 499.5,-188 498.0365,-187.8144 496.556,-187.6239 495.0633,-187.4292"/>
<polygon fill="#191970" stroke="#191970" points="495.4647,-183.9518 485.0888,-186.0945 494.5362,-190.89 495.4647,-183.9518"/>
</g>
<!-- Node5 -->
<g id="node6" class="node">
<title>Node5</title>
<polygon fill="none" stroke="#bfbfbf" points="0,-112.5 0,-131.5 59,-131.5 59,-112.5 0,-112.5"/>
<text text-anchor="middle" x="29.5" y="-119.5" font-family="Helvetica,sans-Serif" font-size="10.00" fill="#000000">fvMesh.H</text>
</g>
<!-- Node1&#45;&gt;Node5 -->
<g id="edge5" class="edge">
<title>Node1&#45;&gt;Node5</title>
<path fill="none" stroke="#191970" d="M865.9711,-230.3058C772.2321,-223.6981 588.8607,-208.5954 527.5,-188 510.8796,-182.4215 510.206,-173.3167 493.5,-168 315.9489,-111.4945 257.4041,-161.8673 69.14,-131.801"/>
<polygon fill="#191970" stroke="#191970" points="69.6378,-128.3359 59.201,-130.1588 68.4967,-135.2423 69.6378,-128.3359"/>
</g>
<!-- Node6 -->
<g id="node7" class="node">
<title>Node6</title>
<polygon fill="none" stroke="#bfbfbf" points="1321.5,-168.5 1321.5,-187.5 1399.5,-187.5 1399.5,-168.5 1321.5,-168.5"/>
<text text-anchor="middle" x="1360.5" y="-175.5" font-family="Helvetica,sans-Serif" font-size="10.00" fill="#000000">fluidThermo.H</text>
</g>
<!-- Node1&#45;&gt;Node6 -->
<g id="edge6" class="edge">
<title>Node1&#45;&gt;Node6</title>
<path fill="none" stroke="#191970" d="M979.0931,-228.4475C1054.3018,-220.7924 1191.2347,-205.8932 1307.5,-188 1308.7754,-187.8037 1310.0671,-187.5996 1311.3696,-187.389"/>
<polygon fill="#191970" stroke="#191970" points="1312.2042,-190.7975 1321.4768,-185.6722 1311.0319,-183.8963 1312.2042,-190.7975"/>
</g>
<!-- Node7 -->
<g id="node8" class="node">
<title>Node7</title>
<polygon fill="none" stroke="#bfbfbf" points="1418,-168.5 1418,-187.5 1471,-187.5 1471,-168.5 1418,-168.5"/>
<text text-anchor="middle" x="1444.5" y="-175.5" font-family="Helvetica,sans-Serif" font-size="10.00" fill="#000000">Cloud.H</text>
</g>
<!-- Node1&#45;&gt;Node7 -->
<g id="edge7" class="edge">
<title>Node1&#45;&gt;Node7</title>
<path fill="none" stroke="#191970" d="M979.0724,-231.8864C1068.3041,-227.8435 1247.2031,-216.866 1407.8223,-187.8062"/>
<polygon fill="#191970" stroke="#191970" points="1408.6833,-191.2067 1417.8861,-185.9571 1407.4182,-184.322 1408.6833,-191.2067"/>
</g>
<!-- Node8 -->
<g id="node9" class="node">
<title>Node8</title>
<g id="a_node9"><a xlink:href="lnInclude_2bubbleData_8H.html" target="_top" xlink:title="bubbleData.H">
<polygon fill="none" stroke="#000000" points="884,-168.5 884,-187.5 961,-187.5 961,-168.5 884,-168.5"/>
<text text-anchor="middle" x="922.5" y="-175.5" font-family="Helvetica,sans-Serif" font-size="10.00" fill="#000000">bubbleData.H</text>
</a>
</g>
</g>
<!-- Node1&#45;&gt;Node8 -->
<g id="edge8" class="edge">
<title>Node1&#45;&gt;Node8</title>
<path fill="none" stroke="#191970" d="M922.5,-224.2455C922.5,-216.9382 922.5,-206.6944 922.5,-197.7046"/>
<polygon fill="#191970" stroke="#191970" points="926.0001,-197.6426 922.5,-187.6427 919.0001,-197.6427 926.0001,-197.6426"/>
</g>
<!-- Node9 -->
<g id="node10" class="node">
<title>Node9</title>
<polygon fill="none" stroke="#bfbfbf" points="77.5,-112.5 77.5,-131.5 143.5,-131.5 143.5,-112.5 77.5,-112.5"/>
<text text-anchor="middle" x="110.5" y="-119.5" font-family="Helvetica,sans-Serif" font-size="10.00" fill="#000000">fileName.H</text>
</g>
<!-- Node1&#45;&gt;Node9 -->
<g id="edge29" class="edge">
<title>Node1&#45;&gt;Node9</title>
<path fill="none" stroke="#191970" d="M865.9729,-229.1816C779.8896,-221.4275 620.1671,-205.2893 565.5,-188 547.3031,-182.245 545.7878,-173.4592 527.5,-168 370.1964,-121.0428 319.6384,-157.952 153.9278,-132.0144"/>
<polygon fill="#191970" stroke="#191970" points="154.3169,-128.5318 143.886,-130.3883 153.1979,-135.4418 154.3169,-128.5318"/>
</g>
<!-- Node10 -->
<g id="node11" class="node">
<title>Node10</title>
<polygon fill="none" stroke="#bfbfbf" points="162,-112.5 162,-131.5 231,-131.5 231,-112.5 162,-112.5"/>
<text text-anchor="middle" x="196.5" y="-119.5" font-family="Helvetica,sans-Serif" font-size="10.00" fill="#000000">pointField.H</text>
</g>
<!-- Node1&#45;&gt;Node10 -->
<g id="edge30" class="edge">
<title>Node1&#45;&gt;Node10</title>
<path fill="none" stroke="#191970" d="M865.8681,-231.6466C801.0506,-227.6338 692.38,-216.8481 603.5,-188 585.347,-182.108 583.7474,-173.5926 565.5,-168 429.6726,-126.3705 385.7772,-154.7991 241.1453,-131.8938"/>
<polygon fill="#191970" stroke="#191970" points="241.4484,-128.3968 231.0137,-130.2321 240.3154,-135.3045 241.4484,-128.3968"/>
</g>
<!-- Node11 -->
<g id="node12" class="node">
<title>Node11</title>
<polygon fill="none" stroke="#bfbfbf" points="249.5,-112.5 249.5,-131.5 297.5,-131.5 297.5,-112.5 249.5,-112.5"/>
<text text-anchor="middle" x="273.5" y="-119.5" font-family="Helvetica,sans-Serif" font-size="10.00" fill="#000000">point.H</text>
</g>
<!-- Node1&#45;&gt;Node11 -->
<g id="edge31" class="edge">
<title>Node1&#45;&gt;Node11</title>
<path fill="none" stroke="#191970" d="M865.7685,-230.0973C808.0809,-224.8917 716.7294,-213.2119 641.5,-188 623.4039,-181.9354 621.7184,-173.6866 603.5,-168 479.672,-129.3492 438.6187,-157.912 307.538,-131.867"/>
<polygon fill="#191970" stroke="#191970" points="308.0255,-128.394 297.5253,-129.8071 306.6149,-135.2504 308.0255,-128.394"/>
</g>
<!-- Node12 -->
<g id="node13" class="node">
<title>Node12</title>
<polygon fill="none" stroke="#bfbfbf" points="315.5,-112.5 315.5,-131.5 371.5,-131.5 371.5,-112.5 315.5,-112.5"/>
<text text-anchor="middle" x="343.5" y="-119.5" font-family="Helvetica,sans-Serif" font-size="10.00" fill="#000000">DLList.H</text>
</g>
<!-- Node1&#45;&gt;Node12 -->
<g id="edge32" class="edge">
<title>Node1&#45;&gt;Node12</title>
<path fill="none" stroke="#191970" d="M865.7732,-228.1029C815.7202,-221.7696 741.3217,-209.5757 679.5,-188 661.4806,-181.7113 659.671,-173.8362 641.5,-168 533.0595,-133.1712 497.2103,-154.102 381.6336,-131.9851"/>
<polygon fill="#191970" stroke="#191970" points="382.1834,-128.5261 371.6938,-130.0156 380.8228,-135.3926 382.1834,-128.5261"/>
</g>
<!-- Node13 -->
<g id="node14" class="node">
<title>Node13</title>
<polygon fill="none" stroke="#bfbfbf" points="390,-112.5 390,-131.5 475,-131.5 475,-112.5 390,-112.5"/>
<text text-anchor="middle" x="432.5" y="-119.5" font-family="Helvetica,sans-Serif" font-size="10.00" fill="#000000">sphereToCell.H</text>
</g>
<!-- Node1&#45;&gt;Node13 -->
<g id="edge33" class="edge">
<title>Node1&#45;&gt;Node13</title>
<path fill="none" stroke="#191970" d="M865.6669,-225.3996C823.8658,-218.0839 766.1083,-205.8871 717.5,-188 699.5889,-181.409 697.5364,-174.2397 679.5,-168 598.8233,-140.0898 572.4173,-147.8865 485.1467,-132.2472"/>
<polygon fill="#191970" stroke="#191970" points="485.5387,-128.7605 475.0694,-130.3865 484.2676,-135.6442 485.5387,-128.7605"/>
</g>
<!-- Node14 -->
<g id="node15" class="node">
<title>Node14</title>
<polygon fill="none" stroke="#bfbfbf" points="493,-112.5 493,-131.5 550,-131.5 550,-112.5 493,-112.5"/>
<text text-anchor="middle" x="521.5" y="-119.5" font-family="Helvetica,sans-Serif" font-size="10.00" fill="#000000">cellSet.H</text>
</g>
<!-- Node1&#45;&gt;Node14 -->
<g id="edge34" class="edge">
<title>Node1&#45;&gt;Node14</title>
<path fill="none" stroke="#191970" d="M877.6983,-224.4357C843.5757,-216.4909 795.7696,-203.9271 755.5,-188 737.7524,-180.9806 735.4047,-174.6082 717.5,-168 652.4473,-143.9904 630.6878,-148.9519 559.981,-132.254"/>
<polygon fill="#191970" stroke="#191970" points="560.6962,-128.8261 550.1528,-129.8693 559.0456,-135.6287 560.6962,-128.8261"/>
</g>
<!-- Node15 -->
<g id="node16" class="node">
<title>Node15</title>
<polygon fill="none" stroke="#bfbfbf" points="568,-112.5 568,-131.5 651,-131.5 651,-112.5 568,-112.5"/>
<text text-anchor="middle" x="609.5" y="-119.5" font-family="Helvetica,sans-Serif" font-size="10.00" fill="#000000">simpleMatrix.H</text>
</g>
<!-- Node1&#45;&gt;Node15 -->
<g id="edge35" class="edge">
<title>Node1&#45;&gt;Node15</title>
<path fill="none" stroke="#191970" d="M899.7337,-224.4056C867.7695,-211.0722 807.6535,-186.4954 755.5,-168 720.9956,-155.7636 681.3488,-143.3762 652.0855,-134.5436"/>
<polygon fill="#191970" stroke="#191970" points="652.7773,-131.0971 642.1932,-131.5738 650.7645,-137.8014 652.7773,-131.0971"/>
</g>
<!-- Node16 -->
<g id="node17" class="node">
<title>Node16</title>
<polygon fill="none" stroke="#bfbfbf" points="669,-112.5 669,-131.5 800,-131.5 800,-112.5 669,-112.5"/>
<text text-anchor="middle" x="734.5" y="-119.5" font-family="Helvetica,sans-Serif" font-size="10.00" fill="#000000">mathematicalConstants.H</text>
</g>
<!-- Node1&#45;&gt;Node16 -->
<g id="edge36" class="edge">
<title>Node1&#45;&gt;Node16</title>
<path fill="none" stroke="#191970" d="M906.4712,-224.4509C873.5889,-204.8615 798.3113,-160.0152 759.1658,-136.6945"/>
<polygon fill="#191970" stroke="#191970" points="760.8706,-133.6361 750.4882,-131.5249 757.2879,-139.6498 760.8706,-133.6361"/>
</g>
<!-- Node17 -->
<g id="node18" class="node">
<title>Node17</title>
<polygon fill="none" stroke="#bfbfbf" points="818.5,-112.5 818.5,-131.5 874.5,-131.5 874.5,-112.5 818.5,-112.5"/>
<text text-anchor="middle" x="846.5" y="-119.5" font-family="Helvetica,sans-Serif" font-size="10.00" fill="#000000">fvCFD.H</text>
</g>
<!-- Node1&#45;&gt;Node17 -->
<g id="edge37" class="edge">
<title>Node1&#45;&gt;Node17</title>
<path fill="none" stroke="#191970" d="M909.6837,-224.201C899.1218,-215.5941 884.3322,-202.2506 874.5,-188 864.572,-173.6106 857.1096,-155.1438 852.3957,-141.4051"/>
<polygon fill="#191970" stroke="#191970" points="855.621,-140.0038 849.21,-131.5687 848.9615,-142.1607 855.621,-140.0038"/>
</g>
<!-- Node18 -->
<g id="node19" class="node">
<title>Node18</title>
<polygon fill="none" stroke="#bfbfbf" points="990.5,-112.5 990.5,-131.5 1056.5,-131.5 1056.5,-112.5 990.5,-112.5"/>
<text text-anchor="middle" x="1023.5" y="-119.5" font-family="Helvetica,sans-Serif" font-size="10.00" fill="#000000">IFstream.H</text>
</g>
<!-- Node1&#45;&gt;Node18 -->
<g id="edge38" class="edge">
<title>Node1&#45;&gt;Node18</title>
<path fill="none" stroke="#191970" d="M932.9087,-224.4423C942.6547,-215.3486 957.4777,-201.1418 969.5,-188 983.9274,-172.2291 999.2568,-153.255 1009.882,-139.7066"/>
<polygon fill="#191970" stroke="#191970" points="1012.7519,-141.7176 1016.1282,-131.6752 1007.2263,-137.4202 1012.7519,-141.7176"/>
</g>
<!-- Node19 -->
<g id="node20" class="node">
<title>Node19</title>
<polygon fill="none" stroke="#bfbfbf" points="1075,-112.5 1075,-131.5 1146,-131.5 1146,-112.5 1075,-112.5"/>
<text text-anchor="middle" x="1110.5" y="-119.5" font-family="Helvetica,sans-Serif" font-size="10.00" fill="#000000">OFstream.H</text>
</g>
<!-- Node1&#45;&gt;Node19 -->
<g id="edge39" class="edge">
<title>Node1&#45;&gt;Node19</title>
<path fill="none" stroke="#191970" d="M938.5288,-224.4509C971.4111,-204.8615 1046.6887,-160.0152 1085.8342,-136.6945"/>
<polygon fill="#191970" stroke="#191970" points="1087.7121,-139.6498 1094.5118,-131.5249 1084.1294,-133.6361 1087.7121,-139.6498"/>
</g>
<!-- Node20 -->
<g id="node21" class="node">
<title>Node20</title>
<polygon fill="none" stroke="#bfbfbf" points="1164,-112.5 1164,-131.5 1251,-131.5 1251,-112.5 1164,-112.5"/>
<text text-anchor="middle" x="1207.5" y="-119.5" font-family="Helvetica,sans-Serif" font-size="10.00" fill="#000000">IStringStream.H</text>
</g>
<!-- Node1&#45;&gt;Node20 -->
<g id="edge40" class="edge">
<title>Node1&#45;&gt;Node20</title>
<path fill="none" stroke="#191970" d="M946.5462,-224.456C978.9844,-211.5906 1038.5705,-187.9907 1089.5,-168 1117.6172,-156.9635 1149.5373,-144.5256 1173.0823,-135.3684"/>
<polygon fill="#191970" stroke="#191970" points="1174.5727,-138.5443 1182.6247,-131.6584 1172.036,-132.02 1174.5727,-138.5443"/>
</g>
<!-- Node21 -->
<g id="node22" class="node">
<title>Node21</title>
<polygon fill="none" stroke="#bfbfbf" points="1269.5,-112.5 1269.5,-131.5 1361.5,-131.5 1361.5,-112.5 1269.5,-112.5"/>
<text text-anchor="middle" x="1315.5" y="-119.5" font-family="Helvetica,sans-Serif" font-size="10.00" fill="#000000">OStringStream.H</text>
</g>
<!-- Node1&#45;&gt;Node21 -->
<g id="edge41" class="edge">
<title>Node1&#45;&gt;Node21</title>
<path fill="none" stroke="#191970" d="M958.7658,-224.4221C990.5952,-215.7518 1037.997,-202.197 1078.5,-188 1100.6979,-180.2193 1105.1263,-175.2594 1127.5,-168 1171.216,-153.8158 1221.8851,-141.6572 1259.5982,-133.4088"/>
<polygon fill="#191970" stroke="#191970" points="1260.3497,-136.8272 1269.3839,-131.2925 1258.87,-129.9854 1260.3497,-136.8272"/>
</g>
<!-- Node22 -->
<g id="node23" class="node">
<title>Node22</title>
<polygon fill="none" stroke="#bfbfbf" points="1379.5,-112.5 1379.5,-131.5 1429.5,-131.5 1429.5,-112.5 1379.5,-112.5"/>
<text text-anchor="middle" x="1404.5" y="-119.5" font-family="Helvetica,sans-Serif" font-size="10.00" fill="#000000">fstream</text>
</g>
<!-- Node1&#45;&gt;Node22 -->
<g id="edge42" class="edge">
<title>Node1&#45;&gt;Node22</title>
<path fill="none" stroke="#191970" d="M972.809,-224.4869C1012.5562,-216.4093 1069.1872,-203.648 1117.5,-188 1139.4866,-180.8788 1143.3167,-174.4826 1165.5,-168 1251.2568,-142.9392 1278.5695,-152.3732 1369.4409,-132.0197"/>
<polygon fill="#191970" stroke="#191970" points="1370.372,-135.397 1379.3327,-129.744 1368.8026,-128.5752 1370.372,-135.397"/>
</g>
<!-- Node23 -->
<g id="node24" class="node">
<title>Node23</title>
<polygon fill="none" stroke="#bfbfbf" points="1447.5,-112.5 1447.5,-131.5 1501.5,-131.5 1501.5,-112.5 1447.5,-112.5"/>
<text text-anchor="middle" x="1474.5" y="-119.5" font-family="Helvetica,sans-Serif" font-size="10.00" fill="#000000">iostream</text>
</g>
<!-- Node1&#45;&gt;Node23 -->
<g id="edge43" class="edge">
<title>Node1&#45;&gt;Node23</title>
<path fill="none" stroke="#191970" d="M979.2997,-226.0411C1026.9634,-218.5921 1096.5181,-205.9132 1155.5,-188 1177.6137,-181.2839 1181.2473,-174.2402 1203.5,-168 1302.1584,-140.334 1333.3118,-153.3283 1437.4846,-131.9846"/>
<polygon fill="#191970" stroke="#191970" points="1438.3953,-135.3697 1447.4588,-129.883 1436.952,-128.5201 1438.3953,-135.3697"/>
</g>
<!-- Node24 -->
<g id="node25" class="node">
<title>Node24</title>
<polygon fill="none" stroke="#bfbfbf" points="1520,-112.5 1520,-131.5 1561,-131.5 1561,-112.5 1520,-112.5"/>
<text text-anchor="middle" x="1540.5" y="-119.5" font-family="Helvetica,sans-Serif" font-size="10.00" fill="#000000">string</text>
</g>
<!-- Node1&#45;&gt;Node24 -->
<g id="edge44" class="edge">
<title>Node1&#45;&gt;Node24</title>
<path fill="none" stroke="#191970" d="M979.1285,-228.1766C1034.541,-221.597 1120.9523,-208.9765 1193.5,-188 1215.7017,-181.5806 1219.1891,-174.0288 1241.5,-168 1354.8747,-137.3641 1391.0794,-158.0356 1510.1316,-131.6533"/>
<polygon fill="#191970" stroke="#191970" points="1511.0183,-135.041 1519.9894,-129.4044 1509.4613,-128.2163 1511.0183,-135.041"/>
</g>
<!-- Node25 -->
<g id="node26" class="node">
<title>Node25</title>
<polygon fill="none" stroke="#bfbfbf" points="1579.5,-112.5 1579.5,-131.5 1623.5,-131.5 1623.5,-112.5 1579.5,-112.5"/>
<text text-anchor="middle" x="1601.5" y="-119.5" font-family="Helvetica,sans-Serif" font-size="10.00" fill="#000000">cmath</text>
</g>
<!-- Node1&#45;&gt;Node25 -->
<g id="edge45" class="edge">
<title>Node1&#45;&gt;Node25</title>
<path fill="none" stroke="#191970" d="M979.1926,-229.7855C1041.8394,-224.1584 1145.2819,-211.981 1231.5,-188 1253.7659,-181.8069 1257.1594,-173.9177 1279.5,-168 1402.3992,-135.4458 1441.3557,-158.9197 1569.497,-131.8496"/>
<polygon fill="#191970" stroke="#191970" points="1570.2595,-135.2656 1579.2874,-129.7206 1568.7721,-128.4255 1570.2595,-135.2656"/>
</g>
<!-- Node26 -->
<g id="node27" class="node">
<title>Node26</title>
<polygon fill="none" stroke="#bfbfbf" points="1641.5,-112.5 1641.5,-131.5 1691.5,-131.5 1691.5,-112.5 1641.5,-112.5"/>
<text text-anchor="middle" x="1666.5" y="-119.5" font-family="Helvetica,sans-Serif" font-size="10.00" fill="#000000">iomanip</text>
</g>
<!-- Node1&#45;&gt;Node26 -->
<g id="edge46" class="edge">
<title>Node1&#45;&gt;Node26</title>
<path fill="none" stroke="#191970" d="M979.1703,-231.7526C1048.7782,-227.8004 1169.8793,-217.0323 1269.5,-188 1289.7354,-182.1028 1292.2073,-173.6969 1312.5,-168 1447.1975,-130.1856 1490.275,-158.9422 1631.4801,-131.8762"/>
<polygon fill="#191970" stroke="#191970" points="1632.24,-135.2938 1641.3712,-129.9206 1630.8822,-128.4267 1632.24,-135.2938"/>
</g>
<!-- Node28 -->
<g id="node29" class="node">
<title>Node28</title>
<polygon fill="none" stroke="#bfbfbf" points="1489,-168.5 1489,-187.5 1568,-187.5 1568,-168.5 1489,-168.5"/>
<text text-anchor="middle" x="1528.5" y="-175.5" font-family="Helvetica,sans-Serif" font-size="10.00" fill="#000000">UDictionary.H</text>
</g>
<!-- Node1&#45;&gt;Node28 -->
<g id="edge47" class="edge">
<title>Node1&#45;&gt;Node28</title>
<path fill="none" stroke="#191970" d="M979.3935,-231.6264C1078.8319,-226.972 1290.8194,-214.8041 1478.6937,-188.1199"/>
<polygon fill="#191970" stroke="#191970" points="1479.3542,-191.561 1488.7544,-186.6736 1478.3581,-184.6323 1479.3542,-191.561"/>
</g>
<!-- Node29 -->
<g id="node30" class="node">
<title>Node29</title>
<g id="a_node30"><a xlink:href="lnInclude_2FrontTrackingCloudI_8H.html" target="_top" xlink:title="FrontTrackingCloudI.H">
<polygon fill="none" stroke="#000000" points="1646.5,-168.5 1646.5,-187.5 1762.5,-187.5 1762.5,-168.5 1646.5,-168.5"/>
<text text-anchor="middle" x="1704.5" y="-175.5" font-family="Helvetica,sans-Serif" font-size="10.00" fill="#000000">FrontTrackingCloudI.H</text>
</a>
</g>
</g>
<!-- Node1&#45;&gt;Node29 -->
<g id="edge48" class="edge">
<title>Node1&#45;&gt;Node29</title>
<path fill="none" stroke="#191970" d="M979.0227,-230.1922C1092.4929,-222.5123 1356.1073,-204.49 1577.5,-188 1596.5696,-186.5796 1617.2447,-184.978 1636.2655,-183.4796"/>
<polygon fill="#191970" stroke="#191970" points="1636.6486,-186.9603 1646.3418,-182.6834 1636.0971,-179.9821 1636.6486,-186.9603"/>
</g>
<!-- Node8&#45;&gt;Node5 -->
<g id="edge9" class="edge">
<title>Node8&#45;&gt;Node5</title>
<path fill="none" stroke="#191970" d="M883.7135,-176.9277C741.5269,-172.8415 248.2983,-157.2642 69.2527,-131.7517"/>
<polygon fill="#191970" stroke="#191970" points="69.5916,-128.2637 59.1855,-130.2547 68.562,-135.1876 69.5916,-128.2637"/>
</g>
<!-- Node8&#45;&gt;Node9 -->
<g id="edge10" class="edge">
<title>Node8&#45;&gt;Node9</title>
<path fill="none" stroke="#191970" d="M883.874,-176.5838C751.4214,-171.5911 315.3699,-153.9946 154.0885,-131.9566"/>
<polygon fill="#191970" stroke="#191970" points="154.2628,-128.4461 143.8687,-130.4986 153.2741,-135.3759 154.2628,-128.4461"/>
</g>
<!-- Node8&#45;&gt;Node10 -->
<g id="edge11" class="edge">
<title>Node8&#45;&gt;Node10</title>
<path fill="none" stroke="#191970" d="M883.8213,-177.5015C780.8295,-175.7257 491.3268,-167.8074 241.4643,-131.9194"/>
<polygon fill="#191970" stroke="#191970" points="241.8714,-128.4419 231.4718,-130.466 240.8638,-135.369 241.8714,-128.4419"/>
</g>
<!-- Node8&#45;&gt;Node11 -->
<g id="edge12" class="edge">
<title>Node8&#45;&gt;Node11</title>
<path fill="none" stroke="#191970" d="M883.6533,-176.2179C769.6262,-170.8149 436.3309,-153.7501 307.8402,-131.8256"/>
<polygon fill="#191970" stroke="#191970" points="308.3213,-128.356 297.8602,-130.0338 307.0843,-135.2459 308.3213,-128.356"/>
</g>
<!-- Node8&#45;&gt;Node12 -->
<g id="edge13" class="edge">
<title>Node8&#45;&gt;Node12</title>
<path fill="none" stroke="#191970" d="M883.7499,-177.0914C795.9135,-174.5239 574.931,-165.2056 381.7166,-131.9282"/>
<polygon fill="#191970" stroke="#191970" points="382.1178,-128.4453 371.6644,-130.1706 380.9121,-135.3407 382.1178,-128.4453"/>
</g>
<!-- Node8&#45;&gt;Node13 -->
<g id="edge14" class="edge">
<title>Node8&#45;&gt;Node13</title>
<path fill="none" stroke="#191970" d="M883.8906,-175.1194C808.9219,-169.2747 638.2498,-154.7421 485.0893,-132.1341"/>
<polygon fill="#191970" stroke="#191970" points="485.4344,-128.6469 475.0274,-130.6333 484.4016,-135.5703 485.4344,-128.6469"/>
</g>
<!-- Node8&#45;&gt;Node14 -->
<g id="edge15" class="edge">
<title>Node8&#45;&gt;Node14</title>
<path fill="none" stroke="#191970" d="M883.964,-174.8948C818.9812,-169.2769 683.381,-155.9138 560.0799,-132.104"/>
<polygon fill="#191970" stroke="#191970" points="560.5776,-128.635 550.0911,-130.1465 559.2314,-135.5044 560.5776,-128.635"/>
</g>
<!-- Node8&#45;&gt;Node15 -->
<g id="edge16" class="edge">
<title>Node8&#45;&gt;Node15</title>
<path fill="none" stroke="#191970" d="M883.678,-171.5125C834.2749,-163.1901 746.0487,-148.1056 661.2776,-132.304"/>
<polygon fill="#191970" stroke="#191970" points="661.7003,-128.8224 651.2272,-130.4241 660.4132,-135.7031 661.7003,-128.8224"/>
</g>
<!-- Node8&#45;&gt;Node16 -->
<g id="edge17" class="edge">
<title>Node8&#45;&gt;Node16</title>
<path fill="none" stroke="#191970" d="M890.1816,-168.3733C858.6494,-158.9807 810.5379,-144.6496 776.1499,-134.4064"/>
<polygon fill="#191970" stroke="#191970" points="776.9797,-131.0016 766.3966,-131.5011 774.9813,-137.7103 776.9797,-131.0016"/>
</g>
<!-- Node8&#45;&gt;Node17 -->
<g id="edge18" class="edge">
<title>Node8&#45;&gt;Node17</title>
<path fill="none" stroke="#191970" d="M909.2618,-168.2455C897.819,-159.814 881.0704,-147.4729 867.7525,-137.6598"/>
<polygon fill="#191970" stroke="#191970" points="869.7133,-134.757 859.5865,-131.6427 865.5609,-140.3924 869.7133,-134.757"/>
</g>
<!-- Node8&#45;&gt;Node18 -->
<g id="edge19" class="edge">
<title>Node8&#45;&gt;Node18</title>
<path fill="none" stroke="#191970" d="M940.0929,-168.2455C955.879,-159.4928 979.2639,-146.527 997.2587,-136.5496"/>
<polygon fill="#191970" stroke="#191970" points="999.0603,-139.5528 1006.1087,-131.6427 995.6659,-133.4308 999.0603,-139.5528"/>
</g>
<!-- Node8&#45;&gt;Node19 -->
<g id="edge20" class="edge">
<title>Node8&#45;&gt;Node19</title>
<path fill="none" stroke="#191970" d="M954.8184,-168.3733C986.3506,-158.9807 1034.4621,-144.6496 1068.8501,-134.4064"/>
<polygon fill="#191970" stroke="#191970" points="1070.0187,-137.7103 1078.6034,-131.5011 1068.0203,-131.0016 1070.0187,-137.7103"/>
</g>
<!-- Node8&#45;&gt;Node20 -->
<g id="edge21" class="edge">
<title>Node8&#45;&gt;Node20</title>
<path fill="none" stroke="#191970" d="M961.233,-170.3893C1010.9505,-160.6203 1097.475,-143.6189 1153.6003,-132.5908"/>
<polygon fill="#191970" stroke="#191970" points="1154.5732,-135.9667 1163.7107,-130.6042 1153.2235,-129.098 1154.5732,-135.9667"/>
</g>
<!-- Node8&#45;&gt;Node21 -->
<g id="edge22" class="edge">
<title>Node8&#45;&gt;Node21</title>
<path fill="none" stroke="#191970" d="M961.1065,-173.3147C1022.1867,-165.7778 1145.0811,-150.1109 1259.3448,-132.13"/>
<polygon fill="#191970" stroke="#191970" points="1259.9823,-135.5728 1269.312,-130.5521 1258.8877,-128.6589 1259.9823,-135.5728"/>
</g>
<!-- Node8&#45;&gt;Node22 -->
<g id="edge23" class="edge">
<title>Node8&#45;&gt;Node22</title>
<path fill="none" stroke="#191970" d="M961.2058,-176.4207C1037.5933,-172.7904 1213.1448,-161.9023 1369.1317,-131.9491"/>
<polygon fill="#191970" stroke="#191970" points="1370.233,-135.3003 1379.3768,-129.9485 1368.8913,-128.43 1370.233,-135.3003"/>
</g>
<!-- Node8&#45;&gt;Node23 -->
<g id="edge24" class="edge">
<title>Node8&#45;&gt;Node23</title>
<path fill="none" stroke="#191970" d="M961.0121,-176.9594C1045.6522,-174.1612 1254.2512,-164.4694 1437.4126,-131.891"/>
<polygon fill="#191970" stroke="#191970" points="1438.2773,-135.2915 1447.4957,-130.0694 1437.0328,-128.403 1438.2773,-135.2915"/>
</g>
<!-- Node8&#45;&gt;Node24 -->
<g id="edge25" class="edge">
<title>Node8&#45;&gt;Node24</title>
<path fill="none" stroke="#191970" d="M961.2068,-176.2048C1071.5109,-170.8994 1386.8575,-154.3653 1509.7929,-131.5913"/>
<polygon fill="#191970" stroke="#191970" points="1510.553,-135.009 1519.6959,-129.6559 1509.2103,-128.139 1510.553,-135.009"/>
</g>
<!-- Node8&#45;&gt;Node25 -->
<g id="edge26" class="edge">
<title>Node8&#45;&gt;Node25</title>
<path fill="none" stroke="#191970" d="M961.2246,-176.4771C1079.2177,-171.6488 1433.9376,-155.6951 1569.2004,-131.7514"/>
<polygon fill="#191970" stroke="#191970" points="1570.1288,-135.1387 1579.3171,-129.8638 1568.8448,-128.2574 1570.1288,-135.1387"/>
</g>
<!-- Node8&#45;&gt;Node26 -->
<g id="edge27" class="edge">
<title>Node8&#45;&gt;Node26</title>
<path fill="none" stroke="#191970" d="M961.24,-176.621C1086.8158,-171.978 1482.5971,-155.9444 1631.1365,-131.8084"/>
<polygon fill="#191970" stroke="#191970" points="1632.1287,-135.1897 1641.397,-130.0566 1630.9506,-128.2896 1632.1287,-135.1897"/>
</g>
<!-- Node27 -->
<g id="node28" class="node">
<title>Node27</title>
<g id="a_node28"><a xlink:href="lnInclude_2bubbleDataI_8H.html" target="_top" xlink:title="bubbleDataI.H">
<polygon fill="none" stroke="#000000" points="892.5,-112.5 892.5,-131.5 972.5,-131.5 972.5,-112.5 892.5,-112.5"/>
<text text-anchor="middle" x="932.5" y="-119.5" font-family="Helvetica,sans-Serif" font-size="10.00" fill="#000000">bubbleDataI.H</text>
</a>
</g>
</g>
<!-- Node8&#45;&gt;Node27 -->
<g id="edge28" class="edge">
<title>Node8&#45;&gt;Node27</title>
<path fill="none" stroke="#191970" d="M924.2419,-168.2455C925.5467,-160.9382 927.376,-150.6944 928.9813,-141.7046"/>
<polygon fill="#191970" stroke="#191970" points="932.4656,-142.1022 930.7781,-131.6427 925.5746,-140.8717 932.4656,-142.1022"/>
</g>
<!-- Node30 -->
<g id="node31" class="node">
<title>Node30</title>
<g id="a_node31"><a xlink:href="lnInclude_2NoFrontToField_8H.html" target="_top" xlink:title="NoFrontToField.H">
<polygon fill="none" stroke="#000000" points="1710,-112.5 1710,-131.5 1805,-131.5 1805,-112.5 1710,-112.5"/>
<text text-anchor="middle" x="1757.5" y="-119.5" font-family="Helvetica,sans-Serif" font-size="10.00" fill="#000000">NoFrontToField.H</text>
</a>
</g>
</g>
<!-- Node29&#45;&gt;Node30 -->
<g id="edge49" class="edge">
<title>Node29&#45;&gt;Node30</title>
<path fill="none" stroke="#191970" d="M1713.7319,-168.2455C1721.3317,-160.2155 1732.2877,-148.6394 1741.3368,-139.0781"/>
<polygon fill="#191970" stroke="#191970" points="1744.0421,-141.3115 1748.3739,-131.6427 1738.958,-136.4998 1744.0421,-141.3115"/>
</g>
<!-- Node31 -->
<g id="node32" class="node">
<title>Node31</title>
<g id="a_node32"><a xlink:href="lnInclude_2FrontToFieldModel_8H.html" target="_top" xlink:title="FrontToFieldModel.H">
<polygon fill="none" stroke="#000000" points="1703.5,-56.5 1703.5,-75.5 1811.5,-75.5 1811.5,-56.5 1703.5,-56.5"/>
<text text-anchor="middle" x="1757.5" y="-63.5" font-family="Helvetica,sans-Serif" font-size="10.00" fill="#000000">FrontToFieldModel.H</text>
</a>
</g>
</g>
<!-- Node30&#45;&gt;Node31 -->
<g id="edge50" class="edge">
<title>Node30&#45;&gt;Node31</title>
<path fill="none" stroke="#191970" d="M1757.5,-112.2455C1757.5,-104.9382 1757.5,-94.6944 1757.5,-85.7046"/>
<polygon fill="#191970" stroke="#191970" points="1761.0001,-85.6426 1757.5,-75.6427 1754.0001,-85.6427 1761.0001,-85.6426"/>
</g>
<!-- Node32 -->
<g id="node33" class="node">
<title>Node32</title>
<polygon fill="none" stroke="#bfbfbf" points="1572.5,-.5 1572.5,-19.5 1652.5,-19.5 1652.5,-.5 1572.5,-.5"/>
<text text-anchor="middle" x="1612.5" y="-7.5" font-family="Helvetica,sans-Serif" font-size="10.00" fill="#000000">IOdictionary.H</text>
</g>
<!-- Node31&#45;&gt;Node32 -->
<g id="edge51" class="edge">
<title>Node31&#45;&gt;Node32</title>
<path fill="none" stroke="#191970" d="M1732.5736,-56.3733C1708.8798,-47.2226 1673.0489,-33.3844 1646.6932,-23.2057"/>
<polygon fill="#191970" stroke="#191970" points="1647.6906,-19.8389 1637.1011,-19.5011 1645.1686,-26.3689 1647.6906,-19.8389"/>
</g>
<!-- Node33 -->
<g id="node34" class="node">
<title>Node33</title>
<polygon fill="none" stroke="#bfbfbf" points="1671,-.5 1671,-19.5 1730,-19.5 1730,-.5 1671,-.5"/>
<text text-anchor="middle" x="1700.5" y="-7.5" font-family="Helvetica,sans-Serif" font-size="10.00" fill="#000000">autoPtr.H</text>
</g>
<!-- Node31&#45;&gt;Node33 -->
<g id="edge52" class="edge">
<title>Node31&#45;&gt;Node33</title>
<path fill="none" stroke="#191970" d="M1747.5714,-56.2455C1739.3162,-48.1352 1727.3791,-36.4075 1717.5918,-26.7919"/>
<polygon fill="#191970" stroke="#191970" points="1719.9011,-24.1542 1710.3149,-19.6427 1714.9954,-29.1476 1719.9011,-24.1542"/>
</g>
<!-- Node34 -->
<g id="node35" class="node">
<title>Node34</title>
<polygon fill="none" stroke="#bfbfbf" points="1748.5,-.5 1748.5,-19.5 1880.5,-19.5 1880.5,-.5 1748.5,-.5"/>
<text text-anchor="middle" x="1814.5" y="-7.5" font-family="Helvetica,sans-Serif" font-size="10.00" fill="#000000">runTimeSelectionTables.H</text>
</g>
<!-- Node31&#45;&gt;Node34 -->
<g id="edge53" class="edge">
<title>Node31&#45;&gt;Node34</title>
<path fill="none" stroke="#191970" d="M1767.4286,-56.2455C1775.6838,-48.1352 1787.6209,-36.4075 1797.4082,-26.7919"/>
<polygon fill="#191970" stroke="#191970" points="1800.0046,-29.1476 1804.6851,-19.6427 1795.0989,-24.1542 1800.0046,-29.1476"/>
</g>
<!-- Node35 -->
<g id="node36" class="node">
<title>Node35</title>
<polygon fill="none" stroke="#bfbfbf" points="1899,-.5 1899,-19.5 2018,-19.5 2018,-.5 1899,-.5"/>
<text text-anchor="middle" x="1958.5" y="-7.5" font-family="Helvetica,sans-Serif" font-size="10.00" fill="#000000">CloudSubModelBase.H</text>
</g>
<!-- Node31&#45;&gt;Node35 -->
<g id="edge54" class="edge">
<title>Node31&#45;&gt;Node35</title>
<path fill="none" stroke="#191970" d="M1792.0531,-56.3733C1825.9104,-46.9404 1877.646,-32.5265 1914.4426,-22.2747"/>
<polygon fill="#191970" stroke="#191970" points="1915.704,-25.5566 1924.3978,-19.5011 1913.8253,-18.8135 1915.704,-25.5566"/>
</g>
</g>
</svg>
