<?xml version="1.0" encoding="UTF-8" standalone="no"?>
<!DOCTYPE svg PUBLIC "-//W3C//DTD SVG 1.1//EN"
 "http://www.w3.org/Graphics/SVG/1.1/DTD/svg11.dtd">
<!-- Generated by graphviz version 2.40.1 (20161225.0304)
 -->
<!-- Title: lnInclude/NoVolumeCorrection.H Pages: 1 -->
<svg width="454pt" height="140pt"
 viewBox="0.00 0.00 453.50 140.00" xmlns="http://www.w3.org/2000/svg" xmlns:xlink="http://www.w3.org/1999/xlink">
<g id="graph0" class="graph" transform="scale(1 1) rotate(0) translate(4 136)">
<title>lnInclude/NoVolumeCorrection.H</title>
<!-- Node0 -->
<g id="node1" class="node">
<title>Node0</title>
<polygon fill="#bfbfbf" stroke="#000000" points="105,-112.5 105,-131.5 265,-131.5 265,-112.5 105,-112.5"/>
<text text-anchor="middle" x="185" y="-119.5" font-family="Helvetica,sans-Serif" font-size="10.00" fill="#000000">lnInclude/NoVolumeCorrection.H</text>
</g>
<!-- Node1 -->
<g id="node2" class="node">
<title>Node1</title>
<g id="a_node2"><a xlink:href="lnInclude_2VolumeCorrectionModel_8H.html" target="_top" xlink:title="VolumeCorrectionModel.H">
<polygon fill="none" stroke="#000000" points="119.5,-56.5 119.5,-75.5 250.5,-75.5 250.5,-56.5 119.5,-56.5"/>
<text text-anchor="middle" x="185" y="-63.5" font-family="Helvetica,sans-Serif" font-size="10.00" fill="#000000">VolumeCorrectionModel.H</text>
</a>
</g>
</g>
<!-- Node0&#45;&gt;Node1 -->
<g id="edge1" class="edge">
<title>Node0&#45;&gt;Node1</title>
<path fill="none" stroke="#191970" d="M185,-112.2455C185,-104.9382 185,-94.6944 185,-85.7046"/>
<polygon fill="#191970" stroke="#191970" points="188.5001,-85.6426 185,-75.6427 181.5001,-85.6427 188.5001,-85.6426"/>
</g>
<!-- Node2 -->
<g id="node3" class="node">
<title>Node2</title>
<polygon fill="none" stroke="#bfbfbf" points="0,-.5 0,-19.5 80,-19.5 80,-.5 0,-.5"/>
<text text-anchor="middle" x="40" y="-7.5" font-family="Helvetica,sans-Serif" font-size="10.00" fill="#000000">IOdictionary.H</text>
</g>
<!-- Node1&#45;&gt;Node2 -->
<g id="edge2" class="edge">
<title>Node1&#45;&gt;Node2</title>
<path fill="none" stroke="#191970" d="M160.0736,-56.3733C136.3798,-47.2226 100.5489,-33.3844 74.1932,-23.2057"/>
<polygon fill="#191970" stroke="#191970" points="75.1906,-19.8389 64.6011,-19.5011 72.6686,-26.3689 75.1906,-19.8389"/>
</g>
<!-- Node3 -->
<g id="node4" class="node">
<title>Node3</title>
<polygon fill="none" stroke="#bfbfbf" points="98.5,-.5 98.5,-19.5 157.5,-19.5 157.5,-.5 98.5,-.5"/>
<text text-anchor="middle" x="128" y="-7.5" font-family="Helvetica,sans-Serif" font-size="10.00" fill="#000000">autoPtr.H</text>
</g>
<!-- Node1&#45;&gt;Node3 -->
<g id="edge3" class="edge">
<title>Node1&#45;&gt;Node3</title>
<path fill="none" stroke="#191970" d="M175.0714,-56.2455C166.8162,-48.1352 154.8791,-36.4075 145.0918,-26.7919"/>
<polygon fill="#191970" stroke="#191970" points="147.4011,-24.1542 137.8149,-19.6427 142.4954,-29.1476 147.4011,-24.1542"/>
</g>
<!-- Node4 -->
<g id="node5" class="node">
<title>Node4</title>
<polygon fill="none" stroke="#bfbfbf" points="176,-.5 176,-19.5 308,-19.5 308,-.5 176,-.5"/>
<text text-anchor="middle" x="242" y="-7.5" font-family="Helvetica,sans-Serif" font-size="10.00" fill="#000000">runTimeSelectionTables.H</text>
</g>
<!-- Node1&#45;&gt;Node4 -->
<g id="edge4" class="edge">
<title>Node1&#45;&gt;Node4</title>
<path fill="none" stroke="#191970" d="M194.9286,-56.2455C203.1838,-48.1352 215.1209,-36.4075 224.9082,-26.7919"/>
<polygon fill="#191970" stroke="#191970" points="227.5046,-29.1476 232.1851,-19.6427 222.5989,-24.1542 227.5046,-29.1476"/>
</g>
<!-- Node5 -->
<g id="node6" class="node">
<title>Node5</title>
<polygon fill="none" stroke="#bfbfbf" points="326.5,-.5 326.5,-19.5 445.5,-19.5 445.5,-.5 326.5,-.5"/>
<text text-anchor="middle" x="386" y="-7.5" font-family="Helvetica,sans-Serif" font-size="10.00" fill="#000000">CloudSubModelBase.H</text>
</g>
<!-- Node1&#45;&gt;Node5 -->
<g id="edge5" class="edge">
<title>Node1&#45;&gt;Node5</title>
<path fill="none" stroke="#191970" d="M219.5531,-56.3733C253.4104,-46.9404 305.146,-32.5265 341.9426,-22.2747"/>
<polygon fill="#191970" stroke="#191970" points="343.204,-25.5566 351.8978,-19.5011 341.3253,-18.8135 343.204,-25.5566"/>
</g>
</g>
</svg>
