<?xml version="1.0" encoding="UTF-8" standalone="no"?>
<!DOCTYPE svg PUBLIC "-//W3C//DTD SVG 1.1//EN"
 "http://www.w3.org/Graphics/SVG/1.1/DTD/svg11.dtd">
<!-- Generated by graphviz version 2.40.1 (20161225.0304)
 -->
<!-- Title: lnInclude/frontTrackingCloud.H Pages: 1 -->
<svg width="2376pt" height="375pt"
 viewBox="0.00 0.00 2375.50 375.00" xmlns="http://www.w3.org/2000/svg" xmlns:xlink="http://www.w3.org/1999/xlink">
<g id="graph0" class="graph" transform="scale(1 1) rotate(0) translate(4 371)">
<title>lnInclude/frontTrackingCloud.H</title>
<!-- Node0 -->
<g id="node1" class="node">
<title>Node0</title>
<polygon fill="#bfbfbf" stroke="#000000" points="1337,-347.5 1337,-366.5 1489,-366.5 1489,-347.5 1337,-347.5"/>
<text text-anchor="middle" x="1413" y="-354.5" font-family="Helvetica,sans-Serif" font-size="10.00" fill="#000000">lnInclude/frontTrackingCloud.H</text>
</g>
<!-- Node1 -->
<g id="node2" class="node">
<title>Node1</title>
<polygon fill="none" stroke="#bfbfbf" points="1162.5,-291.5 1162.5,-310.5 1265.5,-310.5 1265.5,-291.5 1162.5,-291.5"/>
<text text-anchor="middle" x="1214" y="-298.5" font-family="Helvetica,sans-Serif" font-size="10.00" fill="#000000">ParcelCloudBase.H</text>
</g>
<!-- Node0&#45;&gt;Node1 -->
<g id="edge1" class="edge">
<title>Node0&#45;&gt;Node1</title>
<path fill="none" stroke="#191970" d="M1378.7907,-347.3733C1345.2703,-337.9404 1294.0495,-323.5265 1257.619,-313.2747"/>
<polygon fill="#191970" stroke="#191970" points="1258.3372,-309.8409 1247.7629,-310.5011 1256.4409,-316.5792 1258.3372,-309.8409"/>
</g>
<!-- Node2 -->
<g id="node3" class="node">
<title>Node2</title>
<polygon fill="none" stroke="#bfbfbf" points="1283.5,-291.5 1283.5,-310.5 1384.5,-310.5 1384.5,-291.5 1283.5,-291.5"/>
<text text-anchor="middle" x="1334" y="-298.5" font-family="Helvetica,sans-Serif" font-size="10.00" fill="#000000">MomentumCloud.H</text>
</g>
<!-- Node0&#45;&gt;Node2 -->
<g id="edge2" class="edge">
<title>Node0&#45;&gt;Node2</title>
<path fill="none" stroke="#191970" d="M1399.2393,-347.2455C1387.3448,-338.814 1369.935,-326.4729 1356.0915,-316.6598"/>
<polygon fill="#191970" stroke="#191970" points="1357.7854,-313.5704 1347.6031,-310.6427 1353.7372,-319.2811 1357.7854,-313.5704"/>
</g>
<!-- Node3 -->
<g id="node4" class="node">
<title>Node3</title>
<g id="a_node4"><a xlink:href="lnInclude_2FrontTrackingCloud_8H.html" target="_top" xlink:title="FrontTrackingCloud.H">
<polygon fill="none" stroke="#000000" points="974.5,-235.5 974.5,-254.5 1087.5,-254.5 1087.5,-235.5 974.5,-235.5"/>
<text text-anchor="middle" x="1031" y="-242.5" font-family="Helvetica,sans-Serif" font-size="10.00" fill="#000000">FrontTrackingCloud.H</text>
</a>
</g>
</g>
<!-- Node0&#45;&gt;Node3 -->
<g id="edge3" class="edge">
<title>Node0&#45;&gt;Node3</title>
<path fill="none" stroke="#191970" d="M1413.1253,-347.169C1412.7319,-332.4884 1409.6456,-305.0625 1393,-291 1370.9152,-272.3424 1196.2716,-256.9042 1097.861,-249.5805"/>
<polygon fill="#191970" stroke="#191970" points="1097.9394,-246.0769 1087.7096,-248.8336 1097.4258,-253.058 1097.9394,-246.0769"/>
</g>
<!-- Node38 -->
<g id="node39" class="node">
<title>Node38</title>
<polygon fill="none" stroke="#bfbfbf" points="1441,-291.5 1441,-310.5 1521,-310.5 1521,-291.5 1441,-291.5"/>
<text text-anchor="middle" x="1481" y="-298.5" font-family="Helvetica,sans-Serif" font-size="10.00" fill="#000000">ParcelCloud.H</text>
</g>
<!-- Node0&#45;&gt;Node38 -->
<g id="edge57" class="edge">
<title>Node0&#45;&gt;Node38</title>
<path fill="none" stroke="#191970" d="M1424.8447,-347.2455C1434.888,-338.9746 1449.4995,-326.9416 1461.3004,-317.2232"/>
<polygon fill="#191970" stroke="#191970" points="1463.7967,-319.7015 1469.291,-310.6427 1459.3467,-314.298 1463.7967,-319.7015"/>
</g>
<!-- Node39 -->
<g id="node40" class="node">
<title>Node39</title>
<g id="a_node40"><a xlink:href="lnInclude_2frontTrackingParcel_8H.html" target="_top" xlink:title="frontTrackingParcel.H">
<polygon fill="none" stroke="#000000" points="1967,-291.5 1967,-310.5 2079,-310.5 2079,-291.5 1967,-291.5"/>
<text text-anchor="middle" x="2023" y="-298.5" font-family="Helvetica,sans-Serif" font-size="10.00" fill="#000000">frontTrackingParcel.H</text>
</a>
</g>
</g>
<!-- Node0&#45;&gt;Node39 -->
<g id="edge58" class="edge">
<title>Node0&#45;&gt;Node39</title>
<path fill="none" stroke="#191970" d="M1489.0235,-350.0208C1609.6216,-338.9495 1842.7744,-317.5453 1956.8669,-307.0712"/>
<polygon fill="#191970" stroke="#191970" points="1957.2274,-310.553 1966.8655,-306.1533 1956.5874,-303.5823 1957.2274,-310.553"/>
</g>
<!-- Node4 -->
<g id="node5" class="node">
<title>Node4</title>
<polygon fill="none" stroke="#bfbfbf" points="419.5,-174 419.5,-193 504.5,-193 504.5,-174 419.5,-174"/>
<text text-anchor="middle" x="462" y="-181" font-family="Helvetica,sans-Serif" font-size="10.00" fill="#000000">volFieldsFwd.H</text>
</g>
<!-- Node3&#45;&gt;Node4 -->
<g id="edge4" class="edge">
<title>Node3&#45;&gt;Node4</title>
<path fill="none" stroke="#191970" d="M974.1232,-243.1548C879.1625,-239.3468 682.6091,-228.359 519,-199 513.8332,-198.0728 508.4537,-196.8967 503.1531,-195.6083"/>
<polygon fill="#191970" stroke="#191970" points="503.6908,-192.1327 493.1339,-193.0282 501.9451,-198.9115 503.6908,-192.1327"/>
</g>
<!-- Node5 -->
<g id="node6" class="node">
<title>Node5</title>
<polygon fill="none" stroke="#bfbfbf" points="925,-174 925,-193 1017,-193 1017,-174 925,-174"/>
<text text-anchor="middle" x="971" y="-181" font-family="Helvetica,sans-Serif" font-size="10.00" fill="#000000">fvMatricesFwd.H</text>
</g>
<!-- Node3&#45;&gt;Node5 -->
<g id="edge5" class="edge">
<title>Node3&#45;&gt;Node5</title>
<path fill="none" stroke="#191970" d="M1021.625,-235.3906C1012.5201,-226.0581 998.5026,-211.6902 987.5243,-200.4374"/>
<polygon fill="#191970" stroke="#191970" points="989.9957,-197.9586 980.5072,-193.2449 984.9852,-202.8468 989.9957,-197.9586"/>
</g>
<!-- Node6 -->
<g id="node7" class="node">
<title>Node6</title>
<polygon fill="none" stroke="#bfbfbf" points="1035.5,-174 1035.5,-193 1144.5,-193 1144.5,-174 1035.5,-174"/>
<text text-anchor="middle" x="1090" y="-181" font-family="Helvetica,sans-Serif" font-size="10.00" fill="#000000">dimensionedTypes.H</text>
</g>
<!-- Node3&#45;&gt;Node6 -->
<g id="edge6" class="edge">
<title>Node3&#45;&gt;Node6</title>
<path fill="none" stroke="#191970" d="M1040.2188,-235.3906C1049.0858,-226.1478 1062.6912,-211.966 1073.4389,-200.7628"/>
<polygon fill="#191970" stroke="#191970" points="1076.2541,-202.8841 1080.6513,-193.2449 1071.2027,-198.0381 1076.2541,-202.8841"/>
</g>
<!-- Node7 -->
<g id="node8" class="node">
<title>Node7</title>
<polygon fill="none" stroke="#bfbfbf" points="1476.5,-112.5 1476.5,-131.5 1535.5,-131.5 1535.5,-112.5 1476.5,-112.5"/>
<text text-anchor="middle" x="1506" y="-119.5" font-family="Helvetica,sans-Serif" font-size="10.00" fill="#000000">fvMesh.H</text>
</g>
<!-- Node3&#45;&gt;Node7 -->
<g id="edge7" class="edge">
<title>Node3&#45;&gt;Node7</title>
<path fill="none" stroke="#191970" d="M1087.707,-242.1131C1199.1212,-235.9997 1438.4504,-220.5225 1469,-199 1488.0663,-185.5676 1497.67,-159.583 1502.2421,-141.5356"/>
<polygon fill="#191970" stroke="#191970" points="1505.6648,-142.2674 1504.4323,-131.7445 1498.8336,-140.7393 1505.6648,-142.2674"/>
</g>
<!-- Node8 -->
<g id="node9" class="node">
<title>Node8</title>
<polygon fill="none" stroke="#bfbfbf" points="1163,-174 1163,-193 1241,-193 1241,-174 1163,-174"/>
<text text-anchor="middle" x="1202" y="-181" font-family="Helvetica,sans-Serif" font-size="10.00" fill="#000000">fluidThermo.H</text>
</g>
<!-- Node3&#45;&gt;Node8 -->
<g id="edge8" class="edge">
<title>Node3&#45;&gt;Node8</title>
<path fill="none" stroke="#191970" d="M1057.7188,-235.3906C1086.8321,-224.92 1133.5692,-208.1111 1165.9247,-196.4745"/>
<polygon fill="#191970" stroke="#191970" points="1167.2435,-199.7197 1175.4689,-193.0419 1164.8744,-193.1328 1167.2435,-199.7197"/>
</g>
<!-- Node9 -->
<g id="node10" class="node">
<title>Node9</title>
<polygon fill="none" stroke="#bfbfbf" points="1259.5,-174 1259.5,-193 1312.5,-193 1312.5,-174 1259.5,-174"/>
<text text-anchor="middle" x="1286" y="-181" font-family="Helvetica,sans-Serif" font-size="10.00" fill="#000000">Cloud.H</text>
</g>
<!-- Node3&#45;&gt;Node9 -->
<g id="edge9" class="edge">
<title>Node3&#45;&gt;Node9</title>
<path fill="none" stroke="#191970" d="M1087.6038,-236.3081C1132.2998,-228.6834 1195.9269,-216.1306 1250,-199 1252.1083,-198.3321 1254.2614,-197.584 1256.4141,-196.7867"/>
<polygon fill="#191970" stroke="#191970" points="1257.7203,-200.0339 1265.7082,-193.0738 1255.1234,-193.5335 1257.7203,-200.0339"/>
</g>
<!-- Node10 -->
<g id="node11" class="node">
<title>Node10</title>
<g id="a_node11"><a xlink:href="lnInclude_2bubbleData_8H.html" target="_top" xlink:title="bubbleData.H">
<polygon fill="none" stroke="#000000" points="1330.5,-174 1330.5,-193 1407.5,-193 1407.5,-174 1330.5,-174"/>
<text text-anchor="middle" x="1369" y="-181" font-family="Helvetica,sans-Serif" font-size="10.00" fill="#000000">bubbleData.H</text>
</a>
</g>
</g>
<!-- Node3&#45;&gt;Node10 -->
<g id="edge10" class="edge">
<title>Node3&#45;&gt;Node10</title>
<path fill="none" stroke="#191970" d="M1087.6446,-238.6538C1146.4722,-231.4495 1240.9322,-218.1556 1321,-199 1324.6648,-198.1232 1328.4538,-197.1032 1332.2217,-196.013"/>
<polygon fill="#191970" stroke="#191970" points="1333.5045,-199.2809 1342.0464,-193.013 1331.4602,-192.5861 1333.5045,-199.2809"/>
</g>
<!-- Node11 -->
<g id="node12" class="node">
<title>Node11</title>
<polygon fill="none" stroke="#bfbfbf" points="659,-112.5 659,-131.5 725,-131.5 725,-112.5 659,-112.5"/>
<text text-anchor="middle" x="692" y="-119.5" font-family="Helvetica,sans-Serif" font-size="10.00" fill="#000000">fileName.H</text>
</g>
<!-- Node3&#45;&gt;Node11 -->
<g id="edge31" class="edge">
<title>Node3&#45;&gt;Node11</title>
<path fill="none" stroke="#191970" d="M974.3934,-241.1605C902.186,-235.3751 782.196,-222.513 745,-199 723.2258,-185.2357 708.0775,-158.9376 699.7096,-140.9403"/>
<polygon fill="#191970" stroke="#191970" points="702.8788,-139.452 695.6631,-131.6942 696.466,-142.2586 702.8788,-139.452"/>
</g>
<!-- Node12 -->
<g id="node13" class="node">
<title>Node12</title>
<polygon fill="none" stroke="#bfbfbf" points="1553.5,-112.5 1553.5,-131.5 1622.5,-131.5 1622.5,-112.5 1553.5,-112.5"/>
<text text-anchor="middle" x="1588" y="-119.5" font-family="Helvetica,sans-Serif" font-size="10.00" fill="#000000">pointField.H</text>
</g>
<!-- Node3&#45;&gt;Node12 -->
<g id="edge32" class="edge">
<title>Node3&#45;&gt;Node12</title>
<path fill="none" stroke="#191970" d="M1087.5403,-243.5048C1194.6115,-240.0033 1422.7169,-229.1515 1495,-199 1526.8757,-185.7037 1556.2444,-157.6262 1573.129,-139.3023"/>
<polygon fill="#191970" stroke="#191970" points="1575.9103,-141.4428 1579.9725,-131.6576 1570.6948,-136.7739 1575.9103,-141.4428"/>
</g>
<!-- Node13 -->
<g id="node14" class="node">
<title>Node13</title>
<polygon fill="none" stroke="#bfbfbf" points="1641,-112.5 1641,-131.5 1689,-131.5 1689,-112.5 1641,-112.5"/>
<text text-anchor="middle" x="1665" y="-119.5" font-family="Helvetica,sans-Serif" font-size="10.00" fill="#000000">point.H</text>
</g>
<!-- Node3&#45;&gt;Node13 -->
<g id="edge33" class="edge">
<title>Node3&#45;&gt;Node13</title>
<path fill="none" stroke="#191970" d="M1087.7729,-242.8939C1201.086,-238.1849 1451.4177,-225.1084 1533,-199 1575.7587,-185.3161 1619.6649,-156.0786 1644.5188,-137.8287"/>
<polygon fill="#191970" stroke="#191970" points="1646.8655,-140.4442 1652.7761,-131.6513 1642.6722,-134.8391 1646.8655,-140.4442"/>
</g>
<!-- Node14 -->
<g id="node15" class="node">
<title>Node14</title>
<polygon fill="none" stroke="#bfbfbf" points="1707,-112.5 1707,-131.5 1763,-131.5 1763,-112.5 1707,-112.5"/>
<text text-anchor="middle" x="1735" y="-119.5" font-family="Helvetica,sans-Serif" font-size="10.00" fill="#000000">DLList.H</text>
</g>
<!-- Node3&#45;&gt;Node14 -->
<g id="edge34" class="edge">
<title>Node3&#45;&gt;Node14</title>
<path fill="none" stroke="#191970" d="M1087.8104,-242.9449C1208.852,-238.1268 1488.5693,-224.5336 1580,-199 1629.6162,-185.1439 1682.2945,-155.3117 1711.6802,-137.1166"/>
<polygon fill="#191970" stroke="#191970" points="1713.7668,-139.9391 1720.3692,-131.653 1710.0406,-134.0132 1713.7668,-139.9391"/>
</g>
<!-- Node15 -->
<g id="node16" class="node">
<title>Node15</title>
<polygon fill="none" stroke="#bfbfbf" points="1781.5,-112.5 1781.5,-131.5 1866.5,-131.5 1866.5,-112.5 1781.5,-112.5"/>
<text text-anchor="middle" x="1824" y="-119.5" font-family="Helvetica,sans-Serif" font-size="10.00" fill="#000000">sphereToCell.H</text>
</g>
<!-- Node3&#45;&gt;Node15 -->
<g id="edge35" class="edge">
<title>Node3&#45;&gt;Node15</title>
<path fill="none" stroke="#191970" d="M1087.6376,-242.8665C1216.7137,-237.648 1529.447,-222.8928 1632,-199 1693.0053,-184.787 1760.006,-154.1992 1796.5156,-136.1464"/>
<polygon fill="#191970" stroke="#191970" points="1798.1698,-139.2324 1805.5467,-131.6276 1795.0375,-132.9723 1798.1698,-139.2324"/>
</g>
<!-- Node16 -->
<g id="node17" class="node">
<title>Node16</title>
<polygon fill="none" stroke="#bfbfbf" points="1884.5,-112.5 1884.5,-131.5 1941.5,-131.5 1941.5,-112.5 1884.5,-112.5"/>
<text text-anchor="middle" x="1913" y="-119.5" font-family="Helvetica,sans-Serif" font-size="10.00" fill="#000000">cellSet.H</text>
</g>
<!-- Node3&#45;&gt;Node16 -->
<g id="edge36" class="edge">
<title>Node3&#45;&gt;Node16</title>
<path fill="none" stroke="#191970" d="M1087.6715,-243.6903C1226.0897,-240.069 1578.3537,-228.1902 1692,-199 1723.7792,-190.8375 1728.3135,-179.6139 1759,-168 1780.1412,-159.9987 1836.208,-143.6997 1874.5235,-132.8112"/>
<polygon fill="#191970" stroke="#191970" points="1875.6655,-136.1254 1884.3324,-130.0315 1873.757,-129.3906 1875.6655,-136.1254"/>
</g>
<!-- Node17 -->
<g id="node18" class="node">
<title>Node17</title>
<polygon fill="none" stroke="#bfbfbf" points="250.5,-112.5 250.5,-131.5 333.5,-131.5 333.5,-112.5 250.5,-112.5"/>
<text text-anchor="middle" x="292" y="-119.5" font-family="Helvetica,sans-Serif" font-size="10.00" fill="#000000">simpleMatrix.H</text>
</g>
<!-- Node3&#45;&gt;Node17 -->
<g id="edge37" class="edge">
<title>Node3&#45;&gt;Node17</title>
<path fill="none" stroke="#191970" d="M974.3552,-242.6617C829.159,-236.4166 451.33,-218.4905 398,-199 362.3244,-185.9617 328.0878,-157.169 308.5932,-138.7235"/>
<polygon fill="#191970" stroke="#191970" points="311.0251,-136.2063 301.4098,-131.7569 306.1517,-141.2314 311.0251,-136.2063"/>
</g>
<!-- Node18 -->
<g id="node19" class="node">
<title>Node18</title>
<polygon fill="none" stroke="#bfbfbf" points="351.5,-112.5 351.5,-131.5 482.5,-131.5 482.5,-112.5 351.5,-112.5"/>
<text text-anchor="middle" x="417" y="-119.5" font-family="Helvetica,sans-Serif" font-size="10.00" fill="#000000">mathematicalConstants.H</text>
</g>
<!-- Node3&#45;&gt;Node18 -->
<g id="edge38" class="edge">
<title>Node3&#45;&gt;Node18</title>
<path fill="none" stroke="#191970" d="M974.3622,-242.8742C824.7413,-236.9857 429.0697,-219.5345 410,-199 395.8547,-183.7681 401.3844,-158.7879 407.9617,-141.4271"/>
<polygon fill="#191970" stroke="#191970" points="411.3777,-142.3324 412.0258,-131.7574 404.9245,-139.6201 411.3777,-142.3324"/>
</g>
<!-- Node19 -->
<g id="node20" class="node">
<title>Node19</title>
<polygon fill="none" stroke="#bfbfbf" points="501,-112.5 501,-131.5 557,-131.5 557,-112.5 501,-112.5"/>
<text text-anchor="middle" x="529" y="-119.5" font-family="Helvetica,sans-Serif" font-size="10.00" fill="#000000">fvCFD.H</text>
</g>
<!-- Node3&#45;&gt;Node19 -->
<g id="edge39" class="edge">
<title>Node3&#45;&gt;Node19</title>
<path fill="none" stroke="#191970" d="M974.2187,-240.9268C884.5073,-234.0033 714.2867,-218.7485 657,-199 615.5121,-184.6978 572.9444,-155.6594 548.8519,-137.6155"/>
<polygon fill="#191970" stroke="#191970" points="550.9223,-134.7928 540.8479,-131.5129 546.678,-140.3594 550.9223,-134.7928"/>
</g>
<!-- Node20 -->
<g id="node21" class="node">
<title>Node20</title>
<polygon fill="none" stroke="#bfbfbf" points="575,-112.5 575,-131.5 641,-131.5 641,-112.5 575,-112.5"/>
<text text-anchor="middle" x="608" y="-119.5" font-family="Helvetica,sans-Serif" font-size="10.00" fill="#000000">IFstream.H</text>
</g>
<!-- Node3&#45;&gt;Node20 -->
<g id="edge40" class="edge">
<title>Node3&#45;&gt;Node20</title>
<path fill="none" stroke="#191970" d="M974.3517,-240.1895C895.822,-232.9507 758.3139,-218.052 712,-199 677.6409,-184.8658 644.2732,-156.86 624.9544,-138.8029"/>
<polygon fill="#191970" stroke="#191970" points="627.2189,-136.1256 617.5731,-131.7427 622.3803,-141.1841 627.2189,-136.1256"/>
</g>
<!-- Node21 -->
<g id="node22" class="node">
<title>Node21</title>
<polygon fill="none" stroke="#bfbfbf" points="743.5,-112.5 743.5,-131.5 814.5,-131.5 814.5,-112.5 743.5,-112.5"/>
<text text-anchor="middle" x="779" y="-119.5" font-family="Helvetica,sans-Serif" font-size="10.00" fill="#000000">OFstream.H</text>
</g>
<!-- Node3&#45;&gt;Node21 -->
<g id="edge41" class="edge">
<title>Node3&#45;&gt;Node21</title>
<path fill="none" stroke="#191970" d="M974.2831,-239.4528C897.6693,-231.379 769.012,-215.5406 755,-199 740.7959,-182.2327 753.0267,-157.0856 764.6193,-140.1344"/>
<polygon fill="#191970" stroke="#191970" points="767.7368,-141.8012 770.822,-131.6655 762.0895,-137.665 767.7368,-141.8012"/>
</g>
<!-- Node22 -->
<g id="node23" class="node">
<title>Node22</title>
<polygon fill="none" stroke="#bfbfbf" points="832.5,-112.5 832.5,-131.5 919.5,-131.5 919.5,-112.5 832.5,-112.5"/>
<text text-anchor="middle" x="876" y="-119.5" font-family="Helvetica,sans-Serif" font-size="10.00" fill="#000000">IStringStream.H</text>
</g>
<!-- Node3&#45;&gt;Node22 -->
<g id="edge42" class="edge">
<title>Node3&#45;&gt;Node22</title>
<path fill="none" stroke="#191970" d="M974.3898,-243.4513C904.3824,-240.2037 791.2223,-230.1462 765,-199 756.1264,-188.4602 757.3465,-179.4565 765,-168 772.9983,-156.0275 804.6477,-143.5911 832.1149,-134.6725"/>
<polygon fill="#191970" stroke="#191970" points="833.5116,-137.9019 841.9937,-131.5533 831.4039,-131.2268 833.5116,-137.9019"/>
</g>
<!-- Node23 -->
<g id="node24" class="node">
<title>Node23</title>
<polygon fill="none" stroke="#bfbfbf" points="938,-112.5 938,-131.5 1030,-131.5 1030,-112.5 938,-112.5"/>
<text text-anchor="middle" x="984" y="-119.5" font-family="Helvetica,sans-Serif" font-size="10.00" fill="#000000">OStringStream.H</text>
</g>
<!-- Node3&#45;&gt;Node23 -->
<g id="edge43" class="edge">
<title>Node3&#45;&gt;Node23</title>
<path fill="none" stroke="#191970" d="M974.4475,-243.0142C906.9122,-239.3145 799.9138,-228.7895 775,-199 766.161,-188.4312 766.368,-178.7385 775,-168 779.8615,-161.9521 867.407,-144.2037 927.6346,-132.6042"/>
<polygon fill="#191970" stroke="#191970" points="928.6299,-135.9772 937.7917,-130.6563 927.3114,-129.1025 928.6299,-135.9772"/>
</g>
<!-- Node24 -->
<g id="node25" class="node">
<title>Node24</title>
<polygon fill="none" stroke="#bfbfbf" points="1048,-112.5 1048,-131.5 1098,-131.5 1098,-112.5 1048,-112.5"/>
<text text-anchor="middle" x="1073" y="-119.5" font-family="Helvetica,sans-Serif" font-size="10.00" fill="#000000">fstream</text>
</g>
<!-- Node3&#45;&gt;Node24 -->
<g id="edge44" class="edge">
<title>Node3&#45;&gt;Node24</title>
<path fill="none" stroke="#191970" d="M974.354,-242.5337C909.3321,-238.3751 808.5926,-227.4132 785,-199 776.1984,-188.4 775.967,-178.4035 785,-168 820.5508,-127.0552 967.8656,-142.3557 1037.7321,-131.6962"/>
<polygon fill="#191970" stroke="#191970" points="1038.6502,-135.0863 1047.854,-129.8383 1037.3864,-128.2013 1038.6502,-135.0863"/>
</g>
<!-- Node25 -->
<g id="node26" class="node">
<title>Node25</title>
<polygon fill="none" stroke="#bfbfbf" points="1116,-112.5 1116,-131.5 1170,-131.5 1170,-112.5 1116,-112.5"/>
<text text-anchor="middle" x="1143" y="-119.5" font-family="Helvetica,sans-Serif" font-size="10.00" fill="#000000">iostream</text>
</g>
<!-- Node3&#45;&gt;Node25 -->
<g id="edge45" class="edge">
<title>Node3&#45;&gt;Node25</title>
<path fill="none" stroke="#191970" d="M974.4122,-242.7607C896.5244,-237.7036 770.9522,-221.272 818,-168 859.0004,-121.5754 1028.0964,-142.6652 1106.0475,-131.6523"/>
<polygon fill="#191970" stroke="#191970" points="1106.7033,-135.0912 1115.9759,-129.9658 1105.531,-128.19 1106.7033,-135.0912"/>
</g>
<!-- Node26 -->
<g id="node27" class="node">
<title>Node26</title>
<polygon fill="none" stroke="#bfbfbf" points="1286.5,-112.5 1286.5,-131.5 1327.5,-131.5 1327.5,-112.5 1286.5,-112.5"/>
<text text-anchor="middle" x="1307" y="-119.5" font-family="Helvetica,sans-Serif" font-size="10.00" fill="#000000">string</text>
</g>
<!-- Node3&#45;&gt;Node26 -->
<g id="edge46" class="edge">
<title>Node3&#45;&gt;Node26</title>
<path fill="none" stroke="#191970" d="M1087.5318,-242.3224C1189.2484,-236.9216 1394.5783,-223.1335 1416,-199 1425.1462,-188.6959 1423.6164,-179.4812 1416,-168 1411.3382,-160.9728 1367.8003,-144.031 1337.1835,-132.7872"/>
<polygon fill="#191970" stroke="#191970" points="1338.3567,-129.4896 1327.7627,-129.3566 1335.9615,-136.0671 1338.3567,-129.4896"/>
</g>
<!-- Node27 -->
<g id="node28" class="node">
<title>Node27</title>
<polygon fill="none" stroke="#bfbfbf" points="1346,-112.5 1346,-131.5 1390,-131.5 1390,-112.5 1346,-112.5"/>
<text text-anchor="middle" x="1368" y="-119.5" font-family="Helvetica,sans-Serif" font-size="10.00" fill="#000000">cmath</text>
</g>
<!-- Node3&#45;&gt;Node27 -->
<g id="edge47" class="edge">
<title>Node3&#45;&gt;Node27</title>
<path fill="none" stroke="#191970" d="M1087.6866,-242.639C1193.2466,-237.6573 1411.3483,-224.3843 1434,-199 1443.1733,-188.72 1440.3752,-180.2141 1434,-168 1426.5437,-153.7146 1412.4027,-142.9623 1399.1168,-135.46"/>
<polygon fill="#191970" stroke="#191970" points="1400.6331,-132.3035 1390.1481,-130.7819 1397.3957,-138.5099 1400.6331,-132.3035"/>
</g>
<!-- Node28 -->
<g id="node29" class="node">
<title>Node28</title>
<polygon fill="none" stroke="#bfbfbf" points="1408,-112.5 1408,-131.5 1458,-131.5 1458,-112.5 1408,-112.5"/>
<text text-anchor="middle" x="1433" y="-119.5" font-family="Helvetica,sans-Serif" font-size="10.00" fill="#000000">iomanip</text>
</g>
<!-- Node3&#45;&gt;Node28 -->
<g id="edge48" class="edge">
<title>Node3&#45;&gt;Node28</title>
<path fill="none" stroke="#191970" d="M1087.5291,-242.9271C1196.5266,-238.3465 1427.161,-225.5925 1451,-199 1465.4588,-182.8712 1455.2571,-157.3741 1445.3007,-140.1835"/>
<polygon fill="#191970" stroke="#191970" points="1448.2115,-138.2366 1439.9528,-131.6 1442.2703,-141.9382 1448.2115,-138.2366"/>
</g>
<!-- Node30 -->
<g id="node31" class="node">
<title>Node30</title>
<polygon fill="none" stroke="#bfbfbf" points="827.5,-174 827.5,-193 906.5,-193 906.5,-174 827.5,-174"/>
<text text-anchor="middle" x="867" y="-181" font-family="Helvetica,sans-Serif" font-size="10.00" fill="#000000">UDictionary.H</text>
</g>
<!-- Node3&#45;&gt;Node30 -->
<g id="edge49" class="edge">
<title>Node3&#45;&gt;Node30</title>
<path fill="none" stroke="#191970" d="M1005.375,-235.3906C977.5737,-224.9652 933.0156,-208.2559 902.0006,-196.6252"/>
<polygon fill="#191970" stroke="#191970" points="903.0373,-193.276 892.4451,-193.0419 900.5794,-199.8303 903.0373,-193.276"/>
</g>
<!-- Node31 -->
<g id="node32" class="node">
<title>Node31</title>
<g id="a_node32"><a xlink:href="lnInclude_2FrontTrackingCloudI_8H.html" target="_top" xlink:title="FrontTrackingCloudI.H">
<polygon fill="none" stroke="#000000" points="168,-174 168,-193 284,-193 284,-174 168,-174"/>
<text text-anchor="middle" x="226" y="-181" font-family="Helvetica,sans-Serif" font-size="10.00" fill="#000000">FrontTrackingCloudI.H</text>
</a>
</g>
</g>
<!-- Node3&#45;&gt;Node31 -->
<g id="edge50" class="edge">
<title>Node3&#45;&gt;Node31</title>
<path fill="none" stroke="#191970" d="M974.0662,-243.7623C851.7122,-240.5797 554.7732,-230.0532 308,-199 299.2269,-197.896 289.9762,-196.4375 280.9744,-194.8561"/>
<polygon fill="#191970" stroke="#191970" points="281.421,-191.3799 270.9556,-193.031 280.1663,-198.2666 281.421,-191.3799"/>
</g>
<!-- Node10&#45;&gt;Node7 -->
<g id="edge11" class="edge">
<title>Node10&#45;&gt;Node7</title>
<path fill="none" stroke="#191970" d="M1390.4063,-173.8906C1413.2283,-163.6457 1449.5679,-147.3326 1475.4057,-135.7339"/>
<polygon fill="#191970" stroke="#191970" points="1477.0545,-138.8303 1484.7441,-131.5419 1474.1877,-132.4443 1477.0545,-138.8303"/>
</g>
<!-- Node10&#45;&gt;Node11 -->
<g id="edge12" class="edge">
<title>Node10&#45;&gt;Node11</title>
<path fill="none" stroke="#191970" d="M1343.4012,-173.9227C1336.2452,-171.6068 1328.4,-169.3986 1321,-168 1067.4285,-120.0743 994.3895,-169.1354 735.4511,-131.9706"/>
<polygon fill="#191970" stroke="#191970" points="735.7711,-128.4802 725.3694,-130.4938 734.7565,-135.4063 735.7711,-128.4802"/>
</g>
<!-- Node10&#45;&gt;Node12 -->
<g id="edge13" class="edge">
<title>Node10&#45;&gt;Node12</title>
<path fill="none" stroke="#191970" d="M1403.2188,-173.8906C1441.2275,-163.2169 1502.6911,-145.9566 1544.1884,-134.3033"/>
<polygon fill="#191970" stroke="#191970" points="1545.3402,-137.6153 1554.0215,-131.5419 1543.4477,-130.8759 1545.3402,-137.6153"/>
</g>
<!-- Node10&#45;&gt;Node13 -->
<g id="edge14" class="edge">
<title>Node10&#45;&gt;Node13</title>
<path fill="none" stroke="#191970" d="M1407.865,-177.0127C1459.2375,-168.1752 1552.4278,-151.2338 1631,-132 1631.1009,-131.9753 1631.2018,-131.9505 1631.303,-131.9256"/>
<polygon fill="#191970" stroke="#191970" points="1632.1571,-135.3202 1640.9282,-129.3773 1630.3655,-128.5533 1632.1571,-135.3202"/>
</g>
<!-- Node10&#45;&gt;Node14 -->
<g id="edge15" class="edge">
<title>Node10&#45;&gt;Node14</title>
<path fill="none" stroke="#191970" d="M1407.7433,-178.8232C1467.7012,-171.2839 1586.7139,-155.1193 1696.8492,-132.0678"/>
<polygon fill="#191970" stroke="#191970" points="1697.737,-135.4575 1706.795,-129.9619 1696.2869,-128.6093 1697.737,-135.4575"/>
</g>
<!-- Node10&#45;&gt;Node15 -->
<g id="edge16" class="edge">
<title>Node10&#45;&gt;Node15</title>
<path fill="none" stroke="#191970" d="M1407.7374,-179.3702C1478.0105,-171.7006 1631.3853,-154.1461 1771.4137,-132.0063"/>
<polygon fill="#191970" stroke="#191970" points="1772.1463,-135.4338 1781.4713,-130.4043 1771.0452,-128.5209 1772.1463,-135.4338"/>
</g>
<!-- Node10&#45;&gt;Node16 -->
<g id="edge17" class="edge">
<title>Node10&#45;&gt;Node16</title>
<path fill="none" stroke="#191970" d="M1407.7831,-181.7158C1491.5266,-177.402 1695.534,-164.411 1874.5666,-132.0244"/>
<polygon fill="#191970" stroke="#191970" points="1875.2177,-135.4634 1884.4223,-130.217 1873.955,-128.5782 1875.2177,-135.4634"/>
</g>
<!-- Node10&#45;&gt;Node17 -->
<g id="edge18" class="edge">
<title>Node10&#45;&gt;Node17</title>
<path fill="none" stroke="#191970" d="M1343.9213,-173.9645C1336.6326,-171.5881 1328.5891,-169.3383 1321,-168 895.4562,-92.9572 776.2253,-181.499 343.6142,-132.0092"/>
<polygon fill="#191970" stroke="#191970" points="343.9991,-128.5305 333.6619,-130.8527 343.1911,-135.4837 343.9991,-128.5305"/>
</g>
<!-- Node10&#45;&gt;Node18 -->
<g id="edge19" class="edge">
<title>Node10&#45;&gt;Node18</title>
<path fill="none" stroke="#191970" d="M1343.9155,-173.9971C1336.6267,-171.6211 1328.5846,-169.3635 1321,-168 961.3058,-103.3369 861.1695,-163.2991 492.9501,-131.9917"/>
<polygon fill="#191970" stroke="#191970" points="493.0783,-128.4898 482.8133,-131.1126 492.4735,-135.4636 493.0783,-128.4898"/>
</g>
<!-- Node10&#45;&gt;Node19 -->
<g id="edge20" class="edge">
<title>Node10&#45;&gt;Node19</title>
<path fill="none" stroke="#191970" d="M1343.6629,-173.9369C1336.4402,-171.591 1328.4955,-169.3639 1321,-168 993.7181,-108.4459 899.6993,-182.6524 567.0576,-131.8212"/>
<polygon fill="#191970" stroke="#191970" points="567.565,-128.3581 557.1461,-130.2806 566.4898,-135.2751 567.565,-128.3581"/>
</g>
<!-- Node10&#45;&gt;Node20 -->
<g id="edge21" class="edge">
<title>Node10&#45;&gt;Node20</title>
<path fill="none" stroke="#191970" d="M1343.6576,-173.9661C1336.4348,-171.6204 1328.4914,-169.3862 1321,-168 1030.6322,-114.2695 947.4373,-173.4024 651.5316,-131.9683"/>
<polygon fill="#191970" stroke="#191970" points="651.7602,-128.4655 641.3659,-130.5172 650.771,-135.3953 651.7602,-128.4655"/>
</g>
<!-- Node10&#45;&gt;Node21 -->
<g id="edge22" class="edge">
<title>Node10&#45;&gt;Node21</title>
<path fill="none" stroke="#191970" d="M1343.391,-173.9761C1336.2349,-171.6604 1328.3923,-169.439 1321,-168 1106.4747,-126.2407 1044.364,-163.519 825.1542,-132.1292"/>
<polygon fill="#191970" stroke="#191970" points="825.3361,-128.6186 814.9345,-130.6327 824.3218,-135.5447 825.3361,-128.6186"/>
</g>
<!-- Node10&#45;&gt;Node22 -->
<g id="edge23" class="edge">
<title>Node10&#45;&gt;Node22</title>
<path fill="none" stroke="#191970" d="M1343.1221,-173.9902C1336.0337,-171.7035 1328.2922,-169.4931 1321,-168 1152.7809,-133.5564 1104.0664,-155.4003 929.6475,-131.9488"/>
<polygon fill="#191970" stroke="#191970" points="930.0023,-128.4648 919.6187,-130.5695 929.0485,-135.3995 930.0023,-128.4648"/>
</g>
<!-- Node10&#45;&gt;Node23 -->
<g id="edge24" class="edge">
<title>Node10&#45;&gt;Node23</title>
<path fill="none" stroke="#191970" d="M1342.3323,-173.9206C1335.4516,-171.7173 1328.0082,-169.5647 1321,-168 1200.8165,-141.1676 1165.6416,-150.7822 1040.1765,-132.0989"/>
<polygon fill="#191970" stroke="#191970" points="1040.5961,-128.6226 1030.1836,-130.5799 1039.5441,-135.5431 1040.5961,-128.6226"/>
</g>
<!-- Node10&#45;&gt;Node24 -->
<g id="edge25" class="edge">
<title>Node10&#45;&gt;Node24</title>
<path fill="none" stroke="#191970" d="M1341.783,-173.9515C1335.0453,-171.7988 1327.8057,-169.6619 1321,-168 1230.4165,-145.8802 1202.8092,-153.1142 1108.157,-132.0384"/>
<polygon fill="#191970" stroke="#191970" points="1108.6898,-128.5702 1098.1625,-129.7645 1107.1368,-135.3958 1108.6898,-128.5702"/>
</g>
<!-- Node10&#45;&gt;Node25 -->
<g id="edge26" class="edge">
<title>Node10&#45;&gt;Node25</title>
<path fill="none" stroke="#191970" d="M1340.4107,-173.9366C1334.0446,-171.8998 1327.3114,-169.8171 1321,-168 1261.3664,-150.8316 1243.5746,-148.8701 1179.854,-132.1748"/>
<polygon fill="#191970" stroke="#191970" points="1180.6711,-128.7706 1170.1089,-129.6011 1178.8837,-135.5386 1180.6711,-128.7706"/>
</g>
<!-- Node10&#45;&gt;Node26 -->
<g id="edge27" class="edge">
<title>Node10&#45;&gt;Node26</title>
<path fill="none" stroke="#191970" d="M1359.3125,-173.8906C1349.9041,-164.5581 1335.4193,-150.1902 1324.0751,-138.9374"/>
<polygon fill="#191970" stroke="#191970" points="1326.3886,-136.3024 1316.8241,-131.7449 1321.4589,-141.2722 1326.3886,-136.3024"/>
</g>
<!-- Node10&#45;&gt;Node27 -->
<g id="edge28" class="edge">
<title>Node10&#45;&gt;Node27</title>
<path fill="none" stroke="#191970" d="M1368.8438,-173.8906C1368.7051,-165.3657 1368.4982,-152.6392 1368.324,-141.9235"/>
<polygon fill="#191970" stroke="#191970" points="1371.8207,-141.6866 1368.1585,-131.7449 1364.8216,-141.8005 1371.8207,-141.6866"/>
</g>
<!-- Node10&#45;&gt;Node28 -->
<g id="edge29" class="edge">
<title>Node10&#45;&gt;Node28</title>
<path fill="none" stroke="#191970" d="M1379,-173.8906C1388.7119,-164.5581 1403.6639,-150.1902 1415.3741,-138.9374"/>
<polygon fill="#191970" stroke="#191970" points="1418.0736,-141.1974 1422.859,-131.7449 1413.2234,-136.15 1418.0736,-141.1974"/>
</g>
<!-- Node29 -->
<g id="node30" class="node">
<title>Node29</title>
<g id="a_node30"><a xlink:href="lnInclude_2bubbleDataI_8H.html" target="_top" xlink:title="bubbleDataI.H">
<polygon fill="none" stroke="#000000" points="1188,-112.5 1188,-131.5 1268,-131.5 1268,-112.5 1188,-112.5"/>
<text text-anchor="middle" x="1228" y="-119.5" font-family="Helvetica,sans-Serif" font-size="10.00" fill="#000000">bubbleDataI.H</text>
</a>
</g>
</g>
<!-- Node10&#45;&gt;Node29 -->
<g id="edge30" class="edge">
<title>Node10&#45;&gt;Node29</title>
<path fill="none" stroke="#191970" d="M1346.9688,-173.8906C1323.3769,-163.6005 1285.7499,-147.1888 1259.1367,-135.5809"/>
<polygon fill="#191970" stroke="#191970" points="1260.4419,-132.3318 1249.8765,-131.5419 1257.6433,-138.748 1260.4419,-132.3318"/>
</g>
<!-- Node32 -->
<g id="node33" class="node">
<title>Node32</title>
<g id="a_node33"><a xlink:href="lnInclude_2NoFrontToField_8H.html" target="_top" xlink:title="NoFrontToField.H">
<polygon fill="none" stroke="#000000" points="137.5,-112.5 137.5,-131.5 232.5,-131.5 232.5,-112.5 137.5,-112.5"/>
<text text-anchor="middle" x="185" y="-119.5" font-family="Helvetica,sans-Serif" font-size="10.00" fill="#000000">NoFrontToField.H</text>
</a>
</g>
</g>
<!-- Node31&#45;&gt;Node32 -->
<g id="edge51" class="edge">
<title>Node31&#45;&gt;Node32</title>
<path fill="none" stroke="#191970" d="M219.5938,-173.8906C213.6114,-164.917 204.5253,-151.2879 197.1661,-140.2491"/>
<polygon fill="#191970" stroke="#191970" points="199.9558,-138.1239 191.4966,-131.7449 194.1314,-142.0068 199.9558,-138.1239"/>
</g>
<!-- Node33 -->
<g id="node34" class="node">
<title>Node33</title>
<g id="a_node34"><a xlink:href="lnInclude_2FrontToFieldModel_8H.html" target="_top" xlink:title="FrontToFieldModel.H">
<polygon fill="none" stroke="#000000" points="131,-56.5 131,-75.5 239,-75.5 239,-56.5 131,-56.5"/>
<text text-anchor="middle" x="185" y="-63.5" font-family="Helvetica,sans-Serif" font-size="10.00" fill="#000000">FrontToFieldModel.H</text>
</a>
</g>
</g>
<!-- Node32&#45;&gt;Node33 -->
<g id="edge52" class="edge">
<title>Node32&#45;&gt;Node33</title>
<path fill="none" stroke="#191970" d="M185,-112.2455C185,-104.9382 185,-94.6944 185,-85.7046"/>
<polygon fill="#191970" stroke="#191970" points="188.5001,-85.6426 185,-75.6427 181.5001,-85.6427 188.5001,-85.6426"/>
</g>
<!-- Node34 -->
<g id="node35" class="node">
<title>Node34</title>
<polygon fill="none" stroke="#bfbfbf" points="0,-.5 0,-19.5 80,-19.5 80,-.5 0,-.5"/>
<text text-anchor="middle" x="40" y="-7.5" font-family="Helvetica,sans-Serif" font-size="10.00" fill="#000000">IOdictionary.H</text>
</g>
<!-- Node33&#45;&gt;Node34 -->
<g id="edge53" class="edge">
<title>Node33&#45;&gt;Node34</title>
<path fill="none" stroke="#191970" d="M160.0736,-56.3733C136.3798,-47.2226 100.5489,-33.3844 74.1932,-23.2057"/>
<polygon fill="#191970" stroke="#191970" points="75.1906,-19.8389 64.6011,-19.5011 72.6686,-26.3689 75.1906,-19.8389"/>
</g>
<!-- Node35 -->
<g id="node36" class="node">
<title>Node35</title>
<polygon fill="none" stroke="#bfbfbf" points="98.5,-.5 98.5,-19.5 157.5,-19.5 157.5,-.5 98.5,-.5"/>
<text text-anchor="middle" x="128" y="-7.5" font-family="Helvetica,sans-Serif" font-size="10.00" fill="#000000">autoPtr.H</text>
</g>
<!-- Node33&#45;&gt;Node35 -->
<g id="edge54" class="edge">
<title>Node33&#45;&gt;Node35</title>
<path fill="none" stroke="#191970" d="M175.0714,-56.2455C166.8162,-48.1352 154.8791,-36.4075 145.0918,-26.7919"/>
<polygon fill="#191970" stroke="#191970" points="147.4011,-24.1542 137.8149,-19.6427 142.4954,-29.1476 147.4011,-24.1542"/>
</g>
<!-- Node36 -->
<g id="node37" class="node">
<title>Node36</title>
<polygon fill="none" stroke="#bfbfbf" points="176,-.5 176,-19.5 308,-19.5 308,-.5 176,-.5"/>
<text text-anchor="middle" x="242" y="-7.5" font-family="Helvetica,sans-Serif" font-size="10.00" fill="#000000">runTimeSelectionTables.H</text>
</g>
<!-- Node33&#45;&gt;Node36 -->
<g id="edge55" class="edge">
<title>Node33&#45;&gt;Node36</title>
<path fill="none" stroke="#191970" d="M194.9286,-56.2455C203.1838,-48.1352 215.1209,-36.4075 224.9082,-26.7919"/>
<polygon fill="#191970" stroke="#191970" points="227.5046,-29.1476 232.1851,-19.6427 222.5989,-24.1542 227.5046,-29.1476"/>
</g>
<!-- Node37 -->
<g id="node38" class="node">
<title>Node37</title>
<polygon fill="none" stroke="#bfbfbf" points="326.5,-.5 326.5,-19.5 445.5,-19.5 445.5,-.5 326.5,-.5"/>
<text text-anchor="middle" x="386" y="-7.5" font-family="Helvetica,sans-Serif" font-size="10.00" fill="#000000">CloudSubModelBase.H</text>
</g>
<!-- Node33&#45;&gt;Node37 -->
<g id="edge56" class="edge">
<title>Node33&#45;&gt;Node37</title>
<path fill="none" stroke="#191970" d="M219.5531,-56.3733C253.4104,-46.9404 305.146,-32.5265 341.9426,-22.2747"/>
<polygon fill="#191970" stroke="#191970" points="343.204,-25.5566 351.8978,-19.5011 341.3253,-18.8135 343.204,-25.5566"/>
</g>
<!-- Node40 -->
<g id="node41" class="node">
<title>Node40</title>
<polygon fill="none" stroke="#bfbfbf" points="2099,-235.5 2099,-254.5 2173,-254.5 2173,-235.5 2099,-235.5"/>
<text text-anchor="middle" x="2136" y="-242.5" font-family="Helvetica,sans-Serif" font-size="10.00" fill="#000000">contiguous.H</text>
</g>
<!-- Node39&#45;&gt;Node40 -->
<g id="edge59" class="edge">
<title>Node39&#45;&gt;Node40</title>
<path fill="none" stroke="#191970" d="M2042.4254,-291.3733C2060.4021,-282.4644 2087.3441,-269.1127 2107.709,-259.0203"/>
<polygon fill="#191970" stroke="#191970" points="2109.4222,-262.0776 2116.8281,-254.5011 2106.3139,-255.8055 2109.4222,-262.0776"/>
</g>
<!-- Node41 -->
<g id="node42" class="node">
<title>Node41</title>
<polygon fill="none" stroke="#bfbfbf" points="2308.5,-174 2308.5,-193 2367.5,-193 2367.5,-174 2308.5,-174"/>
<text text-anchor="middle" x="2338" y="-181" font-family="Helvetica,sans-Serif" font-size="10.00" fill="#000000">particle.H</text>
</g>
<!-- Node39&#45;&gt;Node41 -->
<g id="edge60" class="edge">
<title>Node39&#45;&gt;Node41</title>
<path fill="none" stroke="#191970" d="M2062.0756,-291.4239C2094.5852,-283.0472 2141.8632,-269.9105 2182,-255 2227.8647,-237.9617 2279.0835,-213.3591 2309.9121,-197.9092"/>
<polygon fill="#191970" stroke="#191970" points="2311.8217,-200.866 2319.1723,-193.2358 2308.6678,-194.6168 2311.8217,-200.866"/>
</g>
<!-- Node42 -->
<g id="node43" class="node">
<title>Node42</title>
<polygon fill="none" stroke="#bfbfbf" points="1843,-235.5 1843,-254.5 1947,-254.5 1947,-235.5 1843,-235.5"/>
<text text-anchor="middle" x="1895" y="-242.5" font-family="Helvetica,sans-Serif" font-size="10.00" fill="#000000">MomentumParcel.H</text>
</g>
<!-- Node39&#45;&gt;Node42 -->
<g id="edge61" class="edge">
<title>Node39&#45;&gt;Node42</title>
<path fill="none" stroke="#191970" d="M2000.996,-291.3733C1980.3565,-282.3435 1949.2842,-268.7494 1926.1111,-258.6111"/>
<polygon fill="#191970" stroke="#191970" points="1927.2813,-255.3028 1916.7169,-254.5011 1924.4755,-261.7159 1927.2813,-255.3028"/>
</g>
<!-- Node43 -->
<g id="node44" class="node">
<title>Node43</title>
<g id="a_node44"><a xlink:href="lnInclude_2FrontTrackingParcel_8H.html" target="_top" xlink:title="FrontTrackingParcel.H">
<polygon fill="none" stroke="#000000" points="1965.5,-235.5 1965.5,-254.5 2080.5,-254.5 2080.5,-235.5 1965.5,-235.5"/>
<text text-anchor="middle" x="2023" y="-242.5" font-family="Helvetica,sans-Serif" font-size="10.00" fill="#000000">FrontTrackingParcel.H</text>
</a>
</g>
</g>
<!-- Node39&#45;&gt;Node43 -->
<g id="edge62" class="edge">
<title>Node39&#45;&gt;Node43</title>
<path fill="none" stroke="#191970" d="M2023,-291.2455C2023,-283.9382 2023,-273.6944 2023,-264.7046"/>
<polygon fill="#191970" stroke="#191970" points="2026.5001,-264.6426 2023,-254.6427 2019.5001,-264.6427 2026.5001,-264.6426"/>
</g>
<!-- Node43&#45;&gt;Node10 -->
<g id="edge66" class="edge">
<title>Node43&#45;&gt;Node10</title>
<path fill="none" stroke="#191970" d="M1965.2863,-236.159C1962.1475,-235.7491 1959.0366,-235.3595 1956,-235 1756.8176,-211.4201 1518.4243,-193.7509 1417.711,-186.7696"/>
<polygon fill="#191970" stroke="#191970" points="1417.7607,-183.2649 1407.5437,-186.0688 1417.2793,-190.2483 1417.7607,-183.2649"/>
</g>
<!-- Node43&#45;&gt;Node41 -->
<g id="edge63" class="edge">
<title>Node43&#45;&gt;Node41</title>
<path fill="none" stroke="#191970" d="M2080.6634,-236.0614C2155.3293,-224.3833 2278.3808,-204.7448 2299,-199 2301.6079,-198.2734 2304.2803,-197.4312 2306.9436,-196.5223"/>
<polygon fill="#191970" stroke="#191970" points="2308.2478,-199.7718 2316.4172,-193.0256 2305.8239,-193.2048 2308.2478,-199.7718"/>
</g>
<!-- Node44 -->
<g id="node45" class="node">
<title>Node44</title>
<polygon fill="none" stroke="#bfbfbf" points="1928,-174 1928,-193 2028,-193 2028,-174 1928,-174"/>
<text text-anchor="middle" x="1978" y="-181" font-family="Helvetica,sans-Serif" font-size="10.00" fill="#000000">labelFieldIOField.H</text>
</g>
<!-- Node43&#45;&gt;Node44 -->
<g id="edge64" class="edge">
<title>Node43&#45;&gt;Node44</title>
<path fill="none" stroke="#191970" d="M2015.9688,-235.3906C2009.337,-226.3273 1999.2304,-212.5149 1991.1113,-201.4188"/>
<polygon fill="#191970" stroke="#191970" points="1993.8601,-199.2484 1985.1304,-193.2449 1988.2109,-203.382 1993.8601,-199.2484"/>
</g>
<!-- Node45 -->
<g id="node46" class="node">
<title>Node45</title>
<polygon fill="none" stroke="#bfbfbf" points="2046.5,-174 2046.5,-193 2153.5,-193 2153.5,-174 2046.5,-174"/>
<text text-anchor="middle" x="2100" y="-181" font-family="Helvetica,sans-Serif" font-size="10.00" fill="#000000">vectorFieldIOField.H</text>
</g>
<!-- Node43&#45;&gt;Node45 -->
<g id="edge65" class="edge">
<title>Node43&#45;&gt;Node45</title>
<path fill="none" stroke="#191970" d="M2035.0313,-235.3906C2047.0107,-225.8227 2065.6166,-210.9621 2079.8525,-199.5919"/>
<polygon fill="#191970" stroke="#191970" points="2082.4239,-202.0175 2088.0532,-193.0419 2078.0553,-196.5479 2082.4239,-202.0175"/>
</g>
<!-- Node46 -->
<g id="node47" class="node">
<title>Node46</title>
<g id="a_node47"><a xlink:href="lnInclude_2FrontTrackingParcelI_8H.html" target="_top" xlink:title="FrontTrackingParcelI.H">
<polygon fill="none" stroke="#000000" points="2172,-174 2172,-193 2290,-193 2290,-174 2172,-174"/>
<text text-anchor="middle" x="2231" y="-181" font-family="Helvetica,sans-Serif" font-size="10.00" fill="#000000">FrontTrackingParcelI.H</text>
</a>
</g>
</g>
<!-- Node43&#45;&gt;Node46 -->
<g id="edge67" class="edge">
<title>Node43&#45;&gt;Node46</title>
<path fill="none" stroke="#191970" d="M2055.5,-235.3906C2091.447,-224.7621 2149.4827,-207.6025 2188.888,-195.9514"/>
<polygon fill="#191970" stroke="#191970" points="2190.131,-199.2337 2198.7282,-193.0419 2188.1462,-192.521 2190.131,-199.2337"/>
</g>
<!-- Node47 -->
<g id="node48" class="node">
<title>Node47</title>
<g id="a_node48"><a xlink:href="lnInclude_2FrontTrackingParcelTrackingDataI_8H.html" target="_top" xlink:title="FrontTrackingParcelTracking\lDataI.H">
<polygon fill="none" stroke="#000000" points="1768,-168.5 1768,-198.5 1910,-198.5 1910,-168.5 1768,-168.5"/>
<text text-anchor="start" x="1776" y="-186.5" font-family="Helvetica,sans-Serif" font-size="10.00" fill="#000000">FrontTrackingParcelTracking</text>
<text text-anchor="middle" x="1839" y="-175.5" font-family="Helvetica,sans-Serif" font-size="10.00" fill="#000000">DataI.H</text>
</a>
</g>
</g>
<!-- Node43&#45;&gt;Node47 -->
<g id="edge68" class="edge">
<title>Node43&#45;&gt;Node47</title>
<path fill="none" stroke="#191970" d="M1994.25,-235.3906C1967.3879,-226.4123 1926.5825,-212.7735 1893.5466,-201.7316"/>
<polygon fill="#191970" stroke="#191970" points="1894.6052,-198.3952 1884.0115,-198.5446 1892.3862,-205.0342 1894.6052,-198.3952"/>
</g>
<!-- Node48 -->
<g id="node49" class="node">
<title>Node48</title>
<polygon fill="none" stroke="#bfbfbf" points="1959.5,-112.5 1959.5,-131.5 2062.5,-131.5 2062.5,-112.5 1959.5,-112.5"/>
<text text-anchor="middle" x="2011" y="-119.5" font-family="Helvetica,sans-Serif" font-size="10.00" fill="#000000">AveragingMethod.H</text>
</g>
<!-- Node47&#45;&gt;Node48 -->
<g id="edge69" class="edge">
<title>Node47&#45;&gt;Node48</title>
<path fill="none" stroke="#191970" d="M1881.0759,-168.4554C1909.7746,-158.194 1947.3937,-144.7429 1974.7623,-134.9571"/>
<polygon fill="#191970" stroke="#191970" points="1976.1083,-138.1929 1984.3461,-131.5303 1973.7515,-131.6015 1976.1083,-138.1929"/>
</g>
</g>
</svg>
