<?xml version="1.0" encoding="UTF-8" standalone="no"?>
<!DOCTYPE svg PUBLIC "-//W3C//DTD SVG 1.1//EN"
 "http://www.w3.org/Graphics/SVG/1.1/DTD/svg11.dtd">
<!-- Generated by graphviz version 2.40.1 (20161225.0304)
 -->
<!-- Title: lnInclude/NoFrontToField.H Pages: 1 -->
<svg width="744pt" height="285pt"
 viewBox="0.00 0.00 743.50 285.00" xmlns="http://www.w3.org/2000/svg" xmlns:xlink="http://www.w3.org/1999/xlink">
<g id="graph0" class="graph" transform="scale(1 1) rotate(0) translate(4 281)">
<title>lnInclude/NoFrontToField.H</title>
<!-- Node6 -->
<g id="node1" class="node">
<title>Node6</title>
<polygon fill="#bfbfbf" stroke="#000000" points="491.5,-257.5 491.5,-276.5 628.5,-276.5 628.5,-257.5 491.5,-257.5"/>
<text text-anchor="middle" x="560" y="-264.5" font-family="Helvetica,sans-Serif" font-size="10.00" fill="#000000">lnInclude/NoFrontToField.H</text>
</g>
<!-- Node7 -->
<g id="node2" class="node">
<title>Node7</title>
<g id="a_node2"><a xlink:href="lnInclude_2FrontTrackingCloudI_8H.html" target="_top" xlink:title="lnInclude/FrontTrackingCloudI.H">
<polygon fill="none" stroke="#000000" points="359,-201.5 359,-220.5 517,-220.5 517,-201.5 359,-201.5"/>
<text text-anchor="middle" x="438" y="-208.5" font-family="Helvetica,sans-Serif" font-size="10.00" fill="#000000">lnInclude/FrontTrackingCloudI.H</text>
</a>
</g>
</g>
<!-- Node6&#45;&gt;Node7 -->
<g id="edge1" class="edge">
<title>Node6&#45;&gt;Node7</title>
<path fill="none" stroke="#191970" d="M529.7416,-253.1109C507.6181,-242.9559 478.1906,-229.4482 458.6989,-220.5011"/>
<polygon fill="#191970" stroke="#191970" points="528.479,-256.3824 539.0275,-257.3733 531.3993,-250.0206 528.479,-256.3824"/>
</g>
<!-- Node17 -->
<g id="node12" class="node">
<title>Node17</title>
<g id="a_node12"><a xlink:href="lnInclude_2makeFrontTrackingParcelFrontToFieldModels_8H.html" target="_top" xlink:title="lnInclude/makeFrontTracking\lParcelFrontToFieldModels.H">
<polygon fill="none" stroke="#000000" points="552.5,-134.5 552.5,-164.5 695.5,-164.5 695.5,-134.5 552.5,-134.5"/>
<text text-anchor="start" x="560.5" y="-152.5" font-family="Helvetica,sans-Serif" font-size="10.00" fill="#000000">lnInclude/makeFrontTracking</text>
<text text-anchor="middle" x="624" y="-141.5" font-family="Helvetica,sans-Serif" font-size="10.00" fill="#000000">ParcelFrontToFieldModels.H</text>
</a>
</g>
</g>
<!-- Node6&#45;&gt;Node17 -->
<g id="edge11" class="edge">
<title>Node6&#45;&gt;Node17</title>
<path fill="none" stroke="#191970" d="M563.399,-246.9197C566.2523,-233.3659 571.151,-215.3941 579,-201 586.3895,-187.4485 597.8784,-174.3797 607.3976,-164.798"/>
<polygon fill="#191970" stroke="#191970" points="559.8947,-246.6121 561.4634,-257.0902 566.7713,-247.9209 559.8947,-246.6121"/>
</g>
<!-- Node18 -->
<g id="node13" class="node">
<title>Node18</title>
<g id="a_node13"><a xlink:href="lnInclude_2NoFrontToField_8C.html" target="_top" xlink:title="lnInclude/NoFrontToField.C">
<polygon fill="none" stroke="#000000" points="588.5,-201.5 588.5,-220.5 725.5,-220.5 725.5,-201.5 588.5,-201.5"/>
<text text-anchor="middle" x="657" y="-208.5" font-family="Helvetica,sans-Serif" font-size="10.00" fill="#000000">lnInclude/NoFrontToField.C</text>
</a>
</g>
</g>
<!-- Node6&#45;&gt;Node18 -->
<g id="edge13" class="edge">
<title>Node6&#45;&gt;Node18</title>
<path fill="none" stroke="#191970" d="M585.9016,-252.0465C603.1609,-242.0824 625.3376,-229.2794 640.2975,-220.6427"/>
<polygon fill="#191970" stroke="#191970" points="583.8065,-249.2146 576.8961,-257.2455 587.3064,-255.2768 583.8065,-249.2146"/>
</g>
<!-- Node8 -->
<g id="node3" class="node">
<title>Node8</title>
<g id="a_node3"><a xlink:href="lnInclude_2FrontTrackingCloud_8H.html" target="_top" xlink:title="lnInclude/FrontTrackingCloud.H">
<polygon fill="none" stroke="#000000" points="330.5,-140 330.5,-159 485.5,-159 485.5,-140 330.5,-140"/>
<text text-anchor="middle" x="408" y="-147" font-family="Helvetica,sans-Serif" font-size="10.00" fill="#000000">lnInclude/FrontTrackingCloud.H</text>
</a>
</g>
</g>
<!-- Node7&#45;&gt;Node8 -->
<g id="edge2" class="edge">
<title>Node7&#45;&gt;Node8</title>
<path fill="none" stroke="#191970" d="M428.8551,-192.253C423.5417,-181.3606 417.0657,-168.0846 412.7536,-159.2449"/>
<polygon fill="#191970" stroke="#191970" points="425.7825,-193.9374 433.3125,-201.3906 432.0739,-190.8684 425.7825,-193.9374"/>
</g>
<!-- Node9 -->
<g id="node4" class="node">
<title>Node9</title>
<g id="a_node4"><a xlink:href="clouds_2derived_2frontTrackingCloud_2frontTrackingCloud_8H.html" target="_top" xlink:title="clouds/derived/frontTracking\lCloud/frontTrackingCloud.H">
<polygon fill="none" stroke="#000000" points="0,-67.5 0,-97.5 140,-97.5 140,-67.5 0,-67.5"/>
<text text-anchor="start" x="8" y="-85.5" font-family="Helvetica,sans-Serif" font-size="10.00" fill="#000000">clouds/derived/frontTracking</text>
<text text-anchor="middle" x="70" y="-74.5" font-family="Helvetica,sans-Serif" font-size="10.00" fill="#000000">Cloud/frontTrackingCloud.H</text>
</a>
</g>
</g>
<!-- Node8&#45;&gt;Node9 -->
<g id="edge3" class="edge">
<title>Node8&#45;&gt;Node9</title>
<path fill="none" stroke="#191970" d="M349.8128,-137.9658C291.6864,-126.4438 202.2839,-108.722 140.2398,-96.4233"/>
<polygon fill="#191970" stroke="#191970" points="349.4421,-141.4604 359.9318,-139.9717 350.8032,-134.594 349.4421,-141.4604"/>
</g>
<!-- Node11 -->
<g id="node6" class="node">
<title>Node11</title>
<g id="a_node6"><a xlink:href="lnInclude_2FrontTrackingCloud_8C.html" target="_top" xlink:title="lnInclude/FrontTrackingCloud.C">
<polygon fill="none" stroke="#000000" points="158.5,-73 158.5,-92 313.5,-92 313.5,-73 158.5,-73"/>
<text text-anchor="middle" x="236" y="-80" font-family="Helvetica,sans-Serif" font-size="10.00" fill="#000000">lnInclude/FrontTrackingCloud.C</text>
</a>
</g>
</g>
<!-- Node8&#45;&gt;Node11 -->
<g id="edge5" class="edge">
<title>Node8&#45;&gt;Node11</title>
<path fill="none" stroke="#191970" d="M373.9816,-136.2487C340.5471,-123.2247 290.3363,-103.6659 260.5977,-92.0817"/>
<polygon fill="#191970" stroke="#191970" points="372.7682,-139.5321 383.3566,-139.9005 375.309,-133.0095 372.7682,-139.5321"/>
</g>
<!-- Node12 -->
<g id="node7" class="node">
<title>Node12</title>
<g id="a_node7"><a xlink:href="lnInclude_2frontTrackingCloud_8H.html" target="_top" xlink:title="lnInclude/frontTrackingCloud.H">
<polygon fill="none" stroke="#000000" points="332,-73 332,-92 484,-92 484,-73 332,-73"/>
<text text-anchor="middle" x="408" y="-80" font-family="Helvetica,sans-Serif" font-size="10.00" fill="#000000">lnInclude/frontTrackingCloud.H</text>
</a>
</g>
</g>
<!-- Node8&#45;&gt;Node12 -->
<g id="edge6" class="edge">
<title>Node8&#45;&gt;Node12</title>
<path fill="none" stroke="#191970" d="M408,-129.6079C408,-117.214 408,-101.8263 408,-92.0817"/>
<polygon fill="#191970" stroke="#191970" points="404.5001,-129.9005 408,-139.9005 411.5001,-129.9006 404.5001,-129.9005"/>
</g>
<!-- Node16 -->
<g id="node11" class="node">
<title>Node16</title>
<g id="a_node11"><a xlink:href="lnInclude_2FrontTrackingCloudName_8C.html" target="_top" xlink:title="lnInclude/FrontTrackingCloud\lName.C">
<polygon fill="none" stroke="#000000" points="502,-67.5 502,-97.5 646,-97.5 646,-67.5 502,-67.5"/>
<text text-anchor="start" x="510" y="-85.5" font-family="Helvetica,sans-Serif" font-size="10.00" fill="#000000">lnInclude/FrontTrackingCloud</text>
<text text-anchor="middle" x="574" y="-74.5" font-family="Helvetica,sans-Serif" font-size="10.00" fill="#000000">Name.C</text>
</a>
</g>
</g>
<!-- Node8&#45;&gt;Node16 -->
<g id="edge10" class="edge">
<title>Node8&#45;&gt;Node16</title>
<path fill="none" stroke="#191970" d="M441.3904,-136.0231C468.9973,-124.8806 508.1708,-109.0696 536.7819,-97.5218"/>
<polygon fill="#191970" stroke="#191970" points="439.7469,-132.9121 431.7838,-139.9005 442.3669,-139.4033 439.7469,-132.9121"/>
</g>
<!-- Node10 -->
<g id="node5" class="node">
<title>Node10</title>
<g id="a_node5"><a xlink:href="clouds_2derived_2frontTrackingCloud_2frontTrackingCloud_8C.html" target="_top" xlink:title="clouds/derived/frontTracking\lCloud/frontTrackingCloud.C">
<polygon fill="none" stroke="#000000" points="0,-.5 0,-30.5 140,-30.5 140,-.5 0,-.5"/>
<text text-anchor="start" x="8" y="-18.5" font-family="Helvetica,sans-Serif" font-size="10.00" fill="#000000">clouds/derived/frontTracking</text>
<text text-anchor="middle" x="70" y="-7.5" font-family="Helvetica,sans-Serif" font-size="10.00" fill="#000000">Cloud/frontTrackingCloud.C</text>
</a>
</g>
</g>
<!-- Node9&#45;&gt;Node10 -->
<g id="edge4" class="edge">
<title>Node9&#45;&gt;Node10</title>
<path fill="none" stroke="#191970" d="M70,-57.0249C70,-48.128 70,-38.4287 70,-30.6432"/>
<polygon fill="#191970" stroke="#191970" points="66.5001,-57.2966 70,-67.2967 73.5001,-57.2967 66.5001,-57.2966"/>
</g>
<!-- Node13 -->
<g id="node8" class="node">
<title>Node13</title>
<g id="a_node8"><a xlink:href="lnInclude_2frontTrackingCloud_8C.html" target="_top" xlink:title="lnInclude/frontTrackingCloud.C">
<polygon fill="none" stroke="#000000" points="177,-6 177,-25 329,-25 329,-6 177,-6"/>
<text text-anchor="middle" x="253" y="-13" font-family="Helvetica,sans-Serif" font-size="10.00" fill="#000000">lnInclude/frontTrackingCloud.C</text>
</a>
</g>
</g>
<!-- Node12&#45;&gt;Node13 -->
<g id="edge7" class="edge">
<title>Node12&#45;&gt;Node13</title>
<path fill="none" stroke="#191970" d="M376.5647,-68.9118C346.4385,-55.8895 301.7358,-36.5664 275.1665,-25.0817"/>
<polygon fill="#191970" stroke="#191970" points="375.2244,-72.1454 385.7923,-72.9005 378.0019,-65.72 375.2244,-72.1454"/>
</g>
<!-- Node14 -->
<g id="node9" class="node">
<title>Node14</title>
<g id="a_node9"><a xlink:href="lnInclude_2makeFrontTrackingParcelSubmodels_8C.html" target="_top" xlink:title="lnInclude/makeFrontTracking\lParcelSubmodels.C">
<polygon fill="none" stroke="#000000" points="592.5,-.5 592.5,-30.5 735.5,-30.5 735.5,-.5 592.5,-.5"/>
<text text-anchor="start" x="600.5" y="-18.5" font-family="Helvetica,sans-Serif" font-size="10.00" fill="#000000">lnInclude/makeFrontTracking</text>
<text text-anchor="middle" x="664" y="-7.5" font-family="Helvetica,sans-Serif" font-size="10.00" fill="#000000">ParcelSubmodels.C</text>
</a>
</g>
</g>
<!-- Node12&#45;&gt;Node14 -->
<g id="edge8" class="edge">
<title>Node12&#45;&gt;Node14</title>
<path fill="none" stroke="#191970" d="M454.2538,-70.3945C496.9525,-59.2195 560.5186,-42.583 606.4751,-30.5553"/>
<polygon fill="#191970" stroke="#191970" points="453.1947,-67.0537 444.4067,-72.9717 454.967,-73.8257 453.1947,-67.0537"/>
</g>
<!-- Node15 -->
<g id="node10" class="node">
<title>Node15</title>
<g id="a_node10"><a xlink:href="parcels_2derived_2frontTrackingParcel_2makeFrontTrackingParcelSubmodels_8C.html" target="_top" xlink:title="parcels/derived/frontTracking\lParcel/makeFrontTrackingParcelSubmodels.C">
<polygon fill="none" stroke="#000000" points="347,-.5 347,-30.5 565,-30.5 565,-.5 347,-.5"/>
<text text-anchor="start" x="355" y="-18.5" font-family="Helvetica,sans-Serif" font-size="10.00" fill="#000000">parcels/derived/frontTracking</text>
<text text-anchor="middle" x="456" y="-7.5" font-family="Helvetica,sans-Serif" font-size="10.00" fill="#000000">Parcel/makeFrontTrackingParcelSubmodels.C</text>
</a>
</g>
</g>
<!-- Node12&#45;&gt;Node15 -->
<g id="edge9" class="edge">
<title>Node12&#45;&gt;Node15</title>
<path fill="none" stroke="#191970" d="M420.7355,-64.7233C428.3739,-54.0615 437.981,-40.6515 445.2381,-30.5218"/>
<polygon fill="#191970" stroke="#191970" points="417.8559,-62.733 414.8772,-72.9005 423.5463,-66.8097 417.8559,-62.733"/>
</g>
<!-- Node17&#45;&gt;Node14 -->
<g id="edge12" class="edge">
<title>Node17&#45;&gt;Node14</title>
<path fill="none" stroke="#191970" d="M641.2875,-125.6628C646.538,-117.2964 651.7674,-107.5858 655,-98 662.6427,-75.3369 664.158,-47.3761 664.2789,-30.5173"/>
<polygon fill="#191970" stroke="#191970" points="638.2749,-123.8731 635.6754,-134.1441 644.1126,-127.7359 638.2749,-123.8731"/>
</g>
</g>
</svg>
