<?xml version="1.0" encoding="UTF-8" standalone="no"?>
<!DOCTYPE svg PUBLIC "-//W3C//DTD SVG 1.1//EN"
 "http://www.w3.org/Graphics/SVG/1.1/DTD/svg11.dtd">
<!-- Generated by graphviz version 2.40.1 (20161225.0304)
 -->
<!-- Title: lnInclude/frontTrackingCloud.C Pages: 1 -->
<svg width="2319pt" height="431pt"
 viewBox="0.00 0.00 2318.50 431.00" xmlns="http://www.w3.org/2000/svg" xmlns:xlink="http://www.w3.org/1999/xlink">
<g id="graph0" class="graph" transform="scale(1 1) rotate(0) translate(4 427)">
<title>lnInclude/frontTrackingCloud.C</title>
<!-- Node0 -->
<g id="node1" class="node">
<title>Node0</title>
<polygon fill="#bfbfbf" stroke="#000000" points="1356,-403.5 1356,-422.5 1508,-422.5 1508,-403.5 1356,-403.5"/>
<text text-anchor="middle" x="1432" y="-410.5" font-family="Helvetica,sans-Serif" font-size="10.00" fill="#000000">lnInclude/frontTrackingCloud.C</text>
</g>
<!-- Node1 -->
<g id="node2" class="node">
<title>Node1</title>
<g id="a_node2"><a xlink:href="lnInclude_2frontTrackingCloud_8H.html" target="_top" xlink:title="frontTrackingCloud.H">
<polygon fill="none" stroke="#000000" points="1301,-347.5 1301,-366.5 1411,-366.5 1411,-347.5 1301,-347.5"/>
<text text-anchor="middle" x="1356" y="-354.5" font-family="Helvetica,sans-Serif" font-size="10.00" fill="#000000">frontTrackingCloud.H</text>
</a>
</g>
</g>
<!-- Node0&#45;&gt;Node1 -->
<g id="edge1" class="edge">
<title>Node0&#45;&gt;Node1</title>
<path fill="none" stroke="#191970" d="M1418.7618,-403.2455C1407.319,-394.814 1390.5704,-382.4729 1377.2525,-372.6598"/>
<polygon fill="#191970" stroke="#191970" points="1379.2133,-369.757 1369.0865,-366.6427 1375.0609,-375.3924 1379.2133,-369.757"/>
</g>
<!-- Node50 -->
<g id="node50" class="node">
<title>Node50</title>
<polygon fill="none" stroke="#bfbfbf" points="1429,-347.5 1429,-366.5 1587,-366.5 1587,-347.5 1429,-347.5"/>
<text text-anchor="middle" x="1508" y="-354.5" font-family="Helvetica,sans-Serif" font-size="10.00" fill="#000000">addToRunTimeSelectionTable.H</text>
</g>
<!-- Node0&#45;&gt;Node50 -->
<g id="edge70" class="edge">
<title>Node0&#45;&gt;Node50</title>
<path fill="none" stroke="#191970" d="M1445.2382,-403.2455C1456.681,-394.814 1473.4296,-382.4729 1486.7475,-372.6598"/>
<polygon fill="#191970" stroke="#191970" points="1488.9391,-375.3924 1494.9135,-366.6427 1484.7867,-369.757 1488.9391,-375.3924"/>
</g>
<!-- Node2 -->
<g id="node3" class="node">
<title>Node2</title>
<polygon fill="none" stroke="#bfbfbf" points="1105.5,-291.5 1105.5,-310.5 1208.5,-310.5 1208.5,-291.5 1105.5,-291.5"/>
<text text-anchor="middle" x="1157" y="-298.5" font-family="Helvetica,sans-Serif" font-size="10.00" fill="#000000">ParcelCloudBase.H</text>
</g>
<!-- Node1&#45;&gt;Node2 -->
<g id="edge2" class="edge">
<title>Node1&#45;&gt;Node2</title>
<path fill="none" stroke="#191970" d="M1321.7907,-347.3733C1288.2703,-337.9404 1237.0495,-323.5265 1200.619,-313.2747"/>
<polygon fill="#191970" stroke="#191970" points="1201.3372,-309.8409 1190.7629,-310.5011 1199.4409,-316.5792 1201.3372,-309.8409"/>
</g>
<!-- Node3 -->
<g id="node4" class="node">
<title>Node3</title>
<polygon fill="none" stroke="#bfbfbf" points="1226.5,-291.5 1226.5,-310.5 1327.5,-310.5 1327.5,-291.5 1226.5,-291.5"/>
<text text-anchor="middle" x="1277" y="-298.5" font-family="Helvetica,sans-Serif" font-size="10.00" fill="#000000">MomentumCloud.H</text>
</g>
<!-- Node1&#45;&gt;Node3 -->
<g id="edge3" class="edge">
<title>Node1&#45;&gt;Node3</title>
<path fill="none" stroke="#191970" d="M1342.2393,-347.2455C1330.3448,-338.814 1312.935,-326.4729 1299.0915,-316.6598"/>
<polygon fill="#191970" stroke="#191970" points="1300.7854,-313.5704 1290.6031,-310.6427 1296.7372,-319.2811 1300.7854,-313.5704"/>
</g>
<!-- Node4 -->
<g id="node5" class="node">
<title>Node4</title>
<g id="a_node5"><a xlink:href="lnInclude_2FrontTrackingCloud_8H.html" target="_top" xlink:title="FrontTrackingCloud.H">
<polygon fill="none" stroke="#000000" points="917.5,-235.5 917.5,-254.5 1030.5,-254.5 1030.5,-235.5 917.5,-235.5"/>
<text text-anchor="middle" x="974" y="-242.5" font-family="Helvetica,sans-Serif" font-size="10.00" fill="#000000">FrontTrackingCloud.H</text>
</a>
</g>
</g>
<!-- Node1&#45;&gt;Node4 -->
<g id="edge4" class="edge">
<title>Node1&#45;&gt;Node4</title>
<path fill="none" stroke="#191970" d="M1356.1253,-347.169C1355.7319,-332.4884 1352.6456,-305.0625 1336,-291 1313.9152,-272.3424 1139.2716,-256.9042 1040.861,-249.5805"/>
<polygon fill="#191970" stroke="#191970" points="1040.9394,-246.0769 1030.7096,-248.8336 1040.4258,-253.058 1040.9394,-246.0769"/>
</g>
<!-- Node39 -->
<g id="node39" class="node">
<title>Node39</title>
<polygon fill="none" stroke="#bfbfbf" points="1384,-291.5 1384,-310.5 1464,-310.5 1464,-291.5 1384,-291.5"/>
<text text-anchor="middle" x="1424" y="-298.5" font-family="Helvetica,sans-Serif" font-size="10.00" fill="#000000">ParcelCloud.H</text>
</g>
<!-- Node1&#45;&gt;Node39 -->
<g id="edge57" class="edge">
<title>Node1&#45;&gt;Node39</title>
<path fill="none" stroke="#191970" d="M1367.8447,-347.2455C1377.888,-338.9746 1392.4995,-326.9416 1404.3004,-317.2232"/>
<polygon fill="#191970" stroke="#191970" points="1406.7967,-319.7015 1412.291,-310.6427 1402.3467,-314.298 1406.7967,-319.7015"/>
</g>
<!-- Node40 -->
<g id="node40" class="node">
<title>Node40</title>
<g id="a_node40"><a xlink:href="lnInclude_2frontTrackingParcel_8H.html" target="_top" xlink:title="frontTrackingParcel.H">
<polygon fill="none" stroke="#000000" points="1910,-291.5 1910,-310.5 2022,-310.5 2022,-291.5 1910,-291.5"/>
<text text-anchor="middle" x="1966" y="-298.5" font-family="Helvetica,sans-Serif" font-size="10.00" fill="#000000">frontTrackingParcel.H</text>
</a>
</g>
</g>
<!-- Node1&#45;&gt;Node40 -->
<g id="edge58" class="edge">
<title>Node1&#45;&gt;Node40</title>
<path fill="none" stroke="#191970" d="M1411.1236,-348.1328C1414.1234,-347.7296 1417.0969,-347.3486 1420,-347 1592.3529,-326.3011 1796.4236,-311.7381 1899.4182,-305.0809"/>
<polygon fill="#191970" stroke="#191970" points="1899.9115,-308.5565 1909.6667,-304.423 1899.463,-301.5709 1899.9115,-308.5565"/>
</g>
<!-- Node5 -->
<g id="node6" class="node">
<title>Node5</title>
<polygon fill="none" stroke="#bfbfbf" points="362.5,-174 362.5,-193 447.5,-193 447.5,-174 362.5,-174"/>
<text text-anchor="middle" x="405" y="-181" font-family="Helvetica,sans-Serif" font-size="10.00" fill="#000000">volFieldsFwd.H</text>
</g>
<!-- Node4&#45;&gt;Node5 -->
<g id="edge5" class="edge">
<title>Node4&#45;&gt;Node5</title>
<path fill="none" stroke="#191970" d="M917.1232,-243.1548C822.1625,-239.3468 625.6091,-228.359 462,-199 456.8332,-198.0728 451.4537,-196.8967 446.1531,-195.6083"/>
<polygon fill="#191970" stroke="#191970" points="446.6908,-192.1327 436.1339,-193.0282 444.9451,-198.9115 446.6908,-192.1327"/>
</g>
<!-- Node6 -->
<g id="node7" class="node">
<title>Node6</title>
<polygon fill="none" stroke="#bfbfbf" points="868,-174 868,-193 960,-193 960,-174 868,-174"/>
<text text-anchor="middle" x="914" y="-181" font-family="Helvetica,sans-Serif" font-size="10.00" fill="#000000">fvMatricesFwd.H</text>
</g>
<!-- Node4&#45;&gt;Node6 -->
<g id="edge6" class="edge">
<title>Node4&#45;&gt;Node6</title>
<path fill="none" stroke="#191970" d="M964.625,-235.3906C955.5201,-226.0581 941.5026,-211.6902 930.5243,-200.4374"/>
<polygon fill="#191970" stroke="#191970" points="932.9957,-197.9586 923.5072,-193.2449 927.9852,-202.8468 932.9957,-197.9586"/>
</g>
<!-- Node7 -->
<g id="node8" class="node">
<title>Node7</title>
<polygon fill="none" stroke="#bfbfbf" points="978.5,-174 978.5,-193 1087.5,-193 1087.5,-174 978.5,-174"/>
<text text-anchor="middle" x="1033" y="-181" font-family="Helvetica,sans-Serif" font-size="10.00" fill="#000000">dimensionedTypes.H</text>
</g>
<!-- Node4&#45;&gt;Node7 -->
<g id="edge7" class="edge">
<title>Node4&#45;&gt;Node7</title>
<path fill="none" stroke="#191970" d="M983.2188,-235.3906C992.0858,-226.1478 1005.6912,-211.966 1016.4389,-200.7628"/>
<polygon fill="#191970" stroke="#191970" points="1019.2541,-202.8841 1023.6513,-193.2449 1014.2027,-198.0381 1019.2541,-202.8841"/>
</g>
<!-- Node8 -->
<g id="node9" class="node">
<title>Node8</title>
<polygon fill="none" stroke="#bfbfbf" points="1419.5,-112.5 1419.5,-131.5 1478.5,-131.5 1478.5,-112.5 1419.5,-112.5"/>
<text text-anchor="middle" x="1449" y="-119.5" font-family="Helvetica,sans-Serif" font-size="10.00" fill="#000000">fvMesh.H</text>
</g>
<!-- Node4&#45;&gt;Node8 -->
<g id="edge8" class="edge">
<title>Node4&#45;&gt;Node8</title>
<path fill="none" stroke="#191970" d="M1030.707,-242.1131C1142.1212,-235.9997 1381.4504,-220.5225 1412,-199 1431.0663,-185.5676 1440.67,-159.583 1445.2421,-141.5356"/>
<polygon fill="#191970" stroke="#191970" points="1448.6648,-142.2674 1447.4323,-131.7445 1441.8336,-140.7393 1448.6648,-142.2674"/>
</g>
<!-- Node9 -->
<g id="node10" class="node">
<title>Node9</title>
<polygon fill="none" stroke="#bfbfbf" points="1106,-174 1106,-193 1184,-193 1184,-174 1106,-174"/>
<text text-anchor="middle" x="1145" y="-181" font-family="Helvetica,sans-Serif" font-size="10.00" fill="#000000">fluidThermo.H</text>
</g>
<!-- Node4&#45;&gt;Node9 -->
<g id="edge9" class="edge">
<title>Node4&#45;&gt;Node9</title>
<path fill="none" stroke="#191970" d="M1000.7188,-235.3906C1029.8321,-224.92 1076.5692,-208.1111 1108.9247,-196.4745"/>
<polygon fill="#191970" stroke="#191970" points="1110.2435,-199.7197 1118.4689,-193.0419 1107.8744,-193.1328 1110.2435,-199.7197"/>
</g>
<!-- Node10 -->
<g id="node11" class="node">
<title>Node10</title>
<polygon fill="none" stroke="#bfbfbf" points="1202.5,-174 1202.5,-193 1255.5,-193 1255.5,-174 1202.5,-174"/>
<text text-anchor="middle" x="1229" y="-181" font-family="Helvetica,sans-Serif" font-size="10.00" fill="#000000">Cloud.H</text>
</g>
<!-- Node4&#45;&gt;Node10 -->
<g id="edge10" class="edge">
<title>Node4&#45;&gt;Node10</title>
<path fill="none" stroke="#191970" d="M1030.6038,-236.3081C1075.2998,-228.6834 1138.9269,-216.1306 1193,-199 1195.1083,-198.3321 1197.2614,-197.584 1199.4141,-196.7867"/>
<polygon fill="#191970" stroke="#191970" points="1200.7203,-200.0339 1208.7082,-193.0738 1198.1234,-193.5335 1200.7203,-200.0339"/>
</g>
<!-- Node11 -->
<g id="node12" class="node">
<title>Node11</title>
<g id="a_node12"><a xlink:href="lnInclude_2bubbleData_8H.html" target="_top" xlink:title="bubbleData.H">
<polygon fill="none" stroke="#000000" points="1273.5,-174 1273.5,-193 1350.5,-193 1350.5,-174 1273.5,-174"/>
<text text-anchor="middle" x="1312" y="-181" font-family="Helvetica,sans-Serif" font-size="10.00" fill="#000000">bubbleData.H</text>
</a>
</g>
</g>
<!-- Node4&#45;&gt;Node11 -->
<g id="edge11" class="edge">
<title>Node4&#45;&gt;Node11</title>
<path fill="none" stroke="#191970" d="M1030.6446,-238.6538C1089.4722,-231.4495 1183.9322,-218.1556 1264,-199 1267.6648,-198.1232 1271.4538,-197.1032 1275.2217,-196.013"/>
<polygon fill="#191970" stroke="#191970" points="1276.5045,-199.2809 1285.0464,-193.013 1274.4602,-192.5861 1276.5045,-199.2809"/>
</g>
<!-- Node12 -->
<g id="node13" class="node">
<title>Node12</title>
<polygon fill="none" stroke="#bfbfbf" points="602,-112.5 602,-131.5 668,-131.5 668,-112.5 602,-112.5"/>
<text text-anchor="middle" x="635" y="-119.5" font-family="Helvetica,sans-Serif" font-size="10.00" fill="#000000">fileName.H</text>
</g>
<!-- Node4&#45;&gt;Node12 -->
<g id="edge32" class="edge">
<title>Node4&#45;&gt;Node12</title>
<path fill="none" stroke="#191970" d="M917.3934,-241.1605C845.186,-235.3751 725.196,-222.513 688,-199 666.2258,-185.2357 651.0775,-158.9376 642.7096,-140.9403"/>
<polygon fill="#191970" stroke="#191970" points="645.8788,-139.452 638.6631,-131.6942 639.466,-142.2586 645.8788,-139.452"/>
</g>
<!-- Node13 -->
<g id="node14" class="node">
<title>Node13</title>
<polygon fill="none" stroke="#bfbfbf" points="1496.5,-112.5 1496.5,-131.5 1565.5,-131.5 1565.5,-112.5 1496.5,-112.5"/>
<text text-anchor="middle" x="1531" y="-119.5" font-family="Helvetica,sans-Serif" font-size="10.00" fill="#000000">pointField.H</text>
</g>
<!-- Node4&#45;&gt;Node13 -->
<g id="edge33" class="edge">
<title>Node4&#45;&gt;Node13</title>
<path fill="none" stroke="#191970" d="M1030.5403,-243.5048C1137.6115,-240.0033 1365.7169,-229.1515 1438,-199 1469.8757,-185.7037 1499.2444,-157.6262 1516.129,-139.3023"/>
<polygon fill="#191970" stroke="#191970" points="1518.9103,-141.4428 1522.9725,-131.6576 1513.6948,-136.7739 1518.9103,-141.4428"/>
</g>
<!-- Node14 -->
<g id="node15" class="node">
<title>Node14</title>
<polygon fill="none" stroke="#bfbfbf" points="1584,-112.5 1584,-131.5 1632,-131.5 1632,-112.5 1584,-112.5"/>
<text text-anchor="middle" x="1608" y="-119.5" font-family="Helvetica,sans-Serif" font-size="10.00" fill="#000000">point.H</text>
</g>
<!-- Node4&#45;&gt;Node14 -->
<g id="edge34" class="edge">
<title>Node4&#45;&gt;Node14</title>
<path fill="none" stroke="#191970" d="M1030.7729,-242.8939C1144.086,-238.1849 1394.4177,-225.1084 1476,-199 1518.7587,-185.3161 1562.6649,-156.0786 1587.5188,-137.8287"/>
<polygon fill="#191970" stroke="#191970" points="1589.8655,-140.4442 1595.7761,-131.6513 1585.6722,-134.8391 1589.8655,-140.4442"/>
</g>
<!-- Node15 -->
<g id="node16" class="node">
<title>Node15</title>
<polygon fill="none" stroke="#bfbfbf" points="1650,-112.5 1650,-131.5 1706,-131.5 1706,-112.5 1650,-112.5"/>
<text text-anchor="middle" x="1678" y="-119.5" font-family="Helvetica,sans-Serif" font-size="10.00" fill="#000000">DLList.H</text>
</g>
<!-- Node4&#45;&gt;Node15 -->
<g id="edge35" class="edge">
<title>Node4&#45;&gt;Node15</title>
<path fill="none" stroke="#191970" d="M1030.8104,-242.9449C1151.852,-238.1268 1431.5693,-224.5336 1523,-199 1572.6162,-185.1439 1625.2945,-155.3117 1654.6802,-137.1166"/>
<polygon fill="#191970" stroke="#191970" points="1656.7668,-139.9391 1663.3692,-131.653 1653.0406,-134.0132 1656.7668,-139.9391"/>
</g>
<!-- Node16 -->
<g id="node17" class="node">
<title>Node16</title>
<polygon fill="none" stroke="#bfbfbf" points="1724.5,-112.5 1724.5,-131.5 1809.5,-131.5 1809.5,-112.5 1724.5,-112.5"/>
<text text-anchor="middle" x="1767" y="-119.5" font-family="Helvetica,sans-Serif" font-size="10.00" fill="#000000">sphereToCell.H</text>
</g>
<!-- Node4&#45;&gt;Node16 -->
<g id="edge36" class="edge">
<title>Node4&#45;&gt;Node16</title>
<path fill="none" stroke="#191970" d="M1030.6376,-242.8665C1159.7137,-237.648 1472.447,-222.8928 1575,-199 1636.0053,-184.787 1703.006,-154.1992 1739.5156,-136.1464"/>
<polygon fill="#191970" stroke="#191970" points="1741.1698,-139.2324 1748.5467,-131.6276 1738.0375,-132.9723 1741.1698,-139.2324"/>
</g>
<!-- Node17 -->
<g id="node18" class="node">
<title>Node17</title>
<polygon fill="none" stroke="#bfbfbf" points="1827.5,-112.5 1827.5,-131.5 1884.5,-131.5 1884.5,-112.5 1827.5,-112.5"/>
<text text-anchor="middle" x="1856" y="-119.5" font-family="Helvetica,sans-Serif" font-size="10.00" fill="#000000">cellSet.H</text>
</g>
<!-- Node4&#45;&gt;Node17 -->
<g id="edge37" class="edge">
<title>Node4&#45;&gt;Node17</title>
<path fill="none" stroke="#191970" d="M1030.6715,-243.6903C1169.0897,-240.069 1521.3537,-228.1902 1635,-199 1666.7792,-190.8375 1671.3135,-179.6139 1702,-168 1723.1412,-159.9987 1779.208,-143.6997 1817.5235,-132.8112"/>
<polygon fill="#191970" stroke="#191970" points="1818.6655,-136.1254 1827.3324,-130.0315 1816.757,-129.3906 1818.6655,-136.1254"/>
</g>
<!-- Node18 -->
<g id="node19" class="node">
<title>Node18</title>
<polygon fill="none" stroke="#bfbfbf" points="193.5,-112.5 193.5,-131.5 276.5,-131.5 276.5,-112.5 193.5,-112.5"/>
<text text-anchor="middle" x="235" y="-119.5" font-family="Helvetica,sans-Serif" font-size="10.00" fill="#000000">simpleMatrix.H</text>
</g>
<!-- Node4&#45;&gt;Node18 -->
<g id="edge38" class="edge">
<title>Node4&#45;&gt;Node18</title>
<path fill="none" stroke="#191970" d="M917.3552,-242.6617C772.159,-236.4166 394.33,-218.4905 341,-199 305.3244,-185.9617 271.0878,-157.169 251.5932,-138.7235"/>
<polygon fill="#191970" stroke="#191970" points="254.0251,-136.2063 244.4098,-131.7569 249.1517,-141.2314 254.0251,-136.2063"/>
</g>
<!-- Node19 -->
<g id="node20" class="node">
<title>Node19</title>
<polygon fill="none" stroke="#bfbfbf" points="294.5,-112.5 294.5,-131.5 425.5,-131.5 425.5,-112.5 294.5,-112.5"/>
<text text-anchor="middle" x="360" y="-119.5" font-family="Helvetica,sans-Serif" font-size="10.00" fill="#000000">mathematicalConstants.H</text>
</g>
<!-- Node4&#45;&gt;Node19 -->
<g id="edge39" class="edge">
<title>Node4&#45;&gt;Node19</title>
<path fill="none" stroke="#191970" d="M917.3622,-242.8742C767.7413,-236.9857 372.0697,-219.5345 353,-199 338.8547,-183.7681 344.3844,-158.7879 350.9617,-141.4271"/>
<polygon fill="#191970" stroke="#191970" points="354.3777,-142.3324 355.0258,-131.7574 347.9245,-139.6201 354.3777,-142.3324"/>
</g>
<!-- Node20 -->
<g id="node21" class="node">
<title>Node20</title>
<polygon fill="none" stroke="#bfbfbf" points="444,-112.5 444,-131.5 500,-131.5 500,-112.5 444,-112.5"/>
<text text-anchor="middle" x="472" y="-119.5" font-family="Helvetica,sans-Serif" font-size="10.00" fill="#000000">fvCFD.H</text>
</g>
<!-- Node4&#45;&gt;Node20 -->
<g id="edge40" class="edge">
<title>Node4&#45;&gt;Node20</title>
<path fill="none" stroke="#191970" d="M917.2187,-240.9268C827.5073,-234.0033 657.2867,-218.7485 600,-199 558.5121,-184.6978 515.9444,-155.6594 491.8519,-137.6155"/>
<polygon fill="#191970" stroke="#191970" points="493.9223,-134.7928 483.8479,-131.5129 489.678,-140.3594 493.9223,-134.7928"/>
</g>
<!-- Node21 -->
<g id="node22" class="node">
<title>Node21</title>
<polygon fill="none" stroke="#bfbfbf" points="518,-112.5 518,-131.5 584,-131.5 584,-112.5 518,-112.5"/>
<text text-anchor="middle" x="551" y="-119.5" font-family="Helvetica,sans-Serif" font-size="10.00" fill="#000000">IFstream.H</text>
</g>
<!-- Node4&#45;&gt;Node21 -->
<g id="edge41" class="edge">
<title>Node4&#45;&gt;Node21</title>
<path fill="none" stroke="#191970" d="M917.3517,-240.1895C838.822,-232.9507 701.3139,-218.052 655,-199 620.6409,-184.8658 587.2732,-156.86 567.9544,-138.8029"/>
<polygon fill="#191970" stroke="#191970" points="570.2189,-136.1256 560.5731,-131.7427 565.3803,-141.1841 570.2189,-136.1256"/>
</g>
<!-- Node22 -->
<g id="node23" class="node">
<title>Node22</title>
<polygon fill="none" stroke="#bfbfbf" points="686.5,-112.5 686.5,-131.5 757.5,-131.5 757.5,-112.5 686.5,-112.5"/>
<text text-anchor="middle" x="722" y="-119.5" font-family="Helvetica,sans-Serif" font-size="10.00" fill="#000000">OFstream.H</text>
</g>
<!-- Node4&#45;&gt;Node22 -->
<g id="edge42" class="edge">
<title>Node4&#45;&gt;Node22</title>
<path fill="none" stroke="#191970" d="M917.2831,-239.4528C840.6693,-231.379 712.012,-215.5406 698,-199 683.7959,-182.2327 696.0267,-157.0856 707.6193,-140.1344"/>
<polygon fill="#191970" stroke="#191970" points="710.7368,-141.8012 713.822,-131.6655 705.0895,-137.665 710.7368,-141.8012"/>
</g>
<!-- Node23 -->
<g id="node24" class="node">
<title>Node23</title>
<polygon fill="none" stroke="#bfbfbf" points="775.5,-112.5 775.5,-131.5 862.5,-131.5 862.5,-112.5 775.5,-112.5"/>
<text text-anchor="middle" x="819" y="-119.5" font-family="Helvetica,sans-Serif" font-size="10.00" fill="#000000">IStringStream.H</text>
</g>
<!-- Node4&#45;&gt;Node23 -->
<g id="edge43" class="edge">
<title>Node4&#45;&gt;Node23</title>
<path fill="none" stroke="#191970" d="M917.3898,-243.4513C847.3824,-240.2037 734.2223,-230.1462 708,-199 699.1264,-188.4602 700.3465,-179.4565 708,-168 715.9983,-156.0275 747.6477,-143.5911 775.1149,-134.6725"/>
<polygon fill="#191970" stroke="#191970" points="776.5116,-137.9019 784.9937,-131.5533 774.4039,-131.2268 776.5116,-137.9019"/>
</g>
<!-- Node24 -->
<g id="node25" class="node">
<title>Node24</title>
<polygon fill="none" stroke="#bfbfbf" points="881,-112.5 881,-131.5 973,-131.5 973,-112.5 881,-112.5"/>
<text text-anchor="middle" x="927" y="-119.5" font-family="Helvetica,sans-Serif" font-size="10.00" fill="#000000">OStringStream.H</text>
</g>
<!-- Node4&#45;&gt;Node24 -->
<g id="edge44" class="edge">
<title>Node4&#45;&gt;Node24</title>
<path fill="none" stroke="#191970" d="M917.4475,-243.0142C849.9122,-239.3145 742.9138,-228.7895 718,-199 709.161,-188.4312 709.368,-178.7385 718,-168 722.8615,-161.9521 810.407,-144.2037 870.6346,-132.6042"/>
<polygon fill="#191970" stroke="#191970" points="871.6299,-135.9772 880.7917,-130.6563 870.3114,-129.1025 871.6299,-135.9772"/>
</g>
<!-- Node25 -->
<g id="node26" class="node">
<title>Node25</title>
<polygon fill="none" stroke="#bfbfbf" points="991,-112.5 991,-131.5 1041,-131.5 1041,-112.5 991,-112.5"/>
<text text-anchor="middle" x="1016" y="-119.5" font-family="Helvetica,sans-Serif" font-size="10.00" fill="#000000">fstream</text>
</g>
<!-- Node4&#45;&gt;Node25 -->
<g id="edge45" class="edge">
<title>Node4&#45;&gt;Node25</title>
<path fill="none" stroke="#191970" d="M917.354,-242.5337C852.3321,-238.3751 751.5926,-227.4132 728,-199 719.1984,-188.4 718.967,-178.4035 728,-168 763.5508,-127.0552 910.8656,-142.3557 980.7321,-131.6962"/>
<polygon fill="#191970" stroke="#191970" points="981.6502,-135.0863 990.854,-129.8383 980.3864,-128.2013 981.6502,-135.0863"/>
</g>
<!-- Node26 -->
<g id="node27" class="node">
<title>Node26</title>
<polygon fill="none" stroke="#bfbfbf" points="1059,-112.5 1059,-131.5 1113,-131.5 1113,-112.5 1059,-112.5"/>
<text text-anchor="middle" x="1086" y="-119.5" font-family="Helvetica,sans-Serif" font-size="10.00" fill="#000000">iostream</text>
</g>
<!-- Node4&#45;&gt;Node26 -->
<g id="edge46" class="edge">
<title>Node4&#45;&gt;Node26</title>
<path fill="none" stroke="#191970" d="M917.4122,-242.7607C839.5244,-237.7036 713.9522,-221.272 761,-168 802.0004,-121.5754 971.0964,-142.6652 1049.0475,-131.6523"/>
<polygon fill="#191970" stroke="#191970" points="1049.7033,-135.0912 1058.9759,-129.9658 1048.531,-128.19 1049.7033,-135.0912"/>
</g>
<!-- Node27 -->
<g id="node28" class="node">
<title>Node27</title>
<polygon fill="none" stroke="#bfbfbf" points="1229.5,-112.5 1229.5,-131.5 1270.5,-131.5 1270.5,-112.5 1229.5,-112.5"/>
<text text-anchor="middle" x="1250" y="-119.5" font-family="Helvetica,sans-Serif" font-size="10.00" fill="#000000">string</text>
</g>
<!-- Node4&#45;&gt;Node27 -->
<g id="edge47" class="edge">
<title>Node4&#45;&gt;Node27</title>
<path fill="none" stroke="#191970" d="M1030.5318,-242.3224C1132.2484,-236.9216 1337.5783,-223.1335 1359,-199 1368.1462,-188.6959 1366.6164,-179.4812 1359,-168 1354.3382,-160.9728 1310.8003,-144.031 1280.1835,-132.7872"/>
<polygon fill="#191970" stroke="#191970" points="1281.3567,-129.4896 1270.7627,-129.3566 1278.9615,-136.0671 1281.3567,-129.4896"/>
</g>
<!-- Node28 -->
<g id="node29" class="node">
<title>Node28</title>
<polygon fill="none" stroke="#bfbfbf" points="1289,-112.5 1289,-131.5 1333,-131.5 1333,-112.5 1289,-112.5"/>
<text text-anchor="middle" x="1311" y="-119.5" font-family="Helvetica,sans-Serif" font-size="10.00" fill="#000000">cmath</text>
</g>
<!-- Node4&#45;&gt;Node28 -->
<g id="edge48" class="edge">
<title>Node4&#45;&gt;Node28</title>
<path fill="none" stroke="#191970" d="M1030.6866,-242.639C1136.2466,-237.6573 1354.3483,-224.3843 1377,-199 1386.1733,-188.72 1383.3752,-180.2141 1377,-168 1369.5437,-153.7146 1355.4027,-142.9623 1342.1168,-135.46"/>
<polygon fill="#191970" stroke="#191970" points="1343.6331,-132.3035 1333.1481,-130.7819 1340.3957,-138.5099 1343.6331,-132.3035"/>
</g>
<!-- Node29 -->
<g id="node30" class="node">
<title>Node29</title>
<polygon fill="none" stroke="#bfbfbf" points="1351,-112.5 1351,-131.5 1401,-131.5 1401,-112.5 1351,-112.5"/>
<text text-anchor="middle" x="1376" y="-119.5" font-family="Helvetica,sans-Serif" font-size="10.00" fill="#000000">iomanip</text>
</g>
<!-- Node4&#45;&gt;Node29 -->
<g id="edge49" class="edge">
<title>Node4&#45;&gt;Node29</title>
<path fill="none" stroke="#191970" d="M1030.5291,-242.9271C1139.5266,-238.3465 1370.161,-225.5925 1394,-199 1408.4588,-182.8712 1398.2571,-157.3741 1388.3007,-140.1835"/>
<polygon fill="#191970" stroke="#191970" points="1391.2115,-138.2366 1382.9528,-131.6 1385.2703,-141.9382 1391.2115,-138.2366"/>
</g>
<!-- Node31 -->
<g id="node32" class="node">
<title>Node31</title>
<polygon fill="none" stroke="#bfbfbf" points="770.5,-174 770.5,-193 849.5,-193 849.5,-174 770.5,-174"/>
<text text-anchor="middle" x="810" y="-181" font-family="Helvetica,sans-Serif" font-size="10.00" fill="#000000">UDictionary.H</text>
</g>
<!-- Node4&#45;&gt;Node31 -->
<g id="edge50" class="edge">
<title>Node4&#45;&gt;Node31</title>
<path fill="none" stroke="#191970" d="M948.375,-235.3906C920.5737,-224.9652 876.0156,-208.2559 845.0006,-196.6252"/>
<polygon fill="#191970" stroke="#191970" points="846.0373,-193.276 835.4451,-193.0419 843.5794,-199.8303 846.0373,-193.276"/>
</g>
<!-- Node32 -->
<g id="node33" class="node">
<title>Node32</title>
<g id="a_node33"><a xlink:href="lnInclude_2FrontTrackingCloudI_8H.html" target="_top" xlink:title="FrontTrackingCloudI.H">
<polygon fill="none" stroke="#000000" points="111,-174 111,-193 227,-193 227,-174 111,-174"/>
<text text-anchor="middle" x="169" y="-181" font-family="Helvetica,sans-Serif" font-size="10.00" fill="#000000">FrontTrackingCloudI.H</text>
</a>
</g>
</g>
<!-- Node4&#45;&gt;Node32 -->
<g id="edge51" class="edge">
<title>Node4&#45;&gt;Node32</title>
<path fill="none" stroke="#191970" d="M917.0662,-243.7623C794.7122,-240.5797 497.7732,-230.0532 251,-199 242.2269,-197.896 232.9762,-196.4375 223.9744,-194.8561"/>
<polygon fill="#191970" stroke="#191970" points="224.421,-191.3799 213.9556,-193.031 223.1663,-198.2666 224.421,-191.3799"/>
</g>
<!-- Node11&#45;&gt;Node8 -->
<g id="edge12" class="edge">
<title>Node11&#45;&gt;Node8</title>
<path fill="none" stroke="#191970" d="M1333.4063,-173.8906C1356.2283,-163.6457 1392.5679,-147.3326 1418.4057,-135.7339"/>
<polygon fill="#191970" stroke="#191970" points="1420.0545,-138.8303 1427.7441,-131.5419 1417.1877,-132.4443 1420.0545,-138.8303"/>
</g>
<!-- Node11&#45;&gt;Node12 -->
<g id="edge13" class="edge">
<title>Node11&#45;&gt;Node12</title>
<path fill="none" stroke="#191970" d="M1286.4012,-173.9227C1279.2452,-171.6068 1271.4,-169.3986 1264,-168 1010.4285,-120.0743 937.3895,-169.1354 678.4511,-131.9706"/>
<polygon fill="#191970" stroke="#191970" points="678.7711,-128.4802 668.3694,-130.4938 677.7565,-135.4063 678.7711,-128.4802"/>
</g>
<!-- Node11&#45;&gt;Node13 -->
<g id="edge14" class="edge">
<title>Node11&#45;&gt;Node13</title>
<path fill="none" stroke="#191970" d="M1346.2188,-173.8906C1384.2275,-163.2169 1445.6911,-145.9566 1487.1884,-134.3033"/>
<polygon fill="#191970" stroke="#191970" points="1488.3402,-137.6153 1497.0215,-131.5419 1486.4477,-130.8759 1488.3402,-137.6153"/>
</g>
<!-- Node11&#45;&gt;Node14 -->
<g id="edge15" class="edge">
<title>Node11&#45;&gt;Node14</title>
<path fill="none" stroke="#191970" d="M1350.865,-177.0127C1402.2375,-168.1752 1495.4278,-151.2338 1574,-132 1574.1009,-131.9753 1574.2018,-131.9505 1574.303,-131.9256"/>
<polygon fill="#191970" stroke="#191970" points="1575.1571,-135.3202 1583.9282,-129.3773 1573.3655,-128.5533 1575.1571,-135.3202"/>
</g>
<!-- Node11&#45;&gt;Node15 -->
<g id="edge16" class="edge">
<title>Node11&#45;&gt;Node15</title>
<path fill="none" stroke="#191970" d="M1350.7433,-178.8232C1410.7012,-171.2839 1529.7139,-155.1193 1639.8492,-132.0678"/>
<polygon fill="#191970" stroke="#191970" points="1640.737,-135.4575 1649.795,-129.9619 1639.2869,-128.6093 1640.737,-135.4575"/>
</g>
<!-- Node11&#45;&gt;Node16 -->
<g id="edge17" class="edge">
<title>Node11&#45;&gt;Node16</title>
<path fill="none" stroke="#191970" d="M1350.7374,-179.3702C1421.0105,-171.7006 1574.3853,-154.1461 1714.4137,-132.0063"/>
<polygon fill="#191970" stroke="#191970" points="1715.1463,-135.4338 1724.4713,-130.4043 1714.0452,-128.5209 1715.1463,-135.4338"/>
</g>
<!-- Node11&#45;&gt;Node17 -->
<g id="edge18" class="edge">
<title>Node11&#45;&gt;Node17</title>
<path fill="none" stroke="#191970" d="M1350.7831,-181.7158C1434.5266,-177.402 1638.534,-164.411 1817.5666,-132.0244"/>
<polygon fill="#191970" stroke="#191970" points="1818.2177,-135.4634 1827.4223,-130.217 1816.955,-128.5782 1818.2177,-135.4634"/>
</g>
<!-- Node11&#45;&gt;Node18 -->
<g id="edge19" class="edge">
<title>Node11&#45;&gt;Node18</title>
<path fill="none" stroke="#191970" d="M1286.9213,-173.9645C1279.6326,-171.5881 1271.5891,-169.3383 1264,-168 838.4562,-92.9572 719.2253,-181.499 286.6142,-132.0092"/>
<polygon fill="#191970" stroke="#191970" points="286.9991,-128.5305 276.6619,-130.8527 286.1911,-135.4837 286.9991,-128.5305"/>
</g>
<!-- Node11&#45;&gt;Node19 -->
<g id="edge20" class="edge">
<title>Node11&#45;&gt;Node19</title>
<path fill="none" stroke="#191970" d="M1286.9155,-173.9971C1279.6267,-171.6211 1271.5846,-169.3635 1264,-168 904.3058,-103.3369 804.1695,-163.2991 435.9501,-131.9917"/>
<polygon fill="#191970" stroke="#191970" points="436.0783,-128.4898 425.8133,-131.1126 435.4735,-135.4636 436.0783,-128.4898"/>
</g>
<!-- Node11&#45;&gt;Node20 -->
<g id="edge21" class="edge">
<title>Node11&#45;&gt;Node20</title>
<path fill="none" stroke="#191970" d="M1286.6629,-173.9369C1279.4402,-171.591 1271.4955,-169.3639 1264,-168 936.7181,-108.4459 842.6993,-182.6524 510.0576,-131.8212"/>
<polygon fill="#191970" stroke="#191970" points="510.565,-128.3581 500.1461,-130.2806 509.4898,-135.2751 510.565,-128.3581"/>
</g>
<!-- Node11&#45;&gt;Node21 -->
<g id="edge22" class="edge">
<title>Node11&#45;&gt;Node21</title>
<path fill="none" stroke="#191970" d="M1286.6576,-173.9661C1279.4348,-171.6204 1271.4914,-169.3862 1264,-168 973.6322,-114.2695 890.4373,-173.4024 594.5316,-131.9683"/>
<polygon fill="#191970" stroke="#191970" points="594.7602,-128.4655 584.3659,-130.5172 593.771,-135.3953 594.7602,-128.4655"/>
</g>
<!-- Node11&#45;&gt;Node22 -->
<g id="edge23" class="edge">
<title>Node11&#45;&gt;Node22</title>
<path fill="none" stroke="#191970" d="M1286.391,-173.9761C1279.2349,-171.6604 1271.3923,-169.439 1264,-168 1049.4747,-126.2407 987.364,-163.519 768.1542,-132.1292"/>
<polygon fill="#191970" stroke="#191970" points="768.3361,-128.6186 757.9345,-130.6327 767.3218,-135.5447 768.3361,-128.6186"/>
</g>
<!-- Node11&#45;&gt;Node23 -->
<g id="edge24" class="edge">
<title>Node11&#45;&gt;Node23</title>
<path fill="none" stroke="#191970" d="M1286.1221,-173.9902C1279.0337,-171.7035 1271.2922,-169.4931 1264,-168 1095.7809,-133.5564 1047.0664,-155.4003 872.6475,-131.9488"/>
<polygon fill="#191970" stroke="#191970" points="873.0023,-128.4648 862.6187,-130.5695 872.0485,-135.3995 873.0023,-128.4648"/>
</g>
<!-- Node11&#45;&gt;Node24 -->
<g id="edge25" class="edge">
<title>Node11&#45;&gt;Node24</title>
<path fill="none" stroke="#191970" d="M1285.3323,-173.9206C1278.4516,-171.7173 1271.0082,-169.5647 1264,-168 1143.8165,-141.1676 1108.6416,-150.7822 983.1765,-132.0989"/>
<polygon fill="#191970" stroke="#191970" points="983.5961,-128.6226 973.1836,-130.5799 982.5441,-135.5431 983.5961,-128.6226"/>
</g>
<!-- Node11&#45;&gt;Node25 -->
<g id="edge26" class="edge">
<title>Node11&#45;&gt;Node25</title>
<path fill="none" stroke="#191970" d="M1284.783,-173.9515C1278.0453,-171.7988 1270.8057,-169.6619 1264,-168 1173.4165,-145.8802 1145.8092,-153.1142 1051.157,-132.0384"/>
<polygon fill="#191970" stroke="#191970" points="1051.6898,-128.5702 1041.1625,-129.7645 1050.1368,-135.3958 1051.6898,-128.5702"/>
</g>
<!-- Node11&#45;&gt;Node26 -->
<g id="edge27" class="edge">
<title>Node11&#45;&gt;Node26</title>
<path fill="none" stroke="#191970" d="M1283.4107,-173.9366C1277.0446,-171.8998 1270.3114,-169.8171 1264,-168 1204.3664,-150.8316 1186.5746,-148.8701 1122.854,-132.1748"/>
<polygon fill="#191970" stroke="#191970" points="1123.6711,-128.7706 1113.1089,-129.6011 1121.8837,-135.5386 1123.6711,-128.7706"/>
</g>
<!-- Node11&#45;&gt;Node27 -->
<g id="edge28" class="edge">
<title>Node11&#45;&gt;Node27</title>
<path fill="none" stroke="#191970" d="M1302.3125,-173.8906C1292.9041,-164.5581 1278.4193,-150.1902 1267.0751,-138.9374"/>
<polygon fill="#191970" stroke="#191970" points="1269.3886,-136.3024 1259.8241,-131.7449 1264.4589,-141.2722 1269.3886,-136.3024"/>
</g>
<!-- Node11&#45;&gt;Node28 -->
<g id="edge29" class="edge">
<title>Node11&#45;&gt;Node28</title>
<path fill="none" stroke="#191970" d="M1311.8438,-173.8906C1311.7051,-165.3657 1311.4982,-152.6392 1311.324,-141.9235"/>
<polygon fill="#191970" stroke="#191970" points="1314.8207,-141.6866 1311.1585,-131.7449 1307.8216,-141.8005 1314.8207,-141.6866"/>
</g>
<!-- Node11&#45;&gt;Node29 -->
<g id="edge30" class="edge">
<title>Node11&#45;&gt;Node29</title>
<path fill="none" stroke="#191970" d="M1322,-173.8906C1331.7119,-164.5581 1346.6639,-150.1902 1358.3741,-138.9374"/>
<polygon fill="#191970" stroke="#191970" points="1361.0736,-141.1974 1365.859,-131.7449 1356.2234,-136.15 1361.0736,-141.1974"/>
</g>
<!-- Node30 -->
<g id="node31" class="node">
<title>Node30</title>
<g id="a_node31"><a xlink:href="lnInclude_2bubbleDataI_8H.html" target="_top" xlink:title="bubbleDataI.H">
<polygon fill="none" stroke="#000000" points="1131,-112.5 1131,-131.5 1211,-131.5 1211,-112.5 1131,-112.5"/>
<text text-anchor="middle" x="1171" y="-119.5" font-family="Helvetica,sans-Serif" font-size="10.00" fill="#000000">bubbleDataI.H</text>
</a>
</g>
</g>
<!-- Node11&#45;&gt;Node30 -->
<g id="edge31" class="edge">
<title>Node11&#45;&gt;Node30</title>
<path fill="none" stroke="#191970" d="M1289.9688,-173.8906C1266.3769,-163.6005 1228.7499,-147.1888 1202.1367,-135.5809"/>
<polygon fill="#191970" stroke="#191970" points="1203.4419,-132.3318 1192.8765,-131.5419 1200.6433,-138.748 1203.4419,-132.3318"/>
</g>
<!-- Node33 -->
<g id="node34" class="node">
<title>Node33</title>
<g id="a_node34"><a xlink:href="lnInclude_2NoFrontToField_8H.html" target="_top" xlink:title="NoFrontToField.H">
<polygon fill="none" stroke="#000000" points="80.5,-112.5 80.5,-131.5 175.5,-131.5 175.5,-112.5 80.5,-112.5"/>
<text text-anchor="middle" x="128" y="-119.5" font-family="Helvetica,sans-Serif" font-size="10.00" fill="#000000">NoFrontToField.H</text>
</a>
</g>
</g>
<!-- Node32&#45;&gt;Node33 -->
<g id="edge52" class="edge">
<title>Node32&#45;&gt;Node33</title>
<path fill="none" stroke="#191970" d="M162.5938,-173.8906C156.6114,-164.917 147.5253,-151.2879 140.1661,-140.2491"/>
<polygon fill="#191970" stroke="#191970" points="142.9558,-138.1239 134.4966,-131.7449 137.1314,-142.0068 142.9558,-138.1239"/>
</g>
<!-- Node34 -->
<g id="node35" class="node">
<title>Node34</title>
<g id="a_node35"><a xlink:href="lnInclude_2FrontToFieldModel_8H.html" target="_top" xlink:title="FrontToFieldModel.H">
<polygon fill="none" stroke="#ff0000" points="74,-56.5 74,-75.5 182,-75.5 182,-56.5 74,-56.5"/>
<text text-anchor="middle" x="128" y="-63.5" font-family="Helvetica,sans-Serif" font-size="10.00" fill="#000000">FrontToFieldModel.H</text>
</a>
</g>
</g>
<!-- Node33&#45;&gt;Node34 -->
<g id="edge53" class="edge">
<title>Node33&#45;&gt;Node34</title>
<path fill="none" stroke="#191970" d="M128,-112.2455C128,-104.9382 128,-94.6944 128,-85.7046"/>
<polygon fill="#191970" stroke="#191970" points="131.5001,-85.6426 128,-75.6427 124.5001,-85.6427 131.5001,-85.6426"/>
</g>
<!-- Node35 -->
<g id="node36" class="node">
<title>Node35</title>
<polygon fill="none" stroke="#bfbfbf" points="0,-.5 0,-19.5 80,-19.5 80,-.5 0,-.5"/>
<text text-anchor="middle" x="40" y="-7.5" font-family="Helvetica,sans-Serif" font-size="10.00" fill="#000000">IOdictionary.H</text>
</g>
<!-- Node34&#45;&gt;Node35 -->
<g id="edge54" class="edge">
<title>Node34&#45;&gt;Node35</title>
<path fill="none" stroke="#191970" d="M112.6716,-56.2455C99.1697,-47.6534 79.2878,-35.0014 63.7314,-25.1018"/>
<polygon fill="#191970" stroke="#191970" points="65.4685,-22.0587 55.1528,-19.6427 61.7103,-27.9643 65.4685,-22.0587"/>
</g>
<!-- Node36 -->
<g id="node37" class="node">
<title>Node36</title>
<polygon fill="none" stroke="#bfbfbf" points="98.5,-.5 98.5,-19.5 157.5,-19.5 157.5,-.5 98.5,-.5"/>
<text text-anchor="middle" x="128" y="-7.5" font-family="Helvetica,sans-Serif" font-size="10.00" fill="#000000">autoPtr.H</text>
</g>
<!-- Node34&#45;&gt;Node36 -->
<g id="edge55" class="edge">
<title>Node34&#45;&gt;Node36</title>
<path fill="none" stroke="#191970" d="M128,-56.2455C128,-48.9382 128,-38.6944 128,-29.7046"/>
<polygon fill="#191970" stroke="#191970" points="131.5001,-29.6426 128,-19.6427 124.5001,-29.6427 131.5001,-29.6426"/>
</g>
<!-- Node37 -->
<g id="node38" class="node">
<title>Node37</title>
<polygon fill="none" stroke="#bfbfbf" points="176,-.5 176,-19.5 308,-19.5 308,-.5 176,-.5"/>
<text text-anchor="middle" x="242" y="-7.5" font-family="Helvetica,sans-Serif" font-size="10.00" fill="#000000">runTimeSelectionTables.H</text>
</g>
<!-- Node34&#45;&gt;Node37 -->
<g id="edge56" class="edge">
<title>Node34&#45;&gt;Node37</title>
<path fill="none" stroke="#191970" d="M147.5973,-56.3733C165.7331,-47.4644 192.9135,-34.1127 213.4587,-24.0203"/>
<polygon fill="#191970" stroke="#191970" points="215.2261,-27.0517 222.6584,-19.5011 212.1397,-20.7688 215.2261,-27.0517"/>
</g>
<!-- Node41 -->
<g id="node41" class="node">
<title>Node41</title>
<polygon fill="none" stroke="#bfbfbf" points="2042,-235.5 2042,-254.5 2116,-254.5 2116,-235.5 2042,-235.5"/>
<text text-anchor="middle" x="2079" y="-242.5" font-family="Helvetica,sans-Serif" font-size="10.00" fill="#000000">contiguous.H</text>
</g>
<!-- Node40&#45;&gt;Node41 -->
<g id="edge59" class="edge">
<title>Node40&#45;&gt;Node41</title>
<path fill="none" stroke="#191970" d="M1985.4254,-291.3733C2003.4021,-282.4644 2030.3441,-269.1127 2050.709,-259.0203"/>
<polygon fill="#191970" stroke="#191970" points="2052.4222,-262.0776 2059.8281,-254.5011 2049.3139,-255.8055 2052.4222,-262.0776"/>
</g>
<!-- Node42 -->
<g id="node42" class="node">
<title>Node42</title>
<polygon fill="none" stroke="#bfbfbf" points="2251.5,-174 2251.5,-193 2310.5,-193 2310.5,-174 2251.5,-174"/>
<text text-anchor="middle" x="2281" y="-181" font-family="Helvetica,sans-Serif" font-size="10.00" fill="#000000">particle.H</text>
</g>
<!-- Node40&#45;&gt;Node42 -->
<g id="edge60" class="edge">
<title>Node40&#45;&gt;Node42</title>
<path fill="none" stroke="#191970" d="M2005.0756,-291.4239C2037.5852,-283.0472 2084.8632,-269.9105 2125,-255 2170.8647,-237.9617 2222.0835,-213.3591 2252.9121,-197.9092"/>
<polygon fill="#191970" stroke="#191970" points="2254.8217,-200.866 2262.1723,-193.2358 2251.6678,-194.6168 2254.8217,-200.866"/>
</g>
<!-- Node43 -->
<g id="node43" class="node">
<title>Node43</title>
<polygon fill="none" stroke="#bfbfbf" points="1786,-235.5 1786,-254.5 1890,-254.5 1890,-235.5 1786,-235.5"/>
<text text-anchor="middle" x="1838" y="-242.5" font-family="Helvetica,sans-Serif" font-size="10.00" fill="#000000">MomentumParcel.H</text>
</g>
<!-- Node40&#45;&gt;Node43 -->
<g id="edge61" class="edge">
<title>Node40&#45;&gt;Node43</title>
<path fill="none" stroke="#191970" d="M1943.996,-291.3733C1923.3565,-282.3435 1892.2842,-268.7494 1869.1111,-258.6111"/>
<polygon fill="#191970" stroke="#191970" points="1870.2813,-255.3028 1859.7169,-254.5011 1867.4755,-261.7159 1870.2813,-255.3028"/>
</g>
<!-- Node44 -->
<g id="node44" class="node">
<title>Node44</title>
<g id="a_node44"><a xlink:href="lnInclude_2FrontTrackingParcel_8H.html" target="_top" xlink:title="FrontTrackingParcel.H">
<polygon fill="none" stroke="#000000" points="1908.5,-235.5 1908.5,-254.5 2023.5,-254.5 2023.5,-235.5 1908.5,-235.5"/>
<text text-anchor="middle" x="1966" y="-242.5" font-family="Helvetica,sans-Serif" font-size="10.00" fill="#000000">FrontTrackingParcel.H</text>
</a>
</g>
</g>
<!-- Node40&#45;&gt;Node44 -->
<g id="edge62" class="edge">
<title>Node40&#45;&gt;Node44</title>
<path fill="none" stroke="#191970" d="M1966,-291.2455C1966,-283.9382 1966,-273.6944 1966,-264.7046"/>
<polygon fill="#191970" stroke="#191970" points="1969.5001,-264.6426 1966,-254.6427 1962.5001,-264.6427 1969.5001,-264.6426"/>
</g>
<!-- Node44&#45;&gt;Node11 -->
<g id="edge66" class="edge">
<title>Node44&#45;&gt;Node11</title>
<path fill="none" stroke="#191970" d="M1908.2863,-236.159C1905.1475,-235.7491 1902.0366,-235.3595 1899,-235 1699.8176,-211.4201 1461.4243,-193.7509 1360.711,-186.7696"/>
<polygon fill="#191970" stroke="#191970" points="1360.7607,-183.2649 1350.5437,-186.0688 1360.2793,-190.2483 1360.7607,-183.2649"/>
</g>
<!-- Node44&#45;&gt;Node42 -->
<g id="edge63" class="edge">
<title>Node44&#45;&gt;Node42</title>
<path fill="none" stroke="#191970" d="M2023.6634,-236.0614C2098.3293,-224.3833 2221.3808,-204.7448 2242,-199 2244.6079,-198.2734 2247.2803,-197.4312 2249.9436,-196.5223"/>
<polygon fill="#191970" stroke="#191970" points="2251.2478,-199.7718 2259.4172,-193.0256 2248.8239,-193.2048 2251.2478,-199.7718"/>
</g>
<!-- Node45 -->
<g id="node45" class="node">
<title>Node45</title>
<polygon fill="none" stroke="#bfbfbf" points="1871,-174 1871,-193 1971,-193 1971,-174 1871,-174"/>
<text text-anchor="middle" x="1921" y="-181" font-family="Helvetica,sans-Serif" font-size="10.00" fill="#000000">labelFieldIOField.H</text>
</g>
<!-- Node44&#45;&gt;Node45 -->
<g id="edge64" class="edge">
<title>Node44&#45;&gt;Node45</title>
<path fill="none" stroke="#191970" d="M1958.9688,-235.3906C1952.337,-226.3273 1942.2304,-212.5149 1934.1113,-201.4188"/>
<polygon fill="#191970" stroke="#191970" points="1936.8601,-199.2484 1928.1304,-193.2449 1931.2109,-203.382 1936.8601,-199.2484"/>
</g>
<!-- Node46 -->
<g id="node46" class="node">
<title>Node46</title>
<polygon fill="none" stroke="#bfbfbf" points="1989.5,-174 1989.5,-193 2096.5,-193 2096.5,-174 1989.5,-174"/>
<text text-anchor="middle" x="2043" y="-181" font-family="Helvetica,sans-Serif" font-size="10.00" fill="#000000">vectorFieldIOField.H</text>
</g>
<!-- Node44&#45;&gt;Node46 -->
<g id="edge65" class="edge">
<title>Node44&#45;&gt;Node46</title>
<path fill="none" stroke="#191970" d="M1978.0313,-235.3906C1990.0107,-225.8227 2008.6166,-210.9621 2022.8525,-199.5919"/>
<polygon fill="#191970" stroke="#191970" points="2025.4239,-202.0175 2031.0532,-193.0419 2021.0553,-196.5479 2025.4239,-202.0175"/>
</g>
<!-- Node47 -->
<g id="node47" class="node">
<title>Node47</title>
<g id="a_node47"><a xlink:href="lnInclude_2FrontTrackingParcelI_8H.html" target="_top" xlink:title="FrontTrackingParcelI.H">
<polygon fill="none" stroke="#000000" points="2115,-174 2115,-193 2233,-193 2233,-174 2115,-174"/>
<text text-anchor="middle" x="2174" y="-181" font-family="Helvetica,sans-Serif" font-size="10.00" fill="#000000">FrontTrackingParcelI.H</text>
</a>
</g>
</g>
<!-- Node44&#45;&gt;Node47 -->
<g id="edge67" class="edge">
<title>Node44&#45;&gt;Node47</title>
<path fill="none" stroke="#191970" d="M1998.5,-235.3906C2034.447,-224.7621 2092.4827,-207.6025 2131.888,-195.9514"/>
<polygon fill="#191970" stroke="#191970" points="2133.131,-199.2337 2141.7282,-193.0419 2131.1462,-192.521 2133.131,-199.2337"/>
</g>
<!-- Node48 -->
<g id="node48" class="node">
<title>Node48</title>
<g id="a_node48"><a xlink:href="lnInclude_2FrontTrackingParcelTrackingDataI_8H.html" target="_top" xlink:title="FrontTrackingParcelTracking\lDataI.H">
<polygon fill="none" stroke="#000000" points="1711,-168.5 1711,-198.5 1853,-198.5 1853,-168.5 1711,-168.5"/>
<text text-anchor="start" x="1719" y="-186.5" font-family="Helvetica,sans-Serif" font-size="10.00" fill="#000000">FrontTrackingParcelTracking</text>
<text text-anchor="middle" x="1782" y="-175.5" font-family="Helvetica,sans-Serif" font-size="10.00" fill="#000000">DataI.H</text>
</a>
</g>
</g>
<!-- Node44&#45;&gt;Node48 -->
<g id="edge68" class="edge">
<title>Node44&#45;&gt;Node48</title>
<path fill="none" stroke="#191970" d="M1937.25,-235.3906C1910.3879,-226.4123 1869.5825,-212.7735 1836.5466,-201.7316"/>
<polygon fill="#191970" stroke="#191970" points="1837.6052,-198.3952 1827.0115,-198.5446 1835.3862,-205.0342 1837.6052,-198.3952"/>
</g>
<!-- Node49 -->
<g id="node49" class="node">
<title>Node49</title>
<polygon fill="none" stroke="#bfbfbf" points="1902.5,-112.5 1902.5,-131.5 2005.5,-131.5 2005.5,-112.5 1902.5,-112.5"/>
<text text-anchor="middle" x="1954" y="-119.5" font-family="Helvetica,sans-Serif" font-size="10.00" fill="#000000">AveragingMethod.H</text>
</g>
<!-- Node48&#45;&gt;Node49 -->
<g id="edge69" class="edge">
<title>Node48&#45;&gt;Node49</title>
<path fill="none" stroke="#191970" d="M1824.0759,-168.4554C1852.7746,-158.194 1890.3937,-144.7429 1917.7623,-134.9571"/>
<polygon fill="#191970" stroke="#191970" points="1919.1083,-138.1929 1927.3461,-131.5303 1916.7515,-131.6015 1919.1083,-138.1929"/>
</g>
</g>
</svg>
