<?xml version="1.0" encoding="UTF-8" standalone="no"?>
<!DOCTYPE svg PUBLIC "-//W3C//DTD SVG 1.1//EN"
 "http://www.w3.org/Graphics/SVG/1.1/DTD/svg11.dtd">
<!-- Generated by graphviz version 2.40.1 (20161225.0304)
 -->
<!-- Title: lnInclude/makeFrontTrackingParcelUndulationRemovalModels.H Pages: 1 -->
<svg width="2164pt" height="207pt"
 viewBox="0.00 0.00 2163.50 207.00" xmlns="http://www.w3.org/2000/svg" xmlns:xlink="http://www.w3.org/1999/xlink">
<g id="graph0" class="graph" transform="scale(1 1) rotate(0) translate(4 203)">
<title>lnInclude/makeFrontTrackingParcelUndulationRemovalModels.H</title>
<!-- Node0 -->
<g id="node1" class="node">
<title>Node0</title>
<polygon fill="#bfbfbf" stroke="#000000" points="455,-168.5 455,-198.5 627,-198.5 627,-168.5 455,-168.5"/>
<text text-anchor="start" x="463" y="-186.5" font-family="Helvetica,sans-Serif" font-size="10.00" fill="#000000">lnInclude/makeFrontTracking</text>
<text text-anchor="middle" x="541" y="-175.5" font-family="Helvetica,sans-Serif" font-size="10.00" fill="#000000">ParcelUndulationRemovalModels.H</text>
</g>
<!-- Node1 -->
<g id="node2" class="node">
<title>Node1</title>
<g id="a_node2"><a xlink:href="lnInclude_2NoUndulationRemoval_8H.html" target="_top" xlink:title="NoUndulationRemoval.H">
<polygon fill="none" stroke="#000000" points="323.5,-112.5 323.5,-131.5 448.5,-131.5 448.5,-112.5 323.5,-112.5"/>
<text text-anchor="middle" x="386" y="-119.5" font-family="Helvetica,sans-Serif" font-size="10.00" fill="#000000">NoUndulationRemoval.H</text>
</a>
</g>
</g>
<!-- Node0&#45;&gt;Node1 -->
<g id="edge1" class="edge">
<title>Node0&#45;&gt;Node1</title>
<path fill="none" stroke="#191970" d="M503.0827,-168.4554C477.5609,-158.329 444.2104,-145.0964 419.6344,-135.3453"/>
<polygon fill="#191970" stroke="#191970" points="420.6054,-131.9651 410.0195,-131.5303 418.0237,-138.4717 420.6054,-131.9651"/>
</g>
<!-- Node7 -->
<g id="node8" class="node">
<title>Node7</title>
<g id="a_node8"><a xlink:href="lnInclude_2TSUR3D_8H.html" target="_top" xlink:title="TSUR3D.H">
<polygon fill="none" stroke="#000000" points="467,-112.5 467,-131.5 535,-131.5 535,-112.5 467,-112.5"/>
<text text-anchor="middle" x="501" y="-119.5" font-family="Helvetica,sans-Serif" font-size="10.00" fill="#000000">TSUR3D.H</text>
</a>
</g>
</g>
<!-- Node0&#45;&gt;Node7 -->
<g id="edge7" class="edge">
<title>Node0&#45;&gt;Node7</title>
<path fill="none" stroke="#191970" d="M531.1124,-168.2977C525.6178,-159.8498 518.7414,-149.2773 512.9473,-140.369"/>
<polygon fill="#191970" stroke="#191970" points="515.7908,-138.3215 507.4045,-131.8469 509.9228,-142.1381 515.7908,-138.3215"/>
</g>
<!-- Node29 -->
<g id="node30" class="node">
<title>Node29</title>
<g id="a_node30"><a xlink:href="lnInclude_2VCSIII_8H.html" target="_top" xlink:title="VCSIII.H">
<polygon fill="none" stroke="#000000" points="553.5,-112.5 553.5,-131.5 610.5,-131.5 610.5,-112.5 553.5,-112.5"/>
<text text-anchor="middle" x="582" y="-119.5" font-family="Helvetica,sans-Serif" font-size="10.00" fill="#000000">VCSIII.H</text>
</a>
</g>
</g>
<!-- Node0&#45;&gt;Node29 -->
<g id="edge30" class="edge">
<title>Node0&#45;&gt;Node29</title>
<path fill="none" stroke="#191970" d="M551.1348,-168.2977C556.7668,-159.8498 563.8151,-149.2773 569.754,-140.369"/>
<polygon fill="#191970" stroke="#191970" points="572.8005,-142.1089 575.4354,-131.8469 566.9762,-138.226 572.8005,-142.1089"/>
</g>
<!-- Node30 -->
<g id="node31" class="node">
<title>Node30</title>
<g id="a_node31"><a xlink:href="lnInclude_2VCSIV_8H.html" target="_top" xlink:title="VCSIV.H">
<polygon fill="none" stroke="#000000" points="629,-112.5 629,-131.5 687,-131.5 687,-112.5 629,-112.5"/>
<text text-anchor="middle" x="658" y="-119.5" font-family="Helvetica,sans-Serif" font-size="10.00" fill="#000000">VCSIV.H</text>
</a>
</g>
</g>
<!-- Node0&#45;&gt;Node30 -->
<g id="edge33" class="edge">
<title>Node0&#45;&gt;Node30</title>
<path fill="none" stroke="#191970" d="M569.6214,-168.4554C588.287,-158.644 612.4999,-145.9167 630.8612,-136.2653"/>
<polygon fill="#191970" stroke="#191970" points="632.646,-139.2812 639.8692,-131.5303 629.389,-133.0851 632.646,-139.2812"/>
</g>
<!-- Node2 -->
<g id="node3" class="node">
<title>Node2</title>
<g id="a_node3"><a xlink:href="lnInclude_2UndulationRemovalModel_8H.html" target="_top" xlink:title="UndulationRemovalModel.H">
<polygon fill="none" stroke="#000000" points="316.5,-56.5 316.5,-75.5 455.5,-75.5 455.5,-56.5 316.5,-56.5"/>
<text text-anchor="middle" x="386" y="-63.5" font-family="Helvetica,sans-Serif" font-size="10.00" fill="#000000">UndulationRemovalModel.H</text>
</a>
</g>
</g>
<!-- Node1&#45;&gt;Node2 -->
<g id="edge2" class="edge">
<title>Node1&#45;&gt;Node2</title>
<path fill="none" stroke="#191970" d="M386,-112.2455C386,-104.9382 386,-94.6944 386,-85.7046"/>
<polygon fill="#191970" stroke="#191970" points="389.5001,-85.6426 386,-75.6427 382.5001,-85.6427 389.5001,-85.6426"/>
</g>
<!-- Node3 -->
<g id="node4" class="node">
<title>Node3</title>
<polygon fill="none" stroke="#bfbfbf" points="0,-.5 0,-19.5 80,-19.5 80,-.5 0,-.5"/>
<text text-anchor="middle" x="40" y="-7.5" font-family="Helvetica,sans-Serif" font-size="10.00" fill="#000000">IOdictionary.H</text>
</g>
<!-- Node2&#45;&gt;Node3 -->
<g id="edge3" class="edge">
<title>Node2&#45;&gt;Node3</title>
<path fill="none" stroke="#191970" d="M318.613,-56.4977C260.6128,-48.1052 174.4447,-35.1296 90.0908,-20.1326"/>
<polygon fill="#191970" stroke="#191970" points="90.5416,-16.6577 80.0815,-18.3418 89.3088,-23.5483 90.5416,-16.6577"/>
</g>
<!-- Node4 -->
<g id="node5" class="node">
<title>Node4</title>
<polygon fill="none" stroke="#bfbfbf" points="98.5,-.5 98.5,-19.5 157.5,-19.5 157.5,-.5 98.5,-.5"/>
<text text-anchor="middle" x="128" y="-7.5" font-family="Helvetica,sans-Serif" font-size="10.00" fill="#000000">autoPtr.H</text>
</g>
<!-- Node2&#45;&gt;Node4 -->
<g id="edge4" class="edge">
<title>Node2&#45;&gt;Node4</title>
<path fill="none" stroke="#191970" d="M337.5872,-56.4669C295.2922,-47.9952 232.0093,-34.9755 167.6886,-20.0862"/>
<polygon fill="#191970" stroke="#191970" points="168.3106,-16.6375 157.7774,-17.7788 166.7233,-23.4552 168.3106,-16.6375"/>
</g>
<!-- Node5 -->
<g id="node6" class="node">
<title>Node5</title>
<polygon fill="none" stroke="#bfbfbf" points="176,-.5 176,-19.5 308,-19.5 308,-.5 176,-.5"/>
<text text-anchor="middle" x="242" y="-7.5" font-family="Helvetica,sans-Serif" font-size="10.00" fill="#000000">runTimeSelectionTables.H</text>
</g>
<!-- Node2&#45;&gt;Node5 -->
<g id="edge5" class="edge">
<title>Node2&#45;&gt;Node5</title>
<path fill="none" stroke="#191970" d="M361.2455,-56.3733C337.7151,-47.2226 302.1313,-33.3844 275.9574,-23.2057"/>
<polygon fill="#191970" stroke="#191970" points="277.0201,-19.8636 266.4315,-19.5011 274.4829,-26.3877 277.0201,-19.8636"/>
</g>
<!-- Node6 -->
<g id="node7" class="node">
<title>Node6</title>
<polygon fill="none" stroke="#bfbfbf" points="326.5,-.5 326.5,-19.5 445.5,-19.5 445.5,-.5 326.5,-.5"/>
<text text-anchor="middle" x="386" y="-7.5" font-family="Helvetica,sans-Serif" font-size="10.00" fill="#000000">CloudSubModelBase.H</text>
</g>
<!-- Node2&#45;&gt;Node6 -->
<g id="edge6" class="edge">
<title>Node2&#45;&gt;Node6</title>
<path fill="none" stroke="#191970" d="M386,-56.2455C386,-48.9382 386,-38.6944 386,-29.7046"/>
<polygon fill="#191970" stroke="#191970" points="389.5001,-29.6426 386,-19.6427 382.5001,-29.6427 389.5001,-29.6426"/>
</g>
<!-- Node7&#45;&gt;Node2 -->
<g id="edge8" class="edge">
<title>Node7&#45;&gt;Node2</title>
<path fill="none" stroke="#191970" d="M481.2308,-112.3733C462.8531,-103.4241 435.2688,-89.9917 414.5107,-79.8835"/>
<polygon fill="#191970" stroke="#191970" points="416.0343,-76.7325 405.5112,-75.5011 412.9696,-83.026 416.0343,-76.7325"/>
</g>
<!-- Node8 -->
<g id="node9" class="node">
<title>Node8</title>
<g id="a_node9"><a xlink:href="lnInclude_2bubbleData_8H.html" target="_top" xlink:title="bubbleData.H">
<polygon fill="none" stroke="#000000" points="1098.5,-56.5 1098.5,-75.5 1175.5,-75.5 1175.5,-56.5 1098.5,-56.5"/>
<text text-anchor="middle" x="1137" y="-63.5" font-family="Helvetica,sans-Serif" font-size="10.00" fill="#000000">bubbleData.H</text>
</a>
</g>
</g>
<!-- Node7&#45;&gt;Node8 -->
<g id="edge9" class="edge">
<title>Node7&#45;&gt;Node8</title>
<path fill="none" stroke="#191970" d="M535.0162,-113.7534C538.3771,-113.094 541.747,-112.4933 545,-112 745.0762,-81.6567 986.4053,-70.8006 1088.0773,-67.3875"/>
<polygon fill="#191970" stroke="#191970" points="1088.4584,-70.8771 1098.3389,-67.0526 1088.23,-63.8808 1088.4584,-70.8771"/>
</g>
<!-- Node9 -->
<g id="node10" class="node">
<title>Node9</title>
<polygon fill="none" stroke="#bfbfbf" points="1107.5,-.5 1107.5,-19.5 1166.5,-19.5 1166.5,-.5 1107.5,-.5"/>
<text text-anchor="middle" x="1137" y="-7.5" font-family="Helvetica,sans-Serif" font-size="10.00" fill="#000000">fvMesh.H</text>
</g>
<!-- Node8&#45;&gt;Node9 -->
<g id="edge10" class="edge">
<title>Node8&#45;&gt;Node9</title>
<path fill="none" stroke="#191970" d="M1137,-56.2455C1137,-48.9382 1137,-38.6944 1137,-29.7046"/>
<polygon fill="#191970" stroke="#191970" points="1140.5001,-29.6426 1137,-19.6427 1133.5001,-29.6427 1140.5001,-29.6426"/>
</g>
<!-- Node10 -->
<g id="node11" class="node">
<title>Node10</title>
<polygon fill="none" stroke="#bfbfbf" points="1185,-.5 1185,-19.5 1251,-19.5 1251,-.5 1185,-.5"/>
<text text-anchor="middle" x="1218" y="-7.5" font-family="Helvetica,sans-Serif" font-size="10.00" fill="#000000">fileName.H</text>
</g>
<!-- Node8&#45;&gt;Node10 -->
<g id="edge11" class="edge">
<title>Node8&#45;&gt;Node10</title>
<path fill="none" stroke="#191970" d="M1151.1091,-56.2455C1163.4209,-47.7337 1181.4958,-35.2375 1195.7538,-25.3801"/>
<polygon fill="#191970" stroke="#191970" points="1197.8174,-28.2085 1204.0526,-19.6427 1193.8366,-22.4506 1197.8174,-28.2085"/>
</g>
<!-- Node11 -->
<g id="node12" class="node">
<title>Node11</title>
<polygon fill="none" stroke="#bfbfbf" points="1269.5,-.5 1269.5,-19.5 1338.5,-19.5 1338.5,-.5 1269.5,-.5"/>
<text text-anchor="middle" x="1304" y="-7.5" font-family="Helvetica,sans-Serif" font-size="10.00" fill="#000000">pointField.H</text>
</g>
<!-- Node8&#45;&gt;Node11 -->
<g id="edge12" class="edge">
<title>Node8&#45;&gt;Node11</title>
<path fill="none" stroke="#191970" d="M1165.7083,-56.3733C1193.3577,-47.1016 1235.3576,-33.0178 1265.8166,-22.804"/>
<polygon fill="#191970" stroke="#191970" points="1267.2979,-25.9989 1275.6663,-19.5011 1265.0724,-19.3621 1267.2979,-25.9989"/>
</g>
<!-- Node12 -->
<g id="node13" class="node">
<title>Node12</title>
<polygon fill="none" stroke="#bfbfbf" points="1357,-.5 1357,-19.5 1405,-19.5 1405,-.5 1357,-.5"/>
<text text-anchor="middle" x="1381" y="-7.5" font-family="Helvetica,sans-Serif" font-size="10.00" fill="#000000">point.H</text>
</g>
<!-- Node8&#45;&gt;Node12 -->
<g id="edge13" class="edge">
<title>Node8&#45;&gt;Node12</title>
<path fill="none" stroke="#191970" d="M1175.7212,-58.5208C1216.1337,-50.5025 1281.5307,-36.9319 1346.8558,-20.1505"/>
<polygon fill="#191970" stroke="#191970" points="1348.1118,-23.4406 1356.9121,-17.5411 1346.3536,-16.665 1348.1118,-23.4406"/>
</g>
<!-- Node13 -->
<g id="node14" class="node">
<title>Node13</title>
<polygon fill="none" stroke="#bfbfbf" points="1423,-.5 1423,-19.5 1479,-19.5 1479,-.5 1423,-.5"/>
<text text-anchor="middle" x="1451" y="-7.5" font-family="Helvetica,sans-Serif" font-size="10.00" fill="#000000">DLList.H</text>
</g>
<!-- Node8&#45;&gt;Node13 -->
<g id="edge14" class="edge">
<title>Node8&#45;&gt;Node13</title>
<path fill="none" stroke="#191970" d="M1175.7683,-60.8034C1227.655,-53.5766 1322.7036,-39.3898 1412.9461,-20.0671"/>
<polygon fill="#191970" stroke="#191970" points="1413.757,-23.4727 1422.7892,-17.9345 1412.2748,-16.6314 1413.757,-23.4727"/>
</g>
<!-- Node14 -->
<g id="node15" class="node">
<title>Node14</title>
<polygon fill="none" stroke="#bfbfbf" points="1497.5,-.5 1497.5,-19.5 1582.5,-19.5 1582.5,-.5 1497.5,-.5"/>
<text text-anchor="middle" x="1540" y="-7.5" font-family="Helvetica,sans-Serif" font-size="10.00" fill="#000000">sphereToCell.H</text>
</g>
<!-- Node8&#45;&gt;Node14 -->
<g id="edge15" class="edge">
<title>Node8&#45;&gt;Node14</title>
<path fill="none" stroke="#191970" d="M1175.5439,-61.7112C1238.5033,-54.5398 1367.5392,-39.1498 1487.3855,-20.0157"/>
<polygon fill="#191970" stroke="#191970" points="1488.1525,-23.4374 1497.4695,-18.3932 1487.0405,-16.5262 1488.1525,-23.4374"/>
</g>
<!-- Node15 -->
<g id="node16" class="node">
<title>Node15</title>
<polygon fill="none" stroke="#bfbfbf" points="1600.5,-.5 1600.5,-19.5 1657.5,-19.5 1657.5,-.5 1600.5,-.5"/>
<text text-anchor="middle" x="1629" y="-7.5" font-family="Helvetica,sans-Serif" font-size="10.00" fill="#000000">cellSet.H</text>
</g>
<!-- Node8&#45;&gt;Node15 -->
<g id="edge16" class="edge">
<title>Node8&#45;&gt;Node15</title>
<path fill="none" stroke="#191970" d="M1175.6493,-64.2233C1252.8808,-60.2157 1431.8177,-48.6372 1590.4843,-20.0372"/>
<polygon fill="#191970" stroke="#191970" points="1591.2161,-23.4615 1600.4226,-18.2183 1589.9558,-16.5759 1591.2161,-23.4615"/>
</g>
<!-- Node16 -->
<g id="node17" class="node">
<title>Node16</title>
<polygon fill="none" stroke="#bfbfbf" points="1675.5,-.5 1675.5,-19.5 1758.5,-19.5 1758.5,-.5 1675.5,-.5"/>
<text text-anchor="middle" x="1717" y="-7.5" font-family="Helvetica,sans-Serif" font-size="10.00" fill="#000000">simpleMatrix.H</text>
</g>
<!-- Node8&#45;&gt;Node16 -->
<g id="edge17" class="edge">
<title>Node8&#45;&gt;Node16</title>
<path fill="none" stroke="#191970" d="M1175.7379,-64.1119C1261.9692,-59.593 1476.4239,-46.6069 1665.2095,-20.1299"/>
<polygon fill="#191970" stroke="#191970" points="1665.9085,-23.5658 1675.3176,-18.6957 1664.9251,-16.6353 1665.9085,-23.5658"/>
</g>
<!-- Node17 -->
<g id="node18" class="node">
<title>Node17</title>
<polygon fill="none" stroke="#bfbfbf" points="1776.5,-.5 1776.5,-19.5 1907.5,-19.5 1907.5,-.5 1776.5,-.5"/>
<text text-anchor="middle" x="1842" y="-7.5" font-family="Helvetica,sans-Serif" font-size="10.00" fill="#000000">mathematicalConstants.H</text>
</g>
<!-- Node8&#45;&gt;Node17 -->
<g id="edge18" class="edge">
<title>Node8&#45;&gt;Node17</title>
<path fill="none" stroke="#191970" d="M1175.8469,-64.0023C1273.3438,-58.8101 1536.4492,-43.6971 1766.041,-20.1534"/>
<polygon fill="#191970" stroke="#191970" points="1766.6703,-23.6071 1776.2576,-19.0978 1765.9508,-16.6442 1766.6703,-23.6071"/>
</g>
<!-- Node18 -->
<g id="node19" class="node">
<title>Node18</title>
<polygon fill="none" stroke="#bfbfbf" points="1926,-.5 1926,-19.5 1982,-19.5 1982,-.5 1926,-.5"/>
<text text-anchor="middle" x="1954" y="-7.5" font-family="Helvetica,sans-Serif" font-size="10.00" fill="#000000">fvCFD.H</text>
</g>
<!-- Node8&#45;&gt;Node18 -->
<g id="edge19" class="edge">
<title>Node8&#45;&gt;Node18</title>
<path fill="none" stroke="#191970" d="M1175.678,-64.7697C1309.3569,-60.3569 1752.1388,-44.3651 1915.4987,-19.8727"/>
<polygon fill="#191970" stroke="#191970" points="1916.5128,-23.2564 1925.8486,-18.2471 1915.4266,-16.3411 1916.5128,-23.2564"/>
</g>
<!-- Node19 -->
<g id="node20" class="node">
<title>Node19</title>
<polygon fill="none" stroke="#bfbfbf" points="2000,-.5 2000,-19.5 2066,-19.5 2066,-.5 2000,-.5"/>
<text text-anchor="middle" x="2033" y="-7.5" font-family="Helvetica,sans-Serif" font-size="10.00" fill="#000000">IFstream.H</text>
</g>
<!-- Node8&#45;&gt;Node19 -->
<g id="edge20" class="edge">
<title>Node8&#45;&gt;Node19</title>
<path fill="none" stroke="#191970" d="M1175.7733,-64.8396C1317.9138,-60.4442 1811.0005,-43.9153 1989.5935,-19.9223"/>
<polygon fill="#191970" stroke="#191970" points="1990.2159,-23.3694 1999.634,-18.5166 1989.2452,-16.437 1990.2159,-23.3694"/>
</g>
<!-- Node20 -->
<g id="node21" class="node">
<title>Node20</title>
<polygon fill="none" stroke="#bfbfbf" points="2084.5,-.5 2084.5,-19.5 2155.5,-19.5 2155.5,-.5 2084.5,-.5"/>
<text text-anchor="middle" x="2120" y="-7.5" font-family="Helvetica,sans-Serif" font-size="10.00" fill="#000000">OFstream.H</text>
</g>
<!-- Node8&#45;&gt;Node20 -->
<g id="edge21" class="edge">
<title>Node8&#45;&gt;Node20</title>
<path fill="none" stroke="#191970" d="M1175.5717,-64.9825C1326.4365,-60.8696 1877.4691,-44.5698 2074.2956,-19.8202"/>
<polygon fill="#191970" stroke="#191970" points="2074.7746,-23.2874 2084.237,-18.5216 2073.8679,-16.3464 2074.7746,-23.2874"/>
</g>
<!-- Node21 -->
<g id="node22" class="node">
<title>Node21</title>
<polygon fill="none" stroke="#bfbfbf" points="463.5,-.5 463.5,-19.5 550.5,-19.5 550.5,-.5 463.5,-.5"/>
<text text-anchor="middle" x="507" y="-7.5" font-family="Helvetica,sans-Serif" font-size="10.00" fill="#000000">IStringStream.H</text>
</g>
<!-- Node8&#45;&gt;Node21 -->
<g id="edge22" class="edge">
<title>Node8&#45;&gt;Node21</title>
<path fill="none" stroke="#191970" d="M1098.3595,-64.3489C1006.7889,-60.1301 769.2744,-47.3957 560.5307,-19.9304"/>
<polygon fill="#191970" stroke="#191970" points="560.9871,-16.4604 550.6129,-18.6114 560.0642,-23.3993 560.9871,-16.4604"/>
</g>
<!-- Node22 -->
<g id="node23" class="node">
<title>Node22</title>
<polygon fill="none" stroke="#bfbfbf" points="569,-.5 569,-19.5 661,-19.5 661,-.5 569,-.5"/>
<text text-anchor="middle" x="615" y="-7.5" font-family="Helvetica,sans-Serif" font-size="10.00" fill="#000000">OStringStream.H</text>
</g>
<!-- Node8&#45;&gt;Node22 -->
<g id="edge23" class="edge">
<title>Node8&#45;&gt;Node22</title>
<path fill="none" stroke="#191970" d="M1098.4326,-63.2729C1020.0004,-57.4961 836.0874,-42.7755 671.482,-20.1109"/>
<polygon fill="#191970" stroke="#191970" points="671.5561,-16.5876 661.1694,-18.6769 670.592,-23.5209 671.5561,-16.5876"/>
</g>
<!-- Node23 -->
<g id="node24" class="node">
<title>Node23</title>
<polygon fill="none" stroke="#bfbfbf" points="679,-.5 679,-19.5 729,-19.5 729,-.5 679,-.5"/>
<text text-anchor="middle" x="704" y="-7.5" font-family="Helvetica,sans-Serif" font-size="10.00" fill="#000000">fstream</text>
</g>
<!-- Node8&#45;&gt;Node23 -->
<g id="edge24" class="edge">
<title>Node8&#45;&gt;Node23</title>
<path fill="none" stroke="#191970" d="M1098.4179,-63.7555C1028.4762,-59.2121 876.0525,-47.1327 738.9723,-19.8998"/>
<polygon fill="#191970" stroke="#191970" points="739.6253,-16.4611 729.1304,-17.9127 738.2399,-23.3226 739.6253,-16.4611"/>
</g>
<!-- Node24 -->
<g id="node25" class="node">
<title>Node24</title>
<polygon fill="none" stroke="#bfbfbf" points="747,-.5 747,-19.5 801,-19.5 801,-.5 747,-.5"/>
<text text-anchor="middle" x="774" y="-7.5" font-family="Helvetica,sans-Serif" font-size="10.00" fill="#000000">iostream</text>
</g>
<!-- Node8&#45;&gt;Node24 -->
<g id="edge25" class="edge">
<title>Node8&#45;&gt;Node24</title>
<path fill="none" stroke="#191970" d="M1098.3437,-62.1131C1038.828,-55.7881 921.0528,-41.9227 811.3021,-19.8304"/>
<polygon fill="#191970" stroke="#191970" points="811.8865,-16.3776 801.3886,-17.8076 810.4869,-23.2363 811.8865,-16.3776"/>
</g>
<!-- Node25 -->
<g id="node26" class="node">
<title>Node25</title>
<polygon fill="none" stroke="#bfbfbf" points="819.5,-.5 819.5,-19.5 860.5,-19.5 860.5,-.5 819.5,-.5"/>
<text text-anchor="middle" x="840" y="-7.5" font-family="Helvetica,sans-Serif" font-size="10.00" fill="#000000">string</text>
</g>
<!-- Node8&#45;&gt;Node25 -->
<g id="edge26" class="edge">
<title>Node8&#45;&gt;Node25</title>
<path fill="none" stroke="#191970" d="M1098.1499,-61.1828C1047.7245,-54.5206 956.9256,-41.1309 870.2624,-19.7396"/>
<polygon fill="#191970" stroke="#191970" points="871.0869,-16.338 860.5358,-17.3 869.3839,-23.1277 871.0869,-16.338"/>
</g>
<!-- Node26 -->
<g id="node27" class="node">
<title>Node26</title>
<polygon fill="none" stroke="#bfbfbf" points="879,-.5 879,-19.5 923,-19.5 923,-.5 879,-.5"/>
<text text-anchor="middle" x="901" y="-7.5" font-family="Helvetica,sans-Serif" font-size="10.00" fill="#000000">cmath</text>
</g>
<!-- Node8&#45;&gt;Node26 -->
<g id="edge27" class="edge">
<title>Node8&#45;&gt;Node26</title>
<path fill="none" stroke="#191970" d="M1098.2023,-58.3952C1058.8055,-50.4295 995.8801,-37.0403 932.9641,-20.093"/>
<polygon fill="#191970" stroke="#191970" points="933.8464,-16.7058 923.2781,-17.4551 932.007,-23.4598 933.8464,-16.7058"/>
</g>
<!-- Node27 -->
<g id="node28" class="node">
<title>Node27</title>
<polygon fill="none" stroke="#bfbfbf" points="941,-.5 941,-19.5 991,-19.5 991,-.5 941,-.5"/>
<text text-anchor="middle" x="966" y="-7.5" font-family="Helvetica,sans-Serif" font-size="10.00" fill="#000000">iomanip</text>
</g>
<!-- Node8&#45;&gt;Node27 -->
<g id="edge28" class="edge">
<title>Node8&#45;&gt;Node27</title>
<path fill="none" stroke="#191970" d="M1107.6041,-56.3733C1077.963,-46.6663 1032.2154,-31.6846 1000.7854,-21.3917"/>
<polygon fill="#191970" stroke="#191970" points="1001.7152,-18.0134 991.1225,-18.2273 999.5366,-24.6657 1001.7152,-18.0134"/>
</g>
<!-- Node28 -->
<g id="node29" class="node">
<title>Node28</title>
<g id="a_node29"><a xlink:href="lnInclude_2bubbleDataI_8H.html" target="_top" xlink:title="bubbleDataI.H">
<polygon fill="none" stroke="#000000" points="1009,-.5 1009,-19.5 1089,-19.5 1089,-.5 1009,-.5"/>
<text text-anchor="middle" x="1049" y="-7.5" font-family="Helvetica,sans-Serif" font-size="10.00" fill="#000000">bubbleDataI.H</text>
</a>
</g>
</g>
<!-- Node8&#45;&gt;Node28 -->
<g id="edge29" class="edge">
<title>Node8&#45;&gt;Node28</title>
<path fill="none" stroke="#191970" d="M1121.6716,-56.2455C1108.1697,-47.6534 1088.2878,-35.0014 1072.7314,-25.1018"/>
<polygon fill="#191970" stroke="#191970" points="1074.4685,-22.0587 1064.1528,-19.6427 1070.7103,-27.9643 1074.4685,-22.0587"/>
</g>
<!-- Node29&#45;&gt;Node2 -->
<g id="edge31" class="edge">
<title>Node29&#45;&gt;Node2</title>
<path fill="none" stroke="#191970" d="M553.4999,-113.8571C520.8499,-104.5285 466.9952,-89.1415 429.1863,-78.339"/>
<polygon fill="#191970" stroke="#191970" points="430.0381,-74.9423 419.4613,-75.5604 428.115,-81.673 430.0381,-74.9423"/>
</g>
<!-- Node29&#45;&gt;Node8 -->
<g id="edge32" class="edge">
<title>Node29&#45;&gt;Node8</title>
<path fill="none" stroke="#191970" d="M610.5199,-113.9433C613.7016,-113.2093 616.9088,-112.5403 620,-112 790.5164,-82.1971 996.2348,-71.22 1088.3136,-67.5968"/>
<polygon fill="#191970" stroke="#191970" points="1088.5856,-71.0891 1098.4447,-67.21 1088.3184,-64.0942 1088.5856,-71.0891"/>
</g>
<!-- Node30&#45;&gt;Node2 -->
<g id="edge34" class="edge">
<title>Node30&#45;&gt;Node2</title>
<path fill="none" stroke="#191970" d="M628.587,-114.0634C625.6915,-113.3412 622.7925,-112.6412 620,-112 562.6694,-98.8353 496.9006,-86.1147 449.7178,-77.4001"/>
<polygon fill="#191970" stroke="#191970" points="450.1106,-73.9137 439.6425,-75.5479 448.8449,-80.7984 450.1106,-73.9137"/>
</g>
<!-- Node30&#45;&gt;Node8 -->
<g id="edge35" class="edge">
<title>Node30&#45;&gt;Node8</title>
<path fill="none" stroke="#191970" d="M687.2425,-118.5812C767.0872,-109.2466 989.4363,-83.2517 1088.41,-71.6807"/>
<polygon fill="#191970" stroke="#191970" points="1088.9166,-75.1454 1098.4425,-70.5078 1088.1037,-68.1927 1088.9166,-75.1454"/>
</g>
</g>
</svg>
