<?xml version="1.0" encoding="UTF-8" standalone="no"?>
<!DOCTYPE svg PUBLIC "-//W3C//DTD SVG 1.1//EN"
 "http://www.w3.org/Graphics/SVG/1.1/DTD/svg11.dtd">
<!-- Generated by graphviz version 2.40.1 (20161225.0304)
 -->
<!-- Title: lnInclude/makeFrontTrackingParcelSubmodels.C Pages: 1 -->
<svg width="2424pt" height="274pt"
 viewBox="0.00 0.00 2424.00 274.00" xmlns="http://www.w3.org/2000/svg" xmlns:xlink="http://www.w3.org/1999/xlink">
<g id="graph0" class="graph" transform="scale(1 1) rotate(0) translate(4 270)">
<title>lnInclude/makeFrontTrackingParcelSubmodels.C</title>
<!-- Node0 -->
<g id="node1" class="node">
<title>Node0</title>
<polygon fill="#bfbfbf" stroke="#000000" points="1032.5,-235.5 1032.5,-265.5 1175.5,-265.5 1175.5,-235.5 1032.5,-235.5"/>
<text text-anchor="start" x="1040.5" y="-253.5" font-family="Helvetica,sans-Serif" font-size="10.00" fill="#000000">lnInclude/makeFrontTracking</text>
<text text-anchor="middle" x="1104" y="-242.5" font-family="Helvetica,sans-Serif" font-size="10.00" fill="#000000">ParcelSubmodels.C</text>
</g>
<!-- Node1 -->
<g id="node2" class="node">
<title>Node1</title>
<g id="a_node2"><a xlink:href="lnInclude_2frontTrackingCloud_8H.html" target="_top" xlink:title="frontTrackingCloud.H">
<polygon fill="none" stroke="#000000" points="162,-174 162,-193 272,-193 272,-174 162,-174"/>
<text text-anchor="middle" x="217" y="-181" font-family="Helvetica,sans-Serif" font-size="10.00" fill="#000000">frontTrackingCloud.H</text>
</a>
</g>
</g>
<!-- Node0&#45;&gt;Node1 -->
<g id="edge1" class="edge">
<title>Node0&#45;&gt;Node1</title>
<path fill="none" stroke="#191970" d="M1032.2123,-247.6248C859.5947,-240.4502 424.9414,-220.7625 281,-199 274.6946,-198.0467 268.0984,-196.7729 261.6375,-195.3636"/>
<polygon fill="#191970" stroke="#191970" points="262.1878,-191.8987 251.6573,-193.0639 260.616,-198.72 262.1878,-191.8987"/>
</g>
<!-- Node50 -->
<g id="node29" class="node">
<title>Node50</title>
<polygon fill="none" stroke="#bfbfbf" points="290,-174 290,-193 466,-193 466,-174 290,-174"/>
<text text-anchor="middle" x="378" y="-181" font-family="Helvetica,sans-Serif" font-size="10.00" fill="#000000">makeParcelCloudFunctionObjects.H</text>
</g>
<!-- Node0&#45;&gt;Node50 -->
<g id="edge43" class="edge">
<title>Node0&#45;&gt;Node50</title>
<path fill="none" stroke="#191970" d="M1032.1276,-246.4162C915.1088,-239.363 676.2391,-223.2804 475,-199 464.6072,-197.7461 453.6215,-196.2023 442.9247,-194.5798"/>
<polygon fill="#191970" stroke="#191970" points="443.2048,-191.0815 432.7864,-193.007 442.1316,-197.9987 443.2048,-191.0815"/>
</g>
<!-- Node51 -->
<g id="node30" class="node">
<title>Node51</title>
<polygon fill="none" stroke="#bfbfbf" points="484.5,-174 484.5,-193 593.5,-193 593.5,-174 484.5,-174"/>
<text text-anchor="middle" x="539" y="-181" font-family="Helvetica,sans-Serif" font-size="10.00" fill="#000000">makeParcelForces.H</text>
</g>
<!-- Node0&#45;&gt;Node51 -->
<g id="edge44" class="edge">
<title>Node0&#45;&gt;Node51</title>
<path fill="none" stroke="#191970" d="M1032.4953,-246.3029C934.7393,-239.852 754.1415,-225.3881 602,-199 596.1701,-197.9888 590.08,-196.74 584.0821,-195.3936"/>
<polygon fill="#191970" stroke="#191970" points="584.6722,-191.9371 574.1371,-193.0603 583.0732,-198.752 584.6722,-191.9371"/>
</g>
<!-- Node52 -->
<g id="node31" class="node">
<title>Node52</title>
<polygon fill="none" stroke="#bfbfbf" points="611.5,-174 611.5,-193 768.5,-193 768.5,-174 611.5,-174"/>
<text text-anchor="middle" x="690" y="-181" font-family="Helvetica,sans-Serif" font-size="10.00" fill="#000000">makeParcelDispersionModels.H</text>
</g>
<!-- Node0&#45;&gt;Node52 -->
<g id="edge45" class="edge">
<title>Node0&#45;&gt;Node52</title>
<path fill="none" stroke="#191970" d="M1032.4885,-239.6607C966.1957,-229.512 864.8511,-213.7422 777,-199 769.04,-197.6642 760.6774,-196.2229 752.4138,-194.7757"/>
<polygon fill="#191970" stroke="#191970" points="752.8726,-191.3027 742.417,-193.0144 751.658,-198.1966 752.8726,-191.3027"/>
</g>
<!-- Node53 -->
<g id="node32" class="node">
<title>Node53</title>
<polygon fill="none" stroke="#bfbfbf" points="786.5,-174 786.5,-193 933.5,-193 933.5,-174 786.5,-174"/>
<text text-anchor="middle" x="860" y="-181" font-family="Helvetica,sans-Serif" font-size="10.00" fill="#000000">makeParcelInjectionModels.H</text>
</g>
<!-- Node0&#45;&gt;Node53 -->
<g id="edge46" class="edge">
<title>Node0&#45;&gt;Node53</title>
<path fill="none" stroke="#191970" d="M1049.2416,-235.4639C1005.4977,-223.4522 944.9811,-206.835 904.2637,-195.6544"/>
<polygon fill="#191970" stroke="#191970" points="905.1861,-192.2782 894.6163,-193.0053 903.3325,-199.0283 905.1861,-192.2782"/>
</g>
<!-- Node54 -->
<g id="node33" class="node">
<title>Node54</title>
<polygon fill="none" stroke="#bfbfbf" points="952,-168.5 952,-198.5 1092,-198.5 1092,-168.5 952,-168.5"/>
<text text-anchor="start" x="960" y="-186.5" font-family="Helvetica,sans-Serif" font-size="10.00" fill="#000000">makeParcelPatchInteraction</text>
<text text-anchor="middle" x="1022" y="-175.5" font-family="Helvetica,sans-Serif" font-size="10.00" fill="#000000">Models.H</text>
</g>
<!-- Node0&#45;&gt;Node54 -->
<g id="edge47" class="edge">
<title>Node0&#45;&gt;Node54</title>
<path fill="none" stroke="#191970" d="M1085.3929,-235.2967C1074.4893,-226.3876 1060.5378,-214.9882 1048.5003,-205.1527"/>
<polygon fill="#191970" stroke="#191970" points="1050.4918,-202.2601 1040.5334,-198.6432 1046.0627,-207.6808 1050.4918,-202.2601"/>
</g>
<!-- Node55 -->
<g id="node34" class="node">
<title>Node55</title>
<polygon fill="none" stroke="#bfbfbf" points="1110,-168.5 1110,-198.5 1262,-198.5 1262,-168.5 1110,-168.5"/>
<text text-anchor="start" x="1118" y="-186.5" font-family="Helvetica,sans-Serif" font-size="10.00" fill="#000000">makeParcelStochasticCollision</text>
<text text-anchor="middle" x="1186" y="-175.5" font-family="Helvetica,sans-Serif" font-size="10.00" fill="#000000">Models.H</text>
</g>
<!-- Node0&#45;&gt;Node55 -->
<g id="edge48" class="edge">
<title>Node0&#45;&gt;Node55</title>
<path fill="none" stroke="#191970" d="M1122.6071,-235.2967C1133.5107,-226.3876 1147.4622,-214.9882 1159.4997,-205.1527"/>
<polygon fill="#191970" stroke="#191970" points="1161.9373,-207.6808 1167.4666,-198.6432 1157.5082,-202.2601 1161.9373,-207.6808"/>
</g>
<!-- Node56 -->
<g id="node35" class="node">
<title>Node56</title>
<polygon fill="none" stroke="#bfbfbf" points="1280.5,-174 1280.5,-193 1443.5,-193 1443.5,-174 1280.5,-174"/>
<text text-anchor="middle" x="1362" y="-181" font-family="Helvetica,sans-Serif" font-size="10.00" fill="#000000">makeParcelSurfaceFilmModels.H</text>
</g>
<!-- Node0&#45;&gt;Node56 -->
<g id="edge49" class="edge">
<title>Node0&#45;&gt;Node56</title>
<path fill="none" stroke="#191970" d="M1161.9002,-235.4639C1208.2518,-223.4269 1272.4136,-206.7647 1315.4694,-195.5835"/>
<polygon fill="#191970" stroke="#191970" points="1316.5984,-198.9065 1325.3976,-193.0053 1314.8388,-192.1313 1316.5984,-198.9065"/>
</g>
<!-- Node57 -->
<g id="node36" class="node">
<title>Node57</title>
<g id="a_node36"><a xlink:href="lnInclude_2makeFrontTrackingParcelSurfaceTensionModels_8H.html" target="_top" xlink:title="makeFrontTrackingParcelSurface\lTensionModels.H">
<polygon fill="none" stroke="#000000" points="1641,-168.5 1641,-198.5 1803,-198.5 1803,-168.5 1641,-168.5"/>
<text text-anchor="start" x="1649" y="-186.5" font-family="Helvetica,sans-Serif" font-size="10.00" fill="#000000">makeFrontTrackingParcelSurface</text>
<text text-anchor="middle" x="1722" y="-175.5" font-family="Helvetica,sans-Serif" font-size="10.00" fill="#000000">TensionModels.H</text>
</a>
</g>
</g>
<!-- Node0&#45;&gt;Node57 -->
<g id="edge50" class="edge">
<title>Node0&#45;&gt;Node57</title>
<path fill="none" stroke="#191970" d="M1175.7888,-245.1166C1275.3999,-237.2833 1461.3696,-221.3473 1630.5873,-198.9905"/>
<polygon fill="#191970" stroke="#191970" points="1631.2286,-202.4361 1640.6792,-197.6468 1630.3047,-195.4973 1631.2286,-202.4361"/>
</g>
<!-- Node61 -->
<g id="node39" class="node">
<title>Node61</title>
<g id="a_node39"><a xlink:href="lnInclude_2makeFrontTrackingParcelFrontToFieldModels_8H.html" target="_top" xlink:title="makeFrontTrackingParcelFront\lToFieldModels.H">
<polygon fill="none" stroke="#000000" points="2192.5,-168.5 2192.5,-198.5 2343.5,-198.5 2343.5,-168.5 2192.5,-168.5"/>
<text text-anchor="start" x="2200.5" y="-186.5" font-family="Helvetica,sans-Serif" font-size="10.00" fill="#000000">makeFrontTrackingParcelFront</text>
<text text-anchor="middle" x="2268" y="-175.5" font-family="Helvetica,sans-Serif" font-size="10.00" fill="#000000">ToFieldModels.H</text>
</a>
</g>
</g>
<!-- Node0&#45;&gt;Node61 -->
<g id="edge54" class="edge">
<title>Node0&#45;&gt;Node61</title>
<path fill="none" stroke="#191970" d="M1175.6201,-246.461C1328.2653,-237.8416 1696.9346,-216.9653 2006,-199 2064.8512,-195.5791 2131.1338,-191.6572 2182.306,-188.6143"/>
<polygon fill="#191970" stroke="#191970" points="2182.5578,-192.1056 2192.3323,-188.0178 2182.142,-185.1179 2182.5578,-192.1056"/>
</g>
<!-- Node65 -->
<g id="node43" class="node">
<title>Node65</title>
<g id="a_node43"><a xlink:href="lnInclude_2makeFrontTrackingParcelVolumeCorrectionModels_8H.html" target="_top" xlink:title="makeFrontTrackingParcelVolume\lCorrectionModels.H">
<polygon fill="none" stroke="#000000" points="1461.5,-168.5 1461.5,-198.5 1622.5,-198.5 1622.5,-168.5 1461.5,-168.5"/>
<text text-anchor="start" x="1469.5" y="-186.5" font-family="Helvetica,sans-Serif" font-size="10.00" fill="#000000">makeFrontTrackingParcelVolume</text>
<text text-anchor="middle" x="1542" y="-175.5" font-family="Helvetica,sans-Serif" font-size="10.00" fill="#000000">CorrectionModels.H</text>
</a>
</g>
</g>
<!-- Node0&#45;&gt;Node65 -->
<g id="edge60" class="edge">
<title>Node0&#45;&gt;Node65</title>
<path fill="none" stroke="#191970" d="M1175.7236,-240.3906C1243.8692,-230.6703 1349.4887,-215.307 1450.9422,-199.1488"/>
<polygon fill="#191970" stroke="#191970" points="1451.7393,-202.566 1461.062,-197.5322 1450.635,-195.6536 1451.7393,-202.566"/>
</g>
<!-- Node69 -->
<g id="node46" class="node">
<title>Node69</title>
<g id="a_node46"><a xlink:href="lnInclude_2makeFrontTrackingParcelUndulationRemovalModels_8H.html" target="_top" xlink:title="makeFrontTrackingParcelUndulation\lRemovalModels.H">
<polygon fill="none" stroke="#000000" points="1821.5,-168.5 1821.5,-198.5 1996.5,-198.5 1996.5,-168.5 1821.5,-168.5"/>
<text text-anchor="start" x="1829.5" y="-186.5" font-family="Helvetica,sans-Serif" font-size="10.00" fill="#000000">makeFrontTrackingParcelUndulation</text>
<text text-anchor="middle" x="1909" y="-175.5" font-family="Helvetica,sans-Serif" font-size="10.00" fill="#000000">RemovalModels.H</text>
</a>
</g>
</g>
<!-- Node0&#45;&gt;Node69 -->
<g id="edge64" class="edge">
<title>Node0&#45;&gt;Node69</title>
<path fill="none" stroke="#191970" d="M1175.5414,-247.33C1301.7175,-241.2928 1572.2141,-226.3529 1811.0081,-199.0476"/>
<polygon fill="#191970" stroke="#191970" points="1811.7446,-202.486 1821.2778,-197.8633 1810.9426,-195.532 1811.7446,-202.486"/>
</g>
<!-- Node2 -->
<g id="node3" class="node">
<title>Node2</title>
<polygon fill="none" stroke="#bfbfbf" points="228.5,-112.5 228.5,-131.5 331.5,-131.5 331.5,-112.5 228.5,-112.5"/>
<text text-anchor="middle" x="280" y="-119.5" font-family="Helvetica,sans-Serif" font-size="10.00" fill="#000000">ParcelCloudBase.H</text>
</g>
<!-- Node1&#45;&gt;Node2 -->
<g id="edge2" class="edge">
<title>Node1&#45;&gt;Node2</title>
<path fill="none" stroke="#191970" d="M226.8438,-173.8906C236.4039,-164.5581 251.1223,-150.1902 262.6495,-138.9374"/>
<polygon fill="#191970" stroke="#191970" points="265.3066,-141.2348 270.0175,-131.7449 260.4168,-136.2257 265.3066,-141.2348"/>
</g>
<!-- Node3 -->
<g id="node4" class="node">
<title>Node3</title>
<polygon fill="none" stroke="#bfbfbf" points="349.5,-112.5 349.5,-131.5 450.5,-131.5 450.5,-112.5 349.5,-112.5"/>
<text text-anchor="middle" x="400" y="-119.5" font-family="Helvetica,sans-Serif" font-size="10.00" fill="#000000">MomentumCloud.H</text>
</g>
<!-- Node1&#45;&gt;Node3 -->
<g id="edge3" class="edge">
<title>Node1&#45;&gt;Node3</title>
<path fill="none" stroke="#191970" d="M245.5938,-173.8906C276.8845,-163.3749 327.1986,-146.466 361.84,-134.8243"/>
<polygon fill="#191970" stroke="#191970" points="363.243,-138.0452 371.607,-131.5419 361.013,-131.4099 363.243,-138.0452"/>
</g>
<!-- Node4 -->
<g id="node5" class="node">
<title>Node4</title>
<g id="a_node5"><a xlink:href="lnInclude_2FrontTrackingCloud_8H.html" target="_top" xlink:title="FrontTrackingCloud.H">
<polygon fill="none" stroke="#ff0000" points="1199.5,-112.5 1199.5,-131.5 1312.5,-131.5 1312.5,-112.5 1199.5,-112.5"/>
<text text-anchor="middle" x="1256" y="-119.5" font-family="Helvetica,sans-Serif" font-size="10.00" fill="#000000">FrontTrackingCloud.H</text>
</a>
</g>
</g>
<!-- Node1&#45;&gt;Node4 -->
<g id="edge4" class="edge">
<title>Node1&#45;&gt;Node4</title>
<path fill="none" stroke="#191970" d="M250.977,-173.9989C260.6093,-171.6536 271.1545,-169.4113 281,-168 456.935,-142.78 999.1746,-128.0055 1189.2965,-123.4914"/>
<polygon fill="#191970" stroke="#191970" points="1189.5138,-126.9874 1199.4285,-123.2527 1189.3488,-119.9893 1189.5138,-126.9874"/>
</g>
<!-- Node39 -->
<g id="node27" class="node">
<title>Node39</title>
<polygon fill="none" stroke="#bfbfbf" points="0,-112.5 0,-131.5 80,-131.5 80,-112.5 0,-112.5"/>
<text text-anchor="middle" x="40" y="-119.5" font-family="Helvetica,sans-Serif" font-size="10.00" fill="#000000">ParcelCloud.H</text>
</g>
<!-- Node1&#45;&gt;Node39 -->
<g id="edge41" class="edge">
<title>Node1&#45;&gt;Node39</title>
<path fill="none" stroke="#191970" d="M189.3438,-173.8906C159.0789,-163.3749 110.4145,-146.466 76.9089,-134.8243"/>
<polygon fill="#191970" stroke="#191970" points="78.0569,-131.5179 67.462,-131.5419 75.7593,-138.1302 78.0569,-131.5179"/>
</g>
<!-- Node40 -->
<g id="node28" class="node">
<title>Node40</title>
<g id="a_node28"><a xlink:href="lnInclude_2frontTrackingParcel_8H.html" target="_top" xlink:title="frontTrackingParcel.H">
<polygon fill="none" stroke="#ff0000" points="98,-112.5 98,-131.5 210,-131.5 210,-112.5 98,-112.5"/>
<text text-anchor="middle" x="154" y="-119.5" font-family="Helvetica,sans-Serif" font-size="10.00" fill="#000000">frontTrackingParcel.H</text>
</a>
</g>
</g>
<!-- Node1&#45;&gt;Node40 -->
<g id="edge42" class="edge">
<title>Node1&#45;&gt;Node40</title>
<path fill="none" stroke="#191970" d="M207.1563,-173.8906C197.5961,-164.5581 182.8777,-150.1902 171.3505,-138.9374"/>
<polygon fill="#191970" stroke="#191970" points="173.5832,-136.2257 163.9825,-131.7449 168.6934,-141.2348 173.5832,-136.2257"/>
</g>
<!-- Node5 -->
<g id="node6" class="node">
<title>Node5</title>
<polygon fill="none" stroke="#bfbfbf" points="1303.5,-56.5 1303.5,-75.5 1388.5,-75.5 1388.5,-56.5 1303.5,-56.5"/>
<text text-anchor="middle" x="1346" y="-63.5" font-family="Helvetica,sans-Serif" font-size="10.00" fill="#000000">volFieldsFwd.H</text>
</g>
<!-- Node4&#45;&gt;Node5 -->
<g id="edge5" class="edge">
<title>Node4&#45;&gt;Node5</title>
<path fill="none" stroke="#191970" d="M1271.6768,-112.2455C1285.4856,-103.6534 1305.8193,-91.0014 1321.7292,-81.1018"/>
<polygon fill="#191970" stroke="#191970" points="1323.8613,-83.8974 1330.5028,-75.6427 1320.1632,-77.954 1323.8613,-83.8974"/>
</g>
<!-- Node6 -->
<g id="node7" class="node">
<title>Node6</title>
<polygon fill="none" stroke="#bfbfbf" points="1407,-56.5 1407,-75.5 1499,-75.5 1499,-56.5 1407,-56.5"/>
<text text-anchor="middle" x="1453" y="-63.5" font-family="Helvetica,sans-Serif" font-size="10.00" fill="#000000">fvMatricesFwd.H</text>
</g>
<!-- Node4&#45;&gt;Node6 -->
<g id="edge6" class="edge">
<title>Node4&#45;&gt;Node6</title>
<path fill="none" stroke="#191970" d="M1289.8655,-112.3733C1323.049,-102.9404 1373.755,-88.5265 1409.8194,-78.2747"/>
<polygon fill="#191970" stroke="#191970" points="1410.9145,-81.6021 1419.5764,-75.5011 1409.0005,-74.8689 1410.9145,-81.6021"/>
</g>
<!-- Node7 -->
<g id="node8" class="node">
<title>Node7</title>
<polygon fill="none" stroke="#bfbfbf" points="1555.5,-56.5 1555.5,-75.5 1664.5,-75.5 1664.5,-56.5 1555.5,-56.5"/>
<text text-anchor="middle" x="1610" y="-63.5" font-family="Helvetica,sans-Serif" font-size="10.00" fill="#000000">dimensionedTypes.H</text>
</g>
<!-- Node4&#45;&gt;Node7 -->
<g id="edge7" class="edge">
<title>Node4&#45;&gt;Node7</title>
<path fill="none" stroke="#191970" d="M1312.8762,-113.0026C1376.3615,-102.9598 1478.8842,-86.7415 1545.3592,-76.2257"/>
<polygon fill="#191970" stroke="#191970" points="1545.9712,-79.6725 1555.3015,-74.6529 1544.8774,-72.7584 1545.9712,-79.6725"/>
</g>
<!-- Node8 -->
<g id="node9" class="node">
<title>Node8</title>
<polygon fill="none" stroke="#bfbfbf" points="830.5,-.5 830.5,-19.5 889.5,-19.5 889.5,-.5 830.5,-.5"/>
<text text-anchor="middle" x="860" y="-7.5" font-family="Helvetica,sans-Serif" font-size="10.00" fill="#000000">fvMesh.H</text>
</g>
<!-- Node4&#45;&gt;Node8 -->
<g id="edge8" class="edge">
<title>Node4&#45;&gt;Node8</title>
<path fill="none" stroke="#191970" d="M1199.4871,-119.5247C1095.4541,-114.3849 882.1809,-100.9066 860,-76 849.0693,-63.7261 850.3876,-44.4864 853.6602,-29.9401"/>
<polygon fill="#191970" stroke="#191970" points="857.1369,-30.4917 856.3732,-19.9244 850.3804,-28.6615 857.1369,-30.4917"/>
</g>
<!-- Node9 -->
<g id="node10" class="node">
<title>Node9</title>
<polygon fill="none" stroke="#bfbfbf" points="869,-56.5 869,-75.5 947,-75.5 947,-56.5 869,-56.5"/>
<text text-anchor="middle" x="908" y="-63.5" font-family="Helvetica,sans-Serif" font-size="10.00" fill="#000000">fluidThermo.H</text>
</g>
<!-- Node4&#45;&gt;Node9 -->
<g id="edge9" class="edge">
<title>Node4&#45;&gt;Node9</title>
<path fill="none" stroke="#191970" d="M1199.4529,-114.2453C1141.1559,-106.0443 1047.3988,-92.2829 957.1131,-76.1315"/>
<polygon fill="#191970" stroke="#191970" points="957.7217,-72.6849 947.2596,-74.3566 956.4807,-79.574 957.7217,-72.6849"/>
</g>
<!-- Node10 -->
<g id="node11" class="node">
<title>Node10</title>
<polygon fill="none" stroke="#bfbfbf" points="965.5,-56.5 965.5,-75.5 1018.5,-75.5 1018.5,-56.5 965.5,-56.5"/>
<text text-anchor="middle" x="992" y="-63.5" font-family="Helvetica,sans-Serif" font-size="10.00" fill="#000000">Cloud.H</text>
</g>
<!-- Node4&#45;&gt;Node10 -->
<g id="edge10" class="edge">
<title>Node4&#45;&gt;Node10</title>
<path fill="none" stroke="#191970" d="M1207.17,-112.4505C1161.9183,-103.4768 1092.7775,-89.4508 1033,-76 1031.5704,-75.6783 1030.1139,-75.3459 1028.6435,-75.0063"/>
<polygon fill="#191970" stroke="#191970" points="1029.4105,-71.5912 1018.8739,-72.7004 1027.8025,-78.404 1029.4105,-71.5912"/>
</g>
<!-- Node11 -->
<g id="node12" class="node">
<title>Node11</title>
<g id="a_node12"><a xlink:href="lnInclude_2bubbleData_8H.html" target="_top" xlink:title="bubbleData.H">
<polygon fill="none" stroke="#ff0000" points="1759.5,-56.5 1759.5,-75.5 1836.5,-75.5 1836.5,-56.5 1759.5,-56.5"/>
<text text-anchor="middle" x="1798" y="-63.5" font-family="Helvetica,sans-Serif" font-size="10.00" fill="#000000">bubbleData.H</text>
</a>
</g>
</g>
<!-- Node4&#45;&gt;Node11 -->
<g id="edge11" class="edge">
<title>Node4&#45;&gt;Node11</title>
<path fill="none" stroke="#191970" d="M1312.6893,-113.0466C1315.497,-112.6759 1318.2791,-112.3244 1321,-112 1508.7922,-89.6084 1557.6135,-101.5655 1745,-76 1746.4497,-75.8022 1747.9198,-75.5913 1749.4025,-75.3697"/>
<polygon fill="#191970" stroke="#191970" points="1749.972,-78.8231 1759.287,-73.7752 1748.8572,-71.9125 1749.972,-78.8231"/>
</g>
<!-- Node12 -->
<g id="node13" class="node">
<title>Node12</title>
<polygon fill="none" stroke="#bfbfbf" points="925,-.5 925,-19.5 991,-19.5 991,-.5 925,-.5"/>
<text text-anchor="middle" x="958" y="-7.5" font-family="Helvetica,sans-Serif" font-size="10.00" fill="#000000">fileName.H</text>
</g>
<!-- Node4&#45;&gt;Node12 -->
<g id="edge27" class="edge">
<title>Node4&#45;&gt;Node12</title>
<path fill="none" stroke="#191970" d="M1230.5927,-112.4509C1177.2611,-92.4069 1053.5733,-45.9202 992.8721,-23.1063"/>
<polygon fill="#191970" stroke="#191970" points="993.9351,-19.7668 983.343,-19.5249 991.4724,-26.3193 993.9351,-19.7668"/>
</g>
<!-- Node13 -->
<g id="node14" class="node">
<title>Node13</title>
<polygon fill="none" stroke="#bfbfbf" points="1009.5,-.5 1009.5,-19.5 1078.5,-19.5 1078.5,-.5 1009.5,-.5"/>
<text text-anchor="middle" x="1044" y="-7.5" font-family="Helvetica,sans-Serif" font-size="10.00" fill="#000000">pointField.H</text>
</g>
<!-- Node4&#45;&gt;Node13 -->
<g id="edge28" class="edge">
<title>Node4&#45;&gt;Node13</title>
<path fill="none" stroke="#191970" d="M1237.925,-112.4509C1200.6102,-92.7375 1114.881,-47.4465 1070.9814,-24.2543"/>
<polygon fill="#191970" stroke="#191970" points="1072.5061,-21.1015 1062.0293,-19.5249 1069.2363,-27.2908 1072.5061,-21.1015"/>
</g>
<!-- Node14 -->
<g id="node15" class="node">
<title>Node14</title>
<polygon fill="none" stroke="#bfbfbf" points="1097,-.5 1097,-19.5 1145,-19.5 1145,-.5 1097,-.5"/>
<text text-anchor="middle" x="1121" y="-7.5" font-family="Helvetica,sans-Serif" font-size="10.00" fill="#000000">point.H</text>
</g>
<!-- Node4&#45;&gt;Node14 -->
<g id="edge29" class="edge">
<title>Node4&#45;&gt;Node14</title>
<path fill="none" stroke="#191970" d="M1244.49,-112.4509C1221.3758,-93.2747 1169.0892,-49.8962 1140.5254,-26.1988"/>
<polygon fill="#191970" stroke="#191970" points="1142.4119,-23.2162 1132.4809,-19.5249 1137.9424,-28.6036 1142.4119,-23.2162"/>
</g>
<!-- Node15 -->
<g id="node16" class="node">
<title>Node15</title>
<polygon fill="none" stroke="#bfbfbf" points="1163,-.5 1163,-19.5 1219,-19.5 1219,-.5 1163,-.5"/>
<text text-anchor="middle" x="1191" y="-7.5" font-family="Helvetica,sans-Serif" font-size="10.00" fill="#000000">DLList.H</text>
</g>
<!-- Node4&#45;&gt;Node15 -->
<g id="edge30" class="edge">
<title>Node4&#45;&gt;Node15</title>
<path fill="none" stroke="#191970" d="M1245.9662,-112.1543C1237.3888,-103.3124 1225.172,-89.6561 1217,-76 1208.2177,-61.324 1201.3125,-43.1481 1196.8322,-29.5885"/>
<polygon fill="#191970" stroke="#191970" points="1200.1106,-28.3463 1193.7695,-19.8586 1193.4336,-30.4481 1200.1106,-28.3463"/>
</g>
<!-- Node16 -->
<g id="node17" class="node">
<title>Node16</title>
<polygon fill="none" stroke="#bfbfbf" points="1237.5,-.5 1237.5,-19.5 1322.5,-19.5 1322.5,-.5 1237.5,-.5"/>
<text text-anchor="middle" x="1280" y="-7.5" font-family="Helvetica,sans-Serif" font-size="10.00" fill="#000000">sphereToCell.H</text>
</g>
<!-- Node4&#45;&gt;Node16 -->
<g id="edge31" class="edge">
<title>Node4&#45;&gt;Node16</title>
<path fill="none" stroke="#191970" d="M1245.0527,-112.2135C1232.0867,-99.3742 1213.3867,-76.1113 1223,-56 1229.1448,-43.1449 1240.8299,-32.7306 1252.0285,-25.0832"/>
<polygon fill="#191970" stroke="#191970" points="1254.2041,-27.8488 1260.79,-19.5495 1250.4661,-21.9304 1254.2041,-27.8488"/>
</g>
<!-- Node17 -->
<g id="node18" class="node">
<title>Node17</title>
<polygon fill="none" stroke="#bfbfbf" points="1340.5,-.5 1340.5,-19.5 1397.5,-19.5 1397.5,-.5 1340.5,-.5"/>
<text text-anchor="middle" x="1369" y="-7.5" font-family="Helvetica,sans-Serif" font-size="10.00" fill="#000000">cellSet.H</text>
</g>
<!-- Node4&#45;&gt;Node17 -->
<g id="edge32" class="edge">
<title>Node4&#45;&gt;Node17</title>
<path fill="none" stroke="#191970" d="M1253.8744,-112.4482C1251.3735,-98.6114 1248.9502,-72.8118 1261,-56 1269.6178,-43.9765 1303.192,-30.797 1330.6469,-21.639"/>
<polygon fill="#191970" stroke="#191970" points="1332.0011,-24.8791 1340.4274,-18.4566 1329.8352,-18.2226 1332.0011,-24.8791"/>
</g>
<!-- Node18 -->
<g id="node19" class="node">
<title>Node18</title>
<polygon fill="none" stroke="#bfbfbf" points="1415.5,-.5 1415.5,-19.5 1498.5,-19.5 1498.5,-.5 1415.5,-.5"/>
<text text-anchor="middle" x="1457" y="-7.5" font-family="Helvetica,sans-Serif" font-size="10.00" fill="#000000">simpleMatrix.H</text>
</g>
<!-- Node4&#45;&gt;Node18 -->
<g id="edge33" class="edge">
<title>Node4&#45;&gt;Node18</title>
<path fill="none" stroke="#191970" d="M1258.9309,-112.3505C1263.8181,-97.907 1275.0153,-70.7866 1294,-56 1311.4125,-42.4379 1364.4558,-28.9633 1405.3533,-20.1373"/>
<polygon fill="#191970" stroke="#191970" points="1406.1381,-23.5488 1415.1951,-18.0515 1404.6867,-16.7009 1406.1381,-23.5488"/>
</g>
<!-- Node19 -->
<g id="node20" class="node">
<title>Node19</title>
<polygon fill="none" stroke="#bfbfbf" points="1516.5,-.5 1516.5,-19.5 1647.5,-19.5 1647.5,-.5 1516.5,-.5"/>
<text text-anchor="middle" x="1582" y="-7.5" font-family="Helvetica,sans-Serif" font-size="10.00" fill="#000000">mathematicalConstants.H</text>
</g>
<!-- Node4&#45;&gt;Node19 -->
<g id="edge34" class="edge">
<title>Node4&#45;&gt;Node19</title>
<path fill="none" stroke="#191970" d="M1312.4824,-112.4854C1384.0534,-100.3121 1499.2339,-80.2825 1508,-76 1531.7523,-64.3961 1553.6358,-42.9651 1567.3459,-27.672"/>
<polygon fill="#191970" stroke="#191970" points="1570.1717,-29.7557 1574.0816,-19.9087 1564.8844,-25.1682 1570.1717,-29.7557"/>
</g>
<!-- Node20 -->
<g id="node21" class="node">
<title>Node20</title>
<polygon fill="none" stroke="#bfbfbf" points="1666,-.5 1666,-19.5 1722,-19.5 1722,-.5 1666,-.5"/>
<text text-anchor="middle" x="1694" y="-7.5" font-family="Helvetica,sans-Serif" font-size="10.00" fill="#000000">fvCFD.H</text>
</g>
<!-- Node4&#45;&gt;Node20 -->
<g id="edge35" class="edge">
<title>Node4&#45;&gt;Node20</title>
<path fill="none" stroke="#191970" d="M1312.6964,-113.1042C1315.5023,-112.7184 1318.282,-112.3478 1321,-112 1398.9942,-102.0186 1611.9747,-125.5845 1673,-76 1686.5346,-65.0028 1691.4737,-45.2831 1693.2126,-30.2535"/>
<polygon fill="#191970" stroke="#191970" points="1696.7319,-30.1354 1694.0079,-19.8967 1689.7525,-29.5994 1696.7319,-30.1354"/>
</g>
<!-- Node21 -->
<g id="node22" class="node">
<title>Node21</title>
<polygon fill="none" stroke="#bfbfbf" points="1740,-.5 1740,-19.5 1806,-19.5 1806,-.5 1740,-.5"/>
<text text-anchor="middle" x="1773" y="-7.5" font-family="Helvetica,sans-Serif" font-size="10.00" fill="#000000">IFstream.H</text>
</g>
<!-- Node4&#45;&gt;Node21 -->
<g id="edge36" class="edge">
<title>Node4&#45;&gt;Node21</title>
<path fill="none" stroke="#191970" d="M1312.694,-113.0851C1315.5005,-112.7043 1318.281,-112.3401 1321,-112 1486.2604,-91.3294 1540.3472,-140.258 1694,-76 1719.8347,-65.1958 1743.6395,-42.8925 1758.221,-27.2138"/>
<polygon fill="#191970" stroke="#191970" points="1760.8813,-29.4899 1764.9674,-19.7147 1755.6772,-24.8082 1760.8813,-29.4899"/>
</g>
<!-- Node22 -->
<g id="node23" class="node">
<title>Node22</title>
<polygon fill="none" stroke="#bfbfbf" points="1824.5,-.5 1824.5,-19.5 1895.5,-19.5 1895.5,-.5 1824.5,-.5"/>
<text text-anchor="middle" x="1860" y="-7.5" font-family="Helvetica,sans-Serif" font-size="10.00" fill="#000000">OFstream.H</text>
</g>
<!-- Node4&#45;&gt;Node22 -->
<g id="edge37" class="edge">
<title>Node4&#45;&gt;Node22</title>
<path fill="none" stroke="#191970" d="M1312.683,-112.9921C1315.4924,-112.6359 1318.2765,-112.3023 1321,-112 1379.1133,-105.5489 1801.854,-114.3394 1846,-76 1858.8261,-64.8609 1861.6129,-45.16 1861.6189,-30.1735"/>
<polygon fill="#191970" stroke="#191970" points="1865.1028,-29.7025 1861.2016,-19.8521 1858.1085,-29.9853 1865.1028,-29.7025"/>
</g>
<!-- Node23 -->
<g id="node24" class="node">
<title>Node23</title>
<polygon fill="none" stroke="#bfbfbf" points="1913.5,-.5 1913.5,-19.5 2000.5,-19.5 2000.5,-.5 1913.5,-.5"/>
<text text-anchor="middle" x="1957" y="-7.5" font-family="Helvetica,sans-Serif" font-size="10.00" fill="#000000">IStringStream.H</text>
</g>
<!-- Node4&#45;&gt;Node23 -->
<g id="edge38" class="edge">
<title>Node4&#45;&gt;Node23</title>
<path fill="none" stroke="#191970" d="M1312.6821,-112.9837C1315.4917,-112.6297 1318.2762,-112.2989 1321,-112 1441.6507,-98.7596 1751.8479,-117.2455 1866,-76 1895.0238,-65.5131 1922.9117,-42.8007 1939.9936,-26.9665"/>
<polygon fill="#191970" stroke="#191970" points="1942.6528,-29.2667 1947.4688,-19.8297 1937.819,-24.2036 1942.6528,-29.2667"/>
</g>
<!-- Node24 -->
<g id="node25" class="node">
<title>Node24</title>
<polygon fill="none" stroke="#bfbfbf" points="2019,-.5 2019,-19.5 2111,-19.5 2111,-.5 2019,-.5"/>
<text text-anchor="middle" x="2065" y="-7.5" font-family="Helvetica,sans-Serif" font-size="10.00" fill="#000000">OStringStream.H</text>
</g>
<!-- Node4&#45;&gt;Node24 -->
<g id="edge39" class="edge">
<title>Node4&#45;&gt;Node24</title>
<path fill="none" stroke="#191970" d="M1312.6808,-112.9718C1315.4908,-112.6209 1318.2756,-112.2941 1321,-112 1576.0179,-84.4707 1646.5922,-131.5693 1897,-76 1948.2902,-64.6179 2004.4555,-39.8366 2037.1119,-24.0884"/>
<polygon fill="#191970" stroke="#191970" points="2039.0153,-27.0537 2046.4605,-19.5159 2035.9396,-20.7656 2039.0153,-27.0537"/>
</g>
<!-- Node25 -->
<g id="node26" class="node">
<title>Node25</title>
<polygon fill="none" stroke="#bfbfbf" points="2129,-.5 2129,-19.5 2179,-19.5 2179,-.5 2129,-.5"/>
<text text-anchor="middle" x="2154" y="-7.5" font-family="Helvetica,sans-Serif" font-size="10.00" fill="#000000">fstream</text>
</g>
<!-- Node4&#45;&gt;Node25 -->
<g id="edge40" class="edge">
<title>Node4&#45;&gt;Node25</title>
<path fill="none" stroke="#191970" d="M1312.6792,-112.957C1315.4896,-112.61 1318.275,-112.2881 1321,-112 1595.4901,-82.9821 1669.4022,-125.2088 1941,-76 2005.929,-64.236 2078.8201,-38.8794 2120.2881,-23.2453"/>
<polygon fill="#191970" stroke="#191970" points="2121.7841,-26.4208 2129.8825,-19.5894 2119.2916,-19.8796 2121.7841,-26.4208"/>
</g>
<!-- Node11&#45;&gt;Node8 -->
<g id="edge12" class="edge">
<title>Node11&#45;&gt;Node8</title>
<path fill="none" stroke="#191970" d="M1759.4503,-62.5925C1734.7519,-60.4894 1702.005,-57.8494 1673,-56 1336.8579,-34.5671 1250.71,-57.6839 916,-20 910.7372,-19.4075 905.2221,-18.6244 899.7912,-17.7566"/>
<polygon fill="#191970" stroke="#191970" points="899.9853,-14.2394 889.5397,-16.0112 898.8103,-21.1401 899.9853,-14.2394"/>
</g>
<!-- Node11&#45;&gt;Node12 -->
<g id="edge13" class="edge">
<title>Node11&#45;&gt;Node12</title>
<path fill="none" stroke="#191970" d="M1759.4465,-62.6515C1734.7466,-60.5716 1701.9994,-57.9353 1673,-56 1377.4825,-36.2789 1298.2284,-62.2675 1001.5594,-19.985"/>
<polygon fill="#191970" stroke="#191970" points="1001.7626,-16.4783 991.3659,-18.5177 1000.7652,-23.4069 1001.7626,-16.4783"/>
</g>
<!-- Node11&#45;&gt;Node13 -->
<g id="edge14" class="edge">
<title>Node11&#45;&gt;Node13</title>
<path fill="none" stroke="#191970" d="M1759.441,-62.7313C1734.7389,-60.6828 1701.9914,-58.0515 1673,-56 1416.4567,-37.8462 1347.5926,-56.5007 1089.0378,-19.9235"/>
<polygon fill="#191970" stroke="#191970" points="1089.3636,-16.4346 1078.969,-18.4849 1088.3734,-23.3642 1089.3636,-16.4346"/>
</g>
<!-- Node11&#45;&gt;Node14 -->
<g id="edge15" class="edge">
<title>Node11&#45;&gt;Node14</title>
<path fill="none" stroke="#191970" d="M1759.4353,-62.8089C1734.7311,-60.7909 1701.9832,-58.1645 1673,-56 1445.6862,-39.0242 1383.1745,-61.1484 1155.2809,-19.8669"/>
<polygon fill="#191970" stroke="#191970" points="1155.8246,-16.4084 1145.3575,-18.0486 1154.5628,-23.2937 1155.8246,-16.4084"/>
</g>
<!-- Node11&#45;&gt;Node15 -->
<g id="edge16" class="edge">
<title>Node11&#45;&gt;Node15</title>
<path fill="none" stroke="#191970" d="M1759.0744,-62.8822C1641.3432,-53.4497 1293.5746,-25.5659 1229.1942,-19.3011"/>
<polygon fill="#191970" stroke="#191970" points="1229.4884,-15.8123 1219.1622,-18.1829 1228.7129,-22.7692 1229.4884,-15.8123"/>
</g>
<!-- Node11&#45;&gt;Node16 -->
<g id="edge17" class="edge">
<title>Node11&#45;&gt;Node16</title>
<path fill="none" stroke="#191970" d="M1759.2659,-62.6653C1666.1656,-54.5754 1430.8545,-33.6665 1332.6947,-20.1054"/>
<polygon fill="#191970" stroke="#191970" points="1332.9188,-16.6019 1322.5245,-18.6532 1331.9293,-23.5317 1332.9188,-16.6019"/>
</g>
<!-- Node11&#45;&gt;Node17 -->
<g id="edge18" class="edge">
<title>Node11&#45;&gt;Node17</title>
<path fill="none" stroke="#191970" d="M1759.2732,-62.1892C1677.6811,-54.0457 1489.4928,-34.6322 1407.5063,-20.0195"/>
<polygon fill="#191970" stroke="#191970" points="1408.0579,-16.5621 1397.5861,-18.1721 1406.7763,-23.4438 1408.0579,-16.5621"/>
</g>
<!-- Node11&#45;&gt;Node18 -->
<g id="edge19" class="edge">
<title>Node11&#45;&gt;Node18</title>
<path fill="none" stroke="#191970" d="M1759.3175,-60.3961C1705.395,-52.4725 1604.3352,-37.2175 1508.8338,-20.2796"/>
<polygon fill="#191970" stroke="#191970" points="1509.1771,-16.7857 1498.7178,-18.4753 1507.9479,-23.6769 1509.1771,-16.7857"/>
</g>
<!-- Node11&#45;&gt;Node19 -->
<g id="edge20" class="edge">
<title>Node11&#45;&gt;Node19</title>
<path fill="none" stroke="#191970" d="M1760.8683,-56.3733C1724.1733,-46.8598 1667.9361,-32.2797 1628.3349,-22.0127"/>
<polygon fill="#191970" stroke="#191970" points="1629.2056,-18.6228 1618.6472,-19.5011 1627.4488,-25.3988 1629.2056,-18.6228"/>
</g>
<!-- Node11&#45;&gt;Node20 -->
<g id="edge21" class="edge">
<title>Node11&#45;&gt;Node20</title>
<path fill="none" stroke="#191970" d="M1779.8846,-56.2455C1763.555,-47.4527 1739.329,-34.4079 1720.7661,-24.4125"/>
<polygon fill="#191970" stroke="#191970" points="1722.3719,-21.3021 1711.9078,-19.6427 1719.0532,-27.4654 1722.3719,-21.3021"/>
</g>
<!-- Node11&#45;&gt;Node21 -->
<g id="edge22" class="edge">
<title>Node11&#45;&gt;Node21</title>
<path fill="none" stroke="#191970" d="M1793.6453,-56.2455C1790.2756,-48.6973 1785.507,-38.0158 1781.4017,-28.8197"/>
<polygon fill="#191970" stroke="#191970" points="1784.5773,-27.3473 1777.3048,-19.6427 1778.1853,-30.2009 1784.5773,-27.3473"/>
</g>
<!-- Node11&#45;&gt;Node22 -->
<g id="edge23" class="edge">
<title>Node11&#45;&gt;Node22</title>
<path fill="none" stroke="#191970" d="M1808.7996,-56.2455C1817.8678,-48.0549 1831.0206,-36.1749 1841.7245,-26.5069"/>
<polygon fill="#191970" stroke="#191970" points="1844.2491,-28.9429 1849.3242,-19.6427 1839.5571,-23.7482 1844.2491,-28.9429"/>
</g>
<!-- Node11&#45;&gt;Node23 -->
<g id="edge24" class="edge">
<title>Node11&#45;&gt;Node23</title>
<path fill="none" stroke="#191970" d="M1825.3331,-56.3733C1851.5434,-47.1419 1891.2984,-33.1402 1920.2668,-22.9375"/>
<polygon fill="#191970" stroke="#191970" points="1921.7542,-26.1244 1930.0236,-19.5011 1919.4288,-19.5219 1921.7542,-26.1244"/>
</g>
<!-- Node11&#45;&gt;Node24 -->
<g id="edge25" class="edge">
<title>Node11&#45;&gt;Node24</title>
<path fill="none" stroke="#191970" d="M1836.5389,-57.9169C1881.8943,-48.4042 1957.569,-32.5323 2009.3015,-21.6821"/>
<polygon fill="#191970" stroke="#191970" points="2010.2441,-25.0606 2019.3127,-19.5824 2008.8071,-18.2097 2010.2441,-25.0606"/>
</g>
<!-- Node11&#45;&gt;Node25 -->
<g id="edge26" class="edge">
<title>Node11&#45;&gt;Node25</title>
<path fill="none" stroke="#191970" d="M1836.6599,-61.1878C1906.2425,-52.415 2050.9165,-33.6391 2118.664,-19.9809"/>
<polygon fill="#191970" stroke="#191970" points="2119.7892,-23.3208 2128.8533,-17.8351 2118.3467,-16.4711 2119.7892,-23.3208"/>
</g>
<!-- Node58 -->
<g id="node37" class="node">
<title>Node58</title>
<g id="a_node37"><a xlink:href="lnInclude_2NoSurfaceTension_8H.html" target="_top" xlink:title="NoSurfaceTension.H">
<polygon fill="none" stroke="#ff0000" points="1668,-112.5 1668,-131.5 1776,-131.5 1776,-112.5 1668,-112.5"/>
<text text-anchor="middle" x="1722" y="-119.5" font-family="Helvetica,sans-Serif" font-size="10.00" fill="#000000">NoSurfaceTension.H</text>
</a>
</g>
</g>
<!-- Node57&#45;&gt;Node58 -->
<g id="edge51" class="edge">
<title>Node57&#45;&gt;Node58</title>
<path fill="none" stroke="#191970" d="M1722,-168.2977C1722,-160.3834 1722,-150.6043 1722,-142.0759"/>
<polygon fill="#191970" stroke="#191970" points="1725.5001,-141.8469 1722,-131.8469 1718.5001,-141.847 1725.5001,-141.8469"/>
</g>
<!-- Node60 -->
<g id="node38" class="node">
<title>Node60</title>
<g id="a_node38"><a xlink:href="lnInclude_2DirectElementBased_8H.html" target="_top" xlink:title="DirectElementBased.H">
<polygon fill="none" stroke="#ff0000" points="1532.5,-112.5 1532.5,-131.5 1649.5,-131.5 1649.5,-112.5 1532.5,-112.5"/>
<text text-anchor="middle" x="1591" y="-119.5" font-family="Helvetica,sans-Serif" font-size="10.00" fill="#000000">DirectElementBased.H</text>
</a>
</g>
</g>
<!-- Node57&#45;&gt;Node60 -->
<g id="edge52" class="edge">
<title>Node57&#45;&gt;Node60</title>
<path fill="none" stroke="#191970" d="M1689.9538,-168.4554C1668.7672,-158.509 1641.1972,-145.5659 1620.5412,-135.8686"/>
<polygon fill="#191970" stroke="#191970" points="1621.8399,-132.6118 1611.3004,-131.5303 1618.8651,-138.9483 1621.8399,-132.6118"/>
</g>
<!-- Node60&#45;&gt;Node11 -->
<g id="edge53" class="edge">
<title>Node60&#45;&gt;Node11</title>
<path fill="none" stroke="#191970" d="M1626.5846,-112.3733C1661.6016,-102.9001 1715.1881,-88.4032 1753.1125,-78.1435"/>
<polygon fill="#191970" stroke="#191970" points="1754.1408,-81.4912 1762.8798,-75.5011 1752.3127,-74.7341 1754.1408,-81.4912"/>
</g>
<!-- Node33 -->
<g id="node40" class="node">
<title>Node33</title>
<g id="a_node40"><a xlink:href="lnInclude_2NoFrontToField_8H.html" target="_top" xlink:title="NoFrontToField.H">
<polygon fill="none" stroke="#ff0000" points="2175.5,-112.5 2175.5,-131.5 2270.5,-131.5 2270.5,-112.5 2175.5,-112.5"/>
<text text-anchor="middle" x="2223" y="-119.5" font-family="Helvetica,sans-Serif" font-size="10.00" fill="#000000">NoFrontToField.H</text>
</a>
</g>
</g>
<!-- Node61&#45;&gt;Node33 -->
<g id="edge55" class="edge">
<title>Node61&#45;&gt;Node33</title>
<path fill="none" stroke="#191970" d="M2256.8764,-168.2977C2250.6299,-159.7609 2242.796,-149.0545 2236.2353,-140.0883"/>
<polygon fill="#191970" stroke="#191970" points="2238.9348,-137.8505 2230.2051,-131.8469 2233.2856,-141.984 2238.9348,-137.8505"/>
</g>
<!-- Node62 -->
<g id="node41" class="node">
<title>Node62</title>
<g id="a_node41"><a xlink:href="lnInclude_2Poisson_8H.html" target="_top" xlink:title="Poisson.H">
<polygon fill="none" stroke="#ff0000" points="2354,-112.5 2354,-131.5 2416,-131.5 2416,-112.5 2354,-112.5"/>
<text text-anchor="middle" x="2385" y="-119.5" font-family="Helvetica,sans-Serif" font-size="10.00" fill="#000000">Poisson.H</text>
</a>
</g>
</g>
<!-- Node61&#45;&gt;Node62 -->
<g id="edge56" class="edge">
<title>Node61&#45;&gt;Node62</title>
<path fill="none" stroke="#191970" d="M2296.6214,-168.4554C2315.287,-158.644 2339.4999,-145.9167 2357.8612,-136.2653"/>
<polygon fill="#191970" stroke="#191970" points="2359.646,-139.2812 2366.8692,-131.5303 2356.389,-133.0851 2359.646,-139.2812"/>
</g>
<!-- Node64 -->
<g id="node42" class="node">
<title>Node64</title>
<g id="a_node42"><a xlink:href="lnInclude_2CPT_8H.html" target="_top" xlink:title="CPT.H">
<polygon fill="none" stroke="#ff0000" points="2288.5,-112.5 2288.5,-131.5 2335.5,-131.5 2335.5,-112.5 2288.5,-112.5"/>
<text text-anchor="middle" x="2312" y="-119.5" font-family="Helvetica,sans-Serif" font-size="10.00" fill="#000000">CPT.H</text>
</a>
</g>
</g>
<!-- Node61&#45;&gt;Node64 -->
<g id="edge58" class="edge">
<title>Node61&#45;&gt;Node64</title>
<path fill="none" stroke="#191970" d="M2278.8764,-168.2977C2284.9841,-159.7609 2292.6439,-149.0545 2299.0588,-140.0883"/>
<polygon fill="#191970" stroke="#191970" points="2301.9829,-142.0163 2304.955,-131.8469 2296.2899,-137.9433 2301.9829,-142.0163"/>
</g>
<!-- Node62&#45;&gt;Node11 -->
<g id="edge57" class="edge">
<title>Node62&#45;&gt;Node11</title>
<path fill="none" stroke="#191970" d="M2353.6572,-113.6572C2350.7431,-113.0351 2347.8246,-112.4687 2345,-112 2162.858,-81.776 1943.1203,-70.9528 1847.0081,-67.476"/>
<polygon fill="#191970" stroke="#191970" points="1846.8454,-63.9682 1836.7288,-67.1153 1846.5999,-70.9639 1846.8454,-63.9682"/>
</g>
<!-- Node64&#45;&gt;Node11 -->
<g id="edge59" class="edge">
<title>Node64&#45;&gt;Node11</title>
<path fill="none" stroke="#191970" d="M2288.377,-114.0168C2285.5754,-113.2491 2282.7387,-112.5524 2280,-112 2123.6141,-80.4592 1934.1952,-70.4023 1846.6704,-67.31"/>
<polygon fill="#191970" stroke="#191970" points="1846.6235,-63.8065 1836.5109,-66.9665 1846.3868,-70.8025 1846.6235,-63.8065"/>
</g>
<!-- Node66 -->
<g id="node44" class="node">
<title>Node66</title>
<g id="a_node44"><a xlink:href="lnInclude_2NoVolumeCorrection_8H.html" target="_top" xlink:title="NoVolumeCorrection.H">
<polygon fill="none" stroke="#ff0000" points="1396,-112.5 1396,-131.5 1514,-131.5 1514,-112.5 1396,-112.5"/>
<text text-anchor="middle" x="1455" y="-119.5" font-family="Helvetica,sans-Serif" font-size="10.00" fill="#000000">NoVolumeCorrection.H</text>
</a>
</g>
</g>
<!-- Node65&#45;&gt;Node66 -->
<g id="edge61" class="edge">
<title>Node65&#45;&gt;Node66</title>
<path fill="none" stroke="#191970" d="M1520.4944,-168.2977C1507.2032,-158.9022 1490.1943,-146.8787 1476.8412,-137.4395"/>
<polygon fill="#191970" stroke="#191970" points="1478.8561,-134.5776 1468.67,-131.6633 1474.8154,-140.2937 1478.8561,-134.5776"/>
</g>
<!-- Node68 -->
<g id="node45" class="node">
<title>Node68</title>
<g id="a_node45"><a xlink:href="lnInclude_2VC2_8H.html" target="_top" xlink:title="VC2.H">
<polygon fill="none" stroke="#ff0000" points="1330.5,-112.5 1330.5,-131.5 1377.5,-131.5 1377.5,-112.5 1330.5,-112.5"/>
<text text-anchor="middle" x="1354" y="-119.5" font-family="Helvetica,sans-Serif" font-size="10.00" fill="#000000">VC2.H</text>
</a>
</g>
</g>
<!-- Node65&#45;&gt;Node68 -->
<g id="edge62" class="edge">
<title>Node65&#45;&gt;Node68</title>
<path fill="none" stroke="#191970" d="M1496.01,-168.4554C1462.4133,-157.465 1417.6317,-142.8157 1387.4103,-132.9294"/>
<polygon fill="#191970" stroke="#191970" points="1388.3493,-129.5542 1377.7567,-129.7715 1386.1729,-136.2072 1388.3493,-129.5542"/>
</g>
<!-- Node68&#45;&gt;Node11 -->
<g id="edge63" class="edge">
<title>Node68&#45;&gt;Node11</title>
<path fill="none" stroke="#191970" d="M1377.6531,-114.2322C1380.7733,-113.3848 1383.9474,-112.61 1387,-112 1543.8134,-80.6646 1586.7268,-98.8459 1745,-76 1746.4481,-75.791 1747.9168,-75.5702 1749.3983,-75.3399"/>
<polygon fill="#191970" stroke="#191970" points="1749.9827,-78.7909 1759.2772,-73.7053 1748.8399,-71.8848 1749.9827,-78.7909"/>
</g>
<!-- Node70 -->
<g id="node47" class="node">
<title>Node70</title>
<g id="a_node47"><a xlink:href="lnInclude_2NoUndulationRemoval_8H.html" target="_top" xlink:title="NoUndulationRemoval.H">
<polygon fill="none" stroke="#ff0000" points="2032.5,-112.5 2032.5,-131.5 2157.5,-131.5 2157.5,-112.5 2032.5,-112.5"/>
<text text-anchor="middle" x="2095" y="-119.5" font-family="Helvetica,sans-Serif" font-size="10.00" fill="#000000">NoUndulationRemoval.H</text>
</a>
</g>
</g>
<!-- Node69&#45;&gt;Node70 -->
<g id="edge65" class="edge">
<title>Node69&#45;&gt;Node70</title>
<path fill="none" stroke="#191970" d="M1954.5007,-168.4554C1985.8075,-158.104 2026.9309,-144.5067 2056.5889,-134.7004"/>
<polygon fill="#191970" stroke="#191970" points="2057.7809,-137.9927 2066.1766,-131.5303 2055.5834,-131.3466 2057.7809,-137.9927"/>
</g>
<!-- Node72 -->
<g id="node48" class="node">
<title>Node72</title>
<g id="a_node48"><a xlink:href="lnInclude_2TSUR3D_8H.html" target="_top" xlink:title="TSUR3D.H">
<polygon fill="none" stroke="#ff0000" points="1794,-112.5 1794,-131.5 1862,-131.5 1862,-112.5 1794,-112.5"/>
<text text-anchor="middle" x="1828" y="-119.5" font-family="Helvetica,sans-Serif" font-size="10.00" fill="#000000">TSUR3D.H</text>
</a>
</g>
</g>
<!-- Node69&#45;&gt;Node72 -->
<g id="edge66" class="edge">
<title>Node69&#45;&gt;Node72</title>
<path fill="none" stroke="#191970" d="M1888.9775,-168.2977C1876.914,-159.1384 1861.5612,-147.4816 1849.2789,-138.1562"/>
<polygon fill="#191970" stroke="#191970" points="1851.0501,-135.1065 1840.9691,-131.8469 1846.8171,-140.6816 1851.0501,-135.1065"/>
</g>
<!-- Node73 -->
<g id="node49" class="node">
<title>Node73</title>
<g id="a_node49"><a xlink:href="lnInclude_2VCSIII_8H.html" target="_top" xlink:title="VCSIII.H">
<polygon fill="none" stroke="#ff0000" points="1880.5,-112.5 1880.5,-131.5 1937.5,-131.5 1937.5,-112.5 1880.5,-112.5"/>
<text text-anchor="middle" x="1909" y="-119.5" font-family="Helvetica,sans-Serif" font-size="10.00" fill="#000000">VCSIII.H</text>
</a>
</g>
</g>
<!-- Node69&#45;&gt;Node73 -->
<g id="edge68" class="edge">
<title>Node69&#45;&gt;Node73</title>
<path fill="none" stroke="#191970" d="M1909,-168.2977C1909,-160.3834 1909,-150.6043 1909,-142.0759"/>
<polygon fill="#191970" stroke="#191970" points="1912.5001,-141.8469 1909,-131.8469 1905.5001,-141.847 1912.5001,-141.8469"/>
</g>
<!-- Node74 -->
<g id="node50" class="node">
<title>Node74</title>
<g id="a_node50"><a xlink:href="lnInclude_2VCSIV_8H.html" target="_top" xlink:title="VCSIV.H">
<polygon fill="none" stroke="#ff0000" points="1956,-112.5 1956,-131.5 2014,-131.5 2014,-112.5 1956,-112.5"/>
<text text-anchor="middle" x="1985" y="-119.5" font-family="Helvetica,sans-Serif" font-size="10.00" fill="#000000">VCSIV.H</text>
</a>
</g>
</g>
<!-- Node69&#45;&gt;Node74 -->
<g id="edge70" class="edge">
<title>Node69&#45;&gt;Node74</title>
<path fill="none" stroke="#191970" d="M1927.7865,-168.2977C1939.1053,-159.1384 1953.5105,-147.4816 1965.0346,-138.1562"/>
<polygon fill="#191970" stroke="#191970" points="1967.2595,-140.8583 1972.8314,-131.8469 1962.8561,-135.4167 1967.2595,-140.8583"/>
</g>
<!-- Node72&#45;&gt;Node11 -->
<g id="edge67" class="edge">
<title>Node72&#45;&gt;Node11</title>
<path fill="none" stroke="#191970" d="M1822.7744,-112.2455C1818.6877,-104.617 1812.8865,-93.7881 1807.925,-84.5267"/>
<polygon fill="#191970" stroke="#191970" points="1810.9732,-82.8047 1803.1657,-75.6427 1804.8028,-86.1103 1810.9732,-82.8047"/>
</g>
<!-- Node73&#45;&gt;Node11 -->
<g id="edge69" class="edge">
<title>Node73&#45;&gt;Node11</title>
<path fill="none" stroke="#191970" d="M1889.9184,-112.3733C1872.2598,-103.4644 1845.7947,-90.1127 1825.7902,-80.0203"/>
<polygon fill="#191970" stroke="#191970" points="1827.3372,-76.8806 1816.8326,-75.5011 1824.1842,-83.1303 1827.3372,-76.8806"/>
</g>
<!-- Node74&#45;&gt;Node11 -->
<g id="edge71" class="edge">
<title>Node74&#45;&gt;Node11</title>
<path fill="none" stroke="#191970" d="M1955.7813,-113.25C1924.648,-103.9267 1875.0852,-89.0843 1839.8214,-78.5241"/>
<polygon fill="#191970" stroke="#191970" points="1840.4117,-75.0473 1829.8279,-75.5314 1838.4035,-81.7531 1840.4117,-75.0473"/>
</g>
</g>
</svg>
