<?xml version="1.0" encoding="UTF-8" standalone="no"?>
<!DOCTYPE svg PUBLIC "-//W3C//DTD SVG 1.1//EN"
 "http://www.w3.org/Graphics/SVG/1.1/DTD/svg11.dtd">
<!-- Generated by graphviz version 2.40.1 (20161225.0304)
 -->
<!-- Title: lnInclude/NoVolumeCorrection.H Pages: 1 -->
<svg width="350pt" height="162pt"
 viewBox="0.00 0.00 350.00 162.00" xmlns="http://www.w3.org/2000/svg" xmlns:xlink="http://www.w3.org/1999/xlink">
<g id="graph0" class="graph" transform="scale(1 1) rotate(0) translate(4 158)">
<title>lnInclude/NoVolumeCorrection.H</title>
<!-- Node6 -->
<g id="node1" class="node">
<title>Node6</title>
<polygon fill="#bfbfbf" stroke="#000000" points="92,-134.5 92,-153.5 252,-153.5 252,-134.5 92,-134.5"/>
<text text-anchor="middle" x="172" y="-141.5" font-family="Helvetica,sans-Serif" font-size="10.00" fill="#000000">lnInclude/NoVolumeCorrection.H</text>
</g>
<!-- Node7 -->
<g id="node2" class="node">
<title>Node7</title>
<g id="a_node2"><a xlink:href="lnInclude_2makeFrontTrackingParcelVolumeCorrectionModels_8H.html" target="_top" xlink:title="lnInclude/makeFrontTracking\lParcelVolumeCorrectionModels.H">
<polygon fill="none" stroke="#000000" points="0,-67.5 0,-97.5 164,-97.5 164,-67.5 0,-67.5"/>
<text text-anchor="start" x="8" y="-85.5" font-family="Helvetica,sans-Serif" font-size="10.00" fill="#000000">lnInclude/makeFrontTracking</text>
<text text-anchor="middle" x="82" y="-74.5" font-family="Helvetica,sans-Serif" font-size="10.00" fill="#000000">ParcelVolumeCorrectionModels.H</text>
</a>
</g>
</g>
<!-- Node6&#45;&gt;Node7 -->
<g id="edge1" class="edge">
<title>Node6&#45;&gt;Node7</title>
<path fill="none" stroke="#191970" d="M149.4398,-128.5839C135.5437,-119.0882 117.8108,-106.9707 104.0165,-97.5446"/>
<polygon fill="#191970" stroke="#191970" points="147.7064,-131.6384 157.9375,-134.3906 151.6557,-125.8589 147.7064,-131.6384"/>
</g>
<!-- Node9 -->
<g id="node4" class="node">
<title>Node9</title>
<g id="a_node4"><a xlink:href="lnInclude_2NoVolumeCorrection_8C.html" target="_top" xlink:title="lnInclude/NoVolumeCorrection.C">
<polygon fill="none" stroke="#000000" points="182,-73 182,-92 342,-92 342,-73 182,-73"/>
<text text-anchor="middle" x="262" y="-80" font-family="Helvetica,sans-Serif" font-size="10.00" fill="#000000">lnInclude/NoVolumeCorrection.C</text>
</a>
</g>
</g>
<!-- Node6&#45;&gt;Node9 -->
<g id="edge3" class="edge">
<title>Node6&#45;&gt;Node9</title>
<path fill="none" stroke="#191970" d="M194.729,-128.4685C211.5068,-117.0037 233.8074,-101.765 248.0362,-92.0419"/>
<polygon fill="#191970" stroke="#191970" points="192.3443,-125.8589 186.0625,-134.3906 196.2936,-131.6384 192.3443,-125.8589"/>
</g>
<!-- Node8 -->
<g id="node3" class="node">
<title>Node8</title>
<g id="a_node3"><a xlink:href="lnInclude_2makeFrontTrackingParcelSubmodels_8C.html" target="_top" xlink:title="lnInclude/makeFrontTracking\lParcelSubmodels.C">
<polygon fill="none" stroke="#000000" points="10.5,-.5 10.5,-30.5 153.5,-30.5 153.5,-.5 10.5,-.5"/>
<text text-anchor="start" x="18.5" y="-18.5" font-family="Helvetica,sans-Serif" font-size="10.00" fill="#000000">lnInclude/makeFrontTracking</text>
<text text-anchor="middle" x="82" y="-7.5" font-family="Helvetica,sans-Serif" font-size="10.00" fill="#000000">ParcelSubmodels.C</text>
</a>
</g>
</g>
<!-- Node7&#45;&gt;Node8 -->
<g id="edge2" class="edge">
<title>Node7&#45;&gt;Node8</title>
<path fill="none" stroke="#191970" d="M82,-57.0249C82,-48.128 82,-38.4287 82,-30.6432"/>
<polygon fill="#191970" stroke="#191970" points="78.5001,-57.2966 82,-67.2967 85.5001,-57.2967 78.5001,-57.2966"/>
</g>
</g>
</svg>
