<?xml version="1.0" encoding="UTF-8" standalone="no"?>
<!DOCTYPE svg PUBLIC "-//W3C//DTD SVG 1.1//EN"
 "http://www.w3.org/Graphics/SVG/1.1/DTD/svg11.dtd">
<!-- Generated by graphviz version 2.40.1 (20161225.0304)
 -->
<!-- Title: lnInclude/frontTrackingParcel.H Pages: 1 -->
<svg width="1821pt" height="207pt"
 viewBox="0.00 0.00 1821.00 207.00" xmlns="http://www.w3.org/2000/svg" xmlns:xlink="http://www.w3.org/1999/xlink">
<g id="graph0" class="graph" transform="scale(1 1) rotate(0) translate(4 203)">
<title>lnInclude/frontTrackingParcel.H</title>
<!-- Node0 -->
<g id="node1" class="node">
<title>Node0</title>
<polygon fill="#bfbfbf" stroke="#000000" points="564.5,-179.5 564.5,-198.5 718.5,-198.5 718.5,-179.5 564.5,-179.5"/>
<text text-anchor="middle" x="641.5" y="-186.5" font-family="Helvetica,sans-Serif" font-size="10.00" fill="#000000">lnInclude/frontTrackingParcel.H</text>
</g>
<!-- Node1 -->
<g id="node2" class="node">
<title>Node1</title>
<polygon fill="none" stroke="#bfbfbf" points="499.5,-123.5 499.5,-142.5 573.5,-142.5 573.5,-123.5 499.5,-123.5"/>
<text text-anchor="middle" x="536.5" y="-130.5" font-family="Helvetica,sans-Serif" font-size="10.00" fill="#000000">contiguous.H</text>
</g>
<!-- Node0&#45;&gt;Node1 -->
<g id="edge1" class="edge">
<title>Node0&#45;&gt;Node1</title>
<path fill="none" stroke="#191970" d="M623.2104,-179.2455C606.7238,-170.4527 582.2648,-157.4079 563.5235,-147.4125"/>
<polygon fill="#191970" stroke="#191970" points="565.0506,-144.2604 554.58,-142.6427 561.7565,-150.4368 565.0506,-144.2604"/>
</g>
<!-- Node2 -->
<g id="node3" class="node">
<title>Node2</title>
<polygon fill="none" stroke="#bfbfbf" points="566,-62 566,-81 625,-81 625,-62 566,-62"/>
<text text-anchor="middle" x="595.5" y="-69" font-family="Helvetica,sans-Serif" font-size="10.00" fill="#000000">particle.H</text>
</g>
<!-- Node0&#45;&gt;Node2 -->
<g id="edge2" class="edge">
<title>Node0&#45;&gt;Node2</title>
<path fill="none" stroke="#191970" d="M636.7292,-179.243C632.2897,-170.0084 625.6092,-155.7064 620.5,-143 613.5413,-125.694 606.6189,-105.6151 601.8289,-91.1491"/>
<polygon fill="#191970" stroke="#191970" points="605.0498,-89.7377 598.6163,-81.3198 598.3962,-91.9124 605.0498,-89.7377"/>
</g>
<!-- Node3 -->
<g id="node4" class="node">
<title>Node3</title>
<polygon fill="none" stroke="#bfbfbf" points="629.5,-123.5 629.5,-142.5 733.5,-142.5 733.5,-123.5 629.5,-123.5"/>
<text text-anchor="middle" x="681.5" y="-130.5" font-family="Helvetica,sans-Serif" font-size="10.00" fill="#000000">MomentumParcel.H</text>
</g>
<!-- Node0&#45;&gt;Node3 -->
<g id="edge3" class="edge">
<title>Node0&#45;&gt;Node3</title>
<path fill="none" stroke="#191970" d="M648.4675,-179.2455C654.0311,-171.4564 661.978,-160.3308 668.6829,-150.9439"/>
<polygon fill="#191970" stroke="#191970" points="671.648,-152.8144 674.6124,-142.6427 665.9519,-148.7457 671.648,-152.8144"/>
</g>
<!-- Node4 -->
<g id="node5" class="node">
<title>Node4</title>
<g id="a_node5"><a xlink:href="lnInclude_2FrontTrackingParcel_8H.html" target="_top" xlink:title="FrontTrackingParcel.H">
<polygon fill="none" stroke="#000000" points="758,-123.5 758,-142.5 873,-142.5 873,-123.5 758,-123.5"/>
<text text-anchor="middle" x="815.5" y="-130.5" font-family="Helvetica,sans-Serif" font-size="10.00" fill="#000000">FrontTrackingParcel.H</text>
</a>
</g>
</g>
<!-- Node0&#45;&gt;Node4 -->
<g id="edge4" class="edge">
<title>Node0&#45;&gt;Node4</title>
<path fill="none" stroke="#191970" d="M671.4117,-179.3733C700.3452,-170.0613 744.3611,-155.8953 776.1293,-145.671"/>
<polygon fill="#191970" stroke="#191970" points="777.5318,-148.8965 785.9787,-142.5011 775.3872,-142.2331 777.5318,-148.8965"/>
</g>
<!-- Node4&#45;&gt;Node2 -->
<g id="edge5" class="edge">
<title>Node4&#45;&gt;Node2</title>
<path fill="none" stroke="#191970" d="M771.1557,-123.4195C734.2301,-115.0402 680.4537,-101.9021 634.5,-87 632.2194,-86.2604 629.8807,-85.4549 627.5365,-84.6126"/>
<polygon fill="#191970" stroke="#191970" points="628.5958,-81.2715 618.004,-81.0175 626.1256,-87.8212 628.5958,-81.2715"/>
</g>
<!-- Node5 -->
<g id="node6" class="node">
<title>Node5</title>
<polygon fill="none" stroke="#bfbfbf" points="643.5,-62 643.5,-81 743.5,-81 743.5,-62 643.5,-62"/>
<text text-anchor="middle" x="693.5" y="-69" font-family="Helvetica,sans-Serif" font-size="10.00" fill="#000000">labelFieldIOField.H</text>
</g>
<!-- Node4&#45;&gt;Node5 -->
<g id="edge6" class="edge">
<title>Node4&#45;&gt;Node5</title>
<path fill="none" stroke="#191970" d="M796.4375,-123.3906C776.3828,-113.2811 744.6066,-97.2628 721.6616,-85.6962"/>
<polygon fill="#191970" stroke="#191970" points="722.9337,-82.418 712.4286,-81.0419 719.7827,-88.6687 722.9337,-82.418"/>
</g>
<!-- Node6 -->
<g id="node7" class="node">
<title>Node6</title>
<polygon fill="none" stroke="#bfbfbf" points="762,-62 762,-81 869,-81 869,-62 762,-62"/>
<text text-anchor="middle" x="815.5" y="-69" font-family="Helvetica,sans-Serif" font-size="10.00" fill="#000000">vectorFieldIOField.H</text>
</g>
<!-- Node4&#45;&gt;Node6 -->
<g id="edge7" class="edge">
<title>Node4&#45;&gt;Node6</title>
<path fill="none" stroke="#191970" d="M815.5,-123.3906C815.5,-114.8657 815.5,-102.1392 815.5,-91.4235"/>
<polygon fill="#191970" stroke="#191970" points="819.0001,-91.2448 815.5,-81.2449 812.0001,-91.2449 819.0001,-91.2448"/>
</g>
<!-- Node7 -->
<g id="node8" class="node">
<title>Node7</title>
<g id="a_node8"><a xlink:href="lnInclude_2bubbleData_8H.html" target="_top" xlink:title="bubbleData.H">
<polygon fill="none" stroke="#000000" points="887,-62 887,-81 964,-81 964,-62 887,-62"/>
<text text-anchor="middle" x="925.5" y="-69" font-family="Helvetica,sans-Serif" font-size="10.00" fill="#000000">bubbleData.H</text>
</a>
</g>
</g>
<!-- Node4&#45;&gt;Node7 -->
<g id="edge8" class="edge">
<title>Node4&#45;&gt;Node7</title>
<path fill="none" stroke="#191970" d="M832.6875,-123.3906C850.6082,-113.3713 878.9095,-97.5483 899.5523,-86.0071"/>
<polygon fill="#191970" stroke="#191970" points="901.4128,-88.9769 908.4332,-81.0419 897.9967,-82.867 901.4128,-88.9769"/>
</g>
<!-- Node28 -->
<g id="node29" class="node">
<title>Node28</title>
<g id="a_node29"><a xlink:href="lnInclude_2FrontTrackingParcelI_8H.html" target="_top" xlink:title="FrontTrackingParcelI.H">
<polygon fill="none" stroke="#000000" points="982.5,-62 982.5,-81 1100.5,-81 1100.5,-62 982.5,-62"/>
<text text-anchor="middle" x="1041.5" y="-69" font-family="Helvetica,sans-Serif" font-size="10.00" fill="#000000">FrontTrackingParcelI.H</text>
</a>
</g>
</g>
<!-- Node4&#45;&gt;Node28 -->
<g id="edge29" class="edge">
<title>Node4&#45;&gt;Node28</title>
<path fill="none" stroke="#191970" d="M850.8125,-123.3906C890.1191,-112.6944 953.7326,-95.3836 996.5594,-83.7294"/>
<polygon fill="#191970" stroke="#191970" points="997.7054,-87.0449 1006.4355,-81.0419 995.8673,-80.2905 997.7054,-87.0449"/>
</g>
<!-- Node29 -->
<g id="node30" class="node">
<title>Node29</title>
<g id="a_node30"><a xlink:href="lnInclude_2FrontTrackingParcelTrackingDataI_8H.html" target="_top" xlink:title="FrontTrackingParcelTracking\lDataI.H">
<polygon fill="none" stroke="#000000" points="1404.5,-56.5 1404.5,-86.5 1546.5,-86.5 1546.5,-56.5 1404.5,-56.5"/>
<text text-anchor="start" x="1412.5" y="-74.5" font-family="Helvetica,sans-Serif" font-size="10.00" fill="#000000">FrontTrackingParcelTracking</text>
<text text-anchor="middle" x="1475.5" y="-63.5" font-family="Helvetica,sans-Serif" font-size="10.00" fill="#000000">DataI.H</text>
</a>
</g>
</g>
<!-- Node4&#45;&gt;Node29 -->
<g id="edge30" class="edge">
<title>Node4&#45;&gt;Node29</title>
<path fill="none" stroke="#191970" d="M873.2038,-127.6231C990.8281,-116.6626 1258.6088,-91.7103 1393.9589,-79.0982"/>
<polygon fill="#191970" stroke="#191970" points="1394.6306,-82.5508 1404.2627,-78.138 1393.981,-75.581 1394.6306,-82.5508"/>
</g>
<!-- Node8 -->
<g id="node9" class="node">
<title>Node8</title>
<polygon fill="none" stroke="#bfbfbf" points="0,-.5 0,-19.5 59,-19.5 59,-.5 0,-.5"/>
<text text-anchor="middle" x="29.5" y="-7.5" font-family="Helvetica,sans-Serif" font-size="10.00" fill="#000000">fvMesh.H</text>
</g>
<!-- Node7&#45;&gt;Node8 -->
<g id="edge9" class="edge">
<title>Node7&#45;&gt;Node8</title>
<path fill="none" stroke="#191970" d="M900.1658,-61.9214C892.943,-59.5753 884.9977,-57.352 877.5,-56 526.5874,7.2785 426.3462,-71.4911 69.28,-19.7714"/>
<polygon fill="#191970" stroke="#191970" points="69.5844,-16.2786 59.1811,-18.2839 68.5643,-23.2038 69.5844,-16.2786"/>
</g>
<!-- Node9 -->
<g id="node10" class="node">
<title>Node9</title>
<polygon fill="none" stroke="#bfbfbf" points="77.5,-.5 77.5,-19.5 143.5,-19.5 143.5,-.5 77.5,-.5"/>
<text text-anchor="middle" x="110.5" y="-7.5" font-family="Helvetica,sans-Serif" font-size="10.00" fill="#000000">fileName.H</text>
</g>
<!-- Node7&#45;&gt;Node9 -->
<g id="edge10" class="edge">
<title>Node7&#45;&gt;Node9</title>
<path fill="none" stroke="#191970" d="M900.1612,-61.9466C892.9384,-59.6007 884.9942,-57.3713 877.5,-56 563.404,1.4741 473.7209,-64.1819 153.8796,-19.9401"/>
<polygon fill="#191970" stroke="#191970" points="154.2546,-16.4585 143.8642,-18.5294 153.2782,-23.3901 154.2546,-16.4585"/>
</g>
<!-- Node10 -->
<g id="node11" class="node">
<title>Node10</title>
<polygon fill="none" stroke="#bfbfbf" points="162,-.5 162,-19.5 231,-19.5 231,-.5 162,-.5"/>
<text text-anchor="middle" x="196.5" y="-7.5" font-family="Helvetica,sans-Serif" font-size="10.00" fill="#000000">pointField.H</text>
</g>
<!-- Node7&#45;&gt;Node10 -->
<g id="edge11" class="edge">
<title>Node7&#45;&gt;Node10</title>
<path fill="none" stroke="#191970" d="M900.155,-61.9801C892.9321,-59.6345 884.9895,-57.3969 877.5,-56 602.0112,-4.616 523.1328,-58.2724 241.569,-19.9049"/>
<polygon fill="#191970" stroke="#191970" points="241.8534,-16.4109 231.4667,-18.5009 240.8897,-23.3443 241.8534,-16.4109"/>
</g>
<!-- Node11 -->
<g id="node12" class="node">
<title>Node11</title>
<polygon fill="none" stroke="#bfbfbf" points="249.5,-.5 249.5,-19.5 297.5,-19.5 297.5,-.5 249.5,-.5"/>
<text text-anchor="middle" x="273.5" y="-7.5" font-family="Helvetica,sans-Serif" font-size="10.00" fill="#000000">point.H</text>
</g>
<!-- Node7&#45;&gt;Node11 -->
<g id="edge12" class="edge">
<title>Node7&#45;&gt;Node11</title>
<path fill="none" stroke="#191970" d="M899.8996,-61.9311C892.7436,-59.6152 884.8988,-57.405 877.5,-56 630.9759,-9.1877 558.6386,-63.6989 307.9961,-19.8757"/>
<polygon fill="#191970" stroke="#191970" points="308.3136,-16.3771 297.8543,-18.0662 307.084,-23.2683 308.3136,-16.3771"/>
</g>
<!-- Node12 -->
<g id="node13" class="node">
<title>Node12</title>
<polygon fill="none" stroke="#bfbfbf" points="315.5,-.5 315.5,-19.5 371.5,-19.5 371.5,-.5 315.5,-.5"/>
<text text-anchor="middle" x="343.5" y="-7.5" font-family="Helvetica,sans-Serif" font-size="10.00" fill="#000000">DLList.H</text>
</g>
<!-- Node7&#45;&gt;Node12 -->
<g id="edge13" class="edge">
<title>Node7&#45;&gt;Node12</title>
<path fill="none" stroke="#191970" d="M899.8908,-61.9768C892.7348,-59.6611 884.8922,-57.4395 877.5,-56 663.3001,-14.2879 600.6731,-55.8086 381.536,-19.8623"/>
<polygon fill="#191970" stroke="#191970" points="382.099,-16.408 371.658,-18.2073 380.9422,-23.3117 382.099,-16.408"/>
</g>
<!-- Node13 -->
<g id="node14" class="node">
<title>Node13</title>
<polygon fill="none" stroke="#bfbfbf" points="390,-.5 390,-19.5 475,-19.5 475,-.5 390,-.5"/>
<text text-anchor="middle" x="432.5" y="-7.5" font-family="Helvetica,sans-Serif" font-size="10.00" fill="#000000">sphereToCell.H</text>
</g>
<!-- Node7&#45;&gt;Node13 -->
<g id="edge14" class="edge">
<title>Node7&#45;&gt;Node13</title>
<path fill="none" stroke="#191970" d="M899.6226,-61.988C892.5341,-59.7012 884.7925,-57.4914 877.5,-56 708.4218,-21.4212 659.3732,-44.073 485.0445,-20.087"/>
<polygon fill="#191970" stroke="#191970" points="485.4115,-16.6042 475.0212,-18.6759 484.4356,-23.5359 485.4115,-16.6042"/>
</g>
<!-- Node14 -->
<g id="node15" class="node">
<title>Node14</title>
<polygon fill="none" stroke="#bfbfbf" points="493,-.5 493,-19.5 550,-19.5 550,-.5 493,-.5"/>
<text text-anchor="middle" x="521.5" y="-7.5" font-family="Helvetica,sans-Serif" font-size="10.00" fill="#000000">cellSet.H</text>
</g>
<!-- Node7&#45;&gt;Node14 -->
<g id="edge15" class="edge">
<title>Node7&#45;&gt;Node14</title>
<path fill="none" stroke="#191970" d="M899.0994,-61.9303C892.1486,-59.6998 884.6051,-57.5319 877.5,-56 741.1601,-26.6034 700.4782,-45.7826 559.9322,-20.0322"/>
<polygon fill="#191970" stroke="#191970" points="560.5576,-16.5885 550.0837,-18.1849 559.267,-23.4685 560.5576,-16.5885"/>
</g>
<!-- Node15 -->
<g id="node16" class="node">
<title>Node15</title>
<polygon fill="none" stroke="#bfbfbf" points="568,-.5 568,-19.5 651,-19.5 651,-.5 568,-.5"/>
<text text-anchor="middle" x="609.5" y="-7.5" font-family="Helvetica,sans-Serif" font-size="10.00" fill="#000000">simpleMatrix.H</text>
</g>
<!-- Node7&#45;&gt;Node15 -->
<g id="edge16" class="edge">
<title>Node7&#45;&gt;Node15</title>
<path fill="none" stroke="#191970" d="M898.2866,-61.937C891.5487,-59.7847 884.3081,-57.6517 877.5,-56 785.1426,-33.5939 757.8507,-37.3526 661.1209,-20.235"/>
<polygon fill="#191970" stroke="#191970" points="661.6835,-16.7801 651.2217,-18.4537 660.4438,-23.6694 661.6835,-16.7801"/>
</g>
<!-- Node16 -->
<g id="node17" class="node">
<title>Node16</title>
<polygon fill="none" stroke="#bfbfbf" points="669,-.5 669,-19.5 800,-19.5 800,-.5 669,-.5"/>
<text text-anchor="middle" x="734.5" y="-7.5" font-family="Helvetica,sans-Serif" font-size="10.00" fill="#000000">mathematicalConstants.H</text>
</g>
<!-- Node7&#45;&gt;Node16 -->
<g id="edge17" class="edge">
<title>Node7&#45;&gt;Node16</title>
<path fill="none" stroke="#191970" d="M896.0554,-61.9861C889.9234,-60.0064 883.5011,-57.9341 877.5,-56 842.4177,-44.6931 802.4854,-31.85 773.7517,-22.6134"/>
<polygon fill="#191970" stroke="#191970" points="774.673,-19.2332 764.0816,-19.5051 772.5308,-25.8974 774.673,-19.2332"/>
</g>
<!-- Node17 -->
<g id="node18" class="node">
<title>Node17</title>
<polygon fill="none" stroke="#bfbfbf" points="818.5,-.5 818.5,-19.5 874.5,-19.5 874.5,-.5 818.5,-.5"/>
<text text-anchor="middle" x="846.5" y="-7.5" font-family="Helvetica,sans-Serif" font-size="10.00" fill="#000000">fvCFD.H</text>
</g>
<!-- Node7&#45;&gt;Node17 -->
<g id="edge18" class="edge">
<title>Node7&#45;&gt;Node17</title>
<path fill="none" stroke="#191970" d="M913.1563,-61.8906C900.7497,-52.2324 881.4157,-37.1812 866.7587,-25.771"/>
<polygon fill="#191970" stroke="#191970" points="868.7979,-22.923 858.7571,-19.5419 864.4979,-28.4466 868.7979,-22.923"/>
</g>
<!-- Node18 -->
<g id="node19" class="node">
<title>Node18</title>
<polygon fill="none" stroke="#bfbfbf" points="892.5,-.5 892.5,-19.5 958.5,-19.5 958.5,-.5 892.5,-.5"/>
<text text-anchor="middle" x="925.5" y="-7.5" font-family="Helvetica,sans-Serif" font-size="10.00" fill="#000000">IFstream.H</text>
</g>
<!-- Node7&#45;&gt;Node18 -->
<g id="edge19" class="edge">
<title>Node7&#45;&gt;Node18</title>
<path fill="none" stroke="#191970" d="M925.5,-61.8906C925.5,-53.3657 925.5,-40.6392 925.5,-29.9235"/>
<polygon fill="#191970" stroke="#191970" points="929.0001,-29.7448 925.5,-19.7449 922.0001,-29.7449 929.0001,-29.7448"/>
</g>
<!-- Node19 -->
<g id="node20" class="node">
<title>Node19</title>
<polygon fill="none" stroke="#bfbfbf" points="977,-.5 977,-19.5 1048,-19.5 1048,-.5 977,-.5"/>
<text text-anchor="middle" x="1012.5" y="-7.5" font-family="Helvetica,sans-Serif" font-size="10.00" fill="#000000">OFstream.H</text>
</g>
<!-- Node7&#45;&gt;Node19 -->
<g id="edge20" class="edge">
<title>Node7&#45;&gt;Node19</title>
<path fill="none" stroke="#191970" d="M939.0938,-61.8906C952.8843,-52.1421 974.4472,-36.8994 990.641,-25.4521"/>
<polygon fill="#191970" stroke="#191970" points="992.8563,-28.1723 999.0017,-19.5419 988.8156,-22.4563 992.8563,-28.1723"/>
</g>
<!-- Node20 -->
<g id="node21" class="node">
<title>Node20</title>
<polygon fill="none" stroke="#bfbfbf" points="1066,-.5 1066,-19.5 1153,-19.5 1153,-.5 1066,-.5"/>
<text text-anchor="middle" x="1109.5" y="-7.5" font-family="Helvetica,sans-Serif" font-size="10.00" fill="#000000">IStringStream.H</text>
</g>
<!-- Node7&#45;&gt;Node20 -->
<g id="edge21" class="edge">
<title>Node7&#45;&gt;Node20</title>
<path fill="none" stroke="#191970" d="M954.25,-61.8906C985.7117,-51.3749 1036.3008,-34.466 1071.1314,-22.8243"/>
<polygon fill="#191970" stroke="#191970" points="1072.5772,-26.0315 1080.9519,-19.5419 1070.3581,-19.3925 1072.5772,-26.0315"/>
</g>
<!-- Node21 -->
<g id="node22" class="node">
<title>Node21</title>
<polygon fill="none" stroke="#bfbfbf" points="1171.5,-.5 1171.5,-19.5 1263.5,-19.5 1263.5,-.5 1171.5,-.5"/>
<text text-anchor="middle" x="1217.5" y="-7.5" font-family="Helvetica,sans-Serif" font-size="10.00" fill="#000000">OStringStream.H</text>
</g>
<!-- Node7&#45;&gt;Node21 -->
<g id="edge22" class="edge">
<title>Node7&#45;&gt;Node21</title>
<path fill="none" stroke="#191970" d="M952.9935,-61.9655C959.6584,-59.8367 966.7959,-57.7071 973.5,-56 991.4302,-51.4342 1095.055,-32.303 1161.3676,-20.1966"/>
<polygon fill="#191970" stroke="#191970" points="1162.0588,-23.6283 1171.2684,-18.3906 1160.8027,-16.7419 1162.0588,-23.6283"/>
</g>
<!-- Node22 -->
<g id="node23" class="node">
<title>Node22</title>
<polygon fill="none" stroke="#bfbfbf" points="1281.5,-.5 1281.5,-19.5 1331.5,-19.5 1331.5,-.5 1281.5,-.5"/>
<text text-anchor="middle" x="1306.5" y="-7.5" font-family="Helvetica,sans-Serif" font-size="10.00" fill="#000000">fstream</text>
</g>
<!-- Node7&#45;&gt;Node22 -->
<g id="edge23" class="edge">
<title>Node7&#45;&gt;Node22</title>
<path fill="none" stroke="#191970" d="M951.9085,-61.9665C958.8592,-59.7356 966.4007,-57.5584 973.5,-56 1101.0441,-28.0024 1139.5278,-46.045 1271.296,-19.9423"/>
<polygon fill="#191970" stroke="#191970" points="1272.2627,-23.3176 1281.3667,-17.8983 1270.8703,-16.4574 1272.2627,-23.3176"/>
</g>
<!-- Node23 -->
<g id="node24" class="node">
<title>Node23</title>
<polygon fill="none" stroke="#bfbfbf" points="1349.5,-.5 1349.5,-19.5 1403.5,-19.5 1403.5,-.5 1349.5,-.5"/>
<text text-anchor="middle" x="1376.5" y="-7.5" font-family="Helvetica,sans-Serif" font-size="10.00" fill="#000000">iostream</text>
</g>
<!-- Node7&#45;&gt;Node23 -->
<g id="edge24" class="edge">
<title>Node7&#45;&gt;Node23</title>
<path fill="none" stroke="#191970" d="M951.6346,-61.9398C958.6546,-59.6816 966.2982,-57.4979 973.5,-56 1130.6694,-23.3109 1177.4721,-48.9461 1339.1805,-19.9381"/>
<polygon fill="#191970" stroke="#191970" points="1340.2883,-23.2932 1349.4909,-18.0432 1339.0229,-16.4085 1340.2883,-23.2932"/>
</g>
<!-- Node24 -->
<g id="node25" class="node">
<title>Node24</title>
<polygon fill="none" stroke="#bfbfbf" points="1422,-.5 1422,-19.5 1463,-19.5 1463,-.5 1422,-.5"/>
<text text-anchor="middle" x="1442.5" y="-7.5" font-family="Helvetica,sans-Serif" font-size="10.00" fill="#000000">string</text>
</g>
<!-- Node7&#45;&gt;Node24 -->
<g id="edge25" class="edge">
<title>Node7&#45;&gt;Node24</title>
<path fill="none" stroke="#191970" d="M951.3682,-61.9426C958.4567,-59.6559 966.2006,-57.4575 973.5,-56 1162.2893,-18.3033 1218.8345,-57.8771 1411.8029,-19.6489"/>
<polygon fill="#191970" stroke="#191970" points="1412.5877,-23.0611 1421.6938,-17.6456 1411.198,-16.2004 1412.5877,-23.0611"/>
</g>
<!-- Node25 -->
<g id="node26" class="node">
<title>Node25</title>
<polygon fill="none" stroke="#bfbfbf" points="1481.5,-.5 1481.5,-19.5 1525.5,-19.5 1525.5,-.5 1481.5,-.5"/>
<text text-anchor="middle" x="1503.5" y="-7.5" font-family="Helvetica,sans-Serif" font-size="10.00" fill="#000000">cmath</text>
</g>
<!-- Node7&#45;&gt;Node25 -->
<g id="edge26" class="edge">
<title>Node7&#45;&gt;Node25</title>
<path fill="none" stroke="#191970" d="M951.1089,-61.9754C958.265,-59.6597 966.1076,-57.4384 973.5,-56 1188.5634,-14.152 1252.3693,-61.0237 1471.4422,-19.76"/>
<polygon fill="#191970" stroke="#191970" points="1472.1577,-23.1866 1481.3165,-17.8607 1470.8354,-16.3126 1472.1577,-23.1866"/>
</g>
<!-- Node26 -->
<g id="node27" class="node">
<title>Node26</title>
<polygon fill="none" stroke="#bfbfbf" points="1543.5,-.5 1543.5,-19.5 1593.5,-19.5 1593.5,-.5 1543.5,-.5"/>
<text text-anchor="middle" x="1568.5" y="-7.5" font-family="Helvetica,sans-Serif" font-size="10.00" fill="#000000">iomanip</text>
</g>
<!-- Node7&#45;&gt;Node26 -->
<g id="edge27" class="edge">
<title>Node7&#45;&gt;Node26</title>
<path fill="none" stroke="#191970" d="M951.1014,-61.9366C958.2575,-59.6207 966.1019,-57.4091 973.5,-56 1215.6981,-9.8687 1286.6087,-62.1036 1533.4107,-19.8048"/>
<polygon fill="#191970" stroke="#191970" points="1534.1497,-23.2287 1543.3973,-18.0584 1532.9438,-16.3334 1534.1497,-23.2287"/>
</g>
<!-- Node27 -->
<g id="node28" class="node">
<title>Node27</title>
<g id="a_node28"><a xlink:href="lnInclude_2bubbleDataI_8H.html" target="_top" xlink:title="bubbleDataI.H">
<polygon fill="none" stroke="#000000" points="1611.5,-.5 1611.5,-19.5 1691.5,-19.5 1691.5,-.5 1611.5,-.5"/>
<text text-anchor="middle" x="1651.5" y="-7.5" font-family="Helvetica,sans-Serif" font-size="10.00" fill="#000000">bubbleDataI.H</text>
</a>
</g>
</g>
<!-- Node7&#45;&gt;Node27 -->
<g id="edge28" class="edge">
<title>Node7&#45;&gt;Node27</title>
<path fill="none" stroke="#191970" d="M950.8457,-61.9836C958.0685,-59.6381 966.011,-57.3996 973.5,-56 1245.5218,-5.1618 1323.012,-54.8958 1601.4763,-19.9389"/>
<polygon fill="#191970" stroke="#191970" points="1601.9933,-23.4014 1611.4676,-18.6593 1601.104,-16.4581 1601.9933,-23.4014"/>
</g>
<!-- Node30 -->
<g id="node31" class="node">
<title>Node30</title>
<polygon fill="none" stroke="#bfbfbf" points="1710,-.5 1710,-19.5 1813,-19.5 1813,-.5 1710,-.5"/>
<text text-anchor="middle" x="1761.5" y="-7.5" font-family="Helvetica,sans-Serif" font-size="10.00" fill="#000000">AveragingMethod.H</text>
</g>
<!-- Node29&#45;&gt;Node30 -->
<g id="edge31" class="edge">
<title>Node29&#45;&gt;Node30</title>
<path fill="none" stroke="#191970" d="M1545.4635,-56.4554C1595.2763,-45.7439 1661.2517,-31.5569 1707.1311,-21.6912"/>
<polygon fill="#191970" stroke="#191970" points="1708.1395,-25.0545 1717.1802,-19.5303 1706.6678,-18.2109 1708.1395,-25.0545"/>
</g>
</g>
</svg>
