<?xml version="1.0" encoding="UTF-8" standalone="no"?>
<!DOCTYPE svg PUBLIC "-//W3C//DTD SVG 1.1//EN"
 "http://www.w3.org/Graphics/SVG/1.1/DTD/svg11.dtd">
<!-- Generated by graphviz version 2.40.1 (20161225.0304)
 -->
<!-- Title: lnInclude/makeFrontTrackingParcelSurfaceTensionModels.H Pages: 1 -->
<svg width="2163pt" height="207pt"
 viewBox="0.00 0.00 2163.00 207.00" xmlns="http://www.w3.org/2000/svg" xmlns:xlink="http://www.w3.org/1999/xlink">
<g id="graph0" class="graph" transform="scale(1 1) rotate(0) translate(4 203)">
<title>lnInclude/makeFrontTrackingParcelSurfaceTensionModels.H</title>
<!-- Node0 -->
<g id="node1" class="node">
<title>Node0</title>
<polygon fill="#bfbfbf" stroke="#000000" points="229.5,-168.5 229.5,-198.5 384.5,-198.5 384.5,-168.5 229.5,-168.5"/>
<text text-anchor="start" x="237.5" y="-186.5" font-family="Helvetica,sans-Serif" font-size="10.00" fill="#000000">lnInclude/makeFrontTracking</text>
<text text-anchor="middle" x="307" y="-175.5" font-family="Helvetica,sans-Serif" font-size="10.00" fill="#000000">ParcelSurfaceTensionModels.H</text>
</g>
<!-- Node1 -->
<g id="node2" class="node">
<title>Node1</title>
<g id="a_node2"><a xlink:href="lnInclude_2NoSurfaceTension_8H.html" target="_top" xlink:title="NoSurfaceTension.H">
<polygon fill="none" stroke="#000000" points="188,-112.5 188,-131.5 296,-131.5 296,-112.5 188,-112.5"/>
<text text-anchor="middle" x="242" y="-119.5" font-family="Helvetica,sans-Serif" font-size="10.00" fill="#000000">NoSurfaceTension.H</text>
</a>
</g>
</g>
<!-- Node0&#45;&gt;Node1 -->
<g id="edge1" class="edge">
<title>Node0&#45;&gt;Node1</title>
<path fill="none" stroke="#191970" d="M290.9326,-168.2977C281.534,-159.4052 269.6473,-148.1586 259.943,-138.9769"/>
<polygon fill="#191970" stroke="#191970" points="262.0768,-136.1774 252.4073,-131.8469 257.2658,-141.2621 262.0768,-136.1774"/>
</g>
<!-- Node7 -->
<g id="node8" class="node">
<title>Node7</title>
<g id="a_node8"><a xlink:href="lnInclude_2DirectElementBased_8H.html" target="_top" xlink:title="DirectElementBased.H">
<polygon fill="none" stroke="#000000" points="314.5,-112.5 314.5,-131.5 431.5,-131.5 431.5,-112.5 314.5,-112.5"/>
<text text-anchor="middle" x="373" y="-119.5" font-family="Helvetica,sans-Serif" font-size="10.00" fill="#000000">DirectElementBased.H</text>
</a>
</g>
</g>
<!-- Node0&#45;&gt;Node7 -->
<g id="edge7" class="edge">
<title>Node0&#45;&gt;Node7</title>
<path fill="none" stroke="#191970" d="M323.3146,-168.2977C332.9533,-159.3163 345.1691,-147.9334 355.0759,-138.702"/>
<polygon fill="#191970" stroke="#191970" points="357.5025,-141.2249 362.4326,-131.8469 352.7304,-136.1036 357.5025,-141.2249"/>
</g>
<!-- Node2 -->
<g id="node3" class="node">
<title>Node2</title>
<g id="a_node3"><a xlink:href="lnInclude_2SurfaceTensionModel_8H.html" target="_top" xlink:title="SurfaceTensionModel.H">
<polygon fill="none" stroke="#000000" points="181,-56.5 181,-75.5 303,-75.5 303,-56.5 181,-56.5"/>
<text text-anchor="middle" x="242" y="-63.5" font-family="Helvetica,sans-Serif" font-size="10.00" fill="#000000">SurfaceTensionModel.H</text>
</a>
</g>
</g>
<!-- Node1&#45;&gt;Node2 -->
<g id="edge2" class="edge">
<title>Node1&#45;&gt;Node2</title>
<path fill="none" stroke="#191970" d="M242,-112.2455C242,-104.9382 242,-94.6944 242,-85.7046"/>
<polygon fill="#191970" stroke="#191970" points="245.5001,-85.6426 242,-75.6427 238.5001,-85.6427 245.5001,-85.6426"/>
</g>
<!-- Node3 -->
<g id="node4" class="node">
<title>Node3</title>
<polygon fill="none" stroke="#bfbfbf" points="0,-.5 0,-19.5 80,-19.5 80,-.5 0,-.5"/>
<text text-anchor="middle" x="40" y="-7.5" font-family="Helvetica,sans-Serif" font-size="10.00" fill="#000000">IOdictionary.H</text>
</g>
<!-- Node2&#45;&gt;Node3 -->
<g id="edge3" class="edge">
<title>Node2&#45;&gt;Node3</title>
<path fill="none" stroke="#191970" d="M207.275,-56.3733C173.2492,-46.9404 121.2563,-32.5265 84.2766,-22.2747"/>
<polygon fill="#191970" stroke="#191970" points="84.8435,-18.7999 74.2719,-19.5011 82.9734,-25.5455 84.8435,-18.7999"/>
</g>
<!-- Node4 -->
<g id="node5" class="node">
<title>Node4</title>
<polygon fill="none" stroke="#bfbfbf" points="98.5,-.5 98.5,-19.5 157.5,-19.5 157.5,-.5 98.5,-.5"/>
<text text-anchor="middle" x="128" y="-7.5" font-family="Helvetica,sans-Serif" font-size="10.00" fill="#000000">autoPtr.H</text>
</g>
<!-- Node2&#45;&gt;Node4 -->
<g id="edge4" class="edge">
<title>Node2&#45;&gt;Node4</title>
<path fill="none" stroke="#191970" d="M222.4027,-56.3733C204.2669,-47.4644 177.0865,-34.1127 156.5413,-24.0203"/>
<polygon fill="#191970" stroke="#191970" points="157.8603,-20.7688 147.3416,-19.5011 154.7739,-27.0517 157.8603,-20.7688"/>
</g>
<!-- Node5 -->
<g id="node6" class="node">
<title>Node5</title>
<polygon fill="none" stroke="#bfbfbf" points="176,-.5 176,-19.5 308,-19.5 308,-.5 176,-.5"/>
<text text-anchor="middle" x="242" y="-7.5" font-family="Helvetica,sans-Serif" font-size="10.00" fill="#000000">runTimeSelectionTables.H</text>
</g>
<!-- Node2&#45;&gt;Node5 -->
<g id="edge5" class="edge">
<title>Node2&#45;&gt;Node5</title>
<path fill="none" stroke="#191970" d="M242,-56.2455C242,-48.9382 242,-38.6944 242,-29.7046"/>
<polygon fill="#191970" stroke="#191970" points="245.5001,-29.6426 242,-19.6427 238.5001,-29.6427 245.5001,-29.6426"/>
</g>
<!-- Node6 -->
<g id="node7" class="node">
<title>Node6</title>
<polygon fill="none" stroke="#bfbfbf" points="326.5,-.5 326.5,-19.5 445.5,-19.5 445.5,-.5 326.5,-.5"/>
<text text-anchor="middle" x="386" y="-7.5" font-family="Helvetica,sans-Serif" font-size="10.00" fill="#000000">CloudSubModelBase.H</text>
</g>
<!-- Node2&#45;&gt;Node6 -->
<g id="edge6" class="edge">
<title>Node2&#45;&gt;Node6</title>
<path fill="none" stroke="#191970" d="M266.7545,-56.3733C290.2849,-47.2226 325.8687,-33.3844 352.0426,-23.2057"/>
<polygon fill="#191970" stroke="#191970" points="353.5171,-26.3877 361.5685,-19.5011 350.9799,-19.8636 353.5171,-26.3877"/>
</g>
<!-- Node7&#45;&gt;Node2 -->
<g id="edge8" class="edge">
<title>Node7&#45;&gt;Node2</title>
<path fill="none" stroke="#191970" d="M350.4803,-112.3733C329.2628,-103.3032 297.2724,-89.6279 273.5231,-79.4755"/>
<polygon fill="#191970" stroke="#191970" points="274.7967,-76.2136 264.2258,-75.5011 272.0452,-82.6502 274.7967,-76.2136"/>
</g>
<!-- Node8 -->
<g id="node9" class="node">
<title>Node8</title>
<g id="a_node9"><a xlink:href="lnInclude_2bubbleData_8H.html" target="_top" xlink:title="bubbleData.H">
<polygon fill="none" stroke="#000000" points="1271.5,-56.5 1271.5,-75.5 1348.5,-75.5 1348.5,-56.5 1271.5,-56.5"/>
<text text-anchor="middle" x="1310" y="-63.5" font-family="Helvetica,sans-Serif" font-size="10.00" fill="#000000">bubbleData.H</text>
</a>
</g>
</g>
<!-- Node7&#45;&gt;Node8 -->
<g id="edge9" class="edge">
<title>Node7&#45;&gt;Node8</title>
<path fill="none" stroke="#191970" d="M431.6135,-118.4969C603.1562,-108.2447 1102.0664,-78.4272 1260.8559,-68.9371"/>
<polygon fill="#191970" stroke="#191970" points="1261.4812,-72.4061 1271.2546,-68.3156 1261.0636,-65.4185 1261.4812,-72.4061"/>
</g>
<!-- Node9 -->
<g id="node10" class="node">
<title>Node9</title>
<polygon fill="none" stroke="#bfbfbf" points="463.5,-.5 463.5,-19.5 522.5,-19.5 522.5,-.5 463.5,-.5"/>
<text text-anchor="middle" x="493" y="-7.5" font-family="Helvetica,sans-Serif" font-size="10.00" fill="#000000">fvMesh.H</text>
</g>
<!-- Node8&#45;&gt;Node9 -->
<g id="edge10" class="edge">
<title>Node8&#45;&gt;Node9</title>
<path fill="none" stroke="#191970" d="M1271.4315,-64.7008C1138.1298,-60.0606 696.5835,-43.4055 533.0514,-19.8029"/>
<polygon fill="#191970" stroke="#191970" points="533.0986,-16.2705 522.6881,-18.2383 532.0535,-23.192 533.0986,-16.2705"/>
</g>
<!-- Node10 -->
<g id="node11" class="node">
<title>Node10</title>
<polygon fill="none" stroke="#bfbfbf" points="541,-.5 541,-19.5 607,-19.5 607,-.5 541,-.5"/>
<text text-anchor="middle" x="574" y="-7.5" font-family="Helvetica,sans-Serif" font-size="10.00" fill="#000000">fileName.H</text>
</g>
<!-- Node8&#45;&gt;Node10 -->
<g id="edge11" class="edge">
<title>Node8&#45;&gt;Node10</title>
<path fill="none" stroke="#191970" d="M1271.2946,-64.2908C1147.7128,-58.702 762.6834,-40.2419 617.4101,-19.9432"/>
<polygon fill="#191970" stroke="#191970" points="617.7722,-16.459 607.3716,-18.4786 616.7616,-23.3857 617.7722,-16.459"/>
</g>
<!-- Node11 -->
<g id="node12" class="node">
<title>Node11</title>
<polygon fill="none" stroke="#bfbfbf" points="625.5,-.5 625.5,-19.5 694.5,-19.5 694.5,-.5 625.5,-.5"/>
<text text-anchor="middle" x="660" y="-7.5" font-family="Helvetica,sans-Serif" font-size="10.00" fill="#000000">pointField.H</text>
</g>
<!-- Node8&#45;&gt;Node11 -->
<g id="edge12" class="edge">
<title>Node8&#45;&gt;Node11</title>
<path fill="none" stroke="#191970" d="M1271.4923,-65.0486C1176.7376,-62.2872 924.6245,-52.3903 705.075,-19.9508"/>
<polygon fill="#191970" stroke="#191970" points="705.3837,-16.4581 694.9758,-18.4391 704.3474,-23.381 705.3837,-16.4581"/>
</g>
<!-- Node12 -->
<g id="node13" class="node">
<title>Node12</title>
<polygon fill="none" stroke="#bfbfbf" points="713,-.5 713,-19.5 761,-19.5 761,-.5 713,-.5"/>
<text text-anchor="middle" x="737" y="-7.5" font-family="Helvetica,sans-Serif" font-size="10.00" fill="#000000">point.H</text>
</g>
<!-- Node8&#45;&gt;Node12 -->
<g id="edge13" class="edge">
<title>Node8&#45;&gt;Node12</title>
<path fill="none" stroke="#191970" d="M1271.3206,-65.4716C1183.6597,-63.6845 963.2058,-55.8732 771.0038,-19.8153"/>
<polygon fill="#191970" stroke="#191970" points="771.4835,-16.3437 761.0049,-17.9087 770.1723,-23.2199 771.4835,-16.3437"/>
</g>
<!-- Node13 -->
<g id="node14" class="node">
<title>Node13</title>
<polygon fill="none" stroke="#bfbfbf" points="779,-.5 779,-19.5 835,-19.5 835,-.5 779,-.5"/>
<text text-anchor="middle" x="807" y="-7.5" font-family="Helvetica,sans-Serif" font-size="10.00" fill="#000000">DLList.H</text>
</g>
<!-- Node8&#45;&gt;Node13 -->
<g id="edge14" class="edge">
<title>Node8&#45;&gt;Node13</title>
<path fill="none" stroke="#191970" d="M1271.3405,-64.3503C1192.7586,-60.5326 1008.6861,-49.2248 845.3995,-19.9899"/>
<polygon fill="#191970" stroke="#191970" points="845.6366,-16.4757 835.1717,-18.1299 844.3841,-23.3627 845.6366,-16.4757"/>
</g>
<!-- Node14 -->
<g id="node15" class="node">
<title>Node14</title>
<polygon fill="none" stroke="#bfbfbf" points="853.5,-.5 853.5,-19.5 938.5,-19.5 938.5,-.5 853.5,-.5"/>
<text text-anchor="middle" x="896" y="-7.5" font-family="Helvetica,sans-Serif" font-size="10.00" fill="#000000">sphereToCell.H</text>
</g>
<!-- Node8&#45;&gt;Node14 -->
<g id="edge15" class="edge">
<title>Node8&#45;&gt;Node14</title>
<path fill="none" stroke="#191970" d="M1271.4621,-61.9823C1206.783,-55.0513 1072.094,-39.8136 948.5493,-20.1695"/>
<polygon fill="#191970" stroke="#191970" points="948.9663,-16.6918 938.5382,-18.564 947.8578,-23.6034 948.9663,-16.6918"/>
</g>
<!-- Node15 -->
<g id="node16" class="node">
<title>Node15</title>
<polygon fill="none" stroke="#bfbfbf" points="956.5,-.5 956.5,-19.5 1013.5,-19.5 1013.5,-.5 956.5,-.5"/>
<text text-anchor="middle" x="985" y="-7.5" font-family="Helvetica,sans-Serif" font-size="10.00" fill="#000000">cellSet.H</text>
</g>
<!-- Node8&#45;&gt;Node15 -->
<g id="edge16" class="edge">
<title>Node8&#45;&gt;Node15</title>
<path fill="none" stroke="#191970" d="M1271.095,-61.1138C1217.4263,-54.0834 1117.5038,-39.9536 1023.5595,-20.1739"/>
<polygon fill="#191970" stroke="#191970" points="1024.1204,-16.7149 1013.6104,-18.0528 1022.6608,-23.5611 1024.1204,-16.7149"/>
</g>
<!-- Node16 -->
<g id="node17" class="node">
<title>Node16</title>
<polygon fill="none" stroke="#bfbfbf" points="1031.5,-.5 1031.5,-19.5 1114.5,-19.5 1114.5,-.5 1031.5,-.5"/>
<text text-anchor="middle" x="1073" y="-7.5" font-family="Helvetica,sans-Serif" font-size="10.00" fill="#000000">simpleMatrix.H</text>
</g>
<!-- Node8&#45;&gt;Node16 -->
<g id="edge17" class="edge">
<title>Node8&#45;&gt;Node16</title>
<path fill="none" stroke="#191970" d="M1271.3944,-56.878C1231.1161,-47.3608 1167.7866,-32.3968 1123.5455,-21.9432"/>
<polygon fill="#191970" stroke="#191970" points="1124.1113,-18.4806 1113.5744,-19.5872 1122.5016,-25.293 1124.1113,-18.4806"/>
</g>
<!-- Node17 -->
<g id="node18" class="node">
<title>Node17</title>
<polygon fill="none" stroke="#bfbfbf" points="1132.5,-.5 1132.5,-19.5 1263.5,-19.5 1263.5,-.5 1132.5,-.5"/>
<text text-anchor="middle" x="1198" y="-7.5" font-family="Helvetica,sans-Serif" font-size="10.00" fill="#000000">mathematicalConstants.H</text>
</g>
<!-- Node8&#45;&gt;Node17 -->
<g id="edge18" class="edge">
<title>Node8&#45;&gt;Node17</title>
<path fill="none" stroke="#191970" d="M1290.7465,-56.3733C1272.9288,-47.4644 1246.2253,-34.1127 1226.0406,-24.0203"/>
<polygon fill="#191970" stroke="#191970" points="1227.5118,-20.8428 1217.0022,-19.5011 1224.3813,-27.1038 1227.5118,-20.8428"/>
</g>
<!-- Node18 -->
<g id="node19" class="node">
<title>Node18</title>
<polygon fill="none" stroke="#bfbfbf" points="1282,-.5 1282,-19.5 1338,-19.5 1338,-.5 1282,-.5"/>
<text text-anchor="middle" x="1310" y="-7.5" font-family="Helvetica,sans-Serif" font-size="10.00" fill="#000000">fvCFD.H</text>
</g>
<!-- Node8&#45;&gt;Node18 -->
<g id="edge19" class="edge">
<title>Node8&#45;&gt;Node18</title>
<path fill="none" stroke="#191970" d="M1310,-56.2455C1310,-48.9382 1310,-38.6944 1310,-29.7046"/>
<polygon fill="#191970" stroke="#191970" points="1313.5001,-29.6426 1310,-19.6427 1306.5001,-29.6427 1313.5001,-29.6426"/>
</g>
<!-- Node19 -->
<g id="node20" class="node">
<title>Node19</title>
<polygon fill="none" stroke="#bfbfbf" points="1356,-.5 1356,-19.5 1422,-19.5 1422,-.5 1356,-.5"/>
<text text-anchor="middle" x="1389" y="-7.5" font-family="Helvetica,sans-Serif" font-size="10.00" fill="#000000">IFstream.H</text>
</g>
<!-- Node8&#45;&gt;Node19 -->
<g id="edge20" class="edge">
<title>Node8&#45;&gt;Node19</title>
<path fill="none" stroke="#191970" d="M1323.7607,-56.2455C1335.6552,-47.814 1353.065,-35.4729 1366.9085,-25.6598"/>
<polygon fill="#191970" stroke="#191970" points="1369.2628,-28.2811 1375.3969,-19.6427 1365.2146,-22.5704 1369.2628,-28.2811"/>
</g>
<!-- Node20 -->
<g id="node21" class="node">
<title>Node20</title>
<polygon fill="none" stroke="#bfbfbf" points="1440.5,-.5 1440.5,-19.5 1511.5,-19.5 1511.5,-.5 1440.5,-.5"/>
<text text-anchor="middle" x="1476" y="-7.5" font-family="Helvetica,sans-Serif" font-size="10.00" fill="#000000">OFstream.H</text>
</g>
<!-- Node8&#45;&gt;Node20 -->
<g id="edge21" class="edge">
<title>Node8&#45;&gt;Node20</title>
<path fill="none" stroke="#191970" d="M1338.5364,-56.3733C1366.0202,-47.1016 1407.7686,-33.0178 1438.0452,-22.804"/>
<polygon fill="#191970" stroke="#191970" points="1439.4794,-26.0141 1447.836,-19.5011 1437.2418,-19.3813 1439.4794,-26.0141"/>
</g>
<!-- Node21 -->
<g id="node22" class="node">
<title>Node21</title>
<polygon fill="none" stroke="#bfbfbf" points="1529.5,-.5 1529.5,-19.5 1616.5,-19.5 1616.5,-.5 1529.5,-.5"/>
<text text-anchor="middle" x="1573" y="-7.5" font-family="Helvetica,sans-Serif" font-size="10.00" fill="#000000">IStringStream.H</text>
</g>
<!-- Node8&#45;&gt;Node21 -->
<g id="edge22" class="edge">
<title>Node8&#45;&gt;Node21</title>
<path fill="none" stroke="#191970" d="M1348.5241,-57.7971C1393.6012,-48.199 1468.5209,-32.2465 1519.2895,-21.4365"/>
<polygon fill="#191970" stroke="#191970" points="1520.0534,-24.8523 1529.1052,-19.3464 1518.5956,-18.0058 1520.0534,-24.8523"/>
</g>
<!-- Node22 -->
<g id="node23" class="node">
<title>Node22</title>
<polygon fill="none" stroke="#bfbfbf" points="1635,-.5 1635,-19.5 1727,-19.5 1727,-.5 1635,-.5"/>
<text text-anchor="middle" x="1681" y="-7.5" font-family="Helvetica,sans-Serif" font-size="10.00" fill="#000000">OStringStream.H</text>
</g>
<!-- Node8&#45;&gt;Node22 -->
<g id="edge23" class="edge">
<title>Node8&#45;&gt;Node22</title>
<path fill="none" stroke="#191970" d="M1348.9867,-60.7758C1406.85,-52.9235 1519.1247,-37.31 1624.6209,-20.1828"/>
<polygon fill="#191970" stroke="#191970" points="1625.5011,-23.5856 1634.807,-18.5208 1624.3738,-16.6769 1625.5011,-23.5856"/>
</g>
<!-- Node23 -->
<g id="node24" class="node">
<title>Node23</title>
<polygon fill="none" stroke="#bfbfbf" points="1745,-.5 1745,-19.5 1795,-19.5 1795,-.5 1745,-.5"/>
<text text-anchor="middle" x="1770" y="-7.5" font-family="Helvetica,sans-Serif" font-size="10.00" fill="#000000">fstream</text>
</g>
<!-- Node8&#45;&gt;Node23 -->
<g id="edge24" class="edge">
<title>Node8&#45;&gt;Node23</title>
<path fill="none" stroke="#191970" d="M1348.5347,-64.1463C1422.0011,-60.1168 1587.1975,-48.6759 1734.7333,-19.9416"/>
<polygon fill="#191970" stroke="#191970" points="1735.7442,-23.3095 1744.8738,-17.9334 1734.3843,-16.4428 1735.7442,-23.3095"/>
</g>
<!-- Node24 -->
<g id="node25" class="node">
<title>Node24</title>
<polygon fill="none" stroke="#bfbfbf" points="1813,-.5 1813,-19.5 1867,-19.5 1867,-.5 1813,-.5"/>
<text text-anchor="middle" x="1840" y="-7.5" font-family="Helvetica,sans-Serif" font-size="10.00" fill="#000000">iostream</text>
</g>
<!-- Node8&#45;&gt;Node24 -->
<g id="edge25" class="edge">
<title>Node8&#45;&gt;Node24</title>
<path fill="none" stroke="#191970" d="M1348.7523,-64.7372C1430.9286,-61.5571 1628.7456,-51.2439 1803.1292,-19.8604"/>
<polygon fill="#191970" stroke="#191970" points="1803.7857,-23.2985 1812.9936,-18.0578 1802.5273,-16.4125 1803.7857,-23.2985"/>
</g>
<!-- Node25 -->
<g id="node26" class="node">
<title>Node25</title>
<polygon fill="none" stroke="#bfbfbf" points="1885.5,-.5 1885.5,-19.5 1926.5,-19.5 1926.5,-.5 1885.5,-.5"/>
<text text-anchor="middle" x="1906" y="-7.5" font-family="Helvetica,sans-Serif" font-size="10.00" fill="#000000">string</text>
</g>
<!-- Node8&#45;&gt;Node25 -->
<g id="edge26" class="edge">
<title>Node8&#45;&gt;Node25</title>
<path fill="none" stroke="#191970" d="M1348.8272,-64.0637C1456.3015,-58.5162 1757.0038,-41.6765 1875.3228,-19.5918"/>
<polygon fill="#191970" stroke="#191970" points="1876.0591,-23.0141 1885.1942,-17.6476 1874.7063,-16.1461 1876.0591,-23.0141"/>
</g>
<!-- Node26 -->
<g id="node27" class="node">
<title>Node26</title>
<polygon fill="none" stroke="#bfbfbf" points="1945,-.5 1945,-19.5 1989,-19.5 1989,-.5 1945,-.5"/>
<text text-anchor="middle" x="1967" y="-7.5" font-family="Helvetica,sans-Serif" font-size="10.00" fill="#000000">cmath</text>
</g>
<!-- Node8&#45;&gt;Node26 -->
<g id="edge27" class="edge">
<title>Node8&#45;&gt;Node26</title>
<path fill="none" stroke="#191970" d="M1348.6549,-64.3693C1463.7677,-59.3273 1803.9046,-43.0379 1934.6619,-19.7632"/>
<polygon fill="#191970" stroke="#191970" points="1935.6333,-23.1421 1944.8158,-17.857 1934.3417,-16.2623 1935.6333,-23.1421"/>
</g>
<!-- Node27 -->
<g id="node28" class="node">
<title>Node27</title>
<polygon fill="none" stroke="#bfbfbf" points="2007,-.5 2007,-19.5 2057,-19.5 2057,-.5 2007,-.5"/>
<text text-anchor="middle" x="2032" y="-7.5" font-family="Helvetica,sans-Serif" font-size="10.00" fill="#000000">iomanip</text>
</g>
<!-- Node8&#45;&gt;Node27 -->
<g id="edge28" class="edge">
<title>Node8&#45;&gt;Node27</title>
<path fill="none" stroke="#191970" d="M1348.8541,-64.5244C1471.9733,-59.6765 1853.2974,-43.2981 1996.9691,-19.7579"/>
<polygon fill="#191970" stroke="#191970" points="1997.6338,-23.195 2006.8959,-18.0507 1996.4474,-16.2963 1997.6338,-23.195"/>
</g>
<!-- Node28 -->
<g id="node29" class="node">
<title>Node28</title>
<g id="a_node29"><a xlink:href="lnInclude_2bubbleDataI_8H.html" target="_top" xlink:title="bubbleDataI.H">
<polygon fill="none" stroke="#000000" points="2075,-.5 2075,-19.5 2155,-19.5 2155,-.5 2075,-.5"/>
<text text-anchor="middle" x="2115" y="-7.5" font-family="Helvetica,sans-Serif" font-size="10.00" fill="#000000">bubbleDataI.H</text>
</a>
</g>
</g>
<!-- Node8&#45;&gt;Node28 -->
<g id="edge29" class="edge">
<title>Node8&#45;&gt;Node28</title>
<path fill="none" stroke="#191970" d="M1348.7346,-65.5612C1459.1705,-63.9033 1785.1242,-56.1805 2065.0288,-19.9484"/>
<polygon fill="#191970" stroke="#191970" points="2065.505,-23.416 2074.9661,-18.6474 2064.5963,-16.4752 2065.505,-23.416"/>
</g>
</g>
</svg>
