<?xml version="1.0" encoding="UTF-8" standalone="no"?>
<!DOCTYPE svg PUBLIC "-//W3C//DTD SVG 1.1//EN"
 "http://www.w3.org/Graphics/SVG/1.1/DTD/svg11.dtd">
<!-- Generated by graphviz version 2.40.1 (20161225.0304)
 -->
<!-- Title: parcels/Templates/FrontTrackingParcel/FrontTrackingParcel.C Pages: 1 -->
<svg width="703pt" height="274pt"
 viewBox="0.00 0.00 702.50 274.00" xmlns="http://www.w3.org/2000/svg" xmlns:xlink="http://www.w3.org/1999/xlink">
<g id="graph0" class="graph" transform="scale(1 1) rotate(0) translate(4 270)">
<title>parcels/Templates/FrontTrackingParcel/FrontTrackingParcel.C</title>
<!-- Node0 -->
<g id="node1" class="node">
<title>Node0</title>
<polygon fill="#bfbfbf" stroke="#000000" points="279.5,-235.5 279.5,-265.5 439.5,-265.5 439.5,-235.5 279.5,-235.5"/>
<text text-anchor="start" x="287.5" y="-253.5" font-family="Helvetica,sans-Serif" font-size="10.00" fill="#000000">parcels/Templates/FrontTracking</text>
<text text-anchor="middle" x="359.5" y="-242.5" font-family="Helvetica,sans-Serif" font-size="10.00" fill="#000000">Parcel/FrontTrackingParcel.C</text>
</g>
<!-- Node1 -->
<g id="node2" class="node">
<title>Node1</title>
<g id="a_node2"><a xlink:href="parcels_2Templates_2FrontTrackingParcel_2FrontTrackingParcel_8H.html" target="_top" xlink:title="FrontTrackingParcel.H">
<polygon fill="none" stroke="#000000" points="247,-123.5 247,-142.5 362,-142.5 362,-123.5 247,-123.5"/>
<text text-anchor="middle" x="304.5" y="-130.5" font-family="Helvetica,sans-Serif" font-size="10.00" fill="#000000">FrontTrackingParcel.H</text>
</a>
</g>
</g>
<!-- Node0&#45;&gt;Node1 -->
<g id="edge1" class="edge">
<title>Node0&#45;&gt;Node1</title>
<path fill="none" stroke="#191970" d="M352.3097,-235.1389C342.2654,-213.6806 324.0537,-174.7738 313.2393,-151.6702"/>
<polygon fill="#191970" stroke="#191970" points="316.384,-150.1326 308.9746,-142.5595 310.0442,-153.1002 316.384,-150.1326"/>
</g>
<!-- Node9 -->
<g id="node10" class="node">
<title>Node9</title>
<g id="a_node10"><a xlink:href="parcels_2Templates_2FrontTrackingParcel_2FrontTrackingParcelIO_8C.html" target="_top" xlink:title="FrontTrackingParcelIO.C">
<polygon fill="none" stroke="#000000" points="348,-179.5 348,-198.5 473,-198.5 473,-179.5 348,-179.5"/>
<text text-anchor="middle" x="410.5" y="-186.5" font-family="Helvetica,sans-Serif" font-size="10.00" fill="#000000">FrontTrackingParcelIO.C</text>
</a>
</g>
</g>
<!-- Node0&#45;&gt;Node9 -->
<g id="edge9" class="edge">
<title>Node0&#45;&gt;Node9</title>
<path fill="none" stroke="#191970" d="M372.1067,-235.2977C379.2598,-226.672 388.2497,-215.8312 395.7318,-206.8087"/>
<polygon fill="#191970" stroke="#191970" points="398.645,-208.7787 402.3343,-198.8469 393.2567,-204.3103 398.645,-208.7787"/>
</g>
<!-- Node2 -->
<g id="node3" class="node">
<title>Node2</title>
<polygon fill="none" stroke="#bfbfbf" points="0,-62 0,-81 59,-81 59,-62 0,-62"/>
<text text-anchor="middle" x="29.5" y="-69" font-family="Helvetica,sans-Serif" font-size="10.00" fill="#000000">particle.H</text>
</g>
<!-- Node1&#45;&gt;Node2 -->
<g id="edge2" class="edge">
<title>Node1&#45;&gt;Node2</title>
<path fill="none" stroke="#191970" d="M246.5573,-124.7868C198.3375,-117.2211 128.1816,-104.511 68.5,-87 66.0531,-86.282 63.5462,-85.4707 61.0416,-84.6049"/>
<polygon fill="#191970" stroke="#191970" points="62.117,-81.2708 51.5239,-81.0781 59.6847,-87.8347 62.117,-81.2708"/>
</g>
<!-- Node3 -->
<g id="node4" class="node">
<title>Node3</title>
<polygon fill="none" stroke="#bfbfbf" points="77.5,-62 77.5,-81 177.5,-81 177.5,-62 77.5,-62"/>
<text text-anchor="middle" x="127.5" y="-69" font-family="Helvetica,sans-Serif" font-size="10.00" fill="#000000">labelFieldIOField.H</text>
</g>
<!-- Node1&#45;&gt;Node3 -->
<g id="edge3" class="edge">
<title>Node1&#45;&gt;Node3</title>
<path fill="none" stroke="#191970" d="M276.8438,-123.3906C246.5789,-112.8749 197.9145,-95.966 164.4089,-84.3243"/>
<polygon fill="#191970" stroke="#191970" points="165.5569,-81.0179 154.962,-81.0419 163.2593,-87.6302 165.5569,-81.0179"/>
</g>
<!-- Node4 -->
<g id="node5" class="node">
<title>Node4</title>
<polygon fill="none" stroke="#bfbfbf" points="196,-62 196,-81 303,-81 303,-62 196,-62"/>
<text text-anchor="middle" x="249.5" y="-69" font-family="Helvetica,sans-Serif" font-size="10.00" fill="#000000">vectorFieldIOField.H</text>
</g>
<!-- Node1&#45;&gt;Node4 -->
<g id="edge4" class="edge">
<title>Node1&#45;&gt;Node4</title>
<path fill="none" stroke="#191970" d="M295.9063,-123.3906C287.6403,-114.1478 274.9574,-99.966 264.9383,-88.7628"/>
<polygon fill="#191970" stroke="#191970" points="267.49,-86.3657 258.2149,-81.2449 262.2722,-91.0321 267.49,-86.3657"/>
</g>
<!-- Node5 -->
<g id="node6" class="node">
<title>Node5</title>
<polygon fill="none" stroke="#bfbfbf" points="321,-62 321,-81 398,-81 398,-62 321,-62"/>
<text text-anchor="middle" x="359.5" y="-69" font-family="Helvetica,sans-Serif" font-size="10.00" fill="#000000">bubbleData.H</text>
</g>
<!-- Node1&#45;&gt;Node5 -->
<g id="edge5" class="edge">
<title>Node1&#45;&gt;Node5</title>
<path fill="none" stroke="#191970" d="M313.0938,-123.3906C321.3597,-114.1478 334.0426,-99.966 344.0617,-88.7628"/>
<polygon fill="#191970" stroke="#191970" points="346.7278,-91.0321 350.7851,-81.2449 341.51,-86.3657 346.7278,-91.0321"/>
</g>
<!-- Node6 -->
<g id="node7" class="node">
<title>Node6</title>
<g id="a_node7"><a xlink:href="parcels_2Templates_2FrontTrackingParcel_2FrontTrackingParcelI_8H.html" target="_top" xlink:title="FrontTrackingParcelI.H">
<polygon fill="none" stroke="#000000" points="416.5,-62 416.5,-81 534.5,-81 534.5,-62 416.5,-62"/>
<text text-anchor="middle" x="475.5" y="-69" font-family="Helvetica,sans-Serif" font-size="10.00" fill="#000000">FrontTrackingParcelI.H</text>
</a>
</g>
</g>
<!-- Node1&#45;&gt;Node6 -->
<g id="edge6" class="edge">
<title>Node1&#45;&gt;Node6</title>
<path fill="none" stroke="#191970" d="M331.2188,-123.3906C360.3321,-112.92 407.0692,-96.1111 439.4247,-84.4745"/>
<polygon fill="#191970" stroke="#191970" points="440.7435,-87.7197 448.9689,-81.0419 438.3744,-81.1328 440.7435,-87.7197"/>
</g>
<!-- Node7 -->
<g id="node8" class="node">
<title>Node7</title>
<g id="a_node8"><a xlink:href="parcels_2Templates_2FrontTrackingParcel_2FrontTrackingParcelTrackingDataI_8H.html" target="_top" xlink:title="FrontTrackingParcelTracking\lDataI.H">
<polygon fill="none" stroke="#000000" points="552.5,-56.5 552.5,-86.5 694.5,-86.5 694.5,-56.5 552.5,-56.5"/>
<text text-anchor="start" x="560.5" y="-74.5" font-family="Helvetica,sans-Serif" font-size="10.00" fill="#000000">FrontTrackingParcelTracking</text>
<text text-anchor="middle" x="623.5" y="-63.5" font-family="Helvetica,sans-Serif" font-size="10.00" fill="#000000">DataI.H</text>
</a>
</g>
</g>
<!-- Node1&#45;&gt;Node7 -->
<g id="edge7" class="edge">
<title>Node1&#45;&gt;Node7</title>
<path fill="none" stroke="#191970" d="M354.3985,-123.4147C400.5791,-114.5394 471.4361,-100.911 542.3908,-87.213"/>
<polygon fill="#191970" stroke="#191970" points="543.2458,-90.6126 552.4009,-85.2802 541.9187,-83.7396 543.2458,-90.6126"/>
</g>
<!-- Node8 -->
<g id="node9" class="node">
<title>Node8</title>
<polygon fill="none" stroke="#bfbfbf" points="572,-.5 572,-19.5 675,-19.5 675,-.5 572,-.5"/>
<text text-anchor="middle" x="623.5" y="-7.5" font-family="Helvetica,sans-Serif" font-size="10.00" fill="#000000">AveragingMethod.H</text>
</g>
<!-- Node7&#45;&gt;Node8 -->
<g id="edge8" class="edge">
<title>Node7&#45;&gt;Node8</title>
<path fill="none" stroke="#191970" d="M623.5,-56.2977C623.5,-48.3834 623.5,-38.6043 623.5,-30.0759"/>
<polygon fill="#191970" stroke="#191970" points="627.0001,-29.8469 623.5,-19.8469 620.0001,-29.847 627.0001,-29.8469"/>
</g>
<!-- Node9&#45;&gt;Node1 -->
<g id="edge10" class="edge">
<title>Node9&#45;&gt;Node1</title>
<path fill="none" stroke="#191970" d="M392.0362,-179.2455C375.3926,-170.4527 350.7007,-157.4079 331.7808,-147.4125"/>
<polygon fill="#191970" stroke="#191970" points="333.2291,-144.2193 322.7522,-142.6427 329.9592,-150.4086 333.2291,-144.2193"/>
</g>
<!-- Node10 -->
<g id="node11" class="node">
<title>Node10</title>
<polygon fill="none" stroke="#bfbfbf" points="380,-123.5 380,-142.5 453,-142.5 453,-123.5 380,-123.5"/>
<text text-anchor="middle" x="416.5" y="-130.5" font-family="Helvetica,sans-Serif" font-size="10.00" fill="#000000">IOstreams.H</text>
</g>
<!-- Node9&#45;&gt;Node10 -->
<g id="edge11" class="edge">
<title>Node9&#45;&gt;Node10</title>
<path fill="none" stroke="#191970" d="M411.5451,-179.2455C412.328,-171.9382 413.4256,-161.6944 414.3888,-152.7046"/>
<polygon fill="#191970" stroke="#191970" points="417.8815,-152.9587 415.4669,-142.6427 410.9214,-152.2129 417.8815,-152.9587"/>
</g>
<!-- Node11 -->
<g id="node12" class="node">
<title>Node11</title>
<polygon fill="none" stroke="#bfbfbf" points="471,-123.5 471,-142.5 530,-142.5 530,-123.5 471,-123.5"/>
<text text-anchor="middle" x="500.5" y="-130.5" font-family="Helvetica,sans-Serif" font-size="10.00" fill="#000000">IOField.H</text>
</g>
<!-- Node9&#45;&gt;Node11 -->
<g id="edge12" class="edge">
<title>Node9&#45;&gt;Node11</title>
<path fill="none" stroke="#191970" d="M426.1768,-179.2455C439.9856,-170.6534 460.3193,-158.0014 476.2292,-148.1018"/>
<polygon fill="#191970" stroke="#191970" points="478.3613,-150.8974 485.0028,-142.6427 474.6632,-144.954 478.3613,-150.8974"/>
</g>
</g>
</svg>
