<?xml version="1.0" encoding="UTF-8" standalone="no"?>
<!DOCTYPE svg PUBLIC "-//W3C//DTD SVG 1.1//EN"
 "http://www.w3.org/Graphics/SVG/1.1/DTD/svg11.dtd">
<!-- Generated by graphviz version 2.40.1 (20161225.0304)
 -->
<!-- Title: parcels/include/makeFrontTrackingParcelVolumeCorrectionModels.H Pages: 1 -->
<svg width="197pt" height="106pt"
 viewBox="0.00 0.00 197.00 106.00" xmlns="http://www.w3.org/2000/svg" xmlns:xlink="http://www.w3.org/1999/xlink">
<g id="graph0" class="graph" transform="scale(1 1) rotate(0) translate(4 102)">
<title>parcels/include/makeFrontTrackingParcelVolumeCorrectionModels.H</title>
<!-- Node0 -->
<g id="node1" class="node">
<title>Node0</title>
<polygon fill="#bfbfbf" stroke="#000000" points="29,-56.5 29,-97.5 189,-97.5 189,-56.5 29,-56.5"/>
<text text-anchor="start" x="37" y="-85.5" font-family="Helvetica,sans-Serif" font-size="10.00" fill="#000000">parcels/include/makeFront</text>
<text text-anchor="start" x="37" y="-74.5" font-family="Helvetica,sans-Serif" font-size="10.00" fill="#000000">TrackingParcelVolumeCorrection</text>
<text text-anchor="middle" x="109" y="-63.5" font-family="Helvetica,sans-Serif" font-size="10.00" fill="#000000">Models.H</text>
</g>
<!-- Node1 -->
<g id="node2" class="node">
<title>Node1</title>
<polygon fill="none" stroke="#bfbfbf" points="0,-.5 0,-19.5 118,-19.5 118,-.5 0,-.5"/>
<text text-anchor="middle" x="59" y="-7.5" font-family="Helvetica,sans-Serif" font-size="10.00" fill="#000000">NoVolumeCorrection.H</text>
</g>
<!-- Node0&#45;&gt;Node1 -->
<g id="edge1" class="edge">
<title>Node0&#45;&gt;Node1</title>
<path fill="none" stroke="#191970" d="M93.4538,-56.168C86.7304,-47.1587 78.9372,-36.7159 72.4651,-28.0432"/>
<polygon fill="#191970" stroke="#191970" points="75.0848,-25.7015 66.2989,-19.7805 69.4747,-29.8881 75.0848,-25.7015"/>
</g>
<!-- Node2 -->
<g id="node3" class="node">
<title>Node2</title>
<polygon fill="none" stroke="#bfbfbf" points="136.5,-.5 136.5,-19.5 183.5,-19.5 183.5,-.5 136.5,-.5"/>
<text text-anchor="middle" x="160" y="-7.5" font-family="Helvetica,sans-Serif" font-size="10.00" fill="#000000">VC2.H</text>
</g>
<!-- Node0&#45;&gt;Node2 -->
<g id="edge2" class="edge">
<title>Node0&#45;&gt;Node2</title>
<path fill="none" stroke="#191970" d="M124.8572,-56.168C131.7872,-47.0639 139.8315,-36.4959 146.4736,-27.7699"/>
<polygon fill="#191970" stroke="#191970" points="149.2832,-29.8574 152.5552,-19.7805 143.7133,-25.6176 149.2832,-29.8574"/>
</g>
</g>
</svg>
