<?xml version="1.0" encoding="UTF-8" standalone="no"?>
<!DOCTYPE svg PUBLIC "-//W3C//DTD SVG 1.1//EN"
 "http://www.w3.org/Graphics/SVG/1.1/DTD/svg11.dtd">
<!-- Generated by graphviz version 2.40.1 (20161225.0304)
 -->
<!-- Title: parcels/Templates/FrontTrackingParcel/FrontTrackingParcelIO.C Pages: 1 -->
<svg width="703pt" height="218pt"
 viewBox="0.00 0.00 702.50 218.00" xmlns="http://www.w3.org/2000/svg" xmlns:xlink="http://www.w3.org/1999/xlink">
<g id="graph0" class="graph" transform="scale(1 1) rotate(0) translate(4 214)">
<title>parcels/Templates/FrontTrackingParcel/FrontTrackingParcelIO.C</title>
<!-- Node0 -->
<g id="node1" class="node">
<title>Node0</title>
<polygon fill="#bfbfbf" stroke="#000000" points="336.5,-179.5 336.5,-209.5 496.5,-209.5 496.5,-179.5 336.5,-179.5"/>
<text text-anchor="start" x="344.5" y="-197.5" font-family="Helvetica,sans-Serif" font-size="10.00" fill="#000000">parcels/Templates/FrontTracking</text>
<text text-anchor="middle" x="416.5" y="-186.5" font-family="Helvetica,sans-Serif" font-size="10.00" fill="#000000">Parcel/FrontTrackingParcelIO.C</text>
</g>
<!-- Node1 -->
<g id="node2" class="node">
<title>Node1</title>
<g id="a_node2"><a xlink:href="parcels_2Templates_2FrontTrackingParcel_2FrontTrackingParcel_8H.html" target="_top" xlink:title="FrontTrackingParcel.H">
<polygon fill="none" stroke="#000000" points="247,-123.5 247,-142.5 362,-142.5 362,-123.5 247,-123.5"/>
<text text-anchor="middle" x="304.5" y="-130.5" font-family="Helvetica,sans-Serif" font-size="10.00" fill="#000000">FrontTrackingParcel.H</text>
</a>
</g>
</g>
<!-- Node0&#45;&gt;Node1 -->
<g id="edge1" class="edge">
<title>Node0&#45;&gt;Node1</title>
<path fill="none" stroke="#191970" d="M389.1017,-179.4554C371.3978,-169.734 348.4805,-157.15 330.9642,-147.5317"/>
<polygon fill="#191970" stroke="#191970" points="332.3061,-144.2756 321.856,-142.5303 328.9369,-150.4115 332.3061,-144.2756"/>
</g>
<!-- Node9 -->
<g id="node10" class="node">
<title>Node9</title>
<polygon fill="none" stroke="#bfbfbf" points="380,-123.5 380,-142.5 453,-142.5 453,-123.5 380,-123.5"/>
<text text-anchor="middle" x="416.5" y="-130.5" font-family="Helvetica,sans-Serif" font-size="10.00" fill="#000000">IOstreams.H</text>
</g>
<!-- Node0&#45;&gt;Node9 -->
<g id="edge9" class="edge">
<title>Node0&#45;&gt;Node9</title>
<path fill="none" stroke="#191970" d="M416.5,-179.2977C416.5,-171.3834 416.5,-161.6043 416.5,-153.0759"/>
<polygon fill="#191970" stroke="#191970" points="420.0001,-152.8469 416.5,-142.8469 413.0001,-152.847 420.0001,-152.8469"/>
</g>
<!-- Node10 -->
<g id="node11" class="node">
<title>Node10</title>
<polygon fill="none" stroke="#bfbfbf" points="471,-123.5 471,-142.5 530,-142.5 530,-123.5 471,-123.5"/>
<text text-anchor="middle" x="500.5" y="-130.5" font-family="Helvetica,sans-Serif" font-size="10.00" fill="#000000">IOField.H</text>
</g>
<!-- Node0&#45;&gt;Node10 -->
<g id="edge10" class="edge">
<title>Node0&#45;&gt;Node10</title>
<path fill="none" stroke="#191970" d="M437.2641,-179.2977C449.8958,-170.0495 466.0053,-158.2551 478.8031,-148.8853"/>
<polygon fill="#191970" stroke="#191970" points="481.0495,-151.5784 487.0505,-142.8469 476.9143,-145.9303 481.0495,-151.5784"/>
</g>
<!-- Node2 -->
<g id="node3" class="node">
<title>Node2</title>
<polygon fill="none" stroke="#bfbfbf" points="0,-62 0,-81 59,-81 59,-62 0,-62"/>
<text text-anchor="middle" x="29.5" y="-69" font-family="Helvetica,sans-Serif" font-size="10.00" fill="#000000">particle.H</text>
</g>
<!-- Node1&#45;&gt;Node2 -->
<g id="edge2" class="edge">
<title>Node1&#45;&gt;Node2</title>
<path fill="none" stroke="#191970" d="M246.5573,-124.7868C198.3375,-117.2211 128.1816,-104.511 68.5,-87 66.0531,-86.282 63.5462,-85.4707 61.0416,-84.6049"/>
<polygon fill="#191970" stroke="#191970" points="62.117,-81.2708 51.5239,-81.0781 59.6847,-87.8347 62.117,-81.2708"/>
</g>
<!-- Node3 -->
<g id="node4" class="node">
<title>Node3</title>
<polygon fill="none" stroke="#bfbfbf" points="77.5,-62 77.5,-81 177.5,-81 177.5,-62 77.5,-62"/>
<text text-anchor="middle" x="127.5" y="-69" font-family="Helvetica,sans-Serif" font-size="10.00" fill="#000000">labelFieldIOField.H</text>
</g>
<!-- Node1&#45;&gt;Node3 -->
<g id="edge3" class="edge">
<title>Node1&#45;&gt;Node3</title>
<path fill="none" stroke="#191970" d="M276.8438,-123.3906C246.5789,-112.8749 197.9145,-95.966 164.4089,-84.3243"/>
<polygon fill="#191970" stroke="#191970" points="165.5569,-81.0179 154.962,-81.0419 163.2593,-87.6302 165.5569,-81.0179"/>
</g>
<!-- Node4 -->
<g id="node5" class="node">
<title>Node4</title>
<polygon fill="none" stroke="#bfbfbf" points="196,-62 196,-81 303,-81 303,-62 196,-62"/>
<text text-anchor="middle" x="249.5" y="-69" font-family="Helvetica,sans-Serif" font-size="10.00" fill="#000000">vectorFieldIOField.H</text>
</g>
<!-- Node1&#45;&gt;Node4 -->
<g id="edge4" class="edge">
<title>Node1&#45;&gt;Node4</title>
<path fill="none" stroke="#191970" d="M295.9063,-123.3906C287.6403,-114.1478 274.9574,-99.966 264.9383,-88.7628"/>
<polygon fill="#191970" stroke="#191970" points="267.49,-86.3657 258.2149,-81.2449 262.2722,-91.0321 267.49,-86.3657"/>
</g>
<!-- Node5 -->
<g id="node6" class="node">
<title>Node5</title>
<polygon fill="none" stroke="#bfbfbf" points="321,-62 321,-81 398,-81 398,-62 321,-62"/>
<text text-anchor="middle" x="359.5" y="-69" font-family="Helvetica,sans-Serif" font-size="10.00" fill="#000000">bubbleData.H</text>
</g>
<!-- Node1&#45;&gt;Node5 -->
<g id="edge5" class="edge">
<title>Node1&#45;&gt;Node5</title>
<path fill="none" stroke="#191970" d="M313.0938,-123.3906C321.3597,-114.1478 334.0426,-99.966 344.0617,-88.7628"/>
<polygon fill="#191970" stroke="#191970" points="346.7278,-91.0321 350.7851,-81.2449 341.51,-86.3657 346.7278,-91.0321"/>
</g>
<!-- Node6 -->
<g id="node7" class="node">
<title>Node6</title>
<g id="a_node7"><a xlink:href="parcels_2Templates_2FrontTrackingParcel_2FrontTrackingParcelI_8H.html" target="_top" xlink:title="FrontTrackingParcelI.H">
<polygon fill="none" stroke="#000000" points="416.5,-62 416.5,-81 534.5,-81 534.5,-62 416.5,-62"/>
<text text-anchor="middle" x="475.5" y="-69" font-family="Helvetica,sans-Serif" font-size="10.00" fill="#000000">FrontTrackingParcelI.H</text>
</a>
</g>
</g>
<!-- Node1&#45;&gt;Node6 -->
<g id="edge6" class="edge">
<title>Node1&#45;&gt;Node6</title>
<path fill="none" stroke="#191970" d="M331.2188,-123.3906C360.3321,-112.92 407.0692,-96.1111 439.4247,-84.4745"/>
<polygon fill="#191970" stroke="#191970" points="440.7435,-87.7197 448.9689,-81.0419 438.3744,-81.1328 440.7435,-87.7197"/>
</g>
<!-- Node7 -->
<g id="node8" class="node">
<title>Node7</title>
<g id="a_node8"><a xlink:href="parcels_2Templates_2FrontTrackingParcel_2FrontTrackingParcelTrackingDataI_8H.html" target="_top" xlink:title="FrontTrackingParcelTracking\lDataI.H">
<polygon fill="none" stroke="#000000" points="552.5,-56.5 552.5,-86.5 694.5,-86.5 694.5,-56.5 552.5,-56.5"/>
<text text-anchor="start" x="560.5" y="-74.5" font-family="Helvetica,sans-Serif" font-size="10.00" fill="#000000">FrontTrackingParcelTracking</text>
<text text-anchor="middle" x="623.5" y="-63.5" font-family="Helvetica,sans-Serif" font-size="10.00" fill="#000000">DataI.H</text>
</a>
</g>
</g>
<!-- Node1&#45;&gt;Node7 -->
<g id="edge7" class="edge">
<title>Node1&#45;&gt;Node7</title>
<path fill="none" stroke="#191970" d="M354.3985,-123.4147C400.5791,-114.5394 471.4361,-100.911 542.3908,-87.213"/>
<polygon fill="#191970" stroke="#191970" points="543.2458,-90.6126 552.4009,-85.2802 541.9187,-83.7396 543.2458,-90.6126"/>
</g>
<!-- Node8 -->
<g id="node9" class="node">
<title>Node8</title>
<polygon fill="none" stroke="#bfbfbf" points="572,-.5 572,-19.5 675,-19.5 675,-.5 572,-.5"/>
<text text-anchor="middle" x="623.5" y="-7.5" font-family="Helvetica,sans-Serif" font-size="10.00" fill="#000000">AveragingMethod.H</text>
</g>
<!-- Node7&#45;&gt;Node8 -->
<g id="edge8" class="edge">
<title>Node7&#45;&gt;Node8</title>
<path fill="none" stroke="#191970" d="M623.5,-56.2977C623.5,-48.3834 623.5,-38.6043 623.5,-30.0759"/>
<polygon fill="#191970" stroke="#191970" points="627.0001,-29.8469 623.5,-19.8469 620.0001,-29.847 627.0001,-29.8469"/>
</g>
</g>
</svg>
