<?xml version="1.0" encoding="UTF-8" standalone="no"?>
<!DOCTYPE svg PUBLIC "-//W3C//DTD SVG 1.1//EN"
 "http://www.w3.org/Graphics/SVG/1.1/DTD/svg11.dtd">
<!-- Generated by graphviz version 2.40.1 (20161225.0304)
 -->
<!-- Title: parcels/Templates/FrontTrackingParcel/FrontTrackingParcelTrackingDataI.H Pages: 1 -->
<svg width="558pt" height="318pt"
 viewBox="0.00 0.00 557.50 318.00" xmlns="http://www.w3.org/2000/svg" xmlns:xlink="http://www.w3.org/1999/xlink">
<g id="graph0" class="graph" transform="scale(1 1) rotate(0) translate(4 314)">
<title>parcels/Templates/FrontTrackingParcel/FrontTrackingParcelTrackingDataI.H</title>
<!-- Node2 -->
<g id="node1" class="node">
<title>Node2</title>
<polygon fill="#bfbfbf" stroke="#000000" points="139,-268.5 139,-309.5 312,-309.5 312,-268.5 139,-268.5"/>
<text text-anchor="start" x="147" y="-297.5" font-family="Helvetica,sans-Serif" font-size="10.00" fill="#000000">parcels/Templates/FrontTracking</text>
<text text-anchor="start" x="147" y="-286.5" font-family="Helvetica,sans-Serif" font-size="10.00" fill="#000000">Parcel/FrontTrackingParcelTracking</text>
<text text-anchor="middle" x="225.5" y="-275.5" font-family="Helvetica,sans-Serif" font-size="10.00" fill="#000000">DataI.H</text>
</g>
<!-- Node3 -->
<g id="node2" class="node">
<title>Node3</title>
<g id="a_node2"><a xlink:href="parcels_2Templates_2FrontTrackingParcel_2FrontTrackingParcel_8H.html" target="_top" xlink:title="parcels/Templates/FrontTracking\lParcel/FrontTrackingParcel.H">
<polygon fill="none" stroke="#000000" points="145.5,-201.5 145.5,-231.5 305.5,-231.5 305.5,-201.5 145.5,-201.5"/>
<text text-anchor="start" x="153.5" y="-219.5" font-family="Helvetica,sans-Serif" font-size="10.00" fill="#000000">parcels/Templates/FrontTracking</text>
<text text-anchor="middle" x="225.5" y="-208.5" font-family="Helvetica,sans-Serif" font-size="10.00" fill="#000000">Parcel/FrontTrackingParcel.H</text>
</a>
</g>
</g>
<!-- Node2&#45;&gt;Node3 -->
<g id="edge1" class="edge">
<title>Node2&#45;&gt;Node3</title>
<path fill="none" stroke="#191970" d="M225.5,-258.3279C225.5,-249.0871 225.5,-239.3508 225.5,-231.5991"/>
<polygon fill="#191970" stroke="#191970" points="222.0001,-258.4183 225.5,-268.4183 229.0001,-258.4184 222.0001,-258.4183"/>
</g>
<!-- Node4 -->
<g id="node3" class="node">
<title>Node4</title>
<g id="a_node3"><a xlink:href="parcels_2derived_2frontTrackingParcel_2frontTrackingParcel_8H.html" target="_top" xlink:title="parcels/derived/frontTracking\lParcel/frontTrackingParcel.H">
<polygon fill="none" stroke="#000000" points="0,-134.5 0,-164.5 143,-164.5 143,-134.5 0,-134.5"/>
<text text-anchor="start" x="8" y="-152.5" font-family="Helvetica,sans-Serif" font-size="10.00" fill="#000000">parcels/derived/frontTracking</text>
<text text-anchor="middle" x="71.5" y="-141.5" font-family="Helvetica,sans-Serif" font-size="10.00" fill="#000000">Parcel/frontTrackingParcel.H</text>
</a>
</g>
</g>
<!-- Node3&#45;&gt;Node4 -->
<g id="edge2" class="edge">
<title>Node3&#45;&gt;Node4</title>
<path fill="none" stroke="#191970" d="M181.7171,-197.4516C157.7841,-187.0392 128.5545,-174.3224 106.2113,-164.6017"/>
<polygon fill="#191970" stroke="#191970" points="180.3733,-200.6838 190.9394,-201.4639 183.166,-194.265 180.3733,-200.6838"/>
</g>
<!-- Node7 -->
<g id="node6" class="node">
<title>Node7</title>
<g id="a_node6"><a xlink:href="parcels_2Templates_2FrontTrackingParcel_2FrontTrackingParcel_8C.html" target="_top" xlink:title="parcels/Templates/FrontTracking\lParcel/FrontTrackingParcel.C">
<polygon fill="none" stroke="#000000" points="179.5,-67.5 179.5,-97.5 339.5,-97.5 339.5,-67.5 179.5,-67.5"/>
<text text-anchor="start" x="187.5" y="-85.5" font-family="Helvetica,sans-Serif" font-size="10.00" fill="#000000">parcels/Templates/FrontTracking</text>
<text text-anchor="middle" x="259.5" y="-74.5" font-family="Helvetica,sans-Serif" font-size="10.00" fill="#000000">Parcel/FrontTrackingParcel.C</text>
</a>
</g>
</g>
<!-- Node3&#45;&gt;Node7 -->
<g id="edge5" class="edge">
<title>Node3&#45;&gt;Node7</title>
<path fill="none" stroke="#191970" d="M204.5736,-193.2089C192.2019,-176.4849 180.7008,-153.5417 190.5,-134 198.4065,-118.2327 213.6842,-106.0591 227.8579,-97.5161"/>
<polygon fill="#191970" stroke="#191970" points="202.0605,-195.6729 211.0144,-201.3366 207.5467,-191.3253 202.0605,-195.6729"/>
</g>
<!-- Node8 -->
<g id="node7" class="node">
<title>Node8</title>
<g id="a_node7"><a xlink:href="parcels_2Templates_2FrontTrackingParcel_2FrontTrackingParcelIO_8C.html" target="_top" xlink:title="parcels/Templates/FrontTracking\lParcel/FrontTrackingParcelIO.C">
<polygon fill="none" stroke="#000000" points="199.5,-134.5 199.5,-164.5 359.5,-164.5 359.5,-134.5 199.5,-134.5"/>
<text text-anchor="start" x="207.5" y="-152.5" font-family="Helvetica,sans-Serif" font-size="10.00" fill="#000000">parcels/Templates/FrontTracking</text>
<text text-anchor="middle" x="279.5" y="-141.5" font-family="Helvetica,sans-Serif" font-size="10.00" fill="#000000">Parcel/FrontTrackingParcelIO.C</text>
</a>
</g>
</g>
<!-- Node3&#45;&gt;Node8 -->
<g id="edge6" class="edge">
<title>Node3&#45;&gt;Node8</title>
<path fill="none" stroke="#191970" d="M244.1575,-193.3509C251.8164,-183.8482 260.4685,-173.1132 267.2951,-164.6432"/>
<polygon fill="#191970" stroke="#191970" points="241.3036,-191.3143 237.7534,-201.2967 246.7538,-195.707 241.3036,-191.3143"/>
</g>
<!-- Node9 -->
<g id="node8" class="node">
<title>Node9</title>
<g id="a_node8"><a xlink:href="parcels_2Templates_2FrontTrackingParcel_2FrontTrackingParcelName_8C.html" target="_top" xlink:title="parcels/Templates/FrontTracking\lParcel/FrontTrackingParcelName.C">
<polygon fill="none" stroke="#000000" points="377.5,-134.5 377.5,-164.5 549.5,-164.5 549.5,-134.5 377.5,-134.5"/>
<text text-anchor="start" x="385.5" y="-152.5" font-family="Helvetica,sans-Serif" font-size="10.00" fill="#000000">parcels/Templates/FrontTracking</text>
<text text-anchor="middle" x="463.5" y="-141.5" font-family="Helvetica,sans-Serif" font-size="10.00" fill="#000000">Parcel/FrontTrackingParcelName.C</text>
</a>
</g>
</g>
<!-- Node3&#45;&gt;Node9 -->
<g id="edge8" class="edge">
<title>Node3&#45;&gt;Node9</title>
<path fill="none" stroke="#191970" d="M288.7858,-198.6842C326.5371,-188.0568 373.9498,-174.7095 409.8552,-164.6017"/>
<polygon fill="#191970" stroke="#191970" points="287.5892,-195.385 278.9118,-201.4639 289.4862,-202.1231 287.5892,-195.385"/>
</g>
<!-- Node5 -->
<g id="node4" class="node">
<title>Node5</title>
<g id="a_node4"><a xlink:href="clouds_2derived_2frontTrackingCloud_2frontTrackingCloud_8H.html" target="_top" xlink:title="clouds/derived/frontTracking\lCloud/frontTrackingCloud.H">
<polygon fill="none" stroke="#000000" points="1.5,-67.5 1.5,-97.5 141.5,-97.5 141.5,-67.5 1.5,-67.5"/>
<text text-anchor="start" x="9.5" y="-85.5" font-family="Helvetica,sans-Serif" font-size="10.00" fill="#000000">clouds/derived/frontTracking</text>
<text text-anchor="middle" x="71.5" y="-74.5" font-family="Helvetica,sans-Serif" font-size="10.00" fill="#000000">Cloud/frontTrackingCloud.H</text>
</a>
</g>
</g>
<!-- Node4&#45;&gt;Node5 -->
<g id="edge3" class="edge">
<title>Node4&#45;&gt;Node5</title>
<path fill="none" stroke="#191970" d="M71.5,-124.0249C71.5,-115.128 71.5,-105.4287 71.5,-97.6432"/>
<polygon fill="#191970" stroke="#191970" points="68.0001,-124.2966 71.5,-134.2967 75.0001,-124.2967 68.0001,-124.2966"/>
</g>
<!-- Node6 -->
<g id="node5" class="node">
<title>Node6</title>
<g id="a_node5"><a xlink:href="clouds_2derived_2frontTrackingCloud_2frontTrackingCloud_8C.html" target="_top" xlink:title="clouds/derived/frontTracking\lCloud/frontTrackingCloud.C">
<polygon fill="none" stroke="#000000" points="1.5,-.5 1.5,-30.5 141.5,-30.5 141.5,-.5 1.5,-.5"/>
<text text-anchor="start" x="9.5" y="-18.5" font-family="Helvetica,sans-Serif" font-size="10.00" fill="#000000">clouds/derived/frontTracking</text>
<text text-anchor="middle" x="71.5" y="-7.5" font-family="Helvetica,sans-Serif" font-size="10.00" fill="#000000">Cloud/frontTrackingCloud.C</text>
</a>
</g>
</g>
<!-- Node5&#45;&gt;Node6 -->
<g id="edge4" class="edge">
<title>Node5&#45;&gt;Node6</title>
<path fill="none" stroke="#191970" d="M71.5,-57.0249C71.5,-48.128 71.5,-38.4287 71.5,-30.6432"/>
<polygon fill="#191970" stroke="#191970" points="68.0001,-57.2966 71.5,-67.2967 75.0001,-57.2967 68.0001,-57.2966"/>
</g>
<!-- Node8&#45;&gt;Node7 -->
<g id="edge7" class="edge">
<title>Node8&#45;&gt;Node7</title>
<path fill="none" stroke="#191970" d="M272.0702,-124.6103C269.3672,-115.5553 266.3955,-105.5998 264.0203,-97.6432"/>
<polygon fill="#191970" stroke="#191970" points="268.7475,-125.7156 274.9617,-134.2967 275.455,-123.7133 268.7475,-125.7156"/>
</g>
</g>
</svg>
