<?xml version="1.0" encoding="UTF-8" standalone="no"?>
<!DOCTYPE svg PUBLIC "-//W3C//DTD SVG 1.1//EN"
 "http://www.w3.org/Graphics/SVG/1.1/DTD/svg11.dtd">
<!-- Generated by graphviz version 2.40.1 (20161225.0304)
 -->
<!-- Title: parcels/Templates/FrontTrackingParcel/FrontTrackingParcel.H Pages: 1 -->
<svg width="703pt" height="162pt"
 viewBox="0.00 0.00 702.50 162.00" xmlns="http://www.w3.org/2000/svg" xmlns:xlink="http://www.w3.org/1999/xlink">
<g id="graph0" class="graph" transform="scale(1 1) rotate(0) translate(4 158)">
<title>parcels/Templates/FrontTrackingParcel/FrontTrackingParcel.H</title>
<!-- Node0 -->
<g id="node1" class="node">
<title>Node0</title>
<polygon fill="#bfbfbf" stroke="#000000" points="224.5,-123.5 224.5,-153.5 384.5,-153.5 384.5,-123.5 224.5,-123.5"/>
<text text-anchor="start" x="232.5" y="-141.5" font-family="Helvetica,sans-Serif" font-size="10.00" fill="#000000">parcels/Templates/FrontTracking</text>
<text text-anchor="middle" x="304.5" y="-130.5" font-family="Helvetica,sans-Serif" font-size="10.00" fill="#000000">Parcel/FrontTrackingParcel.H</text>
</g>
<!-- Node1 -->
<g id="node2" class="node">
<title>Node1</title>
<polygon fill="none" stroke="#bfbfbf" points="0,-62 0,-81 59,-81 59,-62 0,-62"/>
<text text-anchor="middle" x="29.5" y="-69" font-family="Helvetica,sans-Serif" font-size="10.00" fill="#000000">particle.H</text>
</g>
<!-- Node0&#45;&gt;Node1 -->
<g id="edge1" class="edge">
<title>Node0&#45;&gt;Node1</title>
<path fill="none" stroke="#191970" d="M224.4598,-124.4104C178.3744,-115.4617 119.6347,-102.626 68.5,-87 66.2071,-86.2993 63.8593,-85.5227 61.5086,-84.7012"/>
<polygon fill="#191970" stroke="#191970" points="62.5547,-81.3561 51.9619,-81.1512 60.1149,-87.9172 62.5547,-81.3561"/>
</g>
<!-- Node2 -->
<g id="node3" class="node">
<title>Node2</title>
<polygon fill="none" stroke="#bfbfbf" points="77.5,-62 77.5,-81 177.5,-81 177.5,-62 77.5,-62"/>
<text text-anchor="middle" x="127.5" y="-69" font-family="Helvetica,sans-Serif" font-size="10.00" fill="#000000">labelFieldIOField.H</text>
</g>
<!-- Node0&#45;&gt;Node2 -->
<g id="edge2" class="edge">
<title>Node0&#45;&gt;Node2</title>
<path fill="none" stroke="#191970" d="M264.7777,-123.4639C233.9176,-111.7824 191.55,-95.7449 162.0767,-84.5884"/>
<polygon fill="#191970" stroke="#191970" points="163.2025,-81.2722 152.611,-81.0053 160.7243,-87.8189 163.2025,-81.2722"/>
</g>
<!-- Node3 -->
<g id="node4" class="node">
<title>Node3</title>
<polygon fill="none" stroke="#bfbfbf" points="196,-62 196,-81 303,-81 303,-62 196,-62"/>
<text text-anchor="middle" x="249.5" y="-69" font-family="Helvetica,sans-Serif" font-size="10.00" fill="#000000">vectorFieldIOField.H</text>
</g>
<!-- Node0&#45;&gt;Node3 -->
<g id="edge3" class="edge">
<title>Node0&#45;&gt;Node3</title>
<path fill="none" stroke="#191970" d="M292.0196,-123.2967C283.6168,-113.0605 272.5151,-99.5366 263.7627,-88.8746"/>
<polygon fill="#191970" stroke="#191970" points="266.3939,-86.5635 257.3436,-81.055 260.9833,-91.005 266.3939,-86.5635"/>
</g>
<!-- Node4 -->
<g id="node5" class="node">
<title>Node4</title>
<polygon fill="none" stroke="#bfbfbf" points="321,-62 321,-81 398,-81 398,-62 321,-62"/>
<text text-anchor="middle" x="359.5" y="-69" font-family="Helvetica,sans-Serif" font-size="10.00" fill="#000000">bubbleData.H</text>
</g>
<!-- Node0&#45;&gt;Node4 -->
<g id="edge4" class="edge">
<title>Node0&#45;&gt;Node4</title>
<path fill="none" stroke="#191970" d="M316.9804,-123.2967C325.3832,-113.0605 336.4849,-99.5366 345.2373,-88.8746"/>
<polygon fill="#191970" stroke="#191970" points="348.0167,-91.005 351.6564,-81.055 342.6061,-86.5635 348.0167,-91.005"/>
</g>
<!-- Node5 -->
<g id="node6" class="node">
<title>Node5</title>
<g id="a_node6"><a xlink:href="parcels_2Templates_2FrontTrackingParcel_2FrontTrackingParcelI_8H.html" target="_top" xlink:title="FrontTrackingParcelI.H">
<polygon fill="none" stroke="#000000" points="416.5,-62 416.5,-81 534.5,-81 534.5,-62 416.5,-62"/>
<text text-anchor="middle" x="475.5" y="-69" font-family="Helvetica,sans-Serif" font-size="10.00" fill="#000000">FrontTrackingParcelI.H</text>
</a>
</g>
</g>
<!-- Node0&#45;&gt;Node5 -->
<g id="edge5" class="edge">
<title>Node0&#45;&gt;Node5</title>
<path fill="none" stroke="#191970" d="M342.8757,-123.4639C372.472,-111.8677 413.024,-95.9789 441.4696,-84.8335"/>
<polygon fill="#191970" stroke="#191970" points="442.9545,-88.0109 450.9885,-81.1039 440.4008,-81.4933 442.9545,-88.0109"/>
</g>
<!-- Node6 -->
<g id="node7" class="node">
<title>Node6</title>
<g id="a_node7"><a xlink:href="parcels_2Templates_2FrontTrackingParcel_2FrontTrackingParcelTrackingDataI_8H.html" target="_top" xlink:title="FrontTrackingParcelTracking\lDataI.H">
<polygon fill="none" stroke="#000000" points="552.5,-56.5 552.5,-86.5 694.5,-86.5 694.5,-56.5 552.5,-56.5"/>
<text text-anchor="start" x="560.5" y="-74.5" font-family="Helvetica,sans-Serif" font-size="10.00" fill="#000000">FrontTrackingParcelTracking</text>
<text text-anchor="middle" x="623.5" y="-63.5" font-family="Helvetica,sans-Serif" font-size="10.00" fill="#000000">DataI.H</text>
</a>
</g>
</g>
<!-- Node0&#45;&gt;Node6 -->
<g id="edge6" class="edge">
<title>Node0&#45;&gt;Node6</title>
<path fill="none" stroke="#191970" d="M376.0898,-123.4639C425.4291,-113.1011 491.0897,-99.3103 542.3692,-88.54"/>
<polygon fill="#191970" stroke="#191970" points="543.3571,-91.909 552.4242,-86.4281 541.9183,-85.0584 543.3571,-91.909"/>
</g>
<!-- Node7 -->
<g id="node8" class="node">
<title>Node7</title>
<polygon fill="none" stroke="#bfbfbf" points="572,-.5 572,-19.5 675,-19.5 675,-.5 572,-.5"/>
<text text-anchor="middle" x="623.5" y="-7.5" font-family="Helvetica,sans-Serif" font-size="10.00" fill="#000000">AveragingMethod.H</text>
</g>
<!-- Node6&#45;&gt;Node7 -->
<g id="edge7" class="edge">
<title>Node6&#45;&gt;Node7</title>
<path fill="none" stroke="#191970" d="M623.5,-56.2977C623.5,-48.3834 623.5,-38.6043 623.5,-30.0759"/>
<polygon fill="#191970" stroke="#191970" points="627.0001,-29.8469 623.5,-19.8469 620.0001,-29.847 627.0001,-29.8469"/>
</g>
</g>
</svg>
