<?xml version="1.0" encoding="UTF-8" standalone="no"?>
<!DOCTYPE svg PUBLIC "-//W3C//DTD SVG 1.1//EN"
 "http://www.w3.org/Graphics/SVG/1.1/DTD/svg11.dtd">
<!-- Generated by graphviz version 2.40.1 (20161225.0304)
 -->
<!-- Title: parcels/include/makeFrontTrackingParcelFrontToFieldModels.H Pages: 1 -->
<svg width="249pt" height="95pt"
 viewBox="0.00 0.00 249.00 95.00" xmlns="http://www.w3.org/2000/svg" xmlns:xlink="http://www.w3.org/1999/xlink">
<g id="graph0" class="graph" transform="scale(1 1) rotate(0) translate(4 91)">
<title>parcels/include/makeFrontTrackingParcelFrontToFieldModels.H</title>
<!-- Node0 -->
<g id="node1" class="node">
<title>Node0</title>
<polygon fill="#bfbfbf" stroke="#000000" points="55,-56.5 55,-86.5 234,-86.5 234,-56.5 55,-56.5"/>
<text text-anchor="start" x="63" y="-74.5" font-family="Helvetica,sans-Serif" font-size="10.00" fill="#000000">parcels/include/makeFront</text>
<text text-anchor="middle" x="144.5" y="-63.5" font-family="Helvetica,sans-Serif" font-size="10.00" fill="#000000">TrackingParcelFrontToFieldModels.H</text>
</g>
<!-- Node1 -->
<g id="node2" class="node">
<title>Node1</title>
<polygon fill="none" stroke="#bfbfbf" points="0,-.5 0,-19.5 95,-19.5 95,-.5 0,-.5"/>
<text text-anchor="middle" x="47.5" y="-7.5" font-family="Helvetica,sans-Serif" font-size="10.00" fill="#000000">NoFrontToField.H</text>
</g>
<!-- Node0&#45;&gt;Node1 -->
<g id="edge1" class="edge">
<title>Node0&#45;&gt;Node1</title>
<path fill="none" stroke="#191970" d="M120.5225,-56.2977C105.5624,-46.8127 86.378,-34.6495 71.4274,-25.1705"/>
<polygon fill="#191970" stroke="#191970" points="73.061,-22.062 62.7413,-19.6633 69.3127,-27.9739 73.061,-22.062"/>
</g>
<!-- Node2 -->
<g id="node3" class="node">
<title>Node2</title>
<polygon fill="none" stroke="#bfbfbf" points="113.5,-.5 113.5,-19.5 175.5,-19.5 175.5,-.5 113.5,-.5"/>
<text text-anchor="middle" x="144.5" y="-7.5" font-family="Helvetica,sans-Serif" font-size="10.00" fill="#000000">Poisson.H</text>
</g>
<!-- Node0&#45;&gt;Node2 -->
<g id="edge2" class="edge">
<title>Node0&#45;&gt;Node2</title>
<path fill="none" stroke="#191970" d="M144.5,-56.2977C144.5,-48.3834 144.5,-38.6043 144.5,-30.0759"/>
<polygon fill="#191970" stroke="#191970" points="148.0001,-29.8469 144.5,-19.8469 141.0001,-29.847 148.0001,-29.8469"/>
</g>
<!-- Node3 -->
<g id="node4" class="node">
<title>Node3</title>
<polygon fill="none" stroke="#bfbfbf" points="194,-.5 194,-19.5 241,-19.5 241,-.5 194,-.5"/>
<text text-anchor="middle" x="217.5" y="-7.5" font-family="Helvetica,sans-Serif" font-size="10.00" fill="#000000">CPT.H</text>
</g>
<!-- Node0&#45;&gt;Node3 -->
<g id="edge3" class="edge">
<title>Node0&#45;&gt;Node3</title>
<path fill="none" stroke="#191970" d="M162.5449,-56.2977C173.3114,-47.2274 186.9851,-35.7077 197.9995,-26.4285"/>
<polygon fill="#191970" stroke="#191970" points="200.4191,-28.9667 205.8118,-19.8469 195.9089,-23.6132 200.4191,-28.9667"/>
</g>
</g>
</svg>
