<?xml version="1.0" encoding="UTF-8" standalone="no"?>
<!DOCTYPE svg PUBLIC "-//W3C//DTD SVG 1.1//EN"
 "http://www.w3.org/Graphics/SVG/1.1/DTD/svg11.dtd">
<!-- Generated by graphviz version 2.40.1 (20161225.0304)
 -->
<!-- Title: parcels/derived/frontTrackingParcel/makeFrontTrackingParcelSubmodels.C Pages: 1 -->
<svg width="2012pt" height="106pt"
 viewBox="0.00 0.00 2011.50 106.00" xmlns="http://www.w3.org/2000/svg" xmlns:xlink="http://www.w3.org/1999/xlink">
<g id="graph0" class="graph" transform="scale(1 1) rotate(0) translate(4 102)">
<title>parcels/derived/frontTrackingParcel/makeFrontTrackingParcelSubmodels.C</title>
<!-- Node0 -->
<g id="node1" class="node">
<title>Node0</title>
<polygon fill="#bfbfbf" stroke="#000000" points="833,-67.5 833,-97.5 1051,-97.5 1051,-67.5 833,-67.5"/>
<text text-anchor="start" x="841" y="-85.5" font-family="Helvetica,sans-Serif" font-size="10.00" fill="#000000">parcels/derived/frontTracking</text>
<text text-anchor="middle" x="942" y="-74.5" font-family="Helvetica,sans-Serif" font-size="10.00" fill="#000000">Parcel/makeFrontTrackingParcelSubmodels.C</text>
</g>
<!-- Node1 -->
<g id="node2" class="node">
<title>Node1</title>
<polygon fill="none" stroke="#bfbfbf" points="0,-6 0,-25 110,-25 110,-6 0,-6"/>
<text text-anchor="middle" x="55" y="-13" font-family="Helvetica,sans-Serif" font-size="10.00" fill="#000000">frontTrackingCloud.H</text>
</g>
<!-- Node0&#45;&gt;Node1 -->
<g id="edge1" class="edge">
<title>Node0&#45;&gt;Node1</title>
<path fill="none" stroke="#191970" d="M832.9129,-78.0499C641.6819,-69.8517 253.4751,-51.3313 119,-31 112.6946,-30.0467 106.0984,-28.7729 99.6375,-27.3636"/>
<polygon fill="#191970" stroke="#191970" points="100.1878,-23.8987 89.6573,-25.0639 98.616,-30.72 100.1878,-23.8987"/>
</g>
<!-- Node2 -->
<g id="node3" class="node">
<title>Node2</title>
<polygon fill="none" stroke="#bfbfbf" points="128,-6 128,-25 304,-25 304,-6 128,-6"/>
<text text-anchor="middle" x="216" y="-13" font-family="Helvetica,sans-Serif" font-size="10.00" fill="#000000">makeParcelCloudFunctionObjects.H</text>
</g>
<!-- Node0&#45;&gt;Node2 -->
<g id="edge2" class="edge">
<title>Node0&#45;&gt;Node2</title>
<path fill="none" stroke="#191970" d="M832.9391,-76.1195C707.3001,-68.1786 494.7951,-52.9344 313,-31 302.6072,-29.7461 291.6215,-28.2023 280.9247,-26.5798"/>
<polygon fill="#191970" stroke="#191970" points="281.2048,-23.0815 270.7864,-25.007 280.1316,-29.9987 281.2048,-23.0815"/>
</g>
<!-- Node3 -->
<g id="node4" class="node">
<title>Node3</title>
<polygon fill="none" stroke="#bfbfbf" points="322.5,-6 322.5,-25 431.5,-25 431.5,-6 322.5,-6"/>
<text text-anchor="middle" x="377" y="-13" font-family="Helvetica,sans-Serif" font-size="10.00" fill="#000000">makeParcelForces.H</text>
</g>
<!-- Node0&#45;&gt;Node3 -->
<g id="edge3" class="edge">
<title>Node0&#45;&gt;Node3</title>
<path fill="none" stroke="#191970" d="M832.7056,-75.6849C730.61,-68.2811 574.2298,-54.2814 440,-31 434.1701,-29.9888 428.08,-28.74 422.0821,-27.3936"/>
<polygon fill="#191970" stroke="#191970" points="422.6722,-23.9371 412.1371,-25.0603 421.0732,-30.752 422.6722,-23.9371"/>
</g>
<!-- Node4 -->
<g id="node5" class="node">
<title>Node4</title>
<polygon fill="none" stroke="#bfbfbf" points="449.5,-6 449.5,-25 606.5,-25 606.5,-6 449.5,-6"/>
<text text-anchor="middle" x="528" y="-13" font-family="Helvetica,sans-Serif" font-size="10.00" fill="#000000">makeParcelDispersionModels.H</text>
</g>
<!-- Node0&#45;&gt;Node4 -->
<g id="edge4" class="edge">
<title>Node0&#45;&gt;Node4</title>
<path fill="none" stroke="#191970" d="M843.1803,-67.4657C778.2669,-57.4595 691.5154,-43.84 615,-31 607.04,-29.6642 598.6774,-28.2229 590.4138,-26.7757"/>
<polygon fill="#191970" stroke="#191970" points="590.8726,-23.3027 580.417,-25.0144 589.658,-30.1966 590.8726,-23.3027"/>
</g>
<!-- Node5 -->
<g id="node6" class="node">
<title>Node5</title>
<polygon fill="none" stroke="#bfbfbf" points="624.5,-6 624.5,-25 771.5,-25 771.5,-6 624.5,-6"/>
<text text-anchor="middle" x="698" y="-13" font-family="Helvetica,sans-Serif" font-size="10.00" fill="#000000">makeParcelInjectionModels.H</text>
</g>
<!-- Node0&#45;&gt;Node5 -->
<g id="edge5" class="edge">
<title>Node0&#45;&gt;Node5</title>
<path fill="none" stroke="#191970" d="M887.2416,-67.4639C843.4977,-55.4522 782.9811,-38.835 742.2637,-27.6544"/>
<polygon fill="#191970" stroke="#191970" points="743.1861,-24.2782 732.6163,-25.0053 741.3325,-31.0283 743.1861,-24.2782"/>
</g>
<!-- Node6 -->
<g id="node7" class="node">
<title>Node6</title>
<polygon fill="none" stroke="#bfbfbf" points="790,-.5 790,-30.5 930,-30.5 930,-.5 790,-.5"/>
<text text-anchor="start" x="798" y="-18.5" font-family="Helvetica,sans-Serif" font-size="10.00" fill="#000000">makeParcelPatchInteraction</text>
<text text-anchor="middle" x="860" y="-7.5" font-family="Helvetica,sans-Serif" font-size="10.00" fill="#000000">Models.H</text>
</g>
<!-- Node0&#45;&gt;Node6 -->
<g id="edge6" class="edge">
<title>Node0&#45;&gt;Node6</title>
<path fill="none" stroke="#191970" d="M923.3929,-67.2967C912.4893,-58.3876 898.5378,-46.9882 886.5003,-37.1527"/>
<polygon fill="#191970" stroke="#191970" points="888.4918,-34.2601 878.5334,-30.6432 884.0627,-39.6808 888.4918,-34.2601"/>
</g>
<!-- Node7 -->
<g id="node8" class="node">
<title>Node7</title>
<polygon fill="none" stroke="#bfbfbf" points="948,-.5 948,-30.5 1100,-30.5 1100,-.5 948,-.5"/>
<text text-anchor="start" x="956" y="-18.5" font-family="Helvetica,sans-Serif" font-size="10.00" fill="#000000">makeParcelStochasticCollision</text>
<text text-anchor="middle" x="1024" y="-7.5" font-family="Helvetica,sans-Serif" font-size="10.00" fill="#000000">Models.H</text>
</g>
<!-- Node0&#45;&gt;Node7 -->
<g id="edge7" class="edge">
<title>Node0&#45;&gt;Node7</title>
<path fill="none" stroke="#191970" d="M960.6071,-67.2967C971.5107,-58.3876 985.4622,-46.9882 997.4997,-37.1527"/>
<polygon fill="#191970" stroke="#191970" points="999.9373,-39.6808 1005.4666,-30.6432 995.5082,-34.2601 999.9373,-39.6808"/>
</g>
<!-- Node8 -->
<g id="node9" class="node">
<title>Node8</title>
<polygon fill="none" stroke="#bfbfbf" points="1118.5,-6 1118.5,-25 1281.5,-25 1281.5,-6 1118.5,-6"/>
<text text-anchor="middle" x="1200" y="-13" font-family="Helvetica,sans-Serif" font-size="10.00" fill="#000000">makeParcelSurfaceFilmModels.H</text>
</g>
<!-- Node0&#45;&gt;Node8 -->
<g id="edge8" class="edge">
<title>Node0&#45;&gt;Node8</title>
<path fill="none" stroke="#191970" d="M999.9002,-67.4639C1046.2518,-55.4269 1110.4136,-38.7647 1153.4694,-27.5835"/>
<polygon fill="#191970" stroke="#191970" points="1154.5984,-30.9065 1163.3976,-25.0053 1152.8388,-24.1313 1154.5984,-30.9065"/>
</g>
<!-- Node9 -->
<g id="node10" class="node">
<title>Node9</title>
<polygon fill="none" stroke="#bfbfbf" points="1300,-.5 1300,-30.5 1462,-30.5 1462,-.5 1300,-.5"/>
<text text-anchor="start" x="1308" y="-18.5" font-family="Helvetica,sans-Serif" font-size="10.00" fill="#000000">makeFrontTrackingParcelSurface</text>
<text text-anchor="middle" x="1381" y="-7.5" font-family="Helvetica,sans-Serif" font-size="10.00" fill="#000000">TensionModels.H</text>
</g>
<!-- Node0&#45;&gt;Node9 -->
<g id="edge9" class="edge">
<title>Node0&#45;&gt;Node9</title>
<path fill="none" stroke="#191970" d="M1048.2506,-67.4976C1114.8829,-57.9286 1202.8448,-45.0054 1289.5604,-31.2113"/>
<polygon fill="#191970" stroke="#191970" points="1290.2559,-34.6447 1299.5795,-29.6127 1289.1529,-27.7321 1290.2559,-34.6447"/>
</g>
<!-- Node10 -->
<g id="node11" class="node">
<title>Node10</title>
<polygon fill="none" stroke="#bfbfbf" points="1480.5,-.5 1480.5,-30.5 1631.5,-30.5 1631.5,-.5 1480.5,-.5"/>
<text text-anchor="start" x="1488.5" y="-18.5" font-family="Helvetica,sans-Serif" font-size="10.00" fill="#000000">makeFrontTrackingParcelFront</text>
<text text-anchor="middle" x="1556" y="-7.5" font-family="Helvetica,sans-Serif" font-size="10.00" fill="#000000">ToFieldModels.H</text>
</g>
<!-- Node0&#45;&gt;Node10 -->
<g id="edge10" class="edge">
<title>Node0&#45;&gt;Node10</title>
<path fill="none" stroke="#191970" d="M1051.2254,-74.5393C1156.1085,-66.2795 1319.1889,-51.8277 1470.127,-31.0511"/>
<polygon fill="#191970" stroke="#191970" points="1470.627,-34.5153 1480.0507,-29.6734 1469.6644,-27.5818 1470.627,-34.5153"/>
</g>
<!-- Node11 -->
<g id="node12" class="node">
<title>Node11</title>
<polygon fill="none" stroke="#bfbfbf" points="1649.5,-.5 1649.5,-30.5 1810.5,-30.5 1810.5,-.5 1649.5,-.5"/>
<text text-anchor="start" x="1657.5" y="-18.5" font-family="Helvetica,sans-Serif" font-size="10.00" fill="#000000">makeFrontTrackingParcelVolume</text>
<text text-anchor="middle" x="1730" y="-7.5" font-family="Helvetica,sans-Serif" font-size="10.00" fill="#000000">CorrectionModels.H</text>
</g>
<!-- Node0&#45;&gt;Node11 -->
<g id="edge11" class="edge">
<title>Node0&#45;&gt;Node11</title>
<path fill="none" stroke="#191970" d="M1051.296,-77.7975C1186.9939,-71.2021 1425.6826,-57.1243 1638.9104,-31.1926"/>
<polygon fill="#191970" stroke="#191970" points="1639.5453,-34.641 1649.0444,-29.9488 1638.6924,-27.6931 1639.5453,-34.641"/>
</g>
<!-- Node12 -->
<g id="node13" class="node">
<title>Node12</title>
<polygon fill="none" stroke="#bfbfbf" points="1828.5,-.5 1828.5,-30.5 2003.5,-30.5 2003.5,-.5 1828.5,-.5"/>
<text text-anchor="start" x="1836.5" y="-18.5" font-family="Helvetica,sans-Serif" font-size="10.00" fill="#000000">makeFrontTrackingParcelUndulation</text>
<text text-anchor="middle" x="1916" y="-7.5" font-family="Helvetica,sans-Serif" font-size="10.00" fill="#000000">RemovalModels.H</text>
</g>
<!-- Node0&#45;&gt;Node12 -->
<g id="edge12" class="edge">
<title>Node0&#45;&gt;Node12</title>
<path fill="none" stroke="#191970" d="M1051.116,-79.6582C1215.4786,-74.5841 1536.5031,-61.5908 1818.4044,-31.1088"/>
<polygon fill="#191970" stroke="#191970" points="1818.854,-34.5806 1828.4156,-30.017 1818.0951,-27.6218 1818.854,-34.5806"/>
</g>
</g>
</svg>
