<?xml version="1.0" encoding="UTF-8" standalone="no"?>
<!DOCTYPE svg PUBLIC "-//W3C//DTD SVG 1.1//EN"
 "http://www.w3.org/Graphics/SVG/1.1/DTD/svg11.dtd">
<!-- Generated by graphviz version 2.40.1 (20161225.0304)
 -->
<!-- Title: parcels/derived/frontTrackingParcel/frontTrackingParcel.H Pages: 1 -->
<svg width="416pt" height="95pt"
 viewBox="0.00 0.00 415.50 95.00" xmlns="http://www.w3.org/2000/svg" xmlns:xlink="http://www.w3.org/1999/xlink">
<g id="graph0" class="graph" transform="scale(1 1) rotate(0) translate(4 91)">
<title>parcels/derived/frontTrackingParcel/frontTrackingParcel.H</title>
<!-- Node0 -->
<g id="node1" class="node">
<title>Node0</title>
<polygon fill="#bfbfbf" stroke="#000000" points="100.5,-56.5 100.5,-86.5 243.5,-86.5 243.5,-56.5 100.5,-56.5"/>
<text text-anchor="start" x="108.5" y="-74.5" font-family="Helvetica,sans-Serif" font-size="10.00" fill="#000000">parcels/derived/frontTracking</text>
<text text-anchor="middle" x="172" y="-63.5" font-family="Helvetica,sans-Serif" font-size="10.00" fill="#000000">Parcel/frontTrackingParcel.H</text>
</g>
<!-- Node1 -->
<g id="node2" class="node">
<title>Node1</title>
<polygon fill="none" stroke="#bfbfbf" points="0,-.5 0,-19.5 74,-19.5 74,-.5 0,-.5"/>
<text text-anchor="middle" x="37" y="-7.5" font-family="Helvetica,sans-Serif" font-size="10.00" fill="#000000">contiguous.H</text>
</g>
<!-- Node0&#45;&gt;Node1 -->
<g id="edge1" class="edge">
<title>Node0&#45;&gt;Node1</title>
<path fill="none" stroke="#191970" d="M138.9753,-56.4554C117.043,-46.464 88.4727,-33.4487 67.1547,-23.7372"/>
<polygon fill="#191970" stroke="#191970" points="68.4714,-20.4909 57.9202,-19.5303 65.5694,-26.8611 68.4714,-20.4909"/>
</g>
<!-- Node2 -->
<g id="node3" class="node">
<title>Node2</title>
<polygon fill="none" stroke="#bfbfbf" points="92.5,-.5 92.5,-19.5 151.5,-19.5 151.5,-.5 92.5,-.5"/>
<text text-anchor="middle" x="122" y="-7.5" font-family="Helvetica,sans-Serif" font-size="10.00" fill="#000000">particle.H</text>
</g>
<!-- Node0&#45;&gt;Node2 -->
<g id="edge2" class="edge">
<title>Node0&#45;&gt;Node2</title>
<path fill="none" stroke="#191970" d="M159.6404,-56.2977C152.6276,-47.672 143.814,-36.8312 136.4786,-27.8087"/>
<polygon fill="#191970" stroke="#191970" points="139.0297,-25.3982 130.0056,-19.8469 133.5982,-29.8141 139.0297,-25.3982"/>
</g>
<!-- Node3 -->
<g id="node4" class="node">
<title>Node3</title>
<polygon fill="none" stroke="#bfbfbf" points="170,-.5 170,-19.5 274,-19.5 274,-.5 170,-.5"/>
<text text-anchor="middle" x="222" y="-7.5" font-family="Helvetica,sans-Serif" font-size="10.00" fill="#000000">MomentumParcel.H</text>
</g>
<!-- Node0&#45;&gt;Node3 -->
<g id="edge3" class="edge">
<title>Node0&#45;&gt;Node3</title>
<path fill="none" stroke="#191970" d="M184.3596,-56.2977C191.3724,-47.672 200.186,-36.8312 207.5214,-27.8087"/>
<polygon fill="#191970" stroke="#191970" points="210.4018,-29.8141 213.9944,-19.8469 204.9703,-25.3982 210.4018,-29.8141"/>
</g>
<!-- Node4 -->
<g id="node5" class="node">
<title>Node4</title>
<polygon fill="none" stroke="#bfbfbf" points="292.5,-.5 292.5,-19.5 407.5,-19.5 407.5,-.5 292.5,-.5"/>
<text text-anchor="middle" x="350" y="-7.5" font-family="Helvetica,sans-Serif" font-size="10.00" fill="#000000">FrontTrackingParcel.H</text>
</g>
<!-- Node0&#45;&gt;Node4 -->
<g id="edge4" class="edge">
<title>Node0&#45;&gt;Node4</title>
<path fill="none" stroke="#191970" d="M215.5437,-56.4554C245.3737,-46.149 284.5166,-32.6249 312.8702,-22.8286"/>
<polygon fill="#191970" stroke="#191970" points="314.1076,-26.1041 322.4163,-19.5303 311.8216,-19.4879 314.1076,-26.1041"/>
</g>
</g>
</svg>
