<?xml version="1.0" encoding="UTF-8" standalone="no"?>
<!DOCTYPE svg PUBLIC "-//W3C//DTD SVG 1.1//EN"
 "http://www.w3.org/Graphics/SVG/1.1/DTD/svg11.dtd">
<!-- Generated by graphviz version 2.40.1 (20161225.0304)
 -->
<!-- Title: parcels/include/makeFrontTrackingParcelSurfaceTensionModels.H Pages: 1 -->
<svg width="252pt" height="95pt"
 viewBox="0.00 0.00 251.50 95.00" xmlns="http://www.w3.org/2000/svg" xmlns:xlink="http://www.w3.org/1999/xlink">
<g id="graph0" class="graph" transform="scale(1 1) rotate(0) translate(4 91)">
<title>parcels/include/makeFrontTrackingParcelSurfaceTensionModels.H</title>
<!-- Node0 -->
<g id="node1" class="node">
<title>Node0</title>
<polygon fill="#bfbfbf" stroke="#000000" points="23,-56.5 23,-86.5 215,-86.5 215,-56.5 23,-56.5"/>
<text text-anchor="start" x="31" y="-74.5" font-family="Helvetica,sans-Serif" font-size="10.00" fill="#000000">parcels/include/makeFront</text>
<text text-anchor="middle" x="119" y="-63.5" font-family="Helvetica,sans-Serif" font-size="10.00" fill="#000000">TrackingParcelSurfaceTensionModels.H</text>
</g>
<!-- Node1 -->
<g id="node2" class="node">
<title>Node1</title>
<polygon fill="none" stroke="#bfbfbf" points="0,-.5 0,-19.5 108,-19.5 108,-.5 0,-.5"/>
<text text-anchor="middle" x="54" y="-7.5" font-family="Helvetica,sans-Serif" font-size="10.00" fill="#000000">NoSurfaceTension.H</text>
</g>
<!-- Node0&#45;&gt;Node1 -->
<g id="edge1" class="edge">
<title>Node0&#45;&gt;Node1</title>
<path fill="none" stroke="#191970" d="M102.9326,-56.2977C93.534,-47.4052 81.6473,-36.1586 71.943,-26.9769"/>
<polygon fill="#191970" stroke="#191970" points="74.0768,-24.1774 64.4073,-19.8469 69.2658,-29.2621 74.0768,-24.1774"/>
</g>
<!-- Node2 -->
<g id="node3" class="node">
<title>Node2</title>
<polygon fill="none" stroke="#bfbfbf" points="126.5,-.5 126.5,-19.5 243.5,-19.5 243.5,-.5 126.5,-.5"/>
<text text-anchor="middle" x="185" y="-7.5" font-family="Helvetica,sans-Serif" font-size="10.00" fill="#000000">DirectElementBased.H</text>
</g>
<!-- Node0&#45;&gt;Node2 -->
<g id="edge2" class="edge">
<title>Node0&#45;&gt;Node2</title>
<path fill="none" stroke="#191970" d="M135.3146,-56.2977C144.9533,-47.3163 157.1691,-35.9334 167.0759,-26.702"/>
<polygon fill="#191970" stroke="#191970" points="169.5025,-29.2249 174.4326,-19.8469 164.7304,-24.1036 169.5025,-29.2249"/>
</g>
</g>
</svg>
