<?xml version="1.0" encoding="UTF-8" standalone="no"?>
<!DOCTYPE svg PUBLIC "-//W3C//DTD SVG 1.1//EN"
 "http://www.w3.org/Graphics/SVG/1.1/DTD/svg11.dtd">
<!-- Generated by graphviz version 2.40.1 (20161225.0304)
 -->
<!-- Title: parcels/include/makeFrontTrackingParcelUndulationRemovalModels.H Pages: 1 -->
<svg width="372pt" height="106pt"
 viewBox="0.00 0.00 371.50 106.00" xmlns="http://www.w3.org/2000/svg" xmlns:xlink="http://www.w3.org/1999/xlink">
<g id="graph0" class="graph" transform="scale(1 1) rotate(0) translate(4 102)">
<title>parcels/include/makeFrontTrackingParcelUndulationRemovalModels.H</title>
<!-- Node0 -->
<g id="node1" class="node">
<title>Node0</title>
<polygon fill="#bfbfbf" stroke="#000000" points="134,-56.5 134,-97.5 301,-97.5 301,-56.5 134,-56.5"/>
<text text-anchor="start" x="142" y="-85.5" font-family="Helvetica,sans-Serif" font-size="10.00" fill="#000000">parcels/include/makeFront</text>
<text text-anchor="start" x="142" y="-74.5" font-family="Helvetica,sans-Serif" font-size="10.00" fill="#000000">TrackingParcelUndulationRemoval</text>
<text text-anchor="middle" x="217.5" y="-63.5" font-family="Helvetica,sans-Serif" font-size="10.00" fill="#000000">Models.H</text>
</g>
<!-- Node1 -->
<g id="node2" class="node">
<title>Node1</title>
<polygon fill="none" stroke="#bfbfbf" points="0,-.5 0,-19.5 125,-19.5 125,-.5 0,-.5"/>
<text text-anchor="middle" x="62.5" y="-7.5" font-family="Helvetica,sans-Serif" font-size="10.00" fill="#000000">NoUndulationRemoval.H</text>
</g>
<!-- Node0&#45;&gt;Node1 -->
<g id="edge1" class="edge">
<title>Node0&#45;&gt;Node1</title>
<path fill="none" stroke="#191970" d="M169.7301,-56.3511C145.2006,-45.748 115.9876,-33.1204 94.2521,-23.7251"/>
<polygon fill="#191970" stroke="#191970" points="95.4033,-20.4098 84.8354,-19.6546 92.6258,-26.8352 95.4033,-20.4098"/>
</g>
<!-- Node2 -->
<g id="node3" class="node">
<title>Node2</title>
<polygon fill="none" stroke="#bfbfbf" points="143.5,-.5 143.5,-19.5 211.5,-19.5 211.5,-.5 143.5,-.5"/>
<text text-anchor="middle" x="177.5" y="-7.5" font-family="Helvetica,sans-Serif" font-size="10.00" fill="#000000">TSUR3D.H</text>
</g>
<!-- Node0&#45;&gt;Node2 -->
<g id="edge2" class="edge">
<title>Node0&#45;&gt;Node2</title>
<path fill="none" stroke="#191970" d="M205.063,-56.168C199.7976,-47.3484 193.7119,-37.155 188.6005,-28.5933"/>
<polygon fill="#191970" stroke="#191970" points="191.4704,-26.5725 183.3391,-19.7805 185.4601,-30.1609 191.4704,-26.5725"/>
</g>
<!-- Node3 -->
<g id="node4" class="node">
<title>Node3</title>
<polygon fill="none" stroke="#bfbfbf" points="230,-.5 230,-19.5 287,-19.5 287,-.5 230,-.5"/>
<text text-anchor="middle" x="258.5" y="-7.5" font-family="Helvetica,sans-Serif" font-size="10.00" fill="#000000">VCSIII.H</text>
</g>
<!-- Node0&#45;&gt;Node3 -->
<g id="edge3" class="edge">
<title>Node0&#45;&gt;Node3</title>
<path fill="none" stroke="#191970" d="M230.2479,-56.168C235.703,-47.2536 242.017,-36.9356 247.2907,-28.3177"/>
<polygon fill="#191970" stroke="#191970" points="250.2806,-30.137 252.5149,-19.7805 244.3099,-26.4833 250.2806,-30.137"/>
</g>
<!-- Node4 -->
<g id="node5" class="node">
<title>Node4</title>
<polygon fill="none" stroke="#bfbfbf" points="305.5,-.5 305.5,-19.5 363.5,-19.5 363.5,-.5 305.5,-.5"/>
<text text-anchor="middle" x="334.5" y="-7.5" font-family="Helvetica,sans-Serif" font-size="10.00" fill="#000000">VCSIV.H</text>
</g>
<!-- Node0&#45;&gt;Node4 -->
<g id="edge4" class="edge">
<title>Node0&#45;&gt;Node4</title>
<path fill="none" stroke="#191970" d="M253.5585,-56.3511C271.4071,-46.1301 292.5408,-34.0279 308.737,-24.7532"/>
<polygon fill="#191970" stroke="#191970" points="310.7018,-27.6613 317.6404,-19.6546 307.2232,-21.5868 310.7018,-27.6613"/>
</g>
</g>
</svg>
