<?xml version="1.0" encoding="UTF-8" standalone="no"?>
<!DOCTYPE svg PUBLIC "-//W3C//DTD SVG 1.1//EN"
 "http://www.w3.org/Graphics/SVG/1.1/DTD/svg11.dtd">
<!-- Generated by graphviz version 2.40.1 (20161225.0304)
 -->
<!-- Title: submodels/FrontTracking/UndulationRemovalModels/NoUndulationRemoval/NoUndulationRemoval.C Pages: 1 -->
<svg width="188pt" height="173pt"
 viewBox="0.00 0.00 188.00 173.00" xmlns="http://www.w3.org/2000/svg" xmlns:xlink="http://www.w3.org/1999/xlink">
<g id="graph0" class="graph" transform="scale(1 1) rotate(0) translate(4 169)">
<title>submodels/FrontTracking/UndulationRemovalModels/NoUndulationRemoval/NoUndulationRemoval.C</title>
<!-- Node0 -->
<g id="node1" class="node">
<title>Node0</title>
<polygon fill="#bfbfbf" stroke="#000000" points="0,-112.5 0,-164.5 180,-164.5 180,-112.5 0,-112.5"/>
<text text-anchor="start" x="8" y="-152.5" font-family="Helvetica,sans-Serif" font-size="10.00" fill="#000000">submodels/FrontTracking</text>
<text text-anchor="start" x="8" y="-141.5" font-family="Helvetica,sans-Serif" font-size="10.00" fill="#000000">/UndulationRemovalModels</text>
<text text-anchor="start" x="8" y="-130.5" font-family="Helvetica,sans-Serif" font-size="10.00" fill="#000000">/NoUndulationRemoval/NoUndulation</text>
<text text-anchor="middle" x="90" y="-119.5" font-family="Helvetica,sans-Serif" font-size="10.00" fill="#000000">Removal.C</text>
</g>
<!-- Node1 -->
<g id="node2" class="node">
<title>Node1</title>
<g id="a_node2"><a xlink:href="submodels_2FrontTracking_2UndulationRemovalModels_2NoUndulationRemoval_2NoUndulationRemoval_8H.html" target="_top" xlink:title="NoUndulationRemoval.H">
<polygon fill="none" stroke="#000000" points="27.5,-56.5 27.5,-75.5 152.5,-75.5 152.5,-56.5 27.5,-56.5"/>
<text text-anchor="middle" x="90" y="-63.5" font-family="Helvetica,sans-Serif" font-size="10.00" fill="#000000">NoUndulationRemoval.H</text>
</a>
</g>
</g>
<!-- Node0&#45;&gt;Node1 -->
<g id="edge1" class="edge">
<title>Node0&#45;&gt;Node1</title>
<path fill="none" stroke="#191970" d="M90,-112.3258C90,-103.5142 90,-93.8397 90,-85.621"/>
<polygon fill="#191970" stroke="#191970" points="93.5001,-85.534 90,-75.534 86.5001,-85.534 93.5001,-85.534"/>
</g>
<!-- Node2 -->
<g id="node3" class="node">
<title>Node2</title>
<polygon fill="none" stroke="#bfbfbf" points="20.5,-.5 20.5,-19.5 159.5,-19.5 159.5,-.5 20.5,-.5"/>
<text text-anchor="middle" x="90" y="-7.5" font-family="Helvetica,sans-Serif" font-size="10.00" fill="#000000">UndulationRemovalModel.H</text>
</g>
<!-- Node1&#45;&gt;Node2 -->
<g id="edge2" class="edge">
<title>Node1&#45;&gt;Node2</title>
<path fill="none" stroke="#191970" d="M90,-56.2455C90,-48.9382 90,-38.6944 90,-29.7046"/>
<polygon fill="#191970" stroke="#191970" points="93.5001,-29.6426 90,-19.6427 86.5001,-29.6427 93.5001,-29.6426"/>
</g>
</g>
</svg>
