<?xml version="1.0" encoding="UTF-8" standalone="no"?>
<!DOCTYPE svg PUBLIC "-//W3C//DTD SVG 1.1//EN"
 "http://www.w3.org/Graphics/SVG/1.1/DTD/svg11.dtd">
<!-- Generated by graphviz version 2.40.1 (20161225.0304)
 -->
<!-- Title: submodels/FrontTracking/UndulationRemovalModels/TSUR3D/TSUR3D.C Pages: 1 -->
<svg width="242pt" height="162pt"
 viewBox="0.00 0.00 242.00 162.00" xmlns="http://www.w3.org/2000/svg" xmlns:xlink="http://www.w3.org/1999/xlink">
<g id="graph0" class="graph" transform="scale(1 1) rotate(0) translate(4 158)">
<title>submodels/FrontTracking/UndulationRemovalModels/TSUR3D/TSUR3D.C</title>
<!-- Node0 -->
<g id="node1" class="node">
<title>Node0</title>
<polygon fill="#bfbfbf" stroke="#000000" points="64,-112.5 64,-153.5 201,-153.5 201,-112.5 64,-112.5"/>
<text text-anchor="start" x="72" y="-141.5" font-family="Helvetica,sans-Serif" font-size="10.00" fill="#000000">submodels/FrontTracking</text>
<text text-anchor="start" x="72" y="-130.5" font-family="Helvetica,sans-Serif" font-size="10.00" fill="#000000">/UndulationRemovalModels</text>
<text text-anchor="middle" x="132.5" y="-119.5" font-family="Helvetica,sans-Serif" font-size="10.00" fill="#000000">/TSUR3D/TSUR3D.C</text>
</g>
<!-- Node1 -->
<g id="node2" class="node">
<title>Node1</title>
<g id="a_node2"><a xlink:href="submodels_2FrontTracking_2UndulationRemovalModels_2TSUR3D_2TSUR3D_8H.html" target="_top" xlink:title="TSUR3D.H">
<polygon fill="none" stroke="#000000" points="98.5,-56.5 98.5,-75.5 166.5,-75.5 166.5,-56.5 98.5,-56.5"/>
<text text-anchor="middle" x="132.5" y="-63.5" font-family="Helvetica,sans-Serif" font-size="10.00" fill="#000000">TSUR3D.H</text>
</a>
</g>
</g>
<!-- Node0&#45;&gt;Node1 -->
<g id="edge1" class="edge">
<title>Node0&#45;&gt;Node1</title>
<path fill="none" stroke="#191970" d="M132.5,-112.168C132.5,-103.8226 132.5,-94.2471 132.5,-85.9879"/>
<polygon fill="#191970" stroke="#191970" points="136.0001,-85.7804 132.5,-75.7805 129.0001,-85.7805 136.0001,-85.7804"/>
</g>
<!-- Node2 -->
<g id="node3" class="node">
<title>Node2</title>
<polygon fill="none" stroke="#bfbfbf" points="0,-.5 0,-19.5 139,-19.5 139,-.5 0,-.5"/>
<text text-anchor="middle" x="69.5" y="-7.5" font-family="Helvetica,sans-Serif" font-size="10.00" fill="#000000">UndulationRemovalModel.H</text>
</g>
<!-- Node1&#45;&gt;Node2 -->
<g id="edge2" class="edge">
<title>Node1&#45;&gt;Node2</title>
<path fill="none" stroke="#191970" d="M121.5262,-56.2455C112.3118,-48.0549 98.9468,-36.1749 88.0703,-26.5069"/>
<polygon fill="#191970" stroke="#191970" points="90.1474,-23.6704 80.348,-19.6427 85.4968,-28.9023 90.1474,-23.6704"/>
</g>
<!-- Node3 -->
<g id="node4" class="node">
<title>Node3</title>
<polygon fill="none" stroke="#bfbfbf" points="157,-.5 157,-19.5 234,-19.5 234,-.5 157,-.5"/>
<text text-anchor="middle" x="195.5" y="-7.5" font-family="Helvetica,sans-Serif" font-size="10.00" fill="#000000">bubbleData.H</text>
</g>
<!-- Node1&#45;&gt;Node3 -->
<g id="edge3" class="edge">
<title>Node1&#45;&gt;Node3</title>
<path fill="none" stroke="#191970" d="M143.4738,-56.2455C152.6882,-48.0549 166.0532,-36.1749 176.9297,-26.5069"/>
<polygon fill="#191970" stroke="#191970" points="179.5032,-28.9023 184.652,-19.6427 174.8526,-23.6704 179.5032,-28.9023"/>
</g>
</g>
</svg>
