<?xml version="1.0" encoding="UTF-8" standalone="no"?>
<!DOCTYPE svg PUBLIC "-//W3C//DTD SVG 1.1//EN"
 "http://www.w3.org/Graphics/SVG/1.1/DTD/svg11.dtd">
<!-- Generated by graphviz version 2.40.1 (20161225.0304)
 -->
<!-- Title: submodels/FrontTracking/SurfaceTensionModels/DirectElementBased/DirectElementBased.C Pages: 1 -->
<svg width="226pt" height="173pt"
 viewBox="0.00 0.00 225.50 173.00" xmlns="http://www.w3.org/2000/svg" xmlns:xlink="http://www.w3.org/1999/xlink">
<g id="graph0" class="graph" transform="scale(1 1) rotate(0) translate(4 169)">
<title>submodels/FrontTracking/SurfaceTensionModels/DirectElementBased/DirectElementBased.C</title>
<!-- Node0 -->
<g id="node1" class="node">
<title>Node0</title>
<polygon fill="#bfbfbf" stroke="#000000" points="32.5,-112.5 32.5,-164.5 207.5,-164.5 207.5,-112.5 32.5,-112.5"/>
<text text-anchor="start" x="40.5" y="-152.5" font-family="Helvetica,sans-Serif" font-size="10.00" fill="#000000">submodels/FrontTracking</text>
<text text-anchor="start" x="40.5" y="-141.5" font-family="Helvetica,sans-Serif" font-size="10.00" fill="#000000">/SurfaceTensionModels</text>
<text text-anchor="start" x="40.5" y="-130.5" font-family="Helvetica,sans-Serif" font-size="10.00" fill="#000000">/DirectElementBased/DirectElement</text>
<text text-anchor="middle" x="120" y="-119.5" font-family="Helvetica,sans-Serif" font-size="10.00" fill="#000000">Based.C</text>
</g>
<!-- Node1 -->
<g id="node2" class="node">
<title>Node1</title>
<g id="a_node2"><a xlink:href="submodels_2FrontTracking_2SurfaceTensionModels_2DirectElementBased_2DirectElementBased_8H.html" target="_top" xlink:title="DirectElementBased.H">
<polygon fill="none" stroke="#000000" points="61.5,-56.5 61.5,-75.5 178.5,-75.5 178.5,-56.5 61.5,-56.5"/>
<text text-anchor="middle" x="120" y="-63.5" font-family="Helvetica,sans-Serif" font-size="10.00" fill="#000000">DirectElementBased.H</text>
</a>
</g>
</g>
<!-- Node0&#45;&gt;Node1 -->
<g id="edge1" class="edge">
<title>Node0&#45;&gt;Node1</title>
<path fill="none" stroke="#191970" d="M120,-112.3258C120,-103.5142 120,-93.8397 120,-85.621"/>
<polygon fill="#191970" stroke="#191970" points="123.5001,-85.534 120,-75.534 116.5001,-85.534 123.5001,-85.534"/>
</g>
<!-- Node2 -->
<g id="node3" class="node">
<title>Node2</title>
<polygon fill="none" stroke="#bfbfbf" points="0,-.5 0,-19.5 122,-19.5 122,-.5 0,-.5"/>
<text text-anchor="middle" x="61" y="-7.5" font-family="Helvetica,sans-Serif" font-size="10.00" fill="#000000">SurfaceTensionModel.H</text>
</g>
<!-- Node1&#45;&gt;Node2 -->
<g id="edge2" class="edge">
<title>Node1&#45;&gt;Node2</title>
<path fill="none" stroke="#191970" d="M109.723,-56.2455C101.1782,-48.1352 88.8222,-36.4075 78.6915,-26.7919"/>
<polygon fill="#191970" stroke="#191970" points="80.8218,-23.9884 71.1592,-19.6427 76.0028,-29.0655 80.8218,-23.9884"/>
</g>
<!-- Node3 -->
<g id="node4" class="node">
<title>Node3</title>
<polygon fill="none" stroke="#bfbfbf" points="140.5,-.5 140.5,-19.5 217.5,-19.5 217.5,-.5 140.5,-.5"/>
<text text-anchor="middle" x="179" y="-7.5" font-family="Helvetica,sans-Serif" font-size="10.00" fill="#000000">bubbleData.H</text>
</g>
<!-- Node1&#45;&gt;Node3 -->
<g id="edge3" class="edge">
<title>Node1&#45;&gt;Node3</title>
<path fill="none" stroke="#191970" d="M130.277,-56.2455C138.8218,-48.1352 151.1778,-36.4075 161.3085,-26.7919"/>
<polygon fill="#191970" stroke="#191970" points="163.9972,-29.0655 168.8408,-19.6427 159.1782,-23.9884 163.9972,-29.0655"/>
</g>
</g>
</svg>
