<?xml version="1.0" encoding="UTF-8" standalone="no"?>
<!DOCTYPE svg PUBLIC "-//W3C//DTD SVG 1.1//EN"
 "http://www.w3.org/Graphics/SVG/1.1/DTD/svg11.dtd">
<!-- Generated by graphviz version 2.40.1 (20161225.0304)
 -->
<!-- Title: submodels/FrontTracking/FrontToFieldModels/FrontToFieldModel/FrontToFieldModel.H Pages: 1 -->
<svg width="454pt" height="106pt"
 viewBox="0.00 0.00 453.50 106.00" xmlns="http://www.w3.org/2000/svg" xmlns:xlink="http://www.w3.org/1999/xlink">
<g id="graph0" class="graph" transform="scale(1 1) rotate(0) translate(4 102)">
<title>submodels/FrontTracking/FrontToFieldModels/FrontToFieldModel/FrontToFieldModel.H</title>
<!-- Node0 -->
<g id="node1" class="node">
<title>Node0</title>
<polygon fill="#bfbfbf" stroke="#000000" points="103,-56.5 103,-97.5 267,-97.5 267,-56.5 103,-56.5"/>
<text text-anchor="start" x="111" y="-85.5" font-family="Helvetica,sans-Serif" font-size="10.00" fill="#000000">submodels/FrontTracking</text>
<text text-anchor="start" x="111" y="-74.5" font-family="Helvetica,sans-Serif" font-size="10.00" fill="#000000">/FrontToFieldModels/FrontToField</text>
<text text-anchor="middle" x="185" y="-63.5" font-family="Helvetica,sans-Serif" font-size="10.00" fill="#000000">Model/FrontToFieldModel.H</text>
</g>
<!-- Node1 -->
<g id="node2" class="node">
<title>Node1</title>
<polygon fill="none" stroke="#bfbfbf" points="0,-.5 0,-19.5 80,-19.5 80,-.5 0,-.5"/>
<text text-anchor="middle" x="40" y="-7.5" font-family="Helvetica,sans-Serif" font-size="10.00" fill="#000000">IOdictionary.H</text>
</g>
<!-- Node0&#45;&gt;Node1 -->
<g id="edge1" class="edge">
<title>Node0&#45;&gt;Node1</title>
<path fill="none" stroke="#191970" d="M140.3121,-56.3511C117.4685,-45.7958 90.2829,-33.2342 69.9788,-23.8523"/>
<polygon fill="#191970" stroke="#191970" points="71.4402,-20.672 60.8944,-19.6546 68.504,-27.0265 71.4402,-20.672"/>
</g>
<!-- Node2 -->
<g id="node3" class="node">
<title>Node2</title>
<polygon fill="none" stroke="#bfbfbf" points="98.5,-.5 98.5,-19.5 157.5,-19.5 157.5,-.5 98.5,-.5"/>
<text text-anchor="middle" x="128" y="-7.5" font-family="Helvetica,sans-Serif" font-size="10.00" fill="#000000">autoPtr.H</text>
</g>
<!-- Node0&#45;&gt;Node2 -->
<g id="edge2" class="edge">
<title>Node0&#45;&gt;Node2</title>
<path fill="none" stroke="#191970" d="M167.2773,-56.168C159.4513,-46.9691 150.3538,-36.2756 142.8862,-27.4979"/>
<polygon fill="#191970" stroke="#191970" points="145.4663,-25.1291 136.3207,-19.7805 140.1347,-29.665 145.4663,-25.1291"/>
</g>
<!-- Node3 -->
<g id="node4" class="node">
<title>Node3</title>
<polygon fill="none" stroke="#bfbfbf" points="176,-.5 176,-19.5 308,-19.5 308,-.5 176,-.5"/>
<text text-anchor="middle" x="242" y="-7.5" font-family="Helvetica,sans-Serif" font-size="10.00" fill="#000000">runTimeSelectionTables.H</text>
</g>
<!-- Node0&#45;&gt;Node3 -->
<g id="edge3" class="edge">
<title>Node0&#45;&gt;Node3</title>
<path fill="none" stroke="#191970" d="M202.7227,-56.168C210.5487,-46.9691 219.6462,-36.2756 227.1138,-27.4979"/>
<polygon fill="#191970" stroke="#191970" points="229.8653,-29.665 233.6793,-19.7805 224.5337,-25.1291 229.8653,-29.665"/>
</g>
<!-- Node4 -->
<g id="node5" class="node">
<title>Node4</title>
<polygon fill="none" stroke="#bfbfbf" points="326.5,-.5 326.5,-19.5 445.5,-19.5 445.5,-.5 326.5,-.5"/>
<text text-anchor="middle" x="386" y="-7.5" font-family="Helvetica,sans-Serif" font-size="10.00" fill="#000000">CloudSubModelBase.H</text>
</g>
<!-- Node0&#45;&gt;Node4 -->
<g id="edge4" class="edge">
<title>Node0&#45;&gt;Node4</title>
<path fill="none" stroke="#191970" d="M246.6726,-56.4425C279.7059,-45.4314 319.3525,-32.2158 347.8923,-22.7026"/>
<polygon fill="#191970" stroke="#191970" points="349.1149,-25.9844 357.495,-19.5017 346.9013,-19.3436 349.1149,-25.9844"/>
</g>
</g>
</svg>
