<?xml version="1.0" encoding="UTF-8" standalone="no"?>
<!DOCTYPE svg PUBLIC "-//W3C//DTD SVG 1.1//EN"
 "http://www.w3.org/Graphics/SVG/1.1/DTD/svg11.dtd">
<!-- Generated by graphviz version 2.40.1 (20161225.0304)
 -->
<!-- Title: submodels/FrontTracking/VolumeCorrectionModels/VC2/VC2.C Pages: 1 -->
<svg width="234pt" height="162pt"
 viewBox="0.00 0.00 234.00 162.00" xmlns="http://www.w3.org/2000/svg" xmlns:xlink="http://www.w3.org/1999/xlink">
<g id="graph0" class="graph" transform="scale(1 1) rotate(0) translate(4 158)">
<title>submodels/FrontTracking/VolumeCorrectionModels/VC2/VC2.C</title>
<!-- Node0 -->
<g id="node1" class="node">
<title>Node0</title>
<polygon fill="#bfbfbf" stroke="#000000" points="62,-112.5 62,-153.5 191,-153.5 191,-112.5 62,-112.5"/>
<text text-anchor="start" x="70" y="-141.5" font-family="Helvetica,sans-Serif" font-size="10.00" fill="#000000">submodels/FrontTracking</text>
<text text-anchor="start" x="70" y="-130.5" font-family="Helvetica,sans-Serif" font-size="10.00" fill="#000000">/VolumeCorrectionModels</text>
<text text-anchor="middle" x="126.5" y="-119.5" font-family="Helvetica,sans-Serif" font-size="10.00" fill="#000000">/VC2/VC2.C</text>
</g>
<!-- Node1 -->
<g id="node2" class="node">
<title>Node1</title>
<g id="a_node2"><a xlink:href="submodels_2FrontTracking_2VolumeCorrectionModels_2VC2_2VC2_8H.html" target="_top" xlink:title="VC2.H">
<polygon fill="none" stroke="#000000" points="103,-56.5 103,-75.5 150,-75.5 150,-56.5 103,-56.5"/>
<text text-anchor="middle" x="126.5" y="-63.5" font-family="Helvetica,sans-Serif" font-size="10.00" fill="#000000">VC2.H</text>
</a>
</g>
</g>
<!-- Node0&#45;&gt;Node1 -->
<g id="edge1" class="edge">
<title>Node0&#45;&gt;Node1</title>
<path fill="none" stroke="#191970" d="M126.5,-112.168C126.5,-103.8226 126.5,-94.2471 126.5,-85.9879"/>
<polygon fill="#191970" stroke="#191970" points="130.0001,-85.7804 126.5,-75.7805 123.0001,-85.7805 130.0001,-85.7804"/>
</g>
<!-- Node2 -->
<g id="node3" class="node">
<title>Node2</title>
<polygon fill="none" stroke="#bfbfbf" points="0,-.5 0,-19.5 131,-19.5 131,-.5 0,-.5"/>
<text text-anchor="middle" x="65.5" y="-7.5" font-family="Helvetica,sans-Serif" font-size="10.00" fill="#000000">VolumeCorrectionModel.H</text>
</g>
<!-- Node1&#45;&gt;Node2 -->
<g id="edge2" class="edge">
<title>Node1&#45;&gt;Node2</title>
<path fill="none" stroke="#191970" d="M115.8746,-56.2455C106.9527,-48.0549 94.012,-36.1749 83.4808,-26.5069"/>
<polygon fill="#191970" stroke="#191970" points="85.7371,-23.8271 76.0036,-19.6427 81.0032,-28.9837 85.7371,-23.8271"/>
</g>
<!-- Node3 -->
<g id="node4" class="node">
<title>Node3</title>
<polygon fill="none" stroke="#bfbfbf" points="149,-.5 149,-19.5 226,-19.5 226,-.5 149,-.5"/>
<text text-anchor="middle" x="187.5" y="-7.5" font-family="Helvetica,sans-Serif" font-size="10.00" fill="#000000">bubbleData.H</text>
</g>
<!-- Node1&#45;&gt;Node3 -->
<g id="edge3" class="edge">
<title>Node1&#45;&gt;Node3</title>
<path fill="none" stroke="#191970" d="M137.1254,-56.2455C146.0473,-48.0549 158.988,-36.1749 169.5192,-26.5069"/>
<polygon fill="#191970" stroke="#191970" points="171.9968,-28.9837 176.9964,-19.6427 167.2629,-23.8271 171.9968,-28.9837"/>
</g>
</g>
</svg>
