<?xml version="1.0" encoding="UTF-8" standalone="no"?>
<!DOCTYPE svg PUBLIC "-//W3C//DTD SVG 1.1//EN"
 "http://www.w3.org/Graphics/SVG/1.1/DTD/svg11.dtd">
<!-- Generated by graphviz version 2.40.1 (20161225.0304)
 -->
<!-- Title: submodels/FrontTracking/FrontToFieldModels/CPT/CPT.H Pages: 1 -->
<svg width="388pt" height="173pt"
 viewBox="0.00 0.00 387.50 173.00" xmlns="http://www.w3.org/2000/svg" xmlns:xlink="http://www.w3.org/1999/xlink">
<g id="graph0" class="graph" transform="scale(1 1) rotate(0) translate(4 169)">
<title>submodels/FrontTracking/FrontToFieldModels/CPT/CPT.H</title>
<!-- Node4 -->
<g id="node1" class="node">
<title>Node4</title>
<polygon fill="#bfbfbf" stroke="#000000" points="121.5,-134.5 121.5,-164.5 284.5,-164.5 284.5,-134.5 121.5,-134.5"/>
<text text-anchor="start" x="129.5" y="-152.5" font-family="Helvetica,sans-Serif" font-size="10.00" fill="#000000">submodels/FrontTracking</text>
<text text-anchor="middle" x="203" y="-141.5" font-family="Helvetica,sans-Serif" font-size="10.00" fill="#000000">/FrontToFieldModels/CPT/CPT.H</text>
</g>
<!-- Node5 -->
<g id="node2" class="node">
<title>Node5</title>
<g id="a_node2"><a xlink:href="parcels_2include_2makeFrontTrackingParcelFrontToFieldModels_8H.html" target="_top" xlink:title="parcels/include/makeFront\lTrackingParcelFrontToFieldModels.H">
<polygon fill="none" stroke="#000000" points="19.5,-67.5 19.5,-97.5 198.5,-97.5 198.5,-67.5 19.5,-67.5"/>
<text text-anchor="start" x="27.5" y="-85.5" font-family="Helvetica,sans-Serif" font-size="10.00" fill="#000000">parcels/include/makeFront</text>
<text text-anchor="middle" x="109" y="-74.5" font-family="Helvetica,sans-Serif" font-size="10.00" fill="#000000">TrackingParcelFrontToFieldModels.H</text>
</a>
</g>
</g>
<!-- Node4&#45;&gt;Node5 -->
<g id="edge1" class="edge">
<title>Node4&#45;&gt;Node5</title>
<path fill="none" stroke="#191970" d="M173.3225,-128.3469C159.3357,-118.3776 142.9692,-106.7121 130.2456,-97.6432"/>
<polygon fill="#191970" stroke="#191970" points="171.4953,-131.3426 181.6699,-134.2967 175.5582,-125.6423 171.4953,-131.3426"/>
</g>
<!-- Node7 -->
<g id="node4" class="node">
<title>Node7</title>
<g id="a_node4"><a xlink:href="submodels_2FrontTracking_2FrontToFieldModels_2CPT_2CPT_8C.html" target="_top" xlink:title="submodels/FrontTracking\l/FrontToFieldModels/CPT/CPT.C">
<polygon fill="none" stroke="#000000" points="216.5,-67.5 216.5,-97.5 379.5,-97.5 379.5,-67.5 216.5,-67.5"/>
<text text-anchor="start" x="224.5" y="-85.5" font-family="Helvetica,sans-Serif" font-size="10.00" fill="#000000">submodels/FrontTracking</text>
<text text-anchor="middle" x="298" y="-74.5" font-family="Helvetica,sans-Serif" font-size="10.00" fill="#000000">/FrontToFieldModels/CPT/CPT.C</text>
</a>
</g>
</g>
<!-- Node4&#45;&gt;Node7 -->
<g id="edge3" class="edge">
<title>Node4&#45;&gt;Node7</title>
<path fill="none" stroke="#191970" d="M232.9932,-128.3469C247.1288,-118.3776 263.6695,-106.7121 276.5283,-97.6432"/>
<polygon fill="#191970" stroke="#191970" points="230.7118,-125.6729 224.557,-134.2967 234.7463,-131.3934 230.7118,-125.6729"/>
</g>
<!-- Node6 -->
<g id="node3" class="node">
<title>Node6</title>
<g id="a_node3"><a xlink:href="parcels_2derived_2frontTrackingParcel_2makeFrontTrackingParcelSubmodels_8C.html" target="_top" xlink:title="parcels/derived/frontTracking\lParcel/makeFrontTrackingParcelSubmodels.C">
<polygon fill="none" stroke="#000000" points="0,-.5 0,-30.5 218,-30.5 218,-.5 0,-.5"/>
<text text-anchor="start" x="8" y="-18.5" font-family="Helvetica,sans-Serif" font-size="10.00" fill="#000000">parcels/derived/frontTracking</text>
<text text-anchor="middle" x="109" y="-7.5" font-family="Helvetica,sans-Serif" font-size="10.00" fill="#000000">Parcel/makeFrontTrackingParcelSubmodels.C</text>
</a>
</g>
</g>
<!-- Node5&#45;&gt;Node6 -->
<g id="edge2" class="edge">
<title>Node5&#45;&gt;Node6</title>
<path fill="none" stroke="#191970" d="M109,-57.0249C109,-48.128 109,-38.4287 109,-30.6432"/>
<polygon fill="#191970" stroke="#191970" points="105.5001,-57.2966 109,-67.2967 112.5001,-57.2967 105.5001,-57.2966"/>
</g>
</g>
</svg>
