<?xml version="1.0" encoding="UTF-8" standalone="no"?>
<!DOCTYPE svg PUBLIC "-//W3C//DTD SVG 1.1//EN"
 "http://www.w3.org/Graphics/SVG/1.1/DTD/svg11.dtd">
<!-- Generated by graphviz version 2.40.1 (20161225.0304)
 -->
<!-- Title: submodels/FrontTracking/UndulationRemovalModels/UndulationRemovalModel/UndulationRemovalModel.H Pages: 1 -->
<svg width="989pt" height="306pt"
 viewBox="0.00 0.00 988.50 306.00" xmlns="http://www.w3.org/2000/svg" xmlns:xlink="http://www.w3.org/1999/xlink">
<g id="graph0" class="graph" transform="scale(1 1) rotate(0) translate(4 302)">
<title>submodels/FrontTracking/UndulationRemovalModels/UndulationRemovalModel/UndulationRemovalModel.H</title>
<!-- Node5 -->
<g id="node1" class="node">
<title>Node5</title>
<polygon fill="#bfbfbf" stroke="#000000" points="404.5,-245.5 404.5,-297.5 546.5,-297.5 546.5,-245.5 404.5,-245.5"/>
<text text-anchor="start" x="412.5" y="-285.5" font-family="Helvetica,sans-Serif" font-size="10.00" fill="#000000">submodels/FrontTracking</text>
<text text-anchor="start" x="412.5" y="-274.5" font-family="Helvetica,sans-Serif" font-size="10.00" fill="#000000">/UndulationRemovalModels</text>
<text text-anchor="start" x="412.5" y="-263.5" font-family="Helvetica,sans-Serif" font-size="10.00" fill="#000000">/UndulationRemovalModel</text>
<text text-anchor="middle" x="475.5" y="-252.5" font-family="Helvetica,sans-Serif" font-size="10.00" fill="#000000">/UndulationRemovalModel.H</text>
</g>
<!-- Node6 -->
<g id="node2" class="node">
<title>Node6</title>
<g id="a_node2"><a xlink:href="clouds_2Templates_2FrontTrackingCloud_2FrontTrackingCloud_8C.html" target="_top" xlink:title="clouds/Templates/FrontTracking\lCloud/FrontTrackingCloud.C">
<polygon fill="none" stroke="#000000" points="0,-167.5 0,-197.5 157,-197.5 157,-167.5 0,-167.5"/>
<text text-anchor="start" x="8" y="-185.5" font-family="Helvetica,sans-Serif" font-size="10.00" fill="#000000">clouds/Templates/FrontTracking</text>
<text text-anchor="middle" x="78.5" y="-174.5" font-family="Helvetica,sans-Serif" font-size="10.00" fill="#000000">Cloud/FrontTrackingCloud.C</text>
</a>
</g>
</g>
<!-- Node5&#45;&gt;Node6 -->
<g id="edge1" class="edge">
<title>Node5&#45;&gt;Node6</title>
<path fill="none" stroke="#191970" d="M394.4136,-257.3722C331.5877,-245.8917 242.5564,-228.4549 165.5,-209 152.1812,-205.6373 137.8671,-201.4996 124.7724,-197.5021"/>
<polygon fill="#191970" stroke="#191970" points="393.8012,-260.8182 404.2659,-259.163 395.0531,-253.931 393.8012,-260.8182"/>
</g>
<!-- Node7 -->
<g id="node3" class="node">
<title>Node7</title>
<g id="a_node3"><a xlink:href="submodels_2FrontTracking_2UndulationRemovalModels_2NoUndulationRemoval_2NoUndulationRemoval_8H.html" target="_top" xlink:title="submodels/FrontTracking\l/UndulationRemovalModels\l/NoUndulationRemoval/NoUndulation\lRemoval.H">
<polygon fill="none" stroke="#000000" points="640.5,-156.5 640.5,-208.5 820.5,-208.5 820.5,-156.5 640.5,-156.5"/>
<text text-anchor="start" x="648.5" y="-196.5" font-family="Helvetica,sans-Serif" font-size="10.00" fill="#000000">submodels/FrontTracking</text>
<text text-anchor="start" x="648.5" y="-185.5" font-family="Helvetica,sans-Serif" font-size="10.00" fill="#000000">/UndulationRemovalModels</text>
<text text-anchor="start" x="648.5" y="-174.5" font-family="Helvetica,sans-Serif" font-size="10.00" fill="#000000">/NoUndulationRemoval/NoUndulation</text>
<text text-anchor="middle" x="730.5" y="-163.5" font-family="Helvetica,sans-Serif" font-size="10.00" fill="#000000">Removal.H</text>
</a>
</g>
</g>
<!-- Node5&#45;&gt;Node7 -->
<g id="edge2" class="edge">
<title>Node5&#45;&gt;Node7</title>
<path fill="none" stroke="#191970" d="M556.2728,-243.3087C588.1634,-232.1783 624.5804,-219.468 655.8461,-208.5557"/>
<polygon fill="#191970" stroke="#191970" points="554.8198,-240.1087 546.5317,-246.7085 557.1266,-246.7177 554.8198,-240.1087"/>
</g>
<!-- Node11 -->
<g id="node7" class="node">
<title>Node11</title>
<g id="a_node7"><a xlink:href="submodels_2FrontTracking_2UndulationRemovalModels_2TSUR3D_2TSUR3D_8H.html" target="_top" xlink:title="submodels/FrontTracking\l/UndulationRemovalModels\l/TSUR3D/TSUR3D.H">
<polygon fill="none" stroke="#000000" points="175,-162 175,-203 312,-203 312,-162 175,-162"/>
<text text-anchor="start" x="183" y="-191" font-family="Helvetica,sans-Serif" font-size="10.00" fill="#000000">submodels/FrontTracking</text>
<text text-anchor="start" x="183" y="-180" font-family="Helvetica,sans-Serif" font-size="10.00" fill="#000000">/UndulationRemovalModels</text>
<text text-anchor="middle" x="243.5" y="-169" font-family="Helvetica,sans-Serif" font-size="10.00" fill="#000000">/TSUR3D/TSUR3D.H</text>
</a>
</g>
</g>
<!-- Node5&#45;&gt;Node11 -->
<g id="edge6" class="edge">
<title>Node5&#45;&gt;Node11</title>
<path fill="none" stroke="#191970" d="M397.8213,-241.7008C364.7713,-229.0222 327.0457,-214.5498 297.1678,-203.0881"/>
<polygon fill="#191970" stroke="#191970" points="396.8697,-245.0845 407.4599,-245.3984 399.377,-238.5489 396.8697,-245.0845"/>
</g>
<!-- Node13 -->
<g id="node9" class="node">
<title>Node13</title>
<g id="a_node9"><a xlink:href="submodels_2FrontTracking_2UndulationRemovalModels_2UndulationRemovalModel_2UndulationRemovalModel_8C.html" target="_top" xlink:title="submodels/FrontTracking\l/UndulationRemovalModels\l/UndulationRemovalModel\l/UndulationRemovalModel.C">
<polygon fill="none" stroke="#000000" points="838.5,-156.5 838.5,-208.5 980.5,-208.5 980.5,-156.5 838.5,-156.5"/>
<text text-anchor="start" x="846.5" y="-196.5" font-family="Helvetica,sans-Serif" font-size="10.00" fill="#000000">submodels/FrontTracking</text>
<text text-anchor="start" x="846.5" y="-185.5" font-family="Helvetica,sans-Serif" font-size="10.00" fill="#000000">/UndulationRemovalModels</text>
<text text-anchor="start" x="846.5" y="-174.5" font-family="Helvetica,sans-Serif" font-size="10.00" fill="#000000">/UndulationRemovalModel</text>
<text text-anchor="middle" x="909.5" y="-163.5" font-family="Helvetica,sans-Serif" font-size="10.00" fill="#000000">/UndulationRemovalModel.C</text>
</a>
</g>
</g>
<!-- Node5&#45;&gt;Node13 -->
<g id="edge9" class="edge">
<title>Node5&#45;&gt;Node13</title>
<path fill="none" stroke="#191970" d="M556.6087,-260.602C628.8211,-250.0905 737.0332,-232.3462 829.5,-209 832.3372,-208.2837 835.2193,-207.5175 838.1221,-206.7137"/>
<polygon fill="#191970" stroke="#191970" points="556.0612,-257.1447 546.6636,-262.0371 557.061,-264.0729 556.0612,-257.1447"/>
</g>
<!-- Node14 -->
<g id="node10" class="node">
<title>Node14</title>
<g id="a_node10"><a xlink:href="submodels_2FrontTracking_2UndulationRemovalModels_2VCSIII_2VCSIII_8H.html" target="_top" xlink:title="submodels/FrontTracking\l/UndulationRemovalModels\l/VCSIII/VCSIII.H">
<polygon fill="none" stroke="#000000" points="330,-162 330,-203 467,-203 467,-162 330,-162"/>
<text text-anchor="start" x="338" y="-191" font-family="Helvetica,sans-Serif" font-size="10.00" fill="#000000">submodels/FrontTracking</text>
<text text-anchor="start" x="338" y="-180" font-family="Helvetica,sans-Serif" font-size="10.00" fill="#000000">/UndulationRemovalModels</text>
<text text-anchor="middle" x="398.5" y="-169" font-family="Helvetica,sans-Serif" font-size="10.00" fill="#000000">/VCSIII/VCSIII.H</text>
</a>
</g>
</g>
<!-- Node5&#45;&gt;Node14 -->
<g id="edge10" class="edge">
<title>Node5&#45;&gt;Node14</title>
<path fill="none" stroke="#191970" d="M446.0665,-237.4794C436.0689,-225.9238 425.2064,-213.3685 416.3892,-203.1771"/>
<polygon fill="#191970" stroke="#191970" points="443.6242,-240.0059 452.8139,-245.2784 448.9179,-235.4259 443.6242,-240.0059"/>
</g>
<!-- Node16 -->
<g id="node12" class="node">
<title>Node16</title>
<g id="a_node12"><a xlink:href="submodels_2FrontTracking_2UndulationRemovalModels_2VCSIV_2VCSIV_8H.html" target="_top" xlink:title="submodels/FrontTracking\l/UndulationRemovalModels\l/VCSIV/VCSIV.H">
<polygon fill="none" stroke="#000000" points="485,-162 485,-203 622,-203 622,-162 485,-162"/>
<text text-anchor="start" x="493" y="-191" font-family="Helvetica,sans-Serif" font-size="10.00" fill="#000000">submodels/FrontTracking</text>
<text text-anchor="start" x="493" y="-180" font-family="Helvetica,sans-Serif" font-size="10.00" fill="#000000">/UndulationRemovalModels</text>
<text text-anchor="middle" x="553.5" y="-169" font-family="Helvetica,sans-Serif" font-size="10.00" fill="#000000">/VCSIV/VCSIV.H</text>
</a>
</g>
</g>
<!-- Node5&#45;&gt;Node16 -->
<g id="edge13" class="edge">
<title>Node5&#45;&gt;Node16</title>
<path fill="none" stroke="#191970" d="M505.3158,-237.4794C515.4432,-225.9238 526.4467,-213.3685 535.3785,-203.1771"/>
<polygon fill="#191970" stroke="#191970" points="502.4396,-235.451 498.4807,-245.2784 507.704,-240.0648 502.4396,-235.451"/>
</g>
<!-- Node8 -->
<g id="node4" class="node">
<title>Node8</title>
<g id="a_node4"><a xlink:href="parcels_2include_2makeFrontTrackingParcelUndulationRemovalModels_8H.html" target="_top" xlink:title="parcels/include/makeFront\lTrackingParcelUndulationRemoval\lModels.H">
<polygon fill="none" stroke="#000000" points="392,-73 392,-114 559,-114 559,-73 392,-73"/>
<text text-anchor="start" x="400" y="-102" font-family="Helvetica,sans-Serif" font-size="10.00" fill="#000000">parcels/include/makeFront</text>
<text text-anchor="start" x="400" y="-91" font-family="Helvetica,sans-Serif" font-size="10.00" fill="#000000">TrackingParcelUndulationRemoval</text>
<text text-anchor="middle" x="475.5" y="-80" font-family="Helvetica,sans-Serif" font-size="10.00" fill="#000000">Models.H</text>
</a>
</g>
</g>
<!-- Node7&#45;&gt;Node8 -->
<g id="edge3" class="edge">
<title>Node7&#45;&gt;Node8</title>
<path fill="none" stroke="#191970" d="M646.0547,-153.0269C609.5064,-140.2708 567.6101,-125.6482 534.4883,-114.0881"/>
<polygon fill="#191970" stroke="#191970" points="645.1197,-156.4076 655.7146,-156.3984 647.4265,-149.7986 645.1197,-156.4076"/>
</g>
<!-- Node10 -->
<g id="node6" class="node">
<title>Node10</title>
<g id="a_node6"><a xlink:href="submodels_2FrontTracking_2UndulationRemovalModels_2NoUndulationRemoval_2NoUndulationRemoval_8C.html" target="_top" xlink:title="submodels/FrontTracking\l/UndulationRemovalModels\l/NoUndulationRemoval/NoUndulation\lRemoval.C">
<polygon fill="none" stroke="#000000" points="732.5,-67.5 732.5,-119.5 912.5,-119.5 912.5,-67.5 732.5,-67.5"/>
<text text-anchor="start" x="740.5" y="-107.5" font-family="Helvetica,sans-Serif" font-size="10.00" fill="#000000">submodels/FrontTracking</text>
<text text-anchor="start" x="740.5" y="-96.5" font-family="Helvetica,sans-Serif" font-size="10.00" fill="#000000">/UndulationRemovalModels</text>
<text text-anchor="start" x="740.5" y="-85.5" font-family="Helvetica,sans-Serif" font-size="10.00" fill="#000000">/NoUndulationRemoval/NoUndulation</text>
<text text-anchor="middle" x="822.5" y="-74.5" font-family="Helvetica,sans-Serif" font-size="10.00" fill="#000000">Removal.C</text>
</a>
</g>
</g>
<!-- Node7&#45;&gt;Node10 -->
<g id="edge5" class="edge">
<title>Node7&#45;&gt;Node10</title>
<path fill="none" stroke="#191970" d="M764.83,-149.2894C774.9918,-139.459 785.9672,-128.8415 795.5883,-119.5341"/>
<polygon fill="#191970" stroke="#191970" points="762.3592,-146.8099 757.6054,-156.2784 767.2263,-151.841 762.3592,-146.8099"/>
</g>
<!-- Node9 -->
<g id="node5" class="node">
<title>Node9</title>
<g id="a_node5"><a xlink:href="parcels_2derived_2frontTrackingParcel_2makeFrontTrackingParcelSubmodels_8C.html" target="_top" xlink:title="parcels/derived/frontTracking\lParcel/makeFrontTrackingParcelSubmodels.C">
<polygon fill="none" stroke="#000000" points="366.5,-.5 366.5,-30.5 584.5,-30.5 584.5,-.5 366.5,-.5"/>
<text text-anchor="start" x="374.5" y="-18.5" font-family="Helvetica,sans-Serif" font-size="10.00" fill="#000000">parcels/derived/frontTracking</text>
<text text-anchor="middle" x="475.5" y="-7.5" font-family="Helvetica,sans-Serif" font-size="10.00" fill="#000000">Parcel/makeFrontTrackingParcelSubmodels.C</text>
</a>
</g>
</g>
<!-- Node8&#45;&gt;Node9 -->
<g id="edge4" class="edge">
<title>Node8&#45;&gt;Node9</title>
<path fill="none" stroke="#191970" d="M475.5,-62.5187C475.5,-51.6033 475.5,-39.8119 475.5,-30.7679"/>
<polygon fill="#191970" stroke="#191970" points="472.0001,-62.5974 475.5,-72.5974 479.0001,-62.5975 472.0001,-62.5974"/>
</g>
<!-- Node11&#45;&gt;Node8 -->
<g id="edge7" class="edge">
<title>Node11&#45;&gt;Node8</title>
<path fill="none" stroke="#191970" d="M306.4743,-158.3417C342.5841,-144.4893 387.4287,-127.286 421.851,-114.0808"/>
<polygon fill="#191970" stroke="#191970" points="305.0997,-155.1203 297.0168,-161.9699 307.607,-161.6559 305.0997,-155.1203"/>
</g>
<!-- Node12 -->
<g id="node8" class="node">
<title>Node12</title>
<g id="a_node8"><a xlink:href="submodels_2FrontTracking_2UndulationRemovalModels_2TSUR3D_2TSUR3D_8C.html" target="_top" xlink:title="submodels/FrontTracking\l/UndulationRemovalModels\l/TSUR3D/TSUR3D.C">
<polygon fill="none" stroke="#000000" points="82,-73 82,-114 219,-114 219,-73 82,-73"/>
<text text-anchor="start" x="90" y="-102" font-family="Helvetica,sans-Serif" font-size="10.00" fill="#000000">submodels/FrontTracking</text>
<text text-anchor="start" x="90" y="-91" font-family="Helvetica,sans-Serif" font-size="10.00" fill="#000000">/UndulationRemovalModels</text>
<text text-anchor="middle" x="150.5" y="-80" font-family="Helvetica,sans-Serif" font-size="10.00" fill="#000000">/TSUR3D/TSUR3D.C</text>
</a>
</g>
</g>
<!-- Node11&#45;&gt;Node12 -->
<g id="edge8" class="edge">
<title>Node11&#45;&gt;Node12</title>
<path fill="none" stroke="#191970" d="M214.5641,-154.8087C200.7911,-141.628 184.608,-126.141 171.9529,-114.0301"/>
<polygon fill="#191970" stroke="#191970" points="212.2855,-157.4726 221.9302,-161.8579 217.1253,-152.4152 212.2855,-157.4726"/>
</g>
<!-- Node14&#45;&gt;Node8 -->
<g id="edge11" class="edge">
<title>Node14&#45;&gt;Node8</title>
<path fill="none" stroke="#191970" d="M423.0932,-154.0741C434.3564,-141.0556 447.4541,-125.9167 457.738,-114.0301"/>
<polygon fill="#191970" stroke="#191970" points="420.2549,-152.0054 416.3589,-161.8579 425.5486,-156.5854 420.2549,-152.0054"/>
</g>
<!-- Node15 -->
<g id="node11" class="node">
<title>Node15</title>
<g id="a_node11"><a xlink:href="submodels_2FrontTracking_2UndulationRemovalModels_2VCSIII_2VCSIII_8C.html" target="_top" xlink:title="submodels/FrontTracking\l/UndulationRemovalModels\l/VCSIII/VCSIII.C">
<polygon fill="none" stroke="#000000" points="237,-73 237,-114 374,-114 374,-73 237,-73"/>
<text text-anchor="start" x="245" y="-102" font-family="Helvetica,sans-Serif" font-size="10.00" fill="#000000">submodels/FrontTracking</text>
<text text-anchor="start" x="245" y="-91" font-family="Helvetica,sans-Serif" font-size="10.00" fill="#000000">/UndulationRemovalModels</text>
<text text-anchor="middle" x="305.5" y="-80" font-family="Helvetica,sans-Serif" font-size="10.00" fill="#000000">/VCSIII/VCSIII.C</text>
</a>
</g>
</g>
<!-- Node14&#45;&gt;Node15 -->
<g id="edge12" class="edge">
<title>Node14&#45;&gt;Node15</title>
<path fill="none" stroke="#191970" d="M369.5641,-154.8087C355.7911,-141.628 339.608,-126.141 326.9529,-114.0301"/>
<polygon fill="#191970" stroke="#191970" points="367.2855,-157.4726 376.9302,-161.8579 372.1253,-152.4152 367.2855,-157.4726"/>
</g>
<!-- Node16&#45;&gt;Node8 -->
<g id="edge14" class="edge">
<title>Node16&#45;&gt;Node8</title>
<path fill="none" stroke="#191970" d="M528.5874,-154.0741C517.1779,-141.0556 503.9102,-125.9167 493.4927,-114.0301"/>
<polygon fill="#191970" stroke="#191970" points="526.1859,-156.6442 535.4092,-161.8579 531.4503,-152.0305 526.1859,-156.6442"/>
</g>
<!-- Node17 -->
<g id="node13" class="node">
<title>Node17</title>
<g id="a_node13"><a xlink:href="submodels_2FrontTracking_2UndulationRemovalModels_2VCSIV_2VCSIV_8C.html" target="_top" xlink:title="submodels/FrontTracking\l/UndulationRemovalModels\l/VCSIV/VCSIV.C">
<polygon fill="none" stroke="#000000" points="577,-73 577,-114 714,-114 714,-73 577,-73"/>
<text text-anchor="start" x="585" y="-102" font-family="Helvetica,sans-Serif" font-size="10.00" fill="#000000">submodels/FrontTracking</text>
<text text-anchor="start" x="585" y="-91" font-family="Helvetica,sans-Serif" font-size="10.00" fill="#000000">/UndulationRemovalModels</text>
<text text-anchor="middle" x="645.5" y="-80" font-family="Helvetica,sans-Serif" font-size="10.00" fill="#000000">/VCSIV/VCSIV.C</text>
</a>
</g>
</g>
<!-- Node16&#45;&gt;Node17 -->
<g id="edge15" class="edge">
<title>Node16&#45;&gt;Node17</title>
<path fill="none" stroke="#191970" d="M582.1247,-154.8087C595.7497,-141.628 611.7587,-126.141 624.2778,-114.0301"/>
<polygon fill="#191970" stroke="#191970" points="579.5917,-152.3894 574.8379,-161.8579 584.4587,-157.4205 579.5917,-152.3894"/>
</g>
</g>
</svg>
