<?xml version="1.0" encoding="UTF-8" standalone="no"?>
<!DOCTYPE svg PUBLIC "-//W3C//DTD SVG 1.1//EN"
 "http://www.w3.org/Graphics/SVG/1.1/DTD/svg11.dtd">
<!-- Generated by graphviz version 2.40.1 (20161225.0304)
 -->
<!-- Title: submodels/FrontTracking/SurfaceTensionModels/SurfaceTensionModel/SurfaceTensionModel.H Pages: 1 -->
<svg width="774pt" height="306pt"
 viewBox="0.00 0.00 774.00 306.00" xmlns="http://www.w3.org/2000/svg" xmlns:xlink="http://www.w3.org/1999/xlink">
<g id="graph0" class="graph" transform="scale(1 1) rotate(0) translate(4 302)">
<title>submodels/FrontTracking/SurfaceTensionModels/SurfaceTensionModel/SurfaceTensionModel.H</title>
<!-- Node5 -->
<g id="node1" class="node">
<title>Node5</title>
<polygon fill="#bfbfbf" stroke="#000000" points="271,-245.5 271,-297.5 456,-297.5 456,-245.5 271,-245.5"/>
<text text-anchor="start" x="279" y="-285.5" font-family="Helvetica,sans-Serif" font-size="10.00" fill="#000000">submodels/FrontTracking</text>
<text text-anchor="start" x="279" y="-274.5" font-family="Helvetica,sans-Serif" font-size="10.00" fill="#000000">/SurfaceTensionModels</text>
<text text-anchor="start" x="279" y="-263.5" font-family="Helvetica,sans-Serif" font-size="10.00" fill="#000000">/SurfaceTensionModel/SurfaceTension</text>
<text text-anchor="middle" x="363.5" y="-252.5" font-family="Helvetica,sans-Serif" font-size="10.00" fill="#000000">Model.H</text>
</g>
<!-- Node6 -->
<g id="node2" class="node">
<title>Node6</title>
<g id="a_node2"><a xlink:href="clouds_2Templates_2FrontTrackingCloud_2FrontTrackingCloud_8C.html" target="_top" xlink:title="clouds/Templates/FrontTracking\lCloud/FrontTrackingCloud.C">
<polygon fill="none" stroke="#000000" points="0,-167.5 0,-197.5 157,-197.5 157,-167.5 0,-167.5"/>
<text text-anchor="start" x="8" y="-185.5" font-family="Helvetica,sans-Serif" font-size="10.00" fill="#000000">clouds/Templates/FrontTracking</text>
<text text-anchor="middle" x="78.5" y="-174.5" font-family="Helvetica,sans-Serif" font-size="10.00" fill="#000000">Cloud/FrontTrackingCloud.C</text>
</a>
</g>
</g>
<!-- Node5&#45;&gt;Node6 -->
<g id="edge1" class="edge">
<title>Node5&#45;&gt;Node6</title>
<path fill="none" stroke="#191970" d="M270.1566,-242.3507C222.3149,-227.4106 166.0486,-209.8397 126.9075,-197.6167"/>
<polygon fill="#191970" stroke="#191970" points="269.3276,-245.7584 279.9163,-245.3984 271.4142,-239.0766 269.3276,-245.7584"/>
</g>
<!-- Node7 -->
<g id="node3" class="node">
<title>Node7</title>
<g id="a_node3"><a xlink:href="submodels_2FrontTracking_2SurfaceTensionModels_2DirectElementBased_2DirectElementBased_8H.html" target="_top" xlink:title="submodels/FrontTracking\l/SurfaceTensionModels\l/DirectElementBased/DirectElement\lBased.H">
<polygon fill="none" stroke="#000000" points="175,-156.5 175,-208.5 350,-208.5 350,-156.5 175,-156.5"/>
<text text-anchor="start" x="183" y="-196.5" font-family="Helvetica,sans-Serif" font-size="10.00" fill="#000000">submodels/FrontTracking</text>
<text text-anchor="start" x="183" y="-185.5" font-family="Helvetica,sans-Serif" font-size="10.00" fill="#000000">/SurfaceTensionModels</text>
<text text-anchor="start" x="183" y="-174.5" font-family="Helvetica,sans-Serif" font-size="10.00" fill="#000000">/DirectElementBased/DirectElement</text>
<text text-anchor="middle" x="262.5" y="-163.5" font-family="Helvetica,sans-Serif" font-size="10.00" fill="#000000">Based.H</text>
</a>
</g>
</g>
<!-- Node5&#45;&gt;Node7 -->
<g id="edge2" class="edge">
<title>Node5&#45;&gt;Node7</title>
<path fill="none" stroke="#191970" d="M326.1363,-238.5755C314.8898,-228.6653 302.7092,-217.9319 292.0444,-208.5341"/>
<polygon fill="#191970" stroke="#191970" points="323.9262,-241.2931 333.7429,-245.2784 328.5542,-236.0411 323.9262,-241.2931"/>
</g>
<!-- Node11 -->
<g id="node7" class="node">
<title>Node11</title>
<g id="a_node7"><a xlink:href="submodels_2FrontTracking_2SurfaceTensionModels_2NoSurfaceTension_2NoSurfaceTension_8H.html" target="_top" xlink:title="submodels/FrontTracking\l/SurfaceTensionModels\l/NoSurfaceTension/NoSurfaceTension.H">
<polygon fill="none" stroke="#000000" points="368,-162 368,-203 563,-203 563,-162 368,-162"/>
<text text-anchor="start" x="376" y="-191" font-family="Helvetica,sans-Serif" font-size="10.00" fill="#000000">submodels/FrontTracking</text>
<text text-anchor="start" x="376" y="-180" font-family="Helvetica,sans-Serif" font-size="10.00" fill="#000000">/SurfaceTensionModels</text>
<text text-anchor="middle" x="465.5" y="-169" font-family="Helvetica,sans-Serif" font-size="10.00" fill="#000000">/NoSurfaceTension/NoSurfaceTension.H</text>
</a>
</g>
</g>
<!-- Node5&#45;&gt;Node11 -->
<g id="edge6" class="edge">
<title>Node5&#45;&gt;Node11</title>
<path fill="none" stroke="#191970" d="M401.3468,-238.4768C414.9011,-226.6501 429.7857,-213.6625 441.8026,-203.1771"/>
<polygon fill="#191970" stroke="#191970" points="398.7855,-236.0666 393.5517,-245.2784 403.3877,-241.341 398.7855,-236.0666"/>
</g>
<!-- Node13 -->
<g id="node9" class="node">
<title>Node13</title>
<g id="a_node9"><a xlink:href="submodels_2FrontTracking_2SurfaceTensionModels_2SurfaceTensionModel_2SurfaceTensionModel_8C.html" target="_top" xlink:title="submodels/FrontTracking\l/SurfaceTensionModels\l/SurfaceTensionModel/SurfaceTension\lModel.C">
<polygon fill="none" stroke="#000000" points="581,-156.5 581,-208.5 766,-208.5 766,-156.5 581,-156.5"/>
<text text-anchor="start" x="589" y="-196.5" font-family="Helvetica,sans-Serif" font-size="10.00" fill="#000000">submodels/FrontTracking</text>
<text text-anchor="start" x="589" y="-185.5" font-family="Helvetica,sans-Serif" font-size="10.00" fill="#000000">/SurfaceTensionModels</text>
<text text-anchor="start" x="589" y="-174.5" font-family="Helvetica,sans-Serif" font-size="10.00" fill="#000000">/SurfaceTensionModel/SurfaceTension</text>
<text text-anchor="middle" x="673.5" y="-163.5" font-family="Helvetica,sans-Serif" font-size="10.00" fill="#000000">Model.C</text>
</a>
</g>
</g>
<!-- Node5&#45;&gt;Node13 -->
<g id="edge9" class="edge">
<title>Node5&#45;&gt;Node13</title>
<path fill="none" stroke="#191970" d="M464.5089,-242.5007C502.6328,-231.5554 545.7366,-219.1805 582.8539,-208.5242"/>
<polygon fill="#191970" stroke="#191970" points="463.0615,-239.2748 454.4156,-245.3984 464.9932,-246.003 463.0615,-239.2748"/>
</g>
<!-- Node8 -->
<g id="node4" class="node">
<title>Node8</title>
<g id="a_node4"><a xlink:href="parcels_2include_2makeFrontTrackingParcelSurfaceTensionModels_8H.html" target="_top" xlink:title="parcels/include/makeFront\lTrackingParcelSurfaceTensionModels.H">
<polygon fill="none" stroke="#000000" points="267.5,-78.5 267.5,-108.5 459.5,-108.5 459.5,-78.5 267.5,-78.5"/>
<text text-anchor="start" x="275.5" y="-96.5" font-family="Helvetica,sans-Serif" font-size="10.00" fill="#000000">parcels/include/makeFront</text>
<text text-anchor="middle" x="363.5" y="-85.5" font-family="Helvetica,sans-Serif" font-size="10.00" fill="#000000">TrackingParcelSurfaceTensionModels.H</text>
</a>
</g>
</g>
<!-- Node7&#45;&gt;Node8 -->
<g id="edge3" class="edge">
<title>Node7&#45;&gt;Node8</title>
<path fill="none" stroke="#191970" d="M299.881,-149.5604C315.7778,-135.5522 333.5382,-119.902 346.2451,-108.7048"/>
<polygon fill="#191970" stroke="#191970" points="297.4458,-147.0411 292.2571,-156.2784 302.0738,-152.2931 297.4458,-147.0411"/>
</g>
<!-- Node10 -->
<g id="node6" class="node">
<title>Node10</title>
<g id="a_node6"><a xlink:href="submodels_2FrontTracking_2SurfaceTensionModels_2DirectElementBased_2DirectElementBased_8C.html" target="_top" xlink:title="submodels/FrontTracking\l/SurfaceTensionModels\l/DirectElementBased/DirectElement\lBased.C">
<polygon fill="none" stroke="#000000" points="74,-67.5 74,-119.5 249,-119.5 249,-67.5 74,-67.5"/>
<text text-anchor="start" x="82" y="-107.5" font-family="Helvetica,sans-Serif" font-size="10.00" fill="#000000">submodels/FrontTracking</text>
<text text-anchor="start" x="82" y="-96.5" font-family="Helvetica,sans-Serif" font-size="10.00" fill="#000000">/SurfaceTensionModels</text>
<text text-anchor="start" x="82" y="-85.5" font-family="Helvetica,sans-Serif" font-size="10.00" fill="#000000">/DirectElementBased/DirectElement</text>
<text text-anchor="middle" x="161.5" y="-74.5" font-family="Helvetica,sans-Serif" font-size="10.00" fill="#000000">Based.C</text>
</a>
</g>
</g>
<!-- Node7&#45;&gt;Node10 -->
<g id="edge5" class="edge">
<title>Node7&#45;&gt;Node10</title>
<path fill="none" stroke="#191970" d="M225.1363,-149.5755C213.8898,-139.6653 201.7092,-128.9319 191.0444,-119.5341"/>
<polygon fill="#191970" stroke="#191970" points="222.9262,-152.2931 232.7429,-156.2784 227.5542,-147.0411 222.9262,-152.2931"/>
</g>
<!-- Node9 -->
<g id="node5" class="node">
<title>Node9</title>
<g id="a_node5"><a xlink:href="parcels_2derived_2frontTrackingParcel_2makeFrontTrackingParcelSubmodels_8C.html" target="_top" xlink:title="parcels/derived/frontTracking\lParcel/makeFrontTrackingParcelSubmodels.C">
<polygon fill="none" stroke="#000000" points="254.5,-.5 254.5,-30.5 472.5,-30.5 472.5,-.5 254.5,-.5"/>
<text text-anchor="start" x="262.5" y="-18.5" font-family="Helvetica,sans-Serif" font-size="10.00" fill="#000000">parcels/derived/frontTracking</text>
<text text-anchor="middle" x="363.5" y="-7.5" font-family="Helvetica,sans-Serif" font-size="10.00" fill="#000000">Parcel/makeFrontTrackingParcelSubmodels.C</text>
</a>
</g>
</g>
<!-- Node8&#45;&gt;Node9 -->
<g id="edge4" class="edge">
<title>Node8&#45;&gt;Node9</title>
<path fill="none" stroke="#191970" d="M363.5,-68.2875C363.5,-55.9187 363.5,-41.4264 363.5,-30.7592"/>
<polygon fill="#191970" stroke="#191970" points="360.0001,-68.4608 363.5,-78.4608 367.0001,-68.4608 360.0001,-68.4608"/>
</g>
<!-- Node11&#45;&gt;Node8 -->
<g id="edge7" class="edge">
<title>Node11&#45;&gt;Node8</title>
<path fill="none" stroke="#191970" d="M434.1051,-155.1064C416.6301,-139.8586 395.5327,-121.4501 380.9764,-108.7491"/>
<polygon fill="#191970" stroke="#191970" points="432.0067,-157.9205 441.8428,-161.8579 436.609,-152.6461 432.0067,-157.9205"/>
</g>
<!-- Node12 -->
<g id="node8" class="node">
<title>Node12</title>
<g id="a_node8"><a xlink:href="submodels_2FrontTracking_2SurfaceTensionModels_2NoSurfaceTension_2NoSurfaceTension_8C.html" target="_top" xlink:title="submodels/FrontTracking\l/SurfaceTensionModels\l/NoSurfaceTension/NoSurfaceTension.C">
<polygon fill="none" stroke="#000000" points="478,-73 478,-114 673,-114 673,-73 478,-73"/>
<text text-anchor="start" x="486" y="-102" font-family="Helvetica,sans-Serif" font-size="10.00" fill="#000000">submodels/FrontTracking</text>
<text text-anchor="start" x="486" y="-91" font-family="Helvetica,sans-Serif" font-size="10.00" fill="#000000">/SurfaceTensionModels</text>
<text text-anchor="middle" x="575.5" y="-80" font-family="Helvetica,sans-Serif" font-size="10.00" fill="#000000">/NoSurfaceTension/NoSurfaceTension.C</text>
</a>
</g>
</g>
<!-- Node11&#45;&gt;Node12 -->
<g id="edge8" class="edge">
<title>Node11&#45;&gt;Node12</title>
<path fill="none" stroke="#191970" d="M498.8232,-155.5385C515.3056,-142.2028 534.88,-126.3653 550.1257,-114.0301"/>
<polygon fill="#191970" stroke="#191970" points="496.5853,-152.847 491.0127,-161.8579 500.9883,-158.2889 496.5853,-152.847"/>
</g>
</g>
</svg>
