<?xml version="1.0" encoding="UTF-8" standalone="no"?>
<!DOCTYPE svg PUBLIC "-//W3C//DTD SVG 1.1//EN"
 "http://www.w3.org/Graphics/SVG/1.1/DTD/svg11.dtd">
<!-- Generated by graphviz version 2.40.1 (20161225.0304)
 -->
<!-- Title: submodels/FrontTracking/SurfaceTensionModels/NoSurfaceTension/NoSurfaceTension.C Pages: 1 -->
<svg width="203pt" height="162pt"
 viewBox="0.00 0.00 203.00 162.00" xmlns="http://www.w3.org/2000/svg" xmlns:xlink="http://www.w3.org/1999/xlink">
<g id="graph0" class="graph" transform="scale(1 1) rotate(0) translate(4 158)">
<title>submodels/FrontTracking/SurfaceTensionModels/NoSurfaceTension/NoSurfaceTension.C</title>
<!-- Node0 -->
<g id="node1" class="node">
<title>Node0</title>
<polygon fill="#bfbfbf" stroke="#000000" points="0,-112.5 0,-153.5 195,-153.5 195,-112.5 0,-112.5"/>
<text text-anchor="start" x="8" y="-141.5" font-family="Helvetica,sans-Serif" font-size="10.00" fill="#000000">submodels/FrontTracking</text>
<text text-anchor="start" x="8" y="-130.5" font-family="Helvetica,sans-Serif" font-size="10.00" fill="#000000">/SurfaceTensionModels</text>
<text text-anchor="middle" x="97.5" y="-119.5" font-family="Helvetica,sans-Serif" font-size="10.00" fill="#000000">/NoSurfaceTension/NoSurfaceTension.C</text>
</g>
<!-- Node1 -->
<g id="node2" class="node">
<title>Node1</title>
<g id="a_node2"><a xlink:href="submodels_2FrontTracking_2SurfaceTensionModels_2NoSurfaceTension_2NoSurfaceTension_8H.html" target="_top" xlink:title="NoSurfaceTension.H">
<polygon fill="none" stroke="#000000" points="43.5,-56.5 43.5,-75.5 151.5,-75.5 151.5,-56.5 43.5,-56.5"/>
<text text-anchor="middle" x="97.5" y="-63.5" font-family="Helvetica,sans-Serif" font-size="10.00" fill="#000000">NoSurfaceTension.H</text>
</a>
</g>
</g>
<!-- Node0&#45;&gt;Node1 -->
<g id="edge1" class="edge">
<title>Node0&#45;&gt;Node1</title>
<path fill="none" stroke="#191970" d="M97.5,-112.168C97.5,-103.8226 97.5,-94.2471 97.5,-85.9879"/>
<polygon fill="#191970" stroke="#191970" points="101.0001,-85.7804 97.5,-75.7805 94.0001,-85.7805 101.0001,-85.7804"/>
</g>
<!-- Node2 -->
<g id="node3" class="node">
<title>Node2</title>
<polygon fill="none" stroke="#bfbfbf" points="36.5,-.5 36.5,-19.5 158.5,-19.5 158.5,-.5 36.5,-.5"/>
<text text-anchor="middle" x="97.5" y="-7.5" font-family="Helvetica,sans-Serif" font-size="10.00" fill="#000000">SurfaceTensionModel.H</text>
</g>
<!-- Node1&#45;&gt;Node2 -->
<g id="edge2" class="edge">
<title>Node1&#45;&gt;Node2</title>
<path fill="none" stroke="#191970" d="M97.5,-56.2455C97.5,-48.9382 97.5,-38.6944 97.5,-29.7046"/>
<polygon fill="#191970" stroke="#191970" points="101.0001,-29.6426 97.5,-19.6427 94.0001,-29.6427 101.0001,-29.6426"/>
</g>
</g>
</svg>
