<?xml version="1.0" encoding="UTF-8" standalone="no"?>
<!DOCTYPE svg PUBLIC "-//W3C//DTD SVG 1.1//EN"
 "http://www.w3.org/Graphics/SVG/1.1/DTD/svg11.dtd">
<!-- Generated by graphviz version 2.40.1 (20161225.0304)
 -->
<!-- Title: submodels/FrontTracking/VolumeCorrectionModels/VC2/VC2.H Pages: 1 -->
<svg width="345pt" height="195pt"
 viewBox="0.00 0.00 344.50 195.00" xmlns="http://www.w3.org/2000/svg" xmlns:xlink="http://www.w3.org/1999/xlink">
<g id="graph0" class="graph" transform="scale(1 1) rotate(0) translate(4 191)">
<title>submodels/FrontTracking/VolumeCorrectionModels/VC2/VC2.H</title>
<!-- Node3 -->
<g id="node1" class="node">
<title>Node3</title>
<polygon fill="#bfbfbf" stroke="#000000" points="125.5,-145.5 125.5,-186.5 254.5,-186.5 254.5,-145.5 125.5,-145.5"/>
<text text-anchor="start" x="133.5" y="-174.5" font-family="Helvetica,sans-Serif" font-size="10.00" fill="#000000">submodels/FrontTracking</text>
<text text-anchor="start" x="133.5" y="-163.5" font-family="Helvetica,sans-Serif" font-size="10.00" fill="#000000">/VolumeCorrectionModels</text>
<text text-anchor="middle" x="190" y="-152.5" font-family="Helvetica,sans-Serif" font-size="10.00" fill="#000000">/VC2/VC2.H</text>
</g>
<!-- Node4 -->
<g id="node2" class="node">
<title>Node4</title>
<g id="a_node2"><a xlink:href="parcels_2include_2makeFrontTrackingParcelVolumeCorrectionModels_8H.html" target="_top" xlink:title="parcels/include/makeFront\lTrackingParcelVolumeCorrection\lModels.H">
<polygon fill="none" stroke="#000000" points="29,-67.5 29,-108.5 189,-108.5 189,-67.5 29,-67.5"/>
<text text-anchor="start" x="37" y="-96.5" font-family="Helvetica,sans-Serif" font-size="10.00" fill="#000000">parcels/include/makeFront</text>
<text text-anchor="start" x="37" y="-85.5" font-family="Helvetica,sans-Serif" font-size="10.00" fill="#000000">TrackingParcelVolumeCorrection</text>
<text text-anchor="middle" x="109" y="-74.5" font-family="Helvetica,sans-Serif" font-size="10.00" fill="#000000">Models.H</text>
</a>
</g>
</g>
<!-- Node3&#45;&gt;Node4 -->
<g id="edge1" class="edge">
<title>Node3&#45;&gt;Node4</title>
<path fill="none" stroke="#191970" d="M160.8662,-137.9452C150.8361,-128.2866 139.7941,-117.6535 130.4856,-108.6898"/>
<polygon fill="#191970" stroke="#191970" points="158.6625,-140.6821 168.2935,-145.0974 163.518,-135.6399 158.6625,-140.6821"/>
</g>
<!-- Node6 -->
<g id="node4" class="node">
<title>Node6</title>
<g id="a_node4"><a xlink:href="submodels_2FrontTracking_2VolumeCorrectionModels_2VC2_2VC2_8C.html" target="_top" xlink:title="submodels/FrontTracking\l/VolumeCorrectionModels\l/VC2/VC2.C">
<polygon fill="none" stroke="#000000" points="207.5,-67.5 207.5,-108.5 336.5,-108.5 336.5,-67.5 207.5,-67.5"/>
<text text-anchor="start" x="215.5" y="-96.5" font-family="Helvetica,sans-Serif" font-size="10.00" fill="#000000">submodels/FrontTracking</text>
<text text-anchor="start" x="215.5" y="-85.5" font-family="Helvetica,sans-Serif" font-size="10.00" fill="#000000">/VolumeCorrectionModels</text>
<text text-anchor="middle" x="272" y="-74.5" font-family="Helvetica,sans-Serif" font-size="10.00" fill="#000000">/VC2/VC2.C</text>
</a>
</g>
</g>
<!-- Node3&#45;&gt;Node6 -->
<g id="edge3" class="edge">
<title>Node3&#45;&gt;Node6</title>
<path fill="none" stroke="#191970" d="M219.4935,-137.9452C229.6474,-128.2866 240.8258,-117.6535 250.2492,-108.6898"/>
<polygon fill="#191970" stroke="#191970" points="216.8078,-135.6693 211.9745,-145.0974 221.6324,-140.7412 216.8078,-135.6693"/>
</g>
<!-- Node5 -->
<g id="node3" class="node">
<title>Node5</title>
<g id="a_node3"><a xlink:href="parcels_2derived_2frontTrackingParcel_2makeFrontTrackingParcelSubmodels_8C.html" target="_top" xlink:title="parcels/derived/frontTracking\lParcel/makeFrontTrackingParcelSubmodels.C">
<polygon fill="none" stroke="#000000" points="0,-.5 0,-30.5 218,-30.5 218,-.5 0,-.5"/>
<text text-anchor="start" x="8" y="-18.5" font-family="Helvetica,sans-Serif" font-size="10.00" fill="#000000">parcels/derived/frontTracking</text>
<text text-anchor="middle" x="109" y="-7.5" font-family="Helvetica,sans-Serif" font-size="10.00" fill="#000000">Parcel/makeFrontTrackingParcelSubmodels.C</text>
</a>
</g>
</g>
<!-- Node4&#45;&gt;Node5 -->
<g id="edge2" class="edge">
<title>Node4&#45;&gt;Node5</title>
<path fill="none" stroke="#191970" d="M109,-57.3279C109,-48.0871 109,-38.3508 109,-30.5991"/>
<polygon fill="#191970" stroke="#191970" points="105.5001,-57.4183 109,-67.4183 112.5001,-57.4184 105.5001,-57.4183"/>
</g>
</g>
</svg>
