<?xml version="1.0" encoding="UTF-8" standalone="no"?>
<!DOCTYPE svg PUBLIC "-//W3C//DTD SVG 1.1//EN"
 "http://www.w3.org/Graphics/SVG/1.1/DTD/svg11.dtd">
<!-- Generated by graphviz version 2.40.1 (20161225.0304)
 -->
<!-- Title: submodels/FrontTracking/UndulationRemovalModels/VCSIII/VCSIII.H Pages: 1 -->
<svg width="356pt" height="195pt"
 viewBox="0.00 0.00 355.50 195.00" xmlns="http://www.w3.org/2000/svg" xmlns:xlink="http://www.w3.org/1999/xlink">
<g id="graph0" class="graph" transform="scale(1 1) rotate(0) translate(4 191)">
<title>submodels/FrontTracking/UndulationRemovalModels/VCSIII/VCSIII.H</title>
<!-- Node3 -->
<g id="node1" class="node">
<title>Node3</title>
<polygon fill="#bfbfbf" stroke="#000000" points="125.5,-145.5 125.5,-186.5 262.5,-186.5 262.5,-145.5 125.5,-145.5"/>
<text text-anchor="start" x="133.5" y="-174.5" font-family="Helvetica,sans-Serif" font-size="10.00" fill="#000000">submodels/FrontTracking</text>
<text text-anchor="start" x="133.5" y="-163.5" font-family="Helvetica,sans-Serif" font-size="10.00" fill="#000000">/UndulationRemovalModels</text>
<text text-anchor="middle" x="194" y="-152.5" font-family="Helvetica,sans-Serif" font-size="10.00" fill="#000000">/VCSIII/VCSIII.H</text>
</g>
<!-- Node4 -->
<g id="node2" class="node">
<title>Node4</title>
<g id="a_node2"><a xlink:href="parcels_2include_2makeFrontTrackingParcelUndulationRemovalModels_8H.html" target="_top" xlink:title="parcels/include/makeFront\lTrackingParcelUndulationRemoval\lModels.H">
<polygon fill="none" stroke="#000000" points="25.5,-67.5 25.5,-108.5 192.5,-108.5 192.5,-67.5 25.5,-67.5"/>
<text text-anchor="start" x="33.5" y="-96.5" font-family="Helvetica,sans-Serif" font-size="10.00" fill="#000000">parcels/include/makeFront</text>
<text text-anchor="start" x="33.5" y="-85.5" font-family="Helvetica,sans-Serif" font-size="10.00" fill="#000000">TrackingParcelUndulationRemoval</text>
<text text-anchor="middle" x="109" y="-74.5" font-family="Helvetica,sans-Serif" font-size="10.00" fill="#000000">Models.H</text>
</a>
</g>
</g>
<!-- Node3&#45;&gt;Node4 -->
<g id="edge1" class="edge">
<title>Node3&#45;&gt;Node4</title>
<path fill="none" stroke="#191970" d="M163.7367,-138.229C153.1295,-128.4953 141.4105,-117.7414 131.5466,-108.6898"/>
<polygon fill="#191970" stroke="#191970" points="161.4872,-140.915 171.2216,-145.0974 166.22,-135.7574 161.4872,-140.915"/>
</g>
<!-- Node6 -->
<g id="node4" class="node">
<title>Node6</title>
<g id="a_node4"><a xlink:href="submodels_2FrontTracking_2UndulationRemovalModels_2VCSIII_2VCSIII_8C.html" target="_top" xlink:title="submodels/FrontTracking\l/UndulationRemovalModels\l/VCSIII/VCSIII.C">
<polygon fill="none" stroke="#000000" points="210.5,-67.5 210.5,-108.5 347.5,-108.5 347.5,-67.5 210.5,-67.5"/>
<text text-anchor="start" x="218.5" y="-96.5" font-family="Helvetica,sans-Serif" font-size="10.00" fill="#000000">submodels/FrontTracking</text>
<text text-anchor="start" x="218.5" y="-85.5" font-family="Helvetica,sans-Serif" font-size="10.00" fill="#000000">/UndulationRemovalModels</text>
<text text-anchor="middle" x="279" y="-74.5" font-family="Helvetica,sans-Serif" font-size="10.00" fill="#000000">/VCSIII/VCSIII.C</text>
</a>
</g>
</g>
<!-- Node3&#45;&gt;Node6 -->
<g id="edge3" class="edge">
<title>Node3&#45;&gt;Node6</title>
<path fill="none" stroke="#191970" d="M224.2633,-138.229C234.8705,-128.4953 246.5895,-117.7414 256.4534,-108.6898"/>
<polygon fill="#191970" stroke="#191970" points="221.78,-135.7574 216.7784,-145.0974 226.5128,-140.915 221.78,-135.7574"/>
</g>
<!-- Node5 -->
<g id="node3" class="node">
<title>Node5</title>
<g id="a_node3"><a xlink:href="parcels_2derived_2frontTrackingParcel_2makeFrontTrackingParcelSubmodels_8C.html" target="_top" xlink:title="parcels/derived/frontTracking\lParcel/makeFrontTrackingParcelSubmodels.C">
<polygon fill="none" stroke="#000000" points="0,-.5 0,-30.5 218,-30.5 218,-.5 0,-.5"/>
<text text-anchor="start" x="8" y="-18.5" font-family="Helvetica,sans-Serif" font-size="10.00" fill="#000000">parcels/derived/frontTracking</text>
<text text-anchor="middle" x="109" y="-7.5" font-family="Helvetica,sans-Serif" font-size="10.00" fill="#000000">Parcel/makeFrontTrackingParcelSubmodels.C</text>
</a>
</g>
</g>
<!-- Node4&#45;&gt;Node5 -->
<g id="edge2" class="edge">
<title>Node4&#45;&gt;Node5</title>
<path fill="none" stroke="#191970" d="M109,-57.3279C109,-48.0871 109,-38.3508 109,-30.5991"/>
<polygon fill="#191970" stroke="#191970" points="105.5001,-57.4183 109,-67.4183 112.5001,-57.4184 105.5001,-57.4183"/>
</g>
</g>
</svg>
