<?xml version="1.0" encoding="UTF-8" standalone="no"?>
<!DOCTYPE svg PUBLIC "-//W3C//DTD SVG 1.1//EN"
 "http://www.w3.org/Graphics/SVG/1.1/DTD/svg11.dtd">
<!-- Generated by graphviz version 2.40.1 (20161225.0304)
 -->
<!-- Title: submodels/FrontTracking/UndulationRemovalModels/TSUR3D/TSUR3D.H Pages: 1 -->
<svg width="242pt" height="106pt"
 viewBox="0.00 0.00 242.00 106.00" xmlns="http://www.w3.org/2000/svg" xmlns:xlink="http://www.w3.org/1999/xlink">
<g id="graph0" class="graph" transform="scale(1 1) rotate(0) translate(4 102)">
<title>submodels/FrontTracking/UndulationRemovalModels/TSUR3D/TSUR3D.H</title>
<!-- Node0 -->
<g id="node1" class="node">
<title>Node0</title>
<polygon fill="#bfbfbf" stroke="#000000" points="64,-56.5 64,-97.5 201,-97.5 201,-56.5 64,-56.5"/>
<text text-anchor="start" x="72" y="-85.5" font-family="Helvetica,sans-Serif" font-size="10.00" fill="#000000">submodels/FrontTracking</text>
<text text-anchor="start" x="72" y="-74.5" font-family="Helvetica,sans-Serif" font-size="10.00" fill="#000000">/UndulationRemovalModels</text>
<text text-anchor="middle" x="132.5" y="-63.5" font-family="Helvetica,sans-Serif" font-size="10.00" fill="#000000">/TSUR3D/TSUR3D.H</text>
</g>
<!-- Node1 -->
<g id="node2" class="node">
<title>Node1</title>
<polygon fill="none" stroke="#bfbfbf" points="0,-.5 0,-19.5 139,-19.5 139,-.5 0,-.5"/>
<text text-anchor="middle" x="69.5" y="-7.5" font-family="Helvetica,sans-Serif" font-size="10.00" fill="#000000">UndulationRemovalModel.H</text>
</g>
<!-- Node0&#45;&gt;Node1 -->
<g id="edge1" class="edge">
<title>Node0&#45;&gt;Node1</title>
<path fill="none" stroke="#191970" d="M112.9117,-56.168C104.1728,-46.8742 93.9994,-36.0549 85.6985,-27.227"/>
<polygon fill="#191970" stroke="#191970" points="88.0967,-24.6681 78.6966,-19.7805 82.997,-29.4633 88.0967,-24.6681"/>
</g>
<!-- Node2 -->
<g id="node3" class="node">
<title>Node2</title>
<polygon fill="none" stroke="#bfbfbf" points="157,-.5 157,-19.5 234,-19.5 234,-.5 157,-.5"/>
<text text-anchor="middle" x="195.5" y="-7.5" font-family="Helvetica,sans-Serif" font-size="10.00" fill="#000000">bubbleData.H</text>
</g>
<!-- Node0&#45;&gt;Node2 -->
<g id="edge2" class="edge">
<title>Node0&#45;&gt;Node2</title>
<path fill="none" stroke="#191970" d="M152.0883,-56.168C160.8272,-46.8742 171.0006,-36.0549 179.3015,-27.227"/>
<polygon fill="#191970" stroke="#191970" points="182.003,-29.4633 186.3034,-19.7805 176.9033,-24.6681 182.003,-29.4633"/>
</g>
</g>
</svg>
