<?xml version="1.0" encoding="UTF-8" standalone="no"?>
<!DOCTYPE svg PUBLIC "-//W3C//DTD SVG 1.1//EN"
 "http://www.w3.org/Graphics/SVG/1.1/DTD/svg11.dtd">
<!-- Generated by graphviz version 2.40.1 (20161225.0304)
 -->
<!-- Title: submodels/FrontTracking/FrontToFieldModels/BaseF2FModel/BaseF2FModel.C Pages: 1 -->
<svg width="212pt" height="162pt"
 viewBox="0.00 0.00 211.50 162.00" xmlns="http://www.w3.org/2000/svg" xmlns:xlink="http://www.w3.org/1999/xlink">
<g id="graph0" class="graph" transform="scale(1 1) rotate(0) translate(4 158)">
<title>submodels/FrontTracking/FrontToFieldModels/BaseF2FModel/BaseF2FModel.C</title>
<!-- Node0 -->
<g id="node1" class="node">
<title>Node0</title>
<polygon fill="#bfbfbf" stroke="#000000" points="21.5,-112.5 21.5,-153.5 196.5,-153.5 196.5,-112.5 21.5,-112.5"/>
<text text-anchor="start" x="29.5" y="-141.5" font-family="Helvetica,sans-Serif" font-size="10.00" fill="#000000">submodels/FrontTracking</text>
<text text-anchor="start" x="29.5" y="-130.5" font-family="Helvetica,sans-Serif" font-size="10.00" fill="#000000">/FrontToFieldModels/BaseF2FModel</text>
<text text-anchor="middle" x="109" y="-119.5" font-family="Helvetica,sans-Serif" font-size="10.00" fill="#000000">/BaseF2FModel.C</text>
</g>
<!-- Node1 -->
<g id="node2" class="node">
<title>Node1</title>
<g id="a_node2"><a xlink:href="submodels_2FrontTracking_2FrontToFieldModels_2BaseF2FModel_2BaseF2FModel_8H.html" target="_top" xlink:title="BaseF2FModel.H">
<polygon fill="none" stroke="#000000" points="62.5,-56.5 62.5,-75.5 155.5,-75.5 155.5,-56.5 62.5,-56.5"/>
<text text-anchor="middle" x="109" y="-63.5" font-family="Helvetica,sans-Serif" font-size="10.00" fill="#000000">BaseF2FModel.H</text>
</a>
</g>
</g>
<!-- Node0&#45;&gt;Node1 -->
<g id="edge1" class="edge">
<title>Node0&#45;&gt;Node1</title>
<path fill="none" stroke="#191970" d="M109,-112.168C109,-103.8226 109,-94.2471 109,-85.9879"/>
<polygon fill="#191970" stroke="#191970" points="112.5001,-85.7804 109,-75.7805 105.5001,-85.7805 112.5001,-85.7804"/>
</g>
<!-- Node2 -->
<g id="node3" class="node">
<title>Node2</title>
<polygon fill="none" stroke="#bfbfbf" points="0,-.5 0,-19.5 108,-19.5 108,-.5 0,-.5"/>
<text text-anchor="middle" x="54" y="-7.5" font-family="Helvetica,sans-Serif" font-size="10.00" fill="#000000">FrontToFieldModel.H</text>
</g>
<!-- Node1&#45;&gt;Node2 -->
<g id="edge2" class="edge">
<title>Node1&#45;&gt;Node2</title>
<path fill="none" stroke="#191970" d="M99.4197,-56.2455C91.4542,-48.1352 79.9359,-36.4075 70.4921,-26.7919"/>
<polygon fill="#191970" stroke="#191970" points="72.9747,-24.3247 63.4705,-19.6427 67.9805,-29.2297 72.9747,-24.3247"/>
</g>
<!-- Node3 -->
<g id="node4" class="node">
<title>Node3</title>
<polygon fill="none" stroke="#bfbfbf" points="126.5,-.5 126.5,-19.5 203.5,-19.5 203.5,-.5 126.5,-.5"/>
<text text-anchor="middle" x="165" y="-7.5" font-family="Helvetica,sans-Serif" font-size="10.00" fill="#000000">bubbleData.H</text>
</g>
<!-- Node1&#45;&gt;Node3 -->
<g id="edge3" class="edge">
<title>Node1&#45;&gt;Node3</title>
<path fill="none" stroke="#191970" d="M118.7545,-56.2455C126.8648,-48.1352 138.5925,-36.4075 148.2081,-26.7919"/>
<polygon fill="#191970" stroke="#191970" points="150.7611,-29.1887 155.3573,-19.6427 145.8113,-24.2389 150.7611,-29.1887"/>
</g>
</g>
</svg>
