<?xml version="1.0" encoding="UTF-8" standalone="no"?>
<!DOCTYPE svg PUBLIC "-//W3C//DTD SVG 1.1//EN"
 "http://www.w3.org/Graphics/SVG/1.1/DTD/svg11.dtd">
<!-- Generated by graphviz version 2.40.1 (20161225.0304)
 -->
<!-- Title: submodels/FrontTracking/FrontToFieldModels/BaseF2FModel/BaseF2FModel.H Pages: 1 -->
<svg width="621pt" height="273pt"
 viewBox="0.00 0.00 620.50 273.00" xmlns="http://www.w3.org/2000/svg" xmlns:xlink="http://www.w3.org/1999/xlink">
<g id="graph0" class="graph" transform="scale(1 1) rotate(0) translate(4 269)">
<title>submodels/FrontTracking/FrontToFieldModels/BaseF2FModel/BaseF2FModel.H</title>
<!-- Node3 -->
<g id="node1" class="node">
<title>Node3</title>
<polygon fill="#bfbfbf" stroke="#000000" points="187,-223.5 187,-264.5 362,-264.5 362,-223.5 187,-223.5"/>
<text text-anchor="start" x="195" y="-252.5" font-family="Helvetica,sans-Serif" font-size="10.00" fill="#000000">submodels/FrontTracking</text>
<text text-anchor="start" x="195" y="-241.5" font-family="Helvetica,sans-Serif" font-size="10.00" fill="#000000">/FrontToFieldModels/BaseF2FModel</text>
<text text-anchor="middle" x="274.5" y="-230.5" font-family="Helvetica,sans-Serif" font-size="10.00" fill="#000000">/BaseF2FModel.H</text>
</g>
<!-- Node4 -->
<g id="node2" class="node">
<title>Node4</title>
<g id="a_node2"><a xlink:href="submodels_2FrontTracking_2FrontToFieldModels_2BaseF2FModel_2BaseF2FModel_8C.html" target="_top" xlink:title="submodels/FrontTracking\l/FrontToFieldModels/BaseF2FModel\l/BaseF2FModel.C">
<polygon fill="none" stroke="#000000" points="0,-145.5 0,-186.5 175,-186.5 175,-145.5 0,-145.5"/>
<text text-anchor="start" x="8" y="-174.5" font-family="Helvetica,sans-Serif" font-size="10.00" fill="#000000">submodels/FrontTracking</text>
<text text-anchor="start" x="8" y="-163.5" font-family="Helvetica,sans-Serif" font-size="10.00" fill="#000000">/FrontToFieldModels/BaseF2FModel</text>
<text text-anchor="middle" x="87.5" y="-152.5" font-family="Helvetica,sans-Serif" font-size="10.00" fill="#000000">/BaseF2FModel.C</text>
</a>
</g>
</g>
<!-- Node3&#45;&gt;Node4 -->
<g id="edge1" class="edge">
<title>Node3&#45;&gt;Node4</title>
<path fill="none" stroke="#191970" d="M215.3828,-219.3415C190.0584,-208.7784 160.8242,-196.5844 136.7046,-186.5239"/>
<polygon fill="#191970" stroke="#191970" points="214.3017,-222.6828 224.8784,-223.3022 216.9965,-216.2222 214.3017,-222.6828"/>
</g>
<!-- Node5 -->
<g id="node3" class="node">
<title>Node5</title>
<g id="a_node3"><a xlink:href="submodels_2FrontTracking_2FrontToFieldModels_2CPT_2CPT_8H.html" target="_top" xlink:title="submodels/FrontTracking\l/FrontToFieldModels/CPT/CPT.H">
<polygon fill="none" stroke="#000000" points="193,-151 193,-181 356,-181 356,-151 193,-151"/>
<text text-anchor="start" x="201" y="-169" font-family="Helvetica,sans-Serif" font-size="10.00" fill="#000000">submodels/FrontTracking</text>
<text text-anchor="middle" x="274.5" y="-158" font-family="Helvetica,sans-Serif" font-size="10.00" fill="#000000">/FrontToFieldModels/CPT/CPT.H</text>
</a>
</g>
</g>
<!-- Node3&#45;&gt;Node5 -->
<g id="edge2" class="edge">
<title>Node3&#45;&gt;Node5</title>
<path fill="none" stroke="#191970" d="M274.5,-213.0187C274.5,-202.1033 274.5,-190.3119 274.5,-181.2679"/>
<polygon fill="#191970" stroke="#191970" points="271.0001,-213.0974 274.5,-223.0974 278.0001,-213.0975 271.0001,-213.0974"/>
</g>
<!-- Node9 -->
<g id="node7" class="node">
<title>Node9</title>
<g id="a_node7"><a xlink:href="submodels_2FrontTracking_2FrontToFieldModels_2Poisson_2Poisson_8H.html" target="_top" xlink:title="submodels/FrontTracking\l/FrontToFieldModels/Poisson\l/Poisson.H">
<polygon fill="none" stroke="#000000" points="374.5,-145.5 374.5,-186.5 518.5,-186.5 518.5,-145.5 374.5,-145.5"/>
<text text-anchor="start" x="382.5" y="-174.5" font-family="Helvetica,sans-Serif" font-size="10.00" fill="#000000">submodels/FrontTracking</text>
<text text-anchor="start" x="382.5" y="-163.5" font-family="Helvetica,sans-Serif" font-size="10.00" fill="#000000">/FrontToFieldModels/Poisson</text>
<text text-anchor="middle" x="446.5" y="-152.5" font-family="Helvetica,sans-Serif" font-size="10.00" fill="#000000">/Poisson.H</text>
</a>
</g>
</g>
<!-- Node3&#45;&gt;Node9 -->
<g id="edge6" class="edge">
<title>Node3&#45;&gt;Node9</title>
<path fill="none" stroke="#191970" d="M329.4917,-219.0619C352.6417,-208.5637 379.2528,-196.4958 401.2423,-186.5239"/>
<polygon fill="#191970" stroke="#191970" points="327.803,-215.9846 320.1413,-223.3022 330.6941,-222.3597 327.803,-215.9846"/>
</g>
<!-- Node6 -->
<g id="node4" class="node">
<title>Node6</title>
<g id="a_node4"><a xlink:href="parcels_2include_2makeFrontTrackingParcelFrontToFieldModels_8H.html" target="_top" xlink:title="parcels/include/makeFront\lTrackingParcelFrontToFieldModels.H">
<polygon fill="none" stroke="#000000" points="271,-73 271,-103 450,-103 450,-73 271,-73"/>
<text text-anchor="start" x="279" y="-91" font-family="Helvetica,sans-Serif" font-size="10.00" fill="#000000">parcels/include/makeFront</text>
<text text-anchor="middle" x="360.5" y="-80" font-family="Helvetica,sans-Serif" font-size="10.00" fill="#000000">TrackingParcelFrontToFieldModels.H</text>
</a>
</g>
</g>
<!-- Node5&#45;&gt;Node6 -->
<g id="edge3" class="edge">
<title>Node5&#45;&gt;Node6</title>
<path fill="none" stroke="#191970" d="M298.6421,-144.1036C312.9957,-131.0853 330.8453,-114.8962 343.6758,-103.2592"/>
<polygon fill="#191970" stroke="#191970" points="296.1375,-141.6501 291.0817,-150.9608 300.8402,-146.8352 296.1375,-141.6501"/>
</g>
<!-- Node8 -->
<g id="node6" class="node">
<title>Node8</title>
<g id="a_node6"><a xlink:href="submodels_2FrontTracking_2FrontToFieldModels_2CPT_2CPT_8C.html" target="_top" xlink:title="submodels/FrontTracking\l/FrontToFieldModels/CPT/CPT.C">
<polygon fill="none" stroke="#000000" points="90,-73 90,-103 253,-103 253,-73 90,-73"/>
<text text-anchor="start" x="98" y="-91" font-family="Helvetica,sans-Serif" font-size="10.00" fill="#000000">submodels/FrontTracking</text>
<text text-anchor="middle" x="171.5" y="-80" font-family="Helvetica,sans-Serif" font-size="10.00" fill="#000000">/FrontToFieldModels/CPT/CPT.C</text>
</a>
</g>
</g>
<!-- Node5&#45;&gt;Node8 -->
<g id="edge5" class="edge">
<title>Node5&#45;&gt;Node8</title>
<path fill="none" stroke="#191970" d="M246.5362,-144.8236C229.1885,-131.6864 207.3013,-115.1117 191.6499,-103.2592"/>
<polygon fill="#191970" stroke="#191970" points="244.5555,-147.7139 254.6406,-150.9608 248.7815,-142.1335 244.5555,-147.7139"/>
</g>
<!-- Node7 -->
<g id="node5" class="node">
<title>Node7</title>
<g id="a_node5"><a xlink:href="parcels_2derived_2frontTrackingParcel_2makeFrontTrackingParcelSubmodels_8C.html" target="_top" xlink:title="parcels/derived/frontTracking\lParcel/makeFrontTrackingParcelSubmodels.C">
<polygon fill="none" stroke="#000000" points="251.5,-.5 251.5,-30.5 469.5,-30.5 469.5,-.5 251.5,-.5"/>
<text text-anchor="start" x="259.5" y="-18.5" font-family="Helvetica,sans-Serif" font-size="10.00" fill="#000000">parcels/derived/frontTracking</text>
<text text-anchor="middle" x="360.5" y="-7.5" font-family="Helvetica,sans-Serif" font-size="10.00" fill="#000000">Parcel/makeFrontTrackingParcelSubmodels.C</text>
</a>
</g>
</g>
<!-- Node6&#45;&gt;Node7 -->
<g id="edge4" class="edge">
<title>Node6&#45;&gt;Node7</title>
<path fill="none" stroke="#191970" d="M360.5,-62.8409C360.5,-52.0601 360.5,-39.8309 360.5,-30.5028"/>
<polygon fill="#191970" stroke="#191970" points="357.0001,-62.9779 360.5,-72.978 364.0001,-62.978 357.0001,-62.9779"/>
</g>
<!-- Node9&#45;&gt;Node6 -->
<g id="edge7" class="edge">
<title>Node9&#45;&gt;Node6</title>
<path fill="none" stroke="#191970" d="M415.9757,-138.3152C402.8728,-126.4312 388.078,-113.0126 377.0642,-103.0233"/>
<polygon fill="#191970" stroke="#191970" points="413.695,-140.9718 423.4536,-145.0974 418.3977,-135.7867 413.695,-140.9718"/>
</g>
<!-- Node10 -->
<g id="node8" class="node">
<title>Node10</title>
<g id="a_node8"><a xlink:href="submodels_2FrontTracking_2FrontToFieldModels_2Poisson_2Poisson_8C.html" target="_top" xlink:title="submodels/FrontTracking\l/FrontToFieldModels/Poisson\l/Poisson.C">
<polygon fill="none" stroke="#000000" points="468.5,-67.5 468.5,-108.5 612.5,-108.5 612.5,-67.5 468.5,-67.5"/>
<text text-anchor="start" x="476.5" y="-96.5" font-family="Helvetica,sans-Serif" font-size="10.00" fill="#000000">submodels/FrontTracking</text>
<text text-anchor="start" x="476.5" y="-85.5" font-family="Helvetica,sans-Serif" font-size="10.00" fill="#000000">/FrontToFieldModels/Poisson</text>
<text text-anchor="middle" x="540.5" y="-74.5" font-family="Helvetica,sans-Serif" font-size="10.00" fill="#000000">/Poisson.C</text>
</a>
</g>
</g>
<!-- Node9&#45;&gt;Node10 -->
<g id="edge8" class="edge">
<title>Node9&#45;&gt;Node10</title>
<path fill="none" stroke="#191970" d="M479.6263,-138.5122C491.4461,-128.7043 504.5519,-117.8293 515.5661,-108.6898"/>
<polygon fill="#191970" stroke="#191970" points="477.1509,-136.0182 471.6903,-145.0974 481.6209,-141.4051 477.1509,-136.0182"/>
</g>
</g>
</svg>
