<?xml version="1.0" encoding="UTF-8" standalone="no"?>
<!DOCTYPE svg PUBLIC "-//W3C//DTD SVG 1.1//EN"
 "http://www.w3.org/Graphics/SVG/1.1/DTD/svg11.dtd">
<!-- Generated by graphviz version 2.40.1 (20161225.0304)
 -->
<!-- Title: submodels/FrontTracking/FrontToFieldModels/Poisson/Poisson.H Pages: 1 -->
<svg width="369pt" height="195pt"
 viewBox="0.00 0.00 369.00 195.00" xmlns="http://www.w3.org/2000/svg" xmlns:xlink="http://www.w3.org/1999/xlink">
<g id="graph0" class="graph" transform="scale(1 1) rotate(0) translate(4 191)">
<title>submodels/FrontTracking/FrontToFieldModels/Poisson/Poisson.H</title>
<!-- Node4 -->
<g id="node1" class="node">
<title>Node4</title>
<polygon fill="#bfbfbf" stroke="#000000" points="127,-145.5 127,-186.5 271,-186.5 271,-145.5 127,-145.5"/>
<text text-anchor="start" x="135" y="-174.5" font-family="Helvetica,sans-Serif" font-size="10.00" fill="#000000">submodels/FrontTracking</text>
<text text-anchor="start" x="135" y="-163.5" font-family="Helvetica,sans-Serif" font-size="10.00" fill="#000000">/FrontToFieldModels/Poisson</text>
<text text-anchor="middle" x="199" y="-152.5" font-family="Helvetica,sans-Serif" font-size="10.00" fill="#000000">/Poisson.H</text>
</g>
<!-- Node5 -->
<g id="node2" class="node">
<title>Node5</title>
<g id="a_node2"><a xlink:href="parcels_2include_2makeFrontTrackingParcelFrontToFieldModels_8H.html" target="_top" xlink:title="parcels/include/makeFront\lTrackingParcelFrontToFieldModels.H">
<polygon fill="none" stroke="#000000" points="19.5,-73 19.5,-103 198.5,-103 198.5,-73 19.5,-73"/>
<text text-anchor="start" x="27.5" y="-91" font-family="Helvetica,sans-Serif" font-size="10.00" fill="#000000">parcels/include/makeFront</text>
<text text-anchor="middle" x="109" y="-80" font-family="Helvetica,sans-Serif" font-size="10.00" fill="#000000">TrackingParcelFrontToFieldModels.H</text>
</a>
</g>
</g>
<!-- Node4&#45;&gt;Node5 -->
<g id="edge1" class="edge">
<title>Node4&#45;&gt;Node5</title>
<path fill="none" stroke="#191970" d="M167.056,-138.3152C153.3437,-126.4312 137.8607,-113.0126 126.3346,-103.0233"/>
<polygon fill="#191970" stroke="#191970" points="165.0325,-141.193 174.8817,-145.0974 169.617,-135.9032 165.0325,-141.193"/>
</g>
<!-- Node7 -->
<g id="node4" class="node">
<title>Node7</title>
<g id="a_node4"><a xlink:href="submodels_2FrontTracking_2FrontToFieldModels_2Poisson_2Poisson_8C.html" target="_top" xlink:title="submodels/FrontTracking\l/FrontToFieldModels/Poisson\l/Poisson.C">
<polygon fill="none" stroke="#000000" points="217,-67.5 217,-108.5 361,-108.5 361,-67.5 217,-67.5"/>
<text text-anchor="start" x="225" y="-96.5" font-family="Helvetica,sans-Serif" font-size="10.00" fill="#000000">submodels/FrontTracking</text>
<text text-anchor="start" x="225" y="-85.5" font-family="Helvetica,sans-Serif" font-size="10.00" fill="#000000">/FrontToFieldModels/Poisson</text>
<text text-anchor="middle" x="289" y="-74.5" font-family="Helvetica,sans-Serif" font-size="10.00" fill="#000000">/Poisson.C</text>
</a>
</g>
</g>
<!-- Node4&#45;&gt;Node7 -->
<g id="edge3" class="edge">
<title>Node4&#45;&gt;Node7</title>
<path fill="none" stroke="#191970" d="M230.7167,-138.5122C242.0335,-128.7043 254.5816,-117.8293 265.1272,-108.6898"/>
<polygon fill="#191970" stroke="#191970" points="228.383,-135.9032 223.1183,-145.0974 232.9675,-141.193 228.383,-135.9032"/>
</g>
<!-- Node6 -->
<g id="node3" class="node">
<title>Node6</title>
<g id="a_node3"><a xlink:href="parcels_2derived_2frontTrackingParcel_2makeFrontTrackingParcelSubmodels_8C.html" target="_top" xlink:title="parcels/derived/frontTracking\lParcel/makeFrontTrackingParcelSubmodels.C">
<polygon fill="none" stroke="#000000" points="0,-.5 0,-30.5 218,-30.5 218,-.5 0,-.5"/>
<text text-anchor="start" x="8" y="-18.5" font-family="Helvetica,sans-Serif" font-size="10.00" fill="#000000">parcels/derived/frontTracking</text>
<text text-anchor="middle" x="109" y="-7.5" font-family="Helvetica,sans-Serif" font-size="10.00" fill="#000000">Parcel/makeFrontTrackingParcelSubmodels.C</text>
</a>
</g>
</g>
<!-- Node5&#45;&gt;Node6 -->
<g id="edge2" class="edge">
<title>Node5&#45;&gt;Node6</title>
<path fill="none" stroke="#191970" d="M109,-62.8409C109,-52.0601 109,-39.8309 109,-30.5028"/>
<polygon fill="#191970" stroke="#191970" points="105.5001,-62.9779 109,-72.978 112.5001,-62.978 105.5001,-62.9779"/>
</g>
</g>
</svg>
