<?xml version="1.0" encoding="UTF-8" standalone="no"?>
<!DOCTYPE svg PUBLIC "-//W3C//DTD SVG 1.1//EN"
 "http://www.w3.org/Graphics/SVG/1.1/DTD/svg11.dtd">
<!-- Generated by graphviz version 2.40.1 (20161225.0304)
 -->
<!-- Title: submodels/FrontTracking/FrontToFieldModels/CPT/CPT.H Pages: 1 -->
<svg width="323pt" height="95pt"
 viewBox="0.00 0.00 322.50 95.00" xmlns="http://www.w3.org/2000/svg" xmlns:xlink="http://www.w3.org/1999/xlink">
<g id="graph0" class="graph" transform="scale(1 1) rotate(0) translate(4 91)">
<title>submodels/FrontTracking/FrontToFieldModels/CPT/CPT.H</title>
<!-- Node0 -->
<g id="node1" class="node">
<title>Node0</title>
<polygon fill="#bfbfbf" stroke="#000000" points="91.5,-56.5 91.5,-86.5 254.5,-86.5 254.5,-56.5 91.5,-56.5"/>
<text text-anchor="start" x="99.5" y="-74.5" font-family="Helvetica,sans-Serif" font-size="10.00" fill="#000000">submodels/FrontTracking</text>
<text text-anchor="middle" x="173" y="-63.5" font-family="Helvetica,sans-Serif" font-size="10.00" fill="#000000">/FrontToFieldModels/CPT/CPT.H</text>
</g>
<!-- Node1 -->
<g id="node2" class="node">
<title>Node1</title>
<polygon fill="none" stroke="#bfbfbf" points="0,-.5 0,-19.5 108,-19.5 108,-.5 0,-.5"/>
<text text-anchor="middle" x="54" y="-7.5" font-family="Helvetica,sans-Serif" font-size="10.00" fill="#000000">FrontToFieldModel.H</text>
</g>
<!-- Node0&#45;&gt;Node1 -->
<g id="edge1" class="edge">
<title>Node0&#45;&gt;Node1</title>
<path fill="none" stroke="#191970" d="M143.8893,-56.4554C124.8176,-46.599 100.0518,-33.7999 81.3461,-24.1327"/>
<polygon fill="#191970" stroke="#191970" points="82.9315,-21.0122 72.4408,-19.5303 79.7176,-27.2309 82.9315,-21.0122"/>
</g>
<!-- Node2 -->
<g id="node3" class="node">
<title>Node2</title>
<polygon fill="none" stroke="#bfbfbf" points="126.5,-.5 126.5,-19.5 219.5,-19.5 219.5,-.5 126.5,-.5"/>
<text text-anchor="middle" x="173" y="-7.5" font-family="Helvetica,sans-Serif" font-size="10.00" fill="#000000">BaseF2FModel.H</text>
</g>
<!-- Node0&#45;&gt;Node2 -->
<g id="edge2" class="edge">
<title>Node0&#45;&gt;Node2</title>
<path fill="none" stroke="#191970" d="M173,-56.2977C173,-48.3834 173,-38.6043 173,-30.0759"/>
<polygon fill="#191970" stroke="#191970" points="176.5001,-29.8469 173,-19.8469 169.5001,-29.847 176.5001,-29.8469"/>
</g>
<!-- Node3 -->
<g id="node4" class="node">
<title>Node3</title>
<polygon fill="none" stroke="#bfbfbf" points="237.5,-.5 237.5,-19.5 314.5,-19.5 314.5,-.5 237.5,-.5"/>
<text text-anchor="middle" x="276" y="-7.5" font-family="Helvetica,sans-Serif" font-size="10.00" fill="#000000">bubbleData.H</text>
</g>
<!-- Node0&#45;&gt;Node3 -->
<g id="edge3" class="edge">
<title>Node0&#45;&gt;Node3</title>
<path fill="none" stroke="#191970" d="M198.1966,-56.4554C214.3272,-46.8241 235.1638,-34.3828 251.2136,-24.7996"/>
<polygon fill="#191970" stroke="#191970" points="253.247,-27.662 260.0387,-19.5303 249.6584,-21.6518 253.247,-27.662"/>
</g>
</g>
</svg>
