<?xml version="1.0" encoding="UTF-8" standalone="no"?>
<!DOCTYPE svg PUBLIC "-//W3C//DTD SVG 1.1//EN"
 "http://www.w3.org/Graphics/SVG/1.1/DTD/svg11.dtd">
<!-- Generated by graphviz version 2.40.1 (20161225.0304)
 -->
<!-- Title: submodels/FrontTracking/FrontToFieldModels/CPT/CPT.C Pages: 1 -->
<svg width="323pt" height="151pt"
 viewBox="0.00 0.00 322.50 151.00" xmlns="http://www.w3.org/2000/svg" xmlns:xlink="http://www.w3.org/1999/xlink">
<g id="graph0" class="graph" transform="scale(1 1) rotate(0) translate(4 147)">
<title>submodels/FrontTracking/FrontToFieldModels/CPT/CPT.C</title>
<!-- Node0 -->
<g id="node1" class="node">
<title>Node0</title>
<polygon fill="#bfbfbf" stroke="#000000" points="91.5,-112.5 91.5,-142.5 254.5,-142.5 254.5,-112.5 91.5,-112.5"/>
<text text-anchor="start" x="99.5" y="-130.5" font-family="Helvetica,sans-Serif" font-size="10.00" fill="#000000">submodels/FrontTracking</text>
<text text-anchor="middle" x="173" y="-119.5" font-family="Helvetica,sans-Serif" font-size="10.00" fill="#000000">/FrontToFieldModels/CPT/CPT.C</text>
</g>
<!-- Node1 -->
<g id="node2" class="node">
<title>Node1</title>
<g id="a_node2"><a xlink:href="submodels_2FrontTracking_2FrontToFieldModels_2CPT_2CPT_8H.html" target="_top" xlink:title="CPT.H">
<polygon fill="none" stroke="#000000" points="149.5,-56.5 149.5,-75.5 196.5,-75.5 196.5,-56.5 149.5,-56.5"/>
<text text-anchor="middle" x="173" y="-63.5" font-family="Helvetica,sans-Serif" font-size="10.00" fill="#000000">CPT.H</text>
</a>
</g>
</g>
<!-- Node0&#45;&gt;Node1 -->
<g id="edge1" class="edge">
<title>Node0&#45;&gt;Node1</title>
<path fill="none" stroke="#191970" d="M173,-112.2977C173,-104.3834 173,-94.6043 173,-86.0759"/>
<polygon fill="#191970" stroke="#191970" points="176.5001,-85.8469 173,-75.8469 169.5001,-85.847 176.5001,-85.8469"/>
</g>
<!-- Node2 -->
<g id="node3" class="node">
<title>Node2</title>
<polygon fill="none" stroke="#bfbfbf" points="0,-.5 0,-19.5 108,-19.5 108,-.5 0,-.5"/>
<text text-anchor="middle" x="54" y="-7.5" font-family="Helvetica,sans-Serif" font-size="10.00" fill="#000000">FrontToFieldModel.H</text>
</g>
<!-- Node1&#45;&gt;Node2 -->
<g id="edge2" class="edge">
<title>Node1&#45;&gt;Node2</title>
<path fill="none" stroke="#191970" d="M152.5432,-56.3733C133.5262,-47.4241 104.9825,-33.9917 83.5024,-23.8835"/>
<polygon fill="#191970" stroke="#191970" points="84.7284,-20.5923 74.1899,-19.5011 81.7478,-26.926 84.7284,-20.5923"/>
</g>
<!-- Node3 -->
<g id="node4" class="node">
<title>Node3</title>
<polygon fill="none" stroke="#bfbfbf" points="126.5,-.5 126.5,-19.5 219.5,-19.5 219.5,-.5 126.5,-.5"/>
<text text-anchor="middle" x="173" y="-7.5" font-family="Helvetica,sans-Serif" font-size="10.00" fill="#000000">BaseF2FModel.H</text>
</g>
<!-- Node1&#45;&gt;Node3 -->
<g id="edge3" class="edge">
<title>Node1&#45;&gt;Node3</title>
<path fill="none" stroke="#191970" d="M173,-56.2455C173,-48.9382 173,-38.6944 173,-29.7046"/>
<polygon fill="#191970" stroke="#191970" points="176.5001,-29.6426 173,-19.6427 169.5001,-29.6427 176.5001,-29.6426"/>
</g>
<!-- Node4 -->
<g id="node5" class="node">
<title>Node4</title>
<polygon fill="none" stroke="#bfbfbf" points="237.5,-.5 237.5,-19.5 314.5,-19.5 314.5,-.5 237.5,-.5"/>
<text text-anchor="middle" x="276" y="-7.5" font-family="Helvetica,sans-Serif" font-size="10.00" fill="#000000">bubbleData.H</text>
</g>
<!-- Node1&#45;&gt;Node4 -->
<g id="edge4" class="edge">
<title>Node1&#45;&gt;Node4</title>
<path fill="none" stroke="#191970" d="M190.9412,-56.2455C207.04,-47.4928 230.8879,-34.527 249.2391,-24.5496"/>
<polygon fill="#191970" stroke="#191970" points="251.1507,-27.4942 258.2644,-19.6427 247.8071,-21.3444 251.1507,-27.4942"/>
</g>
</g>
</svg>
