<?xml version="1.0" encoding="UTF-8" standalone="no"?>
<!DOCTYPE svg PUBLIC "-//W3C//DTD SVG 1.1//EN"
 "http://www.w3.org/Graphics/SVG/1.1/DTD/svg11.dtd">
<!-- Generated by graphviz version 2.40.1 (20161225.0304)
 -->
<!-- Title: submodels/FrontTracking/FrontToFieldModels/FrontToFieldModel/FrontToFieldModel.H Pages: 1 -->
<svg width="1134pt" height="351pt"
 viewBox="0.00 0.00 1133.50 351.00" xmlns="http://www.w3.org/2000/svg" xmlns:xlink="http://www.w3.org/1999/xlink">
<g id="graph0" class="graph" transform="scale(1 1) rotate(0) translate(4 347)">
<title>submodels/FrontTracking/FrontToFieldModels/FrontToFieldModel/FrontToFieldModel.H</title>
<!-- Node5 -->
<g id="node1" class="node">
<title>Node5</title>
<polygon fill="#bfbfbf" stroke="#000000" points="492.5,-301.5 492.5,-342.5 656.5,-342.5 656.5,-301.5 492.5,-301.5"/>
<text text-anchor="start" x="500.5" y="-330.5" font-family="Helvetica,sans-Serif" font-size="10.00" fill="#000000">submodels/FrontTracking</text>
<text text-anchor="start" x="500.5" y="-319.5" font-family="Helvetica,sans-Serif" font-size="10.00" fill="#000000">/FrontToFieldModels/FrontToField</text>
<text text-anchor="middle" x="574.5" y="-308.5" font-family="Helvetica,sans-Serif" font-size="10.00" fill="#000000">Model/FrontToFieldModel.H</text>
</g>
<!-- Node6 -->
<g id="node2" class="node">
<title>Node6</title>
<g id="a_node2"><a xlink:href="clouds_2Templates_2FrontTrackingCloud_2FrontTrackingCloud_8C.html" target="_top" xlink:title="clouds/Templates/FrontTracking\lCloud/FrontTrackingCloud.C">
<polygon fill="none" stroke="#000000" points="843,-.5 843,-30.5 1000,-30.5 1000,-.5 843,-.5"/>
<text text-anchor="start" x="851" y="-18.5" font-family="Helvetica,sans-Serif" font-size="10.00" fill="#000000">clouds/Templates/FrontTracking</text>
<text text-anchor="middle" x="921.5" y="-7.5" font-family="Helvetica,sans-Serif" font-size="10.00" fill="#000000">Cloud/FrontTrackingCloud.C</text>
</a>
</g>
</g>
<!-- Node5&#45;&gt;Node6 -->
<g id="edge1" class="edge">
<title>Node5&#45;&gt;Node6</title>
<path fill="none" stroke="#191970" d="M666.6006,-312.7593C746.4989,-299.3955 857.9557,-266.7403 914.5,-187 948.629,-138.8703 934.1522,-62.599 925.8405,-30.5091"/>
<polygon fill="#191970" stroke="#191970" points="665.8505,-309.3347 656.5288,-314.3703 666.9562,-316.2469 665.8505,-309.3347"/>
</g>
<!-- Node7 -->
<g id="node3" class="node">
<title>Node7</title>
<g id="a_node3"><a xlink:href="submodels_2FrontTracking_2FrontToFieldModels_2BaseF2FModel_2BaseF2FModel_8H.html" target="_top" xlink:title="submodels/FrontTracking\l/FrontToFieldModels/BaseF2FModel\l/BaseF2FModel.H">
<polygon fill="none" stroke="#000000" points="237,-223.5 237,-264.5 412,-264.5 412,-223.5 237,-223.5"/>
<text text-anchor="start" x="245" y="-252.5" font-family="Helvetica,sans-Serif" font-size="10.00" fill="#000000">submodels/FrontTracking</text>
<text text-anchor="start" x="245" y="-241.5" font-family="Helvetica,sans-Serif" font-size="10.00" fill="#000000">/FrontToFieldModels/BaseF2FModel</text>
<text text-anchor="middle" x="324.5" y="-230.5" font-family="Helvetica,sans-Serif" font-size="10.00" fill="#000000">/BaseF2FModel.H</text>
</a>
</g>
</g>
<!-- Node5&#45;&gt;Node7 -->
<g id="edge2" class="edge">
<title>Node5&#45;&gt;Node7</title>
<path fill="none" stroke="#191970" d="M498.9084,-298.4154C464.3389,-287.6297 423.7607,-274.9693 390.4477,-264.5757"/>
<polygon fill="#191970" stroke="#191970" points="497.8998,-301.7671 508.4884,-301.4044 499.9847,-295.0848 497.8998,-301.7671"/>
</g>
<!-- Node9 -->
<g id="node5" class="node">
<title>Node9</title>
<g id="a_node5"><a xlink:href="submodels_2FrontTracking_2FrontToFieldModels_2CPT_2CPT_8H.html" target="_top" xlink:title="submodels/FrontTracking\l/FrontToFieldModels/CPT/CPT.H">
<polygon fill="none" stroke="#000000" points="0,-151 0,-181 163,-181 163,-151 0,-151"/>
<text text-anchor="start" x="8" y="-169" font-family="Helvetica,sans-Serif" font-size="10.00" fill="#000000">submodels/FrontTracking</text>
<text text-anchor="middle" x="81.5" y="-158" font-family="Helvetica,sans-Serif" font-size="10.00" fill="#000000">/FrontToFieldModels/CPT/CPT.H</text>
</a>
</g>
</g>
<!-- Node5&#45;&gt;Node9 -->
<g id="edge11" class="edge">
<title>Node5&#45;&gt;Node9</title>
<path fill="none" stroke="#191970" d="M482.1439,-311.3833C395.456,-300.5985 272.5723,-282.9679 227.5,-265 176.0093,-244.4735 124.3453,-203.4833 98.4929,-181.2275"/>
<polygon fill="#191970" stroke="#191970" points="481.9102,-314.8809 492.2635,-312.6317 482.7674,-307.9335 481.9102,-314.8809"/>
</g>
<!-- Node13 -->
<g id="node9" class="node">
<title>Node13</title>
<g id="a_node9"><a xlink:href="submodels_2FrontTracking_2FrontToFieldModels_2Poisson_2Poisson_8H.html" target="_top" xlink:title="submodels/FrontTracking\l/FrontToFieldModels/Poisson\l/Poisson.H">
<polygon fill="none" stroke="#000000" points="374.5,-145.5 374.5,-186.5 518.5,-186.5 518.5,-145.5 374.5,-145.5"/>
<text text-anchor="start" x="382.5" y="-174.5" font-family="Helvetica,sans-Serif" font-size="10.00" fill="#000000">submodels/FrontTracking</text>
<text text-anchor="start" x="382.5" y="-163.5" font-family="Helvetica,sans-Serif" font-size="10.00" fill="#000000">/FrontToFieldModels/Poisson</text>
<text text-anchor="middle" x="446.5" y="-152.5" font-family="Helvetica,sans-Serif" font-size="10.00" fill="#000000">/Poisson.H</text>
</a>
</g>
</g>
<!-- Node5&#45;&gt;Node13 -->
<g id="edge20" class="edge">
<title>Node5&#45;&gt;Node13</title>
<path fill="none" stroke="#191970" d="M544.836,-294.1612C535.741,-285.1517 525.9193,-274.9195 517.5,-265 495.7382,-239.3607 473.6199,-207.3803 459.9827,-186.8261"/>
<polygon fill="#191970" stroke="#191970" points="542.658,-296.9263 552.2582,-301.408 547.5482,-291.9177 542.658,-296.9263"/>
</g>
<!-- Node15 -->
<g id="node11" class="node">
<title>Node15</title>
<g id="a_node11"><a xlink:href="submodels_2FrontTracking_2FrontToFieldModels_2FrontToFieldModel_2FrontToFieldModel_8C.html" target="_top" xlink:title="submodels/FrontTracking\l/FrontToFieldModels/FrontToField\lModel/FrontToFieldModel.C">
<polygon fill="none" stroke="#000000" points="961.5,-223.5 961.5,-264.5 1125.5,-264.5 1125.5,-223.5 961.5,-223.5"/>
<text text-anchor="start" x="969.5" y="-252.5" font-family="Helvetica,sans-Serif" font-size="10.00" fill="#000000">submodels/FrontTracking</text>
<text text-anchor="start" x="969.5" y="-241.5" font-family="Helvetica,sans-Serif" font-size="10.00" fill="#000000">/FrontToFieldModels/FrontToField</text>
<text text-anchor="middle" x="1043.5" y="-230.5" font-family="Helvetica,sans-Serif" font-size="10.00" fill="#000000">Model/FrontToFieldModel.C</text>
</a>
</g>
</g>
<!-- Node5&#45;&gt;Node15 -->
<g id="edge12" class="edge">
<title>Node5&#45;&gt;Node15</title>
<path fill="none" stroke="#191970" d="M666.5931,-309.5929C742.253,-299.0001 852.1101,-282.7032 947.5,-265 952.0291,-264.1595 956.6707,-263.2626 961.3507,-262.3307"/>
<polygon fill="#191970" stroke="#191970" points="666.034,-306.1369 656.6134,-310.9848 667.001,-313.0698 666.034,-306.1369"/>
</g>
<!-- Node16 -->
<g id="node12" class="node">
<title>Node16</title>
<g id="a_node12"><a xlink:href="submodels_2FrontTracking_2FrontToFieldModels_2NoFrontToField_2NoFrontToField_8H.html" target="_top" xlink:title="submodels/FrontTracking\l/FrontToFieldModels/NoFrontTo\lField/NoFrontToField.H">
<polygon fill="none" stroke="#000000" points="526,-223.5 526,-264.5 681,-264.5 681,-223.5 526,-223.5"/>
<text text-anchor="start" x="534" y="-252.5" font-family="Helvetica,sans-Serif" font-size="10.00" fill="#000000">submodels/FrontTracking</text>
<text text-anchor="start" x="534" y="-241.5" font-family="Helvetica,sans-Serif" font-size="10.00" fill="#000000">/FrontToFieldModels/NoFrontTo</text>
<text text-anchor="middle" x="603.5" y="-230.5" font-family="Helvetica,sans-Serif" font-size="10.00" fill="#000000">Field/NoFrontToField.H</text>
</a>
</g>
</g>
<!-- Node5&#45;&gt;Node16 -->
<g id="edge13" class="edge">
<title>Node5&#45;&gt;Node16</title>
<path fill="none" stroke="#191970" d="M585.7818,-291.6559C589.1379,-282.629 592.7364,-272.9505 595.8076,-264.6898"/>
<polygon fill="#191970" stroke="#191970" points="582.4758,-290.5046 582.2715,-301.0974 589.037,-292.944 582.4758,-290.5046"/>
</g>
<!-- Node8 -->
<g id="node4" class="node">
<title>Node8</title>
<g id="a_node4"><a xlink:href="submodels_2FrontTracking_2FrontToFieldModels_2BaseF2FModel_2BaseF2FModel_8C.html" target="_top" xlink:title="submodels/FrontTracking\l/FrontToFieldModels/BaseF2FModel\l/BaseF2FModel.C">
<polygon fill="none" stroke="#000000" points="181,-145.5 181,-186.5 356,-186.5 356,-145.5 181,-145.5"/>
<text text-anchor="start" x="189" y="-174.5" font-family="Helvetica,sans-Serif" font-size="10.00" fill="#000000">submodels/FrontTracking</text>
<text text-anchor="start" x="189" y="-163.5" font-family="Helvetica,sans-Serif" font-size="10.00" fill="#000000">/FrontToFieldModels/BaseF2FModel</text>
<text text-anchor="middle" x="268.5" y="-152.5" font-family="Helvetica,sans-Serif" font-size="10.00" fill="#000000">/BaseF2FModel.C</text>
</a>
</g>
</g>
<!-- Node7&#45;&gt;Node8 -->
<g id="edge3" class="edge">
<title>Node7&#45;&gt;Node8</title>
<path fill="none" stroke="#191970" d="M303.5392,-214.8046C296.8268,-205.4552 289.5373,-195.302 283.3542,-186.6898"/>
<polygon fill="#191970" stroke="#191970" points="300.8178,-217.0154 309.493,-223.0974 306.5041,-212.9329 300.8178,-217.0154"/>
</g>
<!-- Node7&#45;&gt;Node9 -->
<g id="edge4" class="edge">
<title>Node7&#45;&gt;Node9</title>
<path fill="none" stroke="#191970" d="M250.6683,-220.3009C210.8643,-207.5243 162.9484,-192.1439 128.2893,-181.0188"/>
<polygon fill="#191970" stroke="#191970" points="249.7455,-223.6806 260.3368,-223.4044 251.885,-217.0155 249.7455,-223.6806"/>
</g>
<!-- Node7&#45;&gt;Node13 -->
<g id="edge8" class="edge">
<title>Node7&#45;&gt;Node13</title>
<path fill="none" stroke="#191970" d="M365.4876,-217.7948C381.4309,-207.6016 399.4253,-196.0969 414.3986,-186.5239"/>
<polygon fill="#191970" stroke="#191970" points="363.4134,-214.9667 356.8735,-223.3022 367.184,-220.8644 363.4134,-214.9667"/>
</g>
<!-- Node10 -->
<g id="node6" class="node">
<title>Node10</title>
<g id="a_node6"><a xlink:href="parcels_2include_2makeFrontTrackingParcelFrontToFieldModels_8H.html" target="_top" xlink:title="parcels/include/makeFront\lTrackingParcelFrontToFieldModels.H">
<polygon fill="none" stroke="#000000" points="369,-73 369,-103 548,-103 548,-73 369,-73"/>
<text text-anchor="start" x="377" y="-91" font-family="Helvetica,sans-Serif" font-size="10.00" fill="#000000">parcels/include/makeFront</text>
<text text-anchor="middle" x="458.5" y="-80" font-family="Helvetica,sans-Serif" font-size="10.00" fill="#000000">TrackingParcelFrontToFieldModels.H</text>
</a>
</g>
</g>
<!-- Node9&#45;&gt;Node10 -->
<g id="edge5" class="edge">
<title>Node9&#45;&gt;Node10</title>
<path fill="none" stroke="#191970" d="M154.204,-148.7733C160.0496,-147.4683 165.8695,-146.1955 171.5,-145 254.7186,-127.3308 276.1071,-125.8274 359.5,-109 368.8864,-107.106 378.7632,-105.0666 388.4961,-103.0296"/>
<polygon fill="#191970" stroke="#191970" points="153.3553,-145.3768 144.3709,-150.992 154.896,-152.2051 153.3553,-145.3768"/>
</g>
<!-- Node12 -->
<g id="node8" class="node">
<title>Node12</title>
<g id="a_node8"><a xlink:href="submodels_2FrontTracking_2FrontToFieldModels_2CPT_2CPT_8C.html" target="_top" xlink:title="submodels/FrontTracking\l/FrontToFieldModels/CPT/CPT.C">
<polygon fill="none" stroke="#000000" points="0,-73 0,-103 163,-103 163,-73 0,-73"/>
<text text-anchor="start" x="8" y="-91" font-family="Helvetica,sans-Serif" font-size="10.00" fill="#000000">submodels/FrontTracking</text>
<text text-anchor="middle" x="81.5" y="-80" font-family="Helvetica,sans-Serif" font-size="10.00" fill="#000000">/FrontToFieldModels/CPT/CPT.C</text>
</a>
</g>
</g>
<!-- Node9&#45;&gt;Node12 -->
<g id="edge7" class="edge">
<title>Node9&#45;&gt;Node12</title>
<path fill="none" stroke="#191970" d="M81.5,-140.7875C81.5,-128.4187 81.5,-113.9264 81.5,-103.2592"/>
<polygon fill="#191970" stroke="#191970" points="78.0001,-140.9608 81.5,-150.9608 85.0001,-140.9608 78.0001,-140.9608"/>
</g>
<!-- Node11 -->
<g id="node7" class="node">
<title>Node11</title>
<g id="a_node7"><a xlink:href="parcels_2derived_2frontTrackingParcel_2makeFrontTrackingParcelSubmodels_8C.html" target="_top" xlink:title="parcels/derived/frontTracking\lParcel/makeFrontTrackingParcelSubmodels.C">
<polygon fill="none" stroke="#000000" points="349.5,-.5 349.5,-30.5 567.5,-30.5 567.5,-.5 349.5,-.5"/>
<text text-anchor="start" x="357.5" y="-18.5" font-family="Helvetica,sans-Serif" font-size="10.00" fill="#000000">parcels/derived/frontTracking</text>
<text text-anchor="middle" x="458.5" y="-7.5" font-family="Helvetica,sans-Serif" font-size="10.00" fill="#000000">Parcel/makeFrontTrackingParcelSubmodels.C</text>
</a>
</g>
</g>
<!-- Node10&#45;&gt;Node11 -->
<g id="edge6" class="edge">
<title>Node10&#45;&gt;Node11</title>
<path fill="none" stroke="#191970" d="M458.5,-62.8409C458.5,-52.0601 458.5,-39.8309 458.5,-30.5028"/>
<polygon fill="#191970" stroke="#191970" points="455.0001,-62.9779 458.5,-72.978 462.0001,-62.978 455.0001,-62.9779"/>
</g>
<!-- Node13&#45;&gt;Node10 -->
<g id="edge9" class="edge">
<title>Node13&#45;&gt;Node10</title>
<path fill="none" stroke="#191970" d="M451.2663,-135.0187C452.9456,-124.1033 454.7597,-112.3119 456.1511,-103.2679"/>
<polygon fill="#191970" stroke="#191970" points="447.7771,-134.6815 449.7158,-145.0974 454.6957,-135.7459 447.7771,-134.6815"/>
</g>
<!-- Node14 -->
<g id="node10" class="node">
<title>Node14</title>
<g id="a_node10"><a xlink:href="submodels_2FrontTracking_2FrontToFieldModels_2Poisson_2Poisson_8C.html" target="_top" xlink:title="submodels/FrontTracking\l/FrontToFieldModels/Poisson\l/Poisson.C">
<polygon fill="none" stroke="#000000" points="206.5,-67.5 206.5,-108.5 350.5,-108.5 350.5,-67.5 206.5,-67.5"/>
<text text-anchor="start" x="214.5" y="-96.5" font-family="Helvetica,sans-Serif" font-size="10.00" fill="#000000">submodels/FrontTracking</text>
<text text-anchor="start" x="214.5" y="-85.5" font-family="Helvetica,sans-Serif" font-size="10.00" fill="#000000">/FrontToFieldModels/Poisson</text>
<text text-anchor="middle" x="278.5" y="-74.5" font-family="Helvetica,sans-Serif" font-size="10.00" fill="#000000">/Poisson.C</text>
</a>
</g>
</g>
<!-- Node13&#45;&gt;Node14 -->
<g id="edge10" class="edge">
<title>Node13&#45;&gt;Node14</title>
<path fill="none" stroke="#191970" d="M392.7872,-141.0619C370.1756,-130.5637 344.1833,-118.4958 322.7052,-108.5239"/>
<polygon fill="#191970" stroke="#191970" points="391.3761,-144.2656 401.9202,-145.3022 394.324,-137.9165 391.3761,-144.2656"/>
</g>
<!-- Node16&#45;&gt;Node10 -->
<g id="edge18" class="edge">
<title>Node16&#45;&gt;Node10</title>
<path fill="none" stroke="#191970" d="M583.8026,-214.8871C569.3184,-194.3916 548.5637,-166.83 527.5,-145 512.5033,-129.4577 493.4499,-113.9889 479.1663,-103.0959"/>
<polygon fill="#191970" stroke="#191970" points="581.0136,-217.0064 589.6088,-223.201 586.7526,-212.9984 581.0136,-217.0064"/>
</g>
<!-- Node17 -->
<g id="node13" class="node">
<title>Node17</title>
<g id="a_node13"><a xlink:href="clouds_2Templates_2FrontTrackingCloud_2FrontTrackingCloudI_8H.html" target="_top" xlink:title="clouds/Templates/FrontTracking\lCloud/FrontTrackingCloudI.H">
<polygon fill="none" stroke="#000000" points="575,-151 575,-181 732,-181 732,-151 575,-151"/>
<text text-anchor="start" x="583" y="-169" font-family="Helvetica,sans-Serif" font-size="10.00" fill="#000000">clouds/Templates/FrontTracking</text>
<text text-anchor="middle" x="653.5" y="-158" font-family="Helvetica,sans-Serif" font-size="10.00" fill="#000000">Cloud/FrontTrackingCloudI.H</text>
</a>
</g>
</g>
<!-- Node16&#45;&gt;Node17 -->
<g id="edge14" class="edge">
<title>Node16&#45;&gt;Node17</title>
<path fill="none" stroke="#191970" d="M622.4972,-214.3644C629.7305,-203.0804 637.6764,-190.6849 643.7129,-181.2679"/>
<polygon fill="#191970" stroke="#191970" points="619.3492,-212.7898 616.8991,-223.0974 625.2424,-216.5675 619.3492,-212.7898"/>
</g>
<!-- Node20 -->
<g id="node16" class="node">
<title>Node20</title>
<g id="a_node16"><a xlink:href="submodels_2FrontTracking_2FrontToFieldModels_2NoFrontToField_2NoFrontToField_8C.html" target="_top" xlink:title="submodels/FrontTracking\l/FrontToFieldModels/NoFrontTo\lField/NoFrontToField.C">
<polygon fill="none" stroke="#000000" points="750,-145.5 750,-186.5 905,-186.5 905,-145.5 750,-145.5"/>
<text text-anchor="start" x="758" y="-174.5" font-family="Helvetica,sans-Serif" font-size="10.00" fill="#000000">submodels/FrontTracking</text>
<text text-anchor="start" x="758" y="-163.5" font-family="Helvetica,sans-Serif" font-size="10.00" fill="#000000">/FrontToFieldModels/NoFrontTo</text>
<text text-anchor="middle" x="827.5" y="-152.5" font-family="Helvetica,sans-Serif" font-size="10.00" fill="#000000">Field/NoFrontToField.C</text>
</a>
</g>
</g>
<!-- Node16&#45;&gt;Node20 -->
<g id="edge19" class="edge">
<title>Node16&#45;&gt;Node20</title>
<path fill="none" stroke="#191970" d="M672.424,-219.9997C703.1355,-209.3055 738.9451,-196.8361 768.4109,-186.5757"/>
<polygon fill="#191970" stroke="#191970" points="670.9392,-216.8105 662.6464,-223.4044 673.2412,-223.4212 670.9392,-216.8105"/>
</g>
<!-- Node18 -->
<g id="node14" class="node">
<title>Node18</title>
<g id="a_node14"><a xlink:href="clouds_2Templates_2FrontTrackingCloud_2FrontTrackingCloud_8H.html" target="_top" xlink:title="clouds/Templates/FrontTracking\lCloud/FrontTrackingCloud.H">
<polygon fill="none" stroke="#000000" points="639,-73 639,-103 796,-103 796,-73 639,-73"/>
<text text-anchor="start" x="647" y="-91" font-family="Helvetica,sans-Serif" font-size="10.00" fill="#000000">clouds/Templates/FrontTracking</text>
<text text-anchor="middle" x="717.5" y="-80" font-family="Helvetica,sans-Serif" font-size="10.00" fill="#000000">Cloud/FrontTrackingCloud.H</text>
</a>
</g>
</g>
<!-- Node17&#45;&gt;Node18 -->
<g id="edge15" class="edge">
<title>Node17&#45;&gt;Node18</title>
<path fill="none" stroke="#191970" d="M672.3623,-143.0116C682.8831,-130.1894 695.6966,-114.5729 704.9797,-103.2592"/>
<polygon fill="#191970" stroke="#191970" points="669.4773,-141.0099 665.8398,-150.9608 674.8888,-145.4502 669.4773,-141.0099"/>
</g>
<!-- Node18&#45;&gt;Node6 -->
<g id="edge16" class="edge">
<title>Node18&#45;&gt;Node6</title>
<path fill="none" stroke="#191970" d="M769.5356,-69.5069C803.5593,-57.4152 847.433,-41.8228 879.2852,-30.5028"/>
<polygon fill="#191970" stroke="#191970" points="768.0195,-66.3312 759.7689,-72.978 770.3636,-72.9271 768.0195,-66.3312"/>
</g>
<!-- Node19 -->
<g id="node15" class="node">
<title>Node19</title>
<g id="a_node15"><a xlink:href="clouds_2Templates_2FrontTrackingCloud_2FrontTrackingCloudName_8C.html" target="_top" xlink:title="clouds/Templates/FrontTracking\lCloud/FrontTrackingCloudName.C">
<polygon fill="none" stroke="#000000" points="634,-.5 634,-30.5 801,-30.5 801,-.5 634,-.5"/>
<text text-anchor="start" x="642" y="-18.5" font-family="Helvetica,sans-Serif" font-size="10.00" fill="#000000">clouds/Templates/FrontTracking</text>
<text text-anchor="middle" x="717.5" y="-7.5" font-family="Helvetica,sans-Serif" font-size="10.00" fill="#000000">Cloud/FrontTrackingCloudName.C</text>
</a>
</g>
</g>
<!-- Node18&#45;&gt;Node19 -->
<g id="edge17" class="edge">
<title>Node18&#45;&gt;Node19</title>
<path fill="none" stroke="#191970" d="M717.5,-62.8409C717.5,-52.0601 717.5,-39.8309 717.5,-30.5028"/>
<polygon fill="#191970" stroke="#191970" points="714.0001,-62.9779 717.5,-72.978 721.0001,-62.978 714.0001,-62.9779"/>
</g>
</g>
</svg>
