<?xml version="1.0" encoding="UTF-8" standalone="no"?>
<!DOCTYPE svg PUBLIC "-//W3C//DTD SVG 1.1//EN"
 "http://www.w3.org/Graphics/SVG/1.1/DTD/svg11.dtd">
<!-- Generated by graphviz version 2.40.1 (20161225.0304)
 -->
<!-- Title: submodels/FrontTracking/FrontToFieldModels/NoFrontToField/NoFrontToField.H Pages: 1 -->
<svg width="640pt" height="262pt"
 viewBox="0.00 0.00 640.00 262.00" xmlns="http://www.w3.org/2000/svg" xmlns:xlink="http://www.w3.org/1999/xlink">
<g id="graph0" class="graph" transform="scale(1 1) rotate(0) translate(4 258)">
<title>submodels/FrontTracking/FrontToFieldModels/NoFrontToField/NoFrontToField.H</title>
<!-- Node2 -->
<g id="node1" class="node">
<title>Node2</title>
<polygon fill="#bfbfbf" stroke="#000000" points="292,-212.5 292,-253.5 447,-253.5 447,-212.5 292,-212.5"/>
<text text-anchor="start" x="300" y="-241.5" font-family="Helvetica,sans-Serif" font-size="10.00" fill="#000000">submodels/FrontTracking</text>
<text text-anchor="start" x="300" y="-230.5" font-family="Helvetica,sans-Serif" font-size="10.00" fill="#000000">/FrontToFieldModels/NoFrontTo</text>
<text text-anchor="middle" x="369.5" y="-219.5" font-family="Helvetica,sans-Serif" font-size="10.00" fill="#000000">Field/NoFrontToField.H</text>
</g>
<!-- Node3 -->
<g id="node2" class="node">
<title>Node3</title>
<g id="a_node2"><a xlink:href="clouds_2Templates_2FrontTrackingCloud_2FrontTrackingCloudI_8H.html" target="_top" xlink:title="clouds/Templates/FrontTracking\lCloud/FrontTrackingCloudI.H">
<polygon fill="none" stroke="#000000" points="100,-140 100,-170 257,-170 257,-140 100,-140"/>
<text text-anchor="start" x="108" y="-158" font-family="Helvetica,sans-Serif" font-size="10.00" fill="#000000">clouds/Templates/FrontTracking</text>
<text text-anchor="middle" x="178.5" y="-147" font-family="Helvetica,sans-Serif" font-size="10.00" fill="#000000">Cloud/FrontTrackingCloudI.H</text>
</a>
</g>
</g>
<!-- Node2&#45;&gt;Node3 -->
<g id="edge1" class="edge">
<title>Node2&#45;&gt;Node3</title>
<path fill="none" stroke="#191970" d="M309.675,-208.5688C278.7519,-195.9406 242.0008,-180.9323 215.2768,-170.0188"/>
<polygon fill="#191970" stroke="#191970" points="308.4861,-211.8639 319.0672,-212.4044 311.1326,-205.3834 308.4861,-211.8639"/>
</g>
<!-- Node7 -->
<g id="node6" class="node">
<title>Node7</title>
<g id="a_node6"><a xlink:href="parcels_2include_2makeFrontTrackingParcelFrontToFieldModels_8H.html" target="_top" xlink:title="parcels/include/makeFront\lTrackingParcelFrontToFieldModels.H">
<polygon fill="none" stroke="#000000" points="280,-140 280,-170 459,-170 459,-140 280,-140"/>
<text text-anchor="start" x="288" y="-158" font-family="Helvetica,sans-Serif" font-size="10.00" fill="#000000">parcels/include/makeFront</text>
<text text-anchor="middle" x="369.5" y="-147" font-family="Helvetica,sans-Serif" font-size="10.00" fill="#000000">TrackingParcelFrontToFieldModels.H</text>
</a>
</g>
</g>
<!-- Node2&#45;&gt;Node7 -->
<g id="edge5" class="edge">
<title>Node2&#45;&gt;Node7</title>
<path fill="none" stroke="#191970" d="M369.5,-202.0187C369.5,-191.1033 369.5,-179.3119 369.5,-170.2679"/>
<polygon fill="#191970" stroke="#191970" points="366.0001,-202.0974 369.5,-212.0974 373.0001,-202.0975 366.0001,-202.0974"/>
</g>
<!-- Node9 -->
<g id="node8" class="node">
<title>Node9</title>
<g id="a_node8"><a xlink:href="submodels_2FrontTracking_2FrontToFieldModels_2NoFrontToField_2NoFrontToField_8C.html" target="_top" xlink:title="submodels/FrontTracking\l/FrontToFieldModels/NoFrontTo\lField/NoFrontToField.C">
<polygon fill="none" stroke="#000000" points="477,-134.5 477,-175.5 632,-175.5 632,-134.5 477,-134.5"/>
<text text-anchor="start" x="485" y="-163.5" font-family="Helvetica,sans-Serif" font-size="10.00" fill="#000000">submodels/FrontTracking</text>
<text text-anchor="start" x="485" y="-152.5" font-family="Helvetica,sans-Serif" font-size="10.00" fill="#000000">/FrontToFieldModels/NoFrontTo</text>
<text text-anchor="middle" x="554.5" y="-141.5" font-family="Helvetica,sans-Serif" font-size="10.00" fill="#000000">Field/NoFrontToField.C</text>
</a>
</g>
</g>
<!-- Node2&#45;&gt;Node9 -->
<g id="edge7" class="edge">
<title>Node2&#45;&gt;Node9</title>
<path fill="none" stroke="#191970" d="M427.9849,-208.3415C453.0385,-197.7784 481.96,-185.5844 505.8216,-175.5239"/>
<polygon fill="#191970" stroke="#191970" points="426.4456,-205.1921 418.5909,-212.3022 429.1652,-211.6422 426.4456,-205.1921"/>
</g>
<!-- Node4 -->
<g id="node3" class="node">
<title>Node4</title>
<g id="a_node3"><a xlink:href="clouds_2Templates_2FrontTrackingCloud_2FrontTrackingCloud_8H.html" target="_top" xlink:title="clouds/Templates/FrontTracking\lCloud/FrontTrackingCloud.H">
<polygon fill="none" stroke="#000000" points="90,-67.5 90,-97.5 247,-97.5 247,-67.5 90,-67.5"/>
<text text-anchor="start" x="98" y="-85.5" font-family="Helvetica,sans-Serif" font-size="10.00" fill="#000000">clouds/Templates/FrontTracking</text>
<text text-anchor="middle" x="168.5" y="-74.5" font-family="Helvetica,sans-Serif" font-size="10.00" fill="#000000">Cloud/FrontTrackingCloud.H</text>
</a>
</g>
</g>
<!-- Node3&#45;&gt;Node4 -->
<g id="edge2" class="edge">
<title>Node3&#45;&gt;Node4</title>
<path fill="none" stroke="#191970" d="M175.0298,-129.8409C173.5428,-119.0601 171.856,-106.8309 170.5694,-97.5028"/>
<polygon fill="#191970" stroke="#191970" points="171.5944,-130.55 176.428,-139.978 178.5287,-129.5935 171.5944,-130.55"/>
</g>
<!-- Node5 -->
<g id="node4" class="node">
<title>Node5</title>
<g id="a_node4"><a xlink:href="clouds_2Templates_2FrontTrackingCloud_2FrontTrackingCloud_8C.html" target="_top" xlink:title="clouds/Templates/FrontTracking\lCloud/FrontTrackingCloud.C">
<polygon fill="none" stroke="#000000" points="0,-.5 0,-30.5 157,-30.5 157,-.5 0,-.5"/>
<text text-anchor="start" x="8" y="-18.5" font-family="Helvetica,sans-Serif" font-size="10.00" fill="#000000">clouds/Templates/FrontTracking</text>
<text text-anchor="middle" x="78.5" y="-7.5" font-family="Helvetica,sans-Serif" font-size="10.00" fill="#000000">Cloud/FrontTrackingCloud.C</text>
</a>
</g>
</g>
<!-- Node4&#45;&gt;Node5 -->
<g id="edge3" class="edge">
<title>Node4&#45;&gt;Node5</title>
<path fill="none" stroke="#191970" d="M139.7058,-61.0643C126.3984,-51.1577 110.9087,-39.6265 98.8416,-30.6432"/>
<polygon fill="#191970" stroke="#191970" points="137.9662,-64.1327 148.0776,-67.2967 142.1463,-58.5177 137.9662,-64.1327"/>
</g>
<!-- Node6 -->
<g id="node5" class="node">
<title>Node6</title>
<g id="a_node5"><a xlink:href="clouds_2Templates_2FrontTrackingCloud_2FrontTrackingCloudName_8C.html" target="_top" xlink:title="clouds/Templates/FrontTracking\lCloud/FrontTrackingCloudName.C">
<polygon fill="none" stroke="#000000" points="175,-.5 175,-30.5 342,-30.5 342,-.5 175,-.5"/>
<text text-anchor="start" x="183" y="-18.5" font-family="Helvetica,sans-Serif" font-size="10.00" fill="#000000">clouds/Templates/FrontTracking</text>
<text text-anchor="middle" x="258.5" y="-7.5" font-family="Helvetica,sans-Serif" font-size="10.00" fill="#000000">Cloud/FrontTrackingCloudName.C</text>
</a>
</g>
</g>
<!-- Node4&#45;&gt;Node6 -->
<g id="edge4" class="edge">
<title>Node4&#45;&gt;Node6</title>
<path fill="none" stroke="#191970" d="M197.2942,-61.0643C210.6016,-51.1577 226.0913,-39.6265 238.1584,-30.6432"/>
<polygon fill="#191970" stroke="#191970" points="194.8537,-58.5177 188.9224,-67.2967 199.0338,-64.1327 194.8537,-58.5177"/>
</g>
<!-- Node8 -->
<g id="node7" class="node">
<title>Node8</title>
<g id="a_node7"><a xlink:href="parcels_2derived_2frontTrackingParcel_2makeFrontTrackingParcelSubmodels_8C.html" target="_top" xlink:title="parcels/derived/frontTracking\lParcel/makeFrontTrackingParcelSubmodels.C">
<polygon fill="none" stroke="#000000" points="265.5,-67.5 265.5,-97.5 483.5,-97.5 483.5,-67.5 265.5,-67.5"/>
<text text-anchor="start" x="273.5" y="-85.5" font-family="Helvetica,sans-Serif" font-size="10.00" fill="#000000">parcels/derived/frontTracking</text>
<text text-anchor="middle" x="374.5" y="-74.5" font-family="Helvetica,sans-Serif" font-size="10.00" fill="#000000">Parcel/makeFrontTrackingParcelSubmodels.C</text>
</a>
</g>
</g>
<!-- Node7&#45;&gt;Node8 -->
<g id="edge6" class="edge">
<title>Node7&#45;&gt;Node8</title>
<path fill="none" stroke="#191970" d="M371.2351,-129.8409C371.9786,-119.0601 372.822,-106.8309 373.4653,-97.5028"/>
<polygon fill="#191970" stroke="#191970" points="367.7324,-129.7608 370.536,-139.978 374.7158,-130.2425 367.7324,-129.7608"/>
</g>
</g>
</svg>
