<?xml version="1.0" encoding="UTF-8" standalone="no"?>
<!DOCTYPE svg PUBLIC "-//W3C//DTD SVG 1.1//EN"
 "http://www.w3.org/Graphics/SVG/1.1/DTD/svg11.dtd">
<!-- Generated by graphviz version 2.40.1 (20161225.0304)
 -->
<!-- Title: submodels/FrontTracking/SurfaceTensionModels/DirectElementBased/DirectElementBased.H Pages: 1 -->
<svg width="226pt" height="117pt"
 viewBox="0.00 0.00 225.50 117.00" xmlns="http://www.w3.org/2000/svg" xmlns:xlink="http://www.w3.org/1999/xlink">
<g id="graph0" class="graph" transform="scale(1 1) rotate(0) translate(4 113)">
<title>submodels/FrontTracking/SurfaceTensionModels/DirectElementBased/DirectElementBased.H</title>
<!-- Node0 -->
<g id="node1" class="node">
<title>Node0</title>
<polygon fill="#bfbfbf" stroke="#000000" points="32.5,-56.5 32.5,-108.5 207.5,-108.5 207.5,-56.5 32.5,-56.5"/>
<text text-anchor="start" x="40.5" y="-96.5" font-family="Helvetica,sans-Serif" font-size="10.00" fill="#000000">submodels/FrontTracking</text>
<text text-anchor="start" x="40.5" y="-85.5" font-family="Helvetica,sans-Serif" font-size="10.00" fill="#000000">/SurfaceTensionModels</text>
<text text-anchor="start" x="40.5" y="-74.5" font-family="Helvetica,sans-Serif" font-size="10.00" fill="#000000">/DirectElementBased/DirectElement</text>
<text text-anchor="middle" x="120" y="-63.5" font-family="Helvetica,sans-Serif" font-size="10.00" fill="#000000">Based.H</text>
</g>
<!-- Node1 -->
<g id="node2" class="node">
<title>Node1</title>
<polygon fill="none" stroke="#bfbfbf" points="0,-.5 0,-19.5 122,-19.5 122,-.5 0,-.5"/>
<text text-anchor="middle" x="61" y="-7.5" font-family="Helvetica,sans-Serif" font-size="10.00" fill="#000000">SurfaceTensionModel.H</text>
</g>
<!-- Node0&#45;&gt;Node1 -->
<g id="edge1" class="edge">
<title>Node0&#45;&gt;Node1</title>
<path fill="none" stroke="#191970" d="M98.6996,-56.3258C90.8769,-46.7131 82.2185,-36.0735 75.1742,-27.4174"/>
<polygon fill="#191970" stroke="#191970" points="77.7854,-25.0811 68.7587,-19.534 72.356,-29.4995 77.7854,-25.0811"/>
</g>
<!-- Node2 -->
<g id="node3" class="node">
<title>Node2</title>
<polygon fill="none" stroke="#bfbfbf" points="140.5,-.5 140.5,-19.5 217.5,-19.5 217.5,-.5 140.5,-.5"/>
<text text-anchor="middle" x="179" y="-7.5" font-family="Helvetica,sans-Serif" font-size="10.00" fill="#000000">bubbleData.H</text>
</g>
<!-- Node0&#45;&gt;Node2 -->
<g id="edge2" class="edge">
<title>Node0&#45;&gt;Node2</title>
<path fill="none" stroke="#191970" d="M141.3004,-56.3258C149.1231,-46.7131 157.7815,-36.0735 164.8258,-27.4174"/>
<polygon fill="#191970" stroke="#191970" points="167.644,-29.4995 171.2413,-19.534 162.2146,-25.0811 167.644,-29.4995"/>
</g>
</g>
</svg>
