<?xml version="1.0" encoding="UTF-8" standalone="no"?>
<!DOCTYPE svg PUBLIC "-//W3C//DTD SVG 1.1//EN"
 "http://www.w3.org/Graphics/SVG/1.1/DTD/svg11.dtd">
<!-- Generated by graphviz version 2.40.1 (20161225.0304)
 -->
<!-- Title: submodels/FrontTracking/FrontToFieldModels/Poisson/Poisson.H Pages: 1 -->
<svg width="323pt" height="106pt"
 viewBox="0.00 0.00 322.50 106.00" xmlns="http://www.w3.org/2000/svg" xmlns:xlink="http://www.w3.org/1999/xlink">
<g id="graph0" class="graph" transform="scale(1 1) rotate(0) translate(4 102)">
<title>submodels/FrontTracking/FrontToFieldModels/Poisson/Poisson.H</title>
<!-- Node0 -->
<g id="node1" class="node">
<title>Node0</title>
<polygon fill="#bfbfbf" stroke="#000000" points="101,-56.5 101,-97.5 245,-97.5 245,-56.5 101,-56.5"/>
<text text-anchor="start" x="109" y="-85.5" font-family="Helvetica,sans-Serif" font-size="10.00" fill="#000000">submodels/FrontTracking</text>
<text text-anchor="start" x="109" y="-74.5" font-family="Helvetica,sans-Serif" font-size="10.00" fill="#000000">/FrontToFieldModels/Poisson</text>
<text text-anchor="middle" x="173" y="-63.5" font-family="Helvetica,sans-Serif" font-size="10.00" fill="#000000">/Poisson.H</text>
</g>
<!-- Node1 -->
<g id="node2" class="node">
<title>Node1</title>
<polygon fill="none" stroke="#bfbfbf" points="0,-.5 0,-19.5 108,-19.5 108,-.5 0,-.5"/>
<text text-anchor="middle" x="54" y="-7.5" font-family="Helvetica,sans-Serif" font-size="10.00" fill="#000000">FrontToFieldModel.H</text>
</g>
<!-- Node0&#45;&gt;Node1 -->
<g id="edge1" class="edge">
<title>Node0&#45;&gt;Node1</title>
<path fill="none" stroke="#191970" d="M136.3251,-56.3511C118.1714,-46.1301 96.6764,-34.0279 80.2034,-24.7532"/>
<polygon fill="#191970" stroke="#191970" points="81.5787,-21.5109 71.1478,-19.6546 78.1445,-27.6106 81.5787,-21.5109"/>
</g>
<!-- Node2 -->
<g id="node3" class="node">
<title>Node2</title>
<polygon fill="none" stroke="#bfbfbf" points="126.5,-.5 126.5,-19.5 219.5,-19.5 219.5,-.5 126.5,-.5"/>
<text text-anchor="middle" x="173" y="-7.5" font-family="Helvetica,sans-Serif" font-size="10.00" fill="#000000">BaseF2FModel.H</text>
</g>
<!-- Node0&#45;&gt;Node2 -->
<g id="edge2" class="edge">
<title>Node0&#45;&gt;Node2</title>
<path fill="none" stroke="#191970" d="M173,-56.168C173,-47.8226 173,-38.2471 173,-29.9879"/>
<polygon fill="#191970" stroke="#191970" points="176.5001,-29.7804 173,-19.7805 169.5001,-29.7805 176.5001,-29.7804"/>
</g>
<!-- Node3 -->
<g id="node4" class="node">
<title>Node3</title>
<polygon fill="none" stroke="#bfbfbf" points="237.5,-.5 237.5,-19.5 314.5,-19.5 314.5,-.5 237.5,-.5"/>
<text text-anchor="middle" x="276" y="-7.5" font-family="Helvetica,sans-Serif" font-size="10.00" fill="#000000">bubbleData.H</text>
</g>
<!-- Node0&#45;&gt;Node3 -->
<g id="edge3" class="edge">
<title>Node0&#45;&gt;Node3</title>
<path fill="none" stroke="#191970" d="M204.7438,-56.3511C220.163,-46.3212 238.3671,-34.4797 252.5157,-25.2762"/>
<polygon fill="#191970" stroke="#191970" points="254.6837,-28.0413 261.1578,-19.6546 250.8667,-22.1735 254.6837,-28.0413"/>
</g>
</g>
</svg>
