<?xml version="1.0" encoding="UTF-8" standalone="no"?>
<!DOCTYPE svg PUBLIC "-//W3C//DTD SVG 1.1//EN"
 "http://www.w3.org/Graphics/SVG/1.1/DTD/svg11.dtd">
<!-- Generated by graphviz version 2.40.1 (20161225.0304)
 -->
<!-- Title: submodels/FrontTracking/VolumeCorrectionModels/VolumeCorrectionModel/VolumeCorrectionModel.H Pages: 1 -->
<svg width="768pt" height="295pt"
 viewBox="0.00 0.00 768.00 295.00" xmlns="http://www.w3.org/2000/svg" xmlns:xlink="http://www.w3.org/1999/xlink">
<g id="graph0" class="graph" transform="scale(1 1) rotate(0) translate(4 291)">
<title>submodels/FrontTracking/VolumeCorrectionModels/VolumeCorrectionModel/VolumeCorrectionModel.H</title>
<!-- Node5 -->
<g id="node1" class="node">
<title>Node5</title>
<polygon fill="#bfbfbf" stroke="#000000" points="275,-234.5 275,-286.5 480,-286.5 480,-234.5 275,-234.5"/>
<text text-anchor="start" x="283" y="-274.5" font-family="Helvetica,sans-Serif" font-size="10.00" fill="#000000">submodels/FrontTracking</text>
<text text-anchor="start" x="283" y="-263.5" font-family="Helvetica,sans-Serif" font-size="10.00" fill="#000000">/VolumeCorrectionModels</text>
<text text-anchor="start" x="283" y="-252.5" font-family="Helvetica,sans-Serif" font-size="10.00" fill="#000000">/VolumeCorrectionModel/VolumeCorrection</text>
<text text-anchor="middle" x="377.5" y="-241.5" font-family="Helvetica,sans-Serif" font-size="10.00" fill="#000000">Model.H</text>
</g>
<!-- Node6 -->
<g id="node2" class="node">
<title>Node6</title>
<g id="a_node2"><a xlink:href="clouds_2Templates_2FrontTrackingCloud_2FrontTrackingCloud_8C.html" target="_top" xlink:title="clouds/Templates/FrontTracking\lCloud/FrontTrackingCloud.C">
<polygon fill="none" stroke="#000000" points="0,-156.5 0,-186.5 157,-186.5 157,-156.5 0,-156.5"/>
<text text-anchor="start" x="8" y="-174.5" font-family="Helvetica,sans-Serif" font-size="10.00" fill="#000000">clouds/Templates/FrontTracking</text>
<text text-anchor="middle" x="78.5" y="-163.5" font-family="Helvetica,sans-Serif" font-size="10.00" fill="#000000">Cloud/FrontTrackingCloud.C</text>
</a>
</g>
</g>
<!-- Node5&#45;&gt;Node6 -->
<g id="edge1" class="edge">
<title>Node5&#45;&gt;Node6</title>
<path fill="none" stroke="#191970" d="M278.5604,-231.5314C242.9028,-221.0384 202.3735,-209.0509 165.5,-198 153.249,-194.3284 140.0408,-190.3272 127.7075,-186.5727"/>
<polygon fill="#191970" stroke="#191970" points="277.9001,-234.9854 288.4814,-234.4493 279.8753,-228.2698 277.9001,-234.9854"/>
</g>
<!-- Node7 -->
<g id="node3" class="node">
<title>Node7</title>
<g id="a_node3"><a xlink:href="submodels_2FrontTracking_2VolumeCorrectionModels_2NoVolumeCorrection_2NoVolumeCorrection_8H.html" target="_top" xlink:title="submodels/FrontTracking\l/VolumeCorrectionModels\l/NoVolumeCorrection/NoVolumeCorrection.H">
<polygon fill="none" stroke="#000000" points="175,-151 175,-192 390,-192 390,-151 175,-151"/>
<text text-anchor="start" x="183" y="-180" font-family="Helvetica,sans-Serif" font-size="10.00" fill="#000000">submodels/FrontTracking</text>
<text text-anchor="start" x="183" y="-169" font-family="Helvetica,sans-Serif" font-size="10.00" fill="#000000">/VolumeCorrectionModels</text>
<text text-anchor="middle" x="282.5" y="-158" font-family="Helvetica,sans-Serif" font-size="10.00" fill="#000000">/NoVolumeCorrection/NoVolumeCorrection.H</text>
</a>
</g>
</g>
<!-- Node5&#45;&gt;Node7 -->
<g id="edge2" class="edge">
<title>Node5&#45;&gt;Node7</title>
<path fill="none" stroke="#191970" d="M341.8963,-227.1449C329.3676,-215.4075 315.6587,-202.5645 304.5711,-192.1771"/>
<polygon fill="#191970" stroke="#191970" points="339.82,-229.9958 349.5107,-234.2784 344.6058,-224.8873 339.82,-229.9958"/>
</g>
<!-- Node11 -->
<g id="node7" class="node">
<title>Node11</title>
<g id="a_node7"><a xlink:href="submodels_2FrontTracking_2VolumeCorrectionModels_2VC2_2VC2_8H.html" target="_top" xlink:title="submodels/FrontTracking\l/VolumeCorrectionModels\l/VC2/VC2.H">
<polygon fill="none" stroke="#000000" points="408,-151 408,-192 537,-192 537,-151 408,-151"/>
<text text-anchor="start" x="416" y="-180" font-family="Helvetica,sans-Serif" font-size="10.00" fill="#000000">submodels/FrontTracking</text>
<text text-anchor="start" x="416" y="-169" font-family="Helvetica,sans-Serif" font-size="10.00" fill="#000000">/VolumeCorrectionModels</text>
<text text-anchor="middle" x="472.5" y="-158" font-family="Helvetica,sans-Serif" font-size="10.00" fill="#000000">/VC2/VC2.H</text>
</a>
</g>
</g>
<!-- Node5&#45;&gt;Node11 -->
<g id="edge6" class="edge">
<title>Node5&#45;&gt;Node11</title>
<path fill="none" stroke="#191970" d="M413.1037,-227.1449C425.6324,-215.4075 439.3413,-202.5645 450.4289,-192.1771"/>
<polygon fill="#191970" stroke="#191970" points="410.3942,-224.8873 405.4893,-234.2784 415.18,-229.9958 410.3942,-224.8873"/>
</g>
<!-- Node13 -->
<g id="node9" class="node">
<title>Node13</title>
<g id="a_node9"><a xlink:href="submodels_2FrontTracking_2VolumeCorrectionModels_2VolumeCorrectionModel_2VolumeCorrectionModel_8C.html" target="_top" xlink:title="submodels/FrontTracking\l/VolumeCorrectionModels\l/VolumeCorrectionModel/VolumeCorrection\lModel.C">
<polygon fill="none" stroke="#000000" points="555,-145.5 555,-197.5 760,-197.5 760,-145.5 555,-145.5"/>
<text text-anchor="start" x="563" y="-185.5" font-family="Helvetica,sans-Serif" font-size="10.00" fill="#000000">submodels/FrontTracking</text>
<text text-anchor="start" x="563" y="-174.5" font-family="Helvetica,sans-Serif" font-size="10.00" fill="#000000">/VolumeCorrectionModels</text>
<text text-anchor="start" x="563" y="-163.5" font-family="Helvetica,sans-Serif" font-size="10.00" fill="#000000">/VolumeCorrectionModel/VolumeCorrection</text>
<text text-anchor="middle" x="657.5" y="-152.5" font-family="Helvetica,sans-Serif" font-size="10.00" fill="#000000">Model.C</text>
</a>
</g>
</g>
<!-- Node5&#45;&gt;Node13 -->
<g id="edge9" class="edge">
<title>Node5&#45;&gt;Node13</title>
<path fill="none" stroke="#191970" d="M469.1523,-231.3677C503.4006,-220.4816 542.0494,-208.1968 575.3841,-197.6011"/>
<polygon fill="#191970" stroke="#191970" points="468.0872,-228.0336 459.6173,-234.3984 470.2077,-234.7047 468.0872,-228.0336"/>
</g>
<!-- Node8 -->
<g id="node4" class="node">
<title>Node8</title>
<g id="a_node4"><a xlink:href="parcels_2include_2makeFrontTrackingParcelVolumeCorrectionModels_8H.html" target="_top" xlink:title="parcels/include/makeFront\lTrackingParcelVolumeCorrection\lModels.H">
<polygon fill="none" stroke="#000000" points="310.5,-67.5 310.5,-108.5 470.5,-108.5 470.5,-67.5 310.5,-67.5"/>
<text text-anchor="start" x="318.5" y="-96.5" font-family="Helvetica,sans-Serif" font-size="10.00" fill="#000000">parcels/include/makeFront</text>
<text text-anchor="start" x="318.5" y="-85.5" font-family="Helvetica,sans-Serif" font-size="10.00" fill="#000000">TrackingParcelVolumeCorrection</text>
<text text-anchor="middle" x="390.5" y="-74.5" font-family="Helvetica,sans-Serif" font-size="10.00" fill="#000000">Models.H</text>
</a>
</g>
</g>
<!-- Node7&#45;&gt;Node8 -->
<g id="edge3" class="edge">
<title>Node7&#45;&gt;Node8</title>
<path fill="none" stroke="#191970" d="M317.2923,-144.6004C332.3532,-132.9561 349.7061,-119.5397 363.7362,-108.6924"/>
<polygon fill="#191970" stroke="#191970" points="314.9671,-141.974 309.1966,-150.8595 319.2487,-147.5119 314.9671,-141.974"/>
</g>
<!-- Node10 -->
<g id="node6" class="node">
<title>Node10</title>
<g id="a_node6"><a xlink:href="submodels_2FrontTracking_2VolumeCorrectionModels_2NoVolumeCorrection_2NoVolumeCorrection_8C.html" target="_top" xlink:title="submodels/FrontTracking\l/VolumeCorrectionModels\l/NoVolumeCorrection/NoVolumeCorrection.C">
<polygon fill="none" stroke="#000000" points="77,-67.5 77,-108.5 292,-108.5 292,-67.5 77,-67.5"/>
<text text-anchor="start" x="85" y="-96.5" font-family="Helvetica,sans-Serif" font-size="10.00" fill="#000000">submodels/FrontTracking</text>
<text text-anchor="start" x="85" y="-85.5" font-family="Helvetica,sans-Serif" font-size="10.00" fill="#000000">/VolumeCorrectionModels</text>
<text text-anchor="middle" x="184.5" y="-74.5" font-family="Helvetica,sans-Serif" font-size="10.00" fill="#000000">/NoVolumeCorrection/NoVolumeCorrection.C</text>
</a>
</g>
</g>
<!-- Node7&#45;&gt;Node10 -->
<g id="edge5" class="edge">
<title>Node7&#45;&gt;Node10</title>
<path fill="none" stroke="#191970" d="M250.549,-144.2765C236.9715,-132.7079 221.3988,-119.4393 208.7857,-108.6924"/>
<polygon fill="#191970" stroke="#191970" points="248.3936,-147.0381 258.2753,-150.8595 252.9335,-141.7099 248.3936,-147.0381"/>
</g>
<!-- Node9 -->
<g id="node5" class="node">
<title>Node9</title>
<g id="a_node5"><a xlink:href="parcels_2derived_2frontTrackingParcel_2makeFrontTrackingParcelSubmodels_8C.html" target="_top" xlink:title="parcels/derived/frontTracking\lParcel/makeFrontTrackingParcelSubmodels.C">
<polygon fill="none" stroke="#000000" points="281.5,-.5 281.5,-30.5 499.5,-30.5 499.5,-.5 281.5,-.5"/>
<text text-anchor="start" x="289.5" y="-18.5" font-family="Helvetica,sans-Serif" font-size="10.00" fill="#000000">parcels/derived/frontTracking</text>
<text text-anchor="middle" x="390.5" y="-7.5" font-family="Helvetica,sans-Serif" font-size="10.00" fill="#000000">Parcel/makeFrontTrackingParcelSubmodels.C</text>
</a>
</g>
</g>
<!-- Node8&#45;&gt;Node9 -->
<g id="edge4" class="edge">
<title>Node8&#45;&gt;Node9</title>
<path fill="none" stroke="#191970" d="M390.5,-57.3279C390.5,-48.0871 390.5,-38.3508 390.5,-30.5991"/>
<polygon fill="#191970" stroke="#191970" points="387.0001,-57.4183 390.5,-67.4183 394.0001,-57.4184 387.0001,-57.4183"/>
</g>
<!-- Node11&#45;&gt;Node8 -->
<g id="edge7" class="edge">
<title>Node11&#45;&gt;Node8</title>
<path fill="none" stroke="#191970" d="M445.1267,-143.626C433.9185,-132.2127 421.1772,-119.2384 410.8207,-108.6924"/>
<polygon fill="#191970" stroke="#191970" points="442.7264,-146.177 452.2303,-150.8595 447.7208,-141.2723 442.7264,-146.177"/>
</g>
<!-- Node12 -->
<g id="node8" class="node">
<title>Node12</title>
<g id="a_node8"><a xlink:href="submodels_2FrontTracking_2VolumeCorrectionModels_2VC2_2VC2_8C.html" target="_top" xlink:title="submodels/FrontTracking\l/VolumeCorrectionModels\l/VC2/VC2.C">
<polygon fill="none" stroke="#000000" points="489,-67.5 489,-108.5 618,-108.5 618,-67.5 489,-67.5"/>
<text text-anchor="start" x="497" y="-96.5" font-family="Helvetica,sans-Serif" font-size="10.00" fill="#000000">submodels/FrontTracking</text>
<text text-anchor="start" x="497" y="-85.5" font-family="Helvetica,sans-Serif" font-size="10.00" fill="#000000">/VolumeCorrectionModels</text>
<text text-anchor="middle" x="553.5" y="-74.5" font-family="Helvetica,sans-Serif" font-size="10.00" fill="#000000">/VC2/VC2.C</text>
</a>
</g>
</g>
<!-- Node11&#45;&gt;Node12 -->
<g id="edge8" class="edge">
<title>Node11&#45;&gt;Node12</title>
<path fill="none" stroke="#191970" d="M499.5394,-143.626C510.611,-132.2127 523.1969,-119.2384 533.4271,-108.6924"/>
<polygon fill="#191970" stroke="#191970" points="496.9731,-141.2448 492.5225,-150.8595 501.9975,-146.1188 496.9731,-141.2448"/>
</g>
</g>
</svg>
