<?xml version="1.0" encoding="UTF-8" standalone="no"?>
<!DOCTYPE svg PUBLIC "-//W3C//DTD SVG 1.1//EN"
 "http://www.w3.org/Graphics/SVG/1.1/DTD/svg11.dtd">
<!-- Generated by graphviz version 2.40.1 (20161225.0304)
 -->
<!-- Title: submodels/FrontTracking/SurfaceTensionModels/NoSurfaceTension/NoSurfaceTension.H Pages: 1 -->
<svg width="427pt" height="195pt"
 viewBox="0.00 0.00 426.50 195.00" xmlns="http://www.w3.org/2000/svg" xmlns:xlink="http://www.w3.org/1999/xlink">
<g id="graph0" class="graph" transform="scale(1 1) rotate(0) translate(4 191)">
<title>submodels/FrontTracking/SurfaceTensionModels/NoSurfaceTension/NoSurfaceTension.H</title>
<!-- Node2 -->
<g id="node1" class="node">
<title>Node2</title>
<polygon fill="#bfbfbf" stroke="#000000" points="117.5,-145.5 117.5,-186.5 312.5,-186.5 312.5,-145.5 117.5,-145.5"/>
<text text-anchor="start" x="125.5" y="-174.5" font-family="Helvetica,sans-Serif" font-size="10.00" fill="#000000">submodels/FrontTracking</text>
<text text-anchor="start" x="125.5" y="-163.5" font-family="Helvetica,sans-Serif" font-size="10.00" fill="#000000">/SurfaceTensionModels</text>
<text text-anchor="middle" x="215" y="-152.5" font-family="Helvetica,sans-Serif" font-size="10.00" fill="#000000">/NoSurfaceTension/NoSurfaceTension.H</text>
</g>
<!-- Node3 -->
<g id="node2" class="node">
<title>Node3</title>
<g id="a_node2"><a xlink:href="parcels_2include_2makeFrontTrackingParcelSurfaceTensionModels_8H.html" target="_top" xlink:title="parcels/include/makeFront\lTrackingParcelSurfaceTensionModels.H">
<polygon fill="none" stroke="#000000" points="13,-73 13,-103 205,-103 205,-73 13,-73"/>
<text text-anchor="start" x="21" y="-91" font-family="Helvetica,sans-Serif" font-size="10.00" fill="#000000">parcels/include/makeFront</text>
<text text-anchor="middle" x="109" y="-80" font-family="Helvetica,sans-Serif" font-size="10.00" fill="#000000">TrackingParcelSurfaceTensionModels.H</text>
</a>
</g>
</g>
<!-- Node2&#45;&gt;Node3 -->
<g id="edge1" class="edge">
<title>Node2&#45;&gt;Node3</title>
<path fill="none" stroke="#191970" d="M178.552,-139.1798C162.1592,-127.1171 143.4181,-113.3265 129.5233,-103.102"/>
<polygon fill="#191970" stroke="#191970" points="176.7434,-142.1944 186.8722,-145.3022 180.8922,-136.5563 176.7434,-142.1944"/>
</g>
<!-- Node5 -->
<g id="node4" class="node">
<title>Node5</title>
<g id="a_node4"><a xlink:href="submodels_2FrontTracking_2SurfaceTensionModels_2NoSurfaceTension_2NoSurfaceTension_8C.html" target="_top" xlink:title="submodels/FrontTracking\l/SurfaceTensionModels\l/NoSurfaceTension/NoSurfaceTension.C">
<polygon fill="none" stroke="#000000" points="223.5,-67.5 223.5,-108.5 418.5,-108.5 418.5,-67.5 223.5,-67.5"/>
<text text-anchor="start" x="231.5" y="-96.5" font-family="Helvetica,sans-Serif" font-size="10.00" fill="#000000">submodels/FrontTracking</text>
<text text-anchor="start" x="231.5" y="-85.5" font-family="Helvetica,sans-Serif" font-size="10.00" fill="#000000">/SurfaceTensionModels</text>
<text text-anchor="middle" x="321" y="-74.5" font-family="Helvetica,sans-Serif" font-size="10.00" fill="#000000">/NoSurfaceTension/NoSurfaceTension.C</text>
</a>
</g>
</g>
<!-- Node2&#45;&gt;Node5 -->
<g id="edge3" class="edge">
<title>Node2&#45;&gt;Node5</title>
<path fill="none" stroke="#191970" d="M251.3836,-139.2272C265.0427,-129.1761 280.34,-117.9196 293.1086,-108.5239"/>
<polygon fill="#191970" stroke="#191970" points="249.1078,-136.5563 243.1278,-145.3022 253.2566,-142.1944 249.1078,-136.5563"/>
</g>
<!-- Node4 -->
<g id="node3" class="node">
<title>Node4</title>
<g id="a_node3"><a xlink:href="parcels_2derived_2frontTrackingParcel_2makeFrontTrackingParcelSubmodels_8C.html" target="_top" xlink:title="parcels/derived/frontTracking\lParcel/makeFrontTrackingParcelSubmodels.C">
<polygon fill="none" stroke="#000000" points="0,-.5 0,-30.5 218,-30.5 218,-.5 0,-.5"/>
<text text-anchor="start" x="8" y="-18.5" font-family="Helvetica,sans-Serif" font-size="10.00" fill="#000000">parcels/derived/frontTracking</text>
<text text-anchor="middle" x="109" y="-7.5" font-family="Helvetica,sans-Serif" font-size="10.00" fill="#000000">Parcel/makeFrontTrackingParcelSubmodels.C</text>
</a>
</g>
</g>
<!-- Node3&#45;&gt;Node4 -->
<g id="edge2" class="edge">
<title>Node3&#45;&gt;Node4</title>
<path fill="none" stroke="#191970" d="M109,-62.8409C109,-52.0601 109,-39.8309 109,-30.5028"/>
<polygon fill="#191970" stroke="#191970" points="105.5001,-62.9779 109,-72.978 112.5001,-62.978 105.5001,-62.9779"/>
</g>
</g>
</svg>
